<?xml version="1.0" encoding="utf-8"?>
<!-- Generator: Adobe Illustrator 25.3.1, SVG Export Plug-In . SVG Version: 6.00 Build 0)  -->
<svg version="1.1" xmlns="http://www.w3.org/2000/svg" xmlns:xlink="http://www.w3.org/1999/xlink" x="0px" y="0px"
	 viewBox="0 0 846.38 311.32" style="enable-background:new 0 0 846.38 311.32;" xml:space="preserve">
<style type="text/css">
	.st0{display:none;}
	.st1{display:inline;fill:#9EDBF5;}
	.st2{display:inline;fill:#101416;}
</style>
<g id="Ebene_1">
	<path d="M110.84,255.42l55.92,55.92h133.58V0.01h-113v55.76L131.58,0.01H0v311.33h110.83V255.42z M174.25,305.34l80.23-87.33
		l38.51,87.33H174.25z M294.34,293.52l-35.58-80.68l35.58-181.36V293.52z M293.22,6.01l-38.64,196.96L193.34,61.82V6.01H293.22z
		 M190.33,69.97l61.6,141.96l-84.32,91.78l-55.57-55.57L190.33,69.97z M124.91,6.01l-79.6,129.03L7.39,6.01H124.91z M6,22.58
		l35.23,119.82L6,283.88V22.58z M104.84,305.34h-98l38.64-155.18l59.36,100.28V305.34z M47.84,142.38L130.87,7.78l55.74,55.74
		L107.6,243.33L47.84,142.38z"/>
	<path d="M640.95,59.47L559.11,0.01H457.95l-81.84,59.46l-31.26,96.21l31.26,96.2l81.84,59.46h101.16l81.84-59.46l31.26-96.2
		L641.25,60.4L640.95,59.47z M557.16,6.01l77.6,56.38L577.38,205.9L463.5,6.01H557.16z M460.08,12.12l111.01,194.85l-132.14-52.95
		L460.08,12.12z M381.21,63.18l73.1-53.11l-21.23,142.61h-80.95L381.21,63.18z M381.21,248.17l-29.08-89.5h80.64l22.16,143.06
		L381.21,248.17z M439.14,160.57l131.88,52.85l-110.09,87.88L439.14,160.57z M554.44,305.34h-88.95l107.35-85.69L554.44,305.34z
		 M561.2,302.4l18.23-84.94L633,250.24L561.2,302.4z M636.72,245.48l-55.2-33.77l56.59-141.55l27.79,85.52L636.72,245.48z"/>
	<path d="M846.38,0.01H715.34v311.33h131.05V0.01z M837.89,6.01l-32.16,81.76L725.48,6.01H837.89z M721.34,10.35l82.22,83.77
		l-23.32,104.92l-58.9,25.77V10.35z M721.34,231.36l54.07-23.66l-54.07,89.84V231.36z M723.64,305.34l59.12-98.22l55.66,98.22
		H723.64z M840.38,296.64l-54.37-95.94l21.61-97.25l32.75,83.82V296.64z M840.38,170.78l-30.32-77.6l30.32-77.11V170.78z"/>
</g>
<g id="Hilfskästchen" class="st0">
	<rect x="846.37" y="119.63" class="st1" width="125.73" height="39.58"/>
	<polygon class="st2" points="907,136.86 905.45,137.37 905.27,136.64 907.15,136.05 907.88,136.05 907.88,143.89 907,143.89 	"/>
	<text transform="matrix(1 0 0 1 909.8549 143.8931)" class="st2" style="font-family:'KievitOT-Regular'; font-size:11.7739px;"> </text>
	<text transform="matrix(1 0 0 1 910.5052 143.8931)" class="st2" style="font-family:'KievitOT-Regular'; font-size:11.7739px;">i</text>
	<rect x="-125.73" y="121.29" class="st1" width="125.68" height="39.58"/>
	<polygon class="st2" points="-65.14,138.52 -66.68,139.03 -66.87,138.3 -64.98,137.71 -64.25,137.71 -64.25,145.55 -65.14,145.55 	
		"/>
	<text transform="matrix(1 0 0 1 -63.0999 145.5513)" class="st2" style="font-family:'KievitOT-Regular'; font-size:11.7739px;"> </text>
	<text transform="matrix(1 0 0 1 -61.6278 145.5513)" class="st2" style="font-family:'KievitOT-Regular'; font-size:11.7739px;">i</text>
	<rect x="472.36" y="-125.62" class="st1" width="39.58" height="125.68"/>
	<polygon class="st2" points="489.59,-60.54 490.09,-59 489.36,-58.81 488.77,-60.7 488.77,-61.43 496.62,-61.43 496.62,-60.54 	"/>
	<text transform="matrix(0 -1 1 0 496.6205 -62.579)" class="st2" style="font-family:'KievitOT-Regular'; font-size:11.7739px;"> </text>
	<text transform="matrix(0 -1 1 0 496.6205 -64.0507)" class="st2" style="font-family:'KievitOT-Regular'; font-size:11.7739px;">i</text>
	<rect x="484.67" y="490.82" class="st1" width="39.58" height="125.68"/>
	<polygon class="st2" points="501.9,555.9 502.41,557.45 501.68,557.63 501.09,555.75 501.09,555.02 508.94,555.02 508.94,555.9 	
		"/>
	<text transform="matrix(0 -1 1 0 508.9369 553.8628)" class="st2" style="font-family:'KievitOT-Regular'; font-size:11.7739px;"> </text>
	<text transform="matrix(0 -1 1 0 508.9379 552.396)" class="st2" style="font-family:'KievitOT-Regular'; font-size:11.7739px;">i</text>
	<rect x="173.51" y="311.33" class="st1" width="57.03" height="41.89"/>
	<path class="st2" d="M194.68,329.72l-1.54,0.51l-0.19-0.73l1.88-0.59h0.73v7.84h-0.88V329.72z M200.38,328.27h0.82l-3.75,10.38
		h-0.82L200.38,328.27z M201.95,336.8l0.13-0.77c0.13,0.04,0.46,0.09,1,0.09c1.44,0,2.21-0.64,2.21-1.66c0-1.2-1.06-1.61-2.52-1.63
		v-0.64c1.18-0.01,2.29-0.61,2.29-1.63c0-0.65-0.46-1.02-1.27-1.02c-0.75,0-1.19,0.24-1.61,0.57l-0.42-0.58
		c0.41-0.37,1.12-0.78,2.1-0.78c1.42,0,2.14,0.77,2.14,1.77c0,0.99-0.81,1.64-1.71,1.88v0.01c1.02,0.09,1.96,0.91,1.96,1.99
		c0,1.61-1.34,2.47-3.13,2.47C202.46,336.89,202.07,336.83,201.95,336.8z"/>
	<text transform="matrix(1 0 0 1 206.9105 336.7505)" class="st2" style="font-family:'KievitOT-Regular'; font-size:11.7739px;"> </text>
	<text transform="matrix(1 0 0 1 208.3827 336.7505)" class="st2" style="font-family:'KievitOT-Regular'; font-size:11.7739px;">i</text>
</g>
</svg>
