<svg id="Livello_1" data-name="Livello 1" xmlns="http://www.w3.org/2000/svg" viewBox="0 0 31 44.3"><title>pin</title><path id="_Color" data-name=" Color" d="M15.5,43.5h0A100.29923,100.29923,0,0,1,8,33.8a68.79966,68.79966,0,0,1-5.2-9.1A22.7,22.7,0,0,1,.5,15.6a15,15,0,0,1,30,0h0a22.69985,22.69985,0,0,1-2.3,9.1A68.79966,68.79966,0,0,1,23,33.8,100.29923,100.29923,0,0,1,15.5,43.5Zm0-33.3a5.4,5.4,0,1,0,0,10.7,5.5,5.5,0,0,0,5.4-5.3h0a5.4,5.4,0,0,0-5.4-5.4Z" transform="translate(0)" fill="#a9bf00"/><path d="M15.5,44.3l-.4-.5A101.6002,101.6002,0,0,1,7.6,34a62.90031,62.90031,0,0,1-5.2-9.1A25.09991,25.09991,0,0,1,0,15.6,15.6,15.6,0,0,1,15.5,0,15.6,15.6,0,0,1,31,15.5a25.1,25.1,0,0,1-2.4,9.4A58.00011,58.00011,0,0,1,23.4,34a101.6002,101.6002,0,0,1-7.5,9.8ZM15.5,1A14.6,14.6,0,0,0,1,15.5a21.8,21.8,0,0,0,2.3,9,66.8997,66.8997,0,0,0,5.1,9,107.09989,107.09989,0,0,0,7.1,9.2,107.09989,107.09989,0,0,0,7.1-9.2,66.8997,66.8997,0,0,0,5.1-9,21.8,21.8,0,0,0,2.3-9A14.6,14.6,0,0,0,15.5,1Zm0,20.4h0A5.9,5.9,0,1,1,13.967,9.7a8.54,8.54,0,0,1,1.533,0h0a5.9,5.9,0,0,1,5.9,5.8A6,6,0,0,1,15.5,21.4Zm-.80208-10.76458a5.20751,5.20751,0,0,0-4.74613,4.21637A4.9,4.9,0,0,0,15.5,20.4h0a5,5,0,0,0,4.9-4.8c0-2.7062-2.03542-4.58125-4.81667-4.96458A4.40352,4.40352,0,0,0,14.69792,10.63542Z" transform="translate(0)" fill="#50742f"/></svg>