<svg data-name="Livello 1" xmlns="http://www.w3.org/2000/svg" width="101.8" height="101.8" viewBox="0 0 101.8 101.8"><path d="M50.5.6a49.9,49.9,0,1,0,49.9,49.9h0A49.8,49.8,0,0,0,50.5.6" transform="translate(0.4 0.4)" fill="#fff" stroke="#010101" stroke-miterlimit="10" stroke-width="2"/><rect x="33.1" y="37.1" width="35.6" height="45.91" fill="#010101"/><path d="M43,52.8a2.3,2.3,0,0,0,0-4.6h0a2.3,2.3,0,0,0-2.3,2.3h0A2.3,2.3,0,0,0,43,52.8" transform="translate(0.4 0.4)" fill="#fff"/><path d="M49.4,65.4,47.1,55.1c-.6-1.2-1.2-1.7-2.3-1.7H40.7c-1.1,0-1.7.5-2.3,1.7L36.2,65.4h1.7L39,60.3V79.2h2.9V66.6H43V79.2h2.9V60.8L47.1,66Z" transform="translate(0.4 0.4)" fill="#fff"/><path d="M58,52.8a2.3,2.3,0,0,0,0-4.6h0a2.3,2.3,0,0,0-2.3,2.3h0A2.3,2.3,0,0,0,58,52.8" transform="translate(0.4 0.4)" fill="#fff"/><path d="M64.3,65.4,62,55.1c-.6-1.2-1.2-1.7-2.3-1.7h-4a2.1,2.1,0,0,0-2.3,1.7L51.1,65.4h1.7l1.1-5.1V79.2h2.9V66.6H58V79.2h2.8V60.8L62,66Z" transform="translate(0.4 0.4)" fill="#fff"/><polygon points="40.6 31.4 34.8 25.1 33.1 26.8 40 33.7 41.7 34.8 42.9 33.7 49.8 26.8 48.6 25.1 42.9 31.4 42.9 18.2 40.6 18.2 40.6 31.4" fill="#010101"/><polygon points="59.5 22.2 53.8 27.9 52.6 26.8 58.9 19.9 60.7 18.2 61.8 19.9 68.7 26.8 67.5 27.9 61.8 22.2 61.8 34.8 59.5 34.8 59.5 22.2" fill="#010101"/></svg>