<svg data-name="Livello 1" xmlns="http://www.w3.org/2000/svg" width="479.8" height="172" viewBox="0 0 479.8 172"><path d="M129.2,110.8h24.6c.1,1.1.2,2.2.2,3.3,0,20.5,0,41.1.1,61.6,0,3.1-1,3.8-3.8,3.7H130.1c-.1-1.8-.3-3.1-.4-5l-3,1.7c-7.9,4.9-16.4,5.6-25.1,3.2s-13.3-8.9-13.5-18.2c-.5-16.4-.2-32.8-.2-49.2a3,3,0,0,1,.3-1.1h24.3c0,1.1.2,2.3.2,3.4v36.2a29.7,29.7,0,0,0,.3,4.2c.6,4.3,1.9,5.9,5.2,6.6s9-1,10.4-3.4a6.8,6.8,0,0,0,.5-3.2c.1-13.3.1-26.5.1-39.8Z" transform="translate(-8.2 -109.3)" fill="#010101"/><path d="M264.1,172.4a20.1,20.1,0,0,1-12,7.6c-5.7,1-11.3.9-16.7-1.3-7.9-3.2-11.2-9.4-11.4-17.7s3.1-14.7,10.9-18.2,14.9-3.7,22.6-3.6c3.7,0,4.2-.5,3.4-4.2s-3-6.3-7.1-6.3c-6,.1-12,.9-18.1,1.5-1.1.1-2.3.5-3.9.8,0-5.8-.1-11.5.1-17.1,0-.6,1.1-1.4,1.8-1.6,12.2-3.3,24.6-4.3,36.8-.7,9.8,2.9,15.1,10.5,15.3,21.3.2,7.7.1,15.4.1,23.1,0,5.5.6,6.3,6.1,7.3,0,4.5.2,9-.2,13.5,0,1.1-2,2.3-3.4,2.8C278.8,182.6,270.8,180.3,264.1,172.4Zm-3-15.3a10,10,0,0,0-.1-3c-.2-.8-1.1-1.9-1.6-1.9a36.6,36.6,0,0,0-8.1.9,4.6,4.6,0,0,0-3.1,5.3c.3,1.7,1.2,3.9,2.6,4.7C255.8,166.1,261.1,162.8,261.1,157.1Z" transform="translate(-8.2 -109.3)" fill="#010101"/><path d="M69.5,158.6c0,5.9.1,11.2-.1,16.6a2.9,2.9,0,0,1-1.6,2.1c-13.8,4.1-27.7,5.1-41.3-.2a26.7,26.7,0,0,1-16.1-17.6,45.7,45.7,0,0,1-.3-26.9c4.2-14,15.8-22.9,30.4-23.1a58.9,58.9,0,0,1,13.3,1.3c11.4,2.7,19.1,12.1,20.4,24.4.4,4,.5,8.1.6,12.1,0,2.3-.9,3.3-3.5,3.3-11.1-.2-22.3-.1-33.4-.1H34.4c-.7,6.9,3.1,11.2,9.9,11.8a54.1,54.1,0,0,0,21.9-2.6ZM34.6,137.3H49.2c.5,0,1.3-.9,1.4-1.5.5-3.2-2.2-7.3-5.3-8.3C39.6,125.4,34.9,129.5,34.6,137.3Z" transform="translate(-8.2 -109.3)" fill="#010101"/><path d="M355.7,158.1c0,6.3.1,11.9,0,17.6a3.5,3.5,0,0,1-1.8,2.3c-13,3.9-25.9,3.9-38.3-2.2-7-3.4-11.3-9.4-13.4-16.8a47.7,47.7,0,0,1-.4-24.3c3.6-14.1,13-22,27-24.6a52.9,52.9,0,0,1,23.4,1.3c.9.2,2.2,1.2,2.2,1.8.2,5.7.1,11.3.1,17.3-3.2-.8-6.1-1.6-9-2.1a34.9,34.9,0,0,0-7.9-.3,10.3,10.3,0,0,0-8.9,6.4,25.2,25.2,0,0,0-.7,19.8c1.9,4.9,5.8,7.3,11.1,7.5A30.1,30.1,0,0,0,355.7,158.1Z" transform="translate(-8.2 -109.3)" fill="#010101"/><path d="M170.6,110.8h24.5v6.6a26.3,26.3,0,0,0,2.3-1.6c5-4.7,11-6.6,17.8-6.3,2.3.1,3.4.8,3.3,3.4-.2,6.1,0,12.3,0,18.6a40.4,40.4,0,0,0-19.6,1.5c-2.4.8-3.4,2-3.4,4.8.2,12.5,0,25.1.1,37.6.1,3-.7,4.2-3.9,4.1-6.1-.3-12.3-.1-18.5-.1-1.6,0-2.6-.3-2.6-2.3C170.7,155.1,170.6,133.1,170.6,110.8Z" transform="translate(-8.2 -109.3)" fill="#010101"/><path d="M448.7,279.7H422.6c-.8-2.2-.2-3.4,2.4-3.7,4.5-.6,5.7-1.9,5.8-6.5.1-7.1.1-14.2.1-21.3V205.1c0-5.1-1.1-6.3-5.9-7.8-1-.3-1.8-1.4-2.6-2.1a11.7,11.7,0,0,1,2.4-2.1l15.5-5.8v35.3l3.2-2.3c5.5-3.9,11.4-6.6,18.3-6,11.1.9,17,6.8,17.3,18s.2,21.8.2,32.8c0,1.1,0,2.2.1,3.3.7,6.2.7,6.2,6.7,7.7,2.1.6,2.1,1.9,1.7,3.3H461.4c-.9-2.2.2-3.1,2.8-3.4s5.4-1.8,5.5-5.8c.1-12.2.3-24.3,0-36.5-.3-8.8-7.3-13.6-16.7-11.9l-2.7.6c-9.1,2.3-9.9,3.4-9.9,12.6v31a23.2,23.2,0,0,0,.4,4.6c.6,4.1,1.4,4.8,5.5,5.4S449.2,276.6,448.7,279.7Z" transform="translate(-8.2 -109.3)" fill="#010101"/><path d="M250.6,223.9c-.9-1.4-.3-2.7,1.4-4.1,7.6-6.2,20.4-7.5,29-2.8a16.9,16.9,0,0,1,9,15.5c.2,10.9-.2,21.9-.4,32.8a21.7,21.7,0,0,0,.2,3.6c.7,4.6,2.3,6,6.9,6.6a3.6,3.6,0,0,1,1.5.2c.7.4,1.8,1,1.8,1.5s-.6,2.3-1.3,2.6a19.2,19.2,0,0,1-12.5.9c-3.7-.9-5-4.1-5.7-7.9-3.7,4-7.7,7.1-12.8,8-10.4,1.8-18.8-1.3-21.5-11.2-2.1-7.9,1.4-15.7,8.5-20.1,5.4-3.2,11.3-4.2,17.5-4.4H281c-.4-4.9-.3-9.7-1.3-14.3s-6-9.1-12.5-8.9S256.5,223.1,250.6,223.9Zm29.5,33.3h.4a38.4,38.4,0,0,0,0-4.8c-.1-.7-.9-1.8-1.4-1.8-7.1-.4-14.1-.4-20,4.2-3.5,2.8-4.6,8-3.1,12.5s5,7.1,9.7,6.7,7.6-1.7,11.2-3.1,3.6-2.9,3.2-5.8S280.1,259.9,280.1,257.2Z" transform="translate(-8.2 -109.3)" fill="#010101"/><path d="M236,243.6H196.5c-2.7-.1-3.9.9-3.5,3.4.7,4.6,1,9.4,2.5,13.7,3.5,9.6,12.7,14.7,23.1,13.2,4.5-.7,9-1.8,13.7-2.8,1.1,1.8.3,3.6-1.5,4.6-4,1.9-8,4.4-12.2,5-10.3,1.6-20.3.6-27.9-7.9-5.2-5.6-7.1-12.6-7.5-20-.7-10.8,1.1-20.8,8.3-29.3s20.8-11.9,31.3-7.1c8.5,3.9,12.3,11.1,13.2,20C236.2,238.6,236,240.8,236,243.6Zm-42-5.3.2.2,28.5.2a3.4,3.4,0,0,0,2.5-2.1c1-6.5-3.3-16.3-12.4-16.8S194,227.7,194,238.3Z" transform="translate(-8.2 -109.3)" fill="#010101"/><path d="M110.9,271c-1,1.8-1.4,3.9-2.6,4.6-4.1,2.1-8.3,4.5-12.7,5.2a40.5,40.5,0,0,1-14.7-.6c-9.4-2-15.5-8.2-18.3-17.3a44,44,0,0,1,1.6-31.7c5.5-12.6,17.8-19.1,31.1-16.5,10.8,2.1,18.1,11.5,18.5,23.6a8.6,8.6,0,0,0,0,1.6c.4,2.8-.8,3.8-3.7,3.8-12-.2-23.9,0-35.9-.1-2.7-.1-4,.6-3.6,3.5s.8,8.3,2,12.2c3.3,10.4,12.5,16.1,23.3,14.6C100.6,273.3,105.2,272.1,110.9,271ZM71.6,238.7c9.6,0,19.2.1,28.8-.1.9,0,2.4-1.6,2.6-2.7,1.2-6.6-4.6-14.7-11.2-16C81.6,218,70.8,227.9,71.6,238.7Z" transform="translate(-8.2 -109.3)" fill="#010101"/><path d="M126.7,261.5h3.8a25,25,0,0,1,.7,2.6c1.3,9.4,7.7,13.2,18.4,11.5,7.1-1.2,10.8-5.7,10.7-12.1a9.1,9.1,0,0,0-5.2-8.4c-3.1-1.6-6.4-2.8-9.7-4.2s-6.6-2.6-9.7-4.3c-6.7-3.7-9-9.8-8.3-17.2s4.7-10.6,10.5-13c8-3.4,16.2-2.4,24.4-.3,4.4,1.1,4.4,1.2,4.4,5.8s0,6.5,0,9.7c-2.9.9-4.3.4-4.8-2.9s-3.9-8.4-9-8.9-7.8-.3-11.3.9a9.1,9.1,0,0,0-2.4,15.9c2.7,2.1,6,3.3,9.1,4.7s8.5,3.4,12.3,5.8c10.4,6.6,11.2,20.8,1.8,28.8-4.2,3.5-9,5.6-14.5,5.2s-12.4-1.1-18.6-1.8c-1.9-.2-2.7-1.2-2.6-3.3C126.8,271.3,126.7,266.6,126.7,261.5Z" transform="translate(-8.2 -109.3)" fill="#010101"/><path d="M408.4,231.9h-4.1l-.9-4a10.2,10.2,0,0,0-9.1-8.1c-9.6-1.2-17.5,3.5-21.4,13.3a37.2,37.2,0,0,0-.8,25.9c3.9,11.4,14.1,16.1,24.6,14.8,4.1-.4,8.2-1.9,12.4-3,1,1.9,0,3.5-1.6,4.9a22.4,22.4,0,0,1-12.4,5.4c-21.6,2.2-33.5-9.5-34.7-29.1-.9-14.4,4.1-26.4,17-33.9,9.9-5.8,20.2-4.4,30.5-1.2a2.3,2.3,0,0,1,1.3,1.7C409,222.9,408.7,227.2,408.4,231.9Z" transform="translate(-8.2 -109.3)" fill="#010101"/><path d="M312.5,279.6c-.8-2.4.2-3.3,2.7-3.6,4.3-.5,5.5-1.5,5.6-6,.2-13.3.2-26.7.2-40.1,0-4-1.3-5.1-5.8-6.6-1-.3-1.7-1.3-2.6-1.9.9-.8,1.6-2,2.6-2.4,4.9-1.7,9.8-3.2,15.1-4.9.2,2.8.3,5.5.5,8.7,6.4-5.7,12.8-10.2,22-7.8-.3,2.7-.6,5.4-.9,7.6l-13.1.9a8.8,8.8,0,0,0-2.3.7c-5.6,2.2-6,2.7-5.9,8.7,0,12.3,0,24.7.3,37,0,4.7,1.3,5.8,6,6.1s4.2.6,3.5,3.6Z" transform="translate(-8.2 -109.3)" fill="#010101"/><path d="M12.8,279.6c-.9-2.5.3-3.3,2.7-3.6,4.3-.5,5.5-1.7,5.5-6.1.2-13.1.3-26.3.2-39.4,0-4.5-1.3-5.7-5.5-7.1a11.4,11.4,0,0,1-2.8-2.1c.9-.8,1.6-1.9,2.6-2.3l15.1-5v9.2l2.5-2.3c5.2-4.3,10.7-7.7,17.9-6.3.7.2,1.9,1.1,1.8,1.7a64.7,64.7,0,0,1-.7,6.5c-3.4,0-6.5-.1-9.5,0a19.5,19.5,0,0,0-4.2.8c-7,2.2-7.9,3.3-7.8,10.7.1,11.7.1,23.4.4,35.2.2,5.4,1.2,6,6.6,6.6,2.1.2,4.3.3,3.2,3.5Z" transform="translate(-8.2 -109.3)" fill="#010101"/></svg>