<svg xmlns="http://www.w3.org/2000/svg" viewBox="0 0 97.3 97.8"><path d="M97,350.1c23.1-11.9,57-31.2,97.3-59.3v-9.5c-35.4,23.2-71.4,41.8-97.3,54.1Z" transform="translate(-97 -252.3)" fill="#010101"/><path d="M97,321.9c25.8-10.5,61.8-26.7,97.3-47.8v-4.7c-33.4,16.6-68,26.9-97.3,33.4Z" transform="translate(-97 -252.3)" fill="#010101"/><path d="M194.3,350.1V302.6c-22.1,18.7-44.1,34.8-62.5,47.5Z" transform="translate(-97 -252.3)" fill="#010101"/><path d="M119.3,350.1a678.2,678.2,0,0,0,59.9-39.8l15.1-11.4V293c-31.3,23.5-63.3,43-88.2,57.1Z" transform="translate(-97 -252.3)" fill="#010101"/><path d="M97,295.8c28.5-5,63.3-14,97.3-30.2v-5.3c-34.3,15.4-68.6,22-97.3,24.3Z" transform="translate(-97 -252.3)" fill="#010101"/><path d="M97,252.4v27.2l6.5-.5c23.7-1.8,55.9-6,90.8-21.1v-5.7H97Z" transform="translate(-97 -252.3)" fill="#010101"/></svg>