<?xml version="1.0" encoding="utf-8"?>
<!-- Generator: Adobe Illustrator 25.0.1, SVG Export Plug-In . SVG Version: 6.00 Build 0)  -->
<svg version="1.1" id="Livello_1" xmlns="http://www.w3.org/2000/svg" xmlns:xlink="http://www.w3.org/1999/xlink" x="0px" y="0px"
	 viewBox="0 0 101.8 101.8" style="enable-background:new 0 0 101.8 101.8;" xml:space="preserve">
<style type="text/css">
	.st0{fill:#FFFFFF;stroke:#010101;stroke-width:2;stroke-miterlimit:10;}
</style>
<path class="st0" d="M50.9,1C23.3,1,1,23.3,1,50.9s22.3,49.9,49.9,49.9s49.9-22.3,49.9-49.9l0,0l0,0C100.9,23.4,78.6,1.1,51.1,1
	c0,0,0,0,0,0H50.9"/>
<g>
	<path d="M61.3,72.6c4.9-4.2,7.9-10.3,7.9-17.2c0-5.1-1.7-9.9-4.8-13.9c-1.4-1.8-3.1-3.4-5-4.7l7.9-13.6l-4-2.3l1.8-3.1l-3.4-2
		L60,18.8l-4-2.3l-19,33l4,2.3l-1.9,3.3l3.4,2l1.9-3.3l4,2.3l8.3-14.4c4.3,3.2,6.9,8.2,6.9,13.7c0,9.5-7.8,17.2-17.5,17.2H23.4v5.6
		H76v-5.6H61.3z"/>
	<rect x="35.8" y="52.3" transform="matrix(0.5 -0.866 0.866 0.5 -34.1505 63.3532)" width="3.9" height="17.8"/>
</g>
</svg>
