<svg xmlns="http://www.w3.org/2000/svg" viewBox="0 0 230 53.24"><defs><style>.a{fill:#fff;}</style></defs><path d="M233.67,58.88c-2.59-.6-5.17-1.31-7.78-1.76a8,8,0,0,0-3.56.29c-10,3.11-19.41-1.24-22.75-10.64a17.76,17.76,0,0,1,9.95-22.41c9.16-3.69,18.82.56,23,10.14.31.71.74,1.37,1.11,2Zm-8.81-18.22A9,9,0,0,0,215.72,32a8.82,8.82,0,0,0-8.27,9,8.63,8.63,0,0,0,9.08,8.55A8.78,8.78,0,0,0,224.86,40.66Z" transform="translate(-3.67 -14.22)"/><path d="M78.39,14.22,81.51,24c-.41-.18-.11.09.14,0,14.57-2.7,22.07,3.59,22.09,18.53V58.37H95c0-5.94,0-11.71,0-17.48,0-5.59-2.94-9.07-7.3-8.94s-7,3.46-7.12,8.74c-.09,5.79,0,11.58,0,17.7H71.6V14.22Z" transform="translate(-3.67 -14.22)"/><path d="M10.46,14.22c.67,2.39,1.83,4.75,1.92,7.16.26,6.92,0,13.86.11,20.78,0,5.11,1.9,7.05,6.79,7.48,6.5.57,7,1.23,6.49,8.3C15.66,60.78,8.9,57.51,3.67,47.23v-33Z" transform="translate(-3.67 -14.22)"/><path d="M166.77,56.92c-2.21,11.2-2.21,11.2-9.21,10.06,0-9.6-.68-19.29.19-28.84.93-10.07,10.72-16.67,20.15-14.82a17.76,17.76,0,0,1,14,21.75c-2.17,9.53-11.72,15.21-21.59,12.85C169.16,57.63,168,57.26,166.77,56.92ZM174.68,32a9,9,0,0,0-8.52,8.9,8.76,8.76,0,0,0,9.16,8.65,8.56,8.56,0,0,0,8.19-9A8.8,8.8,0,0,0,174.68,32Z" transform="translate(-3.67 -14.22)"/><path d="M150.57,59.77c-6.81-3.78-12.92-1.09-19-1.4-9.36-.48-16.36-8.76-16.12-17.91a17.91,17.91,0,0,1,17.31-17.41,17.35,17.35,0,0,1,17.71,16.28C150.91,45.56,150.57,51.84,150.57,59.77ZM133.22,32a9,9,0,0,0-8.79,8.62,8.74,8.74,0,0,0,8.38,8.92,8.53,8.53,0,0,0,8.94-8.75A8.79,8.79,0,0,0,133.22,32Z" transform="translate(-3.67 -14.22)"/><path d="M27.69,23.61c9-1.38,9-1.38,11.55,6.1l6.44,18.76C48,41.64,50,35.92,52,30.18c2.54-7.41,3.08-7.75,11.66-6.74-3.83,11.19-7.6,22.31-11.5,33.38a3.36,3.36,0,0,1-2.39,1.79,50.13,50.13,0,0,1-8.22,0A3.4,3.4,0,0,1,39,57C35.18,45.91,31.47,34.79,27.69,23.61Z" transform="translate(-3.67 -14.22)"/><path class="a" d="M224.86,40.66a8.78,8.78,0,0,1-8.33,8.88A8.63,8.63,0,0,1,207.45,41a8.82,8.82,0,0,1,8.27-9A9,9,0,0,1,224.86,40.66Z" transform="translate(-3.67 -14.22)"/><path class="a" d="M174.68,32a8.8,8.8,0,0,1,8.83,8.51,8.56,8.56,0,0,1-8.19,9,8.76,8.76,0,0,1-9.16-8.65A9,9,0,0,1,174.68,32Z" transform="translate(-3.67 -14.22)"/><path class="a" d="M133.22,32a8.79,8.79,0,0,1,8.53,8.79,8.53,8.53,0,0,1-8.94,8.75,8.74,8.74,0,0,1-8.38-8.92A9,9,0,0,1,133.22,32Z" transform="translate(-3.67 -14.22)"/></svg>