<svg xmlns="http://www.w3.org/2000/svg" viewBox="0 0 110.59 48.53"><path d="M573.18,314.2h12.68l10.37,20.88,4.46,10.51H601c-.58-5-1.59-12.1-1.59-17.86V314.2H611.2V361H598.53l-10.37-20.95-4.46-10.44h-.29c.58,5.32,1.58,12.09,1.58,17.85V361H573.18Z" transform="translate(-573.18 -313.33)"/><path d="M619.55,337.38c0-15.41,8.79-24.05,21.75-24.05S663,322,663,337.38s-8.78,24.48-21.74,24.48S619.55,352.79,619.55,337.38Zm30.82,0c0-8.49-3.46-13.39-9.07-13.39s-9.07,4.9-9.07,13.39,3.45,13.83,9.07,13.83S650.37,345.88,650.37,337.38Z" transform="translate(-573.18 -313.33)"/><path d="M671.39,314.2h12.39V361H671.39Z" transform="translate(-573.18 -313.33)"/></svg>