<svg data-name="Livello 1" xmlns="http://www.w3.org/2000/svg" width="101.8" height="101.8" viewBox="0 0 101.8 101.8"><path d="M50.5.6a49.9,49.9,0,1,0,49.9,49.9h0A49.8,49.8,0,0,0,50.5.6" transform="translate(0.4 0.4)" fill="#fff" stroke="#010101" stroke-miterlimit="10" stroke-width="2"/><polygon points="37.1 79.6 26.2 79.6 26.2 75.6 33.1 75.6 33.1 67 41.7 67 41.7 58.4 50.9 58.4 50.9 49.8 59.5 49.8 59.5 41.1 68.7 41.1 68.7 33.1 79.6 33.1 79.6 37.1 72.7 37.1 72.7 45.2 63.5 45.2 63.5 53.8 54.9 53.8 54.9 62.4 45.7 62.4 45.7 71 37.1 71 37.1 79.6" fill="#010101"/><polygon points="49.2 33.1 37.7 33.1 37.7 34.8 46.3 34.8 30.8 49.8 30.8 41.1 29.1 41.1 29.1 53.2 40.6 53.2 40.6 50.9 32.5 50.9 47.5 36 47.5 44.6 49.2 44.6 49.2 33.1" fill="#010101"/></svg>