<svg data-name="Livello 1" xmlns="http://www.w3.org/2000/svg" width="102.6" height="102.6" viewBox="0 0 102.6 102.6"><path d="M100.6,50.2A50.3,50.3,0,1,1,50.2,0h.2a50.2,50.2,0,0,1,50.2,50.2h0" transform="translate(1 1)" fill="#fff" stroke="#010101" stroke-miterlimit="10" stroke-width="2"/><path d="M34.7,27.4a5,5,0,0,0,5-5h0a5,5,0,0,0-5-5,4.6,4.6,0,0,0-5.1,3.8v.2a1.7,1.7,0,0,0,0,1,5.1,5.1,0,0,0,5.1,5.1h0" transform="translate(1 1)" fill="#010101"/><path d="M66.6,27.4a5.1,5.1,0,0,0,5.1-5.1h0a5,5,0,0,0-5-5h-.1a5.1,5.1,0,0,0-.1,10.1h.1" transform="translate(1 1)" fill="#010101"/><path d="M40.8,40.1V37.6l6,17.2,4.1-1.5L43.3,32.5a5.3,5.3,0,0,0-4.6-3.1H30.6A5.3,5.3,0,0,0,26,32.5L18.4,53.3l4.1,1.5,6.1-17.2v2.5L22.5,62.4h5.6V82.7h5.5V62.4h2.6V82.7h5.6V62.4h5.6Z" transform="translate(1 1)" fill="#010101"/><path d="M79.8,53.8,75.3,32.5h0a4.7,4.7,0,0,0-4.6-3.1H62.6A5.3,5.3,0,0,0,58,32.5L53.4,53.8l4.1,1,2-10.6v39h5.6V56.3h2.6V83.2h5.5V44.7l2.1,10.1Z" transform="translate(1 1)" fill="#010101"/></svg>