<svg data-name="Icons Chat Bubble Fill" xmlns="http://www.w3.org/2000/svg" viewBox="0 0 19.7 15.8"><path d="M19.8,3.2H12V2.1h7.8ZM3.9,8.3H2.8V11a.6.6,0,0,1-.3.6l-.5.2-.5-.2a.8.8,0,0,1-.2-.6V8.3H.2v2.8a1.7,1.7,0,0,0,.4,1.3,1.4,1.4,0,0,0,1.1.4,1.3,1.3,0,0,0,1.1-.5v.5H3.9V8.3ZM8.7,9.9a1.7,1.7,0,0,0-.5-1.3,1.2,1.2,0,0,0-1-.4A1.7,1.7,0,0,0,6,8.7V8.3H4.9v4.5H6.1V10c0-.2,0-.5.2-.6l.5-.2.5.2c.2.1.2.4.2.6v2.8H8.7V9.9Zm2.2-3.3H9.8v.9h1.1Zm0,1.7H9.8v4.5h1.1Zm4.8,2.2v-1a1.9,1.9,0,0,0-.4-.9,2.1,2.1,0,0,0-1.1-.4,1.4,1.4,0,0,0-1.1.5V6.6H12v6.2h1.1v-.5c.2.4.6.5,1.1.5a1.5,1.5,0,0,0,1.1-.4,1.9,1.9,0,0,0,.4-.9v-1m-1.1,0a2.2,2.2,0,0,1-.1.9c-.1.3-.3.4-.7.4a.5.5,0,0,1-.6-.4,2.2,2.2,0,0,1-.1-.9c0-.4,0-.7.1-.8a.6.6,0,0,1,.6-.5.7.7,0,0,1,.7.5c.1.1.1.4.1.8m5.2,1.2h-2l2-2.6V8.3H16.5v1h1.9l-2,2.6v.9h3.4Zm0,5H12v1.2h7.8ZM3.9,8.3H2.8V11a.6.6,0,0,1-.3.6l-.5.2-.5-.2a.8.8,0,0,1-.2-.6V8.3H.2v2.8a1.7,1.7,0,0,0,.4,1.3,1.4,1.4,0,0,0,1.1.4,1.3,1.3,0,0,0,1.1-.5v.5H3.9V8.3ZM8.7,9.9a1.7,1.7,0,0,0-.5-1.3,1.2,1.2,0,0,0-1-.4A1.7,1.7,0,0,0,6,8.7V8.3H4.9v4.5H6.1V10c0-.2,0-.5.2-.6l.5-.2.5.2c.2.1.2.4.2.6v2.8H8.7V9.9Zm2.2-3.3H9.8v.9h1.1Zm0,1.7H9.8v4.5h1.1Zm4.8,2.2v-1a1.9,1.9,0,0,0-.4-.9,2.1,2.1,0,0,0-1.1-.4,1.4,1.4,0,0,0-1.1.5V6.6H12v6.2h1.1v-.5c.2.4.6.5,1.1.5a1.5,1.5,0,0,0,1.1-.4,1.9,1.9,0,0,0,.4-.9v-1m-1.1,0a2.2,2.2,0,0,1-.1.9c-.1.3-.3.4-.7.4a.5.5,0,0,1-.6-.4,2.2,2.2,0,0,1-.1-.9c0-.4,0-.7.1-.8a.6.6,0,0,1,.6-.5.7.7,0,0,1,.7.5c.1.1.1.4.1.8m5.2,1.2h-2l2-2.6V8.3H16.5v1h1.9l-2,2.6v.9h3.4Z" transform="translate(-0.2 -2.1)" fill="#010101"/></svg>