<svg id="Livello_1" data-name="Livello 1" xmlns="http://www.w3.org/2000/svg" viewBox="0 0 103.5 37.2"><title>logo</title><polygon points="99 11 103.5 22.6 103.5 0 99 11" fill="#c6e2f6"/><polygon points="88.2 0 99 11 103.5 0 88.2 0" fill="#b0d8f4"/><polygon points="88.2 27.6 88.2 37.2 96.2 24 88.2 27.6" fill="#5c792a"/><polygon points="96.2 24 103.5 37.2 103.5 22.6 99 11 96.2 24" fill="#d1d659"/><polygon points="88.2 0 88.2 27.6 96.2 24 99 11 88.2 0" fill="#c1cd07"/><polygon points="88.2 37.2 103.5 37.2 96.2 24 88.2 37.2" fill="#809753"/><polygon points="0 37.2 13 37.2 13 30 5.2 17.1 0 37.2" fill="#c6e2f6"/><polygon points="0 0 5.2 17.1 15.7 0 0 0" fill="#5c792a"/><polygon points="0 37.2 5.2 17.1 0 0 0 37.2" fill="#809753"/><polygon points="15.7 0 5.2 17.1 13 30 23 7.2 15.7 0" fill="#b0d8f4"/><polygon points="23 0 23 7.2 30.9 25.6 36 0 23 0" fill="#d1d659"/><polygon points="13 30 20.3 37.2 30.9 25.6 23 7.2 13 30" fill="#c1cd07"/><polygon points="36 0 30.9 25.6 36 37.2 36 0" fill="#d8595f"/><polygon points="20.3 37.2 36 37.2 30.9 25.6 20.3 37.2" fill="#ca133a"/><polygon points="46.3 7.1 42.5 18.6 53.2 18.6 56 0 46.3 7.1" fill="#b0d8f4"/><polygon points="56 0 70.6 25.6 77.9 7.1 68.1 0 56 0" fill="#ffd505"/><polygon points="56 0 53.2 18.6 70.6 25.6 56 0" fill="#c1cd07"/><polygon points="70.6 25.6 77.9 30.1 81.7 18.6 77.9 7.1 70.6 25.6" fill="#ffde55"/><polygon points="42.5 18.6 46.3 30.1 56 37.2 53.2 18.6 42.5 18.6" fill="#c6e2f6"/><polygon points="68.1 37.2 77.9 30.1 70.6 25.6 68.1 37.2" fill="#f07e07"/><polygon points="56 37.2 70.6 25.6 53.2 18.6 56 37.2" fill="#d1d659"/><polygon points="56 37.2 68.1 37.2 70.6 25.6 56 37.2" fill="#f5a14d"/></svg>