<svg id="Livello_1" data-name="Livello 1" xmlns="http://www.w3.org/2000/svg" viewBox="0 0 103.5211 46.86813"><title>logo-payoff</title><polygon points="99.02 10.987 103.521 22.624 103.521 0.001 99.02 10.987" fill="#c6e2f6"/><polygon points="88.182 0.001 99.02 10.987 103.521 0.001 88.182 0.001" fill="#b0d8f4"/><polygon points="88.182 27.631 88.182 37.234 96.258 24.01 88.182 27.631" fill="#5c792a"/><polygon points="96.258 24.01 103.521 37.234 103.521 22.624 99.02 10.987 96.258 24.01" fill="#d1d659"/><polygon points="88.182 0 88.182 27.632 96.258 24.009 99.02 10.986 88.182 0" fill="#c1cd07"/><polygon points="88.182 37.234 103.521 37.234 96.259 24.01 88.182 37.234" fill="#809753"/><polygon points="0.012 37.234 13.025 37.234 13.025 29.989 5.168 17.093 0.012 37.234" fill="#c6e2f6"/><polygon points="0.012 0.001 5.168 17.093 15.76 0.001 0.012 0.001" fill="#5c792a"/><polygon points="0.012 37.234 5.168 17.093 0.012 0.001 0.012 37.234" fill="#809753"/><polygon points="15.76 0 5.168 17.092 13.025 29.989 23.006 7.246 15.76 0" fill="#b0d8f4"/><polygon points="23.006 0 23.006 7.246 30.95 25.552 36.02 0 23.006 0" fill="#d1d659"/><polygon points="13.025 29.989 20.27 37.234 30.95 25.552 23.006 7.247 13.025 29.989" fill="#c1cd07"/><polygon points="36.02 0 30.95 25.552 36.02 37.234 36.02 0" fill="#d8595f"/><polygon points="20.27 37.234 36.02 37.234 30.95 25.552 20.27 37.234" fill="#ca133a"/><polygon points="46.264 7.112 42.527 18.618 53.22 18.618 56.052 0 46.264 7.112" fill="#b0d8f4"/><polygon points="56.052 0 70.624 25.552 77.936 7.112 68.15 0 56.052 0" fill="#ffd505"/><polygon points="56.052 0 53.22 18.617 70.624 25.552 56.052 0" fill="#c1cd07"/><polygon points="70.624 25.552 77.935 30.124 81.674 18.618 77.935 7.112 70.624 25.552" fill="#ffde55"/><polygon points="42.527 18.618 46.265 30.124 56.052 37.234 53.22 18.618 42.527 18.618" fill="#c6e2f6"/><polygon points="68.149 37.234 77.935 30.123 70.624 25.552 68.149 37.234" fill="#f07e07"/><polygon points="56.052 37.234 70.624 25.552 53.22 18.618 56.052 37.234" fill="#d1d659"/><polygon points="56.052 37.234 68.149 37.234 70.624 25.552 56.052 37.234" fill="#f5a14d"/><polygon points="4.048 46.788 6.432 46.788 6.432 46.283 4.647 46.283 4.647 44.696 6.172 44.696 6.172 44.198 4.647 44.198 4.647 42.858 6.385 42.858 6.385 42.352 4.048 42.352 4.048 46.788" fill="#1d1d1b"/><polygon points="31.478 46.788 29.606 44.437 31.365 42.352 30.672 42.352 28.927 44.464 28.927 42.352 28.328 42.352 28.328 46.788 28.927 46.788 28.927 44.497 30.739 46.788 31.478 46.788" fill="#1d1d1b"/><polygon points="48.303 42.857 49.556 42.857 49.556 42.352 46.446 42.352 46.446 42.857 47.698 42.857 47.698 46.787 48.303 46.787 48.303 42.857" fill="#1d1d1b"/><rect x="50.4368" y="42.35229" width="0.606" height="4.435" fill="#1d1d1b"/><rect x="94.3398" y="42.35229" width="0.606" height="4.435" fill="#1d1d1b"/><polygon points="75.491 42.352 75.491 42.858 76.743 42.858 76.743 46.788 77.349 46.788 77.349 42.858 78.601 42.858 78.601 42.352 75.491 42.352" fill="#1d1d1b"/><path d="M199.5352,269.5842h1.252v-.506h-3.11v.506h1.252v3.93h.606Zm5.969,1.686a1.59473,1.59473,0,0,1,1.552-1.773,1.67432,1.67432,0,0,1,.979.287l.293-.447a2.2651,2.2651,0,0,0-3.457,1.946,2.17246,2.17246,0,0,0,2.185,2.311,2.06962,2.06962,0,0,0,1.352-.452l-.267-.426a1.5955,1.5955,0,0,1-1.072.372,1.61715,1.61715,0,0,1-1.565-1.818m6.895,2.244h.605v-4.436h-.605v1.852h-2.406v-1.852h-.605v4.436h.605v-2.078h2.406Z" transform="translate(-197.6772 -226.72668)" fill="#1d1d1b"/><path d="M216.5605,270.39771c0,.573-.307.873-1.047.873h-.499v-1.7h.52c.746,0,1.026.333,1.026.827m.612-.014c0-.873-.679-1.305-1.585-1.305h-1.179v4.436h.606v-1.752h.493c1.046,0,1.665-.492,1.665-1.379" transform="translate(-197.6772 -226.72668)" fill="#1d1d1b"/><path d="M220.063,271.96921h-1.599l.533-1.432c.127-.34.2-.566.26-.766h.013c.067.187.127.393.267.766Zm.573,1.545h.653l-1.712-4.436h-.58l-1.698,4.436h.599l.38-1.046h1.972Z" transform="translate(-197.6772 -226.72668)" fill="#1d1d1b"/><path d="M224.1499,270.39679c0,.573-.307.873-1.047.873h-.499v-1.699h.52c.746,0,1.026.333,1.026.826m.612-.013c0-.873-.679-1.305-1.585-1.305h-1.179v4.435h.606v-1.752h.464a.28282.28282,0,0,1,.178.054,2.78815,2.78815,0,0,1,.558.678l.713,1.02h.69l-.964-1.364a3.79921,3.79921,0,0,0-.39-.495,1.242,1.242,0,0,0,.909-1.271" transform="translate(-197.6772 -226.72668)" fill="#1d1d1b"/><path d="M232.093,272.71579l-.293.426a1.87062,1.87062,0,0,0,1.285.453c.887,0,1.479-.499,1.479-1.219,0-.853-.652-1.153-1.239-1.433-.446-.206-.806-.392-.806-.819a.6546.6546,0,0,1,.74-.626,1.46926,1.46926,0,0,1,.906.299l.279-.439a1.85606,1.85606,0,0,0-1.192-.359,1.19923,1.19923,0,0,0-1.319,1.152c0,.706.473,1.006,1.019,1.272.513.253,1.013.46,1.013.966a.7799.7799,0,0,1-.866.707,1.43217,1.43217,0,0,1-1.006-.38" transform="translate(-197.6772 -226.72668)" fill="#1d1d1b"/><path d="M236.6484,267.9726a.37955.37955,0,1,0,.386.379.38481.38481,0,0,0-.386-.379m1.659.379a.38352.38352,0,1,0-.387.38.38119.38119,0,0,0,.387-.38m.153.727v2.784a1.06975,1.06975,0,0,1-1.133,1.22c-.806,0-1.166-.42-1.166-1.306v-2.698h-.599v2.765a1.72912,1.72912,0,1,0,3.457-.04v-2.725Z" transform="translate(-197.6772 -226.72668)" fill="#1d1d1b"/><path d="M243.2197,271.25607c0,1.16-.64,1.766-1.866,1.766h-.513v-3.451h.48c1.293,0,1.899.519,1.899,1.685m.632-.013c0-1.279-.772-2.164-2.518-2.164h-1.098v4.435h1.065c1.772,0,2.551-.992,2.551-2.271" transform="translate(-197.6772 -226.72668)" fill="#1d1d1b"/><path d="M252.27579,270.39679c0,.573-.307.874-1.046.874h-.5v-1.7h.52c.746,0,1.026.333,1.026.826m.612-.013c0-.873-.679-1.305-1.585-1.305h-1.179v4.435h.606v-1.752s.37,0,.465.001a.27663.27663,0,0,1,.177.053,2.78815,2.78815,0,0,1,.558.678l.713,1.02h.69l-.964-1.364a3.79921,3.79921,0,0,0-.39-.495,1.241,1.241,0,0,0,.909-1.271" transform="translate(-197.6772 -226.72668)" fill="#1d1d1b"/><path d="M254.2838,271.29019a1.5806,1.5806,0,1,1,1.566,1.805,1.61432,1.61432,0,0,1-1.566-1.805m-.632.013a2.20308,2.20308,0,1,0,2.198-2.305,2.17761,2.17761,0,0,0-2.198,2.305m6.101-2.225h-.599v4.436h2.331v-.499h-1.732Zm3.838,4.436,1.601-4.436h-.539l-1.602,4.436Zm5.028-1.545h-1.598l.533-1.432c.126-.34.199-.566.259-.766h.014c.066.187.126.393.266.766Zm.573,1.545h.653l-1.712-4.436h-.579l-1.699,4.436h.599l.38-1.046h1.972Zm1.602,0h2.331v-.499h-1.732v-3.937h-.599Z" transform="translate(-197.6772 -226.72668)" fill="#1d1d1b"/><path d="M280.29369,271.3031a1.58117,1.58117,0,1,1-1.553-1.806,1.60441,1.60441,0,0,1,1.553,1.806m.638-.013a2.203,2.203,0,1,0-2.191,2.304,2.17166,2.17166,0,0,0,2.191-2.304m4.364.68h-1.599l.533-1.433c.127-.339.2-.566.26-.766h.013c.067.187.127.393.267.766Zm.573,1.544h.653l-1.712-4.435h-.58l-1.699,4.435h.6l.379-1.046h1.972Zm4.51-2.258c0,1.16-.64,1.766-1.866,1.766h-.513v-3.451h.48c1.293,0,1.899.519,1.899,1.685m.632-.013c0-1.279-.772-2.164-2.518-2.164h-1.098v4.435h1.065c1.772,0,2.551-.992,2.551-2.271" transform="translate(-197.6772 -226.72668)" fill="#1d1d1b"/><path d="M295.8605,273.5939a2.65272,2.65272,0,0,0,1.645-.452v-1.972h-1.525v.493h.926v1.173a1.80374,1.80374,0,0,1-1.032.253,1.62622,1.62622,0,0,1-1.613-1.819,1.596,1.596,0,0,1,1.619-1.773,1.66748,1.66748,0,0,1,1.126.36l.3-.446a2.31418,2.31418,0,1,0-1.446,4.183m3.497-.585v-1.586h1.525v-.499h-1.525v-1.34h1.739v-.505h-2.338v4.435h2.384v-.505Z" transform="translate(-197.6772 -226.72668)" fill="#1d1d1b"/></svg>