<svg id="floor-01" xmlns="http://www.w3.org/2000/svg" xmlns:xlink="http://www.w3.org/1999/xlink" viewBox="0 0 5180.3 3034.9"><defs><clipPath id="clip-path"><rect y="-44.9" width="44.8" height="44.8" style="fill:none"/></clipPath><clipPath id="clip-path-2"><rect y="-0.1" width="44.8" height="44.8" style="fill:none"/></clipPath><clipPath id="clip-path-3"><rect y="44.7" width="44.8" height="44.8" style="fill:none"/></clipPath><clipPath id="clip-path-4"><rect width="44.8" height="44.8" style="fill:none"/></clipPath><pattern id="SVGID_0000012415350663193213879" data-name="SVGID 0000012415350663193213879" width="44.8" height="44.8" patternTransform="matrix(-0.63, 0, 0, 0.63, -23795.05, 13854.79)" patternUnits="userSpaceOnUse" viewBox="0 0 44.8 44.8"><rect width="44.8" height="44.8" style="fill:none"/><rect width="44.8" height="44.8" style="fill:none"/><rect width="44.8" height="44.8" style="fill:none"/><rect width="44.8" height="44.8" style="fill:none"/><rect width="44.8" height="44.8" style="fill:none"/><rect width="44.8" height="44.8" style="fill:none"/><rect width="44.8" height="44.8" style="fill:none"/><rect width="44.8" height="44.8" style="fill:none"/><rect width="44.8" height="44.8" style="fill:none"/><rect width="44.8" height="44.8" style="fill:none"/><g style="clip-path:url(#clip-path-4)"><rect x="-43.9" y="-41.6" width="47.1" height="45.6" style="fill:#f2f2f2"/><line x2="-44.7" y2="-44.8" style="fill:none;stroke:#ddd;stroke-linecap:square;stroke-linejoin:round;stroke-width:20px"/><rect x="0.8" y="-41.6" width="47.1" height="45.6" style="fill:#f2f2f2"/><line x1="44.8" y2="-44.8" style="fill:none;stroke:#ddd;stroke-linecap:square;stroke-linejoin:round;stroke-width:20px"/><line x1="89.6" x2="44.8" y2="-44.8" style="fill:none;stroke:#ddd;stroke-linecap:square;stroke-linejoin:round;stroke-width:20px"/><rect x="-43.9" y="3.1" width="47.1" height="45.6" style="fill:#f2f2f2"/><line y1="44.8" x2="-44.7" style="fill:none;stroke:#ddd;stroke-linecap:square;stroke-linejoin:round;stroke-width:20px"/><rect x="0.8" y="3.1" width="47.1" height="45.6" style="fill:#f2f2f2"/><line x1="44.8" y1="44.8" style="fill:none;stroke:#ddd;stroke-linecap:square;stroke-linejoin:round;stroke-width:20px"/><line x1="89.6" y1="44.8" x2="44.8" style="fill:none;stroke:#ddd;stroke-linecap:square;stroke-linejoin:round;stroke-width:20px"/><line y1="89.5" x2="-44.7" y2="44.8" style="fill:none;stroke:#ddd;stroke-linecap:square;stroke-linejoin:round;stroke-width:20px"/><line x1="44.8" y1="89.5" y2="44.8" style="fill:none;stroke:#ddd;stroke-linecap:square;stroke-linejoin:round;stroke-width:20px"/><line x1="89.6" y1="89.5" x2="44.8" y2="44.8" style="fill:none;stroke:#ddd;stroke-linecap:square;stroke-linejoin:round;stroke-width:20px"/></g></pattern><pattern id="SVGID_0000000741798418186112434" data-name="SVGID 0000000741798418186112434" width="44.8" height="44.8" patternTransform="translate(-21081.87 -20353.02) rotate(180) scale(0.5)" patternUnits="userSpaceOnUse" viewBox="0 0 44.8 44.8"><rect width="44.8" height="44.8" style="fill:none"/><rect width="44.8" height="44.8" style="fill:none"/><rect width="44.8" height="44.8" style="fill:none"/><rect width="44.8" height="44.8" style="fill:none"/><rect width="44.8" height="44.8" style="fill:none"/><rect width="44.8" height="44.8" style="fill:none"/><rect width="44.8" height="44.8" style="fill:none"/><rect width="44.8" height="44.8" style="fill:none"/><rect width="44.8" height="44.8" style="fill:none"/><rect width="44.8" height="44.8" style="fill:none"/><g style="clip-path:url(#clip-path)"><rect y="-44.8" width="44.8" height="44.8" style="fill:none"/><rect y="-44.8" width="44.8" height="44.8" style="fill:none"/><rect x="-41.6" y="-3.3" width="45.6" height="47.1" style="fill:#f2f2f2"/><line x2="-44.8" y2="44.7" style="fill:none;stroke:#ddd;stroke-linecap:square;stroke-linejoin:round;stroke-width:20px"/><line y1="-44.8" x2="-44.8" style="fill:none;stroke:#ddd;stroke-linecap:square;stroke-linejoin:round;stroke-width:20px"/><rect x="3.1" y="-3.3" width="45.6" height="47.1" style="fill:#f2f2f2"/><line x1="44.8" y2="44.7" style="fill:none;stroke:#ddd;stroke-linecap:square;stroke-linejoin:round;stroke-width:20px"/><line x1="44.8" y1="-44.8" style="fill:none;stroke:#ddd;stroke-linecap:square;stroke-linejoin:round;stroke-width:20px"/><line x1="89.5" x2="44.8" y2="44.7" style="fill:none;stroke:#ddd;stroke-linecap:square;stroke-linejoin:round;stroke-width:20px"/><line x1="89.5" y1="-44.8" x2="44.8" style="fill:none;stroke:#ddd;stroke-linecap:square;stroke-linejoin:round;stroke-width:20px"/></g><g style="clip-path:url(#clip-path-2)"><rect width="44.8" height="44.8" style="fill:none"/><rect width="44.8" height="44.8" style="fill:none"/><rect x="-41.6" y="41.5" width="45.6" height="47.1" style="fill:#f2f2f2"/><line y1="44.8" x2="-44.8" y2="89.5" style="fill:none;stroke:#ddd;stroke-linecap:square;stroke-linejoin:round;stroke-width:20px"/><rect x="-41.6" y="-3.1" width="45.6" height="47.1" style="fill:#f2f2f2"/><line x2="-44.8" y2="44.8" style="fill:none;stroke:#ddd;stroke-linecap:square;stroke-linejoin:round;stroke-width:20px"/><line y1="-44.8" x2="-44.8" style="fill:none;stroke:#ddd;stroke-linecap:square;stroke-linejoin:round;stroke-width:20px"/><rect x="3.1" y="41.5" width="45.6" height="47.1" style="fill:#f2f2f2"/><line x1="44.8" y1="44.8" y2="89.5" style="fill:none;stroke:#ddd;stroke-linecap:square;stroke-linejoin:round;stroke-width:20px"/><rect x="3.1" y="-3.1" width="45.6" height="47.1" style="fill:#f2f2f2"/><line x1="44.8" y2="44.8" style="fill:none;stroke:#ddd;stroke-linecap:square;stroke-linejoin:round;stroke-width:20px"/><line x1="44.8" y1="-44.8" style="fill:none;stroke:#ddd;stroke-linecap:square;stroke-linejoin:round;stroke-width:20px"/><line x1="89.5" y1="44.8" x2="44.8" y2="89.5" style="fill:none;stroke:#ddd;stroke-linecap:square;stroke-linejoin:round;stroke-width:20px"/><line x1="89.5" x2="44.8" y2="44.8" style="fill:none;stroke:#ddd;stroke-linecap:square;stroke-linejoin:round;stroke-width:20px"/><line x1="89.5" y1="-44.8" x2="44.8" style="fill:none;stroke:#ddd;stroke-linecap:square;stroke-linejoin:round;stroke-width:20px"/></g><g style="clip-path:url(#clip-path-3)"><rect x="-41.6" y="41.7" width="45.6" height="47.1" style="fill:#f2f2f2"/><line y1="44.8" x2="-44.8" y2="89.6" style="fill:none;stroke:#ddd;stroke-linecap:square;stroke-linejoin:round;stroke-width:20px"/><line x2="-44.8" y2="44.8" style="fill:none;stroke:#ddd;stroke-linecap:square;stroke-linejoin:round;stroke-width:20px"/><rect x="3.1" y="41.7" width="45.6" height="47.1" style="fill:#f2f2f2"/><line x1="44.8" y1="44.8" y2="89.6" style="fill:none;stroke:#ddd;stroke-linecap:square;stroke-linejoin:round;stroke-width:20px"/><line x1="44.8" y2="44.8" style="fill:none;stroke:#ddd;stroke-linecap:square;stroke-linejoin:round;stroke-width:20px"/><line x1="89.5" y1="44.8" x2="44.8" y2="89.6" style="fill:none;stroke:#ddd;stroke-linecap:square;stroke-linejoin:round;stroke-width:20px"/><line x1="89.5" x2="44.8" y2="44.8" style="fill:none;stroke:#ddd;stroke-linecap:square;stroke-linejoin:round;stroke-width:20px"/></g></pattern></defs><g id="a1--1"><rect id="corridoio2" x="2954" y="1723.5" width="130.7" height="176" style="fill:#f2f2f2"/><g class="clickable" id="A1--1-25" data-name="customclass A1--1-25"><rect id="room-box-2" x="3496.3" y="1037.9" width="776.7" height="405.5" style="fill:#f2f2f2"/></g><g class="clickable" id="A1--1-21" data-name="customclass A1--1-21"><rect id="room-box-3" x="3084.7" y="1829.8" width="394.9" height="139.4" style="fill:#ddd"/></g><g class="clickable" id="A1--1-31" data-name="customclass A1--1-31"><rect id="room-box-4" x="2765.9" y="2369.7" width="186.9" height="200.7" style="fill:#f2f2f2"/></g><rect id="room-box-5" x="2859.1" y="2570.5" width="93.7" height="260.9" style="fill:#f2f2f2"/><g class="clickable" id="A1--1-22" data-name="customclass A1--1-22"><rect id="room-box-6" x="3084.7" y="1644" width="394.9" height="170.6" style="fill:#ddd"/></g><g class="clickable" id="A1--1-19" data-name="customclass A1--1-19"><rect id="room-box-7" x="2968.7" y="1899.9" width="100.3" height="69.4" style="fill:#ddd"/></g><g class="clickable" id="A1--1-18" data-name="customclass A1--1-18"><rect id="room-box-8" x="2968.7" y="1644" width="100.3" height="79.5" style="fill:#ddd"/></g><g class="clickable" id="A1--1-17" data-name="customclass A1--1-17"><rect id="room-box-9" x="2968.7" y="1037.9" width="510.9" height="590.3" style="fill:#ddd"/></g><g class="clickable" id="A1--1-41" data-name="customclass A1--1-41"><rect id="room-box-10" x="2867.5" y="1022" width="86.1" height="1363.6" style="fill:#f2f2f2"/></g><g class="clickable" id="A1--1-01" data-name="customclass A1--1-01"><rect id="room-box-11" x="2868.4" y="746.1" width="1420.6" height="275.9" style="fill:#f2f2f2;stroke:#b7b7b7;stroke-miterlimit:10;stroke-width:0.25px"/></g><rect id="room-box-12" x="3754.7" y="517.8" width="142.4" height="228.3" style="fill:#f2f2f2;stroke:#b7b7b7;stroke-miterlimit:10;stroke-width:0.25px"/><rect id="room-box-13" x="4154.4" y="517.8" width="118.7" height="228.3" style="fill:#f2f2f2;stroke:#b7b7b7;stroke-miterlimit:10;stroke-width:0.25px"/><g class="clickable" id="A1--1-40" data-name="customclass A1--1-40"><rect id="room-box-14" x="3616" y="533.8" width="122.8" height="196.5" style="fill:#f2f2f2"/></g><g class="clickable" id="A1--1-04" data-name="customclass A1--1-04"><rect id="room-box-15" x="3948.7" y="33.4" width="324.4" height="340.6" style="fill:#ddd"/></g><g class="clickable" id="A1--1-05" data-name="customclass A1--1-05"><rect id="room-box-16" x="3726.3" y="109.6" width="208.2" height="265" style="fill:#ddd"/></g><rect id="room-box-17" x="3726.3" y="33.8" width="222.7" height="60.1" style="fill:#ddd;stroke:#b7b7b7;stroke-miterlimit:10"/><g class="clickable" id="A1--1-07" data-name="customclass A1--1-07"><rect id="room-box-19" x="3495.5" y="180.6" width="87.8" height="193.5" style="fill:#ddd"/></g><g class="clickable" id="A1--1-09" data-name="customclass A1--1-09"><rect id="room-box-20" x="3265.8" y="180.6" width="213.9" height="193.5" style="fill:#ddd"/></g><g class="clickable" id="A1--1-10" data-name="customclass A1--1-10"><rect id="room-box-21" x="2968.6" y="33.4" width="281" height="484.4" style="fill:#ddd"/></g><g id="senza_codice" data-name="senza codice"><polygon points="3599.2 164.7 3599.2 374.5 3711 374.5 3711 33.4 3599.2 33.4 3599.2 33.4 3479.6 33.4 3479.6 33.5 3265.8 33.5 3265.8 165.4 3479.6 165.4 3599.2 164.7" style="fill:url(#SVGID_0000012415350663193213879)"/></g><rect id="room-box-24" x="3495.5" y="534.1" width="120.8" height="195.6" style="fill:#f2f2f2"/><g class="clickable" id="A1--1-02" data-name="customclass A1--1-02"><rect id="room-box-25" x="4288.9" y="1037.9" width="568.5" height="931.4" style="fill:#ddd"/></g><rect id="room-box-26" x="4288.9" y="746.1" width="568.5" height="275.1" style="fill:#f2f2f2"/><g class="clickable" id="A1--1-03" data-name="customclass A1--1-03"><rect id="room-box-27" x="4288.9" y="33.4" width="568.5" height="695.9" style="fill:#ddd"/></g><g class="clickable" id="A1--1-33" data-name="customclass A1--1-33"><rect id="room-box-28" x="2642.7" y="1809.9" width="143" height="75.9" style="fill:#f2f2f2"/></g><g class="clickable" data-building-code="P1" id="A1--1-P1--1" data-floor-code="-1"><rect id="room-box-29" x="2826.6" y="2864.2" width="157.8" height="170.2" style="fill:none;stroke:#f2f2f2;stroke-miterlimit:10"/><path d="M2905.5,2901.9a47.35,47.35,0,0,0-47.5,47.2h0v.1a47.6,47.6,0,1,0,95.2.1h0a47.76,47.76,0,0,0-47.7-47.4" transform="translate(0 0)" style="fill:#fff;stroke:#303030"/><path d="M2898.2,2954.9h5.6c8.4,0,11.8-3.4,11.8-9.7,0-5.3-3.1-9.1-11.5-9.1h-5.8Zm-5.6,23.9v-47.4h11.9c9.5,0,16.8,4.6,16.8,13.7s-6.5,14.6-17.5,14.6h-5.6v19.1Zm42.5-44.2-29.5-10.8-29.7,10.8-1.3-3.6,31-11.1,31,11.2Z" transform="translate(0 0)"/></g><rect id="room-box-30" x="3495.1" y="2245.9" width="779.2" height="170.2" style="fill:none;stroke:#f2f2f2;stroke-miterlimit:10"/><rect class="clickable" id="A1--1-24" data-name="customclass A1--1-24" x="3496.3" y="1443.4" width="776.7" height="801.8" style="fill:#f2f2f2"/><path id="stairs-fixed" d="M4243,2245.2h32.6V1444.3h-66.8v800.9Zm0-10.8h26.6l-26.6,8.8Zm-1.7,8.8-26.5-8.8h26.5Zm6.1.3,26.5-8.7v8.7Zm26.4-10.8h-31v-9.1h31Zm0-10.9h-31v-9.1h31Zm0-10.8h-31v-9.1h31Zm0-10.8h-31v-9.1h31Zm0-10.8h-31v-9.1h31Zm0-10.8h-31v-9.1h31Zm0-10.9h-31v-9.1h31Zm0-10.8h-31v-9.1h31Zm0-10.8h-31v-9h31Zm0-10.8h-31v-9.1h31Zm0-10.8h-31v-9.1h31Zm0-10.7h-31v-8.7h31Zm0-11h-31v-8.6h31Zm0-10.3h-31v-9.1h31Zm0-10.8h-31v-9.1h31Zm0-10.9h-31v-9.1h31Zm0-10.8h-31v-9.1h31Zm0-10.8h-31V2040h31Zm0-10.8h-31v-9.1h31Zm0-10.8h-31v-9h31Zm0-10.8h-31v-9.1h31Zm0-10.8h-31v-9.1h31Zm0-10.9h-31v-9h31Zm-30.8-10.8v-9.1h31v9.1Zm30.8-11.2h-31v-9.2h31Zm0-10.8h-31v-9h31Zm0-10.8h-31v-9.1h31Zm0-10.8h-31v-9.1h31Zm0-10.9h-31v-9.2h31Zm0-10.7h-31v-9.2h31Zm0-10.9h-31v-9.1h31Zm0-10.8h-31v-9.2h31Zm0-10.8h-31v-9.2h31Zm0-10.8h-31v-9.2h31Zm0-10.9h-31v-9.2h31Zm0-10.7h-31v-8.6h31Zm0-10.9h-31v-8.7h31Zm0-10.4h-31v-9.1h31Zm0-10.7h-31V1813h31Zm0-10.8h-31v-9.1h31Zm0-10.9h-31v-9.2h31Zm0-10.7h-31v-9.1h31Zm0-10.9h-31v-9h31Zm0-10.8h-31v-9.2h31Zm0-10.8h-31v-9.1h31Zm0-10.8h-31v-9.2h31Zm0-10.8h-31v-9.1h31Zm0-10.8h-31v-8.7h31Zm0-11h-31v-8.6h31Zm0-10.3h-31v-9h31Zm0-10.8h-31v-9.1h31Zm0-10.8h-31v-9h31Zm0-10.8h-31V1662h31Zm0-10.9h-31v-9.1h31Zm0-10.7h-31v-9h31Zm0-10.9h-31v-9.2h31Zm0-10.8h-31v-9.2h31Zm0-10.8h-31v-9.2h31Zm0-10.8h-31v-9.2h31Zm0-10.8h-31v-8.7h31Zm0-10.8h-31V1576h31Zm0-10.4h-31v-9h31Zm0-10.8h-31v-9.2h31Zm0-10.8h-31v-9.1h31Zm0-10.8h-31v-9.1h31Zm0-10.9h-31v-9.2h31Zm0-10.7h-31v-9h31Zm0-10.9h-31v-9.1h31Zm0-10.7h-31v-9.1h31Zm0-10.9h-31v-9.1h31Zm0-10.8h-31v-9.2h31Zm-30.8-10.8v-9.1h31v9.2Zm0-20.3h31v9.1h-31Zm-32.7,0h31v9.1h-31Zm0,11.2h31v9.2h-31Zm0,10.8h31v9.2h-31Zm0,10.8h31v9.2h-31Zm0,10.8h31v9.2h-31Zm0,10.9h31v9.2h-31Zm0,10.7h31v9.1h-31Zm0,10.9h31v9.2h-31Zm0,10.8h31v9.1h-31Zm0,10.8h31v9.1h-31Zm0,10.8h31v9.2h-31Zm0,10.9h31v9.1h-31Zm0,10.7h31v8.7h-31Zm0,10.9h31v8.7h-31Zm0,10.3h31v9.2h-31Zm0,10.8h31v9.1h-31Zm0,10.8h31v9.2h-31Zm0,10.9h31v9.2h-31Zm0,10.7h31v9.2h-31Zm0,10.9h31v9.2h-31Zm0,10.8h31v9.2h-31Zm0,10.8h31v9.2h-31Zm0,10.8h31v9.1h-31Zm0,10.8h31v9.2h-31Zm0,10.8h31v8.6h-31Zm0,10.9h31v8.7h-31Zm0,10.3h31v9.2h-31Zm0,10.8h31v9.3h-31Zm0,10.9h31v9.2h-31Zm0,10.8h31v9.2h-31Zm0,10.7h31v9.1h-31Zm0,10.9h31v9.1h-31Zm0,10.7h31v9.3h-31Zm0,10.9h31v9.1h-31Zm0,10.8h31v9.2h-31Zm0,10.8h31v9.2h-31Zm0,10.8h31v8.7h-31Zm0,10.9h31v8.7h-31Zm0,10.4h31v9.2h-31Zm0,10.7h31v9.2h-31Zm0,10.9h31v9.1h-31Zm0,10.7h31v9.2h-31Zm0,10.9h31v9.2h-31Zm0,10.8h31v9.2h-31Zm0,10.8h31v9.2h-31Zm0,10.8h31v9.2h-31Zm0,10.9h31v9.2h-31Zm0,10.7h31v9.2h-31Zm31,10.9v9.2h-31V1964Zm-31,11.1h31v9.1h-31Zm0,10.9h31v9h-31Zm0,10.8h31v9.1h-31Zm0,10.8h31v9.1h-31Zm0,10.9h31v9h-31Zm0,10.8h31v9.1h-31Zm0,10.7h31v9.2h-31Zm0,10.8h31v9.1h-31Zm0,11h31v9.1h-31Zm0,10.7h31v9.1h-31Zm0,10.8h31v9.1h-31Zm0,10.9h31v8.6h-31Zm0,10.8h31v8.7h-31Zm0,10.3h31v9.1h-31Zm0,10.9h31v9.1h-31Zm0,10.8h31v9.1h-31Zm0,10.7h31v9.1h-31Zm0,10.9h31v9.1h-31Zm0,10.9h31v9.1h-31Zm0,10.7h31v9.1h-31Zm0,10.8h31v9.1h-31Zm0,10.9h31v9.1h-31Zm0,10.8h31v9.1h-31Zm0,10.8h31v9.1h-31Zm0,11.1,26.5,8.8h-26.5Z" transform="translate(0 0)" style="fill:#b7b7b7;isolation:isolate;opacity:0.4000000059604645"/><path id="stairs-fixed-2" d="M3561.4,2244.3h67.2V1443.4H3494.8v800.9Zm1.1-10.9h55l-55,9Zm-1.8,9.1-54.7-9h54.7Zm11.5.1,54.6-8.9v9Zm54.6-10.8h-64.3v-9.1h64.3Zm0-10.8h-64.3v-9.1h64.3Zm0-10.8h-64.3v-9.1h64.3Zm0-10.9h-64.3v-9.1h64.3Zm0-10.7h-64.3v-9.1h64.3Zm0-10.9h-64.3v-9.1h64.3Zm0-10.8h-64.3v-9.1h64.3Zm0-10.8h-64.3V2147h64.3Zm0-10.9h-64.3v-9.1h64.3Zm0-10.8h-64.3v-9.1h64.3Zm0-10.7h-64.3v-9.1h64.3Zm0-11h-64.3v-8.6h64.3Zm0-10.7h-64.3v-8.7h64.3Zm0-10.3h-64.3v-9.1h64.3Zm0-10.9h-64.3v-9.1h64.3Zm0-10.8h-64.3v-9.1h64.3Zm0-10.8h-64.3v-9.1h64.3Zm0-10.8h-64.3v-9.1h64.3Zm0-10.9h-64.3v-9h64.3Zm0-10.7h-64.3v-9.2h64.3Zm0-10.9h-64.3v-9.1h64.3Zm0-10.8h-64.3v-9h64.3Zm0-10.8h-64.3v-9.1h64.3Zm-64.3-10.8v-9h64.3v9.1Zm64.3-11.2h-64.3v-9h64.3Zm0-10.9h-64.3v-9.1h64.3Zm0-10.7h-64.3v-9.1h64.3Zm0-10.9h-64.3v-9.1h64.3Zm0-10.8h-64.3v-9.2h64.3Zm0-10.8h-64.3V1909h64.3Zm0-10.8h-64.3v-9.2h64.3Zm0-10.9h-64.3v-9h64.3Zm0-10.7h-64.3v-9.2h64.3Zm0-10.9h-64.3v-9.2h64.3Zm0-10.8h-64.3v-9h64.3Zm0-10.8h-64.3v-8.7h64.3Zm0-10.8h-64.3v-8.7h64.3Zm0-10.4h-64.3v-9.2h64.3Zm0-10.7h-64.3v-9h64.3Zm0-10.9h-64.3v-9.2h64.3Zm0-10.8h-64.3v-9.1h64.3Zm0-10.8h-64.3v-9.2h64.3Zm0-10.8h-64.3V1769h64.3Zm0-10.9h-64.3v-9.1h64.3Zm0-10.7h-64.3v-9.2h64.3Zm0-10.9h-64.3v-9.1h64.3Zm0-10.8h-64.3v-9.2h64.3Zm0-10.8h-64.3v-8.7h64.3Zm0-10.8h-64.3v-8.6h64.3Zm0-10.4h-64.3v-9.1h64.3Zm0-10.7h-64.3v-9.2h64.3Zm0-10.9h-64.3v-9.1h64.3Zm0-10.9h-64.3v-9.1h64.3Zm0-10.7h-64.3v-9.2h64.3Zm0-10.8h-64.3v-9.2h64.3Zm0-10.9h-64.3v-9h64.3Zm0-10.7h-64.3v-9.1h64.3Zm0-10.9h-64.3v-9h64.3Zm0-10.8h-64.3v-9.1h64.3Zm0-10.8h-64.3V1586h64.3Zm0-10.8h-64.3v-8.7h64.3Zm0-10.4h-64.3v-9h64.3Zm0-10.8h-64.3v-9h64.3Zm0-10.8h-64.3v-9.2h64.3Zm0-10.9h-64.3v-9.2h64.3Zm0-10.7h-64.3v-9.1h64.3Zm0-10.9h-64.3v-9.2h64.3Zm0-10.8h-64.3v-9h64.3Zm0-10.8h-64.3v-9.1h64.3Zm0-10.8h-64.3v-9.2h64.3Zm0-10.8h-64.3v-9.1h64.3Zm-64.3-10.8v-9.2h64.3v9.2Zm0-20.4h64.3v9.1h-64.3Zm-66.1,0h64.3v9.1h-64.3Zm0,11.2h64.3v9.2h-64.3Zm0,10.9h64.3v9.2h-64.3Zm0,10.8h64.3v9.2h-64.3Zm0,10.8h64.3v9.2h-64.3Zm0,10.8h64.3v9h-64.3Zm0,10.9h64.3v9.2h-64.3Zm0,10.7h64.3v9.1h-64.3Zm0,10.9h64.3v9.2h-64.3Zm0,10.8h64.3v9.2h-64.3Zm0,10.8h64.3v9.1h-64.3Zm0,10.9h64.3v9h-64.3Zm0,10.7h64.3v8.7h-64.3Zm0,10.8h64.3v8.7h-64.3Zm0,10.4h64.3v9.2h-64.3Zm0,10.8h64.3v9.2h-64.3Zm0,10.8h64.3v9.1h-64.3Zm0,10.8h64.3v9.2h-64.3Zm0,10.9h64.3v9.2h-64.3Zm0,10.7h64.3v9.2h-64.3Zm0,10.9h64.3v9.2h-64.3Zm0,10.8h64.3v9.1h-64.3Zm0,10.8h64.3v9.2h-64.3Zm0,10.8h64.3v9.1h-64.3Zm0,10.8h64.3v8.7h-64.3Zm0,10.8h64.3v8.7h-64.3Zm0,10.4h64.3v9.2h-64.3Zm0,10.9h64.3v9.2h-64.3Zm0,10.7h64.3v9.2h-64.3Zm0,10.9h64.3v9.2h-64.3Zm0,10.8h64.3v9.1h-64.3Zm0,10.8h64.3v9.2h-64.3Zm0,10.8h64.3v9.1h-64.3Zm0,10.8h64.3v9.2h-64.3Zm0,10.8h64.3v9.2h-64.3Zm0,10.9h64.3v9.1h-64.3Zm0,10.7h64.3v8.7h-64.3Zm0,10.9h64.3v8.7h-64.3Zm0,10.3h64.3v9.1h-64.3Zm0,10.9h64.3v9.1h-64.3Zm0,10.7h64.3v9.2h-64.3Zm0,10.9h64.3v9.1h-64.3Zm0,10.7h64.3v9.2h-64.3Zm0,10.9h64.3v9.2h-64.3Zm0,10.8h64.3v9.2h-64.3Zm0,10.8h64.3v9.2h-64.3Zm0,10.8h64.3v9.2h-64.3Zm0,10.9h64.3v9.2h-64.3Zm64.3,10.8v9h-64.3v-9Zm-64.3,11.2h64.3v9.2h-64.3Zm0,10.7h64.3v9.2h-64.3Zm0,10.9h64.3v9h-64.3Zm0,10.9h64.3v9.2h-64.3Zm0,10.7h64.3v9.1h-64.3Zm0,10.9h64.3v9.2h-64.3Zm0,10.8h64.3v9.1h-64.3Zm0,10.8h64.3v9.1h-64.3Zm0,10.8h64.3v9.1h-64.3Zm0,10.9h64.3v9.1h-64.3Zm0,10.7h64.3v9.1h-64.3Zm0,10.9h64.3v8.7h-64.3Zm0,10.7h64.3v8.6h-64.3Zm0,10.4h64.3v9.1h-64.3Zm0,10.8h64.3v9.1h-64.3Zm0,10.9h64.3v9.1h-64.3Zm0,10.8h64.3v9.1h-64.3Zm0,10.8h64.3v9.1h-64.3Zm0,10.8h64.3v9.1h-64.3Zm0,10.8h64.3v9.2h-64.3Zm0,10.8h64.3v9.1h-64.3Zm0,10.7h64.3v9.1h-64.3Zm0,10.9h64.3v9.1h-64.3Zm0,10.9h64.3v9.1h-64.3Zm0,11,54.6,8.9h-54.6Z" transform="translate(0 0)" style="fill:#b7b7b7;isolation:isolate;opacity:0.4000000059604645"/><g class="clickable" id="A1--1-STAIR-A" data-name="customclass A1--1-STAIR-A"><rect id="room-box-32" x="3897.1" y="531.91" width="241.3" height="197.69" style="fill:#f2f2f2;stroke:#b7b7b7;stroke-miterlimit:10;stroke-width:0.25px"/><g id="scale" style="opacity:0.4000000059604645"><line x1="4138.5" y1="729.1" x2="4138.5" y2="535.8" style="fill:none;stroke:#b7b7b7;stroke-miterlimit:10;stroke-width:5px"/><polyline points="4138.5 535.8 3906.1 535.8 3906.1 622.9 4061.3 622.9 4061.3 643.9 3906.1 643.9 3906.1 729.1 4138.5 729.1" style="fill:none;stroke:#b7b7b7;stroke-miterlimit:10;stroke-width:5px"/><polyline points="3906.4 577.8 4093.2 577.8 4093.2 685.1 3906.3 685.1" style="fill:none;stroke:#b7b7b7;stroke-miterlimit:10;stroke-width:5px"/><line x1="4031" y1="535.1" x2="4031" y2="623.7" style="fill:none;stroke:#b7b7b7;stroke-miterlimit:10;stroke-width:5px"/><line x1="4045.4" y1="535.1" x2="4045.4" y2="623.7" style="fill:none;stroke:#b7b7b7;stroke-miterlimit:10;stroke-width:5px"/><line x1="4059.1" y1="535.1" x2="4059.1" y2="623.7" style="fill:none;stroke:#b7b7b7;stroke-miterlimit:10;stroke-width:5px"/><line x1="4016.9" y1="623.7" x2="4016.9" y2="535.1" style="fill:none;stroke:#b7b7b7;stroke-miterlimit:10;stroke-width:5px"/><line x1="4059.1" y1="643.9" x2="4059.1" y2="729.1" style="fill:none;stroke:#b7b7b7;stroke-miterlimit:10;stroke-width:5px"/><line x1="4045.4" y1="643.9" x2="4045.4" y2="729.1" style="fill:none;stroke:#b7b7b7;stroke-miterlimit:10;stroke-width:5px"/><line x1="4031" y1="643.9" x2="4031" y2="729.1" style="fill:none;stroke:#b7b7b7;stroke-miterlimit:10;stroke-width:5px"/><line x1="4016.9" y1="643.9" x2="4016.9" y2="729.1" style="fill:none;stroke:#b7b7b7;stroke-miterlimit:10;stroke-width:5px"/><line x1="4002.9" y1="643.9" x2="4002.9" y2="729.1" style="fill:none;stroke:#b7b7b7;stroke-miterlimit:10;stroke-width:5px"/><line x1="3989.2" y1="643.9" x2="3989.2" y2="729.1" style="fill:none;stroke:#b7b7b7;stroke-miterlimit:10;stroke-width:5px"/><line x1="3975.3" y1="643.9" x2="3975.3" y2="729.1" style="fill:none;stroke:#b7b7b7;stroke-miterlimit:10;stroke-width:5px"/><line x1="3933" y1="643.9" x2="3933" y2="729.1" style="fill:none;stroke:#b7b7b7;stroke-miterlimit:10;stroke-width:5px"/><line x1="3919.8" y1="643.9" x2="3919.8" y2="729.1" style="fill:none;stroke:#b7b7b7;stroke-miterlimit:10;stroke-width:5px"/><polyline points="3918.6 729.1 3905.9 685.2 3918.9 644.4" style="fill:none;stroke:#b7b7b7;stroke-miterlimit:10;stroke-width:5px"/><polyline points="3919.3 643.9 3903.8 643.9 3903.8 622.8 3947.6 622.8" style="fill:none;stroke:#b7b7b7;stroke-miterlimit:10;stroke-width:5px"/><line x1="3961.4" y1="535.1" x2="3961.4" y2="623.7" style="fill:none;stroke:#b7b7b7;stroke-miterlimit:10;stroke-width:5px"/><line x1="3989.2" y1="535.1" x2="3989.2" y2="623.7" style="fill:none;stroke:#b7b7b7;stroke-miterlimit:10;stroke-width:5px"/><line x1="3975.3" y1="535.1" x2="3975.3" y2="623.7" style="fill:none;stroke:#b7b7b7;stroke-miterlimit:10;stroke-width:5px"/><line x1="4003.2" y1="535.1" x2="4003.2" y2="623.7" style="fill:none;stroke:#b7b7b7;stroke-miterlimit:10;stroke-width:5px"/><line x1="3947.6" y1="535.1" x2="3947.6" y2="623.7" style="fill:none;stroke:#b7b7b7;stroke-miterlimit:10;stroke-width:5px"/><line x1="3933.7" y1="535.1" x2="3933.7" y2="623.7" style="fill:none;stroke:#b7b7b7;stroke-miterlimit:10;stroke-width:5px"/><line x1="3919.8" y1="535.1" x2="3919.8" y2="623.7" style="fill:none;stroke:#b7b7b7;stroke-miterlimit:10;stroke-width:5px"/><line x1="3961.6" y1="643.9" x2="3961.6" y2="729.1" style="fill:none;stroke:#b7b7b7;stroke-miterlimit:10;stroke-width:5px"/><line x1="3947.4" y1="643.9" x2="3947.4" y2="729.1" style="fill:none;stroke:#b7b7b7;stroke-miterlimit:10;stroke-width:5px"/></g></g><g class="clickable" id="A1--1-STAIR-B" data-name="customclass A1--1-STAIR-B"><rect id="room-box-33" x="2623.2" y="533.8" width="245.1" height="196.3" style="fill:#f2f2f2"/><g id="scale-2" style="opacity:0.4000000059604645"><polyline points="2821 645 2625.9 645 2625.9 730.2 2821.4 730.2" style="fill:none;stroke:#b7b7b7;stroke-miterlimit:10;stroke-width:5px"/><line x1="2820" y1="686.3" x2="2626.1" y2="686.3" style="fill:none;stroke:#b7b7b7;stroke-miterlimit:10;stroke-width:5px"/><line x1="2784.6" y1="645" x2="2784.6" y2="730.2" style="fill:none;stroke:#b7b7b7;stroke-miterlimit:10;stroke-width:5px"/><line x1="2770.3" y1="645" x2="2770.3" y2="730.2" style="fill:none;stroke:#b7b7b7;stroke-miterlimit:10;stroke-width:5px"/><line x1="2755.5" y1="645" x2="2755.5" y2="730.2" style="fill:none;stroke:#b7b7b7;stroke-miterlimit:10;stroke-width:5px"/><line x1="2740.8" y1="645" x2="2740.8" y2="730.2" style="fill:none;stroke:#b7b7b7;stroke-miterlimit:10;stroke-width:5px"/><line x1="2726.2" y1="645" x2="2726.2" y2="730.2" style="fill:none;stroke:#b7b7b7;stroke-miterlimit:10;stroke-width:5px"/><line x1="2712" y1="645" x2="2712" y2="730.2" style="fill:none;stroke:#b7b7b7;stroke-miterlimit:10;stroke-width:5px"/><line x1="2697.7" y1="645" x2="2697.7" y2="730.2" style="fill:none;stroke:#b7b7b7;stroke-miterlimit:10;stroke-width:5px"/><line x1="2653.9" y1="645" x2="2653.9" y2="730.2" style="fill:none;stroke:#b7b7b7;stroke-miterlimit:10;stroke-width:5px"/><line x1="2640.1" y1="645" x2="2640.1" y2="730.2" style="fill:none;stroke:#b7b7b7;stroke-miterlimit:10;stroke-width:5px"/><polyline points="2638.9 730.2 2625.7 686.4 2639.2 645.5" style="fill:none;stroke:#b7b7b7;stroke-miterlimit:10;stroke-width:5px"/><line x1="2683.5" y1="645" x2="2683.5" y2="730.2" style="fill:none;stroke:#b7b7b7;stroke-miterlimit:10;stroke-width:5px"/><line x1="2668.8" y1="645" x2="2668.8" y2="730.2" style="fill:none;stroke:#b7b7b7;stroke-miterlimit:10;stroke-width:5px"/></g></g><g class="clickable" id="A1--1-STAIR-D" data-name="customclass A1--1-STAIR-D"><polygon id="room-box-34" points="2770.8 2294.5 2770.8 2294.1 2770.8 2182.8 2770.8 2006.5 2643 2006.5 2643 2294.5 2770.8 2294.5" style="fill:#f2f2f2"/><g id="scale-3" style="opacity:0.4000000059604645"><line x1="2770.8" y1="2006.5" x2="2643.2" y2="2006.5" style="fill:none;stroke:#b7b7b7;stroke-miterlimit:10;stroke-width:5px"/><polyline points="2643.2 2006.5 2643.2 2217.1 2700.7 2217.1 2700.7 2076.4 2714.6 2076.4 2714.6 2217.1 2770.8 2217.1 2770.8 2006.5" style="fill:none;stroke:#b7b7b7;stroke-miterlimit:10;stroke-width:5px"/><polyline points="2670.9 2216.8 2670.9 2047.5 2741.9 2047.5 2741.9 2217" style="fill:none;stroke:#b7b7b7;stroke-miterlimit:10;stroke-width:5px"/><line x1="2642.7" y1="2103.9" x2="2701.2" y2="2103.9" style="fill:none;stroke:#b7b7b7;stroke-miterlimit:10;stroke-width:5px"/><line x1="2642.7" y1="2090.8" x2="2701.2" y2="2090.8" style="fill:none;stroke:#b7b7b7;stroke-miterlimit:10;stroke-width:5px"/><line x1="2642.7" y1="2078.4" x2="2701.2" y2="2078.4" style="fill:none;stroke:#b7b7b7;stroke-miterlimit:10;stroke-width:5px"/><line x1="2701.2" y1="2116.6" x2="2642.7" y2="2116.6" style="fill:none;stroke:#b7b7b7;stroke-miterlimit:10;stroke-width:5px"/><line x1="2714.6" y1="2078.4" x2="2770.8" y2="2078.4" style="fill:none;stroke:#b7b7b7;stroke-miterlimit:10;stroke-width:5px"/><line x1="2714.6" y1="2090.8" x2="2770.8" y2="2090.8" style="fill:none;stroke:#b7b7b7;stroke-miterlimit:10;stroke-width:5px"/><line x1="2714.6" y1="2103.9" x2="2770.8" y2="2103.9" style="fill:none;stroke:#b7b7b7;stroke-miterlimit:10;stroke-width:5px"/><line x1="2714.6" y1="2116.6" x2="2770.8" y2="2116.6" style="fill:none;stroke:#b7b7b7;stroke-miterlimit:10;stroke-width:5px"/><line x1="2714.6" y1="2129.4" x2="2770.8" y2="2129.4" style="fill:none;stroke:#b7b7b7;stroke-miterlimit:10;stroke-width:5px"/><line x1="2714.6" y1="2141.8" x2="2770.8" y2="2141.8" style="fill:none;stroke:#b7b7b7;stroke-miterlimit:10;stroke-width:5px"/><line x1="2714.6" y1="2154.4" x2="2770.8" y2="2154.4" style="fill:none;stroke:#b7b7b7;stroke-miterlimit:10;stroke-width:5px"/><line x1="2714.6" y1="2192.7" x2="2770.8" y2="2192.7" style="fill:none;stroke:#b7b7b7;stroke-miterlimit:10;stroke-width:5px"/><line x1="2714.6" y1="2204.7" x2="2770.8" y2="2204.7" style="fill:none;stroke:#b7b7b7;stroke-miterlimit:10;stroke-width:5px"/><polyline points="2770.8 2205.7 2741.9 2217.2 2714.9 2205.4" style="fill:none;stroke:#b7b7b7;stroke-miterlimit:10;stroke-width:5px"/><polyline points="2714.6 2205 2714.6 2219.2 2700.6 2219.2 2700.6 2179.4" style="fill:none;stroke:#b7b7b7;stroke-miterlimit:10;stroke-width:5px"/><line x1="2642.7" y1="2166.8" x2="2701.2" y2="2166.8" style="fill:none;stroke:#b7b7b7;stroke-miterlimit:10;stroke-width:5px"/><line x1="2642.7" y1="2141.7" x2="2701.2" y2="2141.7" style="fill:none;stroke:#b7b7b7;stroke-miterlimit:10;stroke-width:5px"/><line x1="2642.7" y1="2154.3" x2="2701.2" y2="2154.3" style="fill:none;stroke:#b7b7b7;stroke-miterlimit:10;stroke-width:5px"/><line x1="2642.7" y1="2129.1" x2="2701.2" y2="2129.1" style="fill:none;stroke:#b7b7b7;stroke-miterlimit:10;stroke-width:5px"/><line x1="2642.7" y1="2179.5" x2="2701.2" y2="2179.5" style="fill:none;stroke:#b7b7b7;stroke-miterlimit:10;stroke-width:5px"/><line x1="2642.7" y1="2192.1" x2="2701.2" y2="2192.1" style="fill:none;stroke:#b7b7b7;stroke-miterlimit:10;stroke-width:5px"/><line x1="2642.7" y1="2204.7" x2="2701.2" y2="2204.7" style="fill:none;stroke:#b7b7b7;stroke-miterlimit:10;stroke-width:5px"/><line x1="2714.6" y1="2166.7" x2="2770.8" y2="2166.7" style="fill:none;stroke:#b7b7b7;stroke-miterlimit:10;stroke-width:5px"/><line x1="2714.6" y1="2179.6" x2="2770.8" y2="2179.6" style="fill:none;stroke:#b7b7b7;stroke-miterlimit:10;stroke-width:5px"/></g></g><g class="clickable" id="A1--1-STAIR-M" data-name="customclass A1--1-STAIR-M"><rect id="room-box-35" x="4873.4" y="338.9" width="104.5" height="343.6" style="fill:#f2f2f2"/><path id="stairs" d="M4924.3,476.9h53.5V442.6H4873.3v34.3Zm2.6-32.3,41.9,9h-41.9Zm-2.6,8.8h-42l42-9Zm51.6,21.8h-49V466h49Zm0-10.8h-49v-9.2h49Zm0-11.2-42.2-9h42.2Zm-58.3-8.9-42.2,9v-9Zm-42.2,10.8h49v9.2h-49Zm49,10.9v9.2h-49V466Z" transform="translate(0 0)" style="fill:#b7b7b7;isolation:isolate;opacity:0.4000000059604645"/></g><g class="clickable" id="A1--1-STAIR-L" data-name="customclass A1--1-STAIR-L"><rect id="room-box-36" x="4873.4" y="698.4" width="104.5" height="280.9" style="fill:#f2f2f2"/><path id="stairs-2" d="M4924.3,794.5h53.5V760.2H4873.3v34.3Zm2.6-32.3,41.9,9h-41.9Zm-2.6,9h-42l42-9Zm51.6,21.8h-49v-9.2h49Zm0-10.9h-49v-9.2h49Zm0-11.1-42.2-9h42.2Zm-58.3-9-42.2,9v-9Zm-42.2,10.9h49v9.2h-49Zm49,10.9V793h-49v-9.2Z" transform="translate(0 0)" style="fill:#b7b7b7;isolation:isolate;opacity:0.4000000059604645"/></g><g class="clickable" id="A1--1-STAIR-K" data-name="customclass A1--1-STAIR-K"><rect id="room-box-37" x="4873.4" y="1138.2" width="104.5" height="320.2" style="fill:#f2f2f2"/><path id="stairs-3" d="M4924.3,1306.3h53.5V1272H4873.3v34.3Zm2.6-32.4,41.9,9h-41.9Zm-2.6,9h-42l42-9Zm51.6,21.7h-49v-9.2h49Zm0-10.9h-49v-9.2h49Zm0-11.1-42.2-9h42.2Zm-58.3-8.9-42.2,9v-9Zm-42.2,10.9h49v9.1h-49Zm49,10.9v9.1h-49v-9.2Z" transform="translate(0 0)" style="fill:#b7b7b7;isolation:isolate;opacity:0.4000000059604645"/></g><g class="clickable" id="A1--1-STAIR-J" data-name="customclass A1--1-STAIR-J"><rect id="room-box-38" x="4873.4" y="1458.4" width="104.5" height="510" style="fill:#f2f2f2"/><path id="stairs-4" d="M4926.9,1910h-53.5v34.3h104.5V1910Zm-2.6,32.2-42-8.9h42Zm2.6-8.9h41.9l-41.9,8.9Zm-51.5-21.7h49v9.2h-49Zm0,10.9h49v9.1h-49Zm0,11.1,42.2,9h-42.2Zm58.2,9,42.2-9v9Zm42.3-11h-49v-9.2h49Zm-49-10.8v-9.2h49v9.2Z" transform="translate(0 0)" style="fill:#b7b7b7;isolation:isolate;opacity:0.4000000059604645"/></g><g id="floor-wall"><path d="M3495.5,33.4h87.8l15.9.3h111.5V93.6h-.3v15.8h.3v55.5h-.3v15.9h.3V373.9h-27.9v15.8h51.1V373.9h-7.2V373h-.3V109.5h21.7V93.7h-21.4v-60H3907v-.3h56v.3h199.8v3.9h15.9V33.8h94.8V93.7h-.3v15.9h.3v55.5h-.3V181h.3V374.1h-92.3v15.8h92.3v21H4289V64.9l-.6-31.5h569.1V178.8h15.9V33.4h104.5v1935H4873.4V1860.6h-15.9v108.6H4289V1037.9h.4v-.9h90.7v-15.9H4289V746h.4v-.9h90.7V729.2H4289V492.6h-15.5v25.3h-94.8v-.2h-15.9v.2H3838.4v-.2h-15.9v.2h-67.7v-.2h-15.9v.2h-11.7v15.7h11.7V730h-15v15.9h2.8v-.3h95.9v.3h15.9v-.3H3882v.3h15.1v-.3h37.2v.3h15.9v-.3H4163v.3h15.9v-.3h94.8v87.2h-.3v15.9h.3v94.5h-.3V959h.3v62.5h-.3v.3H4167.1v15.9h11.8v-.3h94.8v183.7h-.3V1237h.3v191.6h-.3v15.9h.3v110.3h-.3v15.9h.3v57.5h-.3V1644h.3v170h-.3v15.9h.3v55.9h-.3v15.9h.3v67.4h-.3V1985h.3v68.5h-.3v15.8h.3v62.3h-.3v15.9h.3v64.2h-.3v.7H3496.6v-.7h-1.1v-64.2h1.1v-15.9h-1.1v-62.3h1.1v-15.8h-1.1V1985h1.1v-15.9h-1.1v-67.4h1.1v-15.9h-1.1v-55.9h1.1V1814h-1.1V1644h1.1v-15.8h-1.1v-57.5h1.1v-15.9h-1.1V1444.6h.2v-15.9h-.2V1237.1h1.1v-15.9h-1.1V1037.5h43.7v-15.7H3428.9v15.7h50.8v.3h.1v590.3h-.1v.2H3084.6v-.2h-15.9v.2H2969v-.2h-.3v-148h-15.1V1766h15.3v-27.6h21.4v-15h-21.4v-79.3h99.7v79.3h-22.2v15h22.2v10.9h15.9V1644.1h.4v-.1h394.7v170.6H3085v-.5h-.4v-8.8h-15.9v24.2h19.6v.5h314.4v.5h17.5v-.5h59.2v.5h.1v138.7h-395v-67.4h.4v-15.9h-.4v-.3h-15.9v.3h-27.2v13.9H3069v69.4H2968.7v-69.4h16.7v-13.9h-16.5V1848h-15.3v521.7h-15.1v15.5h14.2v74.7h15.9V2228.4h235v406.4h-235V2516.1h-15.9v54.3h-8.4v15.9h8.4v244.9h-12.6v32.6h45.2V2667.3h250.9V2245.1H4279.1v.3h27V2001.1h704.4v.1h169.8V1426.6H5010.5V0H4279V.4H1851V0H1306.7V2.2h-2.9V710.3H0v754.6H412.1v940.6H2056.8l675.2-.5v349.4h94.5v109.5h43.6v-32.6h-10.9v-245h9.1v-15.9h-36.8v15.9h11.7v32.6h-11.7v15.9h11.7v87h-78.6v-87h10.8V2619h-10.8v-32.6h16.8v-15.9h-15.8l.3-184.7,116.5-.3V2370h-15.1v-.3h-.4V2228.5h.4v-15.9h-.4v-143h.4v-15.8h-.4v-46.4h.4v-15.9h-.4v-89.7h.4v-15.9h-.4v-84.7h.4v-15.8h-.4V1644.2h.4v-15.8h-.4v-64.8h.4v-15.9h-.4V1444.5h.4v-15.9h-.4V1237h.4v-15.9h-.4V1037.4h8.8v-15.7h-7.5v-292H2623.3V533.6h250.8V517.8H2608.2v227h243.3v913.5H2766v45.2h19.3v-26.9h66v692.9H447.3V1428.9H34.6v-683h.1v-1H1339.8V33.1H2953v.5h0V93.5h0v15.8h0v55.5h0v15.8h0V373.7h0v15.9h0V444h0v15.9h0v57.8h-22.9v15.9l74.3-.1V517.7h-35.6v-.1h-.3V33.2h281V417.3h15.9V389.8h141.3V373.9H3265.4V180.6h.9v-.4h213.2V373.7h-16.7v15.9h48.4V373.8h-16.1v-193h.2v-.4h87.9V373.9h-15.9v15.8h59.3V373.9h-27.5V164.8H3265.5V109.3h.9V93.6h-.9v-60h.9v-.3Zm-15,2179.2H2968.8V1984.3h511.7ZM3896.8,533.7h241.6V730.2H3896.8v-109h-15.1V730.1H3754.6V533.7Zm376.6,196.2h-.3v.3H4154.4V533.8h118.7v.1h.3Z" transform="translate(0 0)" style="fill:#b7b7b7"/><polygon points="2643.2 1988.2 2635.6 1988.2 2628.2 1988.2 2628.2 2313.1 2631.1 2313.1 2643.2 2313.1 2766.3 2313.1 2766.3 2294.7 2643.2 2294.7 2643.2 2006.6 2770.8 2006.6 2770.8 2218.7 2785.7 2218.7 2785.7 2006.6 2785.7 1988.2 2785.7 1904.2 2785.7 1885.9 2770.8 1885.9 2643.2 1885.9 2643.2 1809.9 2770.8 1809.9 2785.7 1809.9 2785.7 1791.5 2785.7 1765.7 2766.8 1765.7 2766.8 1791.5 2643.2 1791.5 2635.6 1791.5 2626.8 1791.1 2626.8 1903.8 2635.6 1904.2 2643.2 1904.2 2770.8 1904.2 2770.8 1988.2 2643.2 1988.2" style="fill:#b7b7b7"/><polygon points="4857.4 1778.7 4873.4 1778.7 4873.4 1458.4 4873.4 1456.8 4857.4 1456.8 4857.4 1778.7" style="fill:#b7b7b7"/><polygon points="4873.4 417.5 4873.4 310.5 4857.4 310.5 4857.4 591.5 4873.4 591.5 4873.4 417.5" style="fill:#b7b7b7"/><rect x="3123.1" y="1022" width="178.9" height="15.6" style="fill:#b7b7b7"/><polygon points="3249.7 517.8 3249.7 518 3085 518 3085 517.8 3069 517.8 3069 518 3059 518 3059 533.8 3265.6 533.8 3265.6 518 3265.6 517.8 3265.6 499.5 3249.7 499.5 3249.7 517.8" style="fill:#b7b7b7"/><polygon points="4857.4 745.3 4857.4 746.1 4857.4 843 4873.4 843 4873.4 673.3 4857.4 673.3 4857.4 729.4 4796.5 729.4 4796.5 745.3 4857.4 745.3" style="fill:#b7b7b7"/><rect x="4444.4" y="729.4" width="287.6" height="15.9" style="fill:#b7b7b7"/><polygon points="4857.4 1037 4857.4 1037.9 4857.4 1374.9 4873.4 1374.9 4873.4 1138.2 4873.4 925 4857.4 925 4857.4 1021.2 4796.5 1021.2 4796.5 1037 4857.4 1037" style="fill:#b7b7b7"/><rect x="4444.4" y="1021.2" width="287.6" height="15.9" style="fill:#b7b7b7"/><polygon points="2953.1 1037.6 2953.1 1037.9 2953.7 1037.9 2953.7 1398.2 2968.7 1398.2 2968.7 1037.9 2969 1037.9 2969 1037.6 3006.4 1037.6 3006.4 1022 2945.3 1022 2945.3 1037.6 2953.1 1037.6" style="fill:#b7b7b7"/><polygon points="3710.7 1037.6 3710.7 1037.9 3726.6 1037.9 3726.6 1037.6 3934 1037.6 3934 1037.9 3949.9 1037.9 3949.9 1037.6 4084.9 1037.6 4084.9 1022 3672.7 1022 3672.7 1037.6 3710.7 1037.6" style="fill:#b7b7b7"/><polygon points="3640.2 730.2 3640.2 728.5 3632.6 728.5 3632.6 729.9 3632.6 730.2 3558.2 730.2 3558.2 729.9 3495.3 729.9 3495.3 533.9 3558.2 533.9 3558.2 533.8 3632.6 533.8 3632.6 533.9 3632.6 534.5 3640.2 534.5 3640.2 533.8 3645.2 533.8 3645.2 518 3495.3 518 3495.3 517.8 3479.6 517.8 3479.6 533.8 3479.6 704.3 3479.6 730.2 3479.6 746.1 3495.3 746.1 3495.3 745.8 3616.7 745.8 3616.7 746.1 3632.6 746.1 3632.6 745.8 3650.2 745.8 3650.2 730.2 3640.2 730.2" style="fill:#b7b7b7"/><rect x="4873.4" y="979.3" width="104.5" height="158.8" style="fill:#b7b7b7"/><rect x="4873.4" y="996.3" width="104.5" height="127.7" style="fill:url(#SVGID_0000000741798418186112434)"/><rect x="4866.7" y="682.6" width="115.4" height="15.9" style="fill:#b7b7b7"/><rect x="4857.4" y="14.2" width="135.5" height="336.4" style="fill:#b7b7b7"/><rect x="4873.3" y="33.2" width="104.8" height="288.1" style="fill:url(#SVGID_0000000741798418186112434)"/><polygon points="4026.5 373.2 4026.5 374.1 4005.5 374.1 4005.5 373.2 3989.6 373.2 3989.6 374.1 3949.9 374.1 3949.9 180.9 3952 180.9 3952 165 3949.9 165 3949.9 109.6 3952 109.6 3952 93.7 3949.9 93.7 3949.9 93.7 3934 93.7 3934 93.7 3804 93.7 3804 109.5 3934.5 109.5 3934.5 373.2 3934 373.2 3934 374.1 3925.3 374.1 3925.3 390 3934 390 3934 390 3949.9 390 3949.9 390 3989.6 390 3989.6 390 4005.5 390 4005.5 390 4027.2 390 4027.2 373.2 4026.5 373.2" style="fill:#b7b7b7"/><rect id="room-box" x="2968.8" y="1984.3" width="511.8" height="231.9" style="fill:url(#SVGID_0000000741798418186112434)"/><polygon points="2766.3 2313.1 2766.3 2385.5 2851.3 2385.6 2851.3 2294.5 2851.3 1677 2785.7 1677 2785.7 1703.7 2766.8 1703.7 2766.8 1765.7 2785.7 1765.7 2785.7 2219.2 2766.2 2219.2 2766.2 2294.5 2766.3 2313.1" style="fill:#f2f2f2"/><rect x="2969" y="2228.6" width="235.6" height="406.2" style="stroke:#b7b7b7;stroke-miterlimit:10;stroke-width:2px;fill:url(#SVGID_0000000741798418186112434)"/><rect x="2764.4" y="2585.3" width="79.8" height="136.4" style="stroke:#b7b7b7;stroke-miterlimit:10;stroke-width:2px;fill:url(#SVGID_0000000741798418186112434)"/><polygon points="448.8 1429 448.8 2369.7 2765.8 2369.7 2766.3 2312.6 2725.4 2312.6 2629.2 2312.6 2629 1988.2 2771.8 1988.2 2771.8 1904.8 2627 1904.8 2627 1791.2 2767.3 1791.1 2767.3 1658.4 2852.8 1658.4 2852.7 1216.8 2852.7 746.1 2609.1 746.1 2609.1 517.4 2954 517.4 2954 239.9 2953.8 33.2 2609.3 33.2 1340.8 33.2 1340.8 518 1340.8 745 36 745 36 1429 448.8 1429" style="stroke:#b7b7b7;stroke-miterlimit:10;stroke-width:2px;fill:url(#SVGID_0000000741798418186112434)"/><rect x="5012.5" y="1458.2" width="138.9" height="511.1" style="fill:url(#SVGID_0000000741798418186112434)"/><rect x="3792.2" y="516.8" width="48.9" height="20.1" style="fill:#f2f2f2"/><rect x="3792.2" y="727.8" width="48.9" height="20.1" style="fill:#f2f2f2"/></g></g><polygon id="corridoio" points="4273.5 390 3479.6 390 3479.6 389.7 3265.4 389.7 3265.4 533.8 2868.4 533.8 2868.4 746.1 3479.6 746.1 3479.6 545.4 3479.6 533.8 3479.6 517.8 4273.5 517.8 4273.5 390" style="fill:#f2f2f2"/></svg>