<svg id="floor-01" xmlns="http://www.w3.org/2000/svg" xmlns:xlink="http://www.w3.org/1999/xlink" viewBox="0 0 5443.6 3040.1"><defs><clipPath id="clip-path"><rect width="44.8" height="44.8" style="fill:none"/></clipPath><clipPath id="clip-path-2"><rect y="44.9" width="44.8" height="44.8" style="fill:none"/></clipPath><clipPath id="clip-path-3"><rect y="0.1" width="44.8" height="44.8" style="fill:none"/></clipPath><clipPath id="clip-path-4"><rect y="-44.7" width="44.8" height="44.8" style="fill:none"/></clipPath><pattern id="SVGID_26_" data-name="SVGID 26 " width="44.8" height="44.8" patternTransform="translate(-5964.7 1329.07) rotate(180) scale(0.63)" patternUnits="userSpaceOnUse" viewBox="0 0 44.8 44.8"><rect width="44.8" height="44.8" style="fill:none"/><rect width="44.8" height="44.8" style="fill:none"/><rect width="44.8" height="44.8" style="fill:none"/><rect width="44.8" height="44.8" style="fill:none"/><rect width="44.8" height="44.8" style="fill:none"/><g style="clip-path:url(#clip-path)"><rect x="-43.9" y="40.8" width="47.1" height="45.6" style="fill:#f2f2f2"/><line y1="44.8" x2="-44.7" y2="89.6" style="fill:none;stroke:#ddd;stroke-linecap:square;stroke-linejoin:round;stroke-width:20px"/><rect x="0.8" y="40.8" width="47.1" height="45.6" style="fill:#f2f2f2"/><line x1="44.8" y1="44.8" y2="89.6" style="fill:none;stroke:#ddd;stroke-linecap:square;stroke-linejoin:round;stroke-width:20px"/><line x1="89.6" y1="44.8" x2="44.8" y2="89.6" style="fill:none;stroke:#ddd;stroke-linecap:square;stroke-linejoin:round;stroke-width:20px"/><rect x="-43.9" y="-3.9" width="47.1" height="45.6" style="fill:#f2f2f2"/><line x2="-44.7" y2="44.8" style="fill:none;stroke:#ddd;stroke-linecap:square;stroke-linejoin:round;stroke-width:20px"/><rect x="0.8" y="-3.9" width="47.1" height="45.6" style="fill:#f2f2f2"/><line x1="44.8" y2="44.8" style="fill:none;stroke:#ddd;stroke-linecap:square;stroke-linejoin:round;stroke-width:20px"/><line x1="89.6" x2="44.8" y2="44.8" style="fill:none;stroke:#ddd;stroke-linecap:square;stroke-linejoin:round;stroke-width:20px"/><line y1="-44.7" x2="-44.7" style="fill:none;stroke:#ddd;stroke-linecap:square;stroke-linejoin:round;stroke-width:20px"/><line x1="44.8" y1="-44.7" style="fill:none;stroke:#ddd;stroke-linecap:square;stroke-linejoin:round;stroke-width:20px"/><line x1="89.6" y1="-44.7" x2="44.8" style="fill:none;stroke:#ddd;stroke-linecap:square;stroke-linejoin:round;stroke-width:20px"/></g></pattern><pattern id="SVGID_27_" data-name="SVGID 27 " width="44.8" height="44.8" patternTransform="matrix(-0.5, 0, 0, 0.5, -4699.29, 13357.55)" patternUnits="userSpaceOnUse" viewBox="0 0 44.8 44.8"><rect width="44.8" height="44.8" style="fill:none"/><rect width="44.8" height="44.8" style="fill:none"/><rect width="44.8" height="44.8" style="fill:none"/><rect width="44.8" height="44.8" style="fill:none"/><rect width="44.8" height="44.8" style="fill:none"/><g style="clip-path:url(#clip-path-2)"><rect y="44.8" width="44.8" height="44.8" style="fill:none"/><rect y="44.8" width="44.8" height="44.8" style="fill:none"/><rect x="-41.6" y="1" width="45.6" height="47.1" style="fill:#f2f2f2"/><line y1="44.8" x2="-44.8" y2="0.1" style="fill:none;stroke:#ddd;stroke-linecap:square;stroke-linejoin:round;stroke-width:20px"/><line y1="89.6" x2="-44.8" y2="44.8" style="fill:none;stroke:#ddd;stroke-linecap:square;stroke-linejoin:round;stroke-width:20px"/><rect x="3.1" y="1" width="45.6" height="47.1" style="fill:#f2f2f2"/><line x1="44.8" y1="44.8" y2="0.1" style="fill:none;stroke:#ddd;stroke-linecap:square;stroke-linejoin:round;stroke-width:20px"/><line x1="44.8" y1="89.6" y2="44.8" style="fill:none;stroke:#ddd;stroke-linecap:square;stroke-linejoin:round;stroke-width:20px"/><line x1="89.5" y1="44.8" x2="44.8" y2="0.1" style="fill:none;stroke:#ddd;stroke-linecap:square;stroke-linejoin:round;stroke-width:20px"/><line x1="89.5" y1="89.6" x2="44.8" y2="44.8" style="fill:none;stroke:#ddd;stroke-linecap:square;stroke-linejoin:round;stroke-width:20px"/></g><g style="clip-path:url(#clip-path-3)"><rect width="44.8" height="44.8" style="fill:none"/><rect width="44.8" height="44.8" style="fill:none"/><rect x="-41.6" y="-43.8" width="45.6" height="47.1" style="fill:#f2f2f2"/><line x2="-44.8" y2="-44.7" style="fill:none;stroke:#ddd;stroke-linecap:square;stroke-linejoin:round;stroke-width:20px"/><rect x="-41.6" y="0.8" width="45.6" height="47.1" style="fill:#f2f2f2"/><line y1="44.8" x2="-44.8" style="fill:none;stroke:#ddd;stroke-linecap:square;stroke-linejoin:round;stroke-width:20px"/><line y1="89.6" x2="-44.8" y2="44.8" style="fill:none;stroke:#ddd;stroke-linecap:square;stroke-linejoin:round;stroke-width:20px"/><rect x="3.1" y="-43.8" width="45.6" height="47.1" style="fill:#f2f2f2"/><line x1="44.8" y2="-44.7" style="fill:none;stroke:#ddd;stroke-linecap:square;stroke-linejoin:round;stroke-width:20px"/><rect x="3.1" y="0.8" width="45.6" height="47.1" style="fill:#f2f2f2"/><line x1="44.8" y1="44.8" style="fill:none;stroke:#ddd;stroke-linecap:square;stroke-linejoin:round;stroke-width:20px"/><line x1="44.8" y1="89.6" y2="44.8" style="fill:none;stroke:#ddd;stroke-linecap:square;stroke-linejoin:round;stroke-width:20px"/><line x1="89.5" x2="44.8" y2="-44.7" style="fill:none;stroke:#ddd;stroke-linecap:square;stroke-linejoin:round;stroke-width:20px"/><line x1="89.5" y1="44.8" x2="44.8" style="fill:none;stroke:#ddd;stroke-linecap:square;stroke-linejoin:round;stroke-width:20px"/><line x1="89.5" y1="89.6" x2="44.8" y2="44.8" style="fill:none;stroke:#ddd;stroke-linecap:square;stroke-linejoin:round;stroke-width:20px"/></g><g style="clip-path:url(#clip-path-4)"><rect x="-41.6" y="-44" width="45.6" height="47.1" style="fill:#f2f2f2"/><line x2="-44.8" y2="-44.8" style="fill:none;stroke:#ddd;stroke-linecap:square;stroke-linejoin:round;stroke-width:20px"/><line y1="44.8" x2="-44.8" style="fill:none;stroke:#ddd;stroke-linecap:square;stroke-linejoin:round;stroke-width:20px"/><rect x="3.1" y="-44" width="45.6" height="47.1" style="fill:#f2f2f2"/><line x1="44.8" y2="-44.8" style="fill:none;stroke:#ddd;stroke-linecap:square;stroke-linejoin:round;stroke-width:20px"/><line x1="44.8" y1="44.8" style="fill:none;stroke:#ddd;stroke-linecap:square;stroke-linejoin:round;stroke-width:20px"/><line x1="89.5" x2="44.8" y2="-44.8" style="fill:none;stroke:#ddd;stroke-linecap:square;stroke-linejoin:round;stroke-width:20px"/><line x1="89.5" y1="44.8" x2="44.8" style="fill:none;stroke:#ddd;stroke-linecap:square;stroke-linejoin:round;stroke-width:20px"/></g></pattern></defs><g id="a1--1"><g class="clickable" id="A1--1-25" data-name="customclass A1--1-25"><rect id="room-box-2" x="3499.68" y="1039.28" width="776.72" height="405.51" style="fill:#f2f2f2"/></g><g class="clickable" id="A1--1-21" data-name="customclass A1--1-21"><rect id="room-box-3" x="3088.07" y="1831.24" width="394.93" height="139.39" style="fill:#ddd"/></g><g class="clickable" id="A1--1-31" data-name="customclass A1--1-31"><rect id="room-box-4" x="2769.27" y="2371.09" width="186.94" height="200.66" style="fill:#f2f2f2"/></g><rect id="room-box-5" x="2862.54" y="2571.85" width="93.66" height="260.88" style="fill:#f2f2f2"/><g class="clickable" id="A1--1-22" data-name="customclass A1--1-22"><rect id="room-box-6" x="3088.07" y="1645.45" width="394.93" height="170.55" style="fill:#ddd"/></g><g class="clickable" id="A1--1-19" data-name="customclass A1--1-19"><rect id="room-box-7" x="2972.12" y="1901.27" width="100.33" height="69.36" style="fill:#ddd"/></g><g class="clickable" id="A1--1-18" data-name="customclass A1--1-18"><rect id="room-box-8" x="2972.12" y="1645.45" width="100.33" height="79.46" style="fill:#ddd"/></g><g class="clickable" id="A1--1-17" data-name="customclass A1--1-17"><rect id="room-box-9" x="2972.12" y="1039.28" width="510.89" height="590.26" style="fill:#ddd"/></g><g class="clickable" id="A1--1-41" data-name="customclass A1--1-41"><rect id="room-box-10" x="2870.93" y="1023.37" width="86.13" height="1363.64" style="fill:#f2f2f2"/></g><g class="clickable" id="A1--1-01" data-name="customclass A1--1-01"><rect id="room-box-11" x="2871.79" y="747.53" width="1420.62" height="275.93" style="fill:#f2f2f2;stroke:#b7b7b7;stroke-miterlimit:10;stroke-width:0.25px"/></g><rect id="room-box-12" x="3758.08" y="519.24" width="127.1" height="228.29" style="fill:#f2f2f2;stroke:#b7b7b7;stroke-miterlimit:10;stroke-width:0.25px"/><rect id="room-box-13" x="4157.77" y="519.24" width="118.72" height="228.29" style="fill:#f2f2f2;stroke:#b7b7b7;stroke-miterlimit:10;stroke-width:0.25px"/><g class="clickable" id="A1--1-40" data-name="customclass A1--1-40"><rect id="room-box-14" x="3619.35" y="535.16" width="122.82" height="196.47" style="fill:#f2f2f2"/></g><g class="clickable" id="A1--1-04" data-name="customclass A1--1-04"><rect id="room-box-15" x="3952.06" y="34.84" width="324.43" height="340.62" style="fill:#ddd"/></g><g class="clickable" id="A1--1-05" data-name="customclass A1--1-05"><rect id="room-box-16" x="3729.68" y="110.97" width="208.19" height="264.97" style="fill:#ddd"/></g><rect id="room-box-17" x="3729.68" y="35.23" width="222.67" height="60.12" style="fill:#ddd;stroke:#b7b7b7;stroke-miterlimit:10"/><g class="clickable" id="A1--1-07" data-name="customclass A1--1-07"><rect id="room-box-19" x="3498.92" y="181.96" width="87.75" height="193.51" style="fill:#ddd"/></g><g class="clickable" id="A1--1-09" data-name="customclass A1--1-09"><rect id="room-box-20" x="3269.2" y="182.05" width="213.9" height="193.51" style="fill:#ddd"/></g><g class="clickable" id="A1--1-10" data-name="customclass A1--1-10"><rect id="room-box-21" x="2972.02" y="34.84" width="280.98" height="484.4" style="fill:#ddd"/></g><g id="senza_codice" data-name="senza codice"><polygon points="3602.58 166.14 3602.58 375.94 3714.44 375.94 3714.44 34.84 3602.58 34.84 3602.58 34.84 3483 34.84 3483 34.94 3269.2 34.94 3269.2 166.81 3483 166.81 3602.58 166.14" style="fill:url(#SVGID_26_)"/></g><rect id="room-box-24" x="3498.92" y="535.54" width="120.81" height="195.61" style="fill:#f2f2f2"/><g class="clickable" id="A1--1-02" data-name="customclass A1--1-02"><rect id="room-box-25" x="4292.31" y="1039.28" width="568.53" height="931.36" style="fill:#ddd"/></g><rect id="room-box-26" x="4292.31" y="747.53" width="568.53" height="275.07" style="fill:#f2f2f2"/><g class="clickable" id="A1--1-03" data-name="customclass A1--1-03"><rect id="room-box-27" x="4292.31" y="34.84" width="568.53" height="695.92" style="fill:#ddd"/></g><g class="clickable" id="A1--1-33" data-name="customclass A1--1-33"><rect id="room-box-28" x="2646.07" y="1811.33" width="143.01" height="75.94" style="fill:#f2f2f2"/></g><g class="clickable" data-building-code="P1" id="A1--1-G1--1" data-floor-code="-1"><rect id="room-box-29" x="2829.96" y="2865.59" width="157.78" height="170.17" style="fill:none;stroke:#f2f2f2;stroke-miterlimit:10"/><path d="M2908.85,2903.33a47.42,47.42,0,0,0-47.54,47.25h0v.1a47.59,47.59,0,0,0,95.18.09h0a47.55,47.55,0,0,0-47.64-47.44" style="fill:#fff;stroke:#303030"/><path d="M2901.61,2956.3h5.62c8.39,0,11.81-3.43,11.81-9.72,0-5.33-3.14-9.14-11.52-9.14h-5.82Zm-5.62,23.92v-47.36h11.91c9.53,0,16.77,4.58,16.77,13.72s-6.48,14.58-17.53,14.58h-5.63v19.15Zm42.49-44.21L2909,2925.24,2879.31,2936l-1.33-3.62,31-11.15,31,11.24Z"/></g><rect id="room-box-30" x="3498.53" y="2247.33" width="779.19" height="170.17" style="fill:none;stroke:#f2f2f2;stroke-miterlimit:10"/><rect id="room-box-31" x="3499.68" y="1444.79" width="776.72" height="801.78" style="fill:#f2f2f2"/><path id="stairs-fixed" d="M4246.38,2246.56H4279V1445.65h-66.79v800.91Zm0-10.76H4273l-26.59,8.76Zm-1.71,8.76-26.49-8.76h26.49Zm6.1.29,26.48-8.67v8.67Zm26.48-10.77h-31v-9.14h31Zm0-10.86h-31v-9.15h31Zm0-10.86h-31v-9.05h31Zm0-10.77h-31v-9.14h31Zm0-10.76h-31v-9.15h31Zm0-10.87h-31v-9.05h31Zm0-10.86h-31V2160h31Zm0-10.76h-31v-9.15h31Zm0-10.87h-31v-9h31Zm0-10.76h-31v-9.05h31Zm0-10.77h-31v-9.15h31Zm0-10.77h-31v-8.67h31Zm0-11h-31v-8.58h31Zm0-10.29h-31v-9.15h31Zm0-10.77h-31V2074h31Zm0-10.86h-31v-9.05h31Zm0-10.86h-31v-9.06h31Zm0-10.77h-31v-9.15h31Zm0-10.77h-31v-9.14h31Zm0-10.86h-31v-9h31Zm0-10.77h-31v-9.14h31Zm0-10.86h-31v-9.14h31Zm0-10.86h-31v-9h31Zm-30.87-10.77v-9.14h31v9.14Zm30.87-11.24h-31v-9.15h31Zm0-10.77h-31v-9h31Zm0-10.86h-31v-9.14h31Zm0-10.76h-31V1933h31Zm0-10.86h-31v-9.15h31Zm0-10.77h-31v-9.15h31Zm0-10.86h-31v-9.06h31Zm0-10.77h-31v-9.15h31Zm0-10.86h-31v-9.15h31Zm0-10.77h-31v-9.15h31Zm0-10.86h-31v-9.15h31Zm0-10.77h-31V1847h31Zm0-10.86h-31v-8.67h31Zm0-10.38h-31v-9.06h31Zm0-10.77h-31v-9.15h31Zm0-10.77h-31v-9.14h31Zm0-10.86h-31v-9.15h31Zm0-10.77h-31v-9.14h31Zm0-10.86h-31v-9h31Zm0-10.76h-31v-9.15h31Zm0-10.87h-31v-9.14h31Zm0-10.76h-31v-9.15h31Zm0-10.86h-31V1728h31Zm0-10.77h-31v-8.67h31Zm0-11h-31v-8.57h31Zm0-10.29h-31v-9h31Zm0-10.77h-31v-9.14h31Zm0-10.86h-31v-9h31Zm0-10.76h-31v-9.15h31Zm0-10.87h-31v-9.14h31Zm0-10.76h-31v-9h31Zm0-10.86h-31v-9.15h31Zm0-10.77h-31v-9.15h31Zm0-10.86h-31v-9.15h31Zm0-10.77h-31v-9.15h31Zm0-10.86h-31v-8.67h31Zm0-10.77h-31v-8.67h31Zm0-10.38h-31v-9h31Zm0-10.77h-31v-9.15h31Zm0-10.86h-31V1545h31Zm0-10.77h-31v-9.14h31Zm0-10.86h-31v-9.15h31Zm0-10.77h-31v-9h31Zm0-10.86h-31v-9.14h31Zm0-10.76h-31V1491h31Zm0-10.87h-31v-9.14h31Zm0-10.76h-31v-9.15h31Zm-30.87-10.86v-9.06h31v9.15Zm0-20.3h31v9.05h-31Zm-32.68,0h31v9.05h-31Zm0,11.24h31v9.15h-31Zm0,10.77h31v9.15h-31Zm0,10.86h31v9.15h-31Zm0,10.77h31v9.15h-31Zm0,10.86h31V1511h-31Zm0,10.77h31v9.14h-31Zm0,10.86h31v9.15h-31Zm0,10.77h31v9.14h-31Zm0,10.86h31v9.05h-31Zm0,10.76h31V1565h-31Zm0,10.87h31v9.14h-31Zm0,10.76h31v8.67h-31Zm0,10.86h31V1597h-31Zm0,10.29h31v9.15h-31Zm0,10.87h31v9.14h-31Zm0,10.76h31v9.15h-31Zm0,10.86h31v9.15h-31Zm0,10.77h31v9.15h-31Zm0,10.86h31v9.15h-31Zm0,10.77h31v9.15h-31Zm0,10.86h31v9.15h-31Zm0,10.77h31v9.14h-31Zm0,10.86h31v9.15h-31Zm0,10.77h31v8.57h-31Zm0,10.86h31v8.67h-31Zm0,10.29h31v9.15h-31Zm0,10.86h31V1748h-31Zm0,10.86h31v9.15h-31Zm0,10.77h31v9.15h-31Zm0,10.77h31v9.14h-31Zm0,10.86h31v9.14h-31Zm0,10.76h31V1802h-31Zm0,10.87h31v9.14h-31Zm0,10.76h31v9.15h-31Zm0,10.86h31v9.15h-31Zm0,10.77h31v8.67h-31Zm0,10.86h31v8.67h-31Zm0,10.39h31v9.15h-31Zm0,10.76h31v9.15h-31Zm0,10.87h31v9.14h-31Zm0,10.76h31v9.15h-31Zm0,10.86h31v9.15h-31Zm0,10.77h31v9.15h-31Zm0,10.86h31v9.15h-31Zm0,10.77h31v9.15h-31Zm0,10.86h31V1953h-31Zm0,10.77h31v9.15h-31Zm31,10.86v9.15h-31v-9.15Zm-31,11.15h31v9.14h-31Zm0,10.86h31v9h-31Zm0,10.77h31v9.14h-31Zm0,10.86h31v9.14h-31Zm0,10.86h31v9h-31Zm0,10.77h31v9.14h-31Zm0,10.76h31v9.15h-31Zm0,10.77h31v9.15h-31Zm0,11h31v9.05h-31Zm0,10.67h31v9.14h-31Zm0,10.86h31v9.15h-31Zm0,10.86h31v8.58h-31Zm0,10.86h31v8.67h-31Zm0,10.29h31v9.15h-31Zm0,10.87h31v9.05h-31Zm0,10.76h31v9.15h-31Zm0,10.77h31v9.15h-31Zm0,10.86h31v9.15h-31Zm0,10.86h31V2180h-31Zm0,10.77h31v9.15h-31Zm0,10.77h31v9.14h-31Zm0,10.86h31v9.05h-31Zm0,10.86h31v9.15h-31Zm0,10.77h31v9.14h-31Zm0,11.14,26.49,8.77H4213.7Z" style="fill:#b7b7b7;opacity:0.4000000059604645;isolation:isolate"/><path id="stairs-fixed-2" d="M3564.75,2245.71h67.18V1444.79H3498.15v800.92Zm1.15-10.87h55l-55,9Zm-1.81,9.06-54.69-9h54.69Zm11.53.09,54.59-8.95V2244Zm54.59-10.76H3565.9v-9.15h64.31Zm0-10.87H3565.9v-9.05h64.31Zm0-10.76H3565.9v-9.15h64.31Zm0-10.87H3565.9v-9.14h64.31Zm0-10.76H3565.9v-9.15h64.31Zm0-10.86H3565.9V2170h64.31Zm0-10.77H3565.9v-9.05h64.31Zm0-10.86H3565.9v-9.15h64.31Zm0-10.86H3565.9v-9.06h64.31Zm0-10.77H3565.9v-9.15h64.31Zm0-10.77H3565.9v-9.14h64.31Zm0-10.95H3565.9v-8.58h64.31Zm0-10.68H3565.9v-8.67h64.31Zm0-10.38H3565.9V2084h64.31Zm0-10.86H3565.9v-9.15h64.31Zm0-10.77H3565.9v-9.15h64.31Zm0-10.86H3565.9v-9.15h64.31Zm0-10.77H3565.9v-9.14h64.31Zm0-10.86H3565.9v-9h64.31Zm0-10.77H3565.9V2019h64.31Zm0-10.86H3565.9v-9.14h64.31Zm0-10.86H3565.9v-9h64.31Zm0-10.77H3565.9v-9.14h64.31Zm-64.31-10.76v-9h64.31V1985Zm64.31-11.25H3565.9v-9h64.31Zm0-10.86H3565.9v-9.14h64.31Zm0-10.76H3565.9V1943h64.31Zm0-10.87H3565.9v-9.14h64.31Zm0-10.76H3565.9v-9.15h64.31Zm0-10.86H3565.9v-9.15h64.31Zm0-10.77H3565.9v-9.15h64.31Zm0-10.86H3565.9v-9h64.31Zm0-10.77H3565.9V1878h64.31Zm0-10.86H3565.9v-9.15h64.31Zm0-10.77H3565.9v-9h64.31Zm0-10.86H3565.9V1846h64.31Zm0-10.77H3565.9v-8.67h64.31Zm0-10.38H3565.9v-9.15h64.31Zm0-10.77H3565.9v-9h64.31Zm0-10.86H3565.9v-9.15h64.31Zm0-10.77H3565.9V1792h64.31Zm0-10.86H3565.9v-9.15h64.31Zm0-10.77H3565.9v-9.14h64.31Zm0-10.86H3565.9v-9.05h64.31Zm0-10.76H3565.9v-9.15h64.31Zm0-10.87H3565.9v-9.14h64.31Zm0-10.76H3565.9v-9.15h64.31Zm0-10.86H3565.9v-8.67h64.31Zm0-10.77H3565.9V1706h64.31Zm0-10.39H3565.9v-9.14h64.31Zm0-10.76H3565.9v-9.15h64.31Zm0-10.86H3565.9v-9.06h64.31Zm0-10.87H3565.9v-9.14h64.31Zm0-10.76H3565.9v-9.15h64.31Zm0-10.77H3565.9v-9.15h64.31Zm0-10.86H3565.9v-9h64.31Zm0-10.77H3565.9v-9.14h64.31Zm0-10.86H3565.9v-9h64.31Zm0-10.77H3565.9v-9.14h64.31Zm0-10.86H3565.9v-8.67h64.31Zm0-10.76H3565.9v-8.68h64.31Zm0-10.39H3565.9v-9h64.31Zm0-10.86H3565.9v-9h64.31Zm0-10.77H3565.9v-9.15h64.31Zm0-10.86H3565.9v-9.15h64.31Zm0-10.77H3565.9v-9.14h64.31Zm0-10.86H3565.9v-9.15h64.31Zm0-10.77H3565.9v-9h64.31Zm0-10.86H3565.9v-9.14h64.31Zm0-10.76H3565.9v-9.15h64.31Zm0-10.87H3565.9v-9.14h64.31Zm-64.31-10.76v-9.15h64.31v9.15Zm0-20.39h64.31v9.14H3565.9Zm-66.13,0h64.32v9.14h-64.32Zm0,11.24h64.32v9.15h-64.32Zm0,10.86h64.32v9.15h-64.32Zm0,10.77h64.32v9.15h-64.32Zm0,10.86h64.32v9.15h-64.32Zm0,10.77h64.32v9h-64.32Zm0,10.86h64.32v9.15h-64.32Zm0,10.77h64.32v9.14h-64.32Zm0,10.86h64.32v9.15h-64.32Zm0,10.76h64.32v9.15h-64.32Zm0,10.87h64.32v9.14h-64.32Zm0,10.86h64.32v9h-64.32Zm0,10.76h64.32v8.68h-64.32Zm0,10.77h64.32v8.67h-64.32Zm0,10.39h64.32V1607h-64.32Zm0,10.76h64.32v9.15h-64.32Zm0,10.87h64.32v9.14h-64.32Zm0,10.76h64.32v9.15h-64.32Zm0,10.86h64.32v9.15h-64.32Zm0,10.77h64.32V1661h-64.32Zm0,10.86h64.32v9.15h-64.32Zm0,10.86h64.32v9.06h-64.32Zm0,10.77h64.32v9.24h-64.32Zm0,10.77h64.32v9.14h-64.32Zm0,10.86h64.32v8.67h-64.32Zm0,10.77h64.32v8.67h-64.32Zm0,10.38h64.32v9.15h-64.32Zm0,10.86h64.32v9.15h-64.32Zm0,10.77h64.32v9.15h-64.32Zm0,10.86h64.32v9.15h-64.32Zm0,10.77h64.32v9.14h-64.32Zm0,10.86h64.32v9.15h-64.32Zm0,10.77h64.32v9.14h-64.32Zm0,10.86h64.32V1812h-64.32Zm0,10.76h64.32v9.15h-64.32Zm0,10.87h64.32v9.14h-64.32Zm0,10.76h64.32v8.67h-64.32Zm0,10.86h64.32v8.68h-64.32Zm0,10.3h64.32v9.14h-64.32Zm0,10.86h64.32v9.14h-64.32Zm0,10.76h64.32v9.15h-64.32Zm0,10.87h64.32V1898h-64.32Zm0,10.76h64.32v9.15h-64.32Zm0,10.86h64.32v9.15h-64.32Zm0,10.77h64.32v9.15h-64.32Zm0,10.86h64.32v9.15h-64.32Zm0,10.77h64.32v9.15h-64.32Zm0,10.86h64.32v9.15h-64.32Zm64.32,10.86v9h-64.32v-9Zm-64.32,11.15h64.32v9.15h-64.32Zm0,10.77h64.32v9.24h-64.32Zm0,10.86h64.32v9h-64.32Zm0,10.86h64.32v9.15h-64.32Zm0,10.77h64.32v9.14h-64.32Zm0,10.86h64.32v9.15h-64.32Zm0,10.77h64.32v9.14h-64.32Zm0,10.86h64.32v9.14h-64.32Zm0,10.76h64.32v9.15h-64.32Zm0,10.87h64.32v9.14h-64.32Zm0,10.76h64.32v9.15h-64.32Zm0,10.86h64.32v8.67h-64.32Zm0,10.77h64.32v8.58h-64.32Zm0,10.39h64.32v9.14h-64.32Zm0,10.76h64.32v9.15h-64.32Zm0,10.86h64.32v9.06h-64.32Zm0,10.87h64.32v9.14h-64.32Zm0,10.76h64.32v9.15h-64.32Zm0,10.77h64.32v9.15h-64.32Zm0,10.86h64.32V2190h-64.32Zm0,10.77h64.32v9.14h-64.32Zm0,10.76h64.32v9.15h-64.32Zm0,10.87h64.32v9.14h-64.32Zm0,10.86h64.32v9.15h-64.32Zm0,11,54.6,8.95h-54.6Z" style="fill:#b7b7b7;opacity:0.4000000059604645;isolation:isolate"/><g class="clickable" id="A1--1-39" data-name="customclass A1--1-39"><g id="scale" style="opacity:0.4000000059604645"><line x1="4141.86" y1="730.48" x2="4141.86" y2="537.16" style="fill:none;stroke:#b7b7b7;stroke-miterlimit:10;stroke-width:5px"/><polyline points="4141.86 537.16 3909.47 537.16 3909.47 624.34 4064.68 624.34 4064.68 645.3 3909.47 645.3 3909.47 730.48 4141.86 730.48" style="fill:none;stroke:#b7b7b7;stroke-miterlimit:10;stroke-width:5px"/><polyline points="3909.76 579.17 4096.6 579.17 4096.6 686.55 3909.66 686.55" style="fill:none;stroke:#b7b7b7;stroke-miterlimit:10;stroke-width:5px"/><line x1="4034.39" y1="536.49" x2="4034.39" y2="625.1" style="fill:none;stroke:#b7b7b7;stroke-miterlimit:10;stroke-width:5px"/><line x1="4048.77" y1="536.49" x2="4048.77" y2="625.1" style="fill:none;stroke:#b7b7b7;stroke-miterlimit:10;stroke-width:5px"/><line x1="4062.49" y1="536.49" x2="4062.49" y2="625.1" style="fill:none;stroke:#b7b7b7;stroke-miterlimit:10;stroke-width:5px"/><line x1="4020.28" y1="625.1" x2="4020.28" y2="536.49" style="fill:none;stroke:#b7b7b7;stroke-miterlimit:10;stroke-width:5px"/><line x1="4062.49" y1="645.3" x2="4062.49" y2="730.48" style="fill:none;stroke:#b7b7b7;stroke-miterlimit:10;stroke-width:5px"/><line x1="4048.77" y1="645.3" x2="4048.77" y2="730.48" style="fill:none;stroke:#b7b7b7;stroke-miterlimit:10;stroke-width:5px"/><line x1="4034.39" y1="645.3" x2="4034.39" y2="730.48" style="fill:none;stroke:#b7b7b7;stroke-miterlimit:10;stroke-width:5px"/><line x1="4020.28" y1="645.3" x2="4020.28" y2="730.48" style="fill:none;stroke:#b7b7b7;stroke-miterlimit:10;stroke-width:5px"/><line x1="4006.28" y1="645.3" x2="4006.28" y2="730.48" style="fill:none;stroke:#b7b7b7;stroke-miterlimit:10;stroke-width:5px"/><line x1="3992.56" y1="645.3" x2="3992.56" y2="730.48" style="fill:none;stroke:#b7b7b7;stroke-miterlimit:10;stroke-width:5px"/><line x1="3978.74" y1="645.3" x2="3978.74" y2="730.48" style="fill:none;stroke:#b7b7b7;stroke-miterlimit:10;stroke-width:5px"/><line x1="3936.44" y1="645.3" x2="3936.44" y2="730.48" style="fill:none;stroke:#b7b7b7;stroke-miterlimit:10;stroke-width:5px"/><line x1="3923.19" y1="645.3" x2="3923.19" y2="730.48" style="fill:none;stroke:#b7b7b7;stroke-miterlimit:10;stroke-width:5px"/><polyline points="3921.96 730.48 3909.28 686.65 3922.34 645.77" style="fill:none;stroke:#b7b7b7;stroke-miterlimit:10;stroke-width:5px"/><polyline points="3922.72 645.3 3907.19 645.3 3907.19 624.24 3951.02 624.24" style="fill:none;stroke:#b7b7b7;stroke-miterlimit:10;stroke-width:5px"/><line x1="3964.83" y1="536.49" x2="3964.83" y2="625.1" style="fill:none;stroke:#b7b7b7;stroke-miterlimit:10;stroke-width:5px"/><line x1="3992.65" y1="536.49" x2="3992.65" y2="625.1" style="fill:none;stroke:#b7b7b7;stroke-miterlimit:10;stroke-width:5px"/><line x1="3978.74" y1="536.49" x2="3978.74" y2="625.1" style="fill:none;stroke:#b7b7b7;stroke-miterlimit:10;stroke-width:5px"/><line x1="4006.56" y1="536.49" x2="4006.56" y2="625.1" style="fill:none;stroke:#b7b7b7;stroke-miterlimit:10;stroke-width:5px"/><line x1="3951.02" y1="536.49" x2="3951.02" y2="625.1" style="fill:none;stroke:#b7b7b7;stroke-miterlimit:10;stroke-width:5px"/><line x1="3937.11" y1="536.49" x2="3937.11" y2="625.1" style="fill:none;stroke:#b7b7b7;stroke-miterlimit:10;stroke-width:5px"/><line x1="3923.19" y1="536.49" x2="3923.19" y2="625.1" style="fill:none;stroke:#b7b7b7;stroke-miterlimit:10;stroke-width:5px"/><line x1="3965.02" y1="645.3" x2="3965.02" y2="730.48" style="fill:none;stroke:#b7b7b7;stroke-miterlimit:10;stroke-width:5px"/><line x1="3950.83" y1="645.3" x2="3950.83" y2="730.48" style="fill:none;stroke:#b7b7b7;stroke-miterlimit:10;stroke-width:5px"/></g><rect id="room-box-32" x="3900.52" y="536.49" width="241.34" height="194.47" style="fill:none"/></g><g id="a1-scale-B"><rect id="room-box-33" x="2626.63" y="535.25" width="245.06" height="196.28" style="fill:#f2f2f2"/><g id="scale-2" style="opacity:0.4000000059604645"><polyline points="2824.43 646.44 2629.3 646.44 2629.3 731.62 2824.81 731.62" style="fill:none;stroke:#b7b7b7;stroke-miterlimit:10;stroke-width:5px"/><line x1="2823.38" y1="687.7" x2="2629.49" y2="687.7" style="fill:none;stroke:#b7b7b7;stroke-miterlimit:10;stroke-width:5px"/><line x1="2788.04" y1="646.44" x2="2788.04" y2="731.62" style="fill:none;stroke:#b7b7b7;stroke-miterlimit:10;stroke-width:5px"/><line x1="2773.74" y1="646.44" x2="2773.74" y2="731.62" style="fill:none;stroke:#b7b7b7;stroke-miterlimit:10;stroke-width:5px"/><line x1="2758.88" y1="646.44" x2="2758.88" y2="731.62" style="fill:none;stroke:#b7b7b7;stroke-miterlimit:10;stroke-width:5px"/><line x1="2744.21" y1="646.44" x2="2744.21" y2="731.62" style="fill:none;stroke:#b7b7b7;stroke-miterlimit:10;stroke-width:5px"/><line x1="2729.63" y1="646.44" x2="2729.63" y2="731.62" style="fill:none;stroke:#b7b7b7;stroke-miterlimit:10;stroke-width:5px"/><line x1="2715.43" y1="646.44" x2="2715.43" y2="731.62" style="fill:none;stroke:#b7b7b7;stroke-miterlimit:10;stroke-width:5px"/><line x1="2701.14" y1="646.44" x2="2701.14" y2="731.62" style="fill:none;stroke:#b7b7b7;stroke-miterlimit:10;stroke-width:5px"/><line x1="2657.31" y1="646.44" x2="2657.31" y2="731.62" style="fill:none;stroke:#b7b7b7;stroke-miterlimit:10;stroke-width:5px"/><line x1="2643.5" y1="646.44" x2="2643.5" y2="731.62" style="fill:none;stroke:#b7b7b7;stroke-miterlimit:10;stroke-width:5px"/><polyline points="2642.26 731.62 2629.11 687.79 2642.64 646.92" style="fill:none;stroke:#b7b7b7;stroke-miterlimit:10;stroke-width:5px"/><line x1="2686.94" y1="646.44" x2="2686.94" y2="731.62" style="fill:none;stroke:#b7b7b7;stroke-miterlimit:10;stroke-width:5px"/><line x1="2672.18" y1="646.44" x2="2672.18" y2="731.62" style="fill:none;stroke:#b7b7b7;stroke-miterlimit:10;stroke-width:5px"/></g></g><g class="clickable" id="A1--1-32" data-name="customclass A1--1-32"><polygon id="room-box-34" points="2774.22 2295.92 2774.22 2295.54 2774.22 2184.16 2774.22 2007.89 2646.45 2007.89 2646.45 2295.92 2774.22 2295.92" style="fill:#f2f2f2"/><g id="scale-3" style="opacity:0.4000000059604645"><line x1="2774.22" y1="2007.89" x2="2646.55" y2="2007.89" style="fill:none;stroke:#b7b7b7;stroke-miterlimit:10;stroke-width:5px"/><polyline points="2646.55 2007.89 2646.55 2218.46 2704.09 2218.46 2704.09 2077.82 2718.01 2077.82 2718.01 2218.46 2774.22 2218.46 2774.22 2007.89" style="fill:none;stroke:#b7b7b7;stroke-miterlimit:10;stroke-width:5px"/><polyline points="2674.27 2218.17 2674.27 2048.95 2745.26 2048.95 2745.26 2218.36" style="fill:none;stroke:#b7b7b7;stroke-miterlimit:10;stroke-width:5px"/><line x1="2646.07" y1="2105.26" x2="2704.57" y2="2105.26" style="fill:none;stroke:#b7b7b7;stroke-miterlimit:10;stroke-width:5px"/><line x1="2646.07" y1="2092.21" x2="2704.57" y2="2092.21" style="fill:none;stroke:#b7b7b7;stroke-miterlimit:10;stroke-width:5px"/><line x1="2646.07" y1="2079.83" x2="2704.57" y2="2079.83" style="fill:none;stroke:#b7b7b7;stroke-miterlimit:10;stroke-width:5px"/><line x1="2704.57" y1="2118.03" x2="2646.07" y2="2118.03" style="fill:none;stroke:#b7b7b7;stroke-miterlimit:10;stroke-width:5px"/><line x1="2718.01" y1="2079.83" x2="2774.22" y2="2079.83" style="fill:none;stroke:#b7b7b7;stroke-miterlimit:10;stroke-width:5px"/><line x1="2718.01" y1="2092.21" x2="2774.22" y2="2092.21" style="fill:none;stroke:#b7b7b7;stroke-miterlimit:10;stroke-width:5px"/><line x1="2718.01" y1="2105.26" x2="2774.22" y2="2105.26" style="fill:none;stroke:#b7b7b7;stroke-miterlimit:10;stroke-width:5px"/><line x1="2718.01" y1="2118.03" x2="2774.22" y2="2118.03" style="fill:none;stroke:#b7b7b7;stroke-miterlimit:10;stroke-width:5px"/><line x1="2718.01" y1="2130.8" x2="2774.22" y2="2130.8" style="fill:none;stroke:#b7b7b7;stroke-miterlimit:10;stroke-width:5px"/><line x1="2718.01" y1="2143.19" x2="2774.22" y2="2143.19" style="fill:none;stroke:#b7b7b7;stroke-miterlimit:10;stroke-width:5px"/><line x1="2718.01" y1="2155.76" x2="2774.22" y2="2155.76" style="fill:none;stroke:#b7b7b7;stroke-miterlimit:10;stroke-width:5px"/><line x1="2718.01" y1="2194.07" x2="2774.22" y2="2194.07" style="fill:none;stroke:#b7b7b7;stroke-miterlimit:10;stroke-width:5px"/><line x1="2718.01" y1="2206.07" x2="2774.22" y2="2206.07" style="fill:none;stroke:#b7b7b7;stroke-miterlimit:10;stroke-width:5px"/><polyline points="2774.22 2207.12 2745.26 2218.65 2718.29 2206.83" style="fill:none;stroke:#b7b7b7;stroke-miterlimit:10;stroke-width:5px"/><polyline points="2718.01 2206.45 2718.01 2220.55 2704 2220.55 2704 2180.82" style="fill:none;stroke:#b7b7b7;stroke-miterlimit:10;stroke-width:5px"/><line x1="2646.07" y1="2168.24" x2="2704.57" y2="2168.24" style="fill:none;stroke:#b7b7b7;stroke-miterlimit:10;stroke-width:5px"/><line x1="2646.07" y1="2143.09" x2="2704.57" y2="2143.09" style="fill:none;stroke:#b7b7b7;stroke-miterlimit:10;stroke-width:5px"/><line x1="2646.07" y1="2155.67" x2="2704.57" y2="2155.67" style="fill:none;stroke:#b7b7b7;stroke-miterlimit:10;stroke-width:5px"/><line x1="2646.07" y1="2130.51" x2="2704.57" y2="2130.51" style="fill:none;stroke:#b7b7b7;stroke-miterlimit:10;stroke-width:5px"/><line x1="2646.07" y1="2180.92" x2="2704.57" y2="2180.92" style="fill:none;stroke:#b7b7b7;stroke-miterlimit:10;stroke-width:5px"/><line x1="2646.07" y1="2193.49" x2="2704.57" y2="2193.49" style="fill:none;stroke:#b7b7b7;stroke-miterlimit:10;stroke-width:5px"/><line x1="2646.07" y1="2206.07" x2="2704.57" y2="2206.07" style="fill:none;stroke:#b7b7b7;stroke-miterlimit:10;stroke-width:5px"/><line x1="2718.01" y1="2168.15" x2="2774.22" y2="2168.15" style="fill:none;stroke:#b7b7b7;stroke-miterlimit:10;stroke-width:5px"/><line x1="2718.01" y1="2181.01" x2="2774.22" y2="2181.01" style="fill:none;stroke:#b7b7b7;stroke-miterlimit:10;stroke-width:5px"/></g></g><g class="clickable" id="A1--1-30" data-name="customclass A1--1-30"><rect id="room-box-35" x="4876.75" y="340.31" width="104.52" height="343.58" style="fill:#f2f2f2"/><path id="stairs" d="M4927.73,478.27h53.54V444H4876.75v34.3Zm2.57-32.3,41.92,9H4930.3Zm-2.57,8.87h-42l42-9Zm51.54,21.81h-49v-9.24h49Zm0-10.86h-49v-9.24h49Zm0-11.15-42.21-8.95h42.21ZM4921,445.69l-42.21,8.95v-8.95Zm-42.21,10.86h49v9.24h-49Zm49,10.86v9.24h-49v-9.24Z" style="fill:#b7b7b7;opacity:0.4000000059604645;isolation:isolate"/></g><g class="clickable" id="A1--1-29" data-name="customclass A1--1-29"><rect id="room-box-36" x="4876.75" y="699.8" width="104.52" height="280.88" style="fill:#f2f2f2"/><path id="stairs-2" d="M4927.73,795.94h53.54v-34.3H4876.75v34.3Zm2.57-32.3,41.92,9H4930.3Zm-2.57,9h-42l42-9Zm51.54,21.73h-49v-9.25h49Zm0-10.87h-49v-9.24h49Zm0-11.05-42.21-9h42.21Zm-58.31-9-42.21,9v-9Zm-42.21,10.86h49v9.24h-49Zm49,10.86v9.25h-49v-9.25Z" style="fill:#b7b7b7;opacity:0.4000000059604645;isolation:isolate"/></g><g class="clickable" id="A1--1-28" data-name="customclass A1--1-28"><rect id="room-box-37" x="4876.75" y="1139.61" width="104.52" height="320.23" style="fill:#f2f2f2"/><path id="stairs-3" d="M4927.73,1307.68h53.54v-34.3H4876.75v34.3Zm2.57-32.39,41.92,9H4930.3Zm-2.57,9h-42l42-9Zm51.54,21.73h-49v-9.15h49Zm0-10.87h-49V1286h49Zm0-11.14-42.21-9h42.21ZM4921,1275.1l-42.21,9v-9ZM4878.75,1286h49v9.14h-49Zm49,10.86V1306h-49v-9.15Z" style="fill:#b7b7b7;opacity:0.4000000059604645;isolation:isolate"/></g><g class="clickable" id="A1--1-26" data-name="customclass A1--1-26"><rect id="room-box-38" x="4876.75" y="1459.84" width="104.52" height="510.03" style="fill:#f2f2f2"/><path id="stairs-4" d="M4930.3,1911.37h-53.55v34.3h104.52v-34.3Zm-2.57,32.21-42-8.86h42Zm2.57-8.87h41.92l-41.92,8.87ZM4878.75,1913h49v9.24h-49Zm0,10.86h49V1933h-49Zm0,11.15,42.21,9h-42.21Zm58.22,9,42.21-9v9Zm42.3-11h-49v-9.15h49Zm-49-10.77V1913h49v9.24Z" style="fill:#b7b7b7;opacity:0.4000000059604645;isolation:isolate"/></g><g id="floor-wall"><path d="M3498.92,34.84h87.84l15.91.29h111.48V95.06h-.28v15.82h.28v55.45h-.28v15.91h.28V375.37h-27.92v15.82h51.07V375.37h-7.24v-.85h-.28V110.88h21.72V95.06h-21.44V35.13h180.27v-.29h56v.29h199.8V39h15.91V35.23h94.8V95.16h-.28V111h.28v55.45h-.28v15.92h.28V375.47h-92.32v15.81h92.32v21h15.53v-346l-.57-31.45h569.1v145.4h15.92V34.84h104.52v1935H4876.85V1862h-15.92v108.62H4292.4V1039.28h.38v-.86h90.71v-15.91H4292.4V747.44h.38v-.86h90.71V730.67H4292.4V494h-15.53v25.25h-94.8v-.19h-15.91v.19H3841.73v-.19h-15.91v.19h-67.74v-.19h-15.92v.19h-11.72V535h11.72V731.43h-15v15.91h2.76v-.28h95.85v.28h15.92v-.28h43.54v.28h15.05v-.28h37.16v.28h15.91v-.28h212.76v.28H4182v-.28h94.81v87.18h-.29v15.91h.29v94.52h-.29v15.81h.29V1023h-.29v.28H4170.25v15.91H4182v-.28h94.81v183.7h-.29v15.91h.29v191.61h-.29V1446h.29v110.33h-.29v15.91h.29v57.46h-.29v15.81h.29v170h-.29v15.91h.29v55.93h-.29v15.91h.29v67.37h-.29v15.91h.29v68.5h-.29v15.82h.29v62.31h-.29v15.92h.29v64.21h-.29v.67H3499.77v-.67h-1.05V2149.1h1.05v-15.92h-1.05v-62.31h1.05v-15.82h-1.05v-68.5h1.05v-15.91h-1.05v-67.37h1.05v-15.91h-1.05v-55.93h1.05v-15.91h-1.05v-170h1.05v-15.81h-1.05v-57.46h1.05v-15.91h-1.05V1446h.2v-15.91h-.2V1238.51h1.05V1222.6h-1.05V1038.9h43.74v-15.72H3432.12v15.72h50.79v.28h.09v590.26h-.09v.19H3088v-.19h-15.92v.19H2972.4v-.19h-.28v-148h-15.06v285.94h15.34v-27.64h21.44v-15H2972.4v-79.27h99.66v79.27h-22.2v15h22.2v10.87H3088V1645.45h.38v-.1H3483V1815.9H3088.36v-.47H3088v-8.77h-15.92v24.2h19.63v.48h314.42v.47h17.53v-.47h59.17v.47h.1v138.73h-395v-67.36h.38v-15.91h-.38V1887H3072v.29h-27.16v13.91h27.63v69.36H2972.12v-69.36h16.67v-13.91h-16.48v-37.92H2957V2371.1h-15.06v15.53h14.2v74.69H2972V2229.8h235v406.36H2972V2517.44h-15.91v54.31h-8.39v15.91h8.39v244.87h-12.58v32.59h45.16V2668.65h250.87V2246.47H4282.4v.28h27V2002.46h704.4v.09h169.79V1428H5013.76V1.4H4282.21v.38h-2428V1.4H1309.87V3.59H1307V711.71H3.4v754.61H415.48v940.6H2060.2l675.15-.48v349.39h94.51v109.48h43.55v-32.59h-10.87v-245h9.15v-15.91h-36.78v15.91h11.72v32.59h-11.72v15.91h11.72v87H2768v-87h10.76v-15.82H2768v-32.59h16.77v-15.91H2769l.29-184.74,116.52-.29v-15.53h-15.05V2371h-.38V2229.8h.38v-15.92h-.38v-143h.38v-15.82h-.38v-46.4h.38v-15.91h-.38v-89.66h.38v-15.91h-.38v-84.7h.38v-15.82h-.38v-141.2h.38v-15.82h-.38V1565h.38v-15.91h-.38V1445.93h.38V1430h-.38V1238.41h.38V1222.5h-.38V1038.8h8.76v-15.72h-7.52v-292H2626.73V535H2877.5V519.15H2611.58v227h243.34v913.45h-85.46v45.25h19.34v-26.86h66v692.87h-2404V1430.3H38v-683h.09v-1H1343.22V34.46H2956.39v.48h0V94.87h0v15.82h0v55.45h0v15.91h0V375.18h0V391h0v54.4h0v15.91h0v57.84h-22.86V535l74.32-.1V519.15h-35.64V519h-.28V34.56h281V418.63h15.92V391.09h141.3V375.18h-141.3V182.05h.85v-.38h213.24V375.18h-16.68V391h48.41V375.18h-16.11V182.24h.19v-.38h87.85V375.37h-15.91v15.82H3630V375.37h-27.54V166.23H3268.82V110.78h.85V95h-.85V35h.85v-.28h229.25ZM3483.86,2214H2972.12V1985.69h511.74V2214ZM3900.23,535.06h241.63V731.53H3900.23V622.62h-15.05V731.53h-127.1V535.06Zm376.55,196.28h-.29v.28H4157.77V535.16h118.72v.09h.29Z" style="fill:#b7b7b7"/><polygon points="2646.55 1989.6 2639.02 1989.6 2631.59 1989.6 2631.59 2314.5 2634.54 2314.5 2646.55 2314.5 2769.74 2314.5 2769.74 2296.11 2646.55 2296.11 2646.55 2007.98 2774.22 2007.98 2774.22 2220.08 2789.08 2220.08 2789.08 2007.98 2789.08 1989.6 2789.08 1905.65 2789.08 1887.27 2774.22 1887.27 2646.55 1887.27 2646.55 1811.33 2774.22 1811.33 2789.08 1811.33 2789.08 1792.94 2789.08 1767.12 2770.22 1767.12 2770.22 1792.94 2646.55 1792.94 2639.02 1792.94 2630.16 1792.46 2630.16 1905.18 2639.02 1905.65 2646.55 1905.65 2774.22 1905.65 2774.22 1989.6 2646.55 1989.6" style="fill:#b7b7b7"/><polygon points="4860.84 1780.08 4876.75 1780.08 4876.75 1459.84 4876.75 1458.22 4860.84 1458.22 4860.84 1780.08" style="fill:#b7b7b7"/><polygon points="4876.75 418.92 4876.75 311.92 4860.84 311.92 4860.84 592.89 4876.75 592.89 4876.75 418.92" style="fill:#b7b7b7"/><rect x="3126.47" y="1023.37" width="178.93" height="15.63" style="fill:#b7b7b7"/><polygon points="3253.09 519.24 3253.09 519.43 3088.36 519.43 3088.36 519.24 3072.45 519.24 3072.45 519.43 3062.44 519.43 3062.44 535.16 3269.01 535.16 3269.01 519.43 3269.01 519.24 3269.01 500.86 3253.09 500.86 3253.09 519.24" style="fill:#b7b7b7"/><polygon points="4860.84 746.68 4860.84 747.53 4860.84 844.43 4876.75 844.43 4876.75 674.74 4860.84 674.74 4860.84 730.76 4799.86 730.76 4799.86 746.68 4860.84 746.68" style="fill:#b7b7b7"/><rect x="4447.8" y="730.76" width="287.65" height="15.91" style="fill:#b7b7b7"/><polygon points="4860.84 1038.42 4860.84 1039.28 4860.84 1376.28 4876.75 1376.28 4876.75 1139.61 4876.75 926.37 4860.84 926.37 4860.84 1022.61 4799.86 1022.61 4799.86 1038.42 4860.84 1038.42" style="fill:#b7b7b7"/><rect x="4447.8" y="1022.61" width="287.65" height="15.91" style="fill:#b7b7b7"/><polygon points="2956.49 1038.99 2956.49 1039.28 2957.06 1039.28 2957.06 1399.63 2972.12 1399.63 2972.12 1039.28 2972.4 1039.28 2972.4 1038.99 3009.75 1038.99 3009.75 1023.37 2948.68 1023.37 2948.68 1038.99 2956.49 1038.99" style="fill:#b7b7b7"/><polygon points="3714.06 1038.99 3714.06 1039.28 3729.97 1039.28 3729.97 1038.99 3937.39 1038.99 3937.39 1039.28 3953.3 1039.28 3953.3 1038.99 4088.31 1038.99 4088.31 1023.37 3676.14 1023.37 3676.14 1038.99 3714.06 1038.99" style="fill:#b7b7b7"/><polygon points="3643.55 731.62 3643.55 729.91 3636.02 729.91 3636.02 731.34 3636.02 731.62 3561.61 731.62 3561.61 731.34 3498.72 731.34 3498.72 535.35 3561.61 535.35 3561.61 535.16 3636.02 535.16 3636.02 535.35 3636.02 535.92 3643.55 535.92 3643.55 535.16 3648.6 535.16 3648.6 519.43 3498.72 519.43 3498.72 519.24 3483 519.24 3483 535.16 3483 705.71 3483 731.62 3483 747.53 3498.72 747.53 3498.72 747.25 3620.11 747.25 3620.11 747.53 3636.02 747.53 3636.02 747.25 3653.65 747.25 3653.65 731.62 3643.55 731.62" style="fill:#b7b7b7"/><rect x="4876.75" y="980.68" width="104.52" height="158.83" style="fill:#b7b7b7"/><rect x="4876.75" y="997.74" width="104.52" height="127.67" style="fill:url(#SVGID_27_)"/><rect x="4870.08" y="683.98" width="115.38" height="15.91" style="fill:#b7b7b7"/><rect x="4860.84" y="15.6" width="135.49" height="336.43" style="fill:#b7b7b7"/><rect x="4876.66" y="34.65" width="104.81" height="288.12" style="fill:url(#SVGID_27_)"/><polygon points="4029.91 374.61 4029.91 375.47 4008.95 375.47 4008.95 374.61 3993.03 374.61 3993.03 375.47 3953.3 375.47 3953.3 182.34 3955.4 182.34 3955.4 166.42 3953.3 166.42 3953.3 110.97 3955.4 110.97 3955.4 95.06 3953.3 95.06 3953.3 95.06 3937.39 95.06 3937.39 95.06 3807.43 95.06 3807.43 110.88 3937.87 110.88 3937.87 374.61 3937.39 374.61 3937.39 375.47 3928.72 375.47 3928.72 391.38 3937.39 391.38 3937.39 391.38 3953.3 391.38 3953.3 391.38 3993.03 391.38 3993.03 391.38 4008.95 391.38 4008.95 391.38 4030.57 391.38 4030.57 374.61 4029.91 374.61" style="fill:#b7b7b7"/><rect id="room-box" x="2972.21" y="1985.69" width="511.75" height="231.91" style="fill:url(#SVGID_27_)"/><polygon points="2769.74 2314.5 2769.74 2386.91 2854.73 2387.01 2854.73 2295.92 2854.73 1678.41 2789.08 1678.41 2789.08 1705.09 2770.22 1705.09 2770.22 1767.12 2789.08 1767.12 2789.08 2220.65 2769.65 2220.65 2769.65 2295.92 2769.74 2314.5" style="fill:#f2f2f2"/><rect x="2972.4" y="2229.99" width="235.63" height="406.18" style="stroke:#b7b7b7;stroke-miterlimit:10;stroke-width:2px;fill:url(#SVGID_27_)"/><rect x="2767.84" y="2586.71" width="79.84" height="136.44" style="stroke:#b7b7b7;stroke-miterlimit:10;stroke-width:2px;fill:url(#SVGID_27_)"/><polygon points="452.17 1430.4 452.17 2371.09 2769.17 2371.09 2769.74 2314.02 2728.77 2314.02 2632.64 2314.02 2632.45 1989.6 2775.17 1989.6 2775.17 1906.23 2630.44 1906.23 2630.44 1792.56 2770.7 1792.46 2770.7 1659.83 2856.16 1659.83 2856.07 1218.21 2856.07 747.53 2612.53 747.53 2612.53 518.77 2957.44 518.77 2957.44 241.31 2957.25 34.65 2612.72 34.65 1344.17 34.65 1344.17 519.43 1344.17 746.39 39.42 746.39 39.42 1430.4 452.17 1430.4" style="stroke:#b7b7b7;stroke-miterlimit:10;stroke-width:2px;fill:url(#SVGID_27_)"/><rect x="5015.86" y="1459.65" width="138.92" height="511.08" style="fill:url(#SVGID_27_)"/><rect x="3795.62" y="518.2" width="48.88" height="20.1" style="fill:#f2f2f2"/><rect x="3795.62" y="729.24" width="48.88" height="20.1" style="fill:#f2f2f2"/></g></g></svg>