<?xml version="1.0" encoding="utf-8"?>
<!-- Generator: Adobe Illustrator 25.2.3, SVG Export Plug-In . SVG Version: 6.00 Build 0)  -->
<svg version="1.1" id="floor-01" xmlns="http://www.w3.org/2000/svg" xmlns:xlink="http://www.w3.org/1999/xlink" x="0px" y="0px"
	 viewBox="0 0 5443.6 3040.1" style="enable-background:new 0 0 5443.6 3040.1;" xml:space="preserve">
<style type="text/css">
	.st0{fill:none;}
	.st1{clip-path:url(#SVGID_8_);}
	.st2{fill:#F2F2F2;}
	.st3{fill:none;stroke:#DDDDDD;stroke-width:20;stroke-linecap:square;stroke-linejoin:round;}
	.st4{clip-path:url(#SVGID_10_);}
	.st5{clip-path:url(#SVGID_12_);}
	.st6{clip-path:url(#SVGID_14_);}
	.st7{fill:#DDDDDD;}
	.st8{fill:#F2F2F2;stroke:#B7B7B7;stroke-width:0.25;stroke-miterlimit:10;}
	.st9{fill:#DDDDDD;stroke:#B7B7B7;stroke-miterlimit:10;}
	.st10{fill:url(#SVGID_15_);}
	.st11{fill:none;stroke:#F2F2F2;stroke-miterlimit:10;}
	.st12{fill:#FFFFFF;stroke:#303030;}
	.st13{opacity:0.4;fill:#B7B7B7;enable-background:new    ;}
	.st14{opacity:0.4;}
	.st15{fill:none;stroke:#B7B7B7;stroke-width:5;stroke-miterlimit:10;}
	.st16{fill:#B7B7B7;}
	.st17{fill:url(#SVGID_16_);}
	.st18{fill:url(#SVGID_17_);}
	.st19{fill:url(#room-box_1_);}
	.st20{fill:url(#SVGID_18_);stroke:#B7B7B7;stroke-width:2;stroke-miterlimit:10;}
	.st21{fill:url(#SVGID_19_);stroke:#B7B7B7;stroke-width:2;stroke-miterlimit:10;}
	.st22{fill:url(#SVGID_20_);stroke:#B7B7B7;stroke-width:2;stroke-miterlimit:10;}
	.st23{fill:url(#SVGID_21_);}
</style>
<pattern  y="3040.1" width="44.8" height="44.8" patternUnits="userSpaceOnUse" id="SVGID_26_" viewBox="58.8 -103.6 44.8 44.8" style="overflow:visible;">
	<g>
		<rect x="58.8" y="-103.6" class="st0" width="44.8" height="44.8"/>
		<rect x="58.8" y="-103.6" class="st0" width="44.8" height="44.8"/>
		<rect x="58.8" y="-103.6" class="st0" width="44.8" height="44.8"/>
		<rect x="58.8" y="-103.6" class="st0" width="44.8" height="44.8"/>
		<rect x="58.8" y="-103.6" class="st0" width="44.8" height="44.8"/>
		<rect x="58.8" y="-103.6" class="st0" width="44.8" height="44.8"/>
		<g>
			<defs>
				<rect id="SVGID_7_" x="58.8" y="-103.6" width="44.8" height="44.8"/>
			</defs>
			<clipPath id="SVGID_8_">
				<use xlink:href="#SVGID_7_"  style="overflow:visible;"/>
			</clipPath>
			<g class="st1">
				<rect x="14.9" y="-145.2" class="st2" width="47.1" height="45.6"/>
				<line class="st3" x1="58.8" y1="-103.6" x2="14.1" y2="-148.4"/>
				<rect x="59.6" y="-145.2" class="st2" width="47.1" height="45.6"/>
				<line class="st3" x1="103.6" y1="-103.6" x2="58.8" y2="-148.4"/>
				<line class="st3" x1="148.4" y1="-103.6" x2="103.6" y2="-148.4"/>
				<rect x="14.9" y="-100.5" class="st2" width="47.1" height="45.6"/>
				<line class="st3" x1="58.8" y1="-58.8" x2="14.1" y2="-103.6"/>
				<rect x="59.6" y="-100.5" class="st2" width="47.1" height="45.6"/>
				<line class="st3" x1="103.6" y1="-58.8" x2="58.8" y2="-103.6"/>
				<line class="st3" x1="148.4" y1="-58.8" x2="103.6" y2="-103.6"/>
				<line class="st3" x1="58.8" y1="-14.1" x2="14.1" y2="-58.8"/>
				<line class="st3" x1="103.6" y1="-14.1" x2="58.8" y2="-58.8"/>
				<line class="st3" x1="148.4" y1="-14.1" x2="103.6" y2="-58.8"/>
			</g>
		</g>
	</g>
</pattern>
<pattern  y="3040.1" width="44.8" height="44.8" patternUnits="userSpaceOnUse" id="SVGID_27_" viewBox="58.9 -103.7 44.8 44.8" style="overflow:visible;">
	<g>
		<rect x="58.9" y="-103.7" class="st0" width="44.8" height="44.8"/>
		<rect x="58.9" y="-103.7" class="st0" width="44.8" height="44.8"/>
		<rect x="58.9" y="-103.7" class="st0" width="44.8" height="44.8"/>
		<rect x="58.9" y="-103.7" class="st0" width="44.8" height="44.8"/>
		<rect x="58.9" y="-103.7" class="st0" width="44.8" height="44.8"/>
		<rect x="58.9" y="-103.7" class="st0" width="44.8" height="44.8"/>
		<g>
			<defs>
				<rect id="SVGID_9_" x="58.9" y="-148.6" width="44.8" height="44.8"/>
			</defs>
			<clipPath id="SVGID_10_">
				<use xlink:href="#SVGID_9_"  style="overflow:visible;"/>
			</clipPath>
			<g class="st4">
				<rect x="58.9" y="-148.5" class="st0" width="44.8" height="44.8"/>
				<rect x="58.9" y="-148.5" class="st0" width="44.8" height="44.8"/>
				<rect x="17.3" y="-107" class="st2" width="45.6" height="47.1"/>
				<line class="st3" x1="58.9" y1="-103.7" x2="14.1" y2="-59"/>
				<line class="st3" x1="58.9" y1="-148.5" x2="14.1" y2="-103.7"/>
				<rect x="62" y="-107" class="st2" width="45.6" height="47.1"/>
				<line class="st3" x1="103.7" y1="-103.7" x2="58.9" y2="-59"/>
				<line class="st3" x1="103.7" y1="-148.5" x2="58.9" y2="-103.7"/>
				<line class="st3" x1="148.4" y1="-103.7" x2="103.7" y2="-59"/>
				<line class="st3" x1="148.4" y1="-148.5" x2="103.7" y2="-103.7"/>
			</g>
		</g>
		<g>
			<defs>
				<rect id="SVGID_11_" x="58.9" y="-103.8" width="44.8" height="44.8"/>
			</defs>
			<clipPath id="SVGID_12_">
				<use xlink:href="#SVGID_11_"  style="overflow:visible;"/>
			</clipPath>
			<g class="st5">
				<rect x="58.9" y="-103.7" class="st0" width="44.8" height="44.8"/>
				<rect x="58.9" y="-103.7" class="st0" width="44.8" height="44.8"/>
				<rect x="17.3" y="-62.2" class="st2" width="45.6" height="47.1"/>
				<line class="st3" x1="58.9" y1="-58.9" x2="14.1" y2="-14.2"/>
				<rect x="17.3" y="-106.8" class="st2" width="45.6" height="47.1"/>
				<line class="st3" x1="58.9" y1="-103.7" x2="14.1" y2="-58.9"/>
				<line class="st3" x1="58.9" y1="-148.5" x2="14.1" y2="-103.7"/>
				<rect x="62" y="-62.2" class="st2" width="45.6" height="47.1"/>
				<line class="st3" x1="103.7" y1="-58.9" x2="58.9" y2="-14.2"/>
				<rect x="62" y="-106.8" class="st2" width="45.6" height="47.1"/>
				<line class="st3" x1="103.7" y1="-103.7" x2="58.9" y2="-58.9"/>
				<line class="st3" x1="103.7" y1="-148.5" x2="58.9" y2="-103.7"/>
				<line class="st3" x1="148.4" y1="-58.9" x2="103.7" y2="-14.2"/>
				<line class="st3" x1="148.4" y1="-103.7" x2="103.7" y2="-58.9"/>
				<line class="st3" x1="148.4" y1="-148.5" x2="103.7" y2="-103.7"/>
			</g>
		</g>
		<g>
			<defs>
				<rect id="SVGID_13_" x="58.9" y="-59" width="44.8" height="44.8"/>
			</defs>
			<clipPath id="SVGID_14_">
				<use xlink:href="#SVGID_13_"  style="overflow:visible;"/>
			</clipPath>
			<g class="st6">
				<rect x="17.3" y="-62" class="st2" width="45.6" height="47.1"/>
				<line class="st3" x1="58.9" y1="-58.9" x2="14.1" y2="-14.1"/>
				<line class="st3" x1="58.9" y1="-103.7" x2="14.1" y2="-58.9"/>
				<rect x="62" y="-62" class="st2" width="45.6" height="47.1"/>
				<line class="st3" x1="103.7" y1="-58.9" x2="58.9" y2="-14.1"/>
				<line class="st3" x1="103.7" y1="-103.7" x2="58.9" y2="-58.9"/>
				<line class="st3" x1="148.4" y1="-58.9" x2="103.7" y2="-14.1"/>
				<line class="st3" x1="148.4" y1="-103.7" x2="103.7" y2="-58.9"/>
			</g>
		</g>
	</g>
</pattern>
<g id="a1--1">
	<g class="clickable" id="A1--1-25">
		<rect id="room-box-2" x="3499.7" y="1039.3" class="st2" width="776.7" height="405.5"/>
	</g>
	<g class="clickable" id="A1--1-21">
		<rect id="room-box-3" x="3088.1" y="1831.2" class="st7" width="394.9" height="139.4"/>
	</g>
	<g class="clickable" id="A1--1-31">
		<rect id="room-box-4" x="2769.3" y="2371.1" class="st2" width="186.9" height="200.7"/>
	</g>
	<rect id="room-box-5" x="2862.5" y="2571.9" class="st2" width="93.7" height="260.9"/>
	<g class="clickable" id="A1--1-22">
		<rect id="room-box-6" x="3088.1" y="1645.4" class="st7" width="394.9" height="170.6"/>
	</g>
	<g class="clickable" id="A1--1-19">
		<rect id="room-box-7" x="2972.1" y="1901.3" class="st7" width="100.3" height="69.4"/>
	</g>
	<g class="clickable" id="A1--1-18">
		<rect id="room-box-8" x="2972.1" y="1645.4" class="st7" width="100.3" height="79.5"/>
	</g>
	<g class="clickable" id="A1--1-17">
		<rect id="room-box-9" x="2972.1" y="1039.3" class="st7" width="510.9" height="590.3"/>
	</g>
	<g class="clickable" id="A1--1-41">
		<rect id="room-box-10" x="2870.9" y="1023.4" class="st2" width="86.1" height="1363.6"/>
	</g>
	<g class="clickable" id="A1--1-01">
		<rect id="room-box-11" x="2871.8" y="747.5" class="st8" width="1420.6" height="275.9"/>
	</g>
	<rect id="room-box-12" x="3758.1" y="519.2" class="st8" width="127.1" height="228.3"/>
	<rect id="room-box-13" x="4157.8" y="519.2" class="st8" width="118.7" height="228.3"/>
	<g class="clickable" id="A1--1-40">
		<rect id="room-box-14" x="3619.4" y="535.2" class="st2" width="122.8" height="196.5"/>
	</g>
	<g class="clickable" id="A1--1-04">
		<rect id="room-box-15" x="3952.1" y="34.8" class="st7" width="324.4" height="340.6"/>
	</g>
	<g class="clickable" id="A1--1-05">
		<rect id="room-box-16" x="3729.7" y="111" class="st7" width="208.2" height="265"/>
	</g>
	<rect id="room-box-17" x="3729.7" y="35.2" class="st9" width="222.7" height="60.1"/>
	<g class="clickable" id="A1--1-07">
		<rect id="room-box-19" x="3498.9" y="182" class="st7" width="87.8" height="193.5"/>
	</g>
	<g class="clickable" id="A1--1-09">
		<rect id="room-box-20" x="3269.2" y="182" class="st7" width="213.9" height="193.5"/>
	</g>
	<g class="clickable" id="A1--1-10">
		<rect id="room-box-21" x="2972" y="34.8" class="st7" width="281" height="484.4"/>
	</g>
	<g id="senza_codice">
		<pattern  id="SVGID_15_" xlink:href="#SVGID_26_" patternTransform="matrix(-0.63 0 0 0.63 -14792.2236 -2143.708)">
		</pattern>
		<polygon class="st10" points="3602.6,166.1 3602.6,375.9 3714.4,375.9 3714.4,34.8 3602.6,34.8 3602.6,34.8 3483,34.8 3483,34.9 
			3269.2,34.9 3269.2,166.8 3483,166.8 		"/>
	</g>
	<rect id="room-box-24" x="3498.9" y="535.5" class="st2" width="120.8" height="195.6"/>
	<g class="clickable" id="A1--1-02">
		<rect id="room-box-25" x="4292.3" y="1039.3" class="st7" width="568.5" height="931.4"/>
	</g>
	<rect id="room-box-26" x="4292.3" y="747.5" class="st2" width="568.5" height="275.1"/>
	<g class="clickable" id="A1--1-03">
		<rect id="room-box-27" x="4292.3" y="34.8" class="st7" width="568.5" height="695.9"/>
	</g>
	<g class="clickable" id="A1--1-33">
		<rect id="room-box-28" x="2646.1" y="1811.3" class="st2" width="143" height="75.9"/>
	</g>
	<g class="clickable" data-building-code="P1" id="A1--1-P1--1" data-floor-code="-1" >
		<rect id="room-box-29" x="2830" y="2865.6" class="st11" width="157.8" height="170.2"/>
		<path class="st12" d="M2908.9,2903.3c-26.2-0.1-47.4,21.1-47.5,47.2l0,0v0.1c0,26.3,21.3,47.6,47.6,47.6
			c26.3,0,47.6-21.3,47.6-47.5l0,0C2956.4,2924.5,2935.1,2903.3,2908.9,2903.3"/>
		<path d="M2901.6,2956.3h5.6c8.4,0,11.8-3.4,11.8-9.7c0-5.3-3.1-9.1-11.5-9.1h-5.8L2901.6,2956.3z M2896,2980.2v-47.4h11.9
			c9.5,0,16.8,4.6,16.8,13.7s-6.5,14.6-17.5,14.6h-5.6v19.1L2896,2980.2z M2938.5,2936l-29.5-10.8l-29.7,10.8l-1.3-3.6l31-11.1
			l31,11.2L2938.5,2936z"/>
	</g>
	<rect id="room-box-30" x="3498.5" y="2247.3" class="st11" width="779.2" height="170.2"/>
	<rect id="room-box-31" x="3499.7" y="1444.8" class="st2" width="776.7" height="801.8"/>
	<path id="stairs-fixed" class="st13" d="M4246.4,2246.6h32.6v-800.9h-66.8v800.9H4246.4z M4246.4,2235.8h26.6l-26.6,8.8
		L4246.4,2235.8z M4244.7,2244.6l-26.5-8.8h26.5V2244.6z M4250.8,2244.9l26.5-8.7v8.7H4250.8z M4277.2,2234.1h-31v-9.1h31V2234.1z
		 M4277.2,2223.2h-31v-9.1h31V2223.2z M4277.2,2212.4h-31v-9.1h31V2212.4z M4277.2,2201.6h-31v-9.1h31V2201.6z M4277.2,2190.8h-31
		v-9.1h31V2190.8z M4277.2,2180h-31v-9.1h31V2180z M4277.2,2169.1h-31v-9.1h31V2169.1z M4277.2,2158.3h-31v-9.1h31V2158.3z
		 M4277.2,2147.5h-31v-9h31V2147.5z M4277.2,2136.7h-31v-9.1h31V2136.7z M4277.2,2125.9h-31v-9.1h31V2125.9z M4277.2,2115.2h-31
		v-8.7h31V2115.2z M4277.2,2104.2h-31v-8.6h31V2104.2z M4277.2,2093.9h-31v-9.1h31V2093.9z M4277.2,2083.1h-31v-9.1h31V2083.1z
		 M4277.2,2072.2h-31v-9.1h31V2072.2z M4277.2,2061.4h-31v-9.1h31V2061.4z M4277.2,2050.6h-31v-9.2h31V2050.6z M4277.2,2039.8h-31
		v-9.1h31V2039.8z M4277.2,2029h-31v-9h31V2029z M4277.2,2018.2h-31v-9.1h31V2018.2z M4277.2,2007.4h-31v-9.1h31V2007.4z
		 M4277.2,1996.5h-31v-9h31V1996.5z M4246.4,1985.7v-9.1h31v9.1H4246.4z M4277.2,1974.5h-31v-9.2h31V1974.5z M4277.2,1963.7h-31v-9
		h31V1963.7z M4277.2,1952.9h-31v-9.1h31V1952.9z M4277.2,1942.1h-31v-9.1h31V1942.1z M4277.2,1931.2h-31v-9.2h31V1931.2z
		 M4277.2,1920.5h-31v-9.2h31V1920.5z M4277.2,1909.6h-31v-9.1h31V1909.6z M4277.2,1898.8h-31v-9.2h31V1898.8z M4277.2,1888h-31
		v-9.2h31V1888z M4277.2,1877.2h-31v-9.2h31V1877.2z M4277.2,1866.3h-31v-9.2h31V1866.3z M4277.2,1855.6h-31v-8.6h31V1855.6z
		 M4277.2,1844.7h-31v-8.7h31V1844.7z M4277.2,1834.3h-31v-9.1h31V1834.3z M4277.2,1823.6h-31v-9.2h31V1823.6z M4277.2,1812.8h-31
		v-9.1h31V1812.8z M4277.2,1801.9h-31v-9.2h31V1801.9z M4277.2,1791.2h-31v-9.1h31V1791.2z M4277.2,1780.3h-31v-9h31V1780.3z
		 M4277.2,1769.5h-31v-9.2h31V1769.5z M4277.2,1758.7h-31v-9.1h31V1758.7z M4277.2,1747.9h-31v-9.2h31V1747.9z M4277.2,1737.1h-31
		v-9.1h31V1737.1z M4277.2,1726.3h-31v-8.7h31V1726.3z M4277.2,1715.3h-31v-8.6h31V1715.3z M4277.2,1705h-31v-9h31V1705z
		 M4277.2,1694.2h-31v-9.1h31V1694.2z M4277.2,1683.4h-31v-9h31V1683.4z M4277.2,1672.6h-31v-9.2h31V1672.6z M4277.2,1661.7h-31
		v-9.1h31V1661.7z M4277.2,1651h-31v-9h31V1651z M4277.2,1640.1h-31v-9.2h31V1640.1z M4277.2,1629.3h-31v-9.2h31V1629.3z
		 M4277.2,1618.5h-31v-9.2h31V1618.5z M4277.2,1607.7h-31v-9.2h31V1607.7z M4277.2,1596.9h-31v-8.7h31V1596.9z M4277.2,1586.1h-31
		v-8.7h31V1586.1z M4277.2,1575.7h-31v-9h31V1575.7z M4277.2,1564.9h-31v-9.2h31V1564.9z M4277.2,1554.1h-31v-9.1h31V1554.1z
		 M4277.2,1543.3h-31v-9.1h31V1543.3z M4277.2,1532.4h-31v-9.2h31V1532.4z M4277.2,1521.7h-31v-9h31V1521.7z M4277.2,1510.8h-31
		v-9.1h31V1510.8z M4277.2,1500.1h-31v-9.1h31V1500.1z M4277.2,1489.2h-31v-9.1h31V1489.2z M4277.2,1478.4h-31v-9.2h31V1478.4z
		 M4246.4,1467.6v-9.1h31v9.2L4246.4,1467.6z M4246.4,1447.3h31v9.1h-31V1447.3z M4213.7,1447.3h31v9.1h-31V1447.3z M4213.7,1458.5
		h31v9.2h-31V1458.5z M4213.7,1469.3h31v9.2h-31V1469.3z M4213.7,1480.1h31v9.2h-31V1480.1z M4213.7,1490.9h31v9.2h-31V1490.9z
		 M4213.7,1501.8h31v9.2h-31V1501.8z M4213.7,1512.5h31v9.1h-31V1512.5z M4213.7,1523.4h31v9.2h-31V1523.4z M4213.7,1534.2h31v9.1
		h-31V1534.2z M4213.7,1545h31v9.1h-31V1545z M4213.7,1555.8h31v9.2h-31V1555.8z M4213.7,1566.7h31v9.1h-31V1566.7z M4213.7,1577.4
		h31v8.7h-31V1577.4z M4213.7,1588.3h31v8.7h-31V1588.3z M4213.7,1598.6h31v9.2h-31V1598.6z M4213.7,1609.4h31v9.1h-31V1609.4z
		 M4213.7,1620.2h31v9.2h-31V1620.2z M4213.7,1631.1h31v9.2h-31V1631.1z M4213.7,1641.8h31v9.2h-31V1641.8z M4213.7,1652.7h31v9.2
		h-31V1652.7z M4213.7,1663.5h31v9.2h-31V1663.5z M4213.7,1674.3h31v9.2h-31V1674.3z M4213.7,1685.1h31v9.1h-31V1685.1z
		 M4213.7,1695.9h31v9.2h-31V1695.9z M4213.7,1706.7h31v8.6h-31V1706.7z M4213.7,1717.6h31v8.7h-31V1717.6z M4213.7,1727.9h31v9.2
		h-31V1727.9z M4213.7,1738.7h31v9.3h-31V1738.7z M4213.7,1749.6h31v9.2h-31V1749.6z M4213.7,1760.4h31v9.2h-31V1760.4z
		 M4213.7,1771.1h31v9.1h-31V1771.1z M4213.7,1782h31v9.1h-31V1782z M4213.7,1792.7h31v9.3h-31V1792.7z M4213.7,1803.6h31v9.1h-31
		V1803.6z M4213.7,1814.4h31v9.2h-31V1814.4z M4213.7,1825.2h31v9.2h-31V1825.2z M4213.7,1836h31v8.7h-31V1836z M4213.7,1846.9h31
		v8.7h-31V1846.9z M4213.7,1857.3h31v9.2h-31V1857.3z M4213.7,1868h31v9.2h-31V1868z M4213.7,1878.9h31v9.1h-31V1878.9z
		 M4213.7,1889.6h31v9.2h-31V1889.6z M4213.7,1900.5h31v9.2h-31V1900.5z M4213.7,1911.3h31v9.2h-31V1911.3z M4213.7,1922.1h31v9.2
		h-31V1922.1z M4213.7,1932.9h31v9.2h-31V1932.9z M4213.7,1943.8h31v9.2h-31V1943.8z M4213.7,1954.5h31v9.2h-31V1954.5z
		 M4244.7,1965.4v9.2h-31v-9.2H4244.7z M4213.7,1976.5h31v9.1h-31V1976.5z M4213.7,1987.4h31v9h-31V1987.4z M4213.7,1998.2h31v9.1
		h-31V1998.2z M4213.7,2009h31v9.1h-31V2009z M4213.7,2019.9h31v9h-31V2019.9z M4213.7,2030.7h31v9.1h-31V2030.7z M4213.7,2041.4h31
		v9.2h-31V2041.4z M4213.7,2052.2h31v9.1h-31V2052.2z M4213.7,2063.2h31v9.1h-31V2063.2z M4213.7,2073.9h31v9.1h-31V2073.9z
		 M4213.7,2084.7h31v9.1h-31V2084.7z M4213.7,2095.6h31v8.6h-31V2095.6z M4213.7,2106.4h31v8.7h-31V2106.4z M4213.7,2116.7h31v9.1
		h-31V2116.7z M4213.7,2127.6h31v9.1h-31V2127.6z M4213.7,2138.4h31v9.1h-31V2138.4z M4213.7,2149.1h31v9.1h-31V2149.1z
		 M4213.7,2160h31v9.1h-31V2160z M4213.7,2170.9h31v9.1h-31V2170.9z M4213.7,2181.6h31v9.1h-31V2181.6z M4213.7,2192.4h31v9.1h-31
		V2192.4z M4213.7,2203.3h31v9.1h-31V2203.3z M4213.7,2214.1h31v9.1h-31V2214.1z M4213.7,2224.9h31v9.1h-31V2224.9z M4213.7,2236
		l26.5,8.8h-26.5L4213.7,2236z"/>
	<path id="stairs-fixed-2" class="st13" d="M3564.8,2245.7h67.2v-800.9h-133.8v800.9H3564.8z M3565.9,2234.8h55l-55,9V2234.8z
		 M3564.1,2243.9l-54.7-9h54.7V2243.9z M3575.6,2244l54.6-8.9v9L3575.6,2244z M3630.2,2233.2h-64.3v-9.1h64.3V2233.2z
		 M3630.2,2222.4h-64.3v-9.1h64.3V2222.4z M3630.2,2211.6h-64.3v-9.1h64.3V2211.6z M3630.2,2200.7h-64.3v-9.1h64.3V2200.7z
		 M3630.2,2190h-64.3v-9.1h64.3V2190z M3630.2,2179.1h-64.3v-9.1h64.3V2179.1z M3630.2,2168.3h-64.3v-9.1h64.3V2168.3z
		 M3630.2,2157.5h-64.3v-9.1h64.3V2157.5z M3630.2,2146.6h-64.3v-9.1h64.3V2146.6z M3630.2,2135.8h-64.3v-9.1h64.3V2135.8z
		 M3630.2,2125.1h-64.3v-9.1h64.3V2125.1z M3630.2,2114.1h-64.3v-8.6h64.3V2114.1z M3630.2,2103.4h-64.3v-8.7h64.3V2103.4z
		 M3630.2,2093.1h-64.3v-9.1h64.3V2093.1z M3630.2,2082.2h-64.3v-9.1h64.3V2082.2z M3630.2,2071.4h-64.3v-9.1h64.3V2071.4z
		 M3630.2,2060.6h-64.3v-9.1h64.3V2060.6z M3630.2,2049.8h-64.3v-9.1h64.3V2049.8z M3630.2,2038.9h-64.3v-9h64.3V2038.9z
		 M3630.2,2028.2h-64.3v-9.2h64.3V2028.2z M3630.2,2017.3h-64.3v-9.1h64.3V2017.3z M3630.2,2006.5h-64.3v-9h64.3V2006.5z
		 M3630.2,1995.7h-64.3v-9.1h64.3V1995.7z M3565.9,1984.9v-9h64.3v9.1L3565.9,1984.9z M3630.2,1973.7h-64.3v-9h64.3V1973.7z
		 M3630.2,1962.8h-64.3v-9.1h64.3V1962.8z M3630.2,1952.1h-64.3v-9.1h64.3V1952.1z M3630.2,1941.2h-64.3v-9.1h64.3V1941.2z
		 M3630.2,1930.4h-64.3v-9.2h64.3V1930.4z M3630.2,1919.6h-64.3v-9.2h64.3V1919.6z M3630.2,1908.8h-64.3v-9.2h64.3V1908.8z
		 M3630.2,1897.9h-64.3v-9h64.3V1897.9z M3630.2,1887.2h-64.3v-9.2h64.3V1887.2z M3630.2,1876.3h-64.3v-9.2h64.3V1876.3z
		 M3630.2,1865.5h-64.3v-9h64.3V1865.5z M3630.2,1854.7h-64.3v-8.7h64.3V1854.7z M3630.2,1843.9h-64.3v-8.7h64.3V1843.9z
		 M3630.2,1833.5h-64.3v-9.2h64.3V1833.5z M3630.2,1822.8h-64.3v-9h64.3V1822.8z M3630.2,1811.9h-64.3v-9.2h64.3V1811.9z
		 M3630.2,1801.1h-64.3v-9.1h64.3V1801.1z M3630.2,1790.3h-64.3v-9.2h64.3V1790.3z M3630.2,1779.5h-64.3v-9.1h64.3V1779.5z
		 M3630.2,1768.6h-64.3v-9.1h64.3V1768.6z M3630.2,1757.9h-64.3v-9.2h64.3V1757.9z M3630.2,1747h-64.3v-9.1h64.3V1747z
		 M3630.2,1736.2h-64.3v-9.2h64.3V1736.2z M3630.2,1725.4h-64.3v-8.7h64.3V1725.4z M3630.2,1714.6h-64.3v-8.6h64.3V1714.6z
		 M3630.2,1704.2h-64.3v-9.1h64.3V1704.2z M3630.2,1693.5h-64.3v-9.2h64.3V1693.5z M3630.2,1682.6h-64.3v-9.1h64.3V1682.6z
		 M3630.2,1671.7h-64.3v-9.1h64.3V1671.7z M3630.2,1661h-64.3v-9.2h64.3V1661z M3630.2,1650.2h-64.3v-9.2h64.3V1650.2z
		 M3630.2,1639.3h-64.3v-9h64.3V1639.3z M3630.2,1628.6h-64.3v-9.1h64.3V1628.6z M3630.2,1617.7h-64.3v-9h64.3V1617.7z
		 M3630.2,1606.9h-64.3v-9.1h64.3V1606.9z M3630.2,1596.1h-64.3v-8.7h64.3V1596.1z M3630.2,1585.3h-64.3v-8.7h64.3V1585.3z
		 M3630.2,1574.9h-64.3v-9h64.3V1574.9z M3630.2,1564.1h-64.3v-9h64.3V1564.1z M3630.2,1553.3h-64.3v-9.2h64.3V1553.3z
		 M3630.2,1542.4h-64.3v-9.2h64.3V1542.4z M3630.2,1531.7h-64.3v-9.1h64.3V1531.7z M3630.2,1520.8h-64.3v-9.2h64.3V1520.8z
		 M3630.2,1510h-64.3v-9h64.3V1510z M3630.2,1499.2h-64.3v-9.1h64.3V1499.2z M3630.2,1488.4h-64.3v-9.2h64.3V1488.4z M3630.2,1477.6
		h-64.3v-9.1h64.3V1477.6z M3565.9,1466.8v-9.2h64.3v9.2H3565.9z M3565.9,1446.4h64.3v9.1h-64.3V1446.4z M3499.8,1446.4h64.3v9.1
		h-64.3V1446.4z M3499.8,1457.6h64.3v9.2h-64.3V1457.6z M3499.8,1468.5h64.3v9.2h-64.3V1468.5z M3499.8,1479.3h64.3v9.2h-64.3
		V1479.3z M3499.8,1490.1h64.3v9.2h-64.3V1490.1z M3499.8,1500.9h64.3v9h-64.3V1500.9z M3499.8,1511.8h64.3v9.2h-64.3V1511.8z
		 M3499.8,1522.5h64.3v9.1h-64.3V1522.5z M3499.8,1533.4h64.3v9.2h-64.3V1533.4z M3499.8,1544.2h64.3v9.2h-64.3V1544.2z
		 M3499.8,1555h64.3v9.1h-64.3V1555z M3499.8,1565.9h64.3v9h-64.3V1565.9z M3499.8,1576.6h64.3v8.7h-64.3V1576.6z M3499.8,1587.4
		h64.3v8.7h-64.3V1587.4z M3499.8,1597.8h64.3v9.2h-64.3V1597.8z M3499.8,1608.6h64.3v9.2h-64.3V1608.6z M3499.8,1619.4h64.3v9.1
		h-64.3V1619.4z M3499.8,1630.2h64.3v9.2h-64.3V1630.2z M3499.8,1641.1h64.3v9.2h-64.3V1641.1z M3499.8,1651.8h64.3v9.2h-64.3
		V1651.8z M3499.8,1662.7h64.3v9.2h-64.3V1662.7z M3499.8,1673.5h64.3v9.1h-64.3V1673.5z M3499.8,1684.3h64.3v9.2h-64.3V1684.3z
		 M3499.8,1695.1h64.3v9.1h-64.3V1695.1z M3499.8,1705.9h64.3v8.7h-64.3V1705.9z M3499.8,1716.7h64.3v8.7h-64.3V1716.7z
		 M3499.8,1727.1h64.3v9.2h-64.3V1727.1z M3499.8,1738h64.3v9.2h-64.3V1738z M3499.8,1748.7h64.3v9.2h-64.3V1748.7z M3499.8,1759.6
		h64.3v9.2h-64.3V1759.6z M3499.8,1770.4h64.3v9.1h-64.3V1770.4z M3499.8,1781.2h64.3v9.2h-64.3V1781.2z M3499.8,1792h64.3v9.1
		h-64.3V1792z M3499.8,1802.8h64.3v9.2h-64.3V1802.8z M3499.8,1813.6h64.3v9.2h-64.3V1813.6z M3499.8,1824.5h64.3v9.1h-64.3V1824.5z
		 M3499.8,1835.2h64.3v8.7h-64.3V1835.2z M3499.8,1846.1h64.3v8.7h-64.3V1846.1z M3499.8,1856.4h64.3v9.1h-64.3V1856.4z
		 M3499.8,1867.3h64.3v9.1h-64.3V1867.3z M3499.8,1878h64.3v9.2h-64.3V1878z M3499.8,1888.9h64.3v9.1h-64.3V1888.9z M3499.8,1899.6
		h64.3v9.2h-64.3V1899.6z M3499.8,1910.5h64.3v9.2h-64.3V1910.5z M3499.8,1921.3h64.3v9.2h-64.3V1921.3z M3499.8,1932.1h64.3v9.2
		h-64.3V1932.1z M3499.8,1942.9h64.3v9.2h-64.3V1942.9z M3499.8,1953.8h64.3v9.2h-64.3V1953.8z M3564.1,1964.6v9h-64.3v-9H3564.1z
		 M3499.8,1975.8h64.3v9.2h-64.3V1975.8z M3499.8,1986.5h64.3v9.2h-64.3V1986.5z M3499.8,1997.4h64.3v9h-64.3V1997.4z
		 M3499.8,2008.3h64.3v9.2h-64.3V2008.3z M3499.8,2019h64.3v9.1h-64.3V2019z M3499.8,2029.9h64.3v9.2h-64.3V2029.9z M3499.8,2040.7
		h64.3v9.1h-64.3V2040.7z M3499.8,2051.5h64.3v9.1h-64.3V2051.5z M3499.8,2062.3h64.3v9.1h-64.3V2062.3z M3499.8,2073.2h64.3v9.1
		h-64.3V2073.2z M3499.8,2083.9h64.3v9.1h-64.3V2083.9z M3499.8,2094.8h64.3v8.7h-64.3V2094.8z M3499.8,2105.5h64.3v8.6h-64.3
		V2105.5z M3499.8,2115.9h64.3v9.1h-64.3V2115.9z M3499.8,2126.7h64.3v9.1h-64.3V2126.7z M3499.8,2137.6h64.3v9.1h-64.3V2137.6z
		 M3499.8,2148.4h64.3v9.1h-64.3V2148.4z M3499.8,2159.2h64.3v9.1h-64.3V2159.2z M3499.8,2170h64.3v9.1h-64.3V2170z M3499.8,2180.8
		h64.3v9.2h-64.3V2180.8z M3499.8,2191.6h64.3v9.1h-64.3V2191.6z M3499.8,2202.3h64.3v9.1h-64.3V2202.3z M3499.8,2213.2h64.3v9.1
		h-64.3V2213.2z M3499.8,2224.1h64.3v9.1h-64.3V2224.1z M3499.8,2235.1l54.6,8.9h-54.6V2235.1z"/>
	<g class="clickable" id="A1--1-39">
		<g id="scale" class="st14">
			<line class="st15" x1="4141.9" y1="730.5" x2="4141.9" y2="537.2"/>
			<polyline class="st15" points="4141.9,537.2 3909.5,537.2 3909.5,624.3 4064.7,624.3 4064.7,645.3 3909.5,645.3 3909.5,730.5 
				4141.9,730.5 			"/>
			<polyline class="st15" points="3909.8,579.2 4096.6,579.2 4096.6,686.5 3909.7,686.5 			"/>
			<line class="st15" x1="4034.4" y1="536.5" x2="4034.4" y2="625.1"/>
			<line class="st15" x1="4048.8" y1="536.5" x2="4048.8" y2="625.1"/>
			<line class="st15" x1="4062.5" y1="536.5" x2="4062.5" y2="625.1"/>
			<line class="st15" x1="4020.3" y1="625.1" x2="4020.3" y2="536.5"/>
			<line class="st15" x1="4062.5" y1="645.3" x2="4062.5" y2="730.5"/>
			<line class="st15" x1="4048.8" y1="645.3" x2="4048.8" y2="730.5"/>
			<line class="st15" x1="4034.4" y1="645.3" x2="4034.4" y2="730.5"/>
			<line class="st15" x1="4020.3" y1="645.3" x2="4020.3" y2="730.5"/>
			<line class="st15" x1="4006.3" y1="645.3" x2="4006.3" y2="730.5"/>
			<line class="st15" x1="3992.6" y1="645.3" x2="3992.6" y2="730.5"/>
			<line class="st15" x1="3978.7" y1="645.3" x2="3978.7" y2="730.5"/>
			<line class="st15" x1="3936.4" y1="645.3" x2="3936.4" y2="730.5"/>
			<line class="st15" x1="3923.2" y1="645.3" x2="3923.2" y2="730.5"/>
			<polyline class="st15" points="3922,730.5 3909.3,686.6 3922.3,645.8 			"/>
			<polyline class="st15" points="3922.7,645.3 3907.2,645.3 3907.2,624.2 3951,624.2 			"/>
			<line class="st15" x1="3964.8" y1="536.5" x2="3964.8" y2="625.1"/>
			<line class="st15" x1="3992.6" y1="536.5" x2="3992.6" y2="625.1"/>
			<line class="st15" x1="3978.7" y1="536.5" x2="3978.7" y2="625.1"/>
			<line class="st15" x1="4006.6" y1="536.5" x2="4006.6" y2="625.1"/>
			<line class="st15" x1="3951" y1="536.5" x2="3951" y2="625.1"/>
			<line class="st15" x1="3937.1" y1="536.5" x2="3937.1" y2="625.1"/>
			<line class="st15" x1="3923.2" y1="536.5" x2="3923.2" y2="625.1"/>
			<line class="st15" x1="3965" y1="645.3" x2="3965" y2="730.5"/>
			<line class="st15" x1="3950.8" y1="645.3" x2="3950.8" y2="730.5"/>
		</g>
		<rect id="room-box-32" x="3900.5" y="536.5" class="st0" width="241.3" height="194.5"/>
	</g>
	<g id="a1-scale-B">
		<rect id="room-box-33" x="2626.6" y="535.2" class="st2" width="245.1" height="196.3"/>
		<g id="scale-2" class="st14">
			<polyline class="st15" points="2824.4,646.4 2629.3,646.4 2629.3,731.6 2824.8,731.6 			"/>
			<line class="st15" x1="2823.4" y1="687.7" x2="2629.5" y2="687.7"/>
			<line class="st15" x1="2788" y1="646.4" x2="2788" y2="731.6"/>
			<line class="st15" x1="2773.7" y1="646.4" x2="2773.7" y2="731.6"/>
			<line class="st15" x1="2758.9" y1="646.4" x2="2758.9" y2="731.6"/>
			<line class="st15" x1="2744.2" y1="646.4" x2="2744.2" y2="731.6"/>
			<line class="st15" x1="2729.6" y1="646.4" x2="2729.6" y2="731.6"/>
			<line class="st15" x1="2715.4" y1="646.4" x2="2715.4" y2="731.6"/>
			<line class="st15" x1="2701.1" y1="646.4" x2="2701.1" y2="731.6"/>
			<line class="st15" x1="2657.3" y1="646.4" x2="2657.3" y2="731.6"/>
			<line class="st15" x1="2643.5" y1="646.4" x2="2643.5" y2="731.6"/>
			<polyline class="st15" points="2642.3,731.6 2629.1,687.8 2642.6,646.9 			"/>
			<line class="st15" x1="2686.9" y1="646.4" x2="2686.9" y2="731.6"/>
			<line class="st15" x1="2672.2" y1="646.4" x2="2672.2" y2="731.6"/>
		</g>
	</g>
	<g class="clickable" id="A1--1-32">
		<polygon id="room-box-34" class="st2" points="2774.2,2295.9 2774.2,2295.5 2774.2,2184.2 2774.2,2007.9 2646.4,2007.9 
			2646.4,2295.9 		"/>
		<g id="scale-3" class="st14">
			<line class="st15" x1="2774.2" y1="2007.9" x2="2646.6" y2="2007.9"/>
			<polyline class="st15" points="2646.6,2007.9 2646.6,2218.5 2704.1,2218.5 2704.1,2077.8 2718,2077.8 2718,2218.5 2774.2,2218.5 
				2774.2,2007.9 			"/>
			<polyline class="st15" points="2674.3,2218.2 2674.3,2048.9 2745.3,2048.9 2745.3,2218.4 			"/>
			<line class="st15" x1="2646.1" y1="2105.3" x2="2704.6" y2="2105.3"/>
			<line class="st15" x1="2646.1" y1="2092.2" x2="2704.6" y2="2092.2"/>
			<line class="st15" x1="2646.1" y1="2079.8" x2="2704.6" y2="2079.8"/>
			<line class="st15" x1="2704.6" y1="2118" x2="2646.1" y2="2118"/>
			<line class="st15" x1="2718" y1="2079.8" x2="2774.2" y2="2079.8"/>
			<line class="st15" x1="2718" y1="2092.2" x2="2774.2" y2="2092.2"/>
			<line class="st15" x1="2718" y1="2105.3" x2="2774.2" y2="2105.3"/>
			<line class="st15" x1="2718" y1="2118" x2="2774.2" y2="2118"/>
			<line class="st15" x1="2718" y1="2130.8" x2="2774.2" y2="2130.8"/>
			<line class="st15" x1="2718" y1="2143.2" x2="2774.2" y2="2143.2"/>
			<line class="st15" x1="2718" y1="2155.8" x2="2774.2" y2="2155.8"/>
			<line class="st15" x1="2718" y1="2194.1" x2="2774.2" y2="2194.1"/>
			<line class="st15" x1="2718" y1="2206.1" x2="2774.2" y2="2206.1"/>
			<polyline class="st15" points="2774.2,2207.1 2745.3,2218.6 2718.3,2206.8 			"/>
			<polyline class="st15" points="2718,2206.4 2718,2220.6 2704,2220.6 2704,2180.8 			"/>
			<line class="st15" x1="2646.1" y1="2168.2" x2="2704.6" y2="2168.2"/>
			<line class="st15" x1="2646.1" y1="2143.1" x2="2704.6" y2="2143.1"/>
			<line class="st15" x1="2646.1" y1="2155.7" x2="2704.6" y2="2155.7"/>
			<line class="st15" x1="2646.1" y1="2130.5" x2="2704.6" y2="2130.5"/>
			<line class="st15" x1="2646.1" y1="2180.9" x2="2704.6" y2="2180.9"/>
			<line class="st15" x1="2646.1" y1="2193.5" x2="2704.6" y2="2193.5"/>
			<line class="st15" x1="2646.1" y1="2206.1" x2="2704.6" y2="2206.1"/>
			<line class="st15" x1="2718" y1="2168.1" x2="2774.2" y2="2168.1"/>
			<line class="st15" x1="2718" y1="2181" x2="2774.2" y2="2181"/>
		</g>
	</g>
	<g class="clickable" id="A1--1-30">
		<rect id="room-box-35" x="4876.8" y="340.3" class="st2" width="104.5" height="343.6"/>
		<path id="stairs" class="st13" d="M4927.7,478.3h53.5V444h-104.5v34.3L4927.7,478.3z M4930.3,446l41.9,9h-41.9V446z M4927.7,454.8
			h-42l42-9V454.8z M4979.3,476.6h-49v-9.2h49V476.6z M4979.3,465.8h-49v-9.2h49V465.8z M4979.3,454.6l-42.2-9h42.2V454.6z
			 M4921,445.7l-42.2,9v-9H4921z M4878.8,456.5h49v9.2h-49V456.5z M4927.8,467.4v9.2h-49v-9.2H4927.8z"/>
	</g>
	<g class="clickable" id="A1--1-29">
		<rect id="room-box-36" x="4876.8" y="699.8" class="st2" width="104.5" height="280.9"/>
		<path id="stairs-2" class="st13" d="M4927.7,795.9h53.5v-34.3h-104.5v34.3H4927.7z M4930.3,763.6l41.9,9h-41.9V763.6z
			 M4927.7,772.6h-42l42-9V772.6z M4979.3,794.4h-49v-9.2h49V794.4z M4979.3,783.5h-49v-9.2h49V783.5z M4979.3,772.4l-42.2-9h42.2
			V772.4z M4921,763.4l-42.2,9v-9H4921z M4878.8,774.3h49v9.2h-49V774.3z M4927.8,785.2v9.2h-49v-9.2H4927.8z"/>
	</g>
	<g class="clickable" id="A1--1-28">
		<rect id="room-box-37" x="4876.8" y="1139.6" class="st2" width="104.5" height="320.2"/>
		<path id="stairs-3" class="st13" d="M4927.7,1307.7h53.5v-34.3h-104.5v34.3H4927.7z M4930.3,1275.3l41.9,9h-41.9V1275.3z
			 M4927.7,1284.3h-42l42-9V1284.3z M4979.3,1306h-49v-9.2h49V1306z M4979.3,1295.1h-49v-9.2h49V1295.1z M4979.3,1284l-42.2-9h42.2
			V1284z M4921,1275.1l-42.2,9v-9H4921z M4878.8,1286h49v9.1h-49V1286z M4927.8,1296.9v9.1h-49v-9.2L4927.8,1296.9z"/>
	</g>
	<g class="clickable" id="A1--1-26">
		<rect id="room-box-38" x="4876.8" y="1459.8" class="st2" width="104.5" height="510"/>
		<path id="stairs-4" class="st13" d="M4930.3,1911.4h-53.5v34.3h104.5v-34.3H4930.3z M4927.7,1943.6l-42-8.9h42V1943.6z
			 M4930.3,1934.7h41.9l-41.9,8.9V1934.7z M4878.8,1913h49v9.2h-49V1913z M4878.8,1923.9h49v9.1h-49V1923.9z M4878.8,1935l42.2,9
			h-42.2V1935z M4937,1944l42.2-9v9H4937z M4979.3,1933h-49v-9.2h49V1933z M4930.3,1922.2v-9.2h49v9.2H4930.3z"/>
	</g>
	<g id="floor-wall">
		<path class="st16" d="M3498.9,34.8h87.8l15.9,0.3h111.5v59.9h-0.3v15.8h0.3v55.5h-0.3v15.9h0.3v193.1h-27.9v15.8h51.1v-15.8h-7.2
			v-0.9h-0.3V110.9h21.7V95.1h-21.4V35.1h180.3v-0.3h56v0.3h199.8V39h15.9v-3.8h94.8v59.9h-0.3V111h0.3v55.5h-0.3v15.9h0.3v193.1
			h-92.3v15.8h92.3v21h15.5v-346l-0.6-31.5h569.1v145.4h15.9V34.8h104.5v1935h-104.5V1862h-15.9v108.6h-568.5v-931.3h0.4v-0.9h90.7
			v-15.9h-91.1V747.4h0.4v-0.9h90.7v-15.9h-91.1V494h-15.5v25.3h-94.8v-0.2h-15.9v0.2h-324.4v-0.2h-15.9v0.2h-67.7v-0.2h-15.9v0.2
			h-11.7V535h11.7v196.4h-15v15.9h2.8v-0.3h95.9v0.3h15.9v-0.3h43.5v0.3h15.1v-0.3h37.2v0.3h15.9v-0.3h212.8v0.3h15.9v-0.3h94.8
			v87.2h-0.3v15.9h0.3v94.5h-0.3v15.8h0.3v62.5h-0.3v0.3h-106.3v15.9h11.8v-0.3h94.8v183.7h-0.3v15.9h0.3v191.6h-0.3v15.9h0.3v110.3
			h-0.3v15.9h0.3v57.5h-0.3v15.8h0.3v170h-0.3v15.9h0.3v55.9h-0.3v15.9h0.3v67.4h-0.3v15.9h0.3v68.5h-0.3v15.8h0.3v62.3h-0.3v15.9
			h0.3v64.2h-0.3v0.7h-776.8v-0.7h-1.1v-64.2h1.1v-15.9h-1.1v-62.3h1.1v-15.8h-1.1v-68.5h1.1v-15.9h-1.1v-67.4h1.1v-15.9h-1.1v-55.9
			h1.1v-15.9h-1.1v-170h1.1v-15.8h-1.1v-57.5h1.1v-15.9h-1.1V1446h0.2v-15.9h-0.2v-191.6h1.1v-15.9h-1.1v-183.7h43.7v-15.7h-110.3
			v15.7h50.8v0.3h0.1v590.3h-0.1v0.2H3088v-0.2h-15.9v0.2h-99.7v-0.2h-0.3v-148h-15.1v285.9h15.3v-27.6h21.4v-15h-21.4v-79.3h99.7
			v79.3h-22.2v15h22.2v10.9h15.9v-105.2h0.4v-0.1H3483v170.6h-394.6v-0.5h-0.4v-8.8h-15.9v24.2h19.6v0.5h314.4v0.5h17.5v-0.5h59.2
			v0.5h0.1v138.7h-395v-67.4h0.4v-15.9h-0.4v-0.3H3072v0.3h-27.2v13.9h27.6v69.4h-100.3v-69.4h16.7v-13.9h-16.5v-37.9H2957v521.7
			h-15.1v15.5h14.2v74.7h15.9v-231.5h235v406.4h-235v-118.7h-15.9v54.3h-8.4v15.9h8.4v244.9h-12.6v32.6h45.2v-196.5h250.9v-422.2
			h1042.9v0.3h27v-244.3h704.4v0.1h169.8V1428h-169.8V1.4h-731.5v0.4h-2428V1.4h-544.3v2.2h-2.9v708.1H3.4v754.6h412.1v940.6h1644.7
			l675.2-0.5v349.4h94.5v109.5h43.6v-32.6h-10.9v-245h9.1v-15.9h-36.8v15.9h11.7v32.6h-11.7v15.9h11.7v87H2768v-87h10.8v-15.8H2768
			v-32.6h16.8v-15.9H2769l0.3-184.7l116.5-0.3v-15.5h-15.1v-0.3h-0.4v-141.2h0.4v-15.9h-0.4v-143h0.4v-15.8h-0.4v-46.4h0.4v-15.9
			h-0.4v-89.7h0.4v-15.9h-0.4v-84.7h0.4v-15.8h-0.4v-141.2h0.4v-15.8h-0.4V1565h0.4v-15.9h-0.4v-103.2h0.4V1430h-0.4v-191.6h0.4
			v-15.9h-0.4v-183.7h8.8v-15.7h-7.5v-292h-244.9V535h250.8v-15.8h-265.9v227h243.3v913.5h-85.5v45.2h19.3V1678h66v692.9h-2404
			v-940.6H38v-683h0.1v-1h1305.1V34.5h1613.2v0.5l0,0v59.9l0,0v15.8l0,0v55.5l0,0V182l0,0v193.1l0,0V391l0,0v54.4l0,0v15.9l0,0v57.8
			h-22.9V535l74.3-0.1v-15.8h-35.6V519h-0.3V34.6h281v384.1h15.9v-27.5h141.3v-15.9h-141.3V182h0.9v-0.4h213.2v193.5h-16.7V391h48.4
			v-15.8h-16.1V182.2h0.2v-0.4h87.9v193.5h-15.9v15.8h59.3v-15.8h-27.5V166.2h-333.6v-55.5h0.9V95h-0.9V35h0.9v-0.3h229.2
			L3498.9,34.8z M3483.9,2214h-511.7v-228.3h511.7V2214z M3900.2,535.1h241.6v196.5h-241.6V622.6h-15.1v108.9h-127.1V535.1H3900.2z
			 M4276.8,731.3h-0.3v0.3h-118.7V535.2h118.7v0.1h0.3L4276.8,731.3z"/>
		<polygon class="st16" points="2646.6,1989.6 2639,1989.6 2631.6,1989.6 2631.6,2314.5 2634.5,2314.5 2646.6,2314.5 2769.7,2314.5 
			2769.7,2296.1 2646.6,2296.1 2646.6,2008 2774.2,2008 2774.2,2220.1 2789.1,2220.1 2789.1,2008 2789.1,1989.6 2789.1,1905.6 
			2789.1,1887.3 2774.2,1887.3 2646.6,1887.3 2646.6,1811.3 2774.2,1811.3 2789.1,1811.3 2789.1,1792.9 2789.1,1767.1 
			2770.2,1767.1 2770.2,1792.9 2646.6,1792.9 2639,1792.9 2630.2,1792.5 2630.2,1905.2 2639,1905.6 2646.6,1905.6 2774.2,1905.6 
			2774.2,1989.6 		"/>
		<polygon class="st16" points="4860.8,1780.1 4876.8,1780.1 4876.8,1459.8 4876.8,1458.2 4860.8,1458.2 		"/>
		<polygon class="st16" points="4876.8,418.9 4876.8,311.9 4860.8,311.9 4860.8,592.9 4876.8,592.9 		"/>
		<rect x="3126.5" y="1023.4" class="st16" width="178.9" height="15.6"/>
		<polygon class="st16" points="3253.1,519.2 3253.1,519.4 3088.4,519.4 3088.4,519.2 3072.4,519.2 3072.4,519.4 3062.4,519.4 
			3062.4,535.2 3269,535.2 3269,519.4 3269,519.2 3269,500.9 3253.1,500.9 		"/>
		<polygon class="st16" points="4860.8,746.7 4860.8,747.5 4860.8,844.4 4876.8,844.4 4876.8,674.7 4860.8,674.7 4860.8,730.8 
			4799.9,730.8 4799.9,746.7 		"/>
		<rect x="4447.8" y="730.8" class="st16" width="287.6" height="15.9"/>
		<polygon class="st16" points="4860.8,1038.4 4860.8,1039.3 4860.8,1376.3 4876.8,1376.3 4876.8,1139.6 4876.8,926.4 4860.8,926.4 
			4860.8,1022.6 4799.9,1022.6 4799.9,1038.4 		"/>
		<rect x="4447.8" y="1022.6" class="st16" width="287.6" height="15.9"/>
		<polygon class="st16" points="2956.5,1039 2956.5,1039.3 2957.1,1039.3 2957.1,1399.6 2972.1,1399.6 2972.1,1039.3 2972.4,1039.3 
			2972.4,1039 3009.8,1039 3009.8,1023.4 2948.7,1023.4 2948.7,1039 		"/>
		<polygon class="st16" points="3714.1,1039 3714.1,1039.3 3730,1039.3 3730,1039 3937.4,1039 3937.4,1039.3 3953.3,1039.3 
			3953.3,1039 4088.3,1039 4088.3,1023.4 3676.1,1023.4 3676.1,1039 		"/>
		<polygon class="st16" points="3643.6,731.6 3643.6,729.9 3636,729.9 3636,731.3 3636,731.6 3561.6,731.6 3561.6,731.3 
			3498.7,731.3 3498.7,535.3 3561.6,535.3 3561.6,535.2 3636,535.2 3636,535.3 3636,535.9 3643.6,535.9 3643.6,535.2 3648.6,535.2 
			3648.6,519.4 3498.7,519.4 3498.7,519.2 3483,519.2 3483,535.2 3483,705.7 3483,731.6 3483,747.5 3498.7,747.5 3498.7,747.2 
			3620.1,747.2 3620.1,747.5 3636,747.5 3636,747.2 3653.6,747.2 3653.6,731.6 		"/>
		<rect x="4876.8" y="980.7" class="st16" width="104.5" height="158.8"/>
		<pattern  id="SVGID_16_" xlink:href="#SVGID_27_" patternTransform="matrix(-0.5 0 0 -0.5 -12820.0771 -25259.5996)">
		</pattern>
		<rect x="4876.8" y="997.7" class="st17" width="104.5" height="127.7"/>
		<rect x="4870.1" y="684" class="st16" width="115.4" height="15.9"/>
		<rect x="4860.8" y="15.6" class="st16" width="135.5" height="336.4"/>
		<pattern  id="SVGID_17_" xlink:href="#SVGID_27_" patternTransform="matrix(-0.5 0 0 -0.5 -12820.0771 -25259.5996)">
		</pattern>
		<rect x="4876.7" y="34.6" class="st18" width="104.8" height="288.1"/>
		<polygon class="st16" points="4029.9,374.6 4029.9,375.5 4008.9,375.5 4008.9,374.6 3993,374.6 3993,375.5 3953.3,375.5 
			3953.3,182.3 3955.4,182.3 3955.4,166.4 3953.3,166.4 3953.3,111 3955.4,111 3955.4,95.1 3953.3,95.1 3953.3,95.1 3937.4,95.1 
			3937.4,95.1 3807.4,95.1 3807.4,110.9 3937.9,110.9 3937.9,374.6 3937.4,374.6 3937.4,375.5 3928.7,375.5 3928.7,391.4 
			3937.4,391.4 3937.4,391.4 3953.3,391.4 3953.3,391.4 3993,391.4 3993,391.4 4008.9,391.4 4008.9,391.4 4030.6,391.4 
			4030.6,374.6 		"/>
		<pattern  id="room-box_1_" xlink:href="#SVGID_27_" patternTransform="matrix(-0.5 0 0 -0.5 -12820.0771 -25259.5996)">
		</pattern>
		<rect id="room-box" x="2972.2" y="1985.7" class="st19" width="511.8" height="231.9"/>
		<polygon class="st2" points="2769.7,2314.5 2769.7,2386.9 2854.7,2387 2854.7,2295.9 2854.7,1678.4 2789.1,1678.4 2789.1,1705.1 
			2770.2,1705.1 2770.2,1767.1 2789.1,1767.1 2789.1,2220.6 2769.6,2220.6 2769.6,2295.9 		"/>
		<pattern  id="SVGID_18_" xlink:href="#SVGID_27_" patternTransform="matrix(-0.5 0 0 -0.5 -12820.0771 -25259.5996)">
		</pattern>
		<rect x="2972.4" y="2230" class="st20" width="235.6" height="406.2"/>
		<pattern  id="SVGID_19_" xlink:href="#SVGID_27_" patternTransform="matrix(-0.5 0 0 -0.5 -12820.0771 -25259.5996)">
		</pattern>
		<rect x="2767.8" y="2586.7" class="st21" width="79.8" height="136.4"/>
		<pattern  id="SVGID_20_" xlink:href="#SVGID_27_" patternTransform="matrix(-0.5 0 0 -0.5 -12820.0771 -25259.5996)">
		</pattern>
		<polygon class="st22" points="452.2,1430.4 452.2,2371.1 2769.2,2371.1 2769.7,2314 2728.8,2314 2632.6,2314 2632.4,1989.6 
			2775.2,1989.6 2775.2,1906.2 2630.4,1906.2 2630.4,1792.6 2770.7,1792.5 2770.7,1659.8 2856.2,1659.8 2856.1,1218.2 2856.1,747.5 
			2612.5,747.5 2612.5,518.8 2957.4,518.8 2957.4,241.3 2957.2,34.6 2612.7,34.6 1344.2,34.6 1344.2,519.4 1344.2,746.4 39.4,746.4 
			39.4,1430.4 		"/>
		<pattern  id="SVGID_21_" xlink:href="#SVGID_27_" patternTransform="matrix(-0.5 0 0 -0.5 -12820.0771 -25259.5996)">
		</pattern>
		<rect x="5015.9" y="1459.6" class="st23" width="138.9" height="511.1"/>
		<rect x="3795.6" y="518.2" class="st2" width="48.9" height="20.1"/>
		<rect x="3795.6" y="729.2" class="st2" width="48.9" height="20.1"/>
	</g>
</g>
<polygon id="corridoio" class="st2" points="4276.9,391.4 3483,391.4 3483,391.1 3268.8,391.1 3268.8,535.2 2871.8,535.2 
	2871.8,747.5 3483,747.5 3483,546.8 3483,535.2 3483,519.2 4276.9,519.2 "/>
</svg>
