<?xml version="1.0" encoding="utf-8"?>
<!-- Generator: Adobe Illustrator 25.4.1, SVG Export Plug-In . SVG Version: 6.00 Build 0)  -->
<svg version="1.1" id="floor-01" xmlns="http://www.w3.org/2000/svg" xmlns:xlink="http://www.w3.org/1999/xlink" x="0px" y="0px"
	 viewBox="0 0 5443.6 3040.1" style="enable-background:new 0 0 5443.6 3040.1;" xml:space="preserve">
<style type="text/css">
	.st0{fill:none;}
	.st1{fill:none;stroke:#DDDDDD;stroke-width:20;stroke-linecap:square;stroke-linejoin:round;}
	.st2{fill:#F2F2F2;}
	.st3{fill:#F2F2F2;stroke:#B7B7B7;stroke-width:2;stroke-miterlimit:10;}
	.st4{fill:#010101;}
	.st5{fill:#DDDDDD;}
	.st6{fill:#B7B7B7;}
	.st7{fill:#F2F2F2;stroke:#B7B7B7;stroke-miterlimit:10;}
	.st8{opacity:0.4;}
	.st9{fill:none;stroke:#B7B7B7;stroke-width:4;stroke-miterlimit:10;}
	.st10{opacity:0.4;fill:#B7B7B7;enable-background:new    ;}
	.st11{fill:none;stroke:#B7B7B7;stroke-width:5;stroke-miterlimit:10;}
	.st12{fill:url(#pattern1);}
	.st13{fill:url(#room-box-23_00000156553732628441116570000000089438973192085171_);}
</style>
<pattern  y="3040.1" width="45" height="45" patternUnits="userSpaceOnUse" id="pattern1" viewBox="59.2 -104.2 45 45" style="overflow:visible;">
	<g>
		<rect x="59.2" y="-104.2" class="st0" width="45" height="45"/>
		<g>
			<g>
				<line class="st1" x1="58.9" y1="-149.3" x2="14.1" y2="-104.5"/>
			</g>
		</g>
		<g>
			<g>
				<line class="st1" x1="59.1" y1="-149.3" x2="14.3" y2="-104.5"/>
				<line class="st1" x1="103.9" y1="-149.3" x2="59.1" y2="-104.5"/>
			</g>
		</g>
		<g>
			<g>
				<line class="st1" x1="59.3" y1="-149.3" x2="14.6" y2="-104.5"/>
				<line class="st1" x1="104.1" y1="-149.3" x2="59.3" y2="-104.5"/>
				<line class="st1" x1="148.9" y1="-149.3" x2="104.1" y2="-104.5"/>
			</g>
		</g>
		<g>
			<g>
				<line class="st1" x1="104.3" y1="-149.3" x2="59.6" y2="-104.5"/>
				<line class="st1" x1="149.1" y1="-149.3" x2="104.3" y2="-104.5"/>
			</g>
		</g>
		<g>
			<g>
				<line class="st1" x1="149.3" y1="-149.3" x2="104.6" y2="-104.5"/>
			</g>
		</g>
		<g>
			<g>
				<line class="st1" x1="58.9" y1="-104.3" x2="14.1" y2="-59.5"/>
				<line class="st1" x1="58.9" y1="-149.1" x2="14.1" y2="-104.3"/>
			</g>
		</g>
		<g>
			<g>
				<rect x="15.1" y="-108.3" class="st2" width="47.1" height="45.6"/>
				<line class="st1" x1="59.1" y1="-104.3" x2="14.3" y2="-59.5"/>
				<line class="st1" x1="103.9" y1="-104.3" x2="59.1" y2="-59.5"/>
				<line class="st1" x1="59.1" y1="-149.1" x2="14.3" y2="-104.3"/>
				<line class="st1" x1="103.9" y1="-149.1" x2="59.1" y2="-104.3"/>
			</g>
		</g>
		<g>
			<g>
				<rect x="15.4" y="-108.3" class="st2" width="47.1" height="45.6"/>
				<line class="st1" x1="59.3" y1="-104.3" x2="14.6" y2="-59.5"/>
				<rect x="60.1" y="-108.3" class="st2" width="47.1" height="45.6"/>
				<line class="st1" x1="104.1" y1="-104.3" x2="59.3" y2="-59.5"/>
				<line class="st1" x1="148.9" y1="-104.3" x2="104.1" y2="-59.5"/>
				<line class="st1" x1="59.3" y1="-149.1" x2="14.6" y2="-104.3"/>
				<line class="st1" x1="104.1" y1="-149.1" x2="59.3" y2="-104.3"/>
				<line class="st1" x1="148.9" y1="-149.1" x2="104.1" y2="-104.3"/>
			</g>
		</g>
		<g>
			<g>
				<rect x="60.4" y="-108.3" class="st2" width="47.1" height="45.6"/>
				<line class="st1" x1="104.3" y1="-104.3" x2="59.6" y2="-59.5"/>
				<line class="st1" x1="149.1" y1="-104.3" x2="104.3" y2="-59.5"/>
				<line class="st1" x1="104.3" y1="-149.1" x2="59.6" y2="-104.3"/>
				<line class="st1" x1="149.1" y1="-149.1" x2="104.3" y2="-104.3"/>
			</g>
		</g>
		<g>
			<g>
				<line class="st1" x1="149.3" y1="-104.3" x2="104.6" y2="-59.5"/>
				<line class="st1" x1="149.3" y1="-149.1" x2="104.6" y2="-104.3"/>
			</g>
		</g>
		<g>
			<g>
				<line class="st1" x1="58.9" y1="-59.3" x2="14.1" y2="-14.5"/>
				<line class="st1" x1="58.9" y1="-104.1" x2="14.1" y2="-59.3"/>
				<line class="st1" x1="58.9" y1="-148.8" x2="14.1" y2="-104.1"/>
			</g>
		</g>
		<g>
			<g>
				<rect x="15.1" y="-63.3" class="st2" width="47.1" height="45.6"/>
				<line class="st1" x1="59.1" y1="-59.3" x2="14.3" y2="-14.5"/>
				<line class="st1" x1="103.9" y1="-59.3" x2="59.1" y2="-14.5"/>
				<line class="st1" x1="59.1" y1="-104.1" x2="14.3" y2="-59.3"/>
				<line class="st1" x1="103.9" y1="-104.1" x2="59.1" y2="-59.3"/>
				<line class="st1" x1="59.1" y1="-148.8" x2="14.3" y2="-104.1"/>
				<line class="st1" x1="103.9" y1="-148.8" x2="59.1" y2="-104.1"/>
			</g>
		</g>
		<g>
			<g>
				<rect x="15.4" y="-63.3" class="st2" width="47.1" height="45.6"/>
				<line class="st1" x1="59.3" y1="-59.3" x2="14.6" y2="-14.5"/>
				<rect x="60.1" y="-63.3" class="st2" width="47.1" height="45.6"/>
				<line class="st1" x1="104.1" y1="-59.3" x2="59.3" y2="-14.5"/>
				<line class="st1" x1="148.9" y1="-59.3" x2="104.1" y2="-14.5"/>
				<rect x="15.4" y="-108" class="st2" width="47.1" height="45.6"/>
				<line class="st1" x1="59.3" y1="-104.1" x2="14.6" y2="-59.3"/>
				<rect x="59.3" y="-104.1" class="st2" width="44.8" height="44.8"/>
				<line class="st1" x1="104.1" y1="-104.1" x2="59.3" y2="-59.3"/>
				<line class="st1" x1="148.9" y1="-104.1" x2="104.1" y2="-59.3"/>
				<line class="st1" x1="59.3" y1="-148.8" x2="14.6" y2="-104.1"/>
				<line class="st1" x1="104.1" y1="-148.8" x2="59.3" y2="-104.1"/>
				<line class="st1" x1="148.9" y1="-148.8" x2="104.1" y2="-104.1"/>
			</g>
		</g>
		<g>
			<g>
				<rect x="60.4" y="-63.3" class="st2" width="47.1" height="45.6"/>
				<line class="st1" x1="104.3" y1="-59.3" x2="59.6" y2="-14.5"/>
				<line class="st1" x1="149.1" y1="-59.3" x2="104.3" y2="-14.5"/>
				<rect x="60.4" y="-108" class="st2" width="47.1" height="45.6"/>
				<line class="st1" x1="104.3" y1="-104.1" x2="59.6" y2="-59.3"/>
				<line class="st1" x1="149.1" y1="-104.1" x2="104.3" y2="-59.3"/>
				<line class="st1" x1="104.3" y1="-148.8" x2="59.6" y2="-104.1"/>
				<line class="st1" x1="149.1" y1="-148.8" x2="104.3" y2="-104.1"/>
			</g>
		</g>
		<g>
			<g>
				<line class="st1" x1="149.3" y1="-59.3" x2="104.6" y2="-14.5"/>
				<line class="st1" x1="149.3" y1="-104.1" x2="104.6" y2="-59.3"/>
				<line class="st1" x1="149.3" y1="-148.8" x2="104.6" y2="-104.1"/>
			</g>
		</g>
		<g>
			<g>
				<line class="st1" x1="58.9" y1="-59.1" x2="14.1" y2="-14.3"/>
				<line class="st1" x1="58.9" y1="-103.8" x2="14.1" y2="-59.1"/>
			</g>
		</g>
		<g>
			<g>
				<line class="st1" x1="59.1" y1="-59.1" x2="14.3" y2="-14.3"/>
				<line class="st1" x1="103.9" y1="-59.1" x2="59.1" y2="-14.3"/>
				<line class="st1" x1="59.1" y1="-103.8" x2="14.3" y2="-59.1"/>
				<line class="st1" x1="103.9" y1="-103.8" x2="59.1" y2="-59.1"/>
			</g>
		</g>
		<g>
			<g>
				<rect x="15.4" y="-63" class="st2" width="47.1" height="45.6"/>
				<line class="st1" x1="59.3" y1="-59.1" x2="14.6" y2="-14.3"/>
				<line class="st1" x1="104.1" y1="-59.1" x2="59.3" y2="-14.3"/>
				<line class="st1" x1="148.9" y1="-59.1" x2="104.1" y2="-14.3"/>
				<line class="st1" x1="59.3" y1="-103.8" x2="14.6" y2="-59.1"/>
				<line class="st1" x1="104.1" y1="-103.8" x2="59.3" y2="-59.1"/>
				<line class="st1" x1="148.9" y1="-103.8" x2="104.1" y2="-59.1"/>
			</g>
		</g>
		<g>
			<g>
				<rect x="60.4" y="-63" class="st2" width="47.1" height="45.6"/>
				<line class="st1" x1="104.3" y1="-59.1" x2="59.6" y2="-14.3"/>
				<line class="st1" x1="149.1" y1="-59.1" x2="104.3" y2="-14.3"/>
				<line class="st1" x1="104.3" y1="-103.8" x2="59.6" y2="-59.1"/>
				<line class="st1" x1="149.1" y1="-103.8" x2="104.3" y2="-59.1"/>
			</g>
		</g>
		<g>
			<g>
				<line class="st1" x1="149.3" y1="-59.1" x2="104.6" y2="-14.3"/>
				<line class="st1" x1="149.3" y1="-103.8" x2="104.6" y2="-59.1"/>
			</g>
		</g>
		<g>
			<g>
				<line class="st1" x1="58.9" y1="-58.8" x2="14.1" y2="-14.1"/>
			</g>
		</g>
		<g>
			<g>
				<line class="st1" x1="59.1" y1="-58.8" x2="14.3" y2="-14.1"/>
				<line class="st1" x1="103.9" y1="-58.8" x2="59.1" y2="-14.1"/>
			</g>
		</g>
		<g>
			<g>
				<line class="st1" x1="59.3" y1="-58.8" x2="14.6" y2="-14.1"/>
				<line class="st1" x1="104.1" y1="-58.8" x2="59.3" y2="-14.1"/>
				<line class="st1" x1="148.9" y1="-58.8" x2="104.1" y2="-14.1"/>
			</g>
		</g>
		<g>
			<g>
				<line class="st1" x1="104.3" y1="-58.8" x2="59.6" y2="-14.1"/>
				<line class="st1" x1="149.1" y1="-58.8" x2="104.3" y2="-14.1"/>
			</g>
		</g>
		<g>
			<g>
				<line class="st1" x1="149.3" y1="-58.8" x2="104.6" y2="-14.1"/>
			</g>
		</g>
	</g>
</pattern>
<g id="a1-0">
	<g id="floor-0">
		<g id="floor-background">
			<polygon class="st3" points="523.2,2839.2 523.2,3037.9 3751.4,3037.9 3751.4,2817.8 5442.2,2817.8 5442.2,1.4 2376.6,1.4 
				2376.6,1118.8 2194.8,1118.8 2194.8,902.2 1,902.2 1,2839.2 			"/>
		</g>
		<g id="floor-rooms">
			<g id="main-entrance">
				<g id="Icons_Arrow_Down">
					<path id="_Color-2" class="st4" d="M4028.6,2887.9l25.4-25.4v55.3h9.1v-55.3l25.4,25.4l6.5-6.4l-36.4-36.4l-36.4,36.4
						L4028.6,2887.9z"/>
				</g>
				<g id="Main_Entrance">
					<path class="st4" d="M3811,2977.4h27.5v5.2h-21.4v14.9h18.1v5.2h-18.1v17.3h22.1v5.2H3811V2977.4z"/>
					<path class="st4" d="M3848.8,2989.7h4.9l0.4,5.1h0.2c3.4-3.4,7-6,11.9-6c7.4,0,10.8,4.8,10.8,13.8v22.5h-6v-21.7
						c0-6.6-2-9.4-6.6-9.4c-3.6,0-6.1,1.8-9.7,5.4v25.6h-6L3848.8,2989.7z"/>
					<path class="st4" d="M3889.6,3014.2v-19.5h-5.3v-4.5l5.5-0.3l0.7-9.9h4.9v9.9h9.5v4.8h-9.5v19.7c0,4.4,1.3,6.9,5.5,6.9
						c1.4-0.1,2.7-0.4,4-1l1.1,4.5c-2.1,0.8-4.3,1.2-6.5,1.3C3892.2,3026,3889.6,3021.2,3889.6,3014.2z"/>
					<path class="st4" d="M3913.1,2989.7h4.9l0.4,6.4h0.2c2.5-4.5,6.1-7.3,10-7.3c1.3-0.1,2.6,0.2,3.8,0.7l-1.1,5.3
						c-1.1-0.4-2.3-0.6-3.5-0.6c-3,0-6.5,2.1-9,8.1v22.7h-6v-35.3L3913.1,2989.7L3913.1,2989.7z"/>
					<path class="st4" d="M3934.4,3015.9c0-7.8,6.6-11.6,21.7-13.3c0-4.6-1.6-9-7.3-9c-4,0-7.8,1.9-10.6,3.8l-2.4-4
						c4.1-2.9,8.9-4.5,13.9-4.6c8.7,0,12.2,5.7,12.2,14.5v21.7h-4.9l-0.4-4.3h-0.2c-3.4,2.8-7.3,5.1-11.7,5.1
						C3939,3026,3934.4,3022.3,3934.4,3015.9z M3956.1,3016.5v-9.8c-11.9,1.5-15.8,4.4-15.8,8.9c0,4,2.7,5.6,6.2,5.6
						S3952.8,3019.5,3956.1,3016.5z"/>
					<path class="st4" d="M3973.4,3014.2v-19.5h-5.2v-4.5l5.5-0.3l0.7-9.9h4.9v9.9h9.5v4.8h-9.5v19.7c0,4.4,1.3,6.9,5.5,6.9
						c1.4-0.1,2.7-0.4,4-1l1.1,4.5c-2.1,0.8-4.3,1.2-6.5,1.3C3976,3026,3973.4,3021.2,3973.4,3014.2z"/>
					<path class="st4" d="M3993.2,3015.9c0-7.8,6.6-11.6,21.7-13.3c0-4.6-1.6-9-7.3-9c-4,0-7.8,1.9-10.6,3.8l-2.4-4
						c4.1-2.9,8.9-4.5,13.9-4.6c8.7,0,12.2,5.7,12.2,14.5v21.7h-4.9l-0.4-4.3h-0.2c-3.4,2.8-7.3,5.1-11.7,5.1
						C3997.8,3026,3993.2,3022.3,3993.2,3015.9z M4014.9,3016.5v-9.8c-11.9,1.5-15.8,4.4-15.8,8.9c0,4,2.7,5.6,6.2,5.6
						S4011.6,3019.5,4014.9,3016.5z"/>
					<path class="st4" d="M4046.6,2989.7h4.9l0.4,4h0.2c3.1-2.7,7.2-4.9,11.2-4.9c9.1,0,14,7.1,14,18c0,12-7.2,19.1-15.3,19.1
						c-3.3,0-6.5-1.5-9.8-4l0.1,6.2v12h-6L4046.6,2989.7z M4071.4,3006.9c0-7.9-2.7-13-9.3-13c-3,0-6.1,1.7-9.4,4.8v18.5
						c3.3,2.7,6.3,3.7,8.7,3.7C4067.1,3021,4071.4,3015.7,4071.4,3006.9z"/>
					<path class="st4" d="M4087.1,2989.7h4.9l0.4,6.4h0.2c2.5-4.5,6.1-7.3,10.1-7.3c1.3-0.1,2.6,0.2,3.8,0.7l-1.1,5.3
						c-1.1-0.4-2.3-0.6-3.5-0.6c-3,0-6.5,2.1-9,8.1v22.7h-6L4087.1,2989.7z"/>
					<path class="st4" d="M4111.1,2978.6c-0.2-2.3,1.5-4.3,3.8-4.5s4.3,1.5,4.5,3.8s-1.5,4.3-3.8,4.5h-0.7
						C4112.9,2982.3,4111.3,2980.6,4111.1,2978.6z M4112.2,2989.7h6v35.4h-6V2989.7z"/>
					<path class="st4" d="M4130.1,2989.7h4.9l0.4,5.1h0.2c3.4-3.4,7-6,11.9-6c7.4,0,10.8,4.8,10.8,13.8v22.5h-6v-21.7
						c0-6.6-2-9.4-6.6-9.4c-3.6,0-6.1,1.8-9.7,5.4v25.6h-6L4130.1,2989.7z"/>
					<path class="st4" d="M4167.4,3007.5c0-11.8,8-18.6,17-18.6c3.8,0,7.5,1.5,10.3,4.2l-3,3.9c-1.9-1.9-4.4-3-7.1-3.1
						c-6.4,0-11.1,5.5-11.1,13.6s4.5,13.5,10.9,13.5c3.1-0.1,6.1-1.3,8.3-3.5l2.6,4c-3.1,2.9-7.2,4.5-11.5,4.5
						C4174.5,3026,4167.4,3019.2,4167.4,3007.5z"/>
					<path class="st4" d="M4202,2978.6c-0.2-2.3,1.5-4.3,3.8-4.5s4.3,1.5,4.5,3.8s-1.5,4.3-3.8,4.5h-0.7
						C4203.8,2982.3,4202.2,2980.6,4202,2978.6z M4203.1,2989.7h6v35.4h-6V2989.7z"/>
					<path class="st4" d="M4221,2989.7h4.9l0.4,4h0.2c3.3-2.7,7.2-4.9,11.2-4.9c9.1,0,14,7.1,14,18c0,12-7.2,19.1-15.3,19.1
						c-3.3,0-6.5-1.5-9.8-4l0.1,6.2v12h-6v-50.4L4221,2989.7z M4245.8,3006.9c0-7.9-2.7-13-9.3-13c-3,0-6.1,1.7-9.4,4.8v18.5
						c2.4,2.2,5.5,3.5,8.7,3.7C4241.5,3021,4245.9,3015.7,4245.8,3006.9L4245.8,3006.9z"/>
					<path class="st4" d="M4258.2,3015.9c0-7.8,6.6-11.6,21.7-13.3c0-4.6-1.6-9-7.3-9c-4,0-7.8,1.9-10.6,3.8l-2.4-4
						c4.1-2.9,8.9-4.5,13.9-4.6c8.7,0,12.2,5.7,12.2,14.5v21.7h-4.9l-0.4-4.3h-0.2c-3.4,2.8-7.3,5.1-11.7,5.1
						C4262.8,3026,4258.2,3022.3,4258.2,3015.9z M4280,3016.5v-9.8c-11.9,1.5-15.8,4.4-15.8,8.9c0,4,2.7,5.6,6.2,5.6
						S4276.6,3019.5,4280,3016.5L4280,3016.5z"/>
					<path class="st4" d="M4297.1,3018.1v-44.7h6v45.2c0,1.8,0.8,2.6,1.7,2.6c0.4,0,0.9,0,1.3-0.1l0.8,4.6c-1.1,0.4-2.3,0.6-3.5,0.6
						C4299,3026,4297.1,3023.1,4297.1,3018.1z"/>
					<path class="st4" d="M4313,3007.5c0-11.6,7.8-18.6,16-18.6c9,0,14.2,6.5,14.2,16.6c0,1.1-0.1,2.3-0.3,3.4H4319
						c0.4,7.5,5.1,12.4,11.8,12.4c3.1,0,6.2-1,8.8-2.8l2.1,3.9c-3.4,2.4-7.5,3.7-11.7,3.7C4320.5,3026,4313,3019.2,4313,3007.5z
						 M4337.8,3004.6c0-7.1-3.1-10.9-8.8-10.9c-4.9,0-9.4,4-10.1,10.9H4337.8z"/>
				</g>
			</g>
			<g class="clickable" id="A1-0-44">
				<rect id="room-box-2" x="4591.2" y="675.6" class="st5" width="238.8" height="247.3"/>
			</g>
			<g class="clickable" id="A1-0-38">
				<rect id="room-box-3" x="3192.9" y="675.6" class="st5" width="225" height="248.3"/>
			</g>
			<g class="clickable" id="A1-0-39">
				<rect id="room-box-4" x="2831.6" y="675.6" class="st5" width="341.3" height="248.3"/>
			</g>
			<g class="clickable" id="A1-0-27">
				<rect id="room-box-5" x="2418.4" y="943.9" class="st5" width="556.9" height="348.7"/>
			</g>
			<g class="clickable" id="A1-0-30">
				<polygon id="room-box-6" class="st5" points="1839.2,1294.9 1407.1,1293.8 1407.1,943.9 1839.2,943.9 				"/>
			</g>
			<g class="clickable" id="A1-0-31">
				<rect id="room-box-7" x="906" y="942.8" class="st5" width="480.8" height="350.9"/>
			</g>
			<g class="clickable" id="A1-0-32">
				<rect id="room-box-8" x="351.5" y="943.8" class="st5" width="534.6" height="349.8"/>
			</g>
			<g class="clickable" id="A1-0-13">
				<rect id="room-box-9" x="42.8" y="1826.3" class="st5" width="500.9" height="555.9"/>
			</g>
			<g class="clickable" id="A1-0-14">
				<rect id="room-box-10" x="564.8" y="1826.3" class="st5" width="320.2" height="555.9"/>
			</g>
			<g class="clickable" id="A1-0-16">
				<rect id="room-box-11" x="1166.1" y="1826.3" class="st5" width="452.3" height="555.9"/>
			</g>
			<g class="clickable" id="A1-0-17">
				<rect id="room-box-12" x="1861.4" y="1827.4" class="st5" width="535.8" height="555.9"/>
			</g>
			<g class="clickable" id="A1-0-18">
				<rect id="room-box-13" x="2417.2" y="1827.4" class="st5" width="500.9" height="555.9"/>
			</g>
			<g class="clickable" id="A1-0-20">
				<rect id="room-box-14" x="3077.4" y="2275.1" class="st5" width="145.9" height="109.1"/>
			</g>
			<g class="clickable" id="A1-0-04">
				<rect id="room-box-15" x="2939.4" y="2538.6" class="st5" width="479.7" height="456.6"/>
			</g>
			<g class="clickable" id="A1-0-05">
				<rect id="room-box-16" x="1860.3" y="2538.6" class="st5" width="1059" height="456.6"/>
			</g>
			<g class="clickable" id="A1-0-06">
				<rect id="room-box-17" x="1306.1" y="2538" class="st5" width="316" height="456.6"/>
			</g>
			<g class="clickable" id="A1-0-12">
				<rect id="room-box-18" x="42.8" y="2403.3" class="st5" width="500.9" height="394.2"/>
			</g>
			<g class="clickable" id="A1-0-46">
				<rect id="room-box-19" x="2938.2" y="2274.2" class="st5" width="120.5" height="110.2"/>
			</g>
			<g class="clickable" id="A1-0-08">
				<polygon id="room-box-20" class="st5" points="906,2994 1077.3,2994 1285.4,2994 1285.4,2900 1285.4,2538.6 1075.2,2538.6 
					1075.2,2900 906,2900 				"/>
			</g>
			<g class="clickable" id="A1-0-36">
				<rect id="room-box-21" x="3544.9" y="943.8" class="st2" width="186" height="248.3"/>
			</g>
			<rect x="3381.8" y="943.9" class="st6" width="19.3" height="269.1"/>
			<g class="clickable" id="A1-0-25-A">
				<rect id="room-box-22" x="3401.1" y="943.8" class="st2" width="123.7" height="248.3"/>
			</g>
			<g class="clickable" id="A1-0-25-B">
				<rect id="room-box-22-2" x="3258.1" y="945.6" class="st2" width="123.7" height="248.3"/>
			</g>
			<g class="clickable" id="A1-0-15">
				<rect id="room-box-24" x="906.2" y="1826.3" class="st2" width="239.9" height="379.4"/>
			</g>
			<g class="clickable" id="A1-0-21-A">
				<rect id="room-box-25" x="3440.2" y="2079" class="st7" width="161.7" height="177.5"/>
			</g>
			<g class="clickable" id="A1-0-22">
				<rect id="room-box-26" x="3243.1" y="2078.4" class="st2" width="178.6" height="80.3"/>
			</g>
			<g class="clickable" id="A1-0-21-B">
				<rect id="room-box-27" x="2939.4" y="2079" class="st7" width="283.2" height="177.5"/>
			</g>
			<rect id="room-box-28" x="4415.9" y="1313.8" class="st2" width="983.8" height="512.5"/>
			<g class="clickable" id="A1-0-09">
				<rect id="room-box-29" x="742.5" y="2900" class="st5" width="143.7" height="94"/>
			</g>
			<g class="clickable" id="A1-0-42">
				<rect id="room-box-30" x="5281.2" y="675.6" class="st2" width="116.2" height="247.3"/>
			</g>
			<g class="clickable" id="A1-0-37">
				<rect id="room-box-31" x="2421.9" y="43.6" class="st2" width="2980.3" height="611.5"/>
			</g>
			<g class="clickable" id="A1-0-41">
				<rect id="room-box-32" x="2418.9" y="676" class="st2" width="123.1" height="108.3"/>
			</g>
			<g class="clickable" id="A1-0-24">
				<polygon id="room-box-33" class="st2" points="3301.9,1292.7 3470.9,1292.7 3750.9,1292.7 3750.9,1213.5 3470.9,1213.5 
					3304.9,1213.5 2995.4,1213.5 2995.4,1292.7 				"/>
			</g>
			<g class="clickable" id="A1-0-23">
				<polygon id="room-box-34" class="st2" points="3730.9,1806.2 3730.9,1640.3 3730.9,1476.5 3730.9,1313.8 42.8,1313.8 
					42.8,1476.5 42.8,1640.3 42.8,1806.2 				"/>
			</g>
			<g class="clickable" id="A1-0-29">
				<rect id="room-box-35" x="1859.2" y="1125.7" class="st2" width="141.7" height="167.5"/>
			</g>
			<g class="clickable" id="A1-0-29-A">
				<rect id="room-box-45" x="1859.2" y="943.8" class="st2" width="141.7" height="181.8"/>
			</g>
			<g class="clickable" id="A1-0-28">
				<rect id="room-box-53" x="2021.1" y="943.6" class="st2" width="132.1" height="349.1"/>
				<g id="scale" class="st8">
					<line class="st9" x1="2021.7" y1="942.6" x2="2153.1" y2="943.2"/>
					<polyline class="st9" points="2153.1,943.2 2151.8,1155.7 2092.4,1155.5 2093.4,1013.5 2079.1,1013.5 2078.1,1155.4 
						2020.3,1155.3 2021.7,942.6 					"/>
					<polyline class="st9" points="2123.2,1155.4 2124.2,984.5 2051.2,984.2 2050.2,1155.2 					"/>
					<line class="st9" x1="2153.1" y1="1041.5" x2="2092.6" y2="1041.2"/>
					<line class="st9" x1="2153.1" y1="1028.3" x2="2092.8" y2="1028.1"/>
					<line class="st9" x1="2153.1" y1="1015.7" x2="2092.9" y2="1015.5"/>
					<line class="st9" x1="2092.6" y1="1054.2" x2="2152.9" y2="1054.4"/>
					<line class="st9" x1="2079.1" y1="1015.5" x2="2021.2" y2="1015.3"/>
					<line class="st9" x1="2078.9" y1="1028" x2="2021.2" y2="1027.8"/>
					<line class="st9" x1="2078.9" y1="1041.2" x2="2021.1" y2="1041"/>
					<line class="st9" x1="2078.9" y1="1054" x2="2021.1" y2="1053.8"/>
					<line class="st9" x1="2078.8" y1="1066.9" x2="2020.8" y2="1066.6"/>
					<line class="st9" x1="2078.8" y1="1079.4" x2="2020.8" y2="1079.2"/>
					<line class="st9" x1="2078.6" y1="1092.1" x2="2020.8" y2="1091.9"/>
					<line class="st9" x1="2078.4" y1="1130.8" x2="2020.6" y2="1130.5"/>
					<line class="st9" x1="2078.2" y1="1142.9" x2="2020.4" y2="1142.7"/>
					<polyline class="st9" points="2020.4,1143.8 2050.1,1155.5 2078.1,1143.7 					"/>
					<polyline class="st9" points="2078.2,1143.4 2078.1,1157.5 2092.6,1157.6 2092.8,1117.4 					"/>
					<line class="st9" x1="2152.6" y1="1105" x2="2092.4" y2="1104.8"/>
					<line class="st9" x1="2152.8" y1="1079.5" x2="2092.4" y2="1079.3"/>
					<line class="st9" x1="2152.6" y1="1092.4" x2="2092.4" y2="1092.1"/>
					<line class="st9" x1="2152.8" y1="1066.9" x2="2092.6" y2="1066.6"/>
					<line class="st9" x1="2152.6" y1="1117.7" x2="2092.2" y2="1117.5"/>
					<line class="st9" x1="2152.4" y1="1130.4" x2="2092.2" y2="1130.2"/>
					<line class="st9" x1="2152.4" y1="1143.2" x2="2092.1" y2="1143"/>
					<line class="st9" x1="2078.6" y1="1104.6" x2="2020.7" y2="1104.4"/>
					<line class="st9" x1="2078.6" y1="1117.6" x2="2020.6" y2="1117.4"/>
				</g>
			</g>
			<g class="clickable" id="A1-0-33a">
				<rect id="room-box-36" x="209.6" y="943.4" class="st2" width="121.6" height="371"/>
			</g>
			<rect id="room-box-37" x="1639.4" y="1806.3" class="st2" width="201.9" height="599.1"/>
			<g class="clickable" id="A1-0-45">
				<polygon id="room-box-38" class="st2" points="3750.9,2818.6 4394.6,2818.6 4394.6,1314.9 3750.9,1313.8 				"/>
			</g>
			<g class="clickable" id="A1-0-11">
				<polygon id="room-box-39" class="st2" points="564.8,2994 722.3,2994 722.3,2973.9 722.3,2846 722.3,2517.4 564.8,2517.4 
					564.8,2877.7 				"/>
			</g>
			<g class="clickable" id="A1-0-03">
				<rect id="room-box-40" x="1642.8" y="2517.4" class="st2" width="197.6" height="116.3"/>
			</g>
			<g class="clickable" id="A1-0-07">
				<polygon id="room-box-41" class="st2" points="1840.3,2994 1840.3,2633.7 1808.7,2633.7 1671.2,2633.7 1642.8,2633.7 
					1642.8,2994 				"/>
			</g>
			<polygon id="room-box-42" class="st2" points="2173.8,1160.5 2173.8,1313.8 2213.4,1313.8 2358.1,1313.8 2397.9,1313.8 
				2397.9,1160.5 			"/>
			<g class="clickable" id="A1-0-02">
				<polygon id="room-box-43" class="st2" points="3623.1,2995.1 3732.1,2995.1 3730.4,2868.3 3730.4,2604.1 3623.1,2604.1 
					3623.1,2869.3 				"/>
			</g>
			<g class="clickable" id="A1-0-35-C">
				<rect id="room-box-44" x="4396.8" y="675.6" class="st2" width="174.4" height="247.3"/>
			</g>
			<g class="clickable" id="A1-0-02-A">
				<rect id="room-box-46" x="3440.4" y="2275.5" class="st2" width="182.8" height="107.9"/>
			</g>
			<g class="clickable" id="A1-0-10-A">
				<rect id="room-box-47" x="906" y="2517.4" class="st2" width="148" height="157.5"/>
			</g>
			<g class="clickable" id="A1-0-35-B">
				<polygon id="room-box-48" class="st2" points="5399.6,1292.7 5399.6,943.8 3750.9,943.8 3750.9,1025.3 3750.9,1213.5 
					3750.9,1292.7 				"/>
				<path id="stairs-fixed" class="st10" d="M4089.8,1312.9h200.8v-56.2h-404.8v56.2H4089.8z M4288.4,1310.7h-198.6v-8.4h198.6
					V1310.7z M4089.8,1300.1v-8.4h198.6v8.4H4089.8z M4089.8,1259l179.5,8.4h-179.5L4089.8,1259L4089.8,1259z M4086.4,1267.4h-179.6
					l179.6-8.4V1267.4z M4288.4,1288.5h-198.6v-8.5h198.6V1288.5z M4288.4,1277.9h-198.6v-8.5h198.6V1277.9z M4288.4,1267.2
					l-180.1-8.3h180.1V1267.2z M4068,1258.8l-180.1,8.3v-8.3H4068z M3887.9,1269.4h198.6v8.5h-198.6V1269.4z M4086.5,1280v8.5
					h-198.6v-8.5H4086.5z M3887.9,1291.7h198.6v8.4h-198.6V1291.7z M3887.9,1310.7v-8.4h198.6v8.4H3887.9z"/>
			</g>
			<g class="clickable" id="A1-0-35-A">
				<rect x="4898.1" y="1015.8" class="st0" width="229.9" height="204.9"/>
				<polygon class="st6" points="5108.7,1015.6 5108.7,1015.6 4898.1,1015.6 4898.1,1015.8 4898.1,1073.4 4917.4,1073.4 
					4917.4,1034.9 5108.7,1034.9 5108.7,1201.3 4917.4,1201.3 4917.4,1163.1 4898.1,1163.1 4898.1,1219.9 4898.1,1220.6 
					5128,1220.6 5128,1220.6 5128,1220.6 5128,1015.6 				"/>
			</g>
			<rect id="room-box-49" x="3623.1" y="1806.2" class="st2" width="107.3" height="797.9"/>
			<path id="stairs-fixed-2" class="st10" d="M3675.1,2174.5h55.3v-43.3h-107.7v43.3H3675.1z M3677.8,2133.7l43.3,11.2h-43.3V2133.7
				z M3675.1,2144.9h-43.3l43.3-11.2V2144.9z M3728.2,2172.3h-50.6v-11.6h50.6V2172.3z M3728.2,2158.6h-50.6V2147h50.6V2158.6z
				 M3728.2,2144.6l-43.6-11.3h43.6V2144.6z M3668.1,2133.2l-43.6,11.3v-11.3H3668.1z M3624.6,2147h50.4v11.6h-50.4V2147z
				 M3675,2160.7v11.6h-50.4v-11.6H3675z"/>
			<rect id="room-box-50" x="4415.8" y="1827.3" class="st2" width="985.9" height="990.2"/>
			<path id="stairs-fixed-3" class="st10" d="M5361,2819.1h41.2v-993.3h-84.5v993.3H5361z M5361,2805.7h33.7l-33.7,10.9V2805.7z
				 M5358.9,2816.6l-33.4-10.9h33.4V2816.6z M5366.8,2816.9l33.4-10.8v10.8H5366.8z M5400.1,2803.6H5361v-11.2h39.1V2803.6z
				 M5400.1,2790.2H5361v-11.3h39.1V2790.2z M5400.1,2776.7H5361v-11.2h39.1V2776.7z M5400.1,2763.4H5361v-11.2h39.1V2763.4z
				 M5400.1,2750H5361v-11.3h39.1V2750z M5400.1,2736.5H5361v-11.3h39.1V2736.5z M5400.1,2723.1H5361v-11.3h39.1V2723.1z
				 M5400.1,2709.7H5361v-11.2h39.1V2709.7z M5400.1,2696.3H5361V2685h39.1V2696.3z M5400.1,2682.9H5361v-11.3h39.1V2682.9z
				 M5400.1,2669.4H5361v-11.2h39.1V2669.4z M5400.1,2656.1H5361v-10.7h39.1V2656.1z M5400.1,2642.7H5361v-10.8h39.1V2642.7z
				 M5400.1,2629.8H5361v-11.3h39.1V2629.8z M5400.1,2616.4H5361v-11.3h39.1V2616.4z M5400.1,2602.9H5361v-11.2h39.1V2602.9z
				 M5400.1,2589.6H5361v-11.3h39.1V2589.6z M5400.1,2576.2H5361v-11.3h39.1V2576.2z M5400.1,2562.7H5361v-11.2h39.1V2562.7z
				 M5400.1,2549.3H5361v-11.2h39.1V2549.3z M5400.1,2536H5361v-11.3h39.1V2536z M5400.1,2522.5H5361v-11.3h39.1V2522.5z
				 M5400.1,2509.1H5361v-11.3h39.1V2509.1z M5361,2495.6v-11.2h39.1v11.2H5361z M5400.1,2481.7H5361v-11.2h39.1V2481.7z
				 M5400.1,2468.3H5361v-11.2h39.1V2468.3z M5400.1,2455H5361v-11.3h39.1V2455z M5400.1,2441.5H5361v-11.2h39.1V2441.5z
				 M5400.1,2428.1H5361v-11.3h39.1V2428.1z M5400.1,2414.6H5361v-11.2h39.1V2414.6z M5400.1,2401.3H5361V2390h39.1V2401.3z
				 M5400.1,2387.9H5361v-11.3h39.1V2387.9z M5400.1,2374.4H5361v-11.2h39.1V2374.4z M5400.1,2361.1H5361v-11.2h39.1V2361.1z
				 M5400.1,2347.7H5361v-11.3h39.1V2347.7z M5400.1,2334.2H5361v-10.7h39.1V2334.2z M5400.1,2320.8H5361v-10.7h39.1V2320.8z
				 M5400.1,2308H5361v-11.3h39.1V2308z M5400.1,2294.5H5361v-11.3h39.1V2294.5z M5400.1,2281.2H5361v-11.3h39.1V2281.2z
				 M5400.1,2267.7H5361v-11.2h39.1V2267.7z M5400.1,2254.3H5361v-11.2h39.1V2254.3z M5400.1,2241H5361v-11.3h39.1V2241z
				 M5400.1,2227.5H5361v-11.2h39.1V2227.5z M5400.1,2214.1H5361v-11.3h39.1V2214.1z M5400.1,2200.6H5361v-11.2h39.1V2200.6z
				 M5400.1,2187.3H5361V2176h39.1V2187.3z M5400.1,2173.9H5361v-10.8h39.1V2173.9z M5400.1,2160.4H5361v-10.7h39.1V2160.4z
				 M5400.1,2147.6H5361v-11.2h39.1V2147.6z M5400.1,2134.2H5361v-11.3h39.1V2134.2z M5400.1,2120.8H5361v-11.2h39.1V2120.8z
				 M5400.1,2107.4H5361v-11.2h39.1V2107.4z M5400.1,2094H5361v-11.3h39.1V2094z M5400.1,2080.5H5361v-11.3h39.1V2080.5z
				 M5400.1,2067.3H5361v-11.5h39.1V2067.3z M5400.1,2053.8H5361v-11.2h39.1V2053.8z M5400.1,2040.4H5361v-11.3h39.1V2040.4z
				 M5400.1,2027.1H5361v-11.3h39.1V2027.1z M5400.1,2013.6H5361v-10.7h39.1V2013.6z M5400.1,2000.2H5361v-10.7h39.1V2000.2z
				 M5400.1,1987.4H5361v-11.3h39.1V1987.4z M5400.1,1973.9H5361v-11.3h39.1V1973.9z M5400.1,1960.5H5361v-11.3h39.1V1960.5z
				 M5400.1,1947.1H5361v-11.2h39.1V1947.1z M5400.1,1933.7H5361v-11.3h39.1V1933.7z M5400.1,1920.3H5361V1909h39.1V1920.3z
				 M5400.1,1906.8H5361v-11.2h39.1V1906.8z M5400.1,1893.5H5361v-11.2h39.1V1893.5z M5400.1,1880.1H5361v-11.3h39.1V1880.1z
				 M5400.1,1866.6H5361v-11.3h39.1V1866.6z M5361,1853.3V1842h39.1v11.2L5361,1853.3z M5361,1828h39.1v11.3H5361V1828z
				 M5319.8,1828h39.1v11.3h-39.1V1828z M5319.8,1841.9h39.1v11.2h-39.1V1841.9z M5319.8,1855.3h39.1v11.3h-39.1V1855.3z
				 M5319.8,1868.8h39.1v11.3h-39.1V1868.8z M5319.8,1882.2h39.1v11.2h-39.1V1882.2z M5319.8,1895.6h39.1v11.2h-39.1V1895.6z
				 M5319.8,1909h39.1v11.3h-39.1V1909z M5319.8,1922.4h39.1v11.3h-39.1V1922.4z M5319.8,1935.8h39.1v11.2h-39.1V1935.8z
				 M5319.8,1949.2h39.1v11.3h-39.1V1949.2z M5319.8,1962.6h39.1v11.3h-39.1V1962.6z M5319.8,1976.1h39.1v11.3h-39.1V1976.1z
				 M5319.8,1989.5h39.1v10.7h-39.1V1989.5z M5319.8,2002.9h39.1v10.7h-39.1V2002.9z M5319.8,2015.7h39.1v11.3h-39.1V2015.7z
				 M5319.8,2029.1h39.1v11.3h-39.1V2029.1z M5319.8,2042.6h39.1v11.2h-39.1V2042.6z M5319.8,2055.8h39.1v11.5h-39.1V2055.8z
				 M5319.8,2069.2h39.1v11.3h-39.1V2069.2z M5319.8,2082.7h39.1v11.3h-39.1V2082.7z M5319.8,2096.1h39.1v11.2h-39.1V2096.1z
				 M5319.8,2109.5h39.1v11.2h-39.1V2109.5z M5319.8,2122.9h39.1v11.3h-39.1V2122.9z M5319.8,2136.4h39.1v11.2h-39.1V2136.4z
				 M5319.8,2149.7h39.1v10.7h-39.1V2149.7z M5319.8,2163.1h39.1v10.8h-39.1V2163.1z M5319.8,2175.9h39.1v11.3h-39.1V2175.9z
				 M5319.8,2189.4h39.1v11.2h-39.1V2189.4z M5319.8,2202.8h39.1v11.3h-39.1V2202.8z M5319.8,2216.2h39.1v11.2h-39.1V2216.2z
				 M5319.8,2229.6h39.1v11.3h-39.1V2229.6z M5319.8,2243.1h39.1v11.2h-39.1V2243.1z M5319.8,2256.5h39.1v11.2h-39.1V2256.5z
				 M5319.8,2269.8h39.1v11.3h-39.1V2269.8z M5319.8,2283.2h39.1v11.3h-39.1V2283.2z M5319.8,2296.7h39.1v11.3h-39.1V2296.7z
				 M5319.8,2310.2h39.1v10.7h-39.1V2310.2z M5319.8,2323.5h39.1v10.7h-39.1V2323.5z M5319.8,2336.3h39.1v11.3h-39.1V2336.3z
				 M5319.8,2349.8h39.1v11.2h-39.1V2349.8z M5319.8,2363.2h39.1v11.2h-39.1V2363.2z M5319.8,2376.6h39.1v11.3h-39.1V2376.6z
				 M5319.8,2389.9h39.1v11.3h-39.1V2389.9z M5319.8,2403.4h39.1v11.2h-39.1V2403.4z M5319.8,2416.8h39.1v11.3h-39.1V2416.8z
				 M5319.8,2430.3h39.1v11.2h-39.1V2430.3z M5319.8,2443.6h39.1v11.3h-39.1V2443.6z M5319.8,2457.1h39.1v11.2h-39.1V2457.1z
				 M5358.9,2470.5v11.2h-39.1v-11.2H5358.9z M5319.8,2484.4h39.1v11.2h-39.1V2484.4z M5319.8,2497.8h39.1v11.3h-39.1V2497.8z
				 M5319.8,2511.1h39.1v11.3h-39.1V2511.1z M5319.8,2524.6h39.1v11.3h-39.1V2524.6z M5319.8,2538.1h39.1v11.2h-39.1V2538.1z
				 M5319.8,2551.5h39.1v11.2h-39.1V2551.5z M5319.8,2564.8h39.1v11.3h-39.1V2564.8z M5319.8,2578.2h39.1v11.3h-39.1V2578.2z
				 M5319.8,2591.7h39.1v11.2h-39.1V2591.7z M5319.8,2605.1h39.1v11.3h-39.1V2605.1z M5319.8,2618.4h39.1v11.3h-39.1V2618.4z
				 M5319.8,2631.9h39.1v10.8h-39.1V2631.9z M5319.8,2645.4h39.1v10.7h-39.1V2645.4z M5319.8,2658.2h39.1v11.2h-39.1V2658.2z
				 M5319.8,2671.6h39.1v11.3h-39.1V2671.6z M5319.8,2684.9h39.1v11.3h-39.1V2684.9z M5319.8,2698.4h39.1v11.2h-39.1V2698.4z
				 M5319.8,2711.8h39.1v11.3h-39.1V2711.8z M5319.8,2725.2h39.1v11.3h-39.1V2725.2z M5319.8,2738.6h39.1v11.3h-39.1V2738.6z
				 M5319.8,2752.1h39.1v11.2h-39.1V2752.1z M5319.8,2765.5h39.1v11.2h-39.1V2765.5z M5319.8,2778.9h39.1v11.3h-39.1V2778.9z
				 M5319.8,2792.3h39.1v11.2h-39.1V2792.3z M5319.8,2806.2l33.6,10.8h-33.6V2806.2z"/>
			<path id="stairs-fixed-4" class="st10" d="M4499.5,2818.1h84.8v-993.3h-169.1v993.3H4499.5z M4500.8,2804.6h69.5l-69.5,11.1
				V2804.6z M4498.6,2815.7l-69.1-11.1h69.1V2815.7z M4513.2,2815.9l69-11v11H4513.2z M4582.2,2802.5H4501v-11.2h81.3L4582.2,2802.5
				z M4582.2,2789.1H4501v-11.2h81.3L4582.2,2789.1z M4582.2,2775.7H4501v-11.3h81.3L4582.2,2775.7z M4582.2,2762.2H4501V2751h81.3
				L4582.2,2762.2z M4582.2,2748.9H4501v-11.3h81.3L4582.2,2748.9z M4582.2,2735.4H4501v-11.2h81.3L4582.2,2735.4z M4582.2,2722
				H4501v-11.2h81.3L4582.2,2722z M4582.2,2708.7H4501v-11.3h81.3L4582.2,2708.7z M4582.2,2695.2H4501V2684h81.3L4582.2,2695.2z
				 M4582.2,2681.8H4501v-11.2h81.3L4582.2,2681.8z M4582.2,2668.4H4501v-11.3h81.3L4582.2,2668.4z M4582.2,2654.9H4501v-10.7h81.3
				L4582.2,2654.9z M4582.2,2641.6H4501v-10.7h81.3L4582.2,2641.6z M4582.2,2628.8H4501v-11.3h81.3L4582.2,2628.8z M4582.2,2615.3
				H4501v-11.2h81.3L4582.2,2615.3z M4582.2,2601.9H4501v-11.3h81.3L4582.2,2601.9z M4582.2,2588.4H4501v-11.2h81.3L4582.2,2588.4z
				 M4582.2,2575.1H4501v-11.2h81.3L4582.2,2575.1z M4582.2,2561.7H4501v-11.3h81.3L4582.2,2561.7z M4582.2,2548.2H4501V2537h81.3
				L4582.2,2548.2z M4582.2,2534.9H4501v-11.3h81.3L4582.2,2534.9z M4582.2,2521.4H4501v-11.2h81.3L4582.2,2521.4z M4582.2,2508
				H4501v-11.3h81.3L4582.2,2508z M4500.8,2494.6v-11.3h81.3v11.3H4500.8z M4582.2,2480.7H4501v-11.3h81.3L4582.2,2480.7z
				 M4582.2,2467.2H4501V2456h81.3L4582.2,2467.2z M4582.2,2453.9H4501v-11.2h81.3L4582.2,2453.9z M4582.2,2440.5H4501v-11.3h81.3
				L4582.2,2440.5z M4582.2,2427.1H4501v-11.3h81.3L4582.2,2427.1z M4582.2,2413.6H4501v-11.3h81.3L4582.2,2413.6z M4582.2,2400.2
				H4501V2389h81.3L4582.2,2400.2z M4582.2,2386.8H4501v-11.2h81.3L4582.2,2386.8z M4582.2,2373.4H4501v-11.3h81.3L4582.2,2373.4z
				 M4582.2,2359.9H4501v-11.2h81.3L4582.2,2359.9z M4582.2,2346.6H4501v-11.2h81.3L4582.2,2346.6z M4582.2,2333.2H4501v-10.8h81.3
				L4582.2,2333.2z M4582.2,2319.7H4501V2309h81.3L4582.2,2319.7z M4582.2,2306.9H4501v-11.3h81.3L4582.2,2306.9z M4582.2,2293.4
				H4501v-11.2h81.3L4582.2,2293.4z M4582.2,2280.1H4501v-11.2h81.3L4582.2,2280.1z M4582.2,2266.7H4501v-11.3h81.3L4582.2,2266.7z
				 M4582.2,2253.2H4501V2242h81.3L4582.2,2253.2z M4582.2,2239.8H4501v-11.2h81.3L4582.2,2239.8z M4582.2,2226.5H4501v-11.3h81.3
				L4582.2,2226.5z M4582.2,2213H4501v-11.3h81.3L4582.2,2213z M4582.2,2199.6H4501v-11.3h81.3L4582.2,2199.6z M4582.2,2186.1H4501
				v-11.2h81.3L4582.2,2186.1z M4582.2,2172.8H4501v-10.7h81.3L4582.2,2172.8z M4582.2,2159.4H4501v-10.8h81.3L4582.2,2159.4z
				 M4582.2,2146.5H4501v-11.2h81.3L4582.2,2146.5z M4582.2,2133.1H4501v-11.2h81.3L4582.2,2133.1z M4582.2,2119.7H4501v-11.3h81.3
				L4582.2,2119.7z M4582.2,2106.3H4501V2095h81.3L4582.2,2106.3z M4582.2,2092.9H4501v-11.3h81.3L4582.2,2092.9z M4582.2,2079.4
				H4501v-11.2h81.3L4582.2,2079.4z M4582.2,2066.2H4501V2055h81.3L4582.2,2066.2z M4582.2,2052.8H4501v-11.3h81.3L4582.2,2052.8z
				 M4582.2,2039.3H4501v-11.2h81.3L4582.2,2039.3z M4582.2,2025.9H4501v-11.2h81.3L4582.2,2025.9z M4582.2,2012.6H4501v-10.8h81.3
				L4582.2,2012.6z M4582.2,1999.1H4501v-10.8h81.3L4582.2,1999.1z M4582.2,1986.3H4501V1975h81.3L4582.2,1986.3z M4582.2,1972.8
				H4501v-11.2h81.3L4582.2,1972.8z M4582.2,1959.4H4501v-11.2h81.3L4582.2,1959.4z M4582.2,1946.1H4501v-11.3h81.3L4582.2,1946.1z
				 M4582.2,1932.6H4501v-11.2h81.3L4582.2,1932.6z M4582.2,1919.2H4501V1908h81.3L4582.2,1919.2z M4582.2,1905.8H4501v-11.3h81.3
				L4582.2,1905.8z M4582.2,1892.4H4501v-11.3h81.3L4582.2,1892.4z M4582.2,1879H4501v-11.3h81.3L4582.2,1879z M4582.2,1865.5H4501
				v-11.2h81.3L4582.2,1865.5z M4500.8,1852.1v-11.3h81.3v11.2L4500.8,1852.1z M4500.8,1827h81.3v11.2h-81.3V1827z M4417.4,1827
				h81.2v11.2h-81.2V1827z M4417.4,1840.8h81.2v11.2h-81.2V1840.8z M4417.4,1854.3h81.2v11.2h-81.2V1854.3z M4417.4,1867.6h81.2
				v11.3h-81.2V1867.6z M4417.4,1881h81.2v11.3h-81.2V1881z M4417.4,1894.5h81.2v11.3h-81.2V1894.5z M4417.4,1908h81.2v11.2h-81.2
				V1908z M4417.4,1921.3h81.2v11.2h-81.2V1921.3z M4417.4,1934.7h81.2v11.3h-81.2V1934.7z M4417.4,1948.2h81.2v11.2h-81.2V1948.2z
				 M4417.4,1961.6h81.2v11.2h-81.2V1961.6z M4417.4,1974.9h81.2v11.3h-81.2V1974.9z M4417.4,1988.3h81.2v10.8h-81.2V1988.3z
				 M4417.4,2001.8h81.2v10.8h-81.2V2001.8z M4417.4,2014.7h81.2v11.2h-81.2V2014.7z M4417.4,2028.1h81.2v11.2h-81.2V2028.1z
				 M4417.4,2041.4h81.2v11.3h-81.2V2041.4z M4417.4,2054.9h81.2v11.2h-81.2V2054.9z M4417.4,2068.3h81.2v11.2h-81.2V2068.3z
				 M4417.4,2081.7h81.2v11.3h-81.2V2081.7z M4417.4,2094.9h81.2v11.5h-81.2V2094.9z M4417.4,2108.4h81.2v11.5h-81.2V2108.4z
				 M4417.4,2121.9h81.2v11.2h-81.2V2121.9z M4417.4,2135.2h81.2v11.2h-81.2V2135.2z M4417.4,2148.6h81.2v10.8h-81.2V2148.6z
				 M4417.4,2162.1h81.2v10.7h-81.2V2162.1z M4417.4,2174.9h81.2v11.2h-81.2V2174.9z M4417.4,2188.3h81.2v11.3h-81.2V2188.3z
				 M4417.4,2201.6h81.2v11.3h-81.2V2201.6z M4417.4,2215.1h81.2v11.3h-81.2V2215.1z M4417.4,2228.6h81.2v11.2h-81.2V2228.6z
				 M4417.4,2242h81.2v11.2h-81.2V2242z M4417.4,2255.3h81.2v11.3h-81.2V2255.3z M4417.4,2268.8h81.2v11.2h-81.2V2268.8z
				 M4417.4,2282.2h81.2v11.2h-81.2V2282.2z M4417.4,2295.6h81.2v11.3h-81.2V2295.6z M4417.4,2309h81.2v10.7h-81.2V2309z
				 M4417.4,2322.4h81.2v10.8h-81.2V2322.4z M4417.4,2335.3h81.2v11.2h-81.2V2335.3z M4417.4,2348.7h81.2v11.2h-81.2V2348.7z
				 M4417.4,2362.1h81.2v11.3h-81.2V2362.1z M4417.4,2375.5h81.2v11.2h-81.2V2375.5z M4417.4,2388.9h81.2v11.2h-81.2V2388.9z
				 M4417.4,2402.3h81.2v11.3h-81.2V2402.3z M4417.4,2415.8h81.2v11.3h-81.2V2415.8z M4417.4,2429.1h81.2v11.3h-81.2V2429.1z
				 M4417.4,2442.6h81.2v11.2h-81.2V2442.6z M4417.4,2456h81.2v11.2h-81.2V2456z M4498.6,2469.4v11.3h-81.2v-11.3H4498.6z
				 M4417.4,2483.3h81.2v11.3h-81.2V2483.3z M4417.4,2496.7h81.2v11.3h-81.2V2496.7z M4417.4,2510.1h81.2v11.2h-81.2V2510.1z
				 M4417.4,2523.5h81.2v11.3h-81.2V2523.5z M4417.4,2537h81.2v11.2h-81.2V2537z M4417.4,2550.4h81.2v11.3h-81.2V2550.4z
				 M4417.4,2563.8h81.2v11.2h-81.2V2563.8z M4417.4,2577.2h81.2v11.2h-81.2V2577.2z M4417.4,2590.6h81.2v11.3h-81.2V2590.6z
				 M4417.4,2604.1h81.2v11.2h-81.2V2604.1z M4417.4,2617.4h81.2v11.3h-81.2V2617.4z M4417.4,2630.9h81.2v10.7h-81.2V2630.9z
				 M4417.4,2644.3h81.2v10.7h-81.2V2644.3z M4417.4,2657.1h81.2v11.3h-81.2V2657.1z M4417.4,2670.6h81.2v11.2h-81.2V2670.6z
				 M4417.4,2683.9h81.2v11.2h-81.2V2683.9z M4417.4,2697.3h81.2v11.3h-81.2V2697.3z M4417.4,2710.8h81.2v11.2h-81.2V2710.8z
				 M4417.4,2724.2h81.2v11.2h-81.2V2724.2z M4417.4,2737.5h81.2v11.3h-81.2V2737.5z M4417.4,2751h81.2v11.2h-81.2V2751z
				 M4417.4,2764.4h81.2v11.3h-81.2V2764.4z M4417.4,2777.9h81.2v11.2h-81.2V2777.9z M4417.4,2791.2h81.2v11.2h-81.2V2791.2z
				 M4417.4,2804.8l69,11.1h-69V2804.8z"/>
			<g class="clickable" id="A1-0-35-D">
				<rect id="room-box-51" x="3439.2" y="675.6" class="st2" width="311.8" height="248.3"/>
				<g id="scala_B" class="st8">
					<line class="st11" x1="3441.2" y1="675.8" x2="3441.2" y2="922.6"/>
					<polyline class="st11" points="3441.2,922.6 3748.1,922.6 3748.1,811.3 3543.1,811.3 3543.1,784.5 3748.1,784.5 3748.1,675.8 
						3441.2,675.8 					"/>
					<polyline class="st11" points="3747.9,868.9 3501.1,868.9 3501.1,731.8 3747.9,731.8 					"/>
					<line class="st11" x1="3583.2" y1="923.5" x2="3583.2" y2="810.4"/>
					<line class="st11" x1="3564.1" y1="923.5" x2="3564.1" y2="810.4"/>
					<line class="st11" x1="3546.1" y1="923.5" x2="3546.1" y2="810.4"/>
					<line class="st11" x1="3601.8" y1="810.4" x2="3601.8" y2="923.5"/>
					<line class="st11" x1="3546.1" y1="784.5" x2="3546.1" y2="675.8"/>
					<line class="st11" x1="3564.1" y1="784.5" x2="3564.1" y2="675.8"/>
					<line class="st11" x1="3583.2" y1="784.5" x2="3583.2" y2="675.8"/>
					<line class="st11" x1="3601.8" y1="784.5" x2="3601.8" y2="675.8"/>
					<line class="st11" x1="3620.4" y1="784.5" x2="3620.4" y2="675.8"/>
					<line class="st11" x1="3638.6" y1="784.5" x2="3638.6" y2="675.8"/>
					<line class="st11" x1="3656.8" y1="784.5" x2="3656.8" y2="675.8"/>
					<line class="st11" x1="3712.6" y1="784.5" x2="3712.6" y2="675.8"/>
					<line class="st11" x1="3730.1" y1="784.5" x2="3730.1" y2="675.8"/>
					<polyline class="st11" points="3731.6,675.8 3748.4,731.7 3731.2,783.9 					"/>
					<polyline class="st11" points="3730.6,784.5 3751.2,784.5 3751.2,811.4 3693.2,811.4 					"/>
					<line class="st11" x1="3675.1" y1="923.5" x2="3675.1" y2="810.4"/>
					<line class="st11" x1="3638.4" y1="923.5" x2="3638.4" y2="810.4"/>
					<line class="st11" x1="3656.6" y1="923.5" x2="3656.6" y2="810.4"/>
					<line class="st11" x1="3619.9" y1="923.5" x2="3619.9" y2="810.4"/>
					<line class="st11" x1="3693.4" y1="923.5" x2="3693.4" y2="810.4"/>
					<line class="st11" x1="3711.8" y1="923.5" x2="3711.8" y2="810.4"/>
					<line class="st11" x1="3730.1" y1="923.5" x2="3730.1" y2="810.4"/>
					<line class="st11" x1="3674.9" y1="784.5" x2="3674.9" y2="675.8"/>
					<line class="st11" x1="3693.6" y1="784.5" x2="3693.6" y2="675.8"/>
				</g>
			</g>
			<g class="clickable" id="A1-0-10">
				<polygon id="room-box-52" class="st2" points="886,2879.9 886,2696.1 886,2538.6 742.2,2538.6 742.2,2879.9 				"/>
				<g id="scale-3" class="st8">
					<line class="st9" x1="885" y1="2538.2" x2="742.2" y2="2538.9"/>
					<polyline class="st9" points="742.2,2538.9 743.5,2807 808,2806.6 807.2,2627.5 822.7,2627.5 823.5,2806.5 886.3,2806.2 
						885,2538.2 					"/>
					<polyline class="st9" points="774.7,2806.4 773.7,2591 852.8,2590.6 854,2806.2 					"/>
					<line class="st9" x1="742.5" y1="2662.8" x2="807.8" y2="2662.6"/>
					<line class="st9" x1="742.2" y1="2646.3" x2="807.7" y2="2646"/>
					<line class="st9" x1="742.2" y1="2630.5" x2="807.7" y2="2630.1"/>
					<line class="st9" x1="808" y1="2678.8" x2="742.5" y2="2679.1"/>
					<line class="st9" x1="822.7" y1="2630" x2="885.5" y2="2629.8"/>
					<line class="st9" x1="822.8" y1="2645.8" x2="885.5" y2="2645.5"/>
					<line class="st9" x1="822.8" y1="2662.5" x2="885.7" y2="2662.1"/>
					<line class="st9" x1="822.8" y1="2678.7" x2="885.7" y2="2678.4"/>
					<line class="st9" x1="823" y1="2694.9" x2="885.8" y2="2694.6"/>
					<line class="st9" x1="823" y1="2710.8" x2="885.8" y2="2710.4"/>
					<line class="st9" x1="823" y1="2726.6" x2="886" y2="2726.4"/>
					<line class="st9" x1="823.2" y1="2775.4" x2="886.2" y2="2775.2"/>
					<line class="st9" x1="823.5" y1="2790.7" x2="886.2" y2="2790.4"/>
					<polyline class="st9" points="886.2,2791.8 854,2806.6 823.8,2791.8 					"/>
					<polyline class="st9" points="823.5,2791.2 823.5,2809.2 808,2809.2 807.7,2758.6 					"/>
					<line class="st9" x1="742.8" y1="2743" x2="808.2" y2="2742.7"/>
					<line class="st9" x1="742.7" y1="2710.9" x2="808" y2="2710.6"/>
					<line class="st9" x1="742.8" y1="2727" x2="808.2" y2="2726.6"/>
					<line class="st9" x1="742.5" y1="2694.9" x2="808" y2="2694.6"/>
					<line class="st9" x1="742.8" y1="2759.1" x2="808.2" y2="2758.8"/>
					<line class="st9" x1="742.8" y1="2775" x2="808.3" y2="2774.8"/>
					<line class="st9" x1="743" y1="2791.1" x2="808.5" y2="2790.8"/>
					<line class="st9" x1="823.2" y1="2742.5" x2="886" y2="2742.1"/>
					<line class="st9" x1="823.2" y1="2758.9" x2="886" y2="2758.5"/>
				</g>
			</g>
			<g class="clickable" id="A1-0-34">
				<polygon id="room-box-54" class="st2" points="189.6,1292.7 189.6,942.8 42.8,942.8 42.8,1093.5 42.8,1292.7 				"/>
				<g id="scale_00000114045027008154651220000003349323594177128851_">
					<g id="scale_00000085248639819382846290000003955667504570166687_" class="st8">
						<line class="st9" x1="188.1" y1="1293.5" x2="43.2" y2="1292.9"/>
						<polyline class="st9" points="43.2,1292.9 44.6,1080.4 110.1,1080.6 109,1222.6 124.8,1222.6 125.9,1080.7 189.6,1080.8 
							188.1,1293.5 						"/>
						<polyline class="st9" points="76.1,1080.7 75,1251.6 155.5,1251.9 156.6,1080.9 						"/>
						<line class="st9" x1="43.2" y1="1194.6" x2="109.9" y2="1194.9"/>
						<line class="st9" x1="43.2" y1="1207.8" x2="109.6" y2="1208"/>
						<line class="st9" x1="43.2" y1="1220.4" x2="109.5" y2="1220.6"/>
						<line class="st9" x1="109.9" y1="1181.9" x2="43.4" y2="1181.7"/>
						<line class="st9" x1="124.8" y1="1220.6" x2="188.6" y2="1220.8"/>
						<line class="st9" x1="125" y1="1208.1" x2="188.6" y2="1208.3"/>
						<line class="st9" x1="125" y1="1194.9" x2="188.7" y2="1195.1"/>
						<line class="st9" x1="125" y1="1182.1" x2="188.7" y2="1182.3"/>
						<line class="st9" x1="125.1" y1="1169.2" x2="189" y2="1169.5"/>
						<line class="st9" x1="125.1" y1="1156.7" x2="189" y2="1156.9"/>
						<line class="st9" x1="125.3" y1="1144" x2="189" y2="1144.2"/>
						<line class="st9" x1="125.5" y1="1105.3" x2="189.3" y2="1105.6"/>
						<line class="st9" x1="125.7" y1="1093.2" x2="189.5" y2="1093.4"/>
						<polyline class="st9" points="189.5,1092.3 156.7,1080.6 125.9,1092.4 						"/>
						<polyline class="st9" points="125.7,1092.7 125.9,1078.6 109.9,1078.5 109.6,1118.7 						"/>
						<line class="st9" x1="43.7" y1="1131.1" x2="110.1" y2="1131.3"/>
						<line class="st9" x1="43.5" y1="1156.6" x2="110.1" y2="1156.8"/>
						<line class="st9" x1="43.7" y1="1143.7" x2="110.1" y2="1144"/>
						<line class="st9" x1="43.5" y1="1169.2" x2="109.9" y2="1169.5"/>
						<line class="st9" x1="43.7" y1="1118.4" x2="110.3" y2="1118.6"/>
						<line class="st9" x1="43.9" y1="1105.7" x2="110.3" y2="1105.9"/>
						<line class="st9" x1="43.9" y1="1092.9" x2="110.4" y2="1093.1"/>
						<line class="st9" x1="125.3" y1="1131.5" x2="189.2" y2="1131.7"/>
						<line class="st9" x1="125.3" y1="1118.5" x2="189.3" y2="1118.7"/>
					</g>
				</g>
			</g>
			<g class="clickable" id="A1-0-43">
				<rect id="room-box-55" x="4850" y="675.6" class="st2" width="406.9" height="247.3"/>
				<g id="aaa" class="st8">
					<line class="st11" x1="4850" y1="676.3" x2="4850" y2="923.2"/>
					<polyline class="st11" points="4850,923.2 5253,923.2 5253,811.9 4983.9,811.9 4983.9,785.1 5253,785.1 5253,676.3 4850,676.3 
											"/>
					<polyline class="st11" points="5252.5,869.6 4928.5,869.6 4928.5,732.5 5252.6,732.5 					"/>
					<line class="st11" x1="5036.5" y1="924.1" x2="5036.5" y2="810.9"/>
					<line class="st11" x1="5011.4" y1="924.1" x2="5011.4" y2="810.9"/>
					<line class="st11" x1="4987.6" y1="924.1" x2="4987.6" y2="810.9"/>
					<line class="st11" x1="5060.9" y1="810.9" x2="5060.9" y2="924.1"/>
					<line class="st11" x1="4987.6" y1="785.1" x2="4987.6" y2="676.3"/>
					<line class="st11" x1="5011.4" y1="785.1" x2="5011.4" y2="676.3"/>
					<line class="st11" x1="5036.5" y1="785.1" x2="5036.5" y2="676.3"/>
					<line class="st11" x1="5060.9" y1="785.1" x2="5060.9" y2="676.3"/>
					<line class="st11" x1="5085.1" y1="785.1" x2="5085.1" y2="676.3"/>
					<line class="st11" x1="5109" y1="785.1" x2="5109" y2="676.3"/>
					<line class="st11" x1="5133" y1="785.1" x2="5133" y2="676.3"/>
					<line class="st11" x1="5206.1" y1="785.1" x2="5206.1" y2="676.3"/>
					<line class="st11" x1="5229.2" y1="785.1" x2="5229.2" y2="676.3"/>
					<polyline class="st11" points="5231.4,676.3 5253.2,732.3 5230.6,784.4 					"/>
					<polyline class="st11" points="5230,785.1 5257,785.1 5257,811.9 5181,811.9 					"/>
					<line class="st11" x1="5157" y1="924.1" x2="5157" y2="810.9"/>
					<line class="st11" x1="5108.8" y1="924.1" x2="5108.8" y2="810.9"/>
					<line class="st11" x1="5132.9" y1="924.1" x2="5132.9" y2="810.9"/>
					<line class="st11" x1="5084.5" y1="924.1" x2="5084.5" y2="810.9"/>
					<line class="st11" x1="5181" y1="924.1" x2="5181" y2="810.9"/>
					<line class="st11" x1="5205.1" y1="924.1" x2="5205.1" y2="810.9"/>
					<line class="st11" x1="5229.2" y1="924.1" x2="5229.2" y2="810.9"/>
					<line class="st11" x1="5156.6" y1="785.1" x2="5156.6" y2="676.3"/>
					<line class="st11" x1="5181.4" y1="785.1" x2="5181.4" y2="676.3"/>
				</g>
			</g>
			<g class="clickable" id="A1-0-40">
				<rect id="room-box-56" x="2503.1" y="784.3" class="st2" width="306.4" height="139.5"/>
				<g id="scale_emergenza-2" class="st8">
					<line class="st9" x1="2809.4" y1="784.3" x2="2809.4" y2="923.3"/>
					<polyline class="st9" points="2809.4,923.3 2543.9,923.3 2543.9,860.6 2721.2,860.6 2721.2,845.5 2543.9,845.5 2543.9,784.3 
						2809.4,784.3 					"/>
					<polyline class="st9" points="2544.1,893.1 2757.6,893.1 2757.6,815.9 2544.1,815.9 					"/>
					<line class="st9" x1="2686.6" y1="923.7" x2="2686.6" y2="860"/>
					<line class="st9" x1="2703.1" y1="923.7" x2="2703.1" y2="860"/>
					<line class="st9" x1="2718.8" y1="923.7" x2="2718.8" y2="860"/>
					<line class="st9" x1="2670.4" y1="860" x2="2670.4" y2="923.7"/>
					<line class="st9" x1="2718.8" y1="845.5" x2="2718.8" y2="784.3"/>
					<line class="st9" x1="2703.1" y1="845.5" x2="2703.1" y2="784.3"/>
					<line class="st9" x1="2686.6" y1="845.5" x2="2686.6" y2="784.3"/>
					<line class="st9" x1="2670.4" y1="845.5" x2="2670.4" y2="784.3"/>
					<line class="st9" x1="2654.4" y1="845.5" x2="2654.4" y2="784.3"/>
					<line class="st9" x1="2638.8" y1="845.5" x2="2638.8" y2="784.3"/>
					<line class="st9" x1="2622.9" y1="845.5" x2="2622.9" y2="784.3"/>
					<line class="st9" x1="2574.6" y1="845.5" x2="2574.6" y2="784.3"/>
					<line class="st9" x1="2559.4" y1="845.5" x2="2559.4" y2="784.3"/>
					<polyline class="st9" points="2558.1,784.3 2543.6,815.8 2558.4,845.2 					"/>
					<polyline class="st9" points="2559.1,845.5 2541.2,845.5 2541.2,860.7 2591.4,860.7 					"/>
					<line class="st9" x1="2607.2" y1="923.7" x2="2607.2" y2="860"/>
					<line class="st9" x1="2639.1" y1="923.7" x2="2639.1" y2="860"/>
					<line class="st9" x1="2623.1" y1="923.7" x2="2623.1" y2="860"/>
					<line class="st9" x1="2654.9" y1="923.7" x2="2654.9" y2="860"/>
					<line class="st9" x1="2591.2" y1="923.7" x2="2591.2" y2="860"/>
					<line class="st9" x1="2575.4" y1="923.7" x2="2575.4" y2="860"/>
					<line class="st9" x1="2559.4" y1="923.7" x2="2559.4" y2="860"/>
					<line class="st9" x1="2607.4" y1="845.5" x2="2607.4" y2="784.3"/>
					<line class="st9" x1="2591.1" y1="845.5" x2="2591.1" y2="784.3"/>
				</g>
			</g>
			<g class="clickable" id="A1-0-01">
				<polygon id="room-box-57" class="st2" points="3601.9,2869.3 3601.9,2615.7 3439.2,2615.7 3439.2,2817.5 3439.2,2995.1 
					3601.9,2995.1 				"/>
			</g>
		</g>
		<g class="clickable" id="A1-1-01">
			<polygon id="room-box-65" class="st2" points="3601.9,2995.6 3601.9,2877.2 3601.9,2617.4 3439.4,2617.4 3439.4,2877.2 
				3439.4,2995.6 			"/>
			<g id="scale-4" class="st8">
				<line class="st9" x1="3600.9" y1="2618.3" x2="3439.8" y2="2618.3"/>
				<polyline class="st9" points="3439.8,2618.3 3439.8,2889.6 3512.4,2889.6 3512.4,2708.4 3529.9,2708.4 3529.9,2889.6 
					3600.9,2889.6 3600.9,2618.3 				"/>
				<polyline class="st9" points="3474.9,2889.3 3474.9,2671.2 3564.2,2671.2 3564.2,2889.4 				"/>
				<line class="st9" x1="3439.2" y1="2743.8" x2="3513.1" y2="2743.8"/>
				<line class="st9" x1="3439.2" y1="2727.1" x2="3513.1" y2="2727.1"/>
				<line class="st9" x1="3439.2" y1="2711" x2="3513.1" y2="2711"/>
				<line class="st9" x1="3513.1" y1="2760.2" x2="3439.2" y2="2760.2"/>
				<line class="st9" x1="3529.9" y1="2711" x2="3600.9" y2="2711"/>
				<line class="st9" x1="3529.9" y1="2727.1" x2="3600.9" y2="2727.1"/>
				<line class="st9" x1="3529.9" y1="2743.8" x2="3600.9" y2="2743.8"/>
				<line class="st9" x1="3529.9" y1="2760.2" x2="3600.9" y2="2760.2"/>
				<line class="st9" x1="3529.9" y1="2776.6" x2="3600.9" y2="2776.6"/>
				<line class="st9" x1="3529.9" y1="2792.7" x2="3600.9" y2="2792.7"/>
				<line class="st9" x1="3529.9" y1="2808.9" x2="3600.9" y2="2808.9"/>
				<line class="st9" x1="3529.9" y1="2858.2" x2="3600.9" y2="2858.2"/>
				<line class="st9" x1="3529.9" y1="2873.7" x2="3600.9" y2="2873.7"/>
				<polyline class="st9" points="3600.9,2875 3564.4,2889.9 3530.4,2874.7 				"/>
				<polyline class="st9" points="3529.9,2874.1 3529.9,2892.3 3512.4,2892.3 3512.4,2841.1 				"/>
				<line class="st9" x1="3439.2" y1="2824.9" x2="3513.1" y2="2824.9"/>
				<line class="st9" x1="3439.2" y1="2792.5" x2="3513.1" y2="2792.5"/>
				<line class="st9" x1="3439.2" y1="2808.7" x2="3513.1" y2="2808.7"/>
				<line class="st9" x1="3439.2" y1="2776.3" x2="3513.1" y2="2776.3"/>
				<line class="st9" x1="3439.2" y1="2841.2" x2="3513.1" y2="2841.2"/>
				<line class="st9" x1="3439.2" y1="2857.4" x2="3513.1" y2="2857.4"/>
				<line class="st9" x1="3439.2" y1="2873.7" x2="3513.1" y2="2873.7"/>
				<line class="st9" x1="3529.9" y1="2824.8" x2="3600.9" y2="2824.8"/>
				<line class="st9" x1="3529.9" y1="2841.4" x2="3600.9" y2="2841.4"/>
			</g>
		</g>
	</g>
	<g id="floor-wall">
		<polygon class="st6" points="331.1,1293.8 330.5,1293.8 330.5,1314.3 488.8,1314.3 488.8,1293.8 351.5,1293.8 351.5,944.1 
			639.8,944.1 639.8,902.5 310.4,902.5 310.4,944.1 331.1,944.1 		"/>
		<polygon class="st6" points="1386.6,1292.8 1157.1,1292.8 1157.1,1313.2 1596.4,1313.2 1596.4,1292.8 1407.2,1292.8 1407.2,943 
			1699.7,943 1699.7,901.4 1298.7,901.4 1298.7,943 1386.6,943 		"/>
		<polygon class="st6" points="885.5,1293.8 625.2,1293.8 625.2,1314.3 1052.3,1314.3 1052.3,1293.8 906,1293.8 906,944.1 
			1204.4,944.1 1204.4,902.5 733.8,902.5 733.8,944.1 885.5,944.1 		"/>
		<polygon class="st6" points="3751.1,1291.7 3730.6,1291.7 3722.4,1291.7 3470.9,1291.7 3470.9,1312.2 3730.6,1312.2 
			3730.6,1491.2 3751.1,1491.2 3751.1,1312.2 3898.2,1312.2 3898.2,1291.7 3772.4,1291.7 		"/>
		<polygon class="st6" points="118.3,2838.6 522.7,2838.6 522.7,2876.7 564.2,2876.7 564.2,2517.2 543.8,2517.2 543.8,2797.1 
			115.4,2797.1 42.7,2797.1 42.7,2403 1638.8,2403 1638.8,2382.4 1639.2,2382.4 1639.2,1971.4 1639.2,1858.7 1639.2,1825.6 
			1639.2,1805.2 1573.3,1805.2 1561.3,1805.2 1431.6,1805.2 1431.6,1825.6 1561.3,1825.6 1573.3,1825.6 1618.7,1825.6 
			1618.7,2382.4 1165.9,2382.4 1165.9,1825.6 1329.8,1825.6 1329.8,1805.2 1061.1,1805.2 1061.1,1825.6 1145.3,1825.6 
			1145.3,2205.1 905.5,2205.1 905.5,1825.6 966.8,1825.6 966.8,1805.2 795,1805.2 795,1825.6 885,1825.6 885,2382.4 564.2,2382.4 
			564.2,1825.6 642.5,1825.6 700.8,1825.6 700.8,1805.2 638.2,1805.2 490.6,1805.2 363.6,1805.2 363.6,1825.6 494.9,1825.6 
			543.8,1825.6 543.8,2382.4 42.7,2382.4 42.7,1825.6 86.7,1825.6 155.1,1825.6 236.4,1825.6 236.4,1805.2 155.1,1805.2 
			86.7,1805.2 42.7,1805.2 42.7,1313.2 209.9,1313.2 209.9,1292.8 209.8,1292.8 209.8,1092 189.6,1092 189.6,1292.8 42.7,1292.8 
			42.7,943 228.9,943 228.9,901.4 1,901.4 1,1805.2 1,1825.6 1,2382.4 1,2403 1,2797.1 1,2832.6 1,2838.6 		"/>
		<polygon class="st6" points="3751.1,1157.8 3730.6,1157.8 3730.6,1192.3 3580.1,1192.3 3580.1,1212.9 3751.1,1212.8 		"/>
		<polygon class="st6" points="3730.6,2382.4 3730.6,2403 3730.6,2517.4 3730.6,2538 3730.6,2568.7 3730.6,2576.9 3730.6,2866.5 
			3751.1,2866.5 3751.1,2380.4 3730.6,2380.4 		"/>
		<polygon class="st6" points="3730.6,2995.5 3439.2,2995.5 3439.2,2616 3602.1,2616 3602.1,2869.4 3622.1,2869.4 3622.6,2517.8 
			3622.6,2517.8 3287.6,2517.4 3287.6,2538 3418.8,2538 3418.8,2995.5 2939.1,2992.3 2939.1,2538 3148.1,2538 3148.1,2517.4 
			2461.2,2517.4 2461.2,2538 2918.8,2538 2918.8,2992.3 1860.4,2994.5 1860.4,2538 2010.2,2538 2348.8,2538 2348.8,2517.4 
			2027.1,2517.4 2010.2,2517.4 1840.1,2517.4 1840.1,2538 1840.1,2633.9 1840.1,2655.2 1840.1,2994.5 1808.2,2994.5 1808.2,3037.1 
			3751.6,3038.2 3752.1,2994.8 3730.6,2994.8 		"/>
		<polygon class="st6" points="3730.6,1802.8 3730.6,1842.3 3730.6,2013 3730.6,2045.9 3730.6,2055.8 3730.6,2135 3730.6,2146.7 
			3730.6,2286.1 3751.1,2286.1 3751.1,2146.7 3751.1,2136.1 3751.1,1641 3730.6,1640 		"/>
		<polygon class="st6" points="2083.4,1826.7 2083.4,1806.3 1841.1,1806.3 1841.1,1826.7 1841.1,1859.7 1841.1,1972.5 
			1841.1,2383.5 1840.8,2383.5 1840.8,2404 2957.9,2405.8 2957.9,2383.4 2938.1,2383.4 2938.1,2275.5 3057.9,2275.5 3057.9,2383.4 
			3038.6,2383.4 3038.6,2404.6 3243.4,2404 3243.4,2383.5 3243.1,2383.5 3243.1,2369.6 3223.1,2369.6 3223.1,2383.5 3078.2,2383.5 
			3078.2,2275.5 3222.9,2275.5 3222.9,2290.3 3243.4,2290.3 3243.4,2275.5 3243.1,2275.5 3243.1,2255 2938.1,2255 2938.1,2078.5 
			3602.2,2078.5 3602.2,2255 3419.8,2255 3419.8,2275.5 3420.1,2275.5 3420.1,2404 3622.6,2404 3622.6,2383.5 3440.4,2383.5 
			3440.4,2275.5 3602.2,2275.5 3622.6,2276 3622.6,2022.7 3622.6,1832.8 3622.6,1826.7 3622.6,1806.3 2704.6,1806.3 2704.6,1826.7 
			2917.8,1826.7 2917.8,2383.5 2417.6,2383.5 2417.6,1826.7 2597.4,1826.7 2597.4,1806.3 2189.1,1806.3 2189.1,1826.7 
			2397.1,1826.7 2397.1,2383.5 1861.4,2383.5 1861.4,1826.7 		"/>
		<polygon class="st6" points="1642.2,2633.9 1642.2,2538 1641.7,2517.4 1512.1,2517.4 1512.1,2538 1621.8,2538 1621.8,2994.5 
			1305.8,2994.5 1305.8,2538 1407.2,2538 1407.2,2517.4 1285.2,2517.4 1285.2,2517.4 1239.4,2517.4 1239.4,2538 1285.2,2538 
			1285.2,2994.5 906.5,2994.5 906.5,2976 886,2976 886,2994.5 742.8,2994.5 742.8,2899.9 886,2899.9 886,2916.6 886,2918.3 
			906.5,2918.3 906.5,2916.6 906.5,2899.9 1074.8,2899.9 1074.8,2897.8 1074.8,2879.3 1074.8,2538 1122.7,2538 1122.7,2517.4 
			1054.7,2517.6 1054.7,2538.1 1054.3,2538.1 1054.3,2674.9 906.5,2674.9 906.5,2540 906.5,2538.1 906.2,2538.1 906.2,2517.6 
			894.8,2517.6 906.5,2517.4 742.8,2517.4 726.3,2517.4 722.2,2517.4 722.2,2772.7 742.8,2772.7 742.8,2538 886,2538 886,2879.3 
			722.2,2879.3 722.2,2892 722.2,2899.9 722.2,2994.5 564.2,2994.5 564.2,2971.9 522.7,2971.9 522.7,3037.1 564.2,3037.1 
			635.3,3037.1 1678.8,3037.1 1678.8,2994.5 1642.2,2994.5 1642.2,2655.2 		"/>
		<polygon class="st6" points="4396.5,675.7 3923.6,675.7 3923.6,655.2 4669,655.2 4669,675.7 4591.5,675.7 4591.5,922.6 
			4830,922.6 4830,675.7 4750.5,675.7 4750.5,655.2 5399.8,655.2 5399.8,458.8 5443.5,458.8 5443.5,739.8 5399.8,739.8 
			5399.8,675.7 5277.5,675.7 5277.5,735.4 5256.2,735.4 5256.2,675.7 4850,675.7 4850,922.6 5256.2,922.6 5256.2,865 5277.5,865 
			5277.5,922.6 5399.8,922.6 5399.8,858.3 5442.5,858.3 5442.5,1025.3 5399.8,1025.3 5399.8,943 4471.1,943 4396.5,942.4 
			4396.5,922 4417.9,922 4417.9,922.6 4571.1,922.6 4571.1,675.7 4417.9,675.7 		"/>
		<polygon class="st6" points="5399.8,1292.8 4279.1,1292.8 4279.1,1313.2 4394.1,1313.2 4394.9,2817.4 4415.6,2817.4 
			4415.6,2817.3 4416.1,2817.3 4416.1,2796.8 4415.6,2796.8 4415.6,1313.2 5399.8,1313.2 5399.8,2765.2 5400,2765.2 5400,2817.3 
			5441.4,2817.3 5441.4,2811.2 5441.4,2789.4 5442.5,1213.7 5399.8,1213.7 		"/>
		<polygon class="st6" points="2153.1,1293.8 1997.4,1293.8 1997.4,1314.3 2159.8,1314.3 2159.8,1314.3 2173.6,1314.3 
			2173.6,1293.8 2173.6,1293.8 2173.6,1250.1 2173.6,1241.9 2173.6,1161 2216.1,1161 2216.1,1118.6 2194.6,1118.6 2194.6,1098.6 
			2194.6,944.1 2194.6,908.7 2194.6,902.5 2124.4,902.5 2124.4,944.1 2153.1,944.1 		"/>
		<polygon class="st6" points="1859.2,1103.7 1859.2,944.1 2000.4,944.1 2000.4,1103.7 2000.4,1125.9 2000.4,1155 2020.8,1155 
			2020.8,944.1 2059.9,944.1 2059.9,902.5 1793.8,902.5 1793.8,944.1 1838.8,944.1 1838.8,1293.8 1704.4,1293.8 1704.4,1314.3 
			1883.1,1314.3 1883.1,1293.8 1859.2,1293.8 1859.2,1125.9 		"/>
		<polygon class="st6" points="2398.1,1313.2 2412.4,1313.2 2601.2,1313.2 2601.2,1292.8 2418.6,1292.8 2418.6,944.1 2974.9,944.1 
			2974.9,1292.8 2721.9,1292.8 2721.9,1313.2 3302.1,1313.2 3302.1,1292.8 2995.4,1292.8 2995.4,1212.9 3070.4,1212.9 
			3070.4,1192.3 2995.4,1192.3 2995.4,944.1 3238.2,944.1 3238.2,1192.3 3061.4,1192.3 3061.4,1212.9 3332.2,1212.9 3332.2,1192.3 
			3258.6,1192.3 3258.6,944.1 3524.9,944.1 3524.9,1192.3 3449.1,1192.3 3449.1,1212.9 3589.2,1212.9 3589.2,1192.3 3545.2,1192.3 
			3545.2,944.1 3730.6,944.1 3730.6,982.6 3751.1,982.6 3751.1,944.1 3751.1,923.6 3730.6,923.6 3726.4,923.6 3545.2,923.6 
			3524.9,923.6 3438.9,923.6 3438.9,675.7 3726.4,675.7 3730.6,675.7 3738.9,675.7 3751.1,675.7 3801.6,675.7 3801.6,655.2 
			3751.1,655.2 3738.9,655.2 3354.9,655.2 3354.9,675.7 3418.4,675.7 3418.4,923.6 3258.6,923.6 3238.2,923.6 3193.2,923.6 
			3193.2,675.7 3252.2,675.7 3252.2,655.2 3109.2,655.2 3109.2,675.7 3172.8,675.7 3172.8,923.6 2831.4,923.6 2831.4,675.7 
			3006.8,675.7 3006.8,655.2 2514.4,655.2 2514.4,675.7 2541.4,675.7 2541.4,783.1 2543.1,783.1 2561.6,783.1 2810.9,783.1 
			2810.9,923.6 2418.6,923.6 2418.6,889.9 2377.1,889.9 2377.1,923.6 2377.1,944.1 2377.1,1117.6 2355.1,1117.6 2355.1,1160 
			2398.1,1160 		"/>
		<polygon class="st6" points="2377.1,455.7 2377.1,655.2 2377.1,675.7 2377.1,818 2418.6,818 2418.6,675.7 2449.4,675.7 
			2449.4,655.2 2418.6,655.2 2418.6,455.7 		"/>
		<rect x="3439.2" y="2538.3" class="st12" width="162.6" height="58.4"/>
		<rect x="906" y="2692.8" class="st12" width="148.2" height="187.1"/>
		<rect x="906" y="2225.1" class="st12" width="239.9" height="156.9"/>
		<rect x="2557.2" y="675.1" class="st12" width="254.2" height="91.7"/>
		<polygon class="st6" points="3376.2,2178.6 3420.6,2178.6 3433.2,2178.6 3440.6,2178.6 3440.6,2064.6 3420.6,2064.6 
			3420.6,2158.6 3376.2,2158.6 		"/>
		<polygon class="st6" points="3226.1,2178.6 3243.1,2178.6 3287.4,2178.6 3287.4,2158.6 3243.1,2158.6 3243.1,2064.6 
			3222.9,2064.6 3222.9,2178.6 		"/>
		<rect x="564.7" y="2403.7" class="st2" width="3057.8" height="113.6"/>
		<rect x="3243.6" y="2178.6" class="st2" width="176.5" height="224.6"/>
		<polygon class="st6" points="5440.5,1.5 2380.1,1.5 2377.1,3.5 2377.1,43.1 2377.1,267 2418.6,267 2421.8,43.1 3774.2,43.1 
			3774.2,101 3774.2,122 3795.2,122 3838,122 3838,101 3795.2,101 3795.2,43.1 3958.9,43.1 3958.9,101 3916.1,101 3916.1,122 
			3958.9,122 3979.9,122 3979.9,101 3979.9,43.1 5403,43.1 5399.8,267 5443.5,267 5443.5,3.5 5443.5,1.4 		"/>
	</g>
</g>
<g>
	<rect x="3795.2" y="0.4" class="st2" width="163.7" height="100.6"/>
</g>
<g class="clickable" id="A1-0-26_00000044872116046586245380000014995762389748117141_">
	
		<pattern  id="room-box-23_00000021107948120430244610000001902359929010331838_" xlink:href="#pattern1" patternTransform="matrix(1 0 0 1 0 -2.1501)">
	</pattern>
	
		<rect id="room-box-23_00000152257330782529120940000009237384179255643801_" x="2995" y="943.9" style="fill:url(#room-box-23_00000021107948120430244610000001902359929010331838_);" width="243" height="248"/>
</g>
<rect x="2939.4" y="1826.3" class="st12" width="655.7" height="226.5"/>
</svg>
