<svg id="floor-01" xmlns="http://www.w3.org/2000/svg" xmlns:xlink="http://www.w3.org/1999/xlink" viewBox="0 0 5443.6 3040.1"><defs><clipPath id="clip-path"><rect width="44.8" height="44.8" style="fill:none"/></clipPath><pattern id="room-box-23_6_" data-name="room-box-23 6 " width="44.8" height="44.8" patternTransform="translate(-42975.67 -45501.96) rotate(-180) scale(1.12)" patternUnits="userSpaceOnUse" viewBox="0 0 44.8 44.8"><rect width="44.8" height="44.8" style="fill:none"/><rect width="44.8" height="44.8" style="fill:none"/><rect width="44.8" height="44.8" style="fill:none"/><rect width="44.8" height="44.8" style="fill:none"/><rect width="44.8" height="44.8" style="fill:none"/><rect width="44.8" height="44.8" style="fill:none"/><rect width="44.8" height="44.8" style="fill:none"/><g style="clip-path:url(#clip-path)"><rect x="-43.9" y="40.8" width="47.1" height="45.6" style="fill:#f2f2f2"/><line y1="44.8" x2="-44.7" y2="89.6" style="fill:none;stroke:#ddd;stroke-linecap:square;stroke-linejoin:round;stroke-width:20px"/><rect x="0.8" y="40.8" width="47.1" height="45.6" style="fill:#f2f2f2"/><line x1="44.8" y1="44.8" y2="89.6" style="fill:none;stroke:#ddd;stroke-linecap:square;stroke-linejoin:round;stroke-width:20px"/><line x1="89.6" y1="44.8" x2="44.8" y2="89.6" style="fill:none;stroke:#ddd;stroke-linecap:square;stroke-linejoin:round;stroke-width:20px"/><rect x="-43.9" y="-3.9" width="47.1" height="45.6" style="fill:#f2f2f2"/><line x2="-44.7" y2="44.8" style="fill:none;stroke:#ddd;stroke-linecap:square;stroke-linejoin:round;stroke-width:20px"/><rect x="0.8" y="-3.9" width="47.1" height="45.6" style="fill:#f2f2f2"/><line x1="44.8" y2="44.8" style="fill:none;stroke:#ddd;stroke-linecap:square;stroke-linejoin:round;stroke-width:20px"/><line x1="89.6" x2="44.8" y2="44.8" style="fill:none;stroke:#ddd;stroke-linecap:square;stroke-linejoin:round;stroke-width:20px"/><line y1="-44.7" x2="-44.7" style="fill:none;stroke:#ddd;stroke-linecap:square;stroke-linejoin:round;stroke-width:20px"/><line x1="44.8" y1="-44.7" style="fill:none;stroke:#ddd;stroke-linecap:square;stroke-linejoin:round;stroke-width:20px"/><line x1="89.6" y1="-44.7" x2="44.8" style="fill:none;stroke:#ddd;stroke-linecap:square;stroke-linejoin:round;stroke-width:20px"/></g></pattern><pattern id="SVGID_33_" data-name="SVGID 33 " width="32" height="31.9" patternTransform="matrix(-0.63, 0, 0, 0.63, -31824.96, 27219.96)" patternUnits="userSpaceOnUse" viewBox="0 0 32 31.9"><rect width="32" height="31.9" style="fill:none"/><rect width="32" height="31.9" style="fill:none"/><rect width="32" height="31.9" style="fill:none"/><rect width="32" height="31.9" style="fill:none"/><rect width="32" height="31.9" style="fill:none"/><rect width="32" height="31.9" style="fill:none"/><rect width="32" height="31.9" style="fill:none"/><rect width="32" height="31.9" style="fill:none"/><rect width="32" height="31.9" style="fill:none"/><rect x="0.1" width="32" height="31.9" style="fill:none"/><rect x="0.1" width="31.9" height="31.9" style="fill:none"/><rect x="0.1" width="31.9" height="31.9" style="fill:none"/><rect x="29.7" y="-29.6" width="33.5" height="32.4" style="fill:#f2f2f2"/><line x1="31.9" x2="63.8" y2="-31.9" style="fill:none;stroke:#ddd;stroke-linecap:square;stroke-linejoin:round;stroke-width:20px"/><rect x="-2.1" y="-29.6" width="33.5" height="32.4" style="fill:#f2f2f2"/><line x1="0.1" x2="31.9" y2="-31.9" style="fill:none;stroke:#ddd;stroke-linecap:square;stroke-linejoin:round;stroke-width:20px"/><line x1="-31.8" x2="0.1" y2="-31.9" style="fill:none;stroke:#ddd;stroke-linecap:square;stroke-linejoin:round;stroke-width:20px"/><rect x="29.7" y="2.2" width="33.5" height="32.4" style="fill:#f2f2f2"/><line x1="31.9" y1="31.9" x2="63.8" style="fill:none;stroke:#ddd;stroke-linecap:square;stroke-linejoin:round;stroke-width:20px"/><rect x="-2.1" y="2.2" width="33.5" height="32.4" style="fill:#f2f2f2"/><line x1="0.1" y1="31.9" x2="31.9" style="fill:none;stroke:#ddd;stroke-linecap:square;stroke-linejoin:round;stroke-width:20px"/><line x1="-31.8" y1="31.9" x2="0.1" style="fill:none;stroke:#ddd;stroke-linecap:square;stroke-linejoin:round;stroke-width:20px"/><line x1="31.9" y1="63.7" x2="63.8" y2="31.9" style="fill:none;stroke:#ddd;stroke-linecap:square;stroke-linejoin:round;stroke-width:20px"/><line x1="0.1" y1="63.7" x2="31.9" y2="31.9" style="fill:none;stroke:#ddd;stroke-linecap:square;stroke-linejoin:round;stroke-width:20px"/><line x1="-31.8" y1="63.7" x2="0.1" y2="31.9" style="fill:none;stroke:#ddd;stroke-linecap:square;stroke-linejoin:round;stroke-width:20px"/></pattern></defs><g id="a1-0"><g id="floor-0"><g id="floor-background"><polygon points="523.15 2839.2 523.15 3037.9 3751.35 3037.9 3751.35 2817.8 5442.25 2817.8 5442.25 1.4 2376.55 1.4 2376.55 1118.8 2194.75 1118.8 2194.75 902.2 1.05 902.2 1.05 2839.2 523.15 2839.2" style="fill:#f2f2f2;stroke:#b7b7b7;stroke-miterlimit:10;stroke-width:2px"/></g><g id="floor-rooms"><g id="main-entrance"><g id="Icons_Arrow_Down" data-name="Icons Arrow Down"><path id="_Color-2" data-name=" Color-2" d="M4028.65,2887.9l25.4-25.4v55.3h9.1v-55.3l25.4,25.4,6.5-6.4-36.4-36.4-36.4,36.4Z" style="fill:#010101"/></g><g id="Main_Entrance" data-name="Main Entrance"><path d="M3811,2977.4h27.5v5.2h-21.4v14.9h18.1v5.2h-18.1V3020h22.1v5.2H3811v-47.8Z" style="fill:#010101"/><path d="M3848.75,2989.7h4.9l.4,5.1h.2c3.4-3.4,7-6,11.9-6,7.4,0,10.8,4.8,10.8,13.8v22.5h-6v-21.7c0-6.6-2-9.4-6.6-9.4-3.6,0-6.1,1.8-9.7,5.4V3025h-6Z" style="fill:#010101"/><path d="M3889.65,3014.2v-19.5h-5.3v-4.5l5.5-.3.7-9.9h4.9v9.9h9.5v4.8h-9.5v19.7c0,4.4,1.3,6.9,5.5,6.9a11.22,11.22,0,0,0,4-1l1.1,4.5a20.88,20.88,0,0,1-6.5,1.3C3892.25,3026,3889.65,3021.2,3889.65,3014.2Z" style="fill:#010101"/><path d="M3913.15,2989.7h4.9l.4,6.4h.2c2.5-4.5,6.1-7.3,10-7.3a8.3,8.3,0,0,1,3.8.7l-1.1,5.3a9.89,9.89,0,0,0-3.5-.6c-3,0-6.5,2.1-9,8.1V3025h-6v-35.3Z" style="fill:#010101"/><path d="M3934.45,3015.9c0-7.8,6.6-11.6,21.7-13.3,0-4.6-1.6-9-7.3-9-4,0-7.8,1.9-10.6,3.8l-2.4-4a24.85,24.85,0,0,1,13.9-4.6c8.7,0,12.2,5.7,12.2,14.5V3025h-4.9l-.4-4.3h-.2c-3.4,2.8-7.3,5.1-11.7,5.1C3939,3026,3934.45,3022.3,3934.45,3015.9Zm21.7.6v-9.8c-11.9,1.5-15.8,4.4-15.8,8.9,0,4,2.7,5.6,6.2,5.6S3952.75,3019.5,3956.15,3016.5Z" style="fill:#010101"/><path d="M3973.35,3014.2v-19.5h-5.2v-4.5l5.5-.3.7-9.9h4.9v9.9h9.5v4.8h-9.5v19.7c0,4.4,1.3,6.9,5.5,6.9a11.22,11.22,0,0,0,4-1l1.1,4.5a20.88,20.88,0,0,1-6.5,1.3C3976,3026,3973.35,3021.2,3973.35,3014.2Z" style="fill:#010101"/><path d="M3993.25,3015.9c0-7.8,6.6-11.6,21.7-13.3,0-4.6-1.6-9-7.3-9-4,0-7.8,1.9-10.6,3.8l-2.4-4a24.85,24.85,0,0,1,13.9-4.6c8.7,0,12.2,5.7,12.2,14.5V3025h-4.9l-.4-4.3h-.2c-3.4,2.8-7.3,5.1-11.7,5.1C3997.75,3026,3993.25,3022.3,3993.25,3015.9Zm21.6.6v-9.8c-11.9,1.5-15.8,4.4-15.8,8.9,0,4,2.7,5.6,6.2,5.6S4011.55,3019.5,4014.85,3016.5Z" style="fill:#010101"/><path d="M4046.65,2989.7h4.9l.4,4h.2c3.1-2.7,7.2-4.9,11.2-4.9,9.1,0,14,7.1,14,18,0,12-7.2,19.1-15.3,19.1-3.3,0-6.5-1.5-9.8-4l.1,6.2v12h-6Zm24.8,17.2c0-7.9-2.7-13-9.3-13-3,0-6.1,1.7-9.4,4.8v18.5c3.3,2.7,6.3,3.7,8.7,3.7C4067.15,3021,4071.45,3015.7,4071.45,3006.9Z" style="fill:#010101"/><path d="M4087.05,2989.7h4.9l.4,6.4h.2c2.5-4.5,6.1-7.3,10.1-7.3a8.3,8.3,0,0,1,3.8.7l-1.1,5.3a9.89,9.89,0,0,0-3.5-.6c-3,0-6.5,2.1-9,8.1V3025h-6Z" style="fill:#010101"/><path d="M4111.15,2978.6a4.16,4.16,0,1,1,4.5,3.8h-.7A4.09,4.09,0,0,1,4111.15,2978.6Zm1.1,11.1h6v35.4h-6Z" style="fill:#010101"/><path d="M4130.15,2989.7h4.9l.4,5.1h.2c3.4-3.4,7-6,11.9-6,7.4,0,10.8,4.8,10.8,13.8v22.5h-6v-21.7c0-6.6-2-9.4-6.6-9.4-3.6,0-6.1,1.8-9.7,5.4V3025h-6Z" style="fill:#010101"/><path d="M4167.35,3007.5c0-11.8,8-18.6,17-18.6a14.87,14.87,0,0,1,10.3,4.2l-3,3.9a10.53,10.53,0,0,0-7.1-3.1c-6.4,0-11.1,5.5-11.1,13.6s4.5,13.5,10.9,13.5a12.27,12.27,0,0,0,8.3-3.5l2.6,4a17.27,17.27,0,0,1-11.5,4.5C4174.55,3026,4167.35,3019.2,4167.35,3007.5Z" style="fill:#010101"/><path d="M4202.05,2978.6a4.16,4.16,0,1,1,4.5,3.8h-.7A4.09,4.09,0,0,1,4202.05,2978.6Zm1.1,11.1h6v35.4h-6Z" style="fill:#010101"/><path d="M4221.05,2989.7h4.9l.4,4h.2c3.3-2.7,7.2-4.9,11.2-4.9,9.1,0,14,7.1,14,18,0,12-7.2,19.1-15.3,19.1-3.3,0-6.5-1.5-9.8-4l.1,6.2v12h-6v-50.4Zm24.8,17.2c0-7.9-2.7-13-9.3-13-3,0-6.1,1.7-9.4,4.8v18.5a14,14,0,0,0,8.7,3.7C4241.45,3021,4245.85,3015.7,4245.85,3006.9Z" style="fill:#010101"/><path d="M4258.25,3015.9c0-7.8,6.6-11.6,21.7-13.3,0-4.6-1.6-9-7.3-9-4,0-7.8,1.9-10.6,3.8l-2.4-4a24.85,24.85,0,0,1,13.9-4.6c8.7,0,12.2,5.7,12.2,14.5V3025h-4.9l-.4-4.3h-.2c-3.4,2.8-7.3,5.1-11.7,5.1C4262.75,3026,4258.25,3022.3,4258.25,3015.9Zm21.8.6v-9.8c-11.9,1.5-15.8,4.4-15.8,8.9,0,4,2.7,5.6,6.2,5.6s6.1-1.7,9.6-4.7Z" style="fill:#010101"/><path d="M4297.15,3018.1v-44.7h6v45.2c0,1.8.8,2.6,1.7,2.6a5.7,5.7,0,0,0,1.3-.1l.8,4.6a9.89,9.89,0,0,1-3.5.6C4299.05,3026,4297.15,3023.1,4297.15,3018.1Z" style="fill:#010101"/><path d="M4313.05,3007.5c0-11.6,7.8-18.6,16-18.6,9,0,14.2,6.5,14.2,16.6a20.41,20.41,0,0,1-.3,3.4h-23.9c.4,7.5,5.1,12.4,11.8,12.4a15.58,15.58,0,0,0,8.8-2.8l2.1,3.9a20.55,20.55,0,0,1-11.7,3.7C4320.55,3026,4313.05,3019.2,4313.05,3007.5Zm24.7-2.9c0-7.1-3.1-10.9-8.8-10.9-4.9,0-9.4,4-10.1,10.9Z" style="fill:#010101"/></g></g><g class="clickable" id="A1-0-44" data-name="customclass A1-0-44"><rect id="room-box-2" x="4591.25" y="675.6" width="238.8" height="247.3" style="fill:#ddd"/></g><g class="clickable" id="A1-0-38" data-name="customclass A1-0-38"><rect id="room-box-3" x="3192.95" y="675.6" width="225" height="248.3" style="fill:#ddd"/></g><g class="clickable" id="A1-0-39" data-name="customclass A1-0-39"><rect id="room-box-4" x="2831.55" y="675.6" width="341.3" height="248.3" style="fill:#ddd"/></g><g class="clickable" id="A1-0-27" data-name="customclass A1-0-27"><rect id="room-box-5" x="2418.35" y="943.9" width="556.9" height="348.7" style="fill:#ddd"/></g><g class="clickable" id="A1-0-30" data-name="customclass A1-0-30"><polygon id="room-box-6" points="1839.25 1294.9 1407.05 1293.8 1407.05 943.9 1839.25 943.9 1839.25 1294.9" style="fill:#ddd"/></g><g class="clickable" id="A1-0-31" data-name="customclass A1-0-31"><rect id="room-box-7" x="906.05" y="942.8" width="480.8" height="350.9" style="fill:#ddd"/></g><g class="clickable" id="A1-0-32" data-name="customclass A1-0-32"><rect id="room-box-8" x="351.45" y="943.8" width="534.6" height="349.8" style="fill:#ddd"/></g><g class="clickable" id="A1-0-13" data-name="customclass A1-0-13"><rect id="room-box-9" x="42.75" y="1826.3" width="500.9" height="555.9" style="fill:#ddd"/></g><g class="clickable" id="A1-0-14" data-name="customclass A1-0-14"><rect id="room-box-10" x="564.75" y="1826.3" width="320.2" height="555.9" style="fill:#ddd"/></g><g class="clickable" id="A1-0-16" data-name="customclass A1-0-16"><rect id="room-box-11" x="1166.05" y="1826.3" width="452.3" height="555.9" style="fill:#ddd"/></g><g class="clickable" id="A1-0-17" data-name="customclass A1-0-17"><rect id="room-box-12" x="1861.45" y="1827.4" width="535.8" height="555.9" style="fill:#ddd"/></g><g class="clickable" id="A1-0-18" data-name="customclass A1-0-18"><rect id="room-box-13" x="2417.25" y="1827.4" width="500.9" height="555.9" style="fill:#ddd"/></g><g class="clickable" id="A1-0-20" data-name="customclass A1-0-20"><rect id="room-box-14" x="3077.45" y="2275.1" width="145.9" height="109.1" style="fill:#ddd"/></g><g class="clickable" id="A1-0-04" data-name="customclass A1-0-04"><rect id="room-box-15" x="2939.45" y="2538.6" width="479.7" height="456.6" style="fill:#ddd"/></g><g class="clickable" id="A1-0-05" data-name="customclass A1-0-05"><rect id="room-box-16" x="1860.35" y="2538.6" width="1059" height="456.6" style="fill:#ddd"/></g><g class="clickable" id="A1-0-06" data-name="customclass A1-0-06"><rect id="room-box-17" x="1306.05" y="2538" width="316" height="456.6" style="fill:#ddd"/></g><g class="clickable" id="A1-0-12" data-name="customclass A1-0-12"><rect id="room-box-18" x="42.75" y="2403.3" width="500.9" height="394.2" style="fill:#ddd"/></g><g class="clickable" id="A1-0-46" data-name="customclass A1-0-46"><rect id="room-box-19" x="2938.25" y="2274.2" width="120.5" height="110.2" style="fill:#ddd"/></g><g class="clickable" id="A1-0-08" data-name="customclass A1-0-08"><polygon id="room-box-20" points="906.05 2994 1077.35 2994 1285.45 2994 1285.45 2900 1285.45 2538.6 1075.15 2538.6 1075.15 2900 906.05 2900 906.05 2994" style="fill:#ddd"/></g><g class="clickable" id="A1-0-36" data-name="customclass A1-0-36"><rect id="room-box-21" x="3544.85" y="943.8" width="186" height="248.3" style="fill:#f2f2f2"/></g><rect x="3381.75" y="943.9" width="19.3" height="269.1" style="fill:#b7b7b7"/><g class="clickable" id="A1-0-25-A" data-name="customclass A1-0-25-A"><rect id="room-box-22" x="3401.05" y="943.8" width="123.7" height="248.3" style="fill:#f2f2f2"/></g><g class="clickable" id="A1-0-25-B" data-name="customclass A1-0-25-B"><rect id="room-box-22-2" x="3258.05" y="945.6" width="123.7" height="248.3" style="fill:#f2f2f2"/></g><g class="clickable" id="A1-0-26" data-name="customclass A1-0-26"><rect id="room-box-23" x="2995.35" y="943.8" width="243.1" height="248.3" style="fill:url(#room-box-23_6_)"/></g><g class="clickable" id="A1-0-15" data-name="customclass A1-0-15"><rect id="room-box-24" x="906.25" y="1826.3" width="239.9" height="379.4" style="fill:#f2f2f2"/></g><g class="clickable" id="A1-0-21-A" data-name="customclass A1-0-21-A"><rect id="room-box-25" x="3440.25" y="2079" width="161.7" height="177.5" style="fill:#f2f2f2;stroke:#b7b7b7;stroke-miterlimit:10"/></g><g class="clickable" id="A1-0-22" data-name="customclass A1-0-22"><rect id="room-box-26" x="3243.05" y="2078.4" width="178.6" height="80.3" style="fill:#f2f2f2"/></g><g class="clickable" id="A1-0-21-B" data-name="customclass A1-0-21-B"><rect id="room-box-27" x="2939.35" y="2079" width="283.2" height="177.5" style="fill:#f2f2f2;stroke:#b7b7b7;stroke-miterlimit:10"/></g><rect id="room-box-28" x="4415.85" y="1313.8" width="983.8" height="512.5" style="fill:#f2f2f2"/><g class="clickable" id="A1-0-09" data-name="customclass A1-0-09"><rect id="room-box-29" x="742.45" y="2900" width="143.7" height="94" style="fill:#ddd"/></g><g class="clickable" id="A1-0-42" data-name="customclass A1-0-42"><rect id="room-box-30" x="5281.25" y="675.6" width="116.2" height="247.3" style="fill:#f2f2f2"/></g><g class="clickable" id="A1-0-37" data-name="customclass A1-0-37"><rect id="room-box-31" x="2421.95" y="43.6" width="2980.3" height="611.5" style="fill:#f2f2f2"/></g><g class="clickable" id="A1-0-41" data-name="customclass A1-0-41"><rect id="room-box-32" x="2418.95" y="676" width="123.1" height="108.3" style="fill:#f2f2f2"/></g><g class="clickable" id="A1-0-24" data-name="customclass A1-0-24"><polygon id="room-box-33" points="3301.85 1292.7 3470.95 1292.7 3750.95 1292.7 3750.95 1213.5 3470.95 1213.5 3304.95 1213.5 2995.35 1213.5 2995.35 1292.7 3301.85 1292.7" style="fill:#f2f2f2"/></g><g class="clickable" id="A1-0-23" data-name="customclass A1-0-23"><polygon id="room-box-34" points="3730.85 1806.2 3730.85 1640.3 3730.85 1476.5 3730.85 1313.8 42.75 1313.8 42.75 1476.5 42.75 1640.3 42.75 1806.2 3730.85 1806.2" style="fill:#f2f2f2"/></g><g class="clickable" id="A1-0-29" data-name="customclass A1-0-29"><rect id="room-box-35" x="1859.25" y="1125.7" width="141.7" height="167.5" style="fill:#f2f2f2"/></g><g class="clickable" id="A1-0-29-A" data-name="customclass A1-0-29-A"><rect id="room-box-45" x="1859.25" y="943.8" width="141.7" height="181.8" style="fill:#f2f2f2"/></g><g class="clickable" id="A1-0-28" data-name="customclass A1-0-28"><rect id="room-box-53" x="2021.05" y="943.6" width="132.1" height="349.1" style="fill:#f2f2f2"/><g id="scale" style="opacity:0.4000000059604645"><line x1="2021.65" y1="942.6" x2="2153.15" y2="943.2" style="fill:none;stroke:#b7b7b7;stroke-miterlimit:10;stroke-width:4px"/><polyline points="2153.15 943.2 2151.75 1155.7 2092.45 1155.5 2093.35 1013.5 2079.05 1013.5 2078.15 1155.4 2020.35 1155.3 2021.65 942.6" style="fill:none;stroke:#b7b7b7;stroke-miterlimit:10;stroke-width:4px"/><polyline points="2123.25 1155.4 2124.25 984.5 2051.25 984.2 2050.25 1155.2" style="fill:none;stroke:#b7b7b7;stroke-miterlimit:10;stroke-width:4px"/><line x1="2153.05" y1="1041.5" x2="2092.65" y2="1041.2" style="fill:none;stroke:#b7b7b7;stroke-miterlimit:10;stroke-width:4px"/><line x1="2153.05" y1="1028.3" x2="2092.75" y2="1028.1" style="fill:none;stroke:#b7b7b7;stroke-miterlimit:10;stroke-width:4px"/><line x1="2153.15" y1="1015.7" x2="2092.95" y2="1015.5" style="fill:none;stroke:#b7b7b7;stroke-miterlimit:10;stroke-width:4px"/><line x1="2092.65" y1="1054.2" x2="2152.85" y2="1054.4" style="fill:none;stroke:#b7b7b7;stroke-miterlimit:10;stroke-width:4px"/><line x1="2079.05" y1="1015.5" x2="2021.25" y2="1015.3" style="fill:none;stroke:#b7b7b7;stroke-miterlimit:10;stroke-width:4px"/><line x1="2078.95" y1="1028" x2="2021.15" y2="1027.8" style="fill:none;stroke:#b7b7b7;stroke-miterlimit:10;stroke-width:4px"/><line x1="2078.95" y1="1041.2" x2="2021.05" y2="1041" style="fill:none;stroke:#b7b7b7;stroke-miterlimit:10;stroke-width:4px"/><line x1="2078.85" y1="1054" x2="2021.05" y2="1053.8" style="fill:none;stroke:#b7b7b7;stroke-miterlimit:10;stroke-width:4px"/><line x1="2078.75" y1="1066.9" x2="2020.85" y2="1066.6" style="fill:none;stroke:#b7b7b7;stroke-miterlimit:10;stroke-width:4px"/><line x1="2078.75" y1="1079.4" x2="2020.75" y2="1079.2" style="fill:none;stroke:#b7b7b7;stroke-miterlimit:10;stroke-width:4px"/><line x1="2078.65" y1="1092.1" x2="2020.75" y2="1091.9" style="fill:none;stroke:#b7b7b7;stroke-miterlimit:10;stroke-width:4px"/><line x1="2078.45" y1="1130.8" x2="2020.55" y2="1130.5" style="fill:none;stroke:#b7b7b7;stroke-miterlimit:10;stroke-width:4px"/><line x1="2078.25" y1="1142.9" x2="2020.45" y2="1142.7" style="fill:none;stroke:#b7b7b7;stroke-miterlimit:10;stroke-width:4px"/><polyline points="2020.45 1143.8 2050.05 1155.5 2078.05 1143.7" style="fill:none;stroke:#b7b7b7;stroke-miterlimit:10;stroke-width:4px"/><polyline points="2078.25 1143.4 2078.15 1157.5 2092.55 1157.6 2092.75 1117.4" style="fill:none;stroke:#b7b7b7;stroke-miterlimit:10;stroke-width:4px"/><line x1="2152.55" y1="1105" x2="2092.35" y2="1104.8" style="fill:none;stroke:#b7b7b7;stroke-miterlimit:10;stroke-width:4px"/><line x1="2152.75" y1="1079.5" x2="2092.45" y2="1079.3" style="fill:none;stroke:#b7b7b7;stroke-miterlimit:10;stroke-width:4px"/><line x1="2152.65" y1="1092.4" x2="2092.45" y2="1092.1" style="fill:none;stroke:#b7b7b7;stroke-miterlimit:10;stroke-width:4px"/><line x1="2152.75" y1="1066.9" x2="2092.55" y2="1066.6" style="fill:none;stroke:#b7b7b7;stroke-miterlimit:10;stroke-width:4px"/><line x1="2152.55" y1="1117.7" x2="2092.25" y2="1117.5" style="fill:none;stroke:#b7b7b7;stroke-miterlimit:10;stroke-width:4px"/><line x1="2152.45" y1="1130.4" x2="2092.25" y2="1130.2" style="fill:none;stroke:#b7b7b7;stroke-miterlimit:10;stroke-width:4px"/><line x1="2152.35" y1="1143.2" x2="2092.15" y2="1143" style="fill:none;stroke:#b7b7b7;stroke-miterlimit:10;stroke-width:4px"/><line x1="2078.55" y1="1104.6" x2="2020.65" y2="1104.4" style="fill:none;stroke:#b7b7b7;stroke-miterlimit:10;stroke-width:4px"/><line x1="2078.55" y1="1117.6" x2="2020.55" y2="1117.4" style="fill:none;stroke:#b7b7b7;stroke-miterlimit:10;stroke-width:4px"/></g></g><g class="clickable" id="A1-0-33" data-name="customclass A1-0-33"><rect id="room-box-36" x="209.65" y="943.4" width="121.6" height="371" style="fill:#f2f2f2"/></g><rect id="room-box-37" x="1639.45" y="1806.3" width="201.9" height="599.1" style="fill:#f2f2f2"/><g class="clickable" id="A1-0-45" data-name="customclass A1-0-45"><polygon id="room-box-38" points="3750.95 2818.6 4394.65 2818.6 4394.65 1314.9 3750.95 1313.8 3750.95 2818.6" style="fill:#f2f2f2"/></g><g class="clickable" id="A1-0-11" data-name="customclass A1-0-11"><polygon id="room-box-39" points="564.75 2994 722.35 2994 722.35 2973.9 722.35 2846 722.35 2517.4 564.75 2517.4 564.75 2877.7 564.75 2994" style="fill:#f2f2f2"/></g><g class="clickable" id="A1-0-03" data-name="customclass A1-0-03"><rect id="room-box-40" x="1642.75" y="2517.4" width="197.6" height="116.3" style="fill:#f2f2f2"/></g><g class="clickable" id="A1-0-07" data-name="customclass A1-0-07"><polygon id="room-box-41" points="1840.35 2994 1840.35 2633.7 1808.65 2633.7 1671.15 2633.7 1642.75 2633.7 1642.75 2994 1840.35 2994" style="fill:#f2f2f2"/></g><polygon id="room-box-42" points="2173.75 1160.5 2173.75 1313.8 2213.35 1313.8 2358.15 1313.8 2397.85 1313.8 2397.85 1160.5 2173.75 1160.5" style="fill:#f2f2f2"/><g class="clickable" id="A1-0-02" data-name="customclass A1-0-02"><polygon id="room-box-43" points="3623.15 2995.1 3732.05 2995.1 3730.35 2868.3 3730.35 2604.1 3623.15 2604.1 3623.15 2869.3 3623.15 2995.1" style="fill:#f2f2f2"/></g><g class="clickable" id="A1-0-35-C" data-name="customclass A1-0-35-C"><rect id="room-box-44" x="4396.75" y="675.6" width="174.4" height="247.3" style="fill:#f2f2f2"/></g><g class="clickable" id="A1-0-02-A" data-name="customclass A1-0-02-A"><rect id="room-box-46" x="3440.35" y="2275.5" width="182.8" height="107.9" style="fill:#f2f2f2"/></g><g class="clickable" id="A1-0-10-A" data-name="customclass A1-0-10-A"><rect id="room-box-47" x="906.05" y="2517.4" width="148" height="157.5" style="fill:#f2f2f2"/></g><g class="clickable" id="A1-0-35" data-name="customclass A1-0-35"><polygon id="room-box-48" points="5399.65 1292.7 5399.65 943.8 3750.95 943.8 3750.95 1025.3 3750.95 1213.5 3750.95 1292.7 5399.65 1292.7" style="fill:#f2f2f2"/><path id="stairs-fixed" d="M4089.75,1312.9h200.8v-56.2h-404.8v56.2Zm198.6-2.2h-198.6v-8.4h198.6Zm-198.6-10.6v-8.4h198.6v8.4Zm0-41.1,179.5,8.4h-179.5V1259Zm-3.3,8.4h-179.6l179.6-8.4Zm201.9,21.1h-198.6V1280h198.6Zm0-10.6h-198.6v-8.5h198.6Zm0-10.7-180.1-8.3h180.1Zm-220.4-8.4-180.1,8.3v-8.3Zm-180.1,10.6h198.6v8.5h-198.6Zm198.6,10.6v8.5h-198.6V1280Zm-198.6,11.7h198.6v8.4h-198.6Zm0,19v-8.4h198.6v8.4Z" style="fill:#b7b7b7;opacity:0.4000000059604645;isolation:isolate"/></g><rect id="room-box-49" x="3623.05" y="1806.2" width="107.3" height="797.9" style="fill:#f2f2f2"/><path id="stairs-fixed-2" d="M3675.05,2174.5h55.3v-43.3h-107.7v43.3Zm2.7-40.8,43.3,11.2h-43.3Zm-2.7,11.2h-43.3l43.3-11.2Zm53.2,27.4h-50.6v-11.6h50.6Zm0-13.7h-50.6V2147h50.6Zm0-14-43.6-11.3h43.6Zm-60.1-11.4-43.6,11.3v-11.3Zm-43.5,13.8h50.4v11.6h-50.4Zm50.4,13.7v11.6h-50.4v-11.6Z" style="fill:#b7b7b7;opacity:0.4000000059604645;isolation:isolate"/><rect id="room-box-50" x="4415.75" y="1827.3" width="985.9" height="990.2" style="fill:#f2f2f2"/><path id="stairs-fixed-3" d="M5361,2819.1h41.2V1825.8h-84.5v993.3Zm0-13.4h33.7l-33.7,10.9Zm-2.1,10.9-33.4-10.9h33.4Zm7.9.3,33.4-10.8v10.8Zm33.3-13.3H5361v-11.2h39.1Zm0-13.4H5361v-11.3h39.1Zm0-13.5H5361v-11.2h39.1Zm0-13.3H5361v-11.2h39.1Zm0-13.4H5361v-11.3h39.1Zm0-13.5H5361v-11.3h39.1Zm0-13.4H5361v-11.3h39.1Zm0-13.4H5361v-11.2h39.1Zm0-13.4H5361V2685h39.1Zm0-13.4H5361v-11.3h39.1Zm0-13.5H5361v-11.2h39.1Zm0-13.3H5361v-10.7h39.1Zm0-13.4H5361v-10.8h39.1Zm0-12.9H5361v-11.3h39.1Zm0-13.4H5361v-11.3h39.1Zm0-13.5H5361v-11.2h39.1Zm0-13.3H5361v-11.3h39.1Zm0-13.4H5361v-11.3h39.1Zm0-13.5H5361v-11.2h39.1Zm0-13.4H5361v-11.2h39.1Zm0-13.3H5361v-11.3h39.1Zm0-13.5H5361v-11.3h39.1Zm0-13.4H5361v-11.3h39.1Zm-39.1-13.5v-11.2h39.1v11.2Zm39.1-13.9H5361v-11.2h39.1Zm0-13.4H5361v-11.2h39.1Zm0-13.3H5361v-11.3h39.1Zm0-13.5H5361v-11.2h39.1Zm0-13.4H5361v-11.3h39.1Zm0-13.5H5361v-11.2h39.1Zm0-13.3H5361V2390h39.1Zm0-13.4H5361v-11.3h39.1Zm0-13.5H5361v-11.2h39.1Zm0-13.3H5361v-11.2h39.1Zm0-13.4H5361v-11.3h39.1Zm0-13.5H5361v-10.7h39.1Zm0-13.4H5361v-10.7h39.1Zm0-12.8H5361v-11.3h39.1Zm0-13.5H5361v-11.3h39.1Zm0-13.3H5361v-11.3h39.1Zm0-13.5H5361v-11.2h39.1Zm0-13.4H5361v-11.2h39.1Zm0-13.3H5361v-11.3h39.1Zm0-13.5H5361v-11.2h39.1Zm0-13.4H5361v-11.3h39.1Zm0-13.5H5361v-11.2h39.1Zm0-13.3H5361V2176h39.1Zm0-13.4H5361v-10.8h39.1Zm0-13.5H5361v-10.7h39.1Zm0-12.8H5361v-11.2h39.1Zm0-13.4H5361v-11.3h39.1Zm0-13.4H5361v-11.2h39.1Zm0-13.4H5361v-11.2h39.1Zm0-13.4H5361v-11.3h39.1Zm0-13.5H5361v-11.3h39.1Zm0-13.2H5361v-11.5h39.1Zm0-13.5H5361v-11.2h39.1Zm0-13.4H5361v-11.3h39.1Zm0-13.3H5361v-11.3h39.1Zm0-13.5H5361v-10.7h39.1Zm0-13.4H5361v-10.7h39.1Zm0-12.8H5361v-11.3h39.1Zm0-13.5H5361v-11.3h39.1Zm0-13.4H5361v-11.3h39.1Zm0-13.4H5361v-11.2h39.1Zm0-13.4H5361v-11.3h39.1Zm0-13.4H5361V1909h39.1Zm0-13.5H5361v-11.2h39.1Zm0-13.3H5361v-11.2h39.1Zm0-13.4H5361v-11.3h39.1Zm0-13.5H5361v-11.3h39.1Zm-39.1-13.3V1842h39.1v11.2Zm0-25.3h39.1v11.3H5361Zm-41.2,0h39.1v11.3h-39.1Zm0,13.9h39.1v11.2h-39.1Zm0,13.4h39.1v11.3h-39.1Zm0,13.5h39.1v11.3h-39.1Zm0,13.4h39.1v11.2h-39.1Zm0,13.4h39.1v11.2h-39.1Zm0,13.4h39.1v11.3h-39.1Zm0,13.4h39.1v11.3h-39.1Zm0,13.4h39.1V1947h-39.1Zm0,13.4h39.1v11.3h-39.1Zm0,13.4h39.1v11.3h-39.1Zm0,13.5h39.1v11.3h-39.1Zm0,13.4h39.1v10.7h-39.1Zm0,13.4h39.1v10.7h-39.1Zm0,12.8h39.1V2027h-39.1Zm0,13.4h39.1v11.3h-39.1Zm0,13.5h39.1v11.2h-39.1Zm0,13.2h39.1v11.5h-39.1Zm0,13.4h39.1v11.3h-39.1Zm0,13.5h39.1V2094h-39.1Zm0,13.4h39.1v11.2h-39.1Zm0,13.4h39.1v11.2h-39.1Zm0,13.4h39.1v11.3h-39.1Zm0,13.5h39.1v11.2h-39.1Zm0,13.3h39.1v10.7h-39.1Zm0,13.4h39.1v10.8h-39.1Zm0,12.8h39.1v11.3h-39.1Zm0,13.5h39.1v11.2h-39.1Zm0,13.4h39.1v11.3h-39.1Zm0,13.4h39.1v11.2h-39.1Zm0,13.4h39.1v11.3h-39.1Zm0,13.5h39.1v11.2h-39.1Zm0,13.4h39.1v11.2h-39.1Zm0,13.3h39.1v11.3h-39.1Zm0,13.4h39.1v11.3h-39.1Zm0,13.5h39.1V2308h-39.1Zm0,13.5h39.1v10.7h-39.1Zm0,13.3h39.1v10.7h-39.1Zm0,12.8h39.1v11.3h-39.1Zm0,13.5h39.1V2361h-39.1Zm0,13.4h39.1v11.2h-39.1Zm0,13.4h39.1v11.3h-39.1Zm0,13.3h39.1v11.3h-39.1Zm0,13.5h39.1v11.2h-39.1Zm0,13.4h39.1v11.3h-39.1Zm0,13.5h39.1v11.2h-39.1Zm0,13.3h39.1v11.3h-39.1Zm0,13.5h39.1v11.2h-39.1Zm39.1,13.4v11.2h-39.1v-11.2Zm-39.1,13.9h39.1v11.2h-39.1Zm0,13.4h39.1v11.3h-39.1Zm0,13.3h39.1v11.3h-39.1Zm0,13.5h39.1v11.3h-39.1Zm0,13.5h39.1v11.2h-39.1Zm0,13.4h39.1v11.2h-39.1Zm0,13.3h39.1v11.3h-39.1Zm0,13.4h39.1v11.3h-39.1Zm0,13.5h39.1v11.2h-39.1Zm0,13.4h39.1v11.3h-39.1Zm0,13.3h39.1v11.3h-39.1Zm0,13.5h39.1v10.8h-39.1Zm0,13.5h39.1v10.7h-39.1Zm0,12.8h39.1v11.2h-39.1Zm0,13.4h39.1v11.3h-39.1Zm0,13.3h39.1v11.3h-39.1Zm0,13.5h39.1v11.2h-39.1Zm0,13.4h39.1v11.3h-39.1Zm0,13.4h39.1v11.3h-39.1Zm0,13.4h39.1v11.3h-39.1Zm0,13.5h39.1v11.2h-39.1Zm0,13.4h39.1v11.2h-39.1Zm0,13.4h39.1v11.3h-39.1Zm0,13.4h39.1v11.2h-39.1Zm0,13.9,33.6,10.8h-33.6Z" style="fill:#b7b7b7;opacity:0.4000000059604645;isolation:isolate"/><path id="stairs-fixed-4" d="M4499.55,2818.1h84.8V1824.8h-169.1v993.3Zm1.3-13.5h69.5l-69.5,11.1Zm-2.2,11.1-69.1-11.1h69.1Zm14.6.2,69-11v11Zm69-13.4H4501v-11.2h81.3Zm0-13.4H4501v-11.2h81.3Zm0-13.4H4501v-11.3h81.3Zm0-13.5H4501V2751h81.3Zm0-13.3H4501v-11.3h81.3Zm0-13.5H4501v-11.2h81.3Zm0-13.4H4501v-11.2h81.3Zm0-13.3H4501v-11.3h81.3Zm0-13.5H4501V2684h81.3Zm0-13.4H4501v-11.2h81.3Zm0-13.4H4501v-11.3h81.3Zm0-13.5H4501v-10.7h81.3Zm0-13.3H4501v-10.7h81.3Zm0-12.8H4501v-11.3h81.3Zm0-13.5H4501v-11.2h81.3Zm0-13.4H4501v-11.3h81.3Zm0-13.5H4501v-11.2h81.3Zm0-13.3H4501v-11.2h81.3Zm0-13.4H4501v-11.3h81.3Zm0-13.5H4501V2537h81.3Zm0-13.3H4501v-11.3h81.3Zm0-13.5H4501v-11.2h81.3Zm0-13.4H4501v-11.3h81.3Zm-81.4-13.4v-11.3h81.3v11.3Zm81.4-13.9H4501v-11.3h81.3Zm0-13.5H4501V2456h81.3Zm0-13.3H4501v-11.2h81.3Zm0-13.4H4501v-11.3h81.3Zm0-13.4H4501v-11.3h81.3Zm0-13.5H4501v-11.3h81.3Zm0-13.4H4501V2389h81.3Zm0-13.4H4501v-11.2h81.3Zm0-13.4H4501v-11.3h81.3Zm0-13.5H4501v-11.2h81.3Zm0-13.3H4501v-11.2h81.3Zm0-13.4H4501v-10.8h81.3Zm0-13.5H4501V2309h81.3Zm0-12.8H4501v-11.3h81.3Zm0-13.5H4501v-11.2h81.3Zm0-13.3H4501v-11.2h81.3Zm0-13.4H4501v-11.3h81.3Zm0-13.5H4501V2242h81.3Zm0-13.4H4501v-11.2h81.3Zm0-13.3H4501v-11.3h81.3Zm0-13.5H4501v-11.3h81.3Zm0-13.4H4501v-11.3h81.3Zm0-13.5H4501v-11.2h81.3Zm0-13.3H4501v-10.7h81.3Zm0-13.4H4501v-10.8h81.3Zm0-12.9H4501v-11.2h81.3Zm0-13.4H4501v-11.2h81.3Zm0-13.4H4501v-11.3h81.3Zm0-13.4H4501V2095h81.3Zm0-13.4H4501v-11.3h81.3Zm0-13.5H4501v-11.2h81.3Zm0-13.2H4501V2055h81.3Zm0-13.4H4501v-11.3h81.3Zm0-13.5H4501v-11.2h81.3Zm0-13.4H4501v-11.2h81.3Zm0-13.3H4501v-10.8h81.3Zm0-13.5H4501v-10.8h81.3Zm0-12.8H4501V1975h81.3Zm0-13.5H4501v-11.2h81.3Zm0-13.4H4501v-11.2h81.3Zm0-13.3H4501v-11.3h81.3Zm0-13.5H4501v-11.2h81.3Zm0-13.4H4501V1908h81.3Zm0-13.4H4501v-11.3h81.3Zm0-13.4H4501v-11.3h81.3Zm0-13.4H4501v-11.3h81.3Zm0-13.5H4501v-11.2h81.3Zm-81.4-13.4v-11.3h81.3V1852Zm0-25.1h81.3v11.2h-81.3Zm-83.4,0h81.2v11.2h-81.2Zm0,13.8h81.2V1852h-81.2Zm0,13.5h81.2v11.2h-81.2Zm0,13.3h81.2v11.3h-81.2Zm0,13.4h81.2v11.3h-81.2Zm0,13.5h81.2v11.3h-81.2Zm0,13.5h81.2v11.2h-81.2Zm0,13.3h81.2v11.2h-81.2Zm0,13.4h81.2V1946h-81.2Zm0,13.5h81.2v11.2h-81.2Zm0,13.4h81.2v11.2h-81.2Zm0,13.3h81.2v11.3h-81.2Zm0,13.4h81.2v10.8h-81.2Zm0,13.5h81.2v10.8h-81.2Zm0,12.9h81.2v11.2h-81.2Zm0,13.4h81.2v11.2h-81.2Zm0,13.3h81.2v11.3h-81.2Zm0,13.5h81.2v11.2h-81.2Zm0,13.4h81.2v11.2h-81.2Zm0,13.4h81.2V2093h-81.2Zm0,13.2h81.2v11.5h-81.2Zm0,13.5h81.2v11.5h-81.2Zm0,13.5h81.2v11.2h-81.2Zm0,13.3h81.2v11.2h-81.2Zm0,13.4h81.2v10.8h-81.2Zm0,13.5h81.2v10.7h-81.2Zm0,12.8h81.2v11.2h-81.2Zm0,13.4h81.2v11.3h-81.2Zm0,13.3h81.2v11.3h-81.2Zm0,13.5h81.2v11.3h-81.2Zm0,13.5h81.2v11.2h-81.2Zm0,13.4h81.2v11.2h-81.2Zm0,13.3h81.2v11.3h-81.2Zm0,13.5h81.2V2280h-81.2Zm0,13.4h81.2v11.2h-81.2Zm0,13.4h81.2v11.3h-81.2Zm0,13.4h81.2v10.7h-81.2Zm0,13.4h81.2v10.8h-81.2Zm0,12.9h81.2v11.2h-81.2Zm0,13.4h81.2v11.2h-81.2Zm0,13.4h81.2v11.3h-81.2Zm0,13.4h81.2v11.2h-81.2Zm0,13.4h81.2v11.2h-81.2Zm0,13.4h81.2v11.3h-81.2Zm0,13.5h81.2v11.3h-81.2Zm0,13.3h81.2v11.3h-81.2Zm0,13.5h81.2v11.2h-81.2Zm0,13.4h81.2v11.2h-81.2Zm81.2,13.4v11.3h-81.2v-11.3Zm-81.2,13.9h81.2v11.3h-81.2Zm0,13.4h81.2V2508h-81.2Zm0,13.4h81.2v11.2h-81.2Zm0,13.4h81.2v11.3h-81.2Zm0,13.5h81.2v11.2h-81.2Zm0,13.4h81.2v11.3h-81.2Zm0,13.4h81.2V2575h-81.2Zm0,13.4h81.2v11.2h-81.2Zm0,13.4h81.2v11.3h-81.2Zm0,13.5h81.2v11.2h-81.2Zm0,13.3h81.2v11.3h-81.2Zm0,13.5h81.2v10.7h-81.2Zm0,13.4h81.2V2655h-81.2Zm0,12.8h81.2v11.3h-81.2Zm0,13.5h81.2v11.2h-81.2Zm0,13.3h81.2v11.2h-81.2Zm0,13.4h81.2v11.3h-81.2Zm0,13.5h81.2V2722h-81.2Zm0,13.4h81.2v11.2h-81.2Zm0,13.3h81.2v11.3h-81.2Zm0,13.5h81.2v11.2h-81.2Zm0,13.4h81.2v11.3h-81.2Zm0,13.5h81.2v11.2h-81.2Zm0,13.3h81.2v11.2h-81.2Zm0,13.6,69,11.1h-69Z" style="fill:#b7b7b7;opacity:0.4000000059604645;isolation:isolate"/><g class="clickable" id="A1-0-35-D" data-name="customclass A1-0-35-D"><rect id="room-box-51" x="3439.25" y="675.6" width="311.8" height="248.3" style="fill:#f2f2f2"/><g id="scala_B" data-name="scala B" style="opacity:0.4000000059604645"><line x1="3441.25" y1="675.8" x2="3441.25" y2="922.6" style="fill:none;stroke:#b7b7b7;stroke-miterlimit:10;stroke-width:5px"/><polyline points="3441.25 922.6 3748.15 922.6 3748.15 811.3 3543.15 811.3 3543.15 784.5 3748.15 784.5 3748.15 675.8 3441.25 675.8" style="fill:none;stroke:#b7b7b7;stroke-miterlimit:10;stroke-width:5px"/><polyline points="3747.85 868.9 3501.05 868.9 3501.05 731.8 3747.95 731.8" style="fill:none;stroke:#b7b7b7;stroke-miterlimit:10;stroke-width:5px"/><line x1="3583.25" y1="923.5" x2="3583.25" y2="810.4" style="fill:none;stroke:#b7b7b7;stroke-miterlimit:10;stroke-width:5px"/><line x1="3564.15" y1="923.5" x2="3564.15" y2="810.4" style="fill:none;stroke:#b7b7b7;stroke-miterlimit:10;stroke-width:5px"/><line x1="3546.05" y1="923.5" x2="3546.05" y2="810.4" style="fill:none;stroke:#b7b7b7;stroke-miterlimit:10;stroke-width:5px"/><line x1="3601.75" y1="810.4" x2="3601.75" y2="923.5" style="fill:none;stroke:#b7b7b7;stroke-miterlimit:10;stroke-width:5px"/><line x1="3546.05" y1="784.5" x2="3546.05" y2="675.8" style="fill:none;stroke:#b7b7b7;stroke-miterlimit:10;stroke-width:5px"/><line x1="3564.15" y1="784.5" x2="3564.15" y2="675.8" style="fill:none;stroke:#b7b7b7;stroke-miterlimit:10;stroke-width:5px"/><line x1="3583.25" y1="784.5" x2="3583.25" y2="675.8" style="fill:none;stroke:#b7b7b7;stroke-miterlimit:10;stroke-width:5px"/><line x1="3601.75" y1="784.5" x2="3601.75" y2="675.8" style="fill:none;stroke:#b7b7b7;stroke-miterlimit:10;stroke-width:5px"/><line x1="3620.35" y1="784.5" x2="3620.35" y2="675.8" style="fill:none;stroke:#b7b7b7;stroke-miterlimit:10;stroke-width:5px"/><line x1="3638.55" y1="784.5" x2="3638.55" y2="675.8" style="fill:none;stroke:#b7b7b7;stroke-miterlimit:10;stroke-width:5px"/><line x1="3656.75" y1="784.5" x2="3656.75" y2="675.8" style="fill:none;stroke:#b7b7b7;stroke-miterlimit:10;stroke-width:5px"/><line x1="3712.55" y1="784.5" x2="3712.55" y2="675.8" style="fill:none;stroke:#b7b7b7;stroke-miterlimit:10;stroke-width:5px"/><line x1="3730.05" y1="784.5" x2="3730.05" y2="675.8" style="fill:none;stroke:#b7b7b7;stroke-miterlimit:10;stroke-width:5px"/><polyline points="3731.65 675.8 3748.45 731.7 3731.25 783.9" style="fill:none;stroke:#b7b7b7;stroke-miterlimit:10;stroke-width:5px"/><polyline points="3730.65 784.5 3751.25 784.5 3751.25 811.4 3693.25 811.4" style="fill:none;stroke:#b7b7b7;stroke-miterlimit:10;stroke-width:5px"/><line x1="3675.05" y1="923.5" x2="3675.05" y2="810.4" style="fill:none;stroke:#b7b7b7;stroke-miterlimit:10;stroke-width:5px"/><line x1="3638.35" y1="923.5" x2="3638.35" y2="810.4" style="fill:none;stroke:#b7b7b7;stroke-miterlimit:10;stroke-width:5px"/><line x1="3656.65" y1="923.5" x2="3656.65" y2="810.4" style="fill:none;stroke:#b7b7b7;stroke-miterlimit:10;stroke-width:5px"/><line x1="3619.85" y1="923.5" x2="3619.85" y2="810.4" style="fill:none;stroke:#b7b7b7;stroke-miterlimit:10;stroke-width:5px"/><line x1="3693.35" y1="923.5" x2="3693.35" y2="810.4" style="fill:none;stroke:#b7b7b7;stroke-miterlimit:10;stroke-width:5px"/><line x1="3711.75" y1="923.5" x2="3711.75" y2="810.4" style="fill:none;stroke:#b7b7b7;stroke-miterlimit:10;stroke-width:5px"/><line x1="3730.05" y1="923.5" x2="3730.05" y2="810.4" style="fill:none;stroke:#b7b7b7;stroke-miterlimit:10;stroke-width:5px"/><line x1="3674.85" y1="784.5" x2="3674.85" y2="675.8" style="fill:none;stroke:#b7b7b7;stroke-miterlimit:10;stroke-width:5px"/><line x1="3693.55" y1="784.5" x2="3693.55" y2="675.8" style="fill:none;stroke:#b7b7b7;stroke-miterlimit:10;stroke-width:5px"/></g></g><g class="clickable" id="A1-0-10" data-name="customclass A1-0-10"><polygon id="room-box-52" points="886.05 2879.9 886.05 2696.1 886.05 2538.6 742.25 2538.6 742.25 2879.9 886.05 2879.9" style="fill:#f2f2f2"/><g id="scale-3" style="opacity:0.4000000059604645"><line x1="884.95" y1="2538.2" x2="742.25" y2="2538.9" style="fill:none;stroke:#b7b7b7;stroke-miterlimit:10;stroke-width:4px"/><polyline points="742.25 2538.9 743.55 2807 808.05 2806.6 807.15 2627.5 822.65 2627.5 823.45 2806.5 886.35 2806.2 884.95 2538.2" style="fill:none;stroke:#b7b7b7;stroke-miterlimit:10;stroke-width:4px"/><polyline points="774.65 2806.4 773.65 2591 852.85 2590.6 853.95 2806.2" style="fill:none;stroke:#b7b7b7;stroke-miterlimit:10;stroke-width:4px"/><line x1="742.45" y1="2662.8" x2="807.75" y2="2662.6" style="fill:none;stroke:#b7b7b7;stroke-miterlimit:10;stroke-width:4px"/><line x1="742.25" y1="2646.3" x2="807.65" y2="2646" style="fill:none;stroke:#b7b7b7;stroke-miterlimit:10;stroke-width:4px"/><line x1="742.15" y1="2630.5" x2="807.65" y2="2630.1" style="fill:none;stroke:#b7b7b7;stroke-miterlimit:10;stroke-width:4px"/><line x1="807.95" y1="2678.8" x2="742.45" y2="2679.1" style="fill:none;stroke:#b7b7b7;stroke-miterlimit:10;stroke-width:4px"/><line x1="822.65" y1="2630" x2="885.45" y2="2629.8" style="fill:none;stroke:#b7b7b7;stroke-miterlimit:10;stroke-width:4px"/><line x1="822.75" y1="2645.8" x2="885.55" y2="2645.5" style="fill:none;stroke:#b7b7b7;stroke-miterlimit:10;stroke-width:4px"/><line x1="822.75" y1="2662.5" x2="885.65" y2="2662.1" style="fill:none;stroke:#b7b7b7;stroke-miterlimit:10;stroke-width:4px"/><line x1="822.85" y1="2678.7" x2="885.65" y2="2678.4" style="fill:none;stroke:#b7b7b7;stroke-miterlimit:10;stroke-width:4px"/><line x1="822.95" y1="2694.9" x2="885.75" y2="2694.6" style="fill:none;stroke:#b7b7b7;stroke-miterlimit:10;stroke-width:4px"/><line x1="822.95" y1="2710.8" x2="885.85" y2="2710.4" style="fill:none;stroke:#b7b7b7;stroke-miterlimit:10;stroke-width:4px"/><line x1="823.05" y1="2726.6" x2="885.95" y2="2726.4" style="fill:none;stroke:#b7b7b7;stroke-miterlimit:10;stroke-width:4px"/><line x1="823.25" y1="2775.4" x2="886.25" y2="2775.2" style="fill:none;stroke:#b7b7b7;stroke-miterlimit:10;stroke-width:4px"/><line x1="823.45" y1="2790.7" x2="886.25" y2="2790.4" style="fill:none;stroke:#b7b7b7;stroke-miterlimit:10;stroke-width:4px"/><polyline points="886.25 2791.8 853.95 2806.6 823.75 2791.8" style="fill:none;stroke:#b7b7b7;stroke-miterlimit:10;stroke-width:4px"/><polyline points="823.45 2791.2 823.55 2809.2 807.95 2809.2 807.65 2758.6" style="fill:none;stroke:#b7b7b7;stroke-miterlimit:10;stroke-width:4px"/><line x1="742.75" y1="2743" x2="808.25" y2="2742.7" style="fill:none;stroke:#b7b7b7;stroke-miterlimit:10;stroke-width:4px"/><line x1="742.65" y1="2710.9" x2="808.05" y2="2710.6" style="fill:none;stroke:#b7b7b7;stroke-miterlimit:10;stroke-width:4px"/><line x1="742.75" y1="2727" x2="808.15" y2="2726.6" style="fill:none;stroke:#b7b7b7;stroke-miterlimit:10;stroke-width:4px"/><line x1="742.55" y1="2694.9" x2="807.95" y2="2694.6" style="fill:none;stroke:#b7b7b7;stroke-miterlimit:10;stroke-width:4px"/><line x1="742.85" y1="2759.1" x2="808.25" y2="2758.8" style="fill:none;stroke:#b7b7b7;stroke-miterlimit:10;stroke-width:4px"/><line x1="742.85" y1="2775" x2="808.35" y2="2774.8" style="fill:none;stroke:#b7b7b7;stroke-miterlimit:10;stroke-width:4px"/><line x1="742.95" y1="2791.1" x2="808.45" y2="2790.8" style="fill:none;stroke:#b7b7b7;stroke-miterlimit:10;stroke-width:4px"/><line x1="823.15" y1="2742.5" x2="885.95" y2="2742.1" style="fill:none;stroke:#b7b7b7;stroke-miterlimit:10;stroke-width:4px"/><line x1="823.15" y1="2758.9" x2="886.05" y2="2758.5" style="fill:none;stroke:#b7b7b7;stroke-miterlimit:10;stroke-width:4px"/></g></g><g class="clickable" id="A1-0-34" data-name="customclass A1-0-34"><polygon id="room-box-54" points="189.65 1292.7 189.65 942.8 42.75 942.8 42.75 1093.5 42.75 1292.7 189.65 1292.7" style="fill:#f2f2f2"/></g><g class="clickable" id="A1-0-43" data-name="customclass A1-0-43"><rect id="room-box-55" x="4850.05" y="675.6" width="406.9" height="247.3" style="fill:#f2f2f2"/><g id="aaa" style="opacity:0.4000000059604645"><line x1="4850.05" y1="676.3" x2="4850.05" y2="923.2" style="fill:none;stroke:#b7b7b7;stroke-miterlimit:10;stroke-width:5px"/><polyline points="4850.05 923.2 5253.05 923.2 5253.05 811.9 4983.85 811.9 4983.85 785.1 5253.05 785.1 5253.05 676.3 4850.05 676.3" style="fill:none;stroke:#b7b7b7;stroke-miterlimit:10;stroke-width:5px"/><polyline points="5252.55 869.6 4928.45 869.6 4928.45 732.5 5252.65 732.5" style="fill:none;stroke:#b7b7b7;stroke-miterlimit:10;stroke-width:5px"/><line x1="5036.45" y1="924.1" x2="5036.45" y2="810.9" style="fill:none;stroke:#b7b7b7;stroke-miterlimit:10;stroke-width:5px"/><line x1="5011.35" y1="924.1" x2="5011.35" y2="810.9" style="fill:none;stroke:#b7b7b7;stroke-miterlimit:10;stroke-width:5px"/><line x1="4987.65" y1="924.1" x2="4987.65" y2="810.9" style="fill:none;stroke:#b7b7b7;stroke-miterlimit:10;stroke-width:5px"/><line x1="5060.85" y1="810.9" x2="5060.85" y2="924.1" style="fill:none;stroke:#b7b7b7;stroke-miterlimit:10;stroke-width:5px"/><line x1="4987.65" y1="785.1" x2="4987.65" y2="676.3" style="fill:none;stroke:#b7b7b7;stroke-miterlimit:10;stroke-width:5px"/><line x1="5011.35" y1="785.1" x2="5011.35" y2="676.3" style="fill:none;stroke:#b7b7b7;stroke-miterlimit:10;stroke-width:5px"/><line x1="5036.45" y1="785.1" x2="5036.45" y2="676.3" style="fill:none;stroke:#b7b7b7;stroke-miterlimit:10;stroke-width:5px"/><line x1="5060.85" y1="785.1" x2="5060.85" y2="676.3" style="fill:none;stroke:#b7b7b7;stroke-miterlimit:10;stroke-width:5px"/><line x1="5085.15" y1="785.1" x2="5085.15" y2="676.3" style="fill:none;stroke:#b7b7b7;stroke-miterlimit:10;stroke-width:5px"/><line x1="5109.05" y1="785.1" x2="5109.05" y2="676.3" style="fill:none;stroke:#b7b7b7;stroke-miterlimit:10;stroke-width:5px"/><line x1="5132.95" y1="785.1" x2="5132.95" y2="676.3" style="fill:none;stroke:#b7b7b7;stroke-miterlimit:10;stroke-width:5px"/><line x1="5206.15" y1="785.1" x2="5206.15" y2="676.3" style="fill:none;stroke:#b7b7b7;stroke-miterlimit:10;stroke-width:5px"/><line x1="5229.25" y1="785.1" x2="5229.25" y2="676.3" style="fill:none;stroke:#b7b7b7;stroke-miterlimit:10;stroke-width:5px"/><polyline points="5231.35 676.3 5253.25 732.3 5230.65 784.4" style="fill:none;stroke:#b7b7b7;stroke-miterlimit:10;stroke-width:5px"/><polyline points="5230.05 785.1 5256.95 785.1 5256.95 811.9 5180.95 811.9" style="fill:none;stroke:#b7b7b7;stroke-miterlimit:10;stroke-width:5px"/><line x1="5156.95" y1="924.1" x2="5156.95" y2="810.9" style="fill:none;stroke:#b7b7b7;stroke-miterlimit:10;stroke-width:5px"/><line x1="5108.75" y1="924.1" x2="5108.75" y2="810.9" style="fill:none;stroke:#b7b7b7;stroke-miterlimit:10;stroke-width:5px"/><line x1="5132.85" y1="924.1" x2="5132.85" y2="810.9" style="fill:none;stroke:#b7b7b7;stroke-miterlimit:10;stroke-width:5px"/><line x1="5084.55" y1="924.1" x2="5084.55" y2="810.9" style="fill:none;stroke:#b7b7b7;stroke-miterlimit:10;stroke-width:5px"/><line x1="5181.05" y1="924.1" x2="5181.05" y2="810.9" style="fill:none;stroke:#b7b7b7;stroke-miterlimit:10;stroke-width:5px"/><line x1="5205.15" y1="924.1" x2="5205.15" y2="810.9" style="fill:none;stroke:#b7b7b7;stroke-miterlimit:10;stroke-width:5px"/><line x1="5229.25" y1="924.1" x2="5229.25" y2="810.9" style="fill:none;stroke:#b7b7b7;stroke-miterlimit:10;stroke-width:5px"/><line x1="5156.65" y1="785.1" x2="5156.65" y2="676.3" style="fill:none;stroke:#b7b7b7;stroke-miterlimit:10;stroke-width:5px"/><line x1="5181.35" y1="785.1" x2="5181.35" y2="676.3" style="fill:none;stroke:#b7b7b7;stroke-miterlimit:10;stroke-width:5px"/></g></g><g class="clickable" id="A1-0-40" data-name="customclass A1-0-40"><rect id="room-box-56" x="2503.05" y="784.3" width="306.4" height="139.5" style="fill:#f2f2f2"/><g id="scale_emergenza-2" data-name="scale emergenza-2" style="opacity:0.4000000059604645"><line x1="2809.45" y1="784.3" x2="2809.45" y2="923.3" style="fill:none;stroke:#b7b7b7;stroke-miterlimit:10;stroke-width:4px"/><polyline points="2809.45 923.3 2543.85 923.3 2543.85 860.6 2721.25 860.6 2721.25 845.5 2543.85 845.5 2543.85 784.3 2809.45 784.3" style="fill:none;stroke:#b7b7b7;stroke-miterlimit:10;stroke-width:4px"/><polyline points="2544.15 893.1 2757.65 893.1 2757.65 815.9 2544.05 815.9" style="fill:none;stroke:#b7b7b7;stroke-miterlimit:10;stroke-width:4px"/><line x1="2686.55" y1="923.7" x2="2686.55" y2="860" style="fill:none;stroke:#b7b7b7;stroke-miterlimit:10;stroke-width:4px"/><line x1="2703.05" y1="923.7" x2="2703.05" y2="860" style="fill:none;stroke:#b7b7b7;stroke-miterlimit:10;stroke-width:4px"/><line x1="2718.75" y1="923.7" x2="2718.75" y2="860" style="fill:none;stroke:#b7b7b7;stroke-miterlimit:10;stroke-width:4px"/><line x1="2670.45" y1="860" x2="2670.45" y2="923.7" style="fill:none;stroke:#b7b7b7;stroke-miterlimit:10;stroke-width:4px"/><line x1="2718.75" y1="845.5" x2="2718.75" y2="784.3" style="fill:none;stroke:#b7b7b7;stroke-miterlimit:10;stroke-width:4px"/><line x1="2703.05" y1="845.5" x2="2703.05" y2="784.3" style="fill:none;stroke:#b7b7b7;stroke-miterlimit:10;stroke-width:4px"/><line x1="2686.55" y1="845.5" x2="2686.55" y2="784.3" style="fill:none;stroke:#b7b7b7;stroke-miterlimit:10;stroke-width:4px"/><line x1="2670.45" y1="845.5" x2="2670.45" y2="784.3" style="fill:none;stroke:#b7b7b7;stroke-miterlimit:10;stroke-width:4px"/><line x1="2654.35" y1="845.5" x2="2654.35" y2="784.3" style="fill:none;stroke:#b7b7b7;stroke-miterlimit:10;stroke-width:4px"/><line x1="2638.75" y1="845.5" x2="2638.75" y2="784.3" style="fill:none;stroke:#b7b7b7;stroke-miterlimit:10;stroke-width:4px"/><line x1="2622.95" y1="845.5" x2="2622.95" y2="784.3" style="fill:none;stroke:#b7b7b7;stroke-miterlimit:10;stroke-width:4px"/><line x1="2574.65" y1="845.5" x2="2574.65" y2="784.3" style="fill:none;stroke:#b7b7b7;stroke-miterlimit:10;stroke-width:4px"/><line x1="2559.45" y1="845.5" x2="2559.45" y2="784.3" style="fill:none;stroke:#b7b7b7;stroke-miterlimit:10;stroke-width:4px"/><polyline points="2558.15 784.3 2543.65 815.8 2558.45 845.2" style="fill:none;stroke:#b7b7b7;stroke-miterlimit:10;stroke-width:4px"/><polyline points="2559.05 845.5 2541.25 845.5 2541.25 860.7 2591.35 860.7" style="fill:none;stroke:#b7b7b7;stroke-miterlimit:10;stroke-width:4px"/><line x1="2607.25" y1="923.7" x2="2607.25" y2="860" style="fill:none;stroke:#b7b7b7;stroke-miterlimit:10;stroke-width:4px"/><line x1="2639.05" y1="923.7" x2="2639.05" y2="860" style="fill:none;stroke:#b7b7b7;stroke-miterlimit:10;stroke-width:4px"/><line x1="2623.05" y1="923.7" x2="2623.05" y2="860" style="fill:none;stroke:#b7b7b7;stroke-miterlimit:10;stroke-width:4px"/><line x1="2654.85" y1="923.7" x2="2654.85" y2="860" style="fill:none;stroke:#b7b7b7;stroke-miterlimit:10;stroke-width:4px"/><line x1="2591.25" y1="923.7" x2="2591.25" y2="860" style="fill:none;stroke:#b7b7b7;stroke-miterlimit:10;stroke-width:4px"/><line x1="2575.45" y1="923.7" x2="2575.45" y2="860" style="fill:none;stroke:#b7b7b7;stroke-miterlimit:10;stroke-width:4px"/><line x1="2559.45" y1="923.7" x2="2559.45" y2="860" style="fill:none;stroke:#b7b7b7;stroke-miterlimit:10;stroke-width:4px"/><line x1="2607.35" y1="845.5" x2="2607.35" y2="784.3" style="fill:none;stroke:#b7b7b7;stroke-miterlimit:10;stroke-width:4px"/><line x1="2591.05" y1="845.5" x2="2591.05" y2="784.3" style="fill:none;stroke:#b7b7b7;stroke-miterlimit:10;stroke-width:4px"/></g></g><g class="clickable" id="A1-0-01" data-name="customclass A1-0-01"><polygon id="room-box-57" points="3601.95 2869.3 3601.95 2615.7 3439.25 2615.7 3439.25 2817.5 3439.25 2995.1 3601.95 2995.1 3601.95 2869.3" style="fill:#f2f2f2"/></g></g><g class="clickable" id="A1-1-01" data-name="customclass A1-1-01"><polygon id="room-box-65" points="3601.95 2995.6 3601.95 2877.2 3601.95 2617.4 3439.35 2617.4 3439.35 2877.2 3439.35 2995.6 3601.95 2995.6" style="fill:#f2f2f2"/><g id="scale-4" style="opacity:0.4000000059604645"><line x1="3600.85" y1="2618.3" x2="3439.75" y2="2618.3" style="fill:none;stroke:#b7b7b7;stroke-miterlimit:10;stroke-width:4px"/><polyline points="3439.75 2618.3 3439.75 2889.6 3512.45 2889.6 3512.45 2708.4 3529.85 2708.4 3529.85 2889.6 3600.85 2889.6 3600.85 2618.3" style="fill:none;stroke:#b7b7b7;stroke-miterlimit:10;stroke-width:4px"/><polyline points="3474.85 2889.3 3474.85 2671.2 3564.25 2671.2 3564.25 2889.4" style="fill:none;stroke:#b7b7b7;stroke-miterlimit:10;stroke-width:4px"/><line x1="3439.25" y1="2743.8" x2="3513.05" y2="2743.8" style="fill:none;stroke:#b7b7b7;stroke-miterlimit:10;stroke-width:4px"/><line x1="3439.25" y1="2727.1" x2="3513.05" y2="2727.1" style="fill:none;stroke:#b7b7b7;stroke-miterlimit:10;stroke-width:4px"/><line x1="3439.25" y1="2711" x2="3513.05" y2="2711" style="fill:none;stroke:#b7b7b7;stroke-miterlimit:10;stroke-width:4px"/><line x1="3513.05" y1="2760.2" x2="3439.25" y2="2760.2" style="fill:none;stroke:#b7b7b7;stroke-miterlimit:10;stroke-width:4px"/><line x1="3529.85" y1="2711" x2="3600.85" y2="2711" style="fill:none;stroke:#b7b7b7;stroke-miterlimit:10;stroke-width:4px"/><line x1="3529.85" y1="2727.1" x2="3600.85" y2="2727.1" style="fill:none;stroke:#b7b7b7;stroke-miterlimit:10;stroke-width:4px"/><line x1="3529.85" y1="2743.8" x2="3600.85" y2="2743.8" style="fill:none;stroke:#b7b7b7;stroke-miterlimit:10;stroke-width:4px"/><line x1="3529.85" y1="2760.2" x2="3600.85" y2="2760.2" style="fill:none;stroke:#b7b7b7;stroke-miterlimit:10;stroke-width:4px"/><line x1="3529.85" y1="2776.6" x2="3600.85" y2="2776.6" style="fill:none;stroke:#b7b7b7;stroke-miterlimit:10;stroke-width:4px"/><line x1="3529.85" y1="2792.7" x2="3600.85" y2="2792.7" style="fill:none;stroke:#b7b7b7;stroke-miterlimit:10;stroke-width:4px"/><line x1="3529.85" y1="2808.9" x2="3600.85" y2="2808.9" style="fill:none;stroke:#b7b7b7;stroke-miterlimit:10;stroke-width:4px"/><line x1="3529.85" y1="2858.2" x2="3600.85" y2="2858.2" style="fill:none;stroke:#b7b7b7;stroke-miterlimit:10;stroke-width:4px"/><line x1="3529.85" y1="2873.7" x2="3600.85" y2="2873.7" style="fill:none;stroke:#b7b7b7;stroke-miterlimit:10;stroke-width:4px"/><polyline points="3600.85 2875 3564.35 2889.9 3530.35 2874.7" style="fill:none;stroke:#b7b7b7;stroke-miterlimit:10;stroke-width:4px"/><polyline points="3529.85 2874.1 3529.85 2892.3 3512.35 2892.3 3512.35 2841.1" style="fill:none;stroke:#b7b7b7;stroke-miterlimit:10;stroke-width:4px"/><line x1="3439.25" y1="2824.9" x2="3513.05" y2="2824.9" style="fill:none;stroke:#b7b7b7;stroke-miterlimit:10;stroke-width:4px"/><line x1="3439.25" y1="2792.5" x2="3513.05" y2="2792.5" style="fill:none;stroke:#b7b7b7;stroke-miterlimit:10;stroke-width:4px"/><line x1="3439.25" y1="2808.7" x2="3513.05" y2="2808.7" style="fill:none;stroke:#b7b7b7;stroke-miterlimit:10;stroke-width:4px"/><line x1="3439.25" y1="2776.3" x2="3513.05" y2="2776.3" style="fill:none;stroke:#b7b7b7;stroke-miterlimit:10;stroke-width:4px"/><line x1="3439.25" y1="2841.2" x2="3513.05" y2="2841.2" style="fill:none;stroke:#b7b7b7;stroke-miterlimit:10;stroke-width:4px"/><line x1="3439.25" y1="2857.4" x2="3513.05" y2="2857.4" style="fill:none;stroke:#b7b7b7;stroke-miterlimit:10;stroke-width:4px"/><line x1="3439.25" y1="2873.7" x2="3513.05" y2="2873.7" style="fill:none;stroke:#b7b7b7;stroke-miterlimit:10;stroke-width:4px"/><line x1="3529.85" y1="2824.8" x2="3600.85" y2="2824.8" style="fill:none;stroke:#b7b7b7;stroke-miterlimit:10;stroke-width:4px"/><line x1="3529.85" y1="2841.4" x2="3600.85" y2="2841.4" style="fill:none;stroke:#b7b7b7;stroke-miterlimit:10;stroke-width:4px"/></g></g></g><g id="floor-wall"><polygon points="331.15 1293.8 330.45 1293.8 330.45 1314.3 488.75 1314.3 488.75 1293.8 351.55 1293.8 351.55 944.1 639.85 944.1 639.85 902.5 310.35 902.5 310.35 944.1 331.15 944.1 331.15 1293.8" style="fill:#b7b7b7"/><polygon points="2421.75 43.1 5402.95 43.1 5399.75 267 5443.45 267 5443.45 3.5 5443.55 1.4 5440.45 1.5 2380.15 1.5 2377.05 3.5 2377.05 43.1 2377.05 267 2418.55 267 2421.75 43.1" style="fill:#b7b7b7"/><polygon points="1386.55 1292.8 1157.05 1292.8 1157.05 1313.2 1596.45 1313.2 1596.45 1292.8 1407.15 1292.8 1407.15 943 1699.65 943 1699.65 901.4 1298.65 901.4 1298.65 943 1386.55 943 1386.55 1292.8" style="fill:#b7b7b7"/><polygon points="885.55 1293.8 625.15 1293.8 625.15 1314.3 1052.35 1314.3 1052.35 1293.8 906.05 1293.8 906.05 944.1 1204.45 944.1 1204.45 902.5 733.85 902.5 733.85 944.1 885.55 944.1 885.55 1293.8" style="fill:#b7b7b7"/><polygon points="3751.15 1291.7 3730.55 1291.7 3722.35 1291.7 3470.85 1291.7 3470.85 1312.2 3730.55 1312.2 3730.55 1491.2 3751.15 1491.2 3751.15 1312.2 3898.25 1312.2 3898.25 1291.7 3772.45 1291.7 3751.15 1291.7" style="fill:#b7b7b7"/><polygon points="118.35 2838.6 522.65 2838.6 522.65 2876.7 564.25 2876.7 564.25 2517.2 543.75 2517.2 543.75 2797.1 115.45 2797.1 42.65 2797.1 42.65 2403 1638.85 2403 1638.85 2382.4 1639.15 2382.4 1639.15 1971.4 1639.15 1858.7 1639.15 1825.6 1639.15 1805.2 1573.35 1805.2 1561.35 1805.2 1431.55 1805.2 1431.55 1825.6 1561.35 1825.6 1573.35 1825.6 1618.65 1825.6 1618.65 2382.4 1165.95 2382.4 1165.95 1825.6 1329.75 1825.6 1329.75 1805.2 1061.05 1805.2 1061.05 1825.6 1145.35 1825.6 1145.35 2205.1 905.55 2205.1 905.55 1825.6 966.85 1825.6 966.85 1805.2 794.95 1805.2 794.95 1825.6 884.95 1825.6 884.95 2382.4 564.25 2382.4 564.25 1825.6 642.45 1825.6 700.85 1825.6 700.85 1805.2 638.15 1805.2 490.65 1805.2 363.65 1805.2 363.65 1825.6 494.85 1825.6 543.75 1825.6 543.75 2382.4 42.65 2382.4 42.65 1825.6 86.65 1825.6 155.15 1825.6 236.45 1825.6 236.45 1805.2 155.15 1805.2 86.65 1805.2 42.65 1805.2 42.65 1313.2 209.85 1313.2 209.85 1292.8 209.75 1292.8 209.75 1092 189.55 1092 189.55 1292.8 42.65 1292.8 42.65 943 228.85 943 228.85 901.4 1.05 901.4 1.05 1805.2 1.05 1825.6 1.05 2382.4 1.05 2403 1.05 2797.1 1.05 2832.6 1.05 2838.6 118.35 2838.6" style="fill:#b7b7b7"/><polygon points="3751.15 1157.8 3730.55 1157.8 3730.55 1192.3 3580.15 1192.3 3580.15 1212.9 3751.15 1212.8 3751.15 1157.8" style="fill:#b7b7b7"/><polygon points="3730.55 2382.4 3730.55 2403 3730.55 2517.4 3730.55 2538 3730.55 2568.7 3730.55 2576.9 3730.55 2866.5 3751.15 2866.5 3751.15 2380.4 3730.55 2380.4 3730.55 2382.4" style="fill:#b7b7b7"/><polygon points="3730.55 2995.5 3439.25 2995.5 3439.25 2616 3602.05 2616 3602.05 2869.4 3622.15 2869.4 3622.65 2517.8 3622.65 2517.8 3287.65 2517.4 3287.65 2538 3418.75 2538 3418.75 2995.5 2939.15 2992.3 2939.15 2538 3148.05 2538 3148.05 2517.4 2461.25 2517.4 2461.25 2538 2918.75 2538 2918.75 2992.3 1860.45 2994.5 1860.45 2538 2010.15 2538 2348.75 2538 2348.75 2517.4 2027.05 2517.4 2010.15 2517.4 1840.05 2517.4 1840.05 2538 1840.05 2633.9 1840.05 2655.2 1840.05 2994.5 1808.15 2994.5 1808.15 3037.1 3751.65 3038.2 3752.15 2994.8 3730.55 2994.8 3730.55 2995.5" style="fill:#b7b7b7"/><polygon points="3730.55 1802.8 3730.55 1842.3 3730.55 2013 3730.55 2045.9 3730.55 2055.8 3730.55 2135 3730.55 2146.7 3730.55 2286.1 3751.15 2286.1 3751.15 2146.7 3751.15 2136.1 3751.15 1641 3730.55 1640 3730.55 1802.8" style="fill:#b7b7b7"/><polygon points="2083.35 1826.7 2083.35 1806.3 1841.05 1806.3 1841.05 1826.7 1841.05 1859.7 1841.05 1972.5 1841.05 2383.5 1840.85 2383.5 1840.85 2404 2957.95 2405.8 2957.95 2383.4 2938.15 2383.4 2938.15 2275.5 3057.85 2275.5 3057.85 2383.4 3038.65 2383.4 3038.65 2404.6 3243.35 2404 3243.35 2383.5 3243.15 2383.5 3243.15 2369.6 3223.05 2369.6 3223.05 2383.5 3078.25 2383.5 3078.25 2275.5 3222.85 2275.5 3222.85 2290.3 3243.35 2290.3 3243.35 2275.5 3243.15 2275.5 3243.15 2255 2938.15 2255 2938.15 2078.5 3602.25 2078.5 3602.25 2255 3419.75 2255 3419.75 2275.5 3420.05 2275.5 3420.05 2404 3622.65 2404 3622.65 2383.5 3440.45 2383.5 3440.45 2275.5 3602.25 2275.5 3622.65 2276 3622.65 2022.7 3622.65 1832.8 3622.65 1826.7 3622.65 1806.3 2704.55 1806.3 2704.55 1826.7 2917.75 1826.7 2917.75 2383.5 2417.55 2383.5 2417.55 1826.7 2597.45 1826.7 2597.45 1806.3 2189.05 1806.3 2189.05 1826.7 2397.15 1826.7 2397.15 2383.5 1861.45 2383.5 1861.45 1826.7 2083.35 1826.7" style="fill:#b7b7b7"/><polygon points="1642.25 2633.9 1642.25 2538 1641.65 2517.4 1512.05 2517.4 1512.05 2538 1621.85 2538 1621.85 2994.5 1305.85 2994.5 1305.85 2538 1407.25 2538 1407.25 2517.4 1285.25 2517.4 1285.25 2517.4 1239.45 2517.4 1239.45 2538 1285.25 2538 1285.25 2994.5 906.45 2994.5 906.45 2976 885.95 2976 885.95 2994.5 742.75 2994.5 742.75 2899.9 885.95 2899.9 885.95 2916.6 885.95 2918.3 906.45 2918.3 906.45 2916.6 906.45 2899.9 1074.85 2899.9 1074.85 2897.8 1074.85 2879.3 1074.85 2538 1122.65 2538 1122.65 2517.4 1054.65 2517.6 1054.65 2538.1 1054.35 2538.1 1054.35 2674.9 906.45 2674.9 906.45 2540 906.45 2538.1 906.25 2538.1 906.25 2517.6 894.85 2517.6 906.45 2517.4 742.75 2517.4 726.35 2517.4 722.15 2517.4 722.15 2772.7 742.75 2772.7 742.75 2538 885.95 2538 885.95 2879.3 722.15 2879.3 722.15 2892 722.15 2899.9 722.15 2994.5 564.25 2994.5 564.25 2971.9 522.65 2971.9 522.65 3037.1 564.25 3037.1 635.35 3037.1 1678.75 3037.1 1678.75 2994.5 1642.25 2994.5 1642.25 2655.2 1642.25 2633.9" style="fill:#b7b7b7"/><polygon points="4396.55 675.7 3923.65 675.7 3923.65 655.2 4669.05 655.2 4669.05 675.7 4591.55 675.7 4591.55 922.6 4830.05 922.6 4830.05 675.7 4750.55 675.7 4750.55 655.2 5399.75 655.2 5399.75 458.8 5443.45 458.8 5443.45 739.8 5399.75 739.8 5399.75 675.7 5277.55 675.7 5277.55 735.4 5256.25 735.4 5256.25 675.7 4849.95 675.7 4849.95 922.6 5256.25 922.6 5256.25 865 5277.55 865 5277.55 922.6 5399.75 922.6 5399.75 858.3 5442.45 858.3 5442.45 1025.3 5399.75 1025.3 5399.75 943 4471.15 943 4396.55 942.4 4396.55 922 4417.85 922 4417.85 922.6 4571.15 922.6 4571.15 675.7 4417.85 675.7 4396.55 675.7" style="fill:#b7b7b7"/><polygon points="5399.75 1292.8 4279.15 1292.8 4279.15 1313.2 4394.15 1313.2 4394.85 2817.4 4415.65 2817.4 4415.65 2817.3 4416.15 2817.3 4416.15 2796.8 4415.65 2796.8 4415.65 1313.2 5399.75 1313.2 5399.75 2765.2 5400.05 2765.2 5400.05 2817.3 5441.35 2817.3 5441.35 2811.2 5441.35 2789.4 5442.45 1213.7 5399.75 1213.7 5399.75 1292.8" style="fill:#b7b7b7"/><polygon points="2153.05 1293.8 1997.45 1293.8 1997.45 1314.3 2159.75 1314.3 2159.75 1314.3 2173.55 1314.3 2173.55 1293.8 2173.55 1293.8 2173.55 1250.1 2173.55 1241.9 2173.55 1161 2216.05 1161 2216.05 1118.6 2194.55 1118.6 2194.55 1098.6 2194.55 944.1 2194.55 908.7 2194.55 902.5 2124.45 902.5 2124.45 944.1 2153.05 944.1 2153.05 1293.8" style="fill:#b7b7b7"/><polygon points="1859.25 1103.7 1859.25 944.1 2000.45 944.1 2000.45 1103.7 2000.45 1125.9 2000.45 1155 2020.85 1155 2020.85 944.1 2059.95 944.1 2059.95 902.5 1793.85 902.5 1793.85 944.1 1838.75 944.1 1838.75 1293.8 1704.45 1293.8 1704.45 1314.3 1883.05 1314.3 1883.05 1293.8 1859.25 1293.8 1859.25 1125.9 1859.25 1103.7" style="fill:#b7b7b7"/><polygon points="2398.05 1313.2 2412.45 1313.2 2601.25 1313.2 2601.25 1292.8 2418.55 1292.8 2418.55 944.1 2974.95 944.1 2974.95 1292.8 2721.95 1292.8 2721.95 1313.2 3302.05 1313.2 3302.05 1292.8 2995.45 1292.8 2995.45 1212.9 3070.45 1212.9 3070.45 1192.3 2995.45 1192.3 2995.45 944.1 3238.25 944.1 3238.25 1192.3 3061.35 1192.3 3061.35 1212.9 3332.25 1212.9 3332.25 1192.3 3258.65 1192.3 3258.65 944.1 3524.85 944.1 3524.85 1192.3 3449.15 1192.3 3449.15 1212.9 3589.25 1212.9 3589.25 1192.3 3545.25 1192.3 3545.25 944.1 3730.55 944.1 3730.55 982.6 3751.15 982.6 3751.15 944.1 3751.15 923.6 3730.55 923.6 3726.45 923.6 3545.25 923.6 3524.85 923.6 3438.85 923.6 3438.85 675.7 3726.45 675.7 3730.55 675.7 3738.95 675.7 3751.15 675.7 3801.55 675.7 3801.55 655.2 3751.15 655.2 3738.95 655.2 3354.85 655.2 3354.85 675.7 3418.35 675.7 3418.35 923.6 3258.65 923.6 3238.25 923.6 3193.25 923.6 3193.25 675.7 3252.25 675.7 3252.25 655.2 3109.25 655.2 3109.25 675.7 3172.75 675.7 3172.75 923.6 2831.35 923.6 2831.35 675.7 3006.75 675.7 3006.75 655.2 2514.45 655.2 2514.45 675.7 2541.45 675.7 2541.45 783.1 2543.05 783.1 2561.65 783.1 2810.85 783.1 2810.85 923.6 2418.55 923.6 2418.55 889.9 2377.05 889.9 2377.05 923.6 2377.05 944.1 2377.05 1117.6 2355.15 1117.6 2355.15 1160 2398.05 1160 2398.05 1313.2" style="fill:#b7b7b7"/><polygon points="2377.05 455.7 2377.05 655.2 2377.05 675.7 2377.05 818 2418.55 818 2418.55 675.7 2449.45 675.7 2449.45 655.2 2418.55 655.2 2418.55 455.7 2377.05 455.7" style="fill:#b7b7b7"/><rect x="2939.45" y="1827.1" width="662.4" height="227.8" style="fill:url(#SVGID_33_)"/><rect x="3439.25" y="2538.3" width="162.6" height="58.4" style="fill:url(#SVGID_33_)"/><rect x="905.95" y="2692.8" width="148.2" height="187.1" style="fill:url(#SVGID_33_)"/><rect x="905.95" y="2225.1" width="239.9" height="156.9" style="fill:url(#SVGID_33_)"/><rect x="2557.25" y="675.1" width="254.2" height="91.7" style="fill:url(#SVGID_33_)"/><polygon points="3376.25 2178.6 3420.55 2178.6 3433.25 2178.6 3440.65 2178.6 3440.65 2064.6 3420.55 2064.6 3420.55 2158.6 3376.25 2158.6 3376.25 2178.6" style="fill:#b7b7b7"/><polygon points="3226.15 2178.6 3243.05 2178.6 3287.45 2178.6 3287.45 2158.6 3243.05 2158.6 3243.05 2064.6 3222.95 2064.6 3222.95 2178.6 3226.15 2178.6" style="fill:#b7b7b7"/><rect x="564.65" y="2403.7" width="3057.8" height="113.6" style="fill:#f2f2f2"/><rect x="3243.55" y="2178.6" width="176.5" height="224.6" style="fill:#f2f2f2"/></g></g></svg>