<svg id="floor-01" xmlns="http://www.w3.org/2000/svg" xmlns:xlink="http://www.w3.org/1999/xlink" viewBox="0 0 5443.6 3040.1"><defs><clipPath id="clip-path"><rect width="44.9" height="44.9" style="fill:none"/></clipPath><pattern id="Pattern1" data-name="Pattern1" width="44.9" height="44.9" patternTransform="translate(-182.94 10.06)" patternUnits="userSpaceOnUse" viewBox="0 0 44.9 44.9"><rect width="44.9" height="44.9" style="fill:none"/><rect width="44.9" height="44.9" style="fill:none"/><rect width="44.9" height="44.9" style="fill:none"/><rect width="44.9" height="44.9" style="fill:none"/><rect width="44.9" height="44.9" style="fill:none"/><g style="clip-path:url(#clip-path)"><rect width="44.9" height="44.9" style="fill:none"/><rect width="44.9" height="44.9" style="fill:none"/><rect width="44.9" height="44.9" style="fill:none"/><rect width="44.9" height="44.9" style="fill:none"/><rect width="44.9" height="44.9" style="fill:none"/><rect width="44.9" height="44.9" style="fill:none"/><rect width="44.9" height="44.9" style="fill:none"/><rect width="44.9" height="44.9" style="fill:none"/><rect width="44.9" height="44.9" style="fill:none"/><rect width="44.9" height="44.9" style="fill:none"/><rect width="44.9" height="44.9" style="fill:none"/><rect width="44.9" height="44.9" style="fill:none"/><rect width="44.9" height="44.9" style="fill:none"/><rect x="41.7" y="40.9" width="47.2" height="45.7" style="fill:#f2f2f2"/><line x1="44.9" y1="44.9" x2="89.8" y2="89.8" style="fill:none;stroke:#ddd;stroke-linecap:square;stroke-linejoin:round;stroke-width:20px"/><rect x="-3.2" y="40.9" width="47.2" height="45.7" style="fill:#f2f2f2"/><line y1="44.9" x2="44.9" y2="89.8" style="fill:none;stroke:#ddd;stroke-linecap:square;stroke-linejoin:round;stroke-width:20px"/><line x1="-44.9" y1="44.9" y2="89.8" style="fill:none;stroke:#ddd;stroke-linecap:square;stroke-linejoin:round;stroke-width:20px"/><rect x="41.7" y="-3.9" width="47.2" height="45.7" style="fill:#f2f2f2"/><line x1="44.9" x2="89.8" y2="44.9" style="fill:none;stroke:#ddd;stroke-linecap:square;stroke-linejoin:round;stroke-width:20px"/><rect x="-3.2" y="-3.9" width="47.2" height="45.7" style="fill:#f2f2f2"/><line x2="44.9" y2="44.9" style="fill:none;stroke:#ddd;stroke-linecap:square;stroke-linejoin:round;stroke-width:20px"/><line x1="-44.9" y2="44.9" style="fill:none;stroke:#ddd;stroke-linecap:square;stroke-linejoin:round;stroke-width:20px"/><line x1="44.9" y1="-44.9" x2="89.8" style="fill:none;stroke:#ddd;stroke-linecap:square;stroke-linejoin:round;stroke-width:20px"/><line y1="-44.9" x2="44.9" style="fill:none;stroke:#ddd;stroke-linecap:square;stroke-linejoin:round;stroke-width:20px"/><line x1="-44.9" y1="-44.9" style="fill:none;stroke:#ddd;stroke-linecap:square;stroke-linejoin:round;stroke-width:20px"/></g></pattern><pattern id="Pattern1-7" data-name="Pattern1-7" width="44.9" height="44.9" patternTransform="translate(-54333.87 -45797.74) rotate(-180) scale(0.63)" patternUnits="userSpaceOnUse" viewBox="0 0 44.9 44.9"><rect width="44.9" height="44.9" style="fill:none"/><rect width="44.9" height="44.9" style="fill:none"/><rect width="44.9" height="44.9" style="fill:none"/><rect width="44.9" height="44.9" style="fill:none"/><rect width="44.9" height="44.9" style="fill:none"/><g style="clip-path:url(#clip-path)"><rect width="44.9" height="44.9" style="fill:none"/><rect width="44.9" height="44.9" style="fill:none"/><rect width="44.9" height="44.9" style="fill:none"/><rect width="44.9" height="44.9" style="fill:none"/><rect width="44.9" height="44.9" style="fill:none"/><rect width="44.9" height="44.9" style="fill:none"/><rect width="44.9" height="44.9" style="fill:none"/><rect width="44.9" height="44.9" style="fill:none"/><rect width="44.9" height="44.9" style="fill:none"/><rect width="44.9" height="44.9" style="fill:none"/><rect width="44.9" height="44.9" style="fill:none"/><rect width="44.9" height="44.9" style="fill:none"/><rect width="44.9" height="44.9" style="fill:none"/><rect x="41.7" y="40.9" width="47.2" height="45.7" style="fill:#f2f2f2"/><line x1="44.9" y1="44.9" x2="89.8" y2="89.8" style="fill:none;stroke:#ddd;stroke-linecap:square;stroke-linejoin:round;stroke-width:20px"/><rect x="-3.2" y="40.9" width="47.2" height="45.7" style="fill:#f2f2f2"/><line y1="44.9" x2="44.9" y2="89.8" style="fill:none;stroke:#ddd;stroke-linecap:square;stroke-linejoin:round;stroke-width:20px"/><line x1="-44.9" y1="44.9" y2="89.8" style="fill:none;stroke:#ddd;stroke-linecap:square;stroke-linejoin:round;stroke-width:20px"/><rect x="41.7" y="-3.9" width="47.2" height="45.7" style="fill:#f2f2f2"/><line x1="44.9" x2="89.8" y2="44.9" style="fill:none;stroke:#ddd;stroke-linecap:square;stroke-linejoin:round;stroke-width:20px"/><rect x="-3.2" y="-3.9" width="47.2" height="45.7" style="fill:#f2f2f2"/><line x2="44.9" y2="44.9" style="fill:none;stroke:#ddd;stroke-linecap:square;stroke-linejoin:round;stroke-width:20px"/><line x1="-44.9" y2="44.9" style="fill:none;stroke:#ddd;stroke-linecap:square;stroke-linejoin:round;stroke-width:20px"/><line x1="44.9" y1="-44.9" x2="89.8" style="fill:none;stroke:#ddd;stroke-linecap:square;stroke-linejoin:round;stroke-width:20px"/><line y1="-44.9" x2="44.9" style="fill:none;stroke:#ddd;stroke-linecap:square;stroke-linejoin:round;stroke-width:20px"/><line x1="-44.9" y1="-44.9" style="fill:none;stroke:#ddd;stroke-linecap:square;stroke-linejoin:round;stroke-width:20px"/></g></pattern></defs><g id="a1-2"><g id="floor-background"><polygon points="523.3 2840.3 523.3 3039.1 3774.5 3039.1 3774.5 2638.4 3858 2638.4 3858.7 2820.2 5439.9 2820.2 5439.9 1 2240.3 1 2240.3 1171.9 2195.9 1171.9 2195.9 902.2 1 902.2 1 2840.3 523.3 2840.3" style="fill:#f2f2f2;stroke:#b7b7b7;stroke-miterlimit:10;stroke-width:2px"/></g><g id="floor-wall"><polygon points="2734.1 2537.9 2788.1 2537.9 2788.1 2538.5 2788.1 2597 2788.1 2617.1 2788.1 2798 2788.1 2818.1 2788.1 2881 2788.1 2881.5 2548.1 2881.5 2548.1 2881 2548.1 2818.1 2548.1 2798 2548.1 2617.1 2548.1 2597 2548.1 2538.5 2548.1 2537.9 2629.5 2537.9 2629.5 2518.8 2527.9 2518.8 2527.9 2538.5 2527.9 2597 2527.9 2617.1 2527.9 2798 2527.9 2818.1 2527.9 2881 2527.9 2901.1 2527.9 2901.7 2548.1 2901.7 2548.1 2901.1 2656.5 2901.1 2656.5 2901.7 2677 2901.7 2677 2901.1 2788.1 2901.1 2788.1 2901.7 2808.2 2901.7 2808.2 2901.1 2808.2 2881 2808.2 2818.1 2808.2 2798 2808.2 2617.1 2808.2 2597 2808.2 2538.5 2808.2 2518.8 2734.1 2518.8 2734.1 2537.9" style="fill:#b7b7b7"/><polygon points="2016.3 2385 1936.9 2385 1936.9 2384.6 1916.8 2384.6 1916.8 2385 1860.5 2385 1860.5 2351.8 1860.7 2351.8 1860.7 2331.8 1860.5 2331.8 1860.5 2277.8 1860.7 2277.8 1860.7 2257.7 1860.5 2257.7 1860.5 2167.3 1916.8 2167.3 1916.8 2167.9 1936.9 2167.9 1936.9 2167.3 2033.1 2167.3 2033.1 2167.9 2053.2 2167.9 2053.2 2167.3 2155.1 2167.3 2155.1 2167.9 2175.2 2167.9 2175.2 2167.3 2276.3 2167.3 2276.3 2167.9 2276.3 2257.7 2276.3 2277.8 2276.3 2331.8 2276.3 2351.8 2276.3 2384.6 2276.3 2385 2175.2 2385 2175.2 2384.6 2155.1 2384.6 2155.1 2385 2120.9 2385 2120.9 2404.6 2296.3 2404.6 2296.3 2385 2296.3 2351.8 2296.3 2331.8 2296.3 2277.8 2296.3 2257.7 2296.3 2167.3 2296.3 2150.9 1840.6 2150.9 1840.6 2404.6 2016.3 2404.6 2016.3 2385" style="fill:#b7b7b7"/><polygon points="1716.9 2901.1 1716.9 2881.5 1716.9 2881 1716.9 2828.6 1716.9 2818.1 1716.9 2798 1716.9 2656.9 1716.9 2636.8 1716.9 2617.2 1716.9 2617.1 1840.5 2617.1 1840.5 2617.2 1840.6 2617.2 1840.6 2828.6 1840.6 2881.5 1840.6 2901.7 1860.5 2901.7 1860.5 2901.1 1916.8 2901.1 1916.8 2901.7 1936.9 2901.7 1936.9 2901.1 2033.1 2901.1 2033.1 2901.7 2053.2 2901.7 2053.2 2901.1 2155.1 2901.1 2155.1 2901.7 2175.2 2901.7 2175.2 2901.1 2276.3 2901.1 2276.3 2901.7 2296.3 2901.7 2296.3 2901.1 2397.4 2901.1 2397.4 2901.7 2417.5 2901.7 2417.5 2901.1 2418 2901.1 2418 2881 2417.5 2881 2417.5 2818.1 2418 2818.1 2418 2798 2417.5 2798 2417.5 2617.1 2418 2617.1 2418 2597 2417.5 2597 2417.5 2538.5 2418 2538.5 2418 2518.8 2274.2 2518.8 2274.2 2538.5 2276.3 2538.5 2276.3 2539 2296.3 2539 2296.3 2538.5 2397.4 2538.5 2397.4 2539 2397.8 2539 2397.8 2881.5 2053.2 2881.5 2053.2 2881 2053.2 2818.1 2053.2 2798 2053.2 2617.1 2053.2 2597 2053.2 2539 2053.2 2538.5 2155.1 2538.5 2155.1 2539 2169.5 2539 2169.5 2518.8 1993 2518.8 1993 2538.5 2033.1 2538.5 2033.1 2539 2033.1 2597 2033.1 2617.1 2033.1 2798 2033.1 2818.1 2033.1 2881 2033.1 2881.5 1860.7 2881.5 1860.7 2881 1860.5 2881 1860.5 2818.1 1860.7 2818.1 1860.7 2798 1860.5 2798 1860.5 2617.1 1860.7 2617.1 1860.7 2597 1860.5 2597 1860.5 2538.5 1888.3 2538.5 1888.3 2518.8 1840.6 2518.8 1840.6 2597.1 1698 2597.1 1698 2901.7 1716.9 2901.7 1716.9 2901.1" style="fill:#b7b7b7"/><polygon points="4690.7 2059.1 4560.2 2059.1 4560.2 2059 4540.2 2059 4540.2 2059.1 4540.2 2079.2 4540.2 2134 4560.2 2134 4560.2 2079.2 4560.2 2079.1 4690.3 2079.1 4690.3 2079.2 4690.7 2079.2 4690.7 2294.2 4690.3 2294.2 4690.3 2294.8 4560.2 2294.8 4560.2 2294.2 4560.2 2238.7 4540.2 2238.7 4540.2 2294.2 4540.2 2314.3 4560.2 2314.3 4690.7 2314.3 4690.7 2314.8 4710.4 2314.8 4710.4 2059 4690.7 2059 4690.7 2059.1" style="fill:#b7b7b7"/><polygon points="5282.3 2059 5262.1 2059 5262.1 2059.1 5224.1 2059.1 5224.1 2079.1 5262.1 2079.1 5262.1 2294.8 5067.7 2294.8 5067.7 2294.2 5067.7 2079.2 5067.7 2079.1 5119.5 2079.1 5119.5 2059.1 5067.7 2059.1 5067.7 2059 5047.6 2059 5047.6 2059.1 5003.3 2059.1 5003.3 2079.1 5047.6 2079.1 5047.6 2079.2 5047.6 2294.2 5047.6 2294.8 4853 2294.8 4853 2294.2 4853 2079.2 4853 2079.1 4898.5 2079.1 4898.5 2059.1 4853 2059.1 4853 2059 4833 2059 4833 2059.1 4833 2079.2 4833 2294.2 4833 2314.3 4833 2314.8 4853 2314.8 4973 2314.8 4993.1 2314.8 5047.6 2314.8 5067.7 2314.8 5262.1 2314.8 5282.3 2314.8 5282.3 2314.3 5282.3 2314.3 5282.3 2294.2 5282.3 2294.2 5282.3 2079.2 5282.3 2079.2 5282.3 2059.1 5282.3 2059.1 5282.3 2059" style="fill:#b7b7b7"/><polygon points="5282.3 2384.6 4833 2384.6 4833 2385 4833 2617.1 4833 2617.2 4853 2617.1 4898.5 2617.1 4898.5 2597.1 4855.1 2597.1 4855.1 2597 4853 2597 4853 2510.5 4853 2490.3 4853 2405 4855.1 2405 4855.1 2404.6 5047.6 2404.6 5047.6 2405 5047.6 2490.3 5047.6 2510.5 5047.6 2597 5047.6 2597.1 5003.3 2597.1 5003.3 2617.1 5113.2 2617.1 5113.2 2597.1 5067.7 2597.1 5067.7 2597 5067.7 2510.5 5067.7 2490.3 5067.7 2405 5067.7 2404.6 5262.1 2404.6 5262.1 2597.1 5217.8 2597.1 5217.8 2617.1 5262.1 2617.1 5262.1 2617.2 5282.3 2617.2 5282.3 2617.1 5282.3 2617.1 5282.3 2385 5282.3 2385 5282.3 2384.6" style="fill:#b7b7b7"/><polygon points="2551.2 2385 2548.1 2385 2548.1 2384.6 2527.9 2384.6 2527.9 2385 2417.5 2385 2417.5 2351.8 2418 2351.8 2418 2331.8 2417.5 2331.8 2417.5 2277.8 2418 2277.8 2418 2257.7 2417.5 2257.7 2417.5 2167.3 2527.9 2167.3 2527.9 2168.9 2548.1 2168.9 2548.1 2167.3 2656.5 2167.3 2656.5 2168.9 2677 2168.9 2677 2167.3 2788.1 2167.3 2788.1 2168.9 2788.1 2257.7 2788.1 2277.8 2788.1 2331.8 2788.1 2351.8 2788.1 2384.6 2788.1 2385 2677 2385 2677 2384.6 2656.5 2384.6 2656.5 2385 2655.9 2385 2655.9 2404.6 2808.2 2404.6 2808.2 2385 2808.2 2277.8 2808.2 2257.7 2808.2 2167.3 2808.2 2150.9 2397.8 2150.9 2397.8 2404.6 2551.2 2404.6 2551.2 2385" style="fill:#b7b7b7"/><path d="M649.2,2901.1h74v.5h20.1v-.5H884v.5h20.1v-.5h151.1v.5h20.1v-.5h.1V2881h-.1v-62.9h.1v-20.2h-.1V2617.1h.1v-20h-.1v-58.7h.1v-19.6H1032v19h23.2v138.6h-.1v.5h-151v-.5h0V2537.8h23.2v-19H713.7v19.6h9.4v.6h.1v258.9h-9.5v20.2h29V2539h.5v-.6H883.9v.6h2.6v341.9H791.9v.5H649.2V2818h9.5v-20.1h-9.5V2538.4h9.5v-19.6H629.1v382.9h20.1v-.6Zm405.9-20.1h-.4v-62.7h.4Zm0-83h-.4V2697.1h.4Z" transform="translate(0 0)" style="fill:#b7b7b7"/><polygon points="1167 2901.1 1286.7 2901.1 1286.7 2901.7 1306.8 2901.7 1306.8 2901.1 1388.1 2901.1 1388.1 2901.7 1408.1 2901.7 1408.1 2901.1 1619.2 2901.1 1619.2 2901.7 1639.4 2901.7 1639.4 2901.1 1639.9 2901.1 1639.9 2881 1639.4 2881 1639.4 2818.1 1639.9 2818.1 1639.9 2798 1639.4 2798 1639.4 2656.9 1639.9 2656.9 1639.9 2636.8 1639.4 2636.8 1639.4 2617.1 1639.9 2617.1 1639.9 2597 1639.4 2597 1639.4 2538.5 1639.9 2538.5 1639.9 2518.8 1565.9 2518.8 1565.9 2538.5 1619.2 2538.5 1619.2 2539 1619.8 2539 1619.8 2880.5 1619.2 2880.5 1619.2 2881 1482.3 2881 1482.3 2880.5 1460.2 2880.5 1460.2 2881 1408.1 2881 1408.1 2818.1 1408.4 2818.1 1408.4 2798 1408.1 2798 1408.1 2617.1 1408.4 2617.1 1408.4 2597 1408.1 2597 1408.1 2538.5 1460.2 2538.5 1460.2 2539 1461.2 2539 1461.2 2518.8 1330.1 2518.8 1330.1 2538.5 1388.1 2538.5 1388.1 2539 1388.2 2539 1388.2 2880.5 1388.1 2880.5 1388.1 2881 1306.8 2881 1306.8 2880.5 1286.7 2880.5 1286.7 2881 1167 2881 1167 2818.1 1167.3 2818.1 1167.3 2798 1167 2798 1167 2617.1 1167.3 2617.1 1167.3 2597 1167 2597 1167 2538.5 1225.4 2538.5 1225.4 2518.8 1147.1 2518.8 1147.1 2901.7 1167 2901.7 1167 2901.1" style="fill:#b7b7b7"/><path d="M708.4,2385H649.2V2167.3h74.1v.6h20v-.6H884v40.1h-.1v20.2h.1v30.1h-.1v20.1h.1V2385H813.1v19.6h261.2V2150.9H629.1v253.7h79.3V2385Z" transform="translate(0 0)" style="fill:#b7b7b7"/><polygon points="1225.4 2385 1167 2385 1167 2351.8 1167.3 2351.8 1167.3 2331.8 1167 2331.8 1167 2277.8 1167.3 2277.8 1167.3 2257.7 1167 2257.7 1167 2167.3 1167.3 2167.3 1167.3 2163.6 1388.2 2163.6 1388.2 2384.6 1388.1 2384.6 1388.1 2385 1330.1 2385 1330.1 2404.6 1461.2 2404.6 1461.2 2384.6 1460.2 2384.6 1460.2 2385 1408.1 2385 1408.1 2351.8 1408.4 2351.8 1408.4 2331.8 1408.1 2331.8 1408.1 2277.8 1408.4 2277.8 1408.4 2257.7 1408.1 2257.7 1408.1 2167.3 1460.2 2167.3 1460.2 2167.9 1482.3 2167.9 1482.3 2167.3 1544.6 2167.3 1544.6 2167.9 1566.8 2167.9 1566.8 2167.3 1619.2 2167.3 1619.2 2167.9 1619.8 2167.9 1619.8 2384.6 1619.2 2384.6 1619.2 2385 1566.8 2385 1566.8 2384.6 1565.9 2384.6 1565.9 2404.6 1639.9 2404.6 1639.9 2385 1639.4 2385 1639.4 2351.8 1639.9 2351.8 1639.9 2331.8 1639.4 2331.8 1639.4 2277.8 1639.9 2277.8 1639.9 2257.7 1639.4 2257.7 1639.4 2167.3 1639.9 2167.3 1639.9 2150.9 1147.1 2150.9 1147.1 2404.6 1225.4 2404.6 1225.4 2385" style="fill:#b7b7b7"/><polygon points="3858 228.8 3858 228.4 4107.6 228.4 4107.6 228.8 4107.6 300 4127.8 300 4127.8 228.8 4127.8 208.7 3899.3 208.7 3899.3 208.2 3879.2 208.2 3879.2 208.7 3780.9 208.7 3780.9 228.4 3838 228.4 3838 228.8 3838 472.9 3838 475.1 3637.1 475.1 3637.1 472.9 3636 472.9 3636 228.8 3637.1 228.8 3637.1 228.4 3693.1 228.4 3693.1 208.7 3615.9 208.7 3615.9 228.8 3615.9 472.9 3615.9 493 3732.6 493 3732.6 493 3752.6 493 3752.6 493 3871.8 493 3871.8 475.1 3858 475.1 3858 472.9 3858 228.8" style="fill:#b7b7b7"/><polygon points="4107.6 472.9 4107.6 475.1 4089.7 475.1 4089.7 493 4127.8 493 4127.8 472.9 4127.8 400.3 4107.6 400.3 4107.6 472.9" style="fill:#b7b7b7"/><polygon points="4851.9 493 4973 493 4973 493 4993.1 493 4993.1 493 5043.3 493 5043.3 493 5063.4 493 5063.4 493 5262.1 493 5262.1 493 5282.3 493 5282.3 493 5282.3 493 5282.3 472.9 5282.3 472.9 5282.3 228.8 5282.3 228.8 5282.3 208.7 5282.3 208.7 5282.3 208.2 5262.1 208.2 5262.1 208.7 5230.5 208.7 5230.5 228.4 5262.1 228.4 5262.1 472.4 5262.1 472.4 5262.1 472.9 5110 472.9 5110 228.8 5111 228.8 5111 228.4 5142.7 228.4 5142.7 208.7 5030.7 208.7 5030.7 228.4 5089.9 228.4 5089.9 228.8 5089.9 472.4 5089.9 472.9 5063.4 472.9 5063.4 472.4 5043.3 472.4 5043.3 472.9 4993.1 472.9 4993.1 472.4 4973 472.4 4973 472.9 4851.9 472.9 4851.9 472.4 4851.9 228.8 4851.9 228.4 4942.9 228.4 4942.9 208.7 4831.9 208.7 4831.9 228.8 4831.9 472.9 4831.9 493 4831.9 493 4851.9 493" style="fill:#b7b7b7"/><polygon points="4746.3 561.8 4746.3 545.9 4746.3 493 4746.3 472.9 4746.3 228.8 4746.3 208.7 4710.7 208.7 4710.7 208.2 4690.7 208.2 4690.7 208.7 4679.7 208.7 4679.7 228.4 4726.2 228.4 4726.2 228.8 4726.2 472.9 4726.2 493 4726.2 545.9 4726.2 561.8 4726.2 561.8 4710.7 561.8 4710.7 561.8 4690.7 561.8 4690.7 561.8 4549.6 561.8 4549.6 561.8 4549.6 493 4549.6 472.9 4549.6 228.8 4549.6 228.4 4591.9 228.4 4591.9 208.7 4472.5 208.7 4472.5 228.4 4529.5 228.4 4529.5 228.8 4529.5 472.9 4529.5 493 4529.5 561.8 4529.5 561.8 4418.4 561.8 4418.4 561.8 4398.3 561.8 4398.3 561.8 4327.6 561.8 4327.6 561.8 4327.6 493 4327.6 472.9 4327.6 228.8 4327.6 228.4 4384.7 228.4 4384.7 208.7 4307.5 208.7 4307.5 228.8 4307.5 472.9 4307.5 493 4307.5 493 4307.5 561.8 4307.5 561.8 4307.5 581.9 4746.3 581.9 4746.3 561.8" style="fill:#b7b7b7"/><polygon points="3370.6 138.5 3421.3 138.5 3421.3 139.5 3441.3 139.5 3441.3 138.5 3494.3 138.5 3494.3 139.5 3494.3 208.7 3494.3 228.8 3494.3 307 3494.3 389.9 3494.3 472.9 3494.3 493 3494.3 561.8 3494.3 562.3 3174 562.3 3174 561.8 3174 493 3174 472.9 3174 389.9 3174 307 3174 228.8 3174 208.7 3174 139.5 3174 138.5 3282.9 138.5 3282.9 119.4 3153.8 119.4 3153.8 138.5 3153.8 208.7 3153.8 228.8 3153.8 472.9 3153.8 493 3153.8 493 3153.8 551.2 3153.8 561.8 3153.8 581.9 3514.4 581.9 3514.4 561.8 3514.4 493 3514.4 472.9 3514.4 228.8 3514.4 208.7 3514.4 138.5 3514.4 119.4 3370.6 119.4 3370.6 138.5" style="fill:#b7b7b7"/><polygon points="3087.8 208.2 3067.7 208.2 3067.7 208.7 2994.2 208.7 2994.2 228.4 3068.2 228.4 3068.2 475.1 2830.3 475.1 2830.3 472.9 2830.3 407.5 2830.3 387.3 2830.3 228.8 2830.3 228.4 2906.5 228.4 2906.5 208.7 2830.3 208.7 2830.3 208.2 2810.2 208.2 2810.2 208.7 2752.2 208.7 2752.2 208.2 2732.1 208.2 2732.1 208.7 2659 208.7 2659 228.4 2810.2 228.4 2810.2 228.8 2810.2 387.3 2810.2 407.5 2810.2 472.9 2810.2 475.1 2420.1 475.1 2420.1 472.9 2419.8 472.9 2419.8 407.5 2420.1 407.5 2420.1 387.3 2419.8 387.3 2419.8 228.8 2420.1 228.8 2420.1 228.4 2571.3 228.4 2571.3 208.7 2563.3 208.7 2563.3 208.2 2543.3 208.2 2543.3 208.7 2419.8 208.7 2419.8 208.2 2400 208.2 2400 493 2419.8 493 2419.8 493 2543.3 493 2543.3 493 2563.3 493 2563.3 493 2637.9 493 2637.9 493 2658 493 2658 493 2732.1 493 2732.1 493 2752.2 493 2752.2 493 2810.2 493 2810.2 493 2830.3 493 2830.3 493 3067.7 493 3067.7 493 3087.8 493 3087.8 493 3088.2 493 3088.2 472.9 3087.8 472.9 3087.8 228.8 3088.2 228.8 3088.2 208.7 3087.8 208.7 3087.8 208.2" style="fill:#b7b7b7"/><path d="M4398.4,2079.1v305.5h-.2v.4h-49.7l18.8-.4h-28.5l-12.5.4v19.6h92V1986.5h.2v-20.1h-.2V1826.9h71v.5h20.2v-.5h30.6v.5h20v-.5h130.5v.5h20v-.5h122.3v.5h20v-.5H4973v.5h20.2v-.5h54.5v.5h20.1v-.5h194.4v.5h20.2v-.5h0v-20.1h0V1564.5h0v-20.1h0V1312.1h0V1292h0v-65.4h-20.1v65.8H4852.1V1073.5h410.2v68.6h20.1v-68.7h0v-20.1h0V943.1h18.2V923h-18.2v-.2h-1.5v-80h-18.6v80h-.1v.2h-269v-.2H4973v.2h-46.4v-.2h-20v.2h-54.5V675.4h410.2v93.5h18.6V675.4h19.7V655.3H4832v20.2h0V924.4h-43.3v18.8H4832v.2h20v-.2h55v110.2H4788.7v20H4832v219h-64.6v19.7H4973v.3h20.2v-.3h269v.3h.1v494.8H4418.6v-.5h-.2V1564.4h.2v-20.1h-.2V1312h43.1l-.3-19.7H3899.4v-63.8h-20.1v668.6h19.6v-70.4h499.4v.5h.2v231.5h-.2v.3H3898.9v-63.6h-19.6v409h342.4v-19.6h-88.3M4539,1312.2h122.7v-19.7H4592V1073.6h48.6v-20H4418.4V943.2h153.5v.2H4592v-.2h48.6V924.4H4592v-249h0V655.2H4076v20.2h323.1v31.2h19.3V675.3h153.5V923H4418.4V890.5h-19.3v32.9H3879.3v129.9h-21.1v20h21.1v70.9h20.1v-70.7h672.5v218.9H4539ZM4113.9,2385H3898.8v-70.8h.6v-20h-.6v-215h.6v-.2m0-766.8h498.9v.3H3899.4Zm-.6,38.3h.6v193.9h-.6Zm0,214h.6v242.3h-.6ZM4993.2,943.2h269v.2h-269Zm-67.1,0H4973v.2h-45.9v110h-1Zm-1026.7,0h498.9v.2H3899.4Z" transform="translate(0 0)" style="fill:#b7b7b7"/><polygon points="1284.1 1120.1 1264.5 1120.1 1264.5 1192.9 1264 1192.9 1264 1193 1199 1193 1199 1213 1264.5 1213 1264.5 1213.1 1284.6 1213.1 1284.6 1213 1317.4 1213 1317.4 1193 1284.1 1193 1284.1 1120.1" style="fill:#b7b7b7"/><polygon points="1032.4 1120.1 1012.9 1120.1 1012.9 1192.9 1012.4 1192.9 1012.4 1193 930.4 1193 930.4 1213 1012.9 1213 1012.9 1213.1 1033 1213.1 1033 1213 1094.3 1213 1094.3 1193 1032.4 1193 1032.4 1120.1" style="fill:#b7b7b7"/><rect x="3262.8" y="943.5" width="20.1" height="13.7" style="fill:#b7b7b7"/><polygon points="2548.1 1053.4 2548.1 943.4 2527.9 943.4 2527.9 1053.4 2527.9 1053.5 2400 1053.5 2400 1091.5 2419.8 1091.5 2419.8 1073.5 2527.9 1073.5 2527.9 1073.6 2548.1 1073.6 2548.1 1073.5 2663.8 1073.5 2663.8 1073.6 2683.9 1073.6 2683.9 1073.5 2695 1073.5 2695 1053.5 2548.1 1053.5 2548.1 1053.4" style="fill:#b7b7b7"/><polygon points="742.7 1120.1 723.2 1120.1 723.2 1192.9 722.7 1192.9 722.7 1193 640.7 1193 640.7 1213 723.2 1213 723.2 1213.1 743.3 1213.1 743.3 1213 825.8 1213 825.8 1193 742.7 1193 742.7 1120.1" style="fill:#b7b7b7"/><polygon points="2919.2 1053.4 2919.2 1053.5 2782.8 1053.5 2782.8 1073.5 2813.4 1073.5 2813.4 1073.6 2832.5 1073.6 2832.5 1073.5 2919.2 1073.5 2919.2 1073.6 2939.3 1073.6 2939.3 1073.5 2939.3 1053.4 2939.3 943.4 2919.2 943.4 2919.2 1053.4" style="fill:#b7b7b7"/><path d="M1.6,2838.9H33.2v.3H523.4v199.7h31.2v.6l3220-.2-.8-42.9h.5l.8-357.9.4,63.4-1.6-63.5h83.7v63.5l.6-63.5v200.8H5409.4v.3h34.2V106.8l-1.4-95.2V1.4H2237V11.6l-.6,95.2V1171.9h-39.8l-.2-10.6V902H1.6M3441.4,2257.7v-.6H3422v-77.7h20.6V2079.2h161.3v178.5Zm162.5,20.1V2385H3441.5V2277.8Zm-544.6,106.8v.4H2939.1V2277.8h120.2v1h20.1v-1h145.9v26.4h20.1v58.1h-20.1V2385H3079.4v-.4Zm186.1-126.9H2939.1v-.6h-.3V2079.5h.3v-.3h285.7v100.2h20.6Zm-.6-98.3v-80.1h76.7v.3h20.1v-.3h79.8v.3h1.1v79.8h-44.4v20.1h-88.8v-20.1ZM43.4,2518.8v-.5h-.5V2405h.5v-.5l-.5-19.6V2277.7h.5v-20.1h-.5V2079.1h.5v-20h-.5V1826.9H335.4v.5h20.1v-.5h82.7v.5h20.2v-.5h86.2V2385H494.9v19.6h69.7V1826.9h64.5v64h20.1v-64h74.1v.5h20v-.5H884v130h-.1v20.2h.1v82.1H743.3v-.3h-20v.3H649.2v-63.7H629.1V2079H973.8v-19.9h-9.5v-.3H944.2v.3H904.1v-.3h0V1827.3h0v-.5h40.1v.5h20.1v-.5h89.9v.5h20.1v-.5H1147v.5h.2v231.5h-.2v.3h-68.5V2079h88.9v-19.9h-.3V1977h.3v-20.2h-.3v-130h119.8v64h20v-64h81.4v.5h20v-.5h126.6v.5h.5v231.5h-.5v.3H1408.3v-.3h-20v.3h-81.4v-63.7h-20v83.5h280.2V2059H1555v-82.1h.6v-20.2h-.6v-130h128.5V2059h-11.6v19.9h48.5V2059h-3.2v-.3h-13.6V1827.2h13.6v-.5h123.5v.5h.3v231.5h-.3v.3h-15.6v19.9h36V2059h-.2v-82.1h.2v-20.2h-.2v-130h172.5v75.6h20.2v-75.6h101.8v.5h20.1v-.5h101.1v.5h20.1v-.5h101.1v.5h.5v231.5h-.5v.3H2296.7v-.3h-20.1v.3H2175.5v-.3h-20.1v.3H2053.6v-52.1h-20.2v72H2418V2059h-.5v-82.1h.5v-20.2h-.5v-130h110.4v75.6h20.2v-75.6h108.5v.5h20.5v-.5H2788v.5h20.1v-.5H2919v.5h.1v231.5h-.1v.3H2808.1v-.3H2788v.3H2677.1v-.3h-20.5v.3H2548.1v-52.1h-20.2v72h391.2v325.6h326.8v-.5h175.6v.5h202.9v-19.6h-.5V2277.7h25.9v-20.1h-25.9V2079.1h.5v-.2h108.4v177.6h-.2v1h-24.7v20.1h24.7v107.2h-.3v19.6h21.1v-19.6h-.8V2079h.8v-20h-.8V1826.9h.8v-20.1h-.8V1564.5h.8v-20.1h-.8V1312.1h.8V1292h-.8v-79h.8v-20.1h-.8V1073.4h21.1v-20h-21.3v-129h-69.8v-1H3441.5V923h-.1V675.3h241.1v-.5h87.8v.5h117.4V655H3328.4v20.3h93V923h-1.5v.8H3167.7V675.3h73V655h-88.9V943.3h15.9v-.2h253.8v.2h20v-.2h291.2v110.2h-.3v20.1h.3v119.5h-.3V1213h.3v79h-.3v.4H3283V1041.5h-20v11.8h-53.1v20H3263v219H3088.6v-.4h-.6v-79h.6v-20.1h-.6V1073.3h37.5v-20h-57.1v239H2684.6v-.4h-.5v-10.2h-19.6v10.6H2174.9v-10.6h-19.7v10.2h-.4v.4H2022.7v-10.6h-20.1v10.2h-.5v.4H1860.9v-.4h-.2v-10.2h-19.8v10.6H355.3v-10.6H335.4v10.2h-.2v.4H210.5v-.4h-.6v-9.2h-20v10.1H42.9v-350H189.8v281.8h20v-11.7H335.4v10.6h19.9v-40.2H335.4v9.5H209.8v-76.5h.6v-.6H335.1v.6h.2v8.9h19.9v-28.6H299.1v-.6H209.7V942.9H335.3v98.7h29.3v-20.1h-9.4V943.2h.2v-.3H433v.3h.5v78.3H423v20.1h10.5v171.3H536v-20H453V943.1h91.5v.3h20v-.3H723.1v114.4h19.6V943.2h.5v-.3H883.9v.3H904v-.3h108.8v114.6h19.6V942.9H1264v.2h.5v114.6h19.6V942.9h171.2v72.5h.6v104.7h-.6V1193H1422v20h66.6v-20.2H1475V943h121.5v249.4h-14.8V1213h101.5v-20.9h-66.6V942.9h2.6v.6h20.2v-.6h201.1v250h-63.2V1213h63.5v10.5h19.8v-10.6h.2v-20.1h-.2v-67.6h16v-20h-16V943.1h141.9v162.1h-21.1v20h21.1v67.7h-.5V1213h.5v10.6h20.1V943h132.5v249.8h-.4V1213h.4v10.5h19.7V1213h489.6v10.5h19.5v-10.6h.6v-20H2419.8v-21.1H2400v12.7h-.2v8.5H2277.6V1073.5h1v-20h-1.1v-110h.2v-.2h122.2v.2H2420v-.2h243.9v.2H2684v-.2h48.3v.2h20.1v-.2h61.1v.2h19.1v-.2h235.2v.2h20.1v-.2h.6V923.1h-.6V675.4h.6V655.2H3046v20.2h21.7v.2h.6V923.9H2833.1v-.8h-.6V675.3h125.8V655.1H2525.9v20.3h15.9v.7h1.5v72.2l.3,16h-17.7v20.1l22.8.2h263.6V923.9H2420v-.8h-.2V783.4l17.2.2V763.8h-16.9v-.5h-.2v-88h18.3V655H2382v20.3h18V923.5H2277.4V675.3h17V655h-16.8l-.2-612.8H5401.9v.4h.4v75.8h.6v537h-18v20.1h17.4V922.9h0v.2h-18.4v20.1h18.4v110.2h-.4v20.1h.4V1193h-.4v20.1h.4v79h-.4v20.1h.4v232.3h-.4v20.1h.4v210h.6v104.7h-.6v87.1h-.4v20.1h.4v72.7h-.4v20h.4v215h-.4v20h.4V2385h-.4v20.1h.4v85.2h-.4v20.1h.4v86.7h-.4v20h1v79.3h-1V2716h.4v81.2H5282.4v-.3h-20.2v.3H5067.8v-.3h-20.1v.3h-54.5v-.3H4973v.3H4853.1v-.3h-20v.3H4710.8v-.3h-.3V2490.3H4540.3v20.1h150.5v86.7h-.4v20h.4v78.8h-.4V2716h.4v81.2H4560.3v-.3h-20v.3h-30.6v-.3h-20.2v.3h-71V2716h.2v-20.1h-.2v-78.8h.2v-20h-.2v-86.7h20.3v-20.1h-40.2v306.6h-.2v.3h-74.8v-.3h-22.2v.3h-30.6v-.3h-20.1v.3H3899V2716h.6V2515.6h-21.2v79.3h-1l-123.7,2.1H3723v19.6h11.2v180.3h-1.3v1H3723v20.2h11.2v177.6h-1.6v.4l-.6.2H3624.3v-.6h-20v.6H3441.4V2537.5h162.9v1.1h.1v58.7h-.1v20h.1V2798h-.1v20.2h31.2V2798h-11.1V2617.2h1v-.5h10.1v-19.6h-11.1v-58.7h1.6v-20.1h-1.6v-.5h-20v.5H3441.9v-.5H3422v1H3135.4v19.6h286.5v58.7h-.5v20h.5v74.6h-.5v21.1h.5v85.1h-.5v20.2h.5v178.1H2939.3V2538.5h91.4v-19.6H2919.6v477.9H1800v-.6H1599.2v.6H597.4v-1H564.6V2518.9H494.9v19.6h49.7V2798H42.9V2617.2h.5v-20.1h-.5v-58.7ZM2562,675.3h170.2v.2H2562Zm250.4.2h-60.1v-.2h60.1Zm0,90.3v.5l-56.3-.5Z" transform="translate(0 0)" style="fill:#b7b7b7"/><rect x="5282.6" y="42" width="119.4" height="2754.9" style="fill:#f2f2f2"/><rect x="43.1" y="2404.3" width="3764.2" height="115" style="fill:#f2f2f2"/><rect x="592.5" y="2900.6" width="2285.7" height="95.4" style="fill:#f2f2f2"/><rect x="3245" y="2179.5" width="176.5" height="276.3" style="fill:#f2f2f2"/><polygon id="room-box" points="2684.4 1193 2684.4 1292.4 2939.3 1292.4 2962.5 1292.4 3068.2 1292.4 3068.2 1193 3068.2 1073.6 3068.2 1053.5 3262.8 1053.5 3262.8 943.4 3068.2 943.4 3011.2 943.4 2939.3 943.4 2939.3 1073.6 2420.1 1073.6 2420.1 1193 2684.4 1193" style="fill:#f2f2f2"/><rect id="room-box-2" x="3752.3" y="922.9" width="126.9" height="130.5" style="fill:#f2f2f2"/><polygon id="room-box-3" points="1860.7 1292.4 1860.7 1213.1 433.4 1213.1 433.4 1040.8 355.2 1040.8 355.2 1213.1 355.2 1284.9 355.2 1292.4 1860.7 1292.4" style="fill:#f2f2f2"/><rect x="3899" y="1312.2" width="499.4" height="496.2" style="fill:url(#Pattern1)"/><rect x="3899" y="943.4" width="500" height="110" style="fill:url(#Pattern1)"/><rect x="4926" y="943.4" width="336" height="110" style="fill:url(#Pattern1)"/><rect x="2561.7" y="675.1" width="250.6" height="89.2" style="fill:url(#Pattern1-7)"/><rect x="904.9" y="2168.8" width="150.1" height="216.1" style="fill:url(#Pattern1)"/><rect x="904.9" y="2697" width="150.1" height="184" style="fill:url(#Pattern1)"/></g><g id="floor-wall-alternative"><polyline points="3712.2 1337.6 43.9 1337.6 43.9 1787.9 2958.6 1787.9 2958.6 2040.1 3713.8 2040.1" style="fill:url(#Pattern1)"/><rect x="177.3" y="2404.3" width="20.6" height="116.1" style="fill:#b7b7b7"/><rect x="41.5" y="2451.8" width="135.7" height="20.6" style="fill:#b7b7b7"/><rect x="177.3" y="2519.3" width="212.3" height="18.9" style="fill:#b7b7b7"/><rect x="177.3" y="2383.8" width="212.3" height="21.1" style="fill:#b7b7b7"/></g><g id="floor-rooms"><g class="clickable" id="A1-2-10" data-name="customclass A1-2-10"><polygon id="a210a" points="544.5 1827.6 43.3 1827.6 43.3 2363.3 42.3 2363.3 42.3 2451.8 177.3 2451.8 177.3 2384.9 544.5 2384.9 544.5 1827.6" style="fill:#ddd"/></g><g class="clickable" id="A1-2-09" data-name="customclass A1-2-09"><polygon id="a1-2-9" points="177.3 2537.3 177.3 2472.5 41.5 2472.5 41.5 2523.1 41.5 2541 43.3 2541 43.3 2796.4 544.5 2796.4 544.5 2537.3 177.3 2537.3" style="fill:#ddd"/></g><g class="clickable" id="A1-2-37" data-name="customclass A1-2-37"><rect id="room-box-5" x="210.4" y="941.9" width="124.7" height="152.3" style="fill:#ddd"/></g><rect id="room-box-6" x="210.4" y="1114.3" width="124.7" height="77.2" style="fill:#ddd"/><g class="clickable" id="A1-2-35-A" data-name="customclass A1-2-35-A"><rect id="room-box-7" x="1616.6" y="942.2" width="223.6" height="248.6" style="fill:#ddd"/></g><g class="clickable" id="A1-2-35-D" data-name="customclass A1-2-35-D"><rect id="room-box-8" x="1032.5" y="941.4" width="231.5" height="250.1" style="fill:#ddd"/></g><g class="clickable" id="A1-2-35-C" data-name="customclass A1-2-35-C"><rect id="room-box-9" x="1284" y="941.4" width="171.8" height="250.1" style="fill:#ddd"/></g><g class="clickable" id="A1-2-35-B" data-name="customclass A1-2-35-B"><rect id="room-box-10" x="1474.9" y="941.4" width="121.6" height="250.1" style="fill:#ddd"/></g><g class="clickable" id="A1-2-35-E" data-name="customclass A1-2-35-E"><rect id="room-box-11" x="742.9" y="941.9" width="269.6" height="249.5" style="fill:#ddd"/></g><g class="clickable" id="A1-2-35-F" data-name="customclass A1-2-35-F"><rect id="room-box-12" x="453.6" y="941.9" width="269.1" height="249.5" style="fill:#ddd"/></g><g class="clickable" id="A1-2-45" data-name="customclass A1-2-45"><rect id="room-box-13" x="3167.6" y="673.4" width="252.2" height="249" style="fill:#ddd"/></g><g class="clickable" id="A1-2-43" data-name="customclass A1-2-43"><rect id="room-box-14" x="2833" y="673.9" width="235.2" height="248.5" style="fill:#ddd"/></g><g class="clickable" id="A1-2-26-B" data-name="customclass A1-2-26-B"><rect id="room-box-15" x="3624.5" y="2077.5" width="108.4" height="178.4" style="fill:#ddd"/></g><g class="clickable" id="A1-2-26" data-name="customclass A1-2-26"><rect id="room-box-16" x="2940.2" y="2276.4" width="284.7" height="107.4" style="fill:#ddd"/></g><g class="clickable" id="A1-2-54" data-name="customclass A1-2-54"><rect id="room-box-17" x="4851.9" y="1072" width="410.2" height="218.9" style="fill:#ddd"/></g><g class="clickable" id="A1-2-55" data-name="customclass A1-2-55"><polygon id="room-box-18" points="4571.9 1290.8 4554.4 1290.8 3899.4 1290.8 3899.4 1072 4571.9 1072 4571.9 1290.8" style="fill:#ddd"/></g><g class="clickable" id="A1-2-40" data-name="customclass A1-2-40"><rect id="room-box-21" x="2277.4" y="673.4" width="122.6" height="248.5" style="fill:#ddd"/></g><g class="clickable" id="A1-2-03" data-name="customclass A1-2-03"><rect id="room-box-22" x="2938.7" y="2536.8" width="482.1" height="457.8" style="fill:#ddd"/></g><g class="clickable" id="A1-2-53-E" data-name="customclass A1-2-53-E"><rect id="room-box-23" x="4853" y="2403" width="194.5" height="192.4" style="fill:#ddd"/></g><g class="clickable" id="A1-2-53-D" data-name="customclass A1-2-53-D"><rect id="room-box-24" x="5067.6" y="2403" width="194.5" height="192.4" style="fill:#ddd"/></g><g class="clickable" id="A1-2-53-H" data-name="customclass A1-2-53-H"><rect id="room-box-25" x="5067.6" y="2077.5" width="194.5" height="215.7" style="fill:#ddd"/></g><g class="clickable" id="A1-2-53-I" data-name="customclass A1-2-53-I"><rect id="room-box-26" x="4853" y="2077.5" width="194.5" height="215.7" style="fill:#ddd"/></g><g class="clickable" id="A1-2-53-L" data-name="customclass A1-2-53-L"><rect id="room-box-27" x="4560.3" y="2077.5" width="130.1" height="215.7" style="fill:#ddd"/></g><g class="clickable" id="A1-2-53-F" data-name="customclass A1-2-53-F"><rect id="room-box-28" x="4418.6" y="2508.8" width="271.7" height="287" style="fill:#ddd"/></g><polygon id="room-box-30" points="4113.8 2383 3899 2383 3899 2077.5 4398.4 2077.5 4398.4 2383 4133.3 2383 4113.8 2383" style="fill:#ddd"/><g class="clickable" id="A1-2-53-P" data-name="customclass A1-2-53-P"><rect id="room-box-31" x="3899.3" y="1825.8" width="499.1" height="231.6" style="fill:#ddd"/></g><g class="clickable" id="A1-2-29-A" data-name="customclass A1-2-29-A"><rect id="room-box-32" x="3282.9" y="942" width="449.3" height="348.9" style="fill:#ddd"/></g><g class="clickable" id="A1-2-29-B" data-name="customclass A1-2-29-B"><rect id="room-box-33" x="3088.4" y="1072" width="174.4" height="218.9" style="fill:#ddd"/></g><g class="clickable" id="A1-2-29-D" data-name="customclass A1-2-29-D"><rect id="room-box-34" x="2548" y="941.9" width="371.1" height="110" style="fill:#ddd"/></g><rect id="room-box-35" x="355.1" y="941.9" width="78.3" height="78.3" style="fill:#ddd"/><g class="clickable" id="A1-2-04" data-name="customclass A1-2-04"><rect id="room-box-36" x="2548" y="2536.2" width="240" height="343.6" style="fill:#ddd"/></g><g class="clickable" id="A1-2-23" data-name="customclass A1-2-23"><rect id="room-box-37" x="2418" y="2166.5" width="370.9" height="216.5" style="fill:#ddd"/></g><g class="clickable" id="A1-2-24" data-name="customclass A1-2-24"><rect id="room-box-38" x="2548" y="1825.8" width="371.1" height="231.6" style="fill:#ddd"/></g><g class="clickable" id="A1-2-05-A" data-name="customclass A1-2-05-A"><rect id="room-box-39" x="2053.1" y="2537.3" width="344.7" height="342.6" style="fill:#ddd"/></g><g class="clickable" id="A1-2-05-B" data-name="customclass A1-2-05-B"><rect id="room-box-40" x="1860.7" y="2537.3" width="172.4" height="342.6" style="fill:#ddd"/></g><g class="clickable" id="A1-2-19" data-name="customclass A1-2-19"><rect id="room-box-41" x="1860.8" y="2166.3" width="415.5" height="216.7" style="fill:#ddd"/></g><g class="clickable" id="A1-2-06-A" data-name="customclass A1-2-06-A"><rect id="room-box-42" x="1408.3" y="2537.3" width="211.5" height="342.2" style="fill:#ddd"/></g><g class="clickable" id="A1-2-06-B" data-name="customclass A1-2-06-B"><rect id="room-box-43" x="1167.1" y="2537.3" width="221" height="342.2" style="fill:#ddd"/></g><g class="clickable" id="A1-2-11" data-name="customclass A1-2-11"><rect id="room-box-44" x="649.1" y="2167.3" width="234.8" height="215.7" style="fill:#ddd"/></g><g class="clickable" id="A1-2-16" data-name="customclass A1-2-16"><rect id="room-box-45" x="1408.3" y="2166.3" width="211.5" height="216.7" style="fill:#ddd"/></g><g class="clickable" id="A1-2-14" data-name="customclass A1-2-14"><rect id="room-box-46" x="1167.1" y="2162.1" width="221" height="221" style="fill:#ddd"/></g><g class="clickable" id="A1-2-22" data-name="customclass A1-2-22"><rect id="room-box-47" x="2053.1" y="1825.8" width="344.7" height="231.6" style="fill:#ddd"/></g><g class="clickable" id="A1-2-18" data-name="customclass A1-2-18"><rect id="room-box-48" x="1703.2" y="1825.8" width="137.4" height="231.6" style="fill:#ddd"/></g><g class="clickable" id="A1-2-17" data-name="customclass A1-2-17"><rect id="room-box-49" x="1555.3" y="1825.8" width="128" height="231.6" style="fill:#ddd"/></g><g class="clickable" id="A1-2-15" data-name="customclass A1-2-15"><rect id="room-box-50" x="1306.8" y="1825.8" width="228.4" height="231.6" style="fill:#ddd"/></g><g class="clickable" id="A1-2-13" data-name="customclass A1-2-13"><rect id="room-box-51" x="903.9" y="1825.8" width="243.2" height="231.6" style="fill:#ddd"/></g><g class="clickable" id="A1-2-12-A" data-name="customclass A1-2-12-A"><rect id="room-box-52" x="649.1" y="1825.8" width="234.8" height="231.6" style="fill:#ddd"/></g><g class="clickable" id="A1-2-46-G" data-name="customclass A1-2-46-G"><rect id="room-box-53" x="5111" y="226.7" width="151.1" height="244.2" style="fill:#ddd"/></g><g class="clickable" id="A1-2-46-H" data-name="customclass A1-2-46-H"><rect id="room-box-54" x="4852" y="226.7" width="237.9" height="244.2" style="fill:#ddd"/></g><g class="clickable" id="A1-2-46-I" data-name="customclass A1-2-46-I"><rect id="room-box-55" x="4549.7" y="226.7" width="176.5" height="333.5" style="fill:#ddd"/></g><g class="clickable" id="A1-2-46-L" data-name="customclass A1-2-46-L"><rect id="room-box-56" x="4327.6" y="226.7" width="202" height="333.5" style="fill:#ddd"/></g><g class="clickable" id="A1-2-46-O" data-name="customclass A1-2-46-O"><rect id="room-box-57" x="3174" y="137.1" width="320.3" height="423.6" style="fill:#ddd"/></g><g class="clickable" id="A1-2-46-P" data-name="customclass A1-2-46-P"><rect id="room-box-58" x="2830.3" y="226.8" width="237.9" height="246.8" style="fill:#ddd"/></g><g class="clickable" id="A1-2-46-Q" data-name="customclass A1-2-46-Q"><rect id="room-box-59" x="2420.1" y="226.8" width="390.1" height="246.8" style="fill:#ddd"/></g><g class="clickable" id="A1-2-46-M" data-name="customclass A1-2-46-M"><rect id="room-box-60" x="3858" y="226.8" width="249.6" height="246.8" style="fill:#ddd"/></g><g class="clickable" id="A1-2-46-N" data-name="customclass A1-2-46-N"><rect id="room-box-61" x="3637.2" y="226.8" width="200.8" height="246.8" style="fill:#ddd"/></g><rect id="room-box-70" x="1716.9" y="2615.5" width="123.7" height="285" style="fill:#f2f2f2"/><g class="clickable" id="A1-2-38" data-name="customclass A1-2-38"><rect id="room-box-72" x="189.8" y="1211" width="166" height="79.3" style="fill:#f2f2f2"/></g><g class="clickable" id="A1-2-42" data-name="customclass A1-2-42"><rect id="room-box-73" x="2420.7" y="653.8" width="122.6" height="129" style="fill:#f2f2f2"/></g><g class="clickable" id="A1-2-47" data-name="customclass A1-2-47"><polygon id="room-box-74" points="3752.9 921.8 3887.2 921.8 4076.4 921.8 4399 921.8 4399 673.9 4076.4 673.9 3887.2 673.9 3752.9 673.9 3752.9 921.8" style="fill:#f2f2f2"/></g><rect id="room-box-75" x="4592.5" y="653.8" width="240" height="288.6" style="fill:#f2f2f2"/><g class="clickable" id="A1-2-49" data-name="customclass A1-2-49"><rect id="room-box-76" x="5280.7" y="653.8" width="121.6" height="288.6" style="fill:#f2f2f2"/></g><g class="clickable" id="A1-2-50" data-name="customclass A1-2-50"><rect id="room-box-77" x="5282.3" y="1291" width="119.5" height="534.2" style="fill:#f2f2f2"/></g><polygon id="room-box-78" points="4591.9 1290.8 4662.2 1290.8 4662.2 1310.3 4768 1310.3 4768 1290.8 4831.9 1290.8 4831.9 1051.9 4591.9 1051.9 4591.9 1290.8" style="fill:#f2f2f2"/><g class="clickable" id="A1-2-31" data-name="customclass A1-2-31"><rect id="room-box-79" x="4418.5" y="941.9" width="488.5" height="110" style="fill:#f2f2f2"/></g><g class="clickable" id="A1-2-30" data-name="customclass A1-2-30"><rect id="room-box-80" x="2154.2" y="1211" width="529.7" height="79.3" style="fill:#f2f2f2"/></g><g class="clickable" id="A1-2-08" data-name="customclass A1-2-08"><rect id="room-box-81" x="649.7" y="2519.6" width="74.1" height="361.4" style="fill:#f2f2f2"/></g><g id="room-box-82-container" data-name="room-box-82-container"><rect id="room-box-82" x="3623.9" y="2595" width="110" height="400.2" style="fill:#f2f2f2"/></g><g class="clickable" id="A1-2-53-N" data-name="customclass A1-2-53-N"><rect id="room-box-83" x="4832.4" y="1825.3" width="450.5" height="232" style="fill:#f2f2f2;stroke:#b7b7b7;stroke-miterlimit:10"/></g><g class="clickable" id="A1-2-53-O" data-name="customclass A1-2-53-O"><rect id="room-box-84" x="4418" y="1825.3" width="291.8" height="232" style="fill:#f2f2f2;stroke:#b7b7b7;stroke-miterlimit:10"/></g><g class="clickable" id="A1-2-53-G" data-name="customclass A1-2-53-G"><rect id="room-box-85" x="4540.3" y="2313" width="169.5" height="175.2" style="fill:#f2f2f2"/></g><g class="clickable" id="A1-2-53-A" data-name="customclass A1-2-53-A"><rect id="room-box-86" x="4709.8" y="2615.6" width="693.1" height="180.3" style="fill:#f2f2f2;stroke:#b7b7b7;stroke-miterlimit:10"/></g><g class="clickable" id="A1-2-53-B" data-name="customclass A1-2-53-B"><rect id="mimmo" x="4139.2" y="2515.6" width="258.8" height="280.2" style="fill:#f2f2f2;stroke:#b7b7b7;stroke-miterlimit:10"/></g><g class="clickable" id="A1-2-53-C" data-name="customclass A1-2-53-C"><rect x="3899.4" y="2516.1" width="226.1" height="162.9" style="fill:#f2f2f2;stroke:#b7b7b7;stroke-miterlimit:10"/></g><g class="clickable" id="A1-2-46-A" data-name="customclass A1-2-46-A"><rect id="room-box-88" x="5090.4" y="491.7" width="190.3" height="162.1" style="fill:#f2f2f2;stroke:#b7b7b7;stroke-miterlimit:10"/></g><g class="clickable" id="A1-2-46-B" data-name="customclass A1-2-46-B"><rect id="room-box-89" x="4832.5" y="491.7" width="258" height="162.1" style="fill:#f2f2f2;stroke:#b7b7b7;stroke-miterlimit:10"/></g><g class="clickable" id="A1-2-46-R" data-name="customclass A1-2-46-R"><rect id="room-box-90" x="4307" y="40.6" width="1096.5" height="166" style="fill:#f2f2f2;stroke:#b7b7b7;stroke-miterlimit:10"/></g><g class="clickable" id="A1-2-46-S" data-name="customclass A1-2-46-S"><rect id="room-box-91" x="3615.5" y="40.6" width="691.6" height="166" style="fill:#f2f2f2;stroke:#b7b7b7;stroke-miterlimit:10"/></g><rect id="room-box-92" x="2276.9" y="40.6" width="808.8" height="166" style="fill:#f2f2f2;stroke:#b7b7b7;stroke-miterlimit:10"/><g class="clickable" id="A1-2-46-C" data-name="customclass A1-2-46-C"><rect id="room-box-93" x="3615.4" y="492" width="223.1" height="161.7" style="fill:#f2f2f2;stroke:#b7b7b7;stroke-miterlimit:10"/></g><g class="clickable" id="A1-2-46-D" data-name="customclass A1-2-46-D"><rect id="room-box-94" x="2810.8" y="491.5" width="148" height="162.3" style="fill:#f2f2f2;stroke:#b7b7b7;stroke-miterlimit:10"/></g><g class="clickable" id="A1-2-46-E" data-name="customclass A1-2-46-E"><rect id="room-box-95" x="2543.3" y="491.5" width="267.5" height="162.3" style="fill:#f2f2f2;stroke:#b7b7b7;stroke-miterlimit:10"/></g><g class="clickable" id="A1-2-46-F" data-name="customclass A1-2-46-F"><rect id="room-box-96" x="2276.9" y="491.5" width="266.4" height="162.3" style="fill:#f2f2f2;stroke:#b7b7b7;stroke-miterlimit:10"/></g><g class="clickable" id="A1-2-28" data-name="customclass A1-2-28"><rect id="room-box-97" x="3442" y="2078" width="161.7" height="177.6" style="fill:#f2f2f2;stroke:#b7b7b7;stroke-miterlimit:10"/></g><g class="clickable" id="A1-2-17-A" data-name="customclass A1-2-17-A"><rect id="room-box-98" x="3244.8" y="2077.5" width="178.7" height="80.4" style="fill:#f2f2f2"/></g><g class="clickable" id="A1-2-27" data-name="customclass A1-2-27"><rect id="room-box-99" x="2939.2" y="2078" width="285" height="177.6" style="fill:#f2f2f2;stroke:#b7b7b7;stroke-miterlimit:10"/></g><g class="clickable" id="A1-2-34-A" data-name="customclass A1-2-34-A"><rect id="room-box-100" x="2277.4" y="941.9" width="122.6" height="249.5" style="fill:#ddd"/></g><g class="clickable" id="A1-2-34" data-name="customclass A1-2-34"><rect id="room-box-101" x="2400" y="941.9" width="129" height="110" style="fill:#ddd;stroke:#b7b7b7;stroke-miterlimit:10"/></g><rect id="room-box-102" x="3087.8" y="653.8" width="63.4" height="288.6" style="fill:#f2f2f2"/><path id="stairs-fixed" d="M3118.6,829.5h.2l.6.3v-.3h.6v.3l.6-.3h32.2V741h-66.6v88.5Zm-30.2-11.6,24.7,9.5h-24.7Zm32.3-.7h25.5l-25.5,10.1Zm-2.4,9.9-26.1-9.9h26.1Zm7.8.3,24.7-9.8v9.8Zm24.6-12.4h-30V804.8h30Zm0-12.3h-30V792.5h30Zm0-12.3h-30V780.1h30Zm0-12.4h-30V767.8h30Zm0-12.3h-30V755.5h30Zm-30-22.6h30v10.2h-30Zm-32.3,0h29.9v10.2h-29.9Zm0,12.4h29.9v10.2h-29.9Zm0,12.3h29.9V778h-29.9Zm0,12.3h29.9v10.3h-29.9Zm0,12.3h29.9v10.2h-29.9Zm0,12.4h29.9V815h-29.9Z" transform="translate(0 0)" style="fill:#b7b7b7;isolation:isolate;opacity:0.4000000059604645"/><g class="clickable" id="A1-2-51" data-name="customclass A1-2-51"><polygon id="room-box-103" points="5262.1 1805.7 4418.5 1805.7 4418.5 1310.9 4456.6 1310.9 4553.8 1310.9 5262.1 1310.9 5262.1 1805.7" style="fill:#d2e4cc;stroke:#b0c2c4;stroke-miterlimit:10;isolation:isolate;opacity:0.30000001192092896"/><g id="garden" style="opacity:0.5099999904632568"><polygon points="5068.2 1684.8 5068.2 1453.3 4664.4 1486.1 4612.6 1684.8 5068.2 1684.8" style="fill:#d2e4cc;stroke:#aac1a0;stroke-miterlimit:10;stroke-width:4px"/><polygon points="4980.4 1629.8 5009 1598.1 5009 1547.4 4961.5 1520.9 4741.5 1538.9 4717.3 1562.2 4699.3 1617.2 4768 1616.1 4980.4 1629.8" style="fill:#d2e4cc;stroke:#aac1a0;stroke-miterlimit:10;stroke-width:4px"/><line x1="5068.2" y1="1684.8" x2="5009" y2="1598.1" style="fill:none;stroke:#aac1a0;stroke-miterlimit:10;stroke-width:4px"/><line x1="4980.4" y1="1629.8" x2="5068.2" y2="1684.8" style="fill:none;stroke:#aac1a0;stroke-miterlimit:10;stroke-width:4px"/><line x1="5009" y1="1547.4" x2="5068.2" y2="1453.3" style="fill:none;stroke:#aac1a0;stroke-miterlimit:10;stroke-width:4px"/><line x1="4961.5" y1="1520.9" x2="5068.2" y2="1453.3" style="fill:none;stroke:#aac1a0;stroke-miterlimit:10;stroke-width:4px"/><line x1="4741.5" y1="1538.9" x2="4664.4" y2="1486.1" style="fill:none;stroke:#aac1a0;stroke-miterlimit:10;stroke-width:4px"/><line x1="4717.3" y1="1562.2" x2="4664.4" y2="1486.1" style="fill:none;stroke:#aac1a0;stroke-miterlimit:10;stroke-width:4px"/><line x1="4699.3" y1="1617.2" x2="4612.6" y2="1684.8" style="fill:none;stroke:#aac1a0;stroke-miterlimit:10;stroke-width:4px"/><line x1="4768" y1="1616.1" x2="4612.6" y2="1684.8" style="fill:none;stroke:#aac1a0;stroke-miterlimit:10;stroke-width:4px"/></g></g><g class="clickable" id="A1-2-52" data-name="customclass A1-2-52"><rect x="3752.6" y="1290.4" width="126.9" height="535.1" style="fill:#f2f2f2"/></g><g class="clickable" id="A1-2-33" data-name="customclass A1-2-33"><rect x="1860.7" y="1123.8" width="142" height="167.1" style="fill:#f2f2f2"/></g><rect id="room-box-104" x="197.9" y="2404.9" width="366.3" height="112.4" style="fill:none"/><rect id="room-box-105" x="265.1" y="2451.8" width="184.6" height="65.7" style="fill:#f2f2f2"/><path id="stairs-fixed-2" d="M282.7,2518.8h105v-67H265.6v67Zm87.9-64.7h14v62.4H370.5Zm-16.9,0h14v62.4h-14Zm-17.1,0h14.1v62.4H336.6Zm-17.1,0h14.1v62.4H319.5Zm-17,0h14.1v62.4H302.5Zm-16.9,0h14.1v62.4H285.6ZM269,2485.5l13.6-27.1v53.4Zm-.5,5,13.4,26H268.5Zm13.1-36.4-13.1,26.2v-26.2Z" transform="translate(0 0)" style="fill:#b7b7b7;isolation:isolate;opacity:0.4000000059604645"/><g class="clickable" id="A1-2-LIFT-G" data-name="customclass A1-2-LIFT-G"><rect id="a" x="1860.7" y="941.9" width="141.7" height="161.7" style="fill:#f2f2f2"/></g><g class="clickable" id="A1-2-STAIR-G" data-name="customclass A1-2-STAIR-G"><rect id="room-box-62" x="2022.6" y="942" width="132.1" height="348.9" style="fill:#f2f2f2"/><g id="scale" style="opacity:0.4000000059604645"><line x1="2023.1" y1="940.3" x2="2155.1" y2="941" style="fill:none;stroke:#b7b7b7;stroke-miterlimit:10;stroke-width:4px"/><polyline points="2155.1 941 2154.1 1155.8 2094.5 1155.5 2095.2 1012 2080.9 1012 2080.2 1155.4 2022.1 1155.2 2023.1 940.3" style="fill:none;stroke:#b7b7b7;stroke-miterlimit:10;stroke-width:4px"/><polyline points="2125.3 1155.4 2126.2 982.7 2052.9 982.4 2052.1 1155.2" style="fill:none;stroke:#b7b7b7;stroke-miterlimit:10;stroke-width:4px"/><line x1="2155.1" y1="1040.4" x2="2094.6" y2="1040" style="fill:none;stroke:#b7b7b7;stroke-miterlimit:10;stroke-width:4px"/><line x1="2155.2" y1="1027" x2="2094.7" y2="1026.7" style="fill:none;stroke:#b7b7b7;stroke-miterlimit:10;stroke-width:4px"/><line x1="2155.3" y1="1014.4" x2="2094.8" y2="1014" style="fill:none;stroke:#b7b7b7;stroke-miterlimit:10;stroke-width:4px"/><line x1="2094.5" y1="1053.1" x2="2155" y2="1053.4" style="fill:none;stroke:#b7b7b7;stroke-miterlimit:10;stroke-width:4px"/><line x1="2080.9" y1="1014" x2="2022.8" y2="1013.7" style="fill:none;stroke:#b7b7b7;stroke-miterlimit:10;stroke-width:4px"/><line x1="2080.8" y1="1026.6" x2="2022.7" y2="1026.4" style="fill:none;stroke:#b7b7b7;stroke-miterlimit:10;stroke-width:4px"/><line x1="2080.7" y1="1040" x2="2022.6" y2="1039.7" style="fill:none;stroke:#b7b7b7;stroke-miterlimit:10;stroke-width:4px"/><line x1="2080.7" y1="1053" x2="2022.6" y2="1052.7" style="fill:none;stroke:#b7b7b7;stroke-miterlimit:10;stroke-width:4px"/><line x1="2080.7" y1="1066" x2="2022.6" y2="1065.7" style="fill:none;stroke:#b7b7b7;stroke-miterlimit:10;stroke-width:4px"/><line x1="2080.6" y1="1078.7" x2="2022.5" y2="1078.4" style="fill:none;stroke:#b7b7b7;stroke-miterlimit:10;stroke-width:4px"/><line x1="2080.5" y1="1091.4" x2="2022.4" y2="1091.2" style="fill:none;stroke:#b7b7b7;stroke-miterlimit:10;stroke-width:4px"/><line x1="2080.3" y1="1130.5" x2="2022.2" y2="1130.2" style="fill:none;stroke:#b7b7b7;stroke-miterlimit:10;stroke-width:4px"/><line x1="2080.3" y1="1142.8" x2="2022.2" y2="1142.5" style="fill:none;stroke:#b7b7b7;stroke-miterlimit:10;stroke-width:4px"/><polyline points="2022.2 1143.6 2052 1155.5 2079.9 1143.6" style="fill:none;stroke:#b7b7b7;stroke-miterlimit:10;stroke-width:4px"/><polyline points="2080.3 1143.2 2080.2 1157.6 2094.6 1157.7 2094.8 1117.1" style="fill:none;stroke:#b7b7b7;stroke-miterlimit:10;stroke-width:4px"/><line x1="2154.8" y1="1104.6" x2="2094.3" y2="1104.3" style="fill:none;stroke:#b7b7b7;stroke-miterlimit:10;stroke-width:4px"/><line x1="2154.9" y1="1078.9" x2="2094.5" y2="1078.6" style="fill:none;stroke:#b7b7b7;stroke-miterlimit:10;stroke-width:4px"/><line x1="2154.9" y1="1091.8" x2="2094.4" y2="1091.4" style="fill:none;stroke:#b7b7b7;stroke-miterlimit:10;stroke-width:4px"/><line x1="2155" y1="1066.1" x2="2094.5" y2="1065.7" style="fill:none;stroke:#b7b7b7;stroke-miterlimit:10;stroke-width:4px"/><line x1="2154.7" y1="1117.4" x2="2094.2" y2="1117.1" style="fill:none;stroke:#b7b7b7;stroke-miterlimit:10;stroke-width:4px"/><line x1="2154.7" y1="1130.3" x2="2094.1" y2="1130.1" style="fill:none;stroke:#b7b7b7;stroke-miterlimit:10;stroke-width:4px"/><line x1="2154.6" y1="1143.1" x2="2094.1" y2="1142.9" style="fill:none;stroke:#b7b7b7;stroke-miterlimit:10;stroke-width:4px"/><line x1="2080.5" y1="1104.1" x2="2022.3" y2="1103.8" style="fill:none;stroke:#b7b7b7;stroke-miterlimit:10;stroke-width:4px"/><line x1="2080.4" y1="1117.3" x2="2022.3" y2="1117" style="fill:none;stroke:#b7b7b7;stroke-miterlimit:10;stroke-width:4px"/></g></g><g class="clickable" id="A1-2-STAIR-F" data-name="customclass A1-2-STAIR-F"><g id="scale-2"><polygon id="room-box-54-2" points="43.4 942.2 43.4 1292.1 190.2 1292.1 190.2 1141.4 190.2 942.2 43.4 942.2" style="fill:#f2f2f2"/><g id="scale-3"><g id="scale-4" style="opacity:0.4000000059604645"><line x1="45" y1="941.5" x2="189.9" y2="942.1" style="fill:none;stroke:#b7b7b7;stroke-miterlimit:10;stroke-width:4px"/><polyline points="189.9 942.1 188.5 1154.6 123 1154.4 124.1 1012.4 108.3 1012.4 107.2 1154.3 43.4 1154.2 45 941.5" style="fill:none;stroke:#b7b7b7;stroke-miterlimit:10;stroke-width:4px"/><polyline points="156.9 1154.3 158 983.4 77.5 983.1 76.4 1154.1" style="fill:none;stroke:#b7b7b7;stroke-miterlimit:10;stroke-width:4px"/><line x1="189.9" y1="1040.4" x2="123.2" y2="1040.1" style="fill:none;stroke:#b7b7b7;stroke-miterlimit:10;stroke-width:4px"/><line x1="189.9" y1="1027.2" x2="123.4" y2="1027" style="fill:none;stroke:#b7b7b7;stroke-miterlimit:10;stroke-width:4px"/><line x1="189.9" y1="1014.6" x2="123.5" y2="1014.4" style="fill:none;stroke:#b7b7b7;stroke-miterlimit:10;stroke-width:4px"/><line x1="123.2" y1="1053.1" x2="189.7" y2="1053.3" style="fill:none;stroke:#b7b7b7;stroke-miterlimit:10;stroke-width:4px"/><line x1="108.3" y1="1014.4" x2="44.4" y2="1014.2" style="fill:none;stroke:#b7b7b7;stroke-miterlimit:10;stroke-width:4px"/><line x1="108.1" y1="1026.9" x2="44.4" y2="1026.7" style="fill:none;stroke:#b7b7b7;stroke-miterlimit:10;stroke-width:4px"/><line x1="108.1" y1="1040.1" x2="44.3" y2="1039.9" style="fill:none;stroke:#b7b7b7;stroke-miterlimit:10;stroke-width:4px"/><line x1="108.1" y1="1052.9" x2="44.3" y2="1052.7" style="fill:none;stroke:#b7b7b7;stroke-miterlimit:10;stroke-width:4px"/><line x1="108" y1="1065.8" x2="44" y2="1065.5" style="fill:none;stroke:#b7b7b7;stroke-miterlimit:10;stroke-width:4px"/><line x1="108" y1="1078.3" x2="44" y2="1078.1" style="fill:none;stroke:#b7b7b7;stroke-miterlimit:10;stroke-width:4px"/><line x1="107.7" y1="1091" x2="44" y2="1090.8" style="fill:none;stroke:#b7b7b7;stroke-miterlimit:10;stroke-width:4px"/><line x1="107.5" y1="1129.7" x2="43.8" y2="1129.4" style="fill:none;stroke:#b7b7b7;stroke-miterlimit:10;stroke-width:4px"/><line x1="107.3" y1="1141.8" x2="43.6" y2="1141.6" style="fill:none;stroke:#b7b7b7;stroke-miterlimit:10;stroke-width:4px"/><polyline points="43.6 1142.7 76.3 1154.4 107.2 1142.6" style="fill:none;stroke:#b7b7b7;stroke-miterlimit:10;stroke-width:4px"/><polyline points="107.3 1142.3 107.2 1156.4 123.2 1156.5 123.4 1116.3" style="fill:none;stroke:#b7b7b7;stroke-miterlimit:10;stroke-width:4px"/><line x1="189.3" y1="1103.9" x2="123" y2="1103.7" style="fill:none;stroke:#b7b7b7;stroke-miterlimit:10;stroke-width:4px"/><line x1="189.6" y1="1078.4" x2="123" y2="1078.2" style="fill:none;stroke:#b7b7b7;stroke-miterlimit:10;stroke-width:4px"/><line x1="189.3" y1="1091.3" x2="123" y2="1091" style="fill:none;stroke:#b7b7b7;stroke-miterlimit:10;stroke-width:4px"/><line x1="189.6" y1="1065.8" x2="123.2" y2="1065.5" style="fill:none;stroke:#b7b7b7;stroke-miterlimit:10;stroke-width:4px"/><line x1="189.3" y1="1116.6" x2="122.7" y2="1116.4" style="fill:none;stroke:#b7b7b7;stroke-miterlimit:10;stroke-width:4px"/><line x1="189.1" y1="1129.3" x2="122.7" y2="1129.1" style="fill:none;stroke:#b7b7b7;stroke-miterlimit:10;stroke-width:4px"/><line x1="189.1" y1="1142.1" x2="122.6" y2="1141.9" style="fill:none;stroke:#b7b7b7;stroke-miterlimit:10;stroke-width:4px"/><line x1="107.7" y1="1103.5" x2="43.9" y2="1103.3" style="fill:none;stroke:#b7b7b7;stroke-miterlimit:10;stroke-width:4px"/><line x1="107.7" y1="1116.5" x2="43.8" y2="1116.3" style="fill:none;stroke:#b7b7b7;stroke-miterlimit:10;stroke-width:4px"/></g></g></g></g><g class="clickable" id="A1-2-LIFT-E" data-name="customclass A1-2-LIFT-E"><rect id="a-4" x="904.5" y="2516.7" width="150.1" height="158.6" style="fill:#f2f2f2"/></g><g class="clickable" id="A1-2-STAIR-E" data-name="customclass A1-2-STAIR-E"><rect x="743.4" y="2537.2" width="143.2" height="342.3" style="fill:#f2f2f2"/><g id="scala_E" data-name="scala E" style="opacity:0.4000000059604645"><line x1="886.6" y1="2537.7" x2="744.4" y2="2537.3" style="fill:none;stroke:#b7b7b7;stroke-miterlimit:10;stroke-width:4px"/><polyline points="744.4 2537.3 743.8 2751 808 2751.1 808.4 2608.4 823.8 2608.5 823.5 2751.2 886.1 2751.4 886.6 2537.7" style="fill:none;stroke:#b7b7b7;stroke-miterlimit:10;stroke-width:4px"/><polyline points="774.8 2750.8 775.2 2579.1 854.2 2579.2 853.8 2751.1" style="fill:none;stroke:#b7b7b7;stroke-miterlimit:10;stroke-width:4px"/><line x1="743.6" y1="2636.2" x2="808.8" y2="2636.4" style="fill:none;stroke:#b7b7b7;stroke-miterlimit:10;stroke-width:4px"/><line x1="743.7" y1="2623" x2="808.9" y2="2623.1" style="fill:none;stroke:#b7b7b7;stroke-miterlimit:10;stroke-width:4px"/><line x1="743.7" y1="2610.4" x2="808.9" y2="2610.5" style="fill:none;stroke:#b7b7b7;stroke-miterlimit:10;stroke-width:4px"/><line x1="808.8" y1="2649.3" x2="743.6" y2="2649.1" style="fill:none;stroke:#b7b7b7;stroke-miterlimit:10;stroke-width:4px"/><line x1="823.8" y1="2610.5" x2="886.4" y2="2610.7" style="fill:none;stroke:#b7b7b7;stroke-miterlimit:10;stroke-width:4px"/><line x1="823.8" y1="2623.1" x2="886.4" y2="2623.3" style="fill:none;stroke:#b7b7b7;stroke-miterlimit:10;stroke-width:4px"/><line x1="823.7" y1="2636.4" x2="886.3" y2="2636.5" style="fill:none;stroke:#b7b7b7;stroke-miterlimit:10;stroke-width:4px"/><line x1="823.7" y1="2649.3" x2="886.3" y2="2649.5" style="fill:none;stroke:#b7b7b7;stroke-miterlimit:10;stroke-width:4px"/><line x1="823.6" y1="2662.2" x2="886.3" y2="2662.4" style="fill:none;stroke:#b7b7b7;stroke-miterlimit:10;stroke-width:4px"/><line x1="823.6" y1="2674.8" x2="886.3" y2="2675" style="fill:none;stroke:#b7b7b7;stroke-miterlimit:10;stroke-width:4px"/><line x1="823.6" y1="2687.5" x2="886.3" y2="2687.7" style="fill:none;stroke:#b7b7b7;stroke-miterlimit:10;stroke-width:4px"/><line x1="823.5" y1="2726.4" x2="886.1" y2="2726.5" style="fill:none;stroke:#b7b7b7;stroke-miterlimit:10;stroke-width:4px"/><line x1="823.5" y1="2738.6" x2="886.1" y2="2738.8" style="fill:none;stroke:#b7b7b7;stroke-miterlimit:10;stroke-width:4px"/><polyline points="886.1 2739.8 853.9 2751.4 823.8 2739.4" style="fill:none;stroke:#b7b7b7;stroke-miterlimit:10;stroke-width:4px"/><polyline points="823.5 2739 823.5 2753.3 807.9 2753.2 808 2712.9" style="fill:none;stroke:#b7b7b7;stroke-miterlimit:10;stroke-width:4px"/><line x1="743.4" y1="2700.1" x2="808.6" y2="2700.2" style="fill:none;stroke:#b7b7b7;stroke-miterlimit:10;stroke-width:4px"/><line x1="743.5" y1="2674.5" x2="808.7" y2="2674.7" style="fill:none;stroke:#b7b7b7;stroke-miterlimit:10;stroke-width:4px"/><line x1="743.5" y1="2687.3" x2="808.7" y2="2687.4" style="fill:none;stroke:#b7b7b7;stroke-miterlimit:10;stroke-width:4px"/><line x1="743.5" y1="2661.7" x2="808.8" y2="2661.9" style="fill:none;stroke:#b7b7b7;stroke-miterlimit:10;stroke-width:4px"/><line x1="743.4" y1="2712.8" x2="808.6" y2="2713" style="fill:none;stroke:#b7b7b7;stroke-miterlimit:10;stroke-width:4px"/><line x1="743.4" y1="2725.6" x2="808.6" y2="2725.7" style="fill:none;stroke:#b7b7b7;stroke-miterlimit:10;stroke-width:4px"/><line x1="743.3" y1="2738.4" x2="808.5" y2="2738.6" style="fill:none;stroke:#b7b7b7;stroke-miterlimit:10;stroke-width:4px"/><line x1="823.5" y1="2700.1" x2="886.2" y2="2700.3" style="fill:none;stroke:#b7b7b7;stroke-miterlimit:10;stroke-width:4px"/><line x1="823.5" y1="2713.2" x2="886.2" y2="2713.4" style="fill:none;stroke:#b7b7b7;stroke-miterlimit:10;stroke-width:4px"/></g></g><g class="clickable" id="A1-2-LIFT-D" data-name="customclass A1-2-LIFT-D"><rect id="a-3" x="3443" y="2276.2" width="289.8" height="107.3" style="fill:#f2f2f2"/></g><g class="clickable" id="A1-2-STAIR-D" data-name="customclass A1-2-STAIR-D"><polygon id="room-box-67" points="3603.7 2994.6 3603.7 2994.2 3603.7 2816.6 3603.7 2535.8 3440.9 2535.8 3440.9 2994.6 3603.7 2994.6" style="fill:#f2f2f2"/><g id="scale-2-2" style="opacity:0.4000000059604645"><line x1="3603.7" y1="2537.1" x2="3441.5" y2="2537.1" style="fill:none;stroke:#b7b7b7;stroke-miterlimit:10;stroke-width:4px"/><polyline points="3441.5 2537.1 3441.5 2866.3 3514.7 2866.3 3514.7 2646.4 3532.3 2646.4 3532.3 2866.3 3603.7 2866.3 3603.7 2537.1" style="fill:none;stroke:#b7b7b7;stroke-miterlimit:10;stroke-width:4px"/><polyline points="3476.8 2865.9 3476.8 2601.3 3566.9 2601.3 3566.9 2866.1" style="fill:none;stroke:#b7b7b7;stroke-miterlimit:10;stroke-width:4px"/><line x1="3440.9" y1="2689.4" x2="3515.3" y2="2689.4" style="fill:none;stroke:#b7b7b7;stroke-miterlimit:10;stroke-width:4px"/><line x1="3440.9" y1="2669" x2="3515.3" y2="2669" style="fill:none;stroke:#b7b7b7;stroke-miterlimit:10;stroke-width:4px"/><line x1="3440.9" y1="2649.5" x2="3515.3" y2="2649.5" style="fill:none;stroke:#b7b7b7;stroke-miterlimit:10;stroke-width:4px"/><line x1="3515.3" y1="2709.3" x2="3440.9" y2="2709.3" style="fill:none;stroke:#b7b7b7;stroke-miterlimit:10;stroke-width:4px"/><line x1="3532.3" y1="2649.5" x2="3603.7" y2="2649.5" style="fill:none;stroke:#b7b7b7;stroke-miterlimit:10;stroke-width:4px"/><line x1="3532.3" y1="2669" x2="3603.7" y2="2669" style="fill:none;stroke:#b7b7b7;stroke-miterlimit:10;stroke-width:4px"/><line x1="3532.3" y1="2689.4" x2="3603.7" y2="2689.4" style="fill:none;stroke:#b7b7b7;stroke-miterlimit:10;stroke-width:4px"/><line x1="3532.3" y1="2709.3" x2="3603.7" y2="2709.3" style="fill:none;stroke:#b7b7b7;stroke-miterlimit:10;stroke-width:4px"/><line x1="3532.3" y1="2729.3" x2="3603.7" y2="2729.3" style="fill:none;stroke:#b7b7b7;stroke-miterlimit:10;stroke-width:4px"/><line x1="3532.3" y1="2748.6" x2="3603.7" y2="2748.6" style="fill:none;stroke:#b7b7b7;stroke-miterlimit:10;stroke-width:4px"/><line x1="3532.3" y1="2768.2" x2="3603.7" y2="2768.2" style="fill:none;stroke:#b7b7b7;stroke-miterlimit:10;stroke-width:4px"/><line x1="3532.3" y1="2828.1" x2="3603.7" y2="2828.1" style="fill:none;stroke:#b7b7b7;stroke-miterlimit:10;stroke-width:4px"/><line x1="3532.3" y1="2846.9" x2="3603.7" y2="2846.9" style="fill:none;stroke:#b7b7b7;stroke-miterlimit:10;stroke-width:4px"/><polyline points="3603.7 2848.6 3567 2866.6 3532.7 2848.2" style="fill:none;stroke:#b7b7b7;stroke-miterlimit:10;stroke-width:4px"/><polyline points="3532.3 2847.5 3532.3 2869.5 3514.6 2869.5 3514.6 2807.4" style="fill:none;stroke:#b7b7b7;stroke-miterlimit:10;stroke-width:4px"/><line x1="3440.9" y1="2787.8" x2="3515.3" y2="2787.8" style="fill:none;stroke:#b7b7b7;stroke-miterlimit:10;stroke-width:4px"/><line x1="3440.9" y1="2748.4" x2="3515.3" y2="2748.4" style="fill:none;stroke:#b7b7b7;stroke-miterlimit:10;stroke-width:4px"/><line x1="3440.9" y1="2768.1" x2="3515.3" y2="2768.1" style="fill:none;stroke:#b7b7b7;stroke-miterlimit:10;stroke-width:4px"/><line x1="3440.9" y1="2728.7" x2="3515.3" y2="2728.7" style="fill:none;stroke:#b7b7b7;stroke-miterlimit:10;stroke-width:4px"/><line x1="3440.9" y1="2807.5" x2="3515.3" y2="2807.5" style="fill:none;stroke:#b7b7b7;stroke-miterlimit:10;stroke-width:4px"/><line x1="3440.9" y1="2827.2" x2="3515.3" y2="2827.2" style="fill:none;stroke:#b7b7b7;stroke-miterlimit:10;stroke-width:4px"/><line x1="3440.9" y1="2846.9" x2="3515.3" y2="2846.9" style="fill:none;stroke:#b7b7b7;stroke-miterlimit:10;stroke-width:4px"/><line x1="3532.3" y1="2787.6" x2="3603.7" y2="2787.6" style="fill:none;stroke:#b7b7b7;stroke-miterlimit:10;stroke-width:4px"/><line x1="3532.3" y1="2807.8" x2="3603.7" y2="2807.8" style="fill:none;stroke:#b7b7b7;stroke-miterlimit:10;stroke-width:4px"/></g></g><g class="clickable" id="A1-2-STAIR-C" data-name="customclass A1-2-STAIR-C"><rect id="room-box-64" x="2420.1" y="782.8" width="392.3" height="139.6" style="fill:#f2f2f2"/><g id="scale_emergenza" data-name="scale emergenza" style="opacity:0.4000000059604645"><line x1="2810.5" y1="782.8" x2="2810.5" y2="921.9" style="fill:none;stroke:#b7b7b7;stroke-miterlimit:10;stroke-width:4px"/><polyline points="2810.5 921.9 2546.3 921.9 2546.3 859.1 2722.8 859.1 2722.8 844.1 2546.3 844.1 2546.3 782.8 2810.5 782.8" style="fill:none;stroke:#b7b7b7;stroke-miterlimit:10;stroke-width:4px"/><polyline points="2546.6 891.6 2759 891.6 2759 814.4 2546.4 814.4" style="fill:none;stroke:#b7b7b7;stroke-miterlimit:10;stroke-width:4px"/><line x1="2688.2" y1="922.3" x2="2688.2" y2="858.6" style="fill:none;stroke:#b7b7b7;stroke-miterlimit:10;stroke-width:4px"/><line x1="2704.7" y1="922.3" x2="2704.7" y2="858.6" style="fill:none;stroke:#b7b7b7;stroke-miterlimit:10;stroke-width:4px"/><line x1="2720.2" y1="922.3" x2="2720.2" y2="858.6" style="fill:none;stroke:#b7b7b7;stroke-miterlimit:10;stroke-width:4px"/><line x1="2672.3" y1="858.6" x2="2672.3" y2="922.3" style="fill:none;stroke:#b7b7b7;stroke-miterlimit:10;stroke-width:4px"/><line x1="2720.2" y1="844.1" x2="2720.2" y2="782.8" style="fill:none;stroke:#b7b7b7;stroke-miterlimit:10;stroke-width:4px"/><line x1="2704.7" y1="844.1" x2="2704.7" y2="782.8" style="fill:none;stroke:#b7b7b7;stroke-miterlimit:10;stroke-width:4px"/><line x1="2688.2" y1="844.1" x2="2688.2" y2="782.8" style="fill:none;stroke:#b7b7b7;stroke-miterlimit:10;stroke-width:4px"/><line x1="2672.3" y1="844.1" x2="2672.3" y2="782.8" style="fill:none;stroke:#b7b7b7;stroke-miterlimit:10;stroke-width:4px"/><line x1="2656.3" y1="844.1" x2="2656.3" y2="782.8" style="fill:none;stroke:#b7b7b7;stroke-miterlimit:10;stroke-width:4px"/><line x1="2640.7" y1="844.1" x2="2640.7" y2="782.8" style="fill:none;stroke:#b7b7b7;stroke-miterlimit:10;stroke-width:4px"/><line x1="2624.9" y1="844.1" x2="2624.9" y2="782.8" style="fill:none;stroke:#b7b7b7;stroke-miterlimit:10;stroke-width:4px"/><line x1="2576.9" y1="844.1" x2="2576.9" y2="782.8" style="fill:none;stroke:#b7b7b7;stroke-miterlimit:10;stroke-width:4px"/><line x1="2561.8" y1="844.1" x2="2561.8" y2="782.8" style="fill:none;stroke:#b7b7b7;stroke-miterlimit:10;stroke-width:4px"/><polyline points="2560.5 782.8 2546 814.3 2560.8 843.7" style="fill:none;stroke:#b7b7b7;stroke-miterlimit:10;stroke-width:4px"/><polyline points="2561.4 844.1 2543.6 844.1 2543.6 859.2 2593.5 859.2" style="fill:none;stroke:#b7b7b7;stroke-miterlimit:10;stroke-width:4px"/><line x1="2609.2" y1="922.3" x2="2609.2" y2="858.6" style="fill:none;stroke:#b7b7b7;stroke-miterlimit:10;stroke-width:4px"/><line x1="2640.9" y1="922.3" x2="2640.9" y2="858.6" style="fill:none;stroke:#b7b7b7;stroke-miterlimit:10;stroke-width:4px"/><line x1="2625" y1="922.3" x2="2625" y2="858.6" style="fill:none;stroke:#b7b7b7;stroke-miterlimit:10;stroke-width:4px"/><line x1="2656.7" y1="922.3" x2="2656.7" y2="858.6" style="fill:none;stroke:#b7b7b7;stroke-miterlimit:10;stroke-width:4px"/><line x1="2593.4" y1="922.3" x2="2593.4" y2="858.6" style="fill:none;stroke:#b7b7b7;stroke-miterlimit:10;stroke-width:4px"/><line x1="2577.6" y1="922.3" x2="2577.6" y2="858.6" style="fill:none;stroke:#b7b7b7;stroke-miterlimit:10;stroke-width:4px"/><line x1="2561.8" y1="922.3" x2="2561.8" y2="858.6" style="fill:none;stroke:#b7b7b7;stroke-miterlimit:10;stroke-width:4px"/><line x1="2609.5" y1="844.1" x2="2609.5" y2="782.8" style="fill:none;stroke:#b7b7b7;stroke-miterlimit:10;stroke-width:4px"/><line x1="2593.3" y1="844.1" x2="2593.3" y2="782.8" style="fill:none;stroke:#b7b7b7;stroke-miterlimit:10;stroke-width:4px"/></g></g><g class="clickable" id="A1-2-LIFT-B" data-name="customclass A1-2-LIFT-B"><rect id="a-2" x="4399" y="673.9" width="172.4" height="247.4" style="fill:#f2f2f2"/></g><g class="clickable" id="A1-2-STAIR-B" data-name="customclass A1-2-STAIR-B"><rect id="room-box-71" x="3441.5" y="673.4" width="311.4" height="248.5" style="fill:#f2f2f2"/><g id="scale-3-2" style="opacity:0.4000000059604645"><line x1="3441.5" y1="673.9" x2="3441.5" y2="921.5" style="fill:none;stroke:#b7b7b7;stroke-miterlimit:10;stroke-width:4px"/><polyline points="3441.5 921.5 3749.8 921.5 3749.8 809.8 3543.9 809.8 3543.9 782.9 3749.8 782.9 3749.8 673.9 3441.5 673.9" style="fill:none;stroke:#b7b7b7;stroke-miterlimit:10;stroke-width:4px"/><polyline points="3749.4 867.7 3501.6 867.7 3501.6 730.1 3749.6 730.1" style="fill:none;stroke:#b7b7b7;stroke-miterlimit:10;stroke-width:4px"/><line x1="3584.1" y1="922.4" x2="3584.1" y2="808.9" style="fill:none;stroke:#b7b7b7;stroke-miterlimit:10;stroke-width:4px"/><line x1="3565" y1="922.4" x2="3565" y2="808.9" style="fill:none;stroke:#b7b7b7;stroke-miterlimit:10;stroke-width:4px"/><line x1="3546.8" y1="922.4" x2="3546.8" y2="808.9" style="fill:none;stroke:#b7b7b7;stroke-miterlimit:10;stroke-width:4px"/><line x1="3602.8" y1="808.9" x2="3602.8" y2="922.4" style="fill:none;stroke:#b7b7b7;stroke-miterlimit:10;stroke-width:4px"/><line x1="3546.8" y1="782.9" x2="3546.8" y2="673.9" style="fill:none;stroke:#b7b7b7;stroke-miterlimit:10;stroke-width:4px"/><line x1="3565" y1="782.9" x2="3565" y2="673.9" style="fill:none;stroke:#b7b7b7;stroke-miterlimit:10;stroke-width:4px"/><line x1="3584.1" y1="782.9" x2="3584.1" y2="673.9" style="fill:none;stroke:#b7b7b7;stroke-miterlimit:10;stroke-width:4px"/><line x1="3602.8" y1="782.9" x2="3602.8" y2="673.9" style="fill:none;stroke:#b7b7b7;stroke-miterlimit:10;stroke-width:4px"/><line x1="3621.4" y1="782.9" x2="3621.4" y2="673.9" style="fill:none;stroke:#b7b7b7;stroke-miterlimit:10;stroke-width:4px"/><line x1="3639.6" y1="782.9" x2="3639.6" y2="673.9" style="fill:none;stroke:#b7b7b7;stroke-miterlimit:10;stroke-width:4px"/><line x1="3658" y1="782.9" x2="3658" y2="673.9" style="fill:none;stroke:#b7b7b7;stroke-miterlimit:10;stroke-width:4px"/><line x1="3714" y1="782.9" x2="3714" y2="673.9" style="fill:none;stroke:#b7b7b7;stroke-miterlimit:10;stroke-width:4px"/><line x1="3731.6" y1="782.9" x2="3731.6" y2="673.9" style="fill:none;stroke:#b7b7b7;stroke-miterlimit:10;stroke-width:4px"/><polyline points="3733.2 673.9 3750.1 730 3732.8 782.4" style="fill:none;stroke:#b7b7b7;stroke-miterlimit:10;stroke-width:4px"/><polyline points="3732.3 782.9 3752.9 782.9 3752.9 810 3694.6 810" style="fill:none;stroke:#b7b7b7;stroke-miterlimit:10;stroke-width:4px"/><line x1="3676.3" y1="922.4" x2="3676.3" y2="808.9" style="fill:none;stroke:#b7b7b7;stroke-miterlimit:10;stroke-width:4px"/><line x1="3639.4" y1="922.4" x2="3639.4" y2="808.9" style="fill:none;stroke:#b7b7b7;stroke-miterlimit:10;stroke-width:4px"/><line x1="3657.8" y1="922.4" x2="3657.8" y2="808.9" style="fill:none;stroke:#b7b7b7;stroke-miterlimit:10;stroke-width:4px"/><line x1="3621" y1="922.4" x2="3621" y2="808.9" style="fill:none;stroke:#b7b7b7;stroke-miterlimit:10;stroke-width:4px"/><line x1="3694.8" y1="922.4" x2="3694.8" y2="808.9" style="fill:none;stroke:#b7b7b7;stroke-miterlimit:10;stroke-width:4px"/><line x1="3713.2" y1="922.4" x2="3713.2" y2="808.9" style="fill:none;stroke:#b7b7b7;stroke-miterlimit:10;stroke-width:4px"/><line x1="3731.6" y1="922.4" x2="3731.6" y2="808.9" style="fill:none;stroke:#b7b7b7;stroke-miterlimit:10;stroke-width:4px"/><line x1="3676.1" y1="782.9" x2="3676.1" y2="673.9" style="fill:none;stroke:#b7b7b7;stroke-miterlimit:10;stroke-width:4px"/><line x1="3695" y1="782.9" x2="3695" y2="673.9" style="fill:none;stroke:#b7b7b7;stroke-miterlimit:10;stroke-width:4px"/></g></g><g class="clickable" id="A1-2-STAIR-A" data-name="customclass A1-2-STAIR-A"><polygon id="room-box-66" points="5262.1 921.2 5262.1 841.9 5262.1 755.3 5262.1 673.9 4851.9 673.9 4851.9 765.9 4851.9 852.5 4851.9 921.2 5262.1 921.2" style="fill:#f2f2f2"/><g id="scale_emergenza-2" data-name="scale emergenza-2" style="opacity:0.4000000059604645"><line x1="4855.2" y1="673.9" x2="4855.2" y2="921.5" style="fill:none;stroke:#b7b7b7;stroke-miterlimit:10;stroke-width:4px"/><polyline points="4855.2 921.5 5183.4 921.5 5183.4 809.8 4964.2 809.8 4964.2 782.9 5183.4 782.9 5183.4 673.9 4855.2 673.9" style="fill:none;stroke:#b7b7b7;stroke-miterlimit:10;stroke-width:4px"/><polyline points="5183 867.7 4919.2 867.7 4919.2 730.1 5183.1 730.1" style="fill:none;stroke:#b7b7b7;stroke-miterlimit:10;stroke-width:4px"/><line x1="5007" y1="922.4" x2="5007" y2="808.9" style="fill:none;stroke:#b7b7b7;stroke-miterlimit:10;stroke-width:4px"/><line x1="4986.7" y1="922.4" x2="4986.7" y2="808.9" style="fill:none;stroke:#b7b7b7;stroke-miterlimit:10;stroke-width:4px"/><line x1="4967.3" y1="922.4" x2="4967.3" y2="808.9" style="fill:none;stroke:#b7b7b7;stroke-miterlimit:10;stroke-width:4px"/><line x1="5026.8" y1="808.9" x2="5026.8" y2="922.4" style="fill:none;stroke:#b7b7b7;stroke-miterlimit:10;stroke-width:4px"/><line x1="4967.3" y1="782.9" x2="4967.3" y2="673.9" style="fill:none;stroke:#b7b7b7;stroke-miterlimit:10;stroke-width:4px"/><line x1="4986.7" y1="782.9" x2="4986.7" y2="673.9" style="fill:none;stroke:#b7b7b7;stroke-miterlimit:10;stroke-width:4px"/><line x1="5007" y1="782.9" x2="5007" y2="673.9" style="fill:none;stroke:#b7b7b7;stroke-miterlimit:10;stroke-width:4px"/><line x1="5026.8" y1="782.9" x2="5026.8" y2="673.9" style="fill:none;stroke:#b7b7b7;stroke-miterlimit:10;stroke-width:4px"/><line x1="5046.7" y1="782.9" x2="5046.7" y2="673.9" style="fill:none;stroke:#b7b7b7;stroke-miterlimit:10;stroke-width:4px"/><line x1="5066.1" y1="782.9" x2="5066.1" y2="673.9" style="fill:none;stroke:#b7b7b7;stroke-miterlimit:10;stroke-width:4px"/><line x1="5085.6" y1="782.9" x2="5085.6" y2="673.9" style="fill:none;stroke:#b7b7b7;stroke-miterlimit:10;stroke-width:4px"/><line x1="5145.3" y1="782.9" x2="5145.3" y2="673.9" style="fill:none;stroke:#b7b7b7;stroke-miterlimit:10;stroke-width:4px"/><line x1="5164.1" y1="782.9" x2="5164.1" y2="673.9" style="fill:none;stroke:#b7b7b7;stroke-miterlimit:10;stroke-width:4px"/><polyline points="5165.7 673.9 5183.6 730 5165.3 782.4" style="fill:none;stroke:#b7b7b7;stroke-miterlimit:10;stroke-width:4px"/><polyline points="5164.6 782.9 5186.6 782.9 5186.6 810 5124.7 810" style="fill:none;stroke:#b7b7b7;stroke-miterlimit:10;stroke-width:4px"/><line x1="5105.1" y1="922.4" x2="5105.1" y2="808.9" style="fill:none;stroke:#b7b7b7;stroke-miterlimit:10;stroke-width:4px"/><line x1="5065.8" y1="922.4" x2="5065.8" y2="808.9" style="fill:none;stroke:#b7b7b7;stroke-miterlimit:10;stroke-width:4px"/><line x1="5085.5" y1="922.4" x2="5085.5" y2="808.9" style="fill:none;stroke:#b7b7b7;stroke-miterlimit:10;stroke-width:4px"/><line x1="5046.2" y1="922.4" x2="5046.2" y2="808.9" style="fill:none;stroke:#b7b7b7;stroke-miterlimit:10;stroke-width:4px"/><line x1="5124.7" y1="922.4" x2="5124.7" y2="808.9" style="fill:none;stroke:#b7b7b7;stroke-miterlimit:10;stroke-width:4px"/><line x1="5144.4" y1="922.4" x2="5144.4" y2="808.9" style="fill:none;stroke:#b7b7b7;stroke-miterlimit:10;stroke-width:4px"/><line x1="5164.1" y1="922.4" x2="5164.1" y2="808.9" style="fill:none;stroke:#b7b7b7;stroke-miterlimit:10;stroke-width:4px"/><line x1="5104.9" y1="782.9" x2="5104.9" y2="673.9" style="fill:none;stroke:#b7b7b7;stroke-miterlimit:10;stroke-width:4px"/><line x1="5125.1" y1="782.9" x2="5125.1" y2="673.9" style="fill:none;stroke:#b7b7b7;stroke-miterlimit:10;stroke-width:4px"/></g></g></g><g id="scala_fantasma" data-name="scala fantasma" style="opacity:0.4000000059604645"><line x1="1843.6" y1="2619.6" x2="1717.7" y2="2619.3" style="fill:none;stroke:#b7b7b7;stroke-miterlimit:10;stroke-width:4px"/><polyline points="1717.7 2619.3 1717.2 2832.9 1774 2833.1 1774.3 2690.4 1788 2690.4 1787.6 2833.1 1843 2833.2 1843.6 2619.6" style="fill:none;stroke:#b7b7b7;stroke-miterlimit:10;stroke-width:4px"/><polyline points="1744.6 2832.7 1745 2661 1814.9 2661.2 1814.5 2833" style="fill:none;stroke:#b7b7b7;stroke-miterlimit:10;stroke-width:4px"/><line x1="1717" y1="2718.1" x2="1774.7" y2="2718.2" style="fill:none;stroke:#b7b7b7;stroke-miterlimit:10;stroke-width:4px"/><line x1="1717" y1="2704.8" x2="1774.7" y2="2705" style="fill:none;stroke:#b7b7b7;stroke-miterlimit:10;stroke-width:4px"/><line x1="1717.1" y1="2692.2" x2="1774.8" y2="2692.4" style="fill:none;stroke:#b7b7b7;stroke-miterlimit:10;stroke-width:4px"/><line x1="1774.7" y1="2731.2" x2="1716.9" y2="2731" style="fill:none;stroke:#b7b7b7;stroke-miterlimit:10;stroke-width:4px"/><line x1="1788" y1="2692.4" x2="1843.4" y2="2692.6" style="fill:none;stroke:#b7b7b7;stroke-miterlimit:10;stroke-width:4px"/><line x1="1788" y1="2705.1" x2="1843.3" y2="2705.2" style="fill:none;stroke:#b7b7b7;stroke-miterlimit:10;stroke-width:4px"/><line x1="1787.9" y1="2718.2" x2="1843.3" y2="2718.4" style="fill:none;stroke:#b7b7b7;stroke-miterlimit:10;stroke-width:4px"/><line x1="1787.9" y1="2731.2" x2="1843.3" y2="2731.3" style="fill:none;stroke:#b7b7b7;stroke-miterlimit:10;stroke-width:4px"/><line x1="1787.9" y1="2744.1" x2="1843.3" y2="2744.3" style="fill:none;stroke:#b7b7b7;stroke-miterlimit:10;stroke-width:4px"/><line x1="1787.8" y1="2756.7" x2="1843.3" y2="2756.9" style="fill:none;stroke:#b7b7b7;stroke-miterlimit:10;stroke-width:4px"/><line x1="1787.8" y1="2769.4" x2="1843.2" y2="2769.6" style="fill:none;stroke:#b7b7b7;stroke-miterlimit:10;stroke-width:4px"/><line x1="1787.7" y1="2808.3" x2="1843.1" y2="2808.4" style="fill:none;stroke:#b7b7b7;stroke-miterlimit:10;stroke-width:4px"/><line x1="1787.6" y1="2820.5" x2="1843.1" y2="2820.6" style="fill:none;stroke:#b7b7b7;stroke-miterlimit:10;stroke-width:4px"/><polyline points="1843.1 2821.7 1814.5 2833.3 1788 2821.3" style="fill:none;stroke:#b7b7b7;stroke-miterlimit:10;stroke-width:4px"/><polyline points="1787.6 2820.9 1787.6 2835.1 1773.9 2835.1 1774 2794.8" style="fill:none;stroke:#b7b7b7;stroke-miterlimit:10;stroke-width:4px"/><line x1="1716.9" y1="2782" x2="1774.6" y2="2782.1" style="fill:none;stroke:#b7b7b7;stroke-miterlimit:10;stroke-width:4px"/><line x1="1716.9" y1="2756.4" x2="1774.6" y2="2756.5" style="fill:none;stroke:#b7b7b7;stroke-miterlimit:10;stroke-width:4px"/><line x1="1716.9" y1="2769.2" x2="1774.6" y2="2769.3" style="fill:none;stroke:#b7b7b7;stroke-miterlimit:10;stroke-width:4px"/><line x1="1716.9" y1="2743.6" x2="1774.6" y2="2743.8" style="fill:none;stroke:#b7b7b7;stroke-miterlimit:10;stroke-width:4px"/><line x1="1716.8" y1="2794.8" x2="1774.6" y2="2794.9" style="fill:none;stroke:#b7b7b7;stroke-miterlimit:10;stroke-width:4px"/><line x1="1716.8" y1="2807.5" x2="1774.5" y2="2807.7" style="fill:none;stroke:#b7b7b7;stroke-miterlimit:10;stroke-width:4px"/><line x1="1716.8" y1="2820.3" x2="1774.5" y2="2820.5" style="fill:none;stroke:#b7b7b7;stroke-miterlimit:10;stroke-width:4px"/><line x1="1787.7" y1="2782" x2="1843.2" y2="2782.2" style="fill:none;stroke:#b7b7b7;stroke-miterlimit:10;stroke-width:4px"/><line x1="1787.7" y1="2795.1" x2="1843.2" y2="2795.2" style="fill:none;stroke:#b7b7b7;stroke-miterlimit:10;stroke-width:4px"/></g></g></svg>