<svg id="floor-01" xmlns="http://www.w3.org/2000/svg" xmlns:xlink="http://www.w3.org/1999/xlink" viewBox="0 0 5444 3038.2"><defs><pattern id="SVGID_49_" data-name="SVGID 49 " width="44.9" height="44.9" patternTransform="matrix(-0.62, 0, 0, 0.62, -26389.4, 38488.44)" patternUnits="userSpaceOnUse" viewBox="0 0 44.9 44.9"><rect width="44.9" height="44.9" style="fill:none"/><rect width="44.9" height="44.9" style="fill:none"/><rect width="44.9" height="44.9" style="fill:none"/><rect width="44.9" height="44.9" style="fill:none"/><rect width="44.9" height="44.9" style="fill:none"/><rect width="44.9" height="44.9" style="fill:none"/><rect width="44.9" height="44.9" style="fill:none"/><rect width="44.9" height="44.9" style="fill:none"/><rect width="44.9" height="44.9" style="fill:none"/><rect width="44.9" height="44.9" style="fill:none"/><rect y="0.1" width="44.9" height="44.8" style="fill:none"/><rect y="0.1" width="44.9" height="44.8" style="fill:none"/><rect x="41.7" y="-41.7" width="47.2" height="45.6" style="fill:#f2f2f2"/><line x1="44.9" x2="89.7" y2="-44.9" style="fill:none;stroke:#ddd;stroke-linecap:square;stroke-linejoin:round;stroke-width:20px"/><rect x="-3.1" y="-41.7" width="47.2" height="45.6" style="fill:#f2f2f2"/><line x2="44.9" y2="-44.9" style="fill:none;stroke:#ddd;stroke-linecap:square;stroke-linejoin:round;stroke-width:20px"/><line x1="-44.9" y2="-44.9" style="fill:none;stroke:#ddd;stroke-linecap:square;stroke-linejoin:round;stroke-width:20px"/><rect x="41.7" y="3.2" width="47.2" height="45.6" style="fill:#f2f2f2"/><line x1="44.9" y1="44.9" x2="89.7" style="fill:none;stroke:#ddd;stroke-linecap:square;stroke-linejoin:round;stroke-width:20px"/><rect x="-3.1" y="3.2" width="47.2" height="45.6" style="fill:#f2f2f2"/><line y1="44.9" x2="44.9" style="fill:none;stroke:#ddd;stroke-linecap:square;stroke-linejoin:round;stroke-width:20px"/><line x1="-44.9" y1="44.9" style="fill:none;stroke:#ddd;stroke-linecap:square;stroke-linejoin:round;stroke-width:20px"/><line x1="44.9" y1="89.7" x2="89.7" y2="44.9" style="fill:none;stroke:#ddd;stroke-linecap:square;stroke-linejoin:round;stroke-width:20px"/><line y1="89.7" x2="44.9" y2="44.9" style="fill:none;stroke:#ddd;stroke-linecap:square;stroke-linejoin:round;stroke-width:20px"/><line x1="-44.9" y1="89.7" y2="44.9" style="fill:none;stroke:#ddd;stroke-linecap:square;stroke-linejoin:round;stroke-width:20px"/></pattern><pattern id="SVGID_55_" data-name="SVGID 55 " width="114.8" height="114.8" patternTransform="matrix(-0.62, 0, 0, 0.62, -26521.85, 39270.67)" patternUnits="userSpaceOnUse" viewBox="0 0 114.8 114.8"><rect width="114.8" height="114.8" style="fill:none"/><rect width="114.8" height="114.8" style="fill:none"/><rect width="114.8" height="114.8" style="fill:none"/><rect width="114.8" height="114.8" style="fill:none"/><rect width="114.8" height="114.8" style="fill:none"/><rect width="114.8" height="114.8" style="fill:none"/><rect width="114.8" height="114.8" style="fill:none"/><rect width="114.8" height="114.8" style="fill:none"/><rect width="114.8" height="114.8" style="fill:none"/><rect width="114.8" height="114.8" style="fill:none"/><rect width="114.8" height="114.8" style="fill:none"/><rect width="114.8" height="114.8" style="fill:none"/><line x1="231.1" y1="-113.9" x2="116.2" y2="1.1" style="fill:none;stroke:#b7b7b7;stroke-linecap:round;stroke-linejoin:round;stroke-width:4px;stroke-dasharray:0,29"/><polygon points="116.2 -113.9 1.4 -113.9 1.4 1 116.2 1.1 116.2 -113.9" style="fill:#f2f2f2"/><line x1="116.2" y1="-113.9" x2="1.4" y2="1.1" style="fill:none;stroke:#b7b7b7;stroke-linecap:round;stroke-linejoin:round;stroke-width:4px;stroke-dasharray:0,29"/><line x1="116.2" y1="-61.1" x2="53.6" y2="1.2" style="fill:none;stroke:#b7b7b7;stroke-linecap:round;stroke-linejoin:round;stroke-width:4px;stroke-dasharray:0,29"/><line x1="116.2" y1="-84.7" x2="30.1" y2="1.2" style="fill:none;stroke:#b7b7b7;stroke-linecap:round;stroke-linejoin:round;stroke-width:4px;stroke-dasharray:0,29"/><polygon points="1.4 -113.9 -113.4 -113.9 -113.4 1 1.4 1.1 1.4 -113.9" style="fill:#f2f2f2"/><line x1="1.4" y1="-113.9" x2="-113.4" y2="1.1" style="fill:none;stroke:#b7b7b7;stroke-linecap:round;stroke-linejoin:round;stroke-width:4px;stroke-dasharray:0,29"/><line x1="1.4" y1="-61.1" x2="-61.2" y2="1.2" style="fill:none;stroke:#b7b7b7;stroke-linecap:round;stroke-linejoin:round;stroke-width:4px;stroke-dasharray:0,29"/><line x1="1.4" y1="-84.7" x2="-84.8" y2="1.2" style="fill:none;stroke:#b7b7b7;stroke-linecap:round;stroke-linejoin:round;stroke-width:4px;stroke-dasharray:0,29"/><line x1="231.1" y1="1" x2="116.2" y2="116" style="fill:none;stroke:#b7b7b7;stroke-linecap:round;stroke-linejoin:round;stroke-width:4px;stroke-dasharray:0,29"/><line x1="199.7" y1="-1.3" x2="113.4" y2="84.6" style="fill:none;stroke:#b7b7b7;stroke-linecap:round;stroke-linejoin:round;stroke-width:4px;stroke-dasharray:0,29"/><polygon points="116.2 1 1.4 1 1.4 115.9 116.2 116 116.2 1" style="fill:#f2f2f2"/><line x1="116.2" y1="1" x2="1.4" y2="116" style="fill:none;stroke:#b7b7b7;stroke-linecap:round;stroke-linejoin:round;stroke-width:4px;stroke-dasharray:0,29"/><line x1="53.6" y1="1.2" x2="1.7" y2="53.2" style="fill:none;stroke:#b7b7b7;stroke-linecap:round;stroke-linejoin:round;stroke-width:4px;stroke-dasharray:0,29"/><line x1="116.2" y1="53.7" x2="53.6" y2="116" style="fill:none;stroke:#b7b7b7;stroke-linecap:round;stroke-linejoin:round;stroke-width:4px;stroke-dasharray:0,29"/><line x1="116.2" y1="30.2" x2="30.1" y2="116" style="fill:none;stroke:#b7b7b7;stroke-linecap:round;stroke-linejoin:round;stroke-width:4px;stroke-dasharray:0,29"/><line x1="84.8" y1="-1.3" x2="-1.4" y2="84.6" style="fill:none;stroke:#b7b7b7;stroke-linecap:round;stroke-linejoin:round;stroke-width:4px;stroke-dasharray:0,29"/><polygon points="1.4 1 -113.4 1 -113.4 115.9 1.4 116 1.4 1" style="fill:#f2f2f2"/><line x1="1.4" y1="1" x2="-113.4" y2="116" style="fill:none;stroke:#b7b7b7;stroke-linecap:round;stroke-linejoin:round;stroke-width:4px;stroke-dasharray:0,29"/><line x1="1.4" y1="53.7" x2="-61.2" y2="116" style="fill:none;stroke:#b7b7b7;stroke-linecap:round;stroke-linejoin:round;stroke-width:4px;stroke-dasharray:0,29"/><line x1="1.4" y1="30.2" x2="-84.8" y2="116" style="fill:none;stroke:#b7b7b7;stroke-linecap:round;stroke-linejoin:round;stroke-width:4px;stroke-dasharray:0,29"/><line x1="231.1" y1="115.9" x2="116.2" y2="230.8" style="fill:none;stroke:#b7b7b7;stroke-linecap:round;stroke-linejoin:round;stroke-width:4px;stroke-dasharray:0,29"/><line x1="199.7" y1="113.5" x2="113.4" y2="199.5" style="fill:none;stroke:#b7b7b7;stroke-linecap:round;stroke-linejoin:round;stroke-width:4px;stroke-dasharray:0,29"/><line x1="116.2" y1="115.9" x2="1.4" y2="230.8" style="fill:none;stroke:#b7b7b7;stroke-linecap:round;stroke-linejoin:round;stroke-width:4px;stroke-dasharray:0,29"/><line x1="53.6" y1="116" x2="1.7" y2="168" style="fill:none;stroke:#b7b7b7;stroke-linecap:round;stroke-linejoin:round;stroke-width:4px;stroke-dasharray:0,29"/><line x1="84.8" y1="113.5" x2="-1.4" y2="199.5" style="fill:none;stroke:#b7b7b7;stroke-linecap:round;stroke-linejoin:round;stroke-width:4px;stroke-dasharray:0,29"/><line x1="1.4" y1="115.9" x2="-113.4" y2="230.8" style="fill:none;stroke:#b7b7b7;stroke-linecap:round;stroke-linejoin:round;stroke-width:4px;stroke-dasharray:0,29"/></pattern><pattern id="SVGID_56_" data-name="SVGID 56 " width="44.9" height="44.9" patternTransform="matrix(-0.62, 0, 0, 0.62, -26443.96, 38793.86)" patternUnits="userSpaceOnUse" viewBox="0 0 44.9 44.9"><rect width="44.9" height="44.9" style="fill:none"/><rect width="44.9" height="44.9" style="fill:none"/><rect width="44.9" height="44.9" style="fill:none"/><rect width="44.9" height="44.9" style="fill:none"/><rect width="44.9" height="44.9" style="fill:none"/><rect width="44.9" height="44.9" style="fill:none"/><rect width="44.9" height="44.9" style="fill:none"/><rect width="44.9" height="44.9" style="fill:none"/><rect width="44.9" height="44.9" style="fill:none"/><rect width="44.9" height="44.9" style="fill:none"/><rect y="0.1" width="44.9" height="44.8" style="fill:none"/><rect y="0.1" width="44.9" height="44.8" style="fill:none"/><rect x="41.7" y="-41.7" width="47.2" height="45.6" style="fill:#f2f2f2"/><line x1="44.9" x2="89.7" y2="-44.9" style="fill:none;stroke:#ddd;stroke-linecap:square;stroke-linejoin:round;stroke-width:20px"/><rect x="-3.1" y="-41.7" width="47.2" height="45.6" style="fill:#f2f2f2"/><line x2="44.9" y2="-44.9" style="fill:none;stroke:#ddd;stroke-linecap:square;stroke-linejoin:round;stroke-width:20px"/><line x1="-44.9" y2="-44.9" style="fill:none;stroke:#ddd;stroke-linecap:square;stroke-linejoin:round;stroke-width:20px"/><rect x="41.7" y="3.2" width="47.2" height="45.6" style="fill:#f2f2f2"/><line x1="44.9" y1="44.9" x2="89.7" style="fill:none;stroke:#ddd;stroke-linecap:square;stroke-linejoin:round;stroke-width:20px"/><rect x="-3.1" y="3.2" width="47.2" height="45.6" style="fill:#f2f2f2"/><line y1="44.9" x2="44.9" style="fill:none;stroke:#ddd;stroke-linecap:square;stroke-linejoin:round;stroke-width:20px"/><line x1="-44.9" y1="44.9" style="fill:none;stroke:#ddd;stroke-linecap:square;stroke-linejoin:round;stroke-width:20px"/><line x1="44.9" y1="89.7" x2="89.7" y2="44.9" style="fill:none;stroke:#ddd;stroke-linecap:square;stroke-linejoin:round;stroke-width:20px"/><line y1="89.7" x2="44.9" y2="44.9" style="fill:none;stroke:#ddd;stroke-linecap:square;stroke-linejoin:round;stroke-width:20px"/><line x1="-44.9" y1="89.7" y2="44.9" style="fill:none;stroke:#ddd;stroke-linecap:square;stroke-linejoin:round;stroke-width:20px"/></pattern></defs><g id="a1-3"><g id="floor-background"><polygon points="523 2838.5 523 3037.2 3772.3 3037.2 3772.3 2636.8 3855.8 2636.8 3856.5 2818.6 5443 2818.6 5443 1 2239.1 7.3 2239.1 1171.2 2194.6 1171.2 2194.6 901.7 1 901.7 1 2838.5 523 2838.5" style="fill:#f2f2f2;stroke:#b7b7b7;stroke-miterlimit:10;stroke-width:2px"/></g><g id="floor-wall"><polygon points="4604.1 2488.8 4604.1 2508.9 4687.5 2508.9 4687.9 2508.9 4687.9 2595.5 4687.5 2595.5 4687.5 2615.6 4687.9 2615.6 4687.9 2694.4 4687.5 2694.4 4687.5 2694.9 4415.9 2694.9 4415.9 2694.4 4415.8 2694.4 4415.8 2615.6 4415.9 2615.6 4415.9 2595.5 4415.8 2595.5 4415.8 2508.9 4415.9 2508.9 4486.8 2508.9 4499.5 2508.9 4499.5 2488.8 4486.8 2488.8 4415.8 2488.8 4395.6 2488.8 4344.3 2488.8 4344.3 2508.9 4395.6 2508.9 4396 2508.9 4396 2694.9 4211.5 2694.9 4211.5 2694.4 4211.5 2615.6 4211.5 2595.5 4211.5 2508.9 4263.2 2508.9 4263.2 2488.8 4191.5 2488.8 4191.5 2508.9 4191.5 2595.5 4191.5 2615.6 4191.5 2694.4 4191.5 2713.9 4707.6 2713.9 4707.6 2488.8 4687.9 2488.8 4604.1 2488.8" style="fill:#b7b7b7"/><polygon points="5279.1 2383.2 5259 2383.2 5259 2383.6 5214.7 2383.6 5214.7 2403.2 5259.1 2403.2 5259.1 2595.6 5064.7 2595.6 5064.7 2595.5 5064.7 2508.9 5064.7 2488.8 5064.7 2403.6 5064.7 2403.2 5110.1 2403.2 5110.1 2383.6 5064.7 2383.6 5064.7 2383.2 5044.7 2383.2 5044.7 2383.6 5000.3 2383.6 5000.3 2403.2 5043.2 2403.2 5043.2 2403.6 5044.7 2403.6 5044.7 2488.8 5043.2 2488.8 5043.2 2508.9 5044.7 2508.9 5044.7 2595.5 5043.2 2595.5 5043.2 2595.6 4850.3 2595.6 4850.3 2595.5 4850.3 2508.9 4850.3 2488.8 4850.3 2403.6 4850.3 2403.2 4895.8 2403.2 4895.8 2383.6 4850.3 2383.6 4850.3 2383.2 4830.2 2383.2 4830.2 2383.6 4830.2 2403.6 4830.2 2488.8 4830.2 2508.9 4830.2 2595.5 4830.2 2615.6 4830.2 2615.6 4850.3 2615.6 4850.3 2615.6 4970.1 2615.6 4970.1 2615.6 4990.3 2615.6 4990.3 2615.6 5044.7 2615.6 5044.7 2615.6 5064.7 2615.6 5064.7 2615.6 5259 2615.6 5259 2615.6 5279.1 2615.6 5279.1 2615.6 5279.2 2615.6 5279.2 2595.5 5279.1 2595.5 5279.1 2508.9 5279.2 2508.9 5279.2 2488.8 5279.1 2488.8 5279.1 2403.6 5279.2 2403.6 5279.2 2383.6 5279.1 2383.6 5279.1 2383.2" style="fill:#b7b7b7"/><polygon points="2658.6 2536.4 2786.4 2536.4 2786.4 2537 2786.4 2595.5 2786.4 2615.6 2786.4 2796.3 2786.4 2816.4 2786.4 2879.2 2786.4 2879.9 2416.6 2879.9 2416.6 2879.2 2416.2 2879.2 2416.2 2816.4 2416.6 2816.4 2416.6 2796.3 2416.2 2796.3 2416.2 2615.6 2416.6 2615.6 2416.6 2595.5 2416.2 2595.5 2416.2 2537 2416.6 2537 2416.6 2536.4 2553.9 2536.4 2553.9 2517.4 2337.3 2517.4 2337.3 2537 2396 2537 2396 2537.4 2396.5 2537.4 2396.5 2879.9 2173.5 2879.9 2173.5 2537.4 2173.9 2537.4 2173.9 2537 2232.8 2537 2232.8 2517.4 2097.4 2517.4 2097.4 2537 2153.8 2537 2153.8 2595.5 2153.4 2595.5 2153.4 2615.6 2153.8 2615.6 2153.8 2796.3 2153.4 2796.3 2153.4 2816.4 2153.8 2816.4 2153.8 2879.2 2153.4 2879.2 2153.4 2879.9 1935.8 2879.9 1935.8 2879.2 1935.8 2816.4 1935.8 2796.3 1935.8 2615.6 1935.8 2595.5 1935.8 2537.4 1935.8 2537 1992.9 2537 1992.9 2517.4 1915.7 2517.4 1915.7 2537 1915.7 2595.5 1915.7 2615.6 1915.7 2796.3 1915.7 2816.4 1915.7 2879.2 1915.7 2899.3 1915.7 2899.9 1935.8 2899.9 1935.8 2899.3 2032 2899.3 2032 2899.9 2052 2899.9 2052 2899.3 2153.8 2899.3 2153.8 2899.9 2173.9 2899.9 2173.9 2899.3 2275 2899.3 2275 2899.9 2295.1 2899.9 2295.1 2899.3 2396 2899.3 2396 2899.9 2416.2 2899.9 2416.2 2899.3 2526.4 2899.3 2526.4 2899.9 2546.6 2899.9 2546.6 2899.3 2655.1 2899.3 2655.1 2899.9 2675.4 2899.9 2675.4 2899.3 2786.4 2899.3 2786.4 2899.9 2806.5 2899.9 2806.5 2899.3 2806.5 2879.2 2806.5 2816.4 2806.5 2796.3 2806.5 2615.6 2806.5 2595.5 2806.5 2537 2806.5 2517.4 2658.6 2517.4 2658.6 2536.4" style="fill:#b7b7b7"/><polygon points="2569.8 562.4 2420.8 562.4 2420.8 561.5 2418.5 561.5 2418.5 492.8 2420.8 492.8 2420.8 428.7 2418.5 428.7 2418.5 363.2 2420.8 363.2 2541.8 363.2 2561.9 363.2 2636.4 363.2 2656.4 363.2 2730.6 363.2 2750.6 363.2 2808.6 363.2 2810.7 363.2 2810.7 562.4 2657.6 562.4 2657.6 581.5 2904.8 581.5 2904.8 561.5 2828.7 561.5 2828.7 561.5 2828.7 492.8 2828.7 428.7 2828.7 365.3 2828.7 363.2 3066 363.2 3066 365.3 3066.5 365.3 3066.5 561.5 3066 561.5 3066 561.5 2992.5 561.5 2992.5 581.5 3086.6 581.5 3086.6 561.5 3086 561.5 3086 492.8 3086.6 492.8 3086.6 428.7 3086 428.7 3086 317.9 3066.5 317.9 3066.5 343.2 3066 343.2 2828.7 343.2 2828.7 228.5 2828.7 228.2 3066.5 228.2 3066.5 248.2 3086 248.2 3086 228.5 3086.6 228.5 3086.6 208.5 3086 208.5 3086 208 3066 208 3066 208.5 2828.7 208.5 2828.7 208 2808.6 208 2808.6 208.5 2750.6 208.5 2750.6 208 2730.6 208 2730.6 208.5 2657.6 208.5 2657.6 228.2 2808.6 228.2 2808.6 228.5 2808.6 343.2 2750.6 343.2 2730.6 343.2 2656.4 343.2 2636.4 343.2 2561.9 343.2 2541.8 343.2 2418.6 343.2 2418.5 343.2 2418.5 228.5 2418.6 228.5 2418.6 228.2 2569.8 228.2 2569.8 208.5 2561.9 208.5 2561.9 208 2541.8 208 2541.8 208.5 2418.5 208.5 2418.5 208 2398.7 201.9 2398.7 581.5 2569.8 581.5 2569.8 562.4" style="fill:#b7b7b7"/><polygon points="2786.4 2145.9 2675.4 2145.9 2675.4 2145.4 2655.1 2145.4 2655.1 2145.9 2546.6 2145.9 2546.6 2145.4 2526.4 2145.4 2526.4 2145.9 2416.2 2145.9 2416.2 2145.4 2396 2145.4 2396 2145.9 2295.1 2145.9 2295.1 2145.4 2275 2145.4 2275 2145.9 2275 2166 2275 2256.4 2275 2276.5 2275 2330.3 2275 2350.4 2275 2383.6 2275 2403.2 2352.2 2403.2 2352.2 2383.6 2295.1 2383.6 2295.1 2383.2 2295.1 2350.4 2295.1 2330.3 2295.1 2276.5 2295.1 2256.4 2295.1 2166.6 2295.1 2166 2396 2166 2396 2166.6 2416.2 2166.6 2416.2 2166 2526.4 2166 2526.4 2166.6 2526.4 2256.4 2526.4 2276.5 2526.4 2330.3 2526.4 2350.4 2526.4 2383.2 2526.4 2383.6 2456.7 2383.6 2456.7 2403.2 2614.2 2403.2 2614.2 2383.6 2546.6 2383.6 2546.6 2383.2 2546.6 2350.4 2546.6 2330.3 2546.6 2276.5 2546.6 2256.4 2546.6 2166.6 2546.6 2166 2655.1 2166 2655.1 2166.6 2675.4 2166.6 2675.4 2166 2786.4 2166 2786.4 2166.6 2786.4 2256.4 2786.4 2276.5 2786.4 2330.3 2786.4 2350.4 2786.4 2383.2 2786.4 2383.6 2718.8 2383.6 2718.8 2403.2 2806.5 2403.2 2806.5 2383.6 2806.5 2276.5 2806.5 2256.4 2806.5 2166 2806.5 2145.9 2806.5 2145.4 2786.4 2145.4 2786.4 2145.9" style="fill:#b7b7b7"/><polygon points="1444.5 2536.4 1618.8 2536.4 1618.8 2879.9 1166.6 2879.9 1166.6 2879.2 1166.3 2879.2 1166.3 2816.4 1166.6 2816.4 1166.6 2796.3 1166.3 2796.3 1166.3 2615.6 1166.6 2615.6 1166.6 2595.5 1166.3 2595.5 1166.3 2537 1166.6 2537 1166.6 2536.4 1339.9 2536.4 1339.9 2517.4 1146.5 2517.4 1146.5 2899.9 1166.3 2899.9 1166.3 2899.3 1286 2899.3 1286 2899.9 1306.1 2899.9 1306.1 2899.3 1387.2 2899.3 1387.2 2899.9 1407.4 2899.9 1407.4 2899.3 1618.3 2899.3 1618.3 2899.9 1638.5 2899.9 1638.5 2899.3 1638.9 2899.3 1638.9 2879.2 1638.5 2879.2 1638.5 2816.4 1638.9 2816.4 1638.9 2796.3 1638.5 2796.3 1638.5 2655.2 1638.9 2655.2 1638.9 2635.2 1638.5 2635.2 1638.5 2615.6 1638.9 2615.6 1638.9 2595.5 1638.5 2595.5 1638.5 2537 1638.9 2537 1638.9 2517.4 1444.5 2517.4 1444.5 2536.4" style="fill:#b7b7b7"/><polygon points="4249.8 492.8 4320.4 492.8 4320.4 492.8 4340.4 492.8 4340.4 492.8 4489.2 492.8 4489.2 492.8 4509.4 492.8 4509.4 492.8 4687.9 492.8 4687.9 492.8 4708 492.8 4708 492.8 4723.5 492.8 4723.5 492.8 4743.5 492.8 4743.5 492.8 4743.5 472.6 4743.5 228.5 4743.5 208.5 4708 208.5 4708 208 4687.9 208 4687.9 208.5 4658.1 208.5 4658.1 228.2 4723.5 228.2 4723.5 228.5 4723.5 472.6 4723.5 472.6 4509.4 472.6 4509.4 472.6 4509.4 228.5 4509.4 228.2 4564.2 228.2 4564.2 208.5 4419.7 208.5 4419.7 228.2 4489.2 228.2 4489.2 228.5 4489.2 472.6 4489.2 472.6 4249.8 472.6 4249.8 472.6 4249.8 228.5 4249.8 228.2 4319.3 228.2 4319.3 208.5 4229.6 208.5 4229.6 228.5 4229.6 472.6 4229.6 492.8 4229.6 492.8 4249.8 492.8" style="fill:#b7b7b7"/><polygon points="1935.8 2383.6 1935.8 2350.4 1935.8 2330.3 1935.8 2276.5 1935.8 2256.4 1935.8 2166 1935.8 2145.9 1935.8 2145.4 1915.7 2145.4 1915.7 2145.9 1859.5 2145.9 1859.5 2145.4 1839.3 2145.4 1839.3 2145.9 1716.1 2145.9 1716.1 2145.4 1696 2145.4 1696 2145.9 1638.5 2145.9 1638.5 2145.4 1618.3 2145.4 1618.3 2145.9 1565.9 2145.9 1565.9 2145.4 1543.8 2145.4 1543.8 2145.9 1543.8 2166 1543.8 2231 1543.8 2256.4 1543.8 2276.5 1543.8 2330.3 1543.8 2350.4 1543.8 2383.6 1543.8 2403.2 1687.5 2403.2 1687.5 2383.6 1638.5 2383.6 1638.5 2383.2 1618.3 2383.2 1618.3 2383.6 1565.9 2383.6 1565.9 2383.2 1565.9 2350.4 1565.9 2330.3 1565.9 2276.5 1565.9 2256.4 1565.9 2231 1565.9 2166.6 1565.9 2166 1618.3 2166 1618.3 2166.6 1638.5 2166.6 1638.5 2166 1696 2166 1696 2166.6 1716.1 2166.6 1716.1 2166 1839.3 2166 1839.3 2166.6 1859.5 2166.6 1859.5 2166 1915.7 2166 1915.7 2166.6 1915.7 2256.4 1915.7 2276.5 1915.7 2330.3 1915.7 2350.4 1915.7 2383.2 1915.7 2383.6 1859.5 2383.6 1859.5 2383.2 1839.3 2383.2 1839.3 2383.6 1792.2 2383.6 1792.2 2403.2 1935.8 2403.2 1935.8 2383.6" style="fill:#b7b7b7"/><polygon points="1283.4 1192.2 1283.4 1119.3 1263.8 1119.3 1263.8 1192.2 1263.3 1192.2 1263.3 1192.2 1198.3 1192.2 1198.3 1212.4 1263.8 1212.4 1263.8 1212.4 1283.9 1212.4 1283.9 1212.4 1337.8 1212.4 1337.8 1192.2 1283.4 1192.2" style="fill:#b7b7b7"/><path d="M4395.9,674.6v31.7h19.9V674.8h.2v-.2h153.2V922.9H4416v-.3h-.2V890.2h-19.9v32.7h-519v129.9h-21.1v20h21.1v70.9H3897v-70.8h498.9v67.6h19.9v-67.7H4673v-20H4415.8V942.5h153.4v.4h20.1v-.4h48.6V922.8h-48.6V654.7H4415.8v-.2h-20.1v.2h-301v19.9Zm0,378.2H3897V942.5h498.6v.4h.2Z" style="fill:#b7b7b7"/><path d="M4829.1,654.7V922.8h-43.3v19.7h43.3v110.2h-71.8v20h71.8v67.7h20.2v-67.6h410v68.6h20v-68.7h0v-20h0V942.5h22.3V922.8h-22.3v-.3h0V852.8h-20v70h-410V674.6h410v93.9h20V674.7h0v-.2h18.2V654.6h-18.4v-.2H5259v.2H5060.4V616.1h-20v38.5h-50.2v-.2H4970v.2H4849.2V616.1H4829Zm20.1,398V942.5H4904v.4h19.1v-.4H4970v.4h20.2v-.4h268.9v.4h.1v109.9Z" style="fill:#b7b7b7"/><polygon points="1618.3 1191.5 1618.3 1192.2 1526.8 1192.2 1526.8 1191.5 1526.3 1191.5 1526.3 1119.3 1507.4 1119.3 1507.4 1192.2 1442.5 1192.2 1442.5 1212.4 1506.8 1212.4 1506.8 1212.4 1526.8 1212.4 1526.8 1212.4 1618.3 1212.4 1618.3 1212.4 1629.4 1212.4 1629.4 1191.5 1618.3 1191.5" style="fill:#b7b7b7"/><polygon points="742.3 1192.2 742.3 1119.3 722.8 1119.3 722.8 1192.2 722.3 1192.2 722.3 1192.2 640.4 1192.2 640.4 1212.4 722.8 1212.4 722.8 1212.4 742.8 1212.4 742.8 1212.4 825.2 1212.4 825.2 1192.2 742.3 1192.2" style="fill:#b7b7b7"/><polygon points="1031.9 1192.2 1031.9 1119.3 1012.3 1119.3 1012.3 1192.2 1011.8 1192.2 1011.8 1192.2 930 1192.2 930 1212.4 1012.3 1212.4 1012.3 1212.4 1032.4 1212.4 1032.4 1212.4 1093.7 1212.4 1093.7 1192.2 1031.9 1192.2" style="fill:#b7b7b7"/><path d="M1073.6,2145.4h-20.1v.6h-150v-.6H883.4v.6H742.8v-.6h-20v.6h-74v-.6H628.6v257.8H708v-19.6H648.8V2166.1h74v.5h20v-.5H883.4v40.1h-.1v20.1h.1v30.2h-.1v20h.1v107.2H812.5v19.6h262.1v-19.6h-1V2276.5h1v-20h-1v-30.2h1v-20.1h-1v-40.1h1V2146h-1v-.6Zm-20.1,21.2v217.1h-150v-.4h-.1V2166.6h.1v-.6h150Z" style="fill:#b7b7b7"/><path d="M1031.3,2536.4h23.3v138.5h-.1v.6h-151v-.6h-.1V2536.4h23.2v-19H716.3V2537h6.3v.5h.1v258.9h-6.4v20.1h25.9v-279h.6v-.5H883.4v.5H886v341.7h-2.6v.2H788.2v.6H648.8v-63.4h9.5v-20.1h-9.5V2537h9.5v-19.6H628.6v382.5h20.2v-.5h73.9v.5h20.1v-.5H883.4v.5h20.1v-.5h151v.5h20v-.5h.1v-20.1h-.1v-62.9h.1v-20.1h-.1V2615.5h.1v-20h-.1V2537h.1v-19.6h-43.3v19Zm23.2,259.9h-.5v20.4h.5v62.6H903.4V2694.9H1054v.6h.5v100.8Z" style="fill:#b7b7b7"/><polygon points="3172.1 492.8 3323.2 492.8 3323.2 492.8 3343.3 492.8 3343.3 492.8 3419.4 492.8 3419.4 492.8 3439.4 492.8 3439.4 492.8 3492.3 492.8 3492.3 492.8 3512.4 492.8 3512.4 492.8 3512.4 472.6 3512.4 228.5 3512.4 208.5 3512.4 208 3492.3 208 3492.3 208.5 3439.4 208.5 3439.4 208 3419.4 208 3419.4 208.5 3370.8 208.5 3370.8 228.2 3492.3 228.2 3492.3 228.5 3492.3 306.9 3492.3 389.7 3492.3 472.6 3492.3 474.8 3172.1 474.8 3172.1 472.6 3172.1 389.7 3172.1 306.9 3172.1 228.5 3172.1 228.2 3283.2 228.2 3283.2 208.5 3172.1 208.5 3172.1 208 3152.1 208 3152.1 208.5 3152.1 228.5 3152.1 472.6 3152.1 492.8 3152.1 492.8 3172.1 492.8" style="fill:#b7b7b7"/><polygon points="1261.7 2383.6 1166.3 2383.6 1166.3 2350.4 1166.6 2350.4 1166.6 2330.3 1166.3 2330.3 1166.3 2276.5 1166.6 2276.5 1166.6 2256.4 1166.3 2256.4 1166.3 2166 1286 2166 1286 2166.6 1306.1 2166.6 1306.1 2166 1387.2 2166 1387.2 2166.6 1407.4 2166.6 1407.4 2166 1459.3 2166 1459.3 2166.6 1459.3 2225.7 1459.3 2256.4 1459.3 2276.5 1459.3 2330.3 1459.3 2350.4 1459.3 2383.2 1459.3 2383.6 1407.4 2383.6 1407.4 2383.2 1387.2 2383.2 1387.2 2383.6 1366.3 2383.6 1366.3 2403.2 1480.4 2403.2 1480.4 2145.4 1459.3 2145.4 1459.3 2145.9 1407.4 2145.9 1407.4 2145.4 1387.2 2145.4 1387.2 2145.9 1306.1 2145.9 1306.1 2145.4 1286 2145.4 1286 2145.9 1166.3 2145.9 1166.3 2145.4 1146.5 2145.4 1146.5 2403.2 1261.7 2403.2 1261.7 2383.6" style="fill:#b7b7b7"/><path d="M1.5,2837.1H33.1v.4H523v199.6h10.1v.5l3239.2-.9v-42.1h-.3V2636.9h83.8v200.6H5370.9l56.5.3h16.2V106.7l-1.4-95.1V1.4H2235.6V11.6l-.6,95.1V1171.2h-40V901.4H1.5V2837.1ZM544.2,2078v305.7H487.1v19.6h57.1v114.2H487.1v19.6h57.1v259.4H42.8V2615.7h.6v-20h-.6V2537H335.3v.5h20v-.5h27.2v-19.6H43.3v-.6h-.6V2403.6h.6v-.5H382.5v-19.6H355.3v-.4h-20v.4H42.8V2276.3h.6v-20h-.6V2078h.6v-.2H544.3v.2Zm3057.5,305.6H3439.3V2361h-20v42.2h202.9l-.1-19.5Zm20.5-108.7h25.4v-18.4h-25.9V2078h.5v-.2h108.3v177.5h-.2v1.1h-22.5v18.4h23.3v128.4h19V1072.9h21.4v-3.2h-21.4v-10.8h-19.8l-.2-6.1v20h.2v119.5h-.2v20.1h.2v78.9h-.2v.3H3165.7V942.5h253.6v.4h20v-.4h291v32.1h19.8V923.8h-69.7v-1H3439.5v-.3h-.1V674.7h.1v-.2h445.9V654.4h-8.5v.2H3750.5v-.2h-20.2v.2h-291v-.2h-20v.2h-29.5v19.9h28v.2h1.5V922.5h-1.5v.9H3165.7V674.6h136.4V654.7H3149.9v398.1h-69.7v20h69.7v218.8H2937.5V1072.9h55.1v-20h-75.1v238.7H2418.7v-.3h-.2v-78.9h.2v-20.1h-.2V1072.8h.2v-20h-.2V1038h-19.8v253.6H2276.1V942.9h.1v-.4h11.5V922.8h-11.6V674.6H2293V654.7h-16.8v-.2h-.1V42.3H5285.6l113.1.4h.5v75.7h-.5v20h.5v70.1h-.5v20h.5V472.6h-.5v20.1h.5v68.7h-.5v20.1h.5v73.1h-17.4v19.9h16.9v.2h.5V922.5h-.5v.3H5386v19.7h13.2v110.1h-.5v20h.5v119.5h-.5v20.1h.5v78.9h-.5v20h.5v232.2h-.5v20h.5v209.9h.6v104.6h-.6v87.1h-.5V1985h.5v72.6h-.5v20h.5v214.8h-.5v20.2h.5v70.7h-.5v20h.5v85.2h-.5v20.1h.5v86.7h-.5v20h.5v78.8h-.5v20h.5v81.2H5279.1v-.3H5259v.3H5064.7v-.3h-20v.3h-54.4v-.3h-20.2v.3H4850.3v-.3h-20.1v.3l-638.7.7v-.7h-295v-81.2h.5v-20h-.5v-78.8h.5v-20H3750.1v-78.2h-19v78.2h-10.6v19.5h10.6v61.8h.5V2795h-1.3v1h-9.8v20.1h11.1v177.5h-1.5v.5l-.6.2H3621.8v-.6h-20v.6H3438.9V2536h162.8v1.1h.1v58.6h-.1v20h.1v180.6h-.1v20.1h31.1v-20.1h-11V2615.5h1v-.5h10.1v-19.5h-11V2537h.5v-19.6H3133.1V2537h186.5v.5h20.1v-.5h79.7v.5h.1V2995H2937.6v-.5h-.1v-178h.1v-20.1h-.1v-85.1h.1v-21.1h-.1v-74.6h.1v-20h-.1V2537h91v-19.6H2917.6v476.5h-.2v.5H2806.6v-.5h-20.1v.5H2675.6v-.5h-20.4v.5H2546.6v-.4h-20v.4H2416.3v-.4h-20.1v.4h-101v-.4H2275v.3H2174v-.3h-20.1v.3H2052.1v-.3H2032v.3h-96.1v-.2h-20.1v.2h-56.3v-.2h-20.1v.2H1715.9v-.2h-20v.2h-57.5v-.2h-20.1v.2h-211v-.2h-20v.2h-81.2v-.2h-20v.2H1166.4v-.2h-20v.2h-71.7v-.2h-20v.2H564.5V2077.8H2917.6v325.4h326.5v-19.6h-.5V2361h-20v22.7H3077.8v-.4h-20.1v.4H2937.6V2276.5h120.1v1h20.1v-1h145.8v26.4h20v-26.4H3277v-20H2937.6v-.6h-.3V2078.4h.3v-.3h382.1v.3h20.1v-.3h79.7v.3h20v-.3h162.4v178.4H3439.5v-.6h-20v.6h-38v20h38.1v26.4h20v-26.4h.6v-1.7h161.7ZM742.8,1826.3v-.5H883.4v.5h20.1v-.5h40.1V2058H903.5v-.3H883.4v.3H742.8v-.3h-20v.3h-74V1825.8h74v.5Zm423.5,0v-.5H1286v.5h20v-.5h81.2v.5h.2v231.4h-.2v.3H1306v-.3h-20v.3H1166.3v-.3h-20v.3h-72.6V1825.8h72.6v.5Zm693.1,129.4V1825.8h56.3v.5h20.1v-.5h96.1v.5H2052v-.5h101.8v.5h20.1v-.5h101V2058h-101v-.3h-20.1v.3H2052v-.3h-20.1v.3h-96.1v-.3h-20.1v.3h-56.3v-82.1h.2v-20.1h-.2Zm556.8,0V1825.8h110.3v.5h20v-.5h108.6v.5h20.4v-.5h110.9V2058H2675.5v-.3h-20.4v.3H2546.5v-.3h-20v.3H2416.2v-82.1h.4v-20.1h-.4Zm521.2.6V1825.8h382.1v.5h20.1v-.5h79.7v.5h20v-.5h162.4v.5h20v-.5h108.5v130.5h-.2v20h.2v81.6H3621.7v-.3h-20v.3H3439.3v-.3h-20v.3h-79.7v-.3h-20.1v.3H2937.4v-81.6h.7v-20ZM42.8,1563.6h.7v-20h-.7V1311.4H335.3v3.6h20v-3.6H544.2v3.6h20.1v-3.6H722.8v3.6h20v-3.6H883.4v3.6h20.1v-3.6h242.7v3.6h20v-3.6h221v3.6h20.1v-3.6h211v3.6h20.1v-3.6h200.9v3.6h20.1v-3.6h294.3v3.6h19.8v-33.8h-19.8v10.2h-.4v.3h-132v-10.5h-20.1v10.2h-.5v.3H1859.5v-.3h-.2v-10.2h-19.8v10.5H354.9v-10.5H335.1v10.2h-.3v.3H210.1v-.3h-.6v-9.2H189.4v10.1H42.6V942.4H189.4V1224h20.1v-11.7H335v10.5h19.8v-10.5h1v-20.1h-.7v-58h-20v58H209.6v-76.5h.6v-20h-.6V942.5H335.1v136.7h20V1020h19.8V999.9h-20v-57h.2v-.4h77.4v.4h.5v57H411.9V1020h20.6v2.2h.5v190.2H535.5v-20h-83V942.6H544v.4h20.1v-.4H722.6v72.1h19.5V942.9h.6v-.4H883.3v.4h20.1v-.4h108.8v72.2h19.6V942.3h231.4v.2h.5v72.2h19.5V942.3h224.1v72.4h19V943h.6v-.6h91.5v.6h20.1v-.6h200.9v249.7H1734.1v20.1h105.7v10.5h19.8v-10.5h.2v-20.1h-.2v-67.5h16v-20.1h-16v-162h141.8v162h-21.1v20.1h21.1v67.6h-.5v20.1h.5v10.5h20.1V942.5h132.4v249.7h-.4v20.1h.4v10.5h19.8v-10.5h82.6v78.9h-.2v20h140.1v3.6h20.1v-3.6h238.9v3.6h20v-3.6h242.1v3.6h20.1v-3.6h382.1v3.6h20.1v-3.6h79.7v3.6h20v-3.6h162.4v3.6h20v-3.6h108.5v3.6h.3v491.4H2917.3v251.4h-.2v.3H2806.3V1806.2h-410v251.4h-.4v.3h-101V1806.2H1838.3v19.6h.8v129.9h-.8v20.1h.8v82.1H1715.6v-.3h-20v.3h-57.5v-.3H1618v.3H1407v-82.1h.2v-20.1h-.2V1825.8h.2v-19.6H1054.3v251.4h-1.1v.3H963.4V1806.2h-335V2058H564.1v-82.1h1v-20.1h-1V1825.9h1v-19.6H43.3v-.6h-.7V1563.6Zm-.5,262.7h.5v-.5H335.3v.5h20v-.5H438v.5h20.1v-.5h86.1V2058H458.1v-.3H438v.3H355.3v-.3h-20v.3H42.8v-.3h-.5Z" style="fill:#b7b7b7"/><rect x="4849.2" y="942.9" width="410" height="109.9" style="stroke:#b0c2c4;stroke-miterlimit:10;fill:url(#SVGID_49_)"/><rect x="3897" y="1311.7" width="1362.2" height="494.5" style="stroke:#b0c2c4;stroke-miterlimit:10;fill:url(#SVGID_49_)"/><rect x="3897.1" y="942.9" width="498.9" height="109.9" style="stroke:#b0c2c4;stroke-miterlimit:10;fill:url(#SVGID_49_)"/><rect x="903.5" y="2694.8" width="150.6" height="184.3" style="stroke:#b0c2c4;stroke-miterlimit:10;fill:url(#SVGID_49_)"/><rect x="2938.1" y="1826.3" width="792" height="231.4" style="fill:#b7b7b7;stroke:#b0c2c4;stroke-miterlimit:10"/><rect x="2416.6" y="1826.3" width="369.8" height="231.4" style="fill:#b7b7b7;stroke:#b0c2c4;stroke-miterlimit:10"/><rect x="1859.7" y="1826.3" width="415.3" height="231.4" style="fill:#b7b7b7;stroke:#b0c2c4;stroke-miterlimit:10"/><rect x="1073.7" y="1826.3" width="313.8" height="231.4" style="fill:#b7b7b7;stroke:#b0c2c4;stroke-miterlimit:10"/><rect x="648.9" y="1826.3" width="294.8" height="231.4" style="fill:#b7b7b7;stroke:#b0c2c4;stroke-miterlimit:10"/><rect x="903.5" y="2166.6" width="150" height="216.6" style="stroke:#b0c2c4;stroke-miterlimit:10;fill:url(#SVGID_49_)"/><rect x="2560.3" y="675" width="251" height="90.3" style="stroke:#b0c2c4;stroke-miterlimit:10;fill:url(#SVGID_49_)"/><rect x="42.2" y="1826.3" width="502" height="231.4" style="fill:#b7b7b7;stroke:#b0c2c4;stroke-miterlimit:10"/><polygon points="3376.1 2178.2 3420.5 2178.2 3433.1 2178.2 3440.5 2178.2 3440.5 2064 3420.5 2064 3420.5 2158.1 3376.1 2158.1 3376.1 2178.2" style="fill:#b7b7b7"/><polygon points="3226 2178.2 3242.9 2178.2 3287.3 2178.2 3287.3 2158.1 3242.9 2158.1 3242.9 2064 3222.8 2064 3222.8 2178.2 3226 2178.2" style="fill:#b7b7b7"/><polygon points="2418.6 1052.8 2418.6 1291.6 2830.8 1291.6 2917.5 1291.6 2917.5 1052.8 3150 1052.8 3150 942.9 3149.4 942.9 3149.4 654.9 3087.1 654.9 3087.1 942.9 2917.5 942.9 2823.4 942.9 2830.8 942.9 2811.7 942.9 2542.8 942.9 2418.6 942.9 2276 942.9 2276 1052.8 2418.6 1052.8" style="fill:#f2f2f2"/><rect x="2418.8" y="675.6" width="123.6" height="108.9" style="fill:#f2f2f2"/><polygon points="5259.1 2077.8 5259.1 2293.4 5221.1 2293.4 5221.1 2312.4 5279.2 2312.4 5279.2 2292.8 5279.1 2292.8 5279.1 2078 5279.2 2078 5279.2 2057.9 5279.1 2057.9 5279.1 2057.7 5259 2057.7 5259 2057.9 5220.6 2057.9 5220.6 2077.8 5259.1 2077.8" style="fill:#b7b7b7"/><polygon points="5044.7 2077.8 5044.7 2078 5044.7 2292.8 5044.7 2293.4 5000.3 2293.4 5000.3 2312.4 5116.5 2312.4 5116.5 2293.4 5064.7 2293.4 5064.7 2292.8 5064.7 2078 5064.7 2077.8 5115.9 2077.8 5115.9 2057.9 5064.7 2057.9 5064.7 2057.7 5044.7 2057.7 5044.7 2057.9 4999.8 2057.9 4999.8 2077.8 5044.7 2077.8" style="fill:#b7b7b7"/><polygon points="4895.8 2312.4 4895.8 2293.4 4850.3 2293.4 4850.3 2292.8 4850.3 2078 4850.3 2077.8 4895.1 2077.8 4895.1 2057.9 4850.3 2057.9 4850.3 2057.7 4830.2 2057.7 4830.2 2057.9 4830.2 2078 4830.2 2292.8 4830.2 2312.4 4895.8 2312.4" style="fill:#b7b7b7"/><rect x="3876.5" y="2519" width="20" height="175.4" style="fill:#b7b7b7"/><path d="M3896.5,2312.4h380.4v-75h-22.2v55.5H4038.6v-215h216.1v54.9h22.2v-54.9h119v234.5h20v-19.6h-.2V2078h.2v-20h-.2v-72.6h.2v-20.1h-.2V1825.9h71v.5h20v-.5h30.6v.5h20.1v-.5h130.3v139.4h-.4v20.1h.4V2058H4557.4v-.3h-20.1v.3h-30.6v-.3h-20v235.1h-1.1v19.6h42.3v-19h-21.1V2077.8h180.7v.2h.4v214.8h-.4v.6h-88.7v19h108.9V1826.3h.4v-.5h122.2v.5h20.1v-.5h119.7v.5h20.2v-.5h54.4v.5h20.1v-.5h194.3v.5h20.1v-.5h0v-20.1h0V1563.6h0v-20h0V1311.4h0v-20h0V1226h-20v65.7h-410v-66.8H4829v66.8H4415.9v-.3h-.2v-66.5h-19.8v66.8H3897V1228h-20.1v447.8h-.6v728.1h20.1Zm120.9-19.6H3896.5V2078h.5v-.2h120.4Zm-120.9-729.2h.5v-20h-.5V1349.8h.5v-38.5h498.6v.4h20.1v-.4h272.1v.4h20.1v-.4h262.2v.4h20.2v-.4h268.8v.4h.1v494.5H3897v-.6h-.5Zm0,262.7h0l.1-.5h499.1v.5h.2v138.5H3896.5V1826.3Zm0,158.6h499.4v72.8h-.2l-43.9.3-455.2-.3h-.1Z" style="fill:#b7b7b7"/><rect x="3897.1" y="1826.3" width="498.9" height="190.2" style="fill:#f2f2f2"/><rect x="3751.3" y="759.1" width="124.7" height="1740.4" style="fill:#f2f2f2"/><rect x="3645.5" y="973.6" width="115.2" height="88.7" style="fill:#f2f2f2"/><polygon points="4849.2 531.8 4849.2 492.8 4849.2 492.8 4970.1 492.8 4970.1 492.8 4990.3 492.8 4990.3 492.8 5040.5 492.8 5040.5 492.8 5040.5 531.8 5060.4 531.8 5060.4 492.8 5060.4 492.8 5259 492.8 5259 492.8 5279.1 492.8 5279.1 492.8 5279.2 492.8 5279.2 472.6 5279.1 472.6 5279.1 228.5 5279.2 228.5 5279.2 208.5 5279.1 208.5 5279.1 208 5278.1 208 5259 208 5249.7 208 5249.7 228.2 5259.1 228.2 5259.1 472.1 5259 472.1 5259 472.6 5173.6 472.6 5173.6 228.2 5185.1 228.2 5185.1 208 5173.6 208 5153.5 208 5137.6 208 5137.6 228.2 5153.5 228.2 5153.5 472.6 5106.9 472.6 5106.9 472.1 5086.9 472.1 5086.9 472.6 5060.4 472.6 5060.4 472.1 5060.4 228.5 5060.4 228.2 5073.2 228.2 5073.2 208 4990.3 208 4983.4 208 4983.4 228.2 5040.5 228.2 5040.5 228.5 5040.5 472.1 5040.5 472.6 4990.3 472.6 4990.3 472.1 4970.1 472.1 4970.1 472.6 4849.2 472.6 4849.2 472.1 4849.2 228.5 4849.2 228.2 4895.8 228.2 4895.8 208.5 4829.1 208.5 4829.1 228.5 4829.1 472.6 4829.1 492.8 4829.1 531.8 4849.2 531.8" style="fill:#b7b7b7"/><polygon points="4087.6 492.8 4087.6 472.6 4087.6 393.7 4067.6 393.7 4067.6 472.6 4067.6 474.8 4037.1 474.8 4037.1 492.8 4087.6 492.8" style="fill:#b7b7b7"/><polygon points="3730.4 492.8 3730.4 492.8 3750.5 492.8 3750.5 492.8 3889.5 492.8 3889.5 474.8 3855.8 474.8 3855.8 472.6 3855.8 228.5 3855.8 228.2 4067.6 228.2 4067.6 228.5 4067.6 306.1 4087.6 306.1 4087.6 228.5 4087.6 208.5 3897 208.5 3897 208 3877 208 3877 208.5 3750.5 208.5 3750.5 208 3730.4 208 3730.4 208.5 3613.8 208.5 3613.8 228.5 3613.8 308.2 3633.9 308.2 3633.9 228.5 3634.9 228.5 3634.9 228.2 3835.7 228.2 3835.7 228.5 3835.7 472.6 3835.7 474.8 3634.9 474.8 3634.9 472.6 3633.9 472.6 3633.9 396 3613.8 396 3613.8 472.6 3613.8 492.8 3730.4 492.8" style="fill:#b7b7b7"/><path d="M2398.6,892.1v30.7h-23.3v19.7h436.5v42.6h19V942.5H3066v.4h20.1v-.4h.5v-20h-.5V847.7h-19.6v75.7H2831.4v-.9h-.6V674.7h72.9v-20H2750.6v-.2h-20.1v.2H2592v-.2H2428.2v.2h-9.8v-.2h-20.1v.2h-17.7v19.9h18V820.4h19.8V782.9l22.4.2V763.4h-22.2v-.5h-.2V674.8h18.2v-.2h87.8v.2h16v.9h1.4v72.1l.2,16-13.5-.2v20.1l18.7.2h263.5V923.4H2418.6v-.9h-.2V892.1Zm355.8-126.7H2560.3V675h.1v-.2h170.1v.2h20.1v-.2h60.1v.2h.5v90.4h-.5v.5Z" style="fill:#b7b7b7"/><polygon points="2991.4 674.6 2991.4 674.7 3066 674.7 3066 675 3066.5 675 3066.5 754.8 3086 754.8 3086 674.7 3086.6 674.7 3086.6 674.6 3086.6 654.6 3086.6 654.4 3086 654.4 3066 654.4 2830.8 654.4 2830.8 674.6 2991.4 674.6" style="fill:#b7b7b7"/><polygon points="565.4 1805.2 565.4 2057.7 628.8 2057.7 628.8 1805.2 963.7 1805.2 963.7 2057.7 1054.6 2057.7 1054.6 1805.2 1407.5 1805.2 1407.5 2057.7 1838.5 2057.7 1838.5 1805.2 2295.1 1805.2 2295.1 2057.7 2396.5 2057.7 2396.5 1805.2 2806.5 1805.2 2806.5 2057.7 2917.5 2057.7 2917.5 1805.2 3730.7 1805.2 3730.7 1311.7 43.5 1311.7 43.5 1805.2 565.4 1805.2" style="stroke:#b0c2c4;stroke-miterlimit:10;fill:url(#SVGID_55_)"/><rect x="3419.4" y="2403.3" width="202.9" height="115.2" style="fill:#f2f2f2"/><rect x="3243.5" y="2178.2" width="176.4" height="224.6" style="fill:#f2f2f2"/><path id="stairs-fixed" d="M3546.5,2518.4h76.1V2402.2h-88.4v116.2Zm-10.1-48.2,9.9,46.2h-9.9Zm10.1,37.3-9.8-45.8h9.8Zm-9.8-48.6,9.8-45.7v45.7Zm22.2,57.5h-10.2v-54.7h10.2Zm12.3,0H3561v-54.7h10.2Zm12.4,0h-10.2v-54.7h10.2Zm12.3,0h-10.2v-54.7h10.2Zm12.4,0H3598v-54.7h10.3Zm12.3,0h-10.2v-54.7h10.2Zm-10.2-112.2h10.2v54.7h-10.2Zm-12.4,0h10.3v54.7H3598Zm-12.3,0h10.2v54.7h-10.2Zm-12.3,0h10.2v54.7h-10.2Zm-12.4,0h10.2v54.7H3561Zm-12.3,0h10.2v54.7h-10.2Zm-2.4,0-9.9,46.2v-46.2Z" style="fill:#b7b7b7;opacity:0.4000000059604645;isolation:isolate"/><rect x="3896.7" y="1826.1" width="120.5" height="587" style="fill:#f2f2f2"/><rect x="4277.1" y="1826.1" width="118.7" height="587" style="fill:#f2f2f2"/><polygon id="room-box" points="3732.2 2595.6 3750.1 2595.6 3813.5 2595.6 3876.3 2595.6 3876.3 2255.8 3877 2255.8 3877 1098.7 3750.1 1098.7 3750.1 2274.9 3622.2 2274.9 3622.2 2595.6 3732.2 2595.6" style="fill:#f2f2f2"/><rect x="43.3" y="1311.6" width="3686.7" height="746.4" style="stroke:#b0c2c4;stroke-miterlimit:10;fill:url(#SVGID_56_)"/></g><g id="floor-rooms"><g class="clickable" id="A1-3-27-I" data-name="customclass A1-3-27-I"><rect id="room-box-2" x="5173.6" y="228.1" width="85.6" height="244" style="fill:#ddd"/></g><g class="clickable" id="A1-3-27-L" data-name="customclass A1-3-27-L"><rect id="room-box-3" x="5060.6" y="228.1" width="93" height="244.8" style="fill:#ddd"/></g><g class="clickable" id="A1-3-27-M" data-name="customclass A1-3-27-M"><rect id="room-box-4" x="4849.2" y="228.1" width="191.3" height="244.8" style="fill:#ddd"/></g><g class="clickable" id="A1-3-27-B" data-name="customclass A1-3-27-B"><rect id="room-box-5" x="4849.2" y="492.8" width="191.3" height="161.7" style="fill:#ddd"/></g><g class="clickable" id="A1-3-27-N" data-name="customclass A1-3-27-N"><rect id="room-box-6" x="4509.3" y="228.1" width="214.2" height="244.5" style="fill:#ddd"/></g><g class="clickable" id="A1-3-27-O" data-name="customclass A1-3-27-O"><rect id="room-box-7" x="4249.7" y="228.1" width="239.5" height="244.5" style="fill:#ddd"/></g><g class="clickable" id="A1-3-27-R" data-name="customclass A1-3-27-R"><rect id="room-box-8" x="3172.1" y="228.2" width="320.2" height="246.6" style="fill:#ddd"/></g><g class="clickable" id="A1-3-27-G" data-name="customclass A1-3-27-G"><rect id="room-box-9" x="2828.7" y="363.4" width="237.7" height="198.1" style="fill:#ddd"/></g><g class="clickable" id="A1-3-27-S" data-name="customclass A1-3-27-S"><rect id="room-box-10" x="2828.7" y="228.2" width="237.7" height="115" style="fill:#ddd"/></g><g class="clickable" id="A1-3-27-T" data-name="customclass A1-3-27-T"><rect id="room-box-11" x="2418.7" y="228.2" width="389.9" height="115" style="fill:#ddd"/></g><g class="clickable" id="A1-3-27-H" data-name="customclass A1-3-27-H"><rect id="room-box-12" x="2418.9" y="363.2" width="391.8" height="199.3" style="fill:#ddd"/></g><g class="clickable" id="A1-3-27-P" data-name="customclass A1-3-27-P"><rect id="room-box-13" x="3855.8" y="228.2" width="211.8" height="246.6" style="fill:#ddd"/></g><g class="clickable" id="A1-3-27-Q" data-name="customclass A1-3-27-Q"><rect id="room-box-14" x="3635" y="228.2" width="200.7" height="246.6" style="fill:#ddd"/></g><g class="clickable" id="A1-3-35-A" data-name="customclass A1-3-35-A"><rect id="room-box-15" x="4849.2" y="1072.9" width="410" height="218.7" style="fill:#ddd"/></g><g class="clickable" id="A1-3-35-B" data-name="customclass A1-3-35-B"><rect id="room-box-16" x="4416" y="1072.9" width="413.1" height="218.7" style="fill:#ddd"/></g><g class="clickable" id="A1-3-35-C" data-name="customclass A1-3-35-C"><rect id="room-box-17" x="3897.1" y="1072.9" width="498.9" height="218.7" style="fill:#ddd"/></g><g class="clickable" id="A1-3-24" data-name="customclass A1-3-24"><rect id="room-box-18" x="210.3" y="942.9" width="124.7" height="249.4" style="fill:#ddd"/></g><g class="clickable" id="A1-3-22-A" data-name="customclass A1-3-22-A"><rect id="room-box-19" x="1526.3" y="943.2" width="312.8" height="248.4" style="fill:#ddd"/></g><g class="clickable" id="A1-3-22-C" data-name="customclass A1-3-22-C"><rect id="room-box-20" x="1031.9" y="942.4" width="231.4" height="249.9" style="fill:#ddd"/></g><g class="clickable" id="A1-3-22-B" data-name="customclass A1-3-22-B"><rect id="room-box-21" x="1283.3" y="942.4" width="224.1" height="249.9" style="fill:#ddd"/></g><g class="clickable" id="A1-3-22-D" data-name="customclass A1-3-22-D"><rect id="room-box-22" x="742.3" y="942.9" width="269.4" height="249.4" style="fill:#ddd"/></g><g class="clickable" id="A1-3-22-E" data-name="customclass A1-3-22-E"><rect id="room-box-23" x="453.4" y="942.9" width="268.9" height="249.4" style="fill:#ddd"/></g><g class="clickable" id="A1-3-22-F" data-name="customclass A1-3-22-F"><rect id="room-box-24" x="355" y="942.9" width="78.2" height="58.7" style="fill:#ddd"/></g><g class="clickable" id="A1-3-17" data-name="customclass A1-3-17"><rect id="room-box-25" x="2937" y="2276.6" width="286.9" height="106.5" style="fill:#ddd"/></g><g class="clickable" id="A1-3-04" data-name="customclass A1-3-04"><rect id="room-box-26" x="2937.5" y="2536.6" width="481.9" height="458.3" style="fill:#ddd"/></g><g class="clickable" id="A1-3-05-C" data-name="customclass A1-3-05-C"><rect id="room-box-27" x="1935.7" y="2537.5" width="217.7" height="342.4" style="fill:#ddd"/></g><g class="clickable" id="A1-3-05-B" data-name="customclass A1-3-05-B"><rect id="room-box-28" x="2173.5" y="2537.5" width="223" height="342.4" style="fill:#ddd"/></g><g class="clickable" id="A1-3-05-A" data-name="customclass A1-3-05-A"><rect id="room-box-29" x="2416.6" y="2536.4" width="369.8" height="343.4" style="fill:#ddd"/></g><g class="clickable" id="A1-3-07" data-name="customclass A1-3-07"><rect id="room-box-30" x="1166.6" y="2536.4" width="452.3" height="343.4" style="fill:#ddd"/></g><g class="clickable" id="A1-3-10" data-name="customclass A1-3-10"><rect id="room-box-31" x="43.3" y="2537.4" width="500.9" height="258.9" style="fill:#ddd"/></g><g class="clickable" id="A1-3-11" data-name="customclass A1-3-11"><rect id="room-box-32" x="43.3" y="2077.8" width="500.9" height="305.3" style="fill:#ddd"/></g><g class="clickable" id="A1-3-17-A" data-name="customclass A1-3-17-A"><rect id="room-box-33" x="3622.3" y="2077.8" width="108.3" height="179.1" style="fill:#ddd"/></g><g class="clickable" id="A1-3-15-A" data-name="customclass A1-3-15-A"><rect id="room-box-34" x="2546.6" y="2166.6" width="239.9" height="216.6" style="fill:#ddd"/></g><g class="clickable" id="A1-3-15-B" data-name="customclass A1-3-15-B"><rect id="room-box-35" x="2295.1" y="2166.6" width="231.4" height="216.6" style="fill:#ddd"/></g><g class="clickable" id="A1-3-14" data-name="customclass A1-3-14"><rect id="room-box-36" x="1565.9" y="2166.6" width="349.8" height="216.6" style="fill:#ddd"/></g><g class="clickable" id="A1-3-13" data-name="customclass A1-3-13"><rect id="room-box-37" x="1166.6" y="2166.6" width="292.7" height="216.6" style="fill:#ddd"/></g><g class="clickable" id="A1-3-12" data-name="customclass A1-3-12"><rect id="room-box-38" x="648.8" y="2166.6" width="234.6" height="216.6" style="fill:#f2f2f2"/></g><g class="clickable" id="A1-3-31-D" data-name="customclass A1-3-31-D"><rect id="room-box-39" x="2276.1" y="1053.3" width="122.6" height="238.3" style="fill:#f2f2f2;stroke:#b7b7b7;stroke-miterlimit:10"/></g><g class="clickable" id="A1-3-32" data-name="customclass A1-3-32"><rect id="room-box-40" x="3165.8" y="674.6" width="253.9" height="248.8" style="fill:#ddd"/></g><g class="clickable" id="A1-3-29" data-name="customclass A1-3-29"><rect id="room-box-41" x="2831.4" y="675.1" width="235.1" height="248.4" style="fill:#ddd"/></g><g class="clickable" id="A1-3-31-A" data-name="customclass A1-3-31-A"><rect id="room-box-42" x="3165.8" y="942.9" width="564.3" height="348.7" style="fill:#ddd"/></g><g class="clickable" id="A1-3-31-B" data-name="customclass A1-3-31-B"><rect id="room-box-43" x="2937.6" y="1072.9" width="212.4" height="218.7" style="fill:#ddd"/></g><g class="clickable" id="A1-3-37-F" data-name="customclass A1-3-37-F"><rect id="room-box-44" x="4850.3" y="2403.3" width="194.6" height="192.3" style="fill:#ddd"/></g><g class="clickable" id="A1-3-37-E" data-name="customclass A1-3-37-E"><rect id="room-box-45" x="5064.7" y="2403.3" width="194.4" height="192.3" style="fill:#ddd"/></g><g class="clickable" id="A1-3-37-G" data-name="customclass A1-3-37-G"><rect id="room-box-46" x="5064.7" y="2077.8" width="194.4" height="215.6" style="fill:#ddd"/></g><g class="clickable" id="A1-3-37-H" data-name="customclass A1-3-37-H"><rect id="room-box-47" x="4850.3" y="2077.8" width="194.4" height="215.6" style="fill:#ddd"/></g><g class="clickable" id="A1-3-37-I" data-name="customclass A1-3-37-I"><rect id="room-box-48" x="4506.8" y="2077.8" width="180.7" height="215.6" style="fill:#ddd"/></g><g class="clickable" id="A1-3-37-N" data-name="customclass A1-3-37-N"><rect id="room-box-49" x="4415.9" y="1826.3" width="271.6" height="231.4" style="fill:#ddd"/></g><g class="clickable" id="A1-3-37-B" data-name="customclass A1-3-37-B"><rect id="room-box-50" x="4415.9" y="2508.9" width="271.6" height="185.9" style="fill:#ddd"/></g><g class="clickable" id="A1-3-37-L" data-name="customclass A1-3-37-L"><rect id="room-box-51" x="4037.5" y="2077.8" width="217.2" height="214.5" style="fill:#ddd"/></g><g class="clickable" id="A1-3-37-C" data-name="customclass A1-3-37-C"><rect id="room-box-52" x="4211.5" y="2508.9" width="184.4" height="185.9" style="fill:#ddd"/></g><g class="clickable" id="A1-3-26-A" data-name="customclass A1-3-26-A"><rect id="a" x="4395.4" y="674.5" width="173.8" height="248.4" style="fill:#f2f2f2"/></g><g class="clickable" id="A1-3-26-B" data-name="customclass A1-3-26-B"><rect id="room-box-54" x="3439.5" y="674.5" width="311.2" height="248.4" style="fill:#f2f2f2"/><g id="scale" style="opacity:0.4000000059604645"><line x1="3435.9" y1="673.3" x2="3435.9" y2="920.9" style="fill:none;stroke:#b7b7b7;stroke-miterlimit:10;stroke-width:4px"/><polyline points="3435.9 920.9 3748.2 920.9 3748.2 809.2 3539.6 809.2 3539.6 782.4 3748.2 782.4 3748.2 673.3 3435.9 673.3" style="fill:none;stroke:#b7b7b7;stroke-miterlimit:10;stroke-width:4px"/><polyline points="3747.8 867 3496.8 867 3496.8 729.5 3748 729.5" style="fill:none;stroke:#b7b7b7;stroke-miterlimit:10;stroke-width:4px"/><line x1="3580.3" y1="921.8" x2="3580.3" y2="808.3" style="fill:none;stroke:#b7b7b7;stroke-miterlimit:10;stroke-width:4px"/><line x1="3561" y1="921.8" x2="3561" y2="808.3" style="fill:none;stroke:#b7b7b7;stroke-miterlimit:10;stroke-width:4px"/><line x1="3542.6" y1="921.8" x2="3542.6" y2="808.3" style="fill:none;stroke:#b7b7b7;stroke-miterlimit:10;stroke-width:4px"/><line x1="3599.3" y1="808.3" x2="3599.3" y2="921.8" style="fill:none;stroke:#b7b7b7;stroke-miterlimit:10;stroke-width:4px"/><line x1="3542.6" y1="782.4" x2="3542.6" y2="673.3" style="fill:none;stroke:#b7b7b7;stroke-miterlimit:10;stroke-width:4px"/><line x1="3561" y1="782.4" x2="3561" y2="673.3" style="fill:none;stroke:#b7b7b7;stroke-miterlimit:10;stroke-width:4px"/><line x1="3580.3" y1="782.4" x2="3580.3" y2="673.3" style="fill:none;stroke:#b7b7b7;stroke-miterlimit:10;stroke-width:4px"/><line x1="3599.3" y1="782.4" x2="3599.3" y2="673.3" style="fill:none;stroke:#b7b7b7;stroke-miterlimit:10;stroke-width:4px"/><line x1="3618.2" y1="782.4" x2="3618.2" y2="673.3" style="fill:none;stroke:#b7b7b7;stroke-miterlimit:10;stroke-width:4px"/><line x1="3636.6" y1="782.4" x2="3636.6" y2="673.3" style="fill:none;stroke:#b7b7b7;stroke-miterlimit:10;stroke-width:4px"/><line x1="3655.2" y1="782.4" x2="3655.2" y2="673.3" style="fill:none;stroke:#b7b7b7;stroke-miterlimit:10;stroke-width:4px"/><line x1="3711.9" y1="782.4" x2="3711.9" y2="673.3" style="fill:none;stroke:#b7b7b7;stroke-miterlimit:10;stroke-width:4px"/><line x1="3729.8" y1="782.4" x2="3729.8" y2="673.3" style="fill:none;stroke:#b7b7b7;stroke-miterlimit:10;stroke-width:4px"/><polyline points="3731.4 673.3 3748.4 729.4 3731 781.8" style="fill:none;stroke:#b7b7b7;stroke-miterlimit:10;stroke-width:4px"/><polyline points="3730.4 782.4 3751.3 782.4 3751.3 809.4 3692.3 809.4" style="fill:none;stroke:#b7b7b7;stroke-miterlimit:10;stroke-width:4px"/><line x1="3673.7" y1="921.8" x2="3673.7" y2="808.3" style="fill:none;stroke:#b7b7b7;stroke-miterlimit:10;stroke-width:4px"/><line x1="3636.4" y1="921.8" x2="3636.4" y2="808.3" style="fill:none;stroke:#b7b7b7;stroke-miterlimit:10;stroke-width:4px"/><line x1="3655" y1="921.8" x2="3655" y2="808.3" style="fill:none;stroke:#b7b7b7;stroke-miterlimit:10;stroke-width:4px"/><line x1="3617.7" y1="921.8" x2="3617.7" y2="808.3" style="fill:none;stroke:#b7b7b7;stroke-miterlimit:10;stroke-width:4px"/><line x1="3692.5" y1="921.8" x2="3692.5" y2="808.3" style="fill:none;stroke:#b7b7b7;stroke-miterlimit:10;stroke-width:4px"/><line x1="3711.1" y1="921.8" x2="3711.1" y2="808.3" style="fill:none;stroke:#b7b7b7;stroke-miterlimit:10;stroke-width:4px"/><line x1="3729.8" y1="921.8" x2="3729.8" y2="808.3" style="fill:none;stroke:#b7b7b7;stroke-miterlimit:10;stroke-width:4px"/><line x1="3673.6" y1="782.4" x2="3673.6" y2="673.3" style="fill:none;stroke:#b7b7b7;stroke-miterlimit:10;stroke-width:4px"/><line x1="3692.7" y1="782.4" x2="3692.7" y2="673.3" style="fill:none;stroke:#b7b7b7;stroke-miterlimit:10;stroke-width:4px"/></g></g><g class="clickable" id="A1-3-25" data-name="customclass A1-3-25"><rect id="room-box-55" x="42.7" y="942.4" width="146.9" height="349.8" style="fill:#f2f2f2"/><g id="scale_emergenza" data-name="scale emergenza" style="opacity:0.4000000059604645"><line x1="45.6" y1="940.2" x2="184.7" y2="940.2" style="fill:none;stroke:#b7b7b7;stroke-miterlimit:10;stroke-width:4px"/><polyline points="184.7 940.2 184.7 1204.5 121.9 1204.5 121.9 1028 106.8 1028 106.8 1204.5 45.6 1204.5 45.6 940.2" style="fill:none;stroke:#b7b7b7;stroke-miterlimit:10;stroke-width:4px"/><polyline points="154.4 1204.1 154.4 991.8 77.2 991.8 77.2 1204.3" style="fill:none;stroke:#b7b7b7;stroke-miterlimit:10;stroke-width:4px"/><line x1="185.1" y1="1062.5" x2="121.4" y2="1062.5" style="fill:none;stroke:#b7b7b7;stroke-miterlimit:10;stroke-width:4px"/><line x1="185.1" y1="1046.1" x2="121.4" y2="1046.1" style="fill:none;stroke:#b7b7b7;stroke-miterlimit:10;stroke-width:4px"/><line x1="185.1" y1="1030.5" x2="121.4" y2="1030.5" style="fill:none;stroke:#b7b7b7;stroke-miterlimit:10;stroke-width:4px"/><line x1="121.4" y1="1078.4" x2="185.1" y2="1078.4" style="fill:none;stroke:#b7b7b7;stroke-miterlimit:10;stroke-width:4px"/><line x1="106.8" y1="1030.5" x2="45.6" y2="1030.5" style="fill:none;stroke:#b7b7b7;stroke-miterlimit:10;stroke-width:4px"/><line x1="106.8" y1="1046.1" x2="45.6" y2="1046.1" style="fill:none;stroke:#b7b7b7;stroke-miterlimit:10;stroke-width:4px"/><line x1="106.8" y1="1062.5" x2="45.6" y2="1062.5" style="fill:none;stroke:#b7b7b7;stroke-miterlimit:10;stroke-width:4px"/><line x1="106.8" y1="1078.4" x2="45.6" y2="1078.4" style="fill:none;stroke:#b7b7b7;stroke-miterlimit:10;stroke-width:4px"/><line x1="106.8" y1="1094.5" x2="45.6" y2="1094.5" style="fill:none;stroke:#b7b7b7;stroke-miterlimit:10;stroke-width:4px"/><line x1="106.8" y1="1110" x2="45.6" y2="1110" style="fill:none;stroke:#b7b7b7;stroke-miterlimit:10;stroke-width:4px"/><line x1="106.8" y1="1125.8" x2="45.6" y2="1125.8" style="fill:none;stroke:#b7b7b7;stroke-miterlimit:10;stroke-width:4px"/><line x1="106.8" y1="1173.9" x2="45.6" y2="1173.9" style="fill:none;stroke:#b7b7b7;stroke-miterlimit:10;stroke-width:4px"/><line x1="106.8" y1="1189" x2="45.6" y2="1189" style="fill:none;stroke:#b7b7b7;stroke-miterlimit:10;stroke-width:4px"/><polyline points="45.6 1190.2 77.1 1204.7 106.4 1189.9" style="fill:none;stroke:#b7b7b7;stroke-miterlimit:10;stroke-width:4px"/><polyline points="106.8 1189.5 106.8 1207.1 122 1207.1 122 1157.2" style="fill:none;stroke:#b7b7b7;stroke-miterlimit:10;stroke-width:4px"/><line x1="185.1" y1="1141.5" x2="121.4" y2="1141.5" style="fill:none;stroke:#b7b7b7;stroke-miterlimit:10;stroke-width:4px"/><line x1="185.1" y1="1109.9" x2="121.4" y2="1109.9" style="fill:none;stroke:#b7b7b7;stroke-miterlimit:10;stroke-width:4px"/><line x1="185.1" y1="1125.7" x2="121.4" y2="1125.7" style="fill:none;stroke:#b7b7b7;stroke-miterlimit:10;stroke-width:4px"/><line x1="185.1" y1="1094.1" x2="121.4" y2="1094.1" style="fill:none;stroke:#b7b7b7;stroke-miterlimit:10;stroke-width:4px"/><line x1="185.1" y1="1157.3" x2="121.4" y2="1157.3" style="fill:none;stroke:#b7b7b7;stroke-miterlimit:10;stroke-width:4px"/><line x1="185.1" y1="1173.2" x2="121.4" y2="1173.2" style="fill:none;stroke:#b7b7b7;stroke-miterlimit:10;stroke-width:4px"/><line x1="185.1" y1="1189" x2="121.4" y2="1189" style="fill:none;stroke:#b7b7b7;stroke-miterlimit:10;stroke-width:4px"/><line x1="106.8" y1="1141.3" x2="45.6" y2="1141.3" style="fill:none;stroke:#b7b7b7;stroke-miterlimit:10;stroke-width:4px"/><line x1="106.8" y1="1157.5" x2="45.6" y2="1157.5" style="fill:none;stroke:#b7b7b7;stroke-miterlimit:10;stroke-width:4px"/></g></g><g class="clickable" id="A1-3-21-A" data-name="customclass A1-3-21-A"><rect id="a-2" x="1859.8" y="942.9" width="141.6" height="158.3" style="fill:#f2f2f2"/></g><g class="clickable" id="A1-3-21" data-name="customclass A1-3-21"><rect id="room-box-57" x="1839.6" y="1212.4" width="181.7" height="79.2" style="fill:#f2f2f2"/></g><g class="clickable" id="A1-3-20" data-name="customclass A1-3-20"><rect id="room-box-58" x="2021.4" y="942.9" width="132.1" height="348.7" style="fill:#f2f2f2"/><g id="scale-2" style="opacity:0.4000000059604645"><line x1="2021.9" y1="944.2" x2="2153.9" y2="944.8" style="fill:none;stroke:#b7b7b7;stroke-miterlimit:10;stroke-width:4px"/><polyline points="2153.9 944.8 2152.9 1159.7 2093.3 1159.4 2094 1015.9 2079.7 1015.8 2079 1159.4 2020.9 1159 2021.9 944.2" style="fill:none;stroke:#b7b7b7;stroke-miterlimit:10;stroke-width:4px"/><polyline points="2124.2 1159.3 2124.9 986.6 2051.7 986.2 2050.8 1159" style="fill:none;stroke:#b7b7b7;stroke-miterlimit:10;stroke-width:4px"/><line x1="2153.8" y1="1044.2" x2="2093.3" y2="1043.9" style="fill:none;stroke:#b7b7b7;stroke-miterlimit:10;stroke-width:4px"/><line x1="2153.9" y1="1030.9" x2="2093.4" y2="1030.6" style="fill:none;stroke:#b7b7b7;stroke-miterlimit:10;stroke-width:4px"/><line x1="2154" y1="1018.2" x2="2093.5" y2="1017.9" style="fill:none;stroke:#b7b7b7;stroke-miterlimit:10;stroke-width:4px"/><line x1="2093.3" y1="1056.9" x2="2153.8" y2="1057.2" style="fill:none;stroke:#b7b7b7;stroke-miterlimit:10;stroke-width:4px"/><line x1="2079.6" y1="1017.9" x2="2021.5" y2="1017.6" style="fill:none;stroke:#b7b7b7;stroke-miterlimit:10;stroke-width:4px"/><line x1="2079.6" y1="1030.6" x2="2021.4" y2="1030.2" style="fill:none;stroke:#b7b7b7;stroke-miterlimit:10;stroke-width:4px"/><line x1="2079.5" y1="1043.8" x2="2021.4" y2="1043.6" style="fill:none;stroke:#b7b7b7;stroke-miterlimit:10;stroke-width:4px"/><line x1="2079.5" y1="1056.8" x2="2021.4" y2="1056.6" style="fill:none;stroke:#b7b7b7;stroke-miterlimit:10;stroke-width:4px"/><line x1="2079.4" y1="1069.8" x2="2021.3" y2="1069.6" style="fill:none;stroke:#b7b7b7;stroke-miterlimit:10;stroke-width:4px"/><line x1="2079.4" y1="1082.5" x2="2021.2" y2="1082.3" style="fill:none;stroke:#b7b7b7;stroke-miterlimit:10;stroke-width:4px"/><line x1="2079.3" y1="1095.3" x2="2021.2" y2="1095" style="fill:none;stroke:#b7b7b7;stroke-miterlimit:10;stroke-width:4px"/><line x1="2079.1" y1="1134.4" x2="2021" y2="1134.1" style="fill:none;stroke:#b7b7b7;stroke-miterlimit:10;stroke-width:4px"/><line x1="2079.1" y1="1146.7" x2="2020.9" y2="1146.4" style="fill:none;stroke:#b7b7b7;stroke-miterlimit:10;stroke-width:4px"/><polyline points="2020.9 1147.5 2050.7 1159.4 2078.7 1147.5" style="fill:none;stroke:#b7b7b7;stroke-miterlimit:10;stroke-width:4px"/><polyline points="2079.1 1147.1 2079 1161.4 2093.4 1161.5 2093.6 1121" style="fill:none;stroke:#b7b7b7;stroke-miterlimit:10;stroke-width:4px"/><line x1="2153.6" y1="1108.4" x2="2093" y2="1108.1" style="fill:none;stroke:#b7b7b7;stroke-miterlimit:10;stroke-width:4px"/><line x1="2153.7" y1="1082.8" x2="2093.2" y2="1082.4" style="fill:none;stroke:#b7b7b7;stroke-miterlimit:10;stroke-width:4px"/><line x1="2153.6" y1="1095.6" x2="2093.1" y2="1095.3" style="fill:none;stroke:#b7b7b7;stroke-miterlimit:10;stroke-width:4px"/><line x1="2153.8" y1="1069.9" x2="2093.3" y2="1069.6" style="fill:none;stroke:#b7b7b7;stroke-miterlimit:10;stroke-width:4px"/><line x1="2153.5" y1="1121.3" x2="2093" y2="1121.1" style="fill:none;stroke:#b7b7b7;stroke-miterlimit:10;stroke-width:4px"/><line x1="2153.4" y1="1134.1" x2="2092.9" y2="1133.9" style="fill:none;stroke:#b7b7b7;stroke-miterlimit:10;stroke-width:4px"/><line x1="2153.4" y1="1147" x2="2092.9" y2="1146.8" style="fill:none;stroke:#b7b7b7;stroke-miterlimit:10;stroke-width:4px"/><line x1="2079.2" y1="1108" x2="2021.1" y2="1107.7" style="fill:none;stroke:#b7b7b7;stroke-miterlimit:10;stroke-width:4px"/><line x1="2079.1" y1="1121.1" x2="2021" y2="1120.8" style="fill:none;stroke:#b7b7b7;stroke-miterlimit:10;stroke-width:4px"/></g></g><g class="clickable" id="A1-3-02" data-name="customclass A1-3-02"><rect id="a-3" x="3418.8" y="2274.9" width="203.4" height="108.8" style="fill:#f2f2f2"/></g><g class="clickable" id="A1-3-09-A" data-name="customclass A1-3-09-A"><rect id="a-4" x="903.5" y="2537.5" width="151.1" height="137.3" style="fill:#f2f2f2"/></g><g class="clickable" id="A1-3-08" data-name="customclass A1-3-08"><polygon id="room-box-62" points="742.8 2879.9 788.2 2879.9 788.2 2879.1 886 2879.1 886 2537.4 742.3 2537.4 742.3 2816.4 742.8 2879.9" style="fill:#f2f2f2"/><g id="scala_E" data-name="scala E" style="opacity:0.4000000059604645"><line x1="885.7" y1="2536.8" x2="743.5" y2="2536.4" style="fill:none;stroke:#b7b7b7;stroke-miterlimit:10;stroke-width:4px"/><polyline points="743.5 2536.4 743 2750 807.1 2750.2 807.5 2607.5 822.9 2607.6 822.6 2750.3 885.3 2750.4 885.7 2536.8" style="fill:none;stroke:#b7b7b7;stroke-miterlimit:10;stroke-width:4px"/><polyline points="773.9 2749.9 774.3 2578.1 853.3 2578.4 852.9 2750.2" style="fill:none;stroke:#b7b7b7;stroke-miterlimit:10;stroke-width:4px"/><line x1="742.7" y1="2635.3" x2="807.9" y2="2635.4" style="fill:none;stroke:#b7b7b7;stroke-miterlimit:10;stroke-width:4px"/><line x1="742.8" y1="2622" x2="808" y2="2622.2" style="fill:none;stroke:#b7b7b7;stroke-miterlimit:10;stroke-width:4px"/><line x1="742.8" y1="2609.4" x2="808" y2="2609.6" style="fill:none;stroke:#b7b7b7;stroke-miterlimit:10;stroke-width:4px"/><line x1="807.9" y1="2648.4" x2="742.7" y2="2648.1" style="fill:none;stroke:#b7b7b7;stroke-miterlimit:10;stroke-width:4px"/><line x1="822.9" y1="2609.6" x2="885.6" y2="2609.7" style="fill:none;stroke:#b7b7b7;stroke-miterlimit:10;stroke-width:4px"/><line x1="822.9" y1="2622.2" x2="885.6" y2="2622.3" style="fill:none;stroke:#b7b7b7;stroke-miterlimit:10;stroke-width:4px"/><line x1="822.9" y1="2635.4" x2="885.5" y2="2635.6" style="fill:none;stroke:#b7b7b7;stroke-miterlimit:10;stroke-width:4px"/><line x1="822.9" y1="2648.4" x2="885.5" y2="2648.5" style="fill:none;stroke:#b7b7b7;stroke-miterlimit:10;stroke-width:4px"/><line x1="822.9" y1="2661.3" x2="885.4" y2="2661.4" style="fill:none;stroke:#b7b7b7;stroke-miterlimit:10;stroke-width:4px"/><line x1="822.8" y1="2673.9" x2="885.4" y2="2674.1" style="fill:none;stroke:#b7b7b7;stroke-miterlimit:10;stroke-width:4px"/><line x1="822.8" y1="2686.6" x2="885.4" y2="2686.7" style="fill:none;stroke:#b7b7b7;stroke-miterlimit:10;stroke-width:4px"/><line x1="822.7" y1="2725.5" x2="885.3" y2="2725.6" style="fill:none;stroke:#b7b7b7;stroke-miterlimit:10;stroke-width:4px"/><line x1="822.6" y1="2737.7" x2="885.3" y2="2737.8" style="fill:none;stroke:#b7b7b7;stroke-miterlimit:10;stroke-width:4px"/><polyline points="885.3 2738.9 853 2750.5 822.9 2738.5" style="fill:none;stroke:#b7b7b7;stroke-miterlimit:10;stroke-width:4px"/><polyline points="822.6 2738.1 822.6 2752.3 807.1 2752.3 807.1 2712" style="fill:none;stroke:#b7b7b7;stroke-miterlimit:10;stroke-width:4px"/><line x1="742.6" y1="2699.1" x2="807.8" y2="2699.3" style="fill:none;stroke:#b7b7b7;stroke-miterlimit:10;stroke-width:4px"/><line x1="742.7" y1="2673.6" x2="807.9" y2="2673.7" style="fill:none;stroke:#b7b7b7;stroke-miterlimit:10;stroke-width:4px"/><line x1="742.7" y1="2686.3" x2="807.9" y2="2686.5" style="fill:none;stroke:#b7b7b7;stroke-miterlimit:10;stroke-width:4px"/><line x1="742.7" y1="2660.8" x2="807.9" y2="2661" style="fill:none;stroke:#b7b7b7;stroke-miterlimit:10;stroke-width:4px"/><line x1="742.6" y1="2711.9" x2="807.8" y2="2712" style="fill:none;stroke:#b7b7b7;stroke-miterlimit:10;stroke-width:4px"/><line x1="742.6" y1="2724.7" x2="807.8" y2="2724.8" style="fill:none;stroke:#b7b7b7;stroke-miterlimit:10;stroke-width:4px"/><line x1="742.5" y1="2737.5" x2="807.7" y2="2737.6" style="fill:none;stroke:#b7b7b7;stroke-miterlimit:10;stroke-width:4px"/><line x1="822.7" y1="2699.2" x2="885.3" y2="2699.3" style="fill:none;stroke:#b7b7b7;stroke-miterlimit:10;stroke-width:4px"/><line x1="822.7" y1="2712.3" x2="885.3" y2="2712.4" style="fill:none;stroke:#b7b7b7;stroke-miterlimit:10;stroke-width:4px"/></g></g><g class="clickable" id="A1-3-30" data-name="customclass A1-3-30"><rect id="room-box-63" x="2418.7" y="784" width="392" height="139.5" style="fill:#f2f2f2"/><g id="scale_emergenza-2" data-name="scale emergenza-2" style="opacity:0.4000000059604645"><line x1="2810.7" y1="783.9" x2="2810.7" y2="923" style="fill:none;stroke:#b7b7b7;stroke-miterlimit:10;stroke-width:4px"/><polyline points="2810.7 923 2546.5 923 2546.5 860.2 2723 860.2 2723 845.1 2546.5 845.1 2546.5 783.9 2810.7 783.9" style="fill:none;stroke:#b7b7b7;stroke-miterlimit:10;stroke-width:4px"/><polyline points="2546.8 892.7 2759.2 892.7 2759.2 815.5 2546.6 815.5" style="fill:none;stroke:#b7b7b7;stroke-miterlimit:10;stroke-width:4px"/><line x1="2688.5" y1="923.5" x2="2688.5" y2="859.7" style="fill:none;stroke:#b7b7b7;stroke-miterlimit:10;stroke-width:4px"/><line x1="2704.9" y1="923.5" x2="2704.9" y2="859.7" style="fill:none;stroke:#b7b7b7;stroke-miterlimit:10;stroke-width:4px"/><line x1="2720.5" y1="923.5" x2="2720.5" y2="859.7" style="fill:none;stroke:#b7b7b7;stroke-miterlimit:10;stroke-width:4px"/><line x1="2672.5" y1="859.7" x2="2672.5" y2="923.5" style="fill:none;stroke:#b7b7b7;stroke-miterlimit:10;stroke-width:4px"/><line x1="2720.5" y1="845.1" x2="2720.5" y2="783.9" style="fill:none;stroke:#b7b7b7;stroke-miterlimit:10;stroke-width:4px"/><line x1="2704.9" y1="845.1" x2="2704.9" y2="783.9" style="fill:none;stroke:#b7b7b7;stroke-miterlimit:10;stroke-width:4px"/><line x1="2688.5" y1="845.1" x2="2688.5" y2="783.9" style="fill:none;stroke:#b7b7b7;stroke-miterlimit:10;stroke-width:4px"/><line x1="2672.5" y1="845.1" x2="2672.5" y2="783.9" style="fill:none;stroke:#b7b7b7;stroke-miterlimit:10;stroke-width:4px"/><line x1="2656.5" y1="845.1" x2="2656.5" y2="783.9" style="fill:none;stroke:#b7b7b7;stroke-miterlimit:10;stroke-width:4px"/><line x1="2640.9" y1="845.1" x2="2640.9" y2="783.9" style="fill:none;stroke:#b7b7b7;stroke-miterlimit:10;stroke-width:4px"/><line x1="2625.2" y1="845.1" x2="2625.2" y2="783.9" style="fill:none;stroke:#b7b7b7;stroke-miterlimit:10;stroke-width:4px"/><line x1="2577.1" y1="845.1" x2="2577.1" y2="783.9" style="fill:none;stroke:#b7b7b7;stroke-miterlimit:10;stroke-width:4px"/><line x1="2562" y1="845.1" x2="2562" y2="783.9" style="fill:none;stroke:#b7b7b7;stroke-miterlimit:10;stroke-width:4px"/><polyline points="2560.7 783.9 2546.2 815.3 2561 844.8" style="fill:none;stroke:#b7b7b7;stroke-miterlimit:10;stroke-width:4px"/><polyline points="2561.6 845.1 2543.8 845.1 2543.8 860.3 2593.7 860.3" style="fill:none;stroke:#b7b7b7;stroke-miterlimit:10;stroke-width:4px"/><line x1="2609.4" y1="923.5" x2="2609.4" y2="859.7" style="fill:none;stroke:#b7b7b7;stroke-miterlimit:10;stroke-width:4px"/><line x1="2641" y1="923.5" x2="2641" y2="859.7" style="fill:none;stroke:#b7b7b7;stroke-miterlimit:10;stroke-width:4px"/><line x1="2625.2" y1="923.5" x2="2625.2" y2="859.7" style="fill:none;stroke:#b7b7b7;stroke-miterlimit:10;stroke-width:4px"/><line x1="2656.9" y1="923.5" x2="2656.9" y2="859.7" style="fill:none;stroke:#b7b7b7;stroke-miterlimit:10;stroke-width:4px"/><line x1="2593.6" y1="923.5" x2="2593.6" y2="859.7" style="fill:none;stroke:#b7b7b7;stroke-miterlimit:10;stroke-width:4px"/><line x1="2577.8" y1="923.5" x2="2577.8" y2="859.7" style="fill:none;stroke:#b7b7b7;stroke-miterlimit:10;stroke-width:4px"/><line x1="2562" y1="923.5" x2="2562" y2="859.7" style="fill:none;stroke:#b7b7b7;stroke-miterlimit:10;stroke-width:4px"/><line x1="2609.7" y1="845.1" x2="2609.7" y2="783.9" style="fill:none;stroke:#b7b7b7;stroke-miterlimit:10;stroke-width:4px"/><line x1="2593.4" y1="845.1" x2="2593.4" y2="783.9" style="fill:none;stroke:#b7b7b7;stroke-miterlimit:10;stroke-width:4px"/></g></g><g class="clickable" id="A1-3-01" data-name="customclass A1-3-01"><polygon id="room-box-64" points="3601.7 2994.5 3601.7 2993.9 3601.7 2535.9 3438.9 2535.9 3438.9 2994.5 3601.7 2994.5" style="fill:#f2f2f2"/><g id="scale-3" style="opacity:0.4000000059604645"><line x1="3601.7" y1="2535.9" x2="3439.4" y2="2535.9" style="fill:none;stroke:#b7b7b7;stroke-miterlimit:10;stroke-width:4px"/><polyline points="3439.4 2535.9 3439.4 2816.1 3512.7 2816.1 3512.7 2629 3530.2 2629 3530.2 2816.1 3601.7 2816.1 3601.7 2535.9" style="fill:none;stroke:#b7b7b7;stroke-miterlimit:10;stroke-width:4px"/><polyline points="3474.8 2815.7 3474.8 2590.5 3564.9 2590.5 3564.9 2815.9" style="fill:none;stroke:#b7b7b7;stroke-miterlimit:10;stroke-width:4px"/><line x1="3438.9" y1="2665.5" x2="3513.2" y2="2665.5" style="fill:none;stroke:#b7b7b7;stroke-miterlimit:10;stroke-width:4px"/><line x1="3438.9" y1="2648.1" x2="3513.2" y2="2648.1" style="fill:none;stroke:#b7b7b7;stroke-miterlimit:10;stroke-width:4px"/><line x1="3438.9" y1="2631.6" x2="3513.2" y2="2631.6" style="fill:none;stroke:#b7b7b7;stroke-miterlimit:10;stroke-width:4px"/><line x1="3513.2" y1="2682.4" x2="3438.9" y2="2682.4" style="fill:none;stroke:#b7b7b7;stroke-miterlimit:10;stroke-width:4px"/><line x1="3530.2" y1="2631.6" x2="3601.7" y2="2631.6" style="fill:none;stroke:#b7b7b7;stroke-miterlimit:10;stroke-width:4px"/><line x1="3530.2" y1="2648.1" x2="3601.7" y2="2648.1" style="fill:none;stroke:#b7b7b7;stroke-miterlimit:10;stroke-width:4px"/><line x1="3530.2" y1="2665.5" x2="3601.7" y2="2665.5" style="fill:none;stroke:#b7b7b7;stroke-miterlimit:10;stroke-width:4px"/><line x1="3530.2" y1="2682.4" x2="3601.7" y2="2682.4" style="fill:none;stroke:#b7b7b7;stroke-miterlimit:10;stroke-width:4px"/><line x1="3530.2" y1="2699.4" x2="3601.7" y2="2699.4" style="fill:none;stroke:#b7b7b7;stroke-miterlimit:10;stroke-width:4px"/><line x1="3530.2" y1="2716" x2="3601.7" y2="2716" style="fill:none;stroke:#b7b7b7;stroke-miterlimit:10;stroke-width:4px"/><line x1="3530.2" y1="2732.6" x2="3601.7" y2="2732.6" style="fill:none;stroke:#b7b7b7;stroke-miterlimit:10;stroke-width:4px"/><line x1="3530.2" y1="2783.6" x2="3601.7" y2="2783.6" style="fill:none;stroke:#b7b7b7;stroke-miterlimit:10;stroke-width:4px"/><line x1="3530.2" y1="2799.6" x2="3601.7" y2="2799.6" style="fill:none;stroke:#b7b7b7;stroke-miterlimit:10;stroke-width:4px"/><polyline points="3601.7 2801 3564.9 2816.3 3530.6 2800.6" style="fill:none;stroke:#b7b7b7;stroke-miterlimit:10;stroke-width:4px"/><polyline points="3530.2 2800.1 3530.2 2818.8 3512.5 2818.8 3512.5 2766" style="fill:none;stroke:#b7b7b7;stroke-miterlimit:10;stroke-width:4px"/><line x1="3438.9" y1="2749.3" x2="3513.2" y2="2749.3" style="fill:none;stroke:#b7b7b7;stroke-miterlimit:10;stroke-width:4px"/><line x1="3438.9" y1="2715.8" x2="3513.2" y2="2715.8" style="fill:none;stroke:#b7b7b7;stroke-miterlimit:10;stroke-width:4px"/><line x1="3438.9" y1="2732.6" x2="3513.2" y2="2732.6" style="fill:none;stroke:#b7b7b7;stroke-miterlimit:10;stroke-width:4px"/><line x1="3438.9" y1="2699" x2="3513.2" y2="2699" style="fill:none;stroke:#b7b7b7;stroke-miterlimit:10;stroke-width:4px"/><line x1="3438.9" y1="2766.1" x2="3513.2" y2="2766.1" style="fill:none;stroke:#b7b7b7;stroke-miterlimit:10;stroke-width:4px"/><line x1="3438.9" y1="2782.8" x2="3513.2" y2="2782.8" style="fill:none;stroke:#b7b7b7;stroke-miterlimit:10;stroke-width:4px"/><line x1="3438.9" y1="2799.6" x2="3513.2" y2="2799.6" style="fill:none;stroke:#b7b7b7;stroke-miterlimit:10;stroke-width:4px"/><line x1="3530.2" y1="2749.1" x2="3601.7" y2="2749.1" style="fill:none;stroke:#b7b7b7;stroke-miterlimit:10;stroke-width:4px"/><line x1="3530.2" y1="2766.3" x2="3601.7" y2="2766.3" style="fill:none;stroke:#b7b7b7;stroke-miterlimit:10;stroke-width:4px"/></g></g><g class="clickable" id="A1-3-34" data-name="customclass A1-3-34"><rect id="room-box-65" x="4849.2" y="674.5" width="410" height="248.4" style="fill:#f2f2f2"/><g id="scale_emergenza-3" data-name="scale emergenza-3" style="opacity:0.4000000059604645"><line x1="4850.3" y1="675" x2="4850.3" y2="922.6" style="fill:none;stroke:#b7b7b7;stroke-miterlimit:10;stroke-width:4px"/><polyline points="4850.3 922.6 5178.4 922.6 5178.4 810.9 4959.2 810.9 4959.2 784 5178.4 784 5178.4 675 4850.3 675" style="fill:none;stroke:#b7b7b7;stroke-miterlimit:10;stroke-width:4px"/><polyline points="5178 868.7 4914.2 868.7 4914.2 731.2 5178.3 731.2" style="fill:none;stroke:#b7b7b7;stroke-miterlimit:10;stroke-width:4px"/><line x1="5002.1" y1="923.5" x2="5002.1" y2="810" style="fill:none;stroke:#b7b7b7;stroke-miterlimit:10;stroke-width:4px"/><line x1="4981.7" y1="923.5" x2="4981.7" y2="810" style="fill:none;stroke:#b7b7b7;stroke-miterlimit:10;stroke-width:4px"/><line x1="4962.3" y1="923.5" x2="4962.3" y2="810" style="fill:none;stroke:#b7b7b7;stroke-miterlimit:10;stroke-width:4px"/><line x1="5021.9" y1="810" x2="5021.9" y2="923.5" style="fill:none;stroke:#b7b7b7;stroke-miterlimit:10;stroke-width:4px"/><line x1="4962.3" y1="784" x2="4962.3" y2="675" style="fill:none;stroke:#b7b7b7;stroke-miterlimit:10;stroke-width:4px"/><line x1="4981.7" y1="784" x2="4981.7" y2="675" style="fill:none;stroke:#b7b7b7;stroke-miterlimit:10;stroke-width:4px"/><line x1="5002.1" y1="784" x2="5002.1" y2="675" style="fill:none;stroke:#b7b7b7;stroke-miterlimit:10;stroke-width:4px"/><line x1="5021.9" y1="784" x2="5021.9" y2="675" style="fill:none;stroke:#b7b7b7;stroke-miterlimit:10;stroke-width:4px"/><line x1="5041.8" y1="784" x2="5041.8" y2="675" style="fill:none;stroke:#b7b7b7;stroke-miterlimit:10;stroke-width:4px"/><line x1="5061.1" y1="784" x2="5061.1" y2="675" style="fill:none;stroke:#b7b7b7;stroke-miterlimit:10;stroke-width:4px"/><line x1="5080.7" y1="784" x2="5080.7" y2="675" style="fill:none;stroke:#b7b7b7;stroke-miterlimit:10;stroke-width:4px"/><line x1="5140.4" y1="784" x2="5140.4" y2="675" style="fill:none;stroke:#b7b7b7;stroke-miterlimit:10;stroke-width:4px"/><line x1="5159.1" y1="784" x2="5159.1" y2="675" style="fill:none;stroke:#b7b7b7;stroke-miterlimit:10;stroke-width:4px"/><polyline points="5160.8 675 5178.8 731.1 5160.4 783.5" style="fill:none;stroke:#b7b7b7;stroke-miterlimit:10;stroke-width:4px"/><polyline points="5159.8 784 5181.7 784 5181.7 811.1 5119.7 811.1" style="fill:none;stroke:#b7b7b7;stroke-miterlimit:10;stroke-width:4px"/><line x1="5100.2" y1="923.5" x2="5100.2" y2="810" style="fill:none;stroke:#b7b7b7;stroke-miterlimit:10;stroke-width:4px"/><line x1="5061" y1="923.5" x2="5061" y2="810" style="fill:none;stroke:#b7b7b7;stroke-miterlimit:10;stroke-width:4px"/><line x1="5080.6" y1="923.5" x2="5080.6" y2="810" style="fill:none;stroke:#b7b7b7;stroke-miterlimit:10;stroke-width:4px"/><line x1="5041.3" y1="923.5" x2="5041.3" y2="810" style="fill:none;stroke:#b7b7b7;stroke-miterlimit:10;stroke-width:4px"/><line x1="5119.9" y1="923.5" x2="5119.9" y2="810" style="fill:none;stroke:#b7b7b7;stroke-miterlimit:10;stroke-width:4px"/><line x1="5139.5" y1="923.5" x2="5139.5" y2="810" style="fill:none;stroke:#b7b7b7;stroke-miterlimit:10;stroke-width:4px"/><line x1="5159.1" y1="923.5" x2="5159.1" y2="810" style="fill:none;stroke:#b7b7b7;stroke-miterlimit:10;stroke-width:4px"/><line x1="5100" y1="784" x2="5100" y2="675" style="fill:none;stroke:#b7b7b7;stroke-miterlimit:10;stroke-width:4px"/><line x1="5120.1" y1="784" x2="5120.1" y2="675" style="fill:none;stroke:#b7b7b7;stroke-miterlimit:10;stroke-width:4px"/></g></g><rect id="room-box-66" x="4589.2" y="655" width="239.9" height="287.4" style="fill:#f2f2f2"/><rect id="room-box-67" x="4416" y="942.9" width="413.1" height="109.9" style="fill:#f2f2f2"/><g class="clickable" id="A1-3-23" data-name="customclass A1-3-23"><rect id="room-box-68" x="190.2" y="1212.4" width="165.9" height="79.2" style="fill:#f2f2f2"/></g><rect id="room-box-70" x="334.9" y="2403.3" width="209.2" height="114.1" style="fill:#f2f2f2"/><g class="clickable" id="A1-3-09" data-name="customclass A1-3-09"><rect id="room-box-71" x="648.8" y="2537.5" width="74" height="258.8" style="fill:#f2f2f2"/></g><g class="clickable" id="A1-3-28" data-name="customclass A1-3-28"><rect id="room-box-72" x="2276.1" y="653.9" width="122.6" height="288.9" style="fill:#f2f2f2"/></g><g class="clickable" id="A1-3-26" data-name="customclass A1-3-26"><polygon id="room-box-73" points="3877 922.7 4396 922.7 4396 674.6 3750.1 674.6 3750.1 922.7 3877 922.7" style="fill:#f2f2f2"/></g><g class="clickable" id="A1-3-37-M" data-name="customclass A1-3-37-M"><rect id="room-box-74" x="4830.1" y="1825.3" width="448" height="231.9" style="fill:#f2f2f2;stroke:#b7b7b7;stroke-miterlimit:10"/></g><g class="clickable" id="A1-3-27-A" data-name="customclass A1-3-27-A"><rect id="room-box-75" x="5060.5" y="492.8" width="217.7" height="161.7" style="fill:#f2f2f2;stroke:#b7b7b7;stroke-miterlimit:10"/></g><g class="clickable" id="A1-3-27-C" data-name="customclass A1-3-27-C"><rect id="room-box-76" x="4306" y="492.8" width="281.2" height="161.7" style="fill:#f2f2f2;stroke:#b7b7b7;stroke-miterlimit:10"/></g><g class="clickable" id="A1-3-27-D" data-name="customclass A1-3-27-D"><rect id="room-box-77" x="3613.9" y="492.8" width="242.5" height="161.7" style="fill:#f2f2f2;stroke:#b7b7b7;stroke-miterlimit:10"/></g><g class="clickable" id="A1-3-27-F" data-name="customclass A1-3-27-F"><rect id="room-box-78" x="3152" y="574.2" width="149" height="80.3" style="fill:#f2f2f2;stroke:#b7b7b7;stroke-miterlimit:10"/></g><g class="clickable" id="A1-3-27-E" data-name="customclass A1-3-27-E"><rect id="room-box-79" x="3152.1" y="492.8" width="360.3" height="81.4" style="fill:#f2f2f2;stroke:#b7b7b7;stroke-miterlimit:10"/></g><g class="clickable" id="A1-3-27-U" data-name="customclass A1-3-27-U"><rect id="room-box-80" x="2275.9" y="42.2" width="3002.2" height="166.4" style="fill:#f2f2f2;stroke:#b7b7b7;stroke-miterlimit:10"/></g><g class="clickable" id="A1-3-37-A" data-name="customclass A1-3-37-A"><rect id="room-box-81" x="4830.2" y="2615.7" width="569.6" height="180" style="fill:#f2f2f2;stroke:#b7b7b7;stroke-miterlimit:10"/></g><g class="clickable" id="A1-3-37-D" data-name="customclass A1-3-37-D"><rect id="room-box-82" x="3897.1" y="2520" width="294.4" height="276.8" style="fill:#f2f2f2;stroke:#b7b7b7;stroke-miterlimit:10"/></g><g class="clickable" id="A1-3-37-O" data-name="customclass A1-3-37-O"><rect id="room-box-83" x="3896.5" y="1826.3" width="500.5" height="231.4" style="fill:#f2f2f2;stroke:#b7b7b7;stroke-miterlimit:10"/></g><g class="clickable" id="A1-3-31-C" data-name="customclass A1-3-31-C"><rect id="room-box-84" x="2418.7" y="1053.9" width="498.8" height="237.7" style="fill:#f2f2f2;stroke:#b7b7b7;stroke-miterlimit:10"/></g><g class="clickable" id="A1-3-19" data-name="customclass A1-3-19"><rect id="room-box-85" x="3440" y="2078.3" width="161.7" height="177.5" style="fill:#f2f2f2;stroke:#b7b7b7;stroke-miterlimit:10"/></g><g class="clickable" id="A1-3-18-A" data-name="customclass A1-3-18-A"><rect id="room-box-86" x="3242.9" y="2077.8" width="178.6" height="80.3" style="fill:#f2f2f2"/></g><g class="clickable" id="A1-3-18" data-name="customclass A1-3-18"><rect id="room-box-87" x="2937.5" y="2078.3" width="284.8" height="178.3" style="fill:#f2f2f2;stroke:#b7b7b7;stroke-miterlimit:10"/></g><rect id="room-box-88" x="2172.6" y="1211.8" width="84" height="99.4" style="fill:#f2f2f2"/><path id="stairs-fixed-2" d="M2213.5,1312.7h43.6V1281h-84.6v31.7Zm2.5-29.2,28.1,4.9H2216Zm-2.5,4.9h-28.1l28.1-4.9Zm41.4,22.2H2216v-5.2h38.9Zm0-7.4H2216v-5.3h38.9Zm0-7.4H2216v-5.3h38.9Zm0-7.6-28.3-5.1h28.3Zm-52.1-5.1-28.3,5.1v-5.1Zm-28.2,7.5h38.9v5.3h-38.9Zm0,7.3h38.9v5.3h-38.9Zm38.9,7.5v5.2h-38.9v-5.2Z" style="fill:#b7b7b7;opacity:0.4000000059604645;isolation:isolate"/><rect id="room-box-89" x="43.3" y="2403.3" width="291.6" height="114.1" style="fill:#f2f2f2"/><path id="stairs-fixed-3" d="M260.3,2518.4h76.1V2402.2H247.9v116.2Zm12.3-2H262.5v-54.7h10.1Zm12.4,0H274.8v-54.7H285Zm12.3,0H287.2v-54.7h10.1Zm12.3,0H299.4v-54.7h10.2Zm12.3,0H311.7v-54.7h10.2Zm2.3-103.2,9.9,45.7h-9.9Zm9.9,48.5-9.9,45.8v-45.8Zm-9.8,54.7,10-46.2v46.2Zm10-66-10-46.2h10Zm-22.6-46.2h10.2v54.7H311.7Zm-12.3,0h10.2v54.7H299.4Zm-12.3,0h10.1v54.7H287.1Zm-12.3,0H285v54.7H274.8Zm-12.3,0h10.1v54.7H262.5Zm-12.4,0h10.2v54.7H250.1Zm10.2,57.5v54.7H250.1v-54.7Z" style="fill:#b7b7b7;opacity:0.4000000059604645;isolation:isolate"/><g class="clickable" id="A1-3-14-A" data-name="customclass A1-3-14-A"><rect id="meeting" x="1935.8" y="2145.4" width="339.2" height="196.6" style="fill:#f2f2f2;stroke:#b7b7b7;stroke-miterlimit:10"/></g><g id="scale-4"><path id="stairs-fixed-4" d="M2237.6,2404v-88.5h-59.5V2404Zm-57.3-11.5,21.3,9.3h-21.3Zm26,8.9h-.3l-22.3-9.8h22.6Zm2.1-9.8H2231l-22.6,8.9Zm2.3,10.2,24.8-9.7v9.7Zm24.9-12.2h-27.1v-10.3h27.1Zm0-12.3h-27.1V2367h27.1Zm0-12.4h-27.1v-10.3h27.1Zm0-12.3h-27.1v-10.3h27.1Zm0-12.4h-27.1V2330h27.1Zm0-12.3h-27.1v-10.2h27.1Zm-55.3-10.2h25.9v10.2h-25.9Zm0,12.3h25.9v10.2h-25.9Zm0,12.3h25.9v10.3h-25.9Zm0,12.3h25.9v10.3h-25.9Zm0,12.4h25.9v10.3h-25.9Zm0,12.3h25.9v10.3h-25.9Z" style="fill:#b7b7b7;opacity:0.4000000059604645;isolation:isolate"/></g></g></g></svg>