<svg id="floor-01" xmlns="http://www.w3.org/2000/svg" xmlns:xlink="http://www.w3.org/1999/xlink" viewBox="0 0 5442.5 3038.7"><defs><pattern id="SVGID_57_" data-name="SVGID 57 " width="44.9" height="44.9" patternTransform="matrix(-0.63, 0, 0, 0.63, -21993.29, 26860.68)" patternUnits="userSpaceOnUse" viewBox="0 0 44.9 44.9"><rect width="44.9" height="44.9" style="fill:none"/><rect width="44.9" height="44.9" style="fill:none"/><rect width="44.9" height="44.9" style="fill:none"/><rect width="44.9" height="44.9" style="fill:none"/><rect width="44.9" height="44.9" style="fill:none"/><rect width="44.9" height="44.9" style="fill:none"/><rect width="44.9" height="44.9" style="fill:none"/><rect width="44.9" height="44.9" style="fill:none"/><rect width="44.9" height="44.9" style="fill:none"/><rect width="44.9" height="44.9" style="fill:none"/><rect x="41.7" y="-41.7" width="47.2" height="45.7" style="fill:#f2f2f2"/><line x1="44.9" x2="89.8" y2="-44.9" style="fill:none;stroke:#ddd;stroke-linecap:square;stroke-linejoin:round;stroke-width:20px"/><rect x="-3.2" y="-41.7" width="47.2" height="45.7" style="fill:#f2f2f2"/><line x2="44.9" y2="-44.9" style="fill:none;stroke:#ddd;stroke-linecap:square;stroke-linejoin:round;stroke-width:20px"/><line x1="-44.9" y2="-44.9" style="fill:none;stroke:#ddd;stroke-linecap:square;stroke-linejoin:round;stroke-width:20px"/><rect x="41.7" y="3.1" width="47.2" height="45.7" style="fill:#f2f2f2"/><line x1="44.9" y1="44.9" x2="89.8" style="fill:none;stroke:#ddd;stroke-linecap:square;stroke-linejoin:round;stroke-width:20px"/><rect x="-3.2" y="3.1" width="47.2" height="45.7" style="fill:#f2f2f2"/><line y1="44.9" x2="44.9" style="fill:none;stroke:#ddd;stroke-linecap:square;stroke-linejoin:round;stroke-width:20px"/><line x1="-44.9" y1="44.9" style="fill:none;stroke:#ddd;stroke-linecap:square;stroke-linejoin:round;stroke-width:20px"/><line x1="44.9" y1="89.8" x2="89.8" y2="44.9" style="fill:none;stroke:#ddd;stroke-linecap:square;stroke-linejoin:round;stroke-width:20px"/><line y1="89.8" x2="44.9" y2="44.9" style="fill:none;stroke:#ddd;stroke-linecap:square;stroke-linejoin:round;stroke-width:20px"/><line x1="-44.9" y1="89.8" y2="44.9" style="fill:none;stroke:#ddd;stroke-linecap:square;stroke-linejoin:round;stroke-width:20px"/></pattern><pattern id="room-box_8_" data-name="room-box 8 " width="114.9" height="114.9" patternTransform="matrix(-0.63, 0, 0, 0.63, -22474.87, 27758.21)" patternUnits="userSpaceOnUse" viewBox="0 0 114.9 114.9"><rect width="114.9" height="114.9" style="fill:none"/><rect width="114.9" height="114.9" style="fill:none"/><rect width="114.9" height="114.9" style="fill:none"/><rect width="114.9" height="114.9" style="fill:none"/><rect width="114.9" height="114.9" style="fill:none"/><rect width="114.9" height="114.9" style="fill:none"/><rect width="114.9" height="114.9" style="fill:none"/><rect width="114.9" height="114.9" style="fill:none"/><rect width="114.9" height="114.9" style="fill:none"/><rect width="114.9" height="114.9" style="fill:none"/><line x1="231.2" y1="-113.9" x2="116.3" y2="1.1" style="fill:none;stroke:#b7b7b7;stroke-linecap:round;stroke-linejoin:round;stroke-width:4px;stroke-dasharray:0,29"/><polygon points="116.3 -113.9 1.4 -113.9 1.4 1 116.3 1.1 116.3 -113.9" style="fill:#f2f2f2"/><line x1="116.3" y1="-113.9" x2="1.4" y2="1.1" style="fill:none;stroke:#b7b7b7;stroke-linecap:round;stroke-linejoin:round;stroke-width:4px;stroke-dasharray:0,29"/><line x1="116.3" y1="-61.2" x2="53.7" y2="1.2" style="fill:none;stroke:#b7b7b7;stroke-linecap:round;stroke-linejoin:round;stroke-width:4px;stroke-dasharray:0,29"/><line x1="116.3" y1="-84.7" x2="30.1" y2="1.2" style="fill:none;stroke:#b7b7b7;stroke-linecap:round;stroke-linejoin:round;stroke-width:4px;stroke-dasharray:0,29"/><polygon points="1.4 -113.9 -113.5 -113.9 -113.5 1 1.4 1.1 1.4 -113.9" style="fill:#f2f2f2"/><line x1="1.4" y1="-113.9" x2="-113.5" y2="1.1" style="fill:none;stroke:#b7b7b7;stroke-linecap:round;stroke-linejoin:round;stroke-width:4px;stroke-dasharray:0,29"/><line x1="1.4" y1="-61.2" x2="-61.2" y2="1.2" style="fill:none;stroke:#b7b7b7;stroke-linecap:round;stroke-linejoin:round;stroke-width:4px;stroke-dasharray:0,29"/><line x1="1.4" y1="-84.7" x2="-84.9" y2="1.2" style="fill:none;stroke:#b7b7b7;stroke-linecap:round;stroke-linejoin:round;stroke-width:4px;stroke-dasharray:0,29"/><line x1="231.2" y1="1" x2="116.3" y2="116" style="fill:none;stroke:#b7b7b7;stroke-linecap:round;stroke-linejoin:round;stroke-width:4px;stroke-dasharray:0,29"/><line x1="199.8" y1="-1.3" x2="113.5" y2="84.7" style="fill:none;stroke:#b7b7b7;stroke-linecap:round;stroke-linejoin:round;stroke-width:4px;stroke-dasharray:0,29"/><polygon points="116.3 1 1.4 1 1.4 115.9 116.3 116 116.3 1" style="fill:#f2f2f2"/><line x1="116.3" y1="1" x2="1.4" y2="116" style="fill:none;stroke:#b7b7b7;stroke-linecap:round;stroke-linejoin:round;stroke-width:4px;stroke-dasharray:0,29"/><line x1="53.7" y1="1.2" x2="1.7" y2="53.2" style="fill:none;stroke:#b7b7b7;stroke-linecap:round;stroke-linejoin:round;stroke-width:4px;stroke-dasharray:0,29"/><line x1="116.3" y1="53.8" x2="53.7" y2="116.1" style="fill:none;stroke:#b7b7b7;stroke-linecap:round;stroke-linejoin:round;stroke-width:4px;stroke-dasharray:0,29"/><line x1="116.3" y1="30.2" x2="30.1" y2="116.1" style="fill:none;stroke:#b7b7b7;stroke-linecap:round;stroke-linejoin:round;stroke-width:4px;stroke-dasharray:0,29"/><line x1="84.9" y1="-1.3" x2="-1.4" y2="84.7" style="fill:none;stroke:#b7b7b7;stroke-linecap:round;stroke-linejoin:round;stroke-width:4px;stroke-dasharray:0,29"/><polygon points="1.4 1 -113.5 1 -113.5 115.9 1.4 116 1.4 1" style="fill:#f2f2f2"/><line x1="1.4" y1="1" x2="-113.5" y2="116" style="fill:none;stroke:#b7b7b7;stroke-linecap:round;stroke-linejoin:round;stroke-width:4px;stroke-dasharray:0,29"/><line x1="1.4" y1="53.8" x2="-61.2" y2="116.1" style="fill:none;stroke:#b7b7b7;stroke-linecap:round;stroke-linejoin:round;stroke-width:4px;stroke-dasharray:0,29"/><line x1="1.4" y1="30.2" x2="-84.9" y2="116.1" style="fill:none;stroke:#b7b7b7;stroke-linecap:round;stroke-linejoin:round;stroke-width:4px;stroke-dasharray:0,29"/><line x1="231.2" y1="115.9" x2="116.3" y2="231" style="fill:none;stroke:#b7b7b7;stroke-linecap:round;stroke-linejoin:round;stroke-width:4px;stroke-dasharray:0,29"/><line x1="199.8" y1="113.6" x2="113.5" y2="199.6" style="fill:none;stroke:#b7b7b7;stroke-linecap:round;stroke-linejoin:round;stroke-width:4px;stroke-dasharray:0,29"/><line x1="116.3" y1="115.9" x2="1.4" y2="231" style="fill:none;stroke:#b7b7b7;stroke-linecap:round;stroke-linejoin:round;stroke-width:4px;stroke-dasharray:0,29"/><line x1="53.7" y1="116.1" x2="1.7" y2="168.1" style="fill:none;stroke:#b7b7b7;stroke-linecap:round;stroke-linejoin:round;stroke-width:4px;stroke-dasharray:0,29"/><line x1="84.9" y1="113.6" x2="-1.4" y2="199.6" style="fill:none;stroke:#b7b7b7;stroke-linecap:round;stroke-linejoin:round;stroke-width:4px;stroke-dasharray:0,29"/><line x1="1.4" y1="115.9" x2="-113.5" y2="231" style="fill:none;stroke:#b7b7b7;stroke-linecap:round;stroke-linejoin:round;stroke-width:4px;stroke-dasharray:0,29"/></pattern><pattern id="SVGID_64_" data-name="SVGID 64 " width="44.9" height="44.9" patternTransform="matrix(-0.63, 0, 0, 0.63, -22047.94, 27185.14)" patternUnits="userSpaceOnUse" viewBox="0 0 44.9 44.9"><rect width="44.9" height="44.9" style="fill:none"/><rect width="44.9" height="44.9" style="fill:none"/><rect width="44.9" height="44.9" style="fill:none"/><rect width="44.9" height="44.9" style="fill:none"/><rect width="44.9" height="44.9" style="fill:none"/><rect width="44.9" height="44.9" style="fill:none"/><rect width="44.9" height="44.9" style="fill:none"/><rect width="44.9" height="44.9" style="fill:none"/><rect width="44.9" height="44.9" style="fill:none"/><rect width="44.9" height="44.9" style="fill:none"/><rect x="41.7" y="-41.7" width="47.2" height="45.7" style="fill:#f2f2f2"/><line x1="44.9" x2="89.8" y2="-44.9" style="fill:none;stroke:#ddd;stroke-linecap:square;stroke-linejoin:round;stroke-width:20px"/><rect x="-3.2" y="-41.7" width="47.2" height="45.7" style="fill:#f2f2f2"/><line x2="44.9" y2="-44.9" style="fill:none;stroke:#ddd;stroke-linecap:square;stroke-linejoin:round;stroke-width:20px"/><line x1="-44.9" y2="-44.9" style="fill:none;stroke:#ddd;stroke-linecap:square;stroke-linejoin:round;stroke-width:20px"/><rect x="41.7" y="3.1" width="47.2" height="45.7" style="fill:#f2f2f2"/><line x1="44.9" y1="44.9" x2="89.8" style="fill:none;stroke:#ddd;stroke-linecap:square;stroke-linejoin:round;stroke-width:20px"/><rect x="-3.2" y="3.1" width="47.2" height="45.7" style="fill:#f2f2f2"/><line y1="44.9" x2="44.9" style="fill:none;stroke:#ddd;stroke-linecap:square;stroke-linejoin:round;stroke-width:20px"/><line x1="-44.9" y1="44.9" style="fill:none;stroke:#ddd;stroke-linecap:square;stroke-linejoin:round;stroke-width:20px"/><line x1="44.9" y1="89.8" x2="89.8" y2="44.9" style="fill:none;stroke:#ddd;stroke-linecap:square;stroke-linejoin:round;stroke-width:20px"/><line y1="89.8" x2="44.9" y2="44.9" style="fill:none;stroke:#ddd;stroke-linecap:square;stroke-linejoin:round;stroke-width:20px"/><line x1="-44.9" y1="89.8" y2="44.9" style="fill:none;stroke:#ddd;stroke-linecap:square;stroke-linejoin:round;stroke-width:20px"/></pattern><pattern id="room-box-89_4_" data-name="room-box-89 4 " width="114.9" height="114.9" patternTransform="matrix(-0.63, 0, 0, 0.63, -22474.87, 27758.21)" patternUnits="userSpaceOnUse" viewBox="0 0 114.9 114.9"><rect width="114.9" height="114.9" style="fill:none"/><rect width="114.9" height="114.9" style="fill:none"/><rect width="114.9" height="114.9" style="fill:none"/><rect width="114.9" height="114.9" style="fill:none"/><rect width="114.9" height="114.9" style="fill:none"/><rect width="114.9" height="114.9" style="fill:none"/><rect width="114.9" height="114.9" style="fill:none"/><rect width="114.9" height="114.9" style="fill:none"/><rect width="114.9" height="114.9" style="fill:none"/><rect width="114.9" height="114.9" style="fill:none"/><line x1="231.2" y1="-113.9" x2="116.3" y2="1.1" style="fill:none;stroke:#bcd1b4;stroke-linecap:round;stroke-linejoin:round;stroke-width:4px;stroke-dasharray:0,29"/><polygon points="116.3 -113.9 1.4 -113.9 1.4 1 116.3 1.1 116.3 -113.9" style="fill:#d2e4cc"/><line x1="116.3" y1="-113.9" x2="1.4" y2="1.1" style="fill:none;stroke:#bcd1b4;stroke-linecap:round;stroke-linejoin:round;stroke-width:4px;stroke-dasharray:0,29"/><line x1="116.3" y1="-61.2" x2="53.7" y2="1.2" style="fill:none;stroke:#bcd1b4;stroke-linecap:round;stroke-linejoin:round;stroke-width:4px;stroke-dasharray:0,29"/><line x1="116.3" y1="-84.7" x2="30.1" y2="1.2" style="fill:none;stroke:#bcd1b4;stroke-linecap:round;stroke-linejoin:round;stroke-width:4px;stroke-dasharray:0,29"/><polygon points="1.4 -113.9 -113.5 -113.9 -113.5 1 1.4 1.1 1.4 -113.9" style="fill:#d2e4cc"/><line x1="1.4" y1="-113.9" x2="-113.5" y2="1.1" style="fill:none;stroke:#bcd1b4;stroke-linecap:round;stroke-linejoin:round;stroke-width:4px;stroke-dasharray:0,29"/><line x1="1.4" y1="-61.2" x2="-61.2" y2="1.2" style="fill:none;stroke:#bcd1b4;stroke-linecap:round;stroke-linejoin:round;stroke-width:4px;stroke-dasharray:0,29"/><line x1="1.4" y1="-84.7" x2="-84.9" y2="1.2" style="fill:none;stroke:#bcd1b4;stroke-linecap:round;stroke-linejoin:round;stroke-width:4px;stroke-dasharray:0,29"/><line x1="231.2" y1="1" x2="116.3" y2="116" style="fill:none;stroke:#bcd1b4;stroke-linecap:round;stroke-linejoin:round;stroke-width:4px;stroke-dasharray:0,29"/><line x1="199.8" y1="-1.3" x2="113.5" y2="84.7" style="fill:none;stroke:#bcd1b4;stroke-linecap:round;stroke-linejoin:round;stroke-width:4px;stroke-dasharray:0,29"/><polygon points="116.3 1 1.4 1 1.4 115.9 116.3 116 116.3 1" style="fill:#d2e4cc"/><line x1="116.3" y1="1" x2="1.4" y2="116" style="fill:none;stroke:#bcd1b4;stroke-linecap:round;stroke-linejoin:round;stroke-width:4px;stroke-dasharray:0,29"/><line x1="53.7" y1="1.2" x2="1.7" y2="53.2" style="fill:none;stroke:#bcd1b4;stroke-linecap:round;stroke-linejoin:round;stroke-width:4px;stroke-dasharray:0,29"/><line x1="116.3" y1="53.8" x2="53.7" y2="116.1" style="fill:none;stroke:#bcd1b4;stroke-linecap:round;stroke-linejoin:round;stroke-width:4px;stroke-dasharray:0,29"/><line x1="116.3" y1="30.2" x2="30.1" y2="116.1" style="fill:none;stroke:#bcd1b4;stroke-linecap:round;stroke-linejoin:round;stroke-width:4px;stroke-dasharray:0,29"/><line x1="84.9" y1="-1.3" x2="-1.4" y2="84.7" style="fill:none;stroke:#bcd1b4;stroke-linecap:round;stroke-linejoin:round;stroke-width:4px;stroke-dasharray:0,29"/><polygon points="1.4 1 -113.5 1 -113.5 115.9 1.4 116 1.4 1" style="fill:#d2e4cc"/><line x1="1.4" y1="1" x2="-113.5" y2="116" style="fill:none;stroke:#bcd1b4;stroke-linecap:round;stroke-linejoin:round;stroke-width:4px;stroke-dasharray:0,29"/><line x1="1.4" y1="53.8" x2="-61.2" y2="116.1" style="fill:none;stroke:#bcd1b4;stroke-linecap:round;stroke-linejoin:round;stroke-width:4px;stroke-dasharray:0,29"/><line x1="1.4" y1="30.2" x2="-84.9" y2="116.1" style="fill:none;stroke:#bcd1b4;stroke-linecap:round;stroke-linejoin:round;stroke-width:4px;stroke-dasharray:0,29"/><line x1="231.2" y1="115.9" x2="116.3" y2="231" style="fill:none;stroke:#bcd1b4;stroke-linecap:round;stroke-linejoin:round;stroke-width:4px;stroke-dasharray:0,29"/><line x1="199.8" y1="113.6" x2="113.5" y2="199.6" style="fill:none;stroke:#bcd1b4;stroke-linecap:round;stroke-linejoin:round;stroke-width:4px;stroke-dasharray:0,29"/><line x1="116.3" y1="115.9" x2="1.4" y2="231" style="fill:none;stroke:#bcd1b4;stroke-linecap:round;stroke-linejoin:round;stroke-width:4px;stroke-dasharray:0,29"/><line x1="53.7" y1="116.1" x2="1.7" y2="168.1" style="fill:none;stroke:#bcd1b4;stroke-linecap:round;stroke-linejoin:round;stroke-width:4px;stroke-dasharray:0,29"/><line x1="84.9" y1="113.6" x2="-1.4" y2="199.6" style="fill:none;stroke:#bcd1b4;stroke-linecap:round;stroke-linejoin:round;stroke-width:4px;stroke-dasharray:0,29"/><line x1="1.4" y1="115.9" x2="-113.5" y2="231" style="fill:none;stroke:#bcd1b4;stroke-linecap:round;stroke-linejoin:round;stroke-width:4px;stroke-dasharray:0,29"/></pattern></defs><g id="a1-4"><g id="floor-background"><polygon points="522.3 2839.3 522.3 3038 3773.5 3038 3773.5 2637.3 3857.1 2637.3 3857.7 2819.2 5438.8 2819.2 5438.8 0 2239.3 0 2239.3 1170.8 2194.9 1170.8 2194.9 901.2 0 901.2 0 2839.3 522.3 2839.3" style="fill:#f2f2f2;stroke:#b7b7b7;stroke-miterlimit:10;stroke-width:2px"/></g><g id="floor-wall"><rect x="903" y="2695.5" width="150.7" height="184.5" style="stroke:#b7b7b7;stroke-miterlimit:10;stroke-width:3px;fill:url(#SVGID_57_)"/><rect x="903" y="2166.8" width="150.1" height="216.7" style="stroke:#b7b7b7;stroke-miterlimit:10;stroke-width:3px;fill:url(#SVGID_57_)"/><rect x="2560.8" y="674.4" width="251.1" height="90.4" style="stroke:#b7b7b7;stroke-miterlimit:10;stroke-width:3px;fill:url(#SVGID_57_)"/><rect x="42.4" y="942.5" width="2111.4" height="348.9" style="stroke:#b7b7b7;stroke-miterlimit:10;stroke-width:3px;fill:url(#SVGID_57_)"/><rect x="3898.4" y="942.5" width="499.1" height="110" style="stroke:#b7b7b7;stroke-miterlimit:10;stroke-width:3px;fill:url(#SVGID_57_)"/><rect x="4851.1" y="942.5" width="410.2" height="110" style="stroke:#b7b7b7;stroke-miterlimit:10;stroke-width:3px;fill:url(#SVGID_57_)"/><rect x="3898.3" y="1311.5" width="1363" height="494.8" style="stroke:#b7b7b7;stroke-miterlimit:10;stroke-width:3px;fill:url(#SVGID_57_)"/><rect x="2938.8" y="1826.4" width="792.4" height="231.6" style="fill:#b7b7b7;stroke:#b7b7b7;stroke-miterlimit:10;stroke-width:3px"/><rect x="2417" y="1826.4" width="370.1" height="231.6" style="fill:#b7b7b7;stroke:#b7b7b7;stroke-miterlimit:10;stroke-width:3px"/><rect x="1859.9" y="1826.4" width="415.5" height="231.6" style="fill:#b7b7b7;stroke:#b7b7b7;stroke-miterlimit:10;stroke-width:3px"/><rect x="1073.2" y="1826.4" width="314" height="231.6" style="fill:#b7b7b7;stroke:#b7b7b7;stroke-miterlimit:10;stroke-width:3px"/><rect x="648.3" y="1826.4" width="294.9" height="231.6" style="fill:#b7b7b7;stroke:#b7b7b7;stroke-miterlimit:10;stroke-width:3px"/><polygon points="3377 2178.5 3421.5 2178.5 3434.2 2178.5 3441.5 2178.5 3441.5 2064.3 3421.5 2064.3 3421.5 2158.4 3377 2158.4 3377 2178.5" style="fill:#b7b7b7"/><polygon points="3226.9 2178.5 3243.8 2178.5 3288.2 2178.5 3288.2 2158.4 3243.8 2158.4 3243.8 2064.3 3223.8 2064.3 3223.8 2178.5 3226.9 2178.5" style="fill:#b7b7b7"/><polygon points="2807.2 2516.8 2787.1 2516.8 2787.1 2517.3 2676 2517.3 2676 2516.8 2655.6 2516.8 2655.6 2517.3 2649.5 2517.3 2649.5 2536.9 2787.1 2536.9 2787.1 2537.5 2787.1 2596.1 2787.1 2616.2 2787.1 2797 2787.1 2817.2 2787.1 2880 2787.1 2880.5 2417 2880.5 2417 2880 2416.5 2880 2416.5 2817.2 2417 2817.2 2417 2797 2416.5 2797 2416.5 2616.2 2417 2616.2 2417 2596.1 2416.5 2596.1 2416.5 2537.5 2417 2537.5 2417 2536.9 2544.9 2536.9 2544.9 2516.8 2527 2516.8 2527 2517.3 2416.5 2517.3 2416.5 2516.8 2396.9 2516.8 2396.9 2899.6 2809.2 2899.6 2809.2 2880 2807.2 2880 2807.2 2817.2 2809.2 2817.2 2809.2 2797 2807.2 2797 2807.2 2616.2 2809.2 2616.2 2809.2 2596.1 2807.2 2596.1 2807.2 2537.5 2809.2 2537.5 2809.2 2517.3 2807.2 2517.3 2807.2 2516.8" style="fill:#b7b7b7"/><polygon points="4326.7 492 4397.3 492 4397.3 492 4417.4 492 4417.4 492 4528.5 492 4528.5 492 4548.7 492 4548.7 492 4548.7 471.9 4548.7 227.7 4548.7 207.7 4471.5 207.7 4471.5 227.3 4528.5 227.3 4528.5 227.7 4528.5 471.9 4528.5 472 4326.7 472 4326.7 471.9 4326.7 227.7 4326.7 227.3 4383.7 227.3 4383.7 207.7 4306.6 207.7 4306.6 227.7 4306.6 471.9 4306.6 492 4306.6 492 4326.7 492" style="fill:#b7b7b7"/><path d="M770.9,2384H648.2V2166.3h74.1v.6h20v-.6H883v40.1h0v20.2h0v30.1h0v20.1h0V2384H854.4v19.6h218.9V2146.7H628.1v256.9H770.9V2384ZM903,2166.9h0l.1-.6h150V2384h-150v-.4H903Z" style="fill:#b7b7b7"/><path d="M1073.2,2517.4H1031v19.5h23.2v138.6h-.1v.4h-151v-.4H903V2536.9h23.2v-19.5H903.1v-.5H882.9v.5H742.3v-.5h-20v.5h-8.5v20.1h8.5v.6h.1v259h-8.5v20.1H742V2538h.5v-.6H883.2v.6h2.6v342h-2.6v.2H788v.4H648.2v-63.4h7.4v-20.1h-7.4V2537.5h7.4v-20.1h-7.4v-.5H628.1v382.7h445.2V2517.4Zm-19.1,279.7h-.4v20.3h.4v62.8H903V2695.6h150.7v.6h.4Z" style="fill:#b7b7b7"/><polygon points="3173 492 3324.2 492 3324.2 492 3344.3 492 3344.3 492 3420.3 492 3420.3 492 3440.4 492 3440.4 492 3493.4 492 3493.4 492 3513.4 492 3576.3 492 3794.4 492 3731.6 492 3751.7 492 3751.7 492 3878.2 492 3878.2 492 3898.2 492 3898.2 492 4126.8 492 4126.8 471.9 4126.8 227.7 4126.8 207.7 3941 207.7 3941 227.3 4106.7 227.3 4106.7 227.7 4106.7 471.9 4106.7 474.1 3697.9 474.1 3697.9 471.9 3697.9 227.7 3697.9 227.3 3853.3 227.3 3853.3 207.7 3751.7 207.7 3634.4 207.7 3634.4 227.3 3677.8 227.3 3677.8 227.7 3677.8 471.9 3677.8 472 3440.5 472 3440.5 471.9 3440.4 471.9 3440.4 388.9 3440.5 388.9 3440.5 306 3440.4 306 3440.4 227.7 3440.5 227.7 3440.5 227.3 3483.9 227.3 3483.9 207.7 3440.4 207.7 3440.4 207.2 3420.3 207.2 3420.3 207.7 3344.3 207.7 3344.3 207.2 3336.9 207.2 3336.9 227.3 3420.4 227.3 3420.4 472 3173 472 3173 471.9 3173 388.9 3173 306 3173 227.7 3173 227.3 3249.2 227.3 3249.2 207.7 3173 207.7 3173 207.2 3152.9 207.2 3152.9 207.7 3152.9 227.7 3152.9 471.9 3152.9 492 3152.9 492 3173 492" style="fill:#b7b7b7"/><polygon points="1761.4 2350.9 1761.4 2330.7 1716.1 2330.7 1716.1 2276.8 1716.1 2256.7 1716.1 2166.9 1716.1 2166.3 1839.4 2166.3 1839.4 2166.9 1859.5 2166.9 1859.5 2166.3 1915.8 2166.3 1915.8 2166.9 1915.8 2256.7 1915.8 2276.8 1915.8 2330.7 1866.1 2330.7 1866.1 2350.9 1915.8 2350.9 1935.9 2350.9 1995.1 2350.9 1995.1 2330.7 1935.9 2330.7 1935.9 2276.8 1935.9 2256.7 1935.9 2166.9 1935.9 2166.3 2032.1 2166.3 2032.1 2166.9 2052.2 2166.9 2052.2 2166.3 2154.2 2166.3 2154.2 2256.7 2153.8 2256.7 2153.8 2276.8 2154.2 2276.8 2154.2 2330.7 2153.8 2330.7 2099.8 2330.7 2099.8 2350.9 2154.2 2350.9 2174.2 2350.9 2233 2350.9 2233 2330.7 2174.2 2330.7 2173.9 2330.7 2173.9 2166.9 2174.2 2166.9 2174.2 2166.3 2275.4 2166.3 2275.4 2166.9 2295.4 2166.9 2295.4 2166.3 2396.5 2166.3 2396.5 2166.9 2396.9 2166.9 2396.9 2330.7 2396.5 2330.7 2337.7 2330.7 2337.7 2350.9 2396.5 2350.9 2416.5 2350.9 2442.4 2350.9 2442.4 2330.7 2417 2330.7 2416.5 2330.7 2416.5 2276.8 2417 2276.8 2417 2256.7 2416.5 2256.7 2416.5 2166.3 2527 2166.3 2527 2166.9 2527 2256.7 2527 2276.8 2527 2330.7 2500.5 2330.7 2500.5 2350.9 2527 2350.9 2527 2384 2527 2403.7 2603.1 2403.7 2603.1 2384 2547.1 2384 2547.1 2383.6 2547.1 2350.9 2547.1 2330.7 2547.1 2276.8 2547.1 2256.7 2547.1 2166.9 2547.1 2166.3 2655.6 2166.3 2655.6 2166.9 2676 2166.9 2676 2166.3 2787.1 2166.3 2787.1 2166.9 2787.1 2256.7 2787.1 2276.8 2787.1 2330.7 2787.1 2350.9 2787.1 2383.6 2787.1 2384 2707.8 2384 2707.8 2403.7 2809.2 2403.7 2809.2 2384 2807.2 2384 2807.2 2276.8 2809.2 2276.8 2809.2 2256.7 2807.2 2256.7 2807.2 2166.3 2809.2 2166.3 2809.2 2146.7 1696 2146.7 1696 2166.3 1696 2256.7 1696 2276.8 1696 2330.7 1696 2350.9 1716.1 2350.9 1761.4 2350.9" style="fill:#b7b7b7"/><polygon points="1248.7 2384 1166 2384 1166 2350.9 1166.3 2350.9 1166.3 2330.7 1166 2330.7 1166 2276.8 1166.3 2276.8 1166.3 2256.7 1166 2256.7 1166 2166.3 1285.7 2166.3 1285.7 2166.9 1305.9 2166.9 1305.9 2166.3 1387.1 2166.3 1387.1 2166.9 1407.2 2166.9 1407.2 2166.3 1459.2 2166.3 1459.2 2166.9 1459.2 2226.1 1459.2 2256.7 1459.2 2276.8 1459.2 2330.7 1459.2 2350.9 1459.2 2383.6 1459.2 2384 1407.2 2384 1407.2 2383.6 1387.1 2383.6 1387.1 2384 1353.4 2384 1353.4 2403.7 1481.3 2403.7 1481.3 2384 1481.3 2350.9 1520.3 2350.9 1520.3 2330.7 1481.3 2330.7 1481.3 2276.8 1481.3 2256.7 1481.3 2226.1 1481.3 2166.9 1481.3 2166.3 1543.7 2166.3 1543.7 2166.9 1565.9 2166.9 1565.9 2166.3 1618.3 2166.3 1618.3 2166.9 1618.8 2166.9 1618.8 2330.7 1618.3 2330.7 1578.6 2330.7 1578.6 2350.9 1618.3 2350.9 1638.4 2350.9 1638.8 2350.9 1638.8 2330.7 1638.4 2330.7 1638.4 2276.8 1638.8 2276.8 1638.8 2256.7 1638.4 2256.7 1638.4 2166.3 1638.8 2166.3 1638.8 2146.7 1146.2 2146.7 1146.2 2403.7 1248.7 2403.7 1248.7 2384" style="fill:#b7b7b7"/><path d="M4591,715.9V654.1H4417.4v-.2h-20.1v.2H4075V674h322.5v31.7h19.9V674.3h.2V674H4571V922.5H4417.6V922h-.2V889.6h-19.9v32.8H3878.3v130h-21.2v20h21.2v70.9h20v-70.8h739.2v-19.9H4417.3V942.2h153.5v.2h20.1v-.2h48.6V922.4H4591Zm-193.5,336.6H3898.3V942.2h499v.2h.2Z" style="fill:#b7b7b7"/><path d="M3886.7,653.9h-8.4v.2H3751.7v-.2h-20v.2H3440.5v-.2h-20.1v.2h-93V674h91.4v.2h1.5V922h-1.5v.9H3166.6V674h73.1V654.1H3127.5v20.1h23.3v18.2l-2.1,107.8V922.9H2832.1V922h-.6V674.2h208.3V654.1h-27V616.9h-19.5v37h-.5v.2H2751.3v-.2h-20.1v.2H2657V616.9h-20.1v37.2h-74.5v-.2h-20.1v.2H2418.9V585.2H2399V654h-.2v.2H2381V674h18V818.8h19.9V782.4h.3v-20h-.3V674.2h122v.8h1.4v23.3h.6v85.1h268.6V923H2419.2v-1h-.3V906.5H2399v15.9h-18v19.8h17.8v.2h20v-.2h244v.2h20v-.2h48.3v.2h20.1v-.2h61.2v.2h19v-.2h235.3v.2h20.1v-.2h63.9v.2h15.8v-.2h253.7v.2h20.1v-.2h291.2v11.9h19.7V923.5h-69.7v-1H3440.4V922h-.1V674.2h.1V674h446.1ZM2811.9,764.8h-.5v.5l-56.3-.5H2560.9V674.5h.1v-.3h170.2v.3h20.1v-.3h60.2v.3h.5v90.3Z" style="fill:#b7b7b7"/><polygon points="2418.8 492 2542.3 492 2542.3 492 2562.4 492 2562.4 492 2636.8 492 2636.8 492 2636.8 529 2657 529 2657 492 2657 492 2731.1 492 2731.1 492 2751.2 492 2751.2 492 2809.2 492 2809.2 492 2829.4 492 2829.4 492 2992.7 492 2992.7 492 2993.2 492 2993.2 529 3012.8 529 3012.8 492 3013.3 492 3013.3 471.9 3012.8 471.9 3012.8 227.7 3013.3 227.7 3013.3 207.7 3012.8 207.7 3012.8 207.2 2992.7 207.2 2992.7 207.7 2955.1 207.7 2955.1 227.3 2993.2 227.3 2993.2 472 2829.4 472 2829.4 471.9 2829.4 406.5 2829.4 386.3 2829.4 227.7 2829.4 227.3 2867.4 227.3 2867.4 207.7 2829.4 207.7 2829.4 207.2 2809.2 207.2 2809.2 207.7 2776.5 207.7 2776.5 227.3 2809.2 227.3 2809.2 227.7 2809.2 386.3 2809.2 406.5 2809.2 471.9 2809.2 472 2657 472 2657 471.9 2657 406.5 2657 386.3 2657 227.7 2657 227.3 2688.7 227.3 2688.7 207.7 2562.4 207.7 2562.4 207.2 2560.8 207.2 2560.8 227.3 2636.8 227.3 2636.8 227.7 2636.8 386.3 2636.8 406.5 2636.8 471.9 2636.8 472 2419.2 472 2419.2 471.9 2418.8 471.9 2418.8 406.5 2419.2 406.5 2419.2 386.3 2418.8 386.3 2418.8 227.7 2419.2 227.7 2419.2 227.3 2473 227.3 2473 207.7 2418.8 207.7 2418.8 207.2 2399 207.2 2399 406.5 2399 506.8 2418.8 506.8 2418.8 492" style="fill:#b7b7b7"/><polygon points="4851.1 492 4851.1 492 4972 492 4972 492 4992 492 4992 492 5042.4 492 5042.4 492 5042.4 531.1 5062.5 531.1 5062.5 492 5062.5 492 5261.1 492 5261.1 492 5281.3 492 5281.3 492 5281.3 492 5281.3 471.9 5281.3 471.9 5281.3 227.7 5281.3 227.7 5281.3 207.7 5281.3 207.7 5281.3 207.2 5261.1 207.2 5261.1 207.7 5205.2 207.7 5205.2 227.3 5261.2 227.3 5261.2 471.4 5261.1 471.4 5261.1 471.9 5109.1 471.9 5109.1 471.4 5088.9 471.4 5088.9 471.9 5062.5 471.9 5062.5 471.4 5062.5 227.7 5062.5 227.3 5117.4 227.3 5117.4 207.7 4992 207.7 4992 207.2 4990.6 207.2 4990.6 227.3 5042.4 227.3 5042.4 227.7 5042.4 471.4 5042.4 471.9 4992 471.9 4992 471.4 4972 471.4 4972 471.9 4851.1 471.9 4851.1 471.4 4851.1 227.7 4851.1 227.3 4902.8 227.3 4902.8 207.7 4832 207.7 4832 531.1 4851.1 531.1 4851.1 492" style="fill:#b7b7b7"/><polygon points="1638.8 2880 1638.4 2880 1638.4 2817.2 1638.8 2817.2 1638.8 2797 1638.4 2797 1638.4 2655.9 1638.8 2655.9 1638.8 2635.7 1638.4 2635.7 1638.4 2616.2 1638.8 2616.2 1638.8 2596.1 1582.8 2596.1 1582.8 2613.1 1618.8 2613.1 1618.8 2880.5 1481.3 2880.5 1481.3 2880 1481.3 2817.2 1481.3 2797 1481.3 2616.2 1481.3 2613.1 1524.7 2613.1 1524.7 2596.1 1481.3 2596.1 1481.3 2596.1 1481.3 2537.5 1481.3 2517.3 1407.2 2517.3 1407.2 2516.8 1387.1 2516.8 1387.1 2517.3 1353.4 2517.3 1353.4 2536.9 1459.2 2536.9 1459.2 2537.5 1459.2 2596.1 1459.2 2616.2 1459.2 2797 1459.2 2817.2 1459.2 2880 1459.2 2880.5 1305.9 2880.5 1305.9 2880 1305.8 2880 1305.8 2817.2 1305.9 2817.2 1305.9 2797 1305.8 2797 1305.8 2644.8 1285.7 2644.8 1285.7 2880.5 1166.3 2880.5 1166.3 2880 1166 2880 1166 2817.2 1166.3 2817.2 1166.3 2797 1166 2797 1166 2616.2 1166.3 2616.2 1166.3 2596.1 1166 2596.1 1166 2537.5 1166.3 2537.5 1166.3 2536.9 1248.7 2536.9 1248.7 2517.3 1166 2517.3 1166 2516.8 1146.2 2516.8 1146.2 2899.6 1638.8 2899.6 1638.8 2880" style="fill:#b7b7b7"/><polygon points="2275.4 2517.3 2174.2 2517.3 2174.2 2516.8 2169.6 2516.8 2169.6 2538 2174.2 2538 2174.2 2537.5 2275.4 2537.5 2275.4 2538 2275.4 2596.1 2275.4 2616.2 2275.4 2797 2275.4 2817.2 2275.4 2880 2275.4 2880.5 2054.4 2880.5 2054.4 2880 2052.2 2880 2052.2 2817.2 2054.4 2817.2 2054.4 2797 2052.2 2797 2052.2 2616.2 2054.4 2616.2 2054.4 2596.1 2052.2 2596.1 2052.2 2537.5 2064.9 2537.5 2064.9 2517.3 2052.2 2517.3 2052.2 2516.8 2032.1 2516.8 2032.1 2517.3 2020.5 2517.3 2020.5 2537.5 2032.1 2537.5 2032.1 2538 2032.1 2596.1 2032.1 2616.2 2032.1 2797 2032.1 2817.2 2032.1 2880 2032.1 2880.5 1859.8 2880.5 1859.8 2880 1859.5 2880 1859.5 2817.2 1859.8 2817.2 1859.8 2797 1859.5 2797 1859.5 2616.2 1859.8 2616.2 1859.8 2596.1 1859.5 2596.1 1859.5 2537.5 1915.8 2537.5 1915.8 2517.3 1859.5 2517.3 1859.5 2516.8 1839.6 2516.8 1839.6 2827.6 1839.6 2899.6 2295.4 2899.6 2295.4 2880 2295.4 2817.2 2295.4 2797 2295.4 2616.2 2295.4 2596.1 2295.4 2537.5 2295.4 2517.3 2295.4 2516.8 2275.4 2516.8 2275.4 2517.3" style="fill:#b7b7b7"/><path d="M4831,1072.5v218.9H3898.4v-63.7h-20V2403.6h20v-90.8h424.1V2058.2h-77.9v19.9h55.7v215.1H4108.8V2078.1h52.6v-19.9H4034.1v19.9h52.6v215.1H3898.4V2078.1h52.5v-19.9h-52.5V1826h499v.5h.2v486.4h20v-19.6h-.2v-215h.2v-20h-.2v-72.7h.2v-20.1h-.2V1826h71v.5h20.1v-.5h30.7v.5h20v-.5h130.5v80.8h19.6v-80.4h.4v-.5H4832v.5h20.1v-.5H4972v139.5h-.5v20.1h.5v72.7H4852.1v-.3H4832v.3H4709.7v-.3h-.4v-46.4h-19.6v46.8H4559.2v-.3h-20v.3h-30.7v-.3h-20.1v84.7h20.1v-64.5h180.8v.2h.4v215h-.4v.6H4508.5v-46.5h-20.1v65.6H4795V2294h-85.7V2078.3h262.3v.2h.5v215h-.5v.6h-71.9v19.1h173.4v-19.1h-81.4V2078.4h269.6v215.7h-83.5v19.1h103.7v-19.6h-.1v-215h.1v-20h-.1v-54.2h-20v53.9h-.1v.3H5066.8v-.3h-20v.3h-54.6v-.3h-.4V1826.8h.4v-.5h54.6v.5h20v-.5h194.5v.5h.1v72.9h20V1826h.1v-20.1h-.1V1563.6h.1v-20.1h-.1V1311.2h.1v-20.1h-.1v-65.4h-20v65.8H4851V1072.6h410.3v68.7h20v-68.7h.1v-20.1h-.1V942.2h22.4V922.4h-22.3V922h-.1V841.7h-20v80.7H4851V674h410.3v83.5h20V674.3h.1V674h18.1V654.1h-18.2v-.2h-20.1v.2H5062.4V619h-20v35.1H4992v-.2h-20v.2H4851V619h-19v35h-1V922.5h-43.4v19.8H4831v110.2h-45.5v20Zm20.1-20.1V942.2h55v.2h19.1v-.2h47v.2h20v-.2h269.1v.2h.1v110Zm16.9,259.1v-.3h104.1v.3h20v-.3h269.1v.3h.1v494.8h-1363v-59.2h-.5V1563.6h.5v-20.1h-.5V1349.6h.5v-38.4h499v.3h20.1v-.3H4609v.3Z" style="fill:#b7b7b7"/><path d="M.6,2838.7l521.8-.5v199.4l3250.4,1.1.6-401.3h83.8v200.8l1585.5.3V560.9L5441.4.5H2235.9l-.6,1170.5h-39.8V901H.6ZM41.8,1212.1h.6V1192h-.6V942.1H188.7v.3h20.2v-.3H334.4v.3h20.1v-.3H432v.3h20v-.3h91.5v.3h20v-.3H722.1v.3h20v-.3H882.8v.3H903v-.3h109v.3h20v-.3h113.9v.3h20.2v-.3h97.5v.3h20.1v-.3h103.4v.3h20.1v-.3h99.6v.3h20v-.3h91.5v.3h20.1v-.3h201.2v.3h20v-.3h142v.3h20v-.3h132.6V1192h-.4v20.2h.4v78.9h-.4v.3H42.4v-.3h-.6Zm0,351.5h.6v-20.1h-.6V1311.2H334.4v3.5h20.1v-3.5h189v3.5h20v-3.5H722.1v3.5h20v-3.5H882.8v3.5H903v-3.5h242.7v3.5h20.2v-3.5h221v3.5H1407v-3.5h211.1v3.5h20.1v-3.5h201.2v3.5h20v-3.5H2154v3.5h20v-3.5h11.3v-20.1H2174v-78.9h82.3v78.9h-12.9v20.1h152.9v3.5h20.1v-3.5h239.1v3.5h20.1v-3.5h242.3v3.5H2938v-3.5h382.2v3.5h20.1v-3.5h79.8v3.5h20.1v-3.5h162.5v3.5h20v-3.5h108.7v3.5h.2v491.6H2917.9v251.6h-.2v.3H2806.9V1806.3H2396.6v251.6h-.4v.3h-101V1806.3H1838.4v19.6h.9v130h-.9v20.2h.9v82.1H1716v-.3h-20.1v.3h-57.5v-.3h-20.1v.3H1407.2v-82.1h.2v-20.2h-.2v-130h.2v-19.6H1054.2v251.6h-1v.3H963.3V1806.3H628v251.9H563.5v-82.1h1v-20.2h-1v-130h1v-19.6H42.5v-.5h-.6V1563.6Zm3689.8,412.9v81.7H3622.9v-.3h-20v.3H3440.4v-.3h-20.1v.3h-79.8v-.3h-20.1v.3H2938.1v-81.7h.7v-20h-.7V1826h382.3v.5h20.1v-.5h79.8v.5h20.1v-.5h162.5v.5h20v-.5h108.7v130.5h-.3v20Zm-1075.9,81.4v.3H2547.1v-.3H2527v.3H2416.6v-82.1h.5v-20.2h-.5v-130H2527v.5h20.1v-.5h108.6v.5h20.4v-.5h111v232.3h-111v-.3Zm-501.5,0v.3h-102v-.3h-20v.3H1936v-.3h-20.1v.3h-56.3v-82.1h.3v-20.2h-.3v-130h56.3v.5H1936v-.5h96.2v.5h20v-.5h102v.5h20v-.5h101.2v232.3H2174.2v-.3Zm-868.5,0v.3H1166v-.3h-20.2v.3h-72.6V1826h72.6v.5H1166v-.5h119.7v.5h20.1v-.5H1387v.5h.2V2058h-.2v.3h-81.2v-.3h-20.1Zm-402.8,0v.3H742.3v-.3h-20v.3H648.2V1826h74.1v.5h20v-.5H883v.5h20.2v-.5h40.1v232.3H903.2v-.3H882.9ZM41.8,2616.2h.6v-20h-.6v-58.6h.6v-20.1h-.6V2404.3h.6V2384h-.6V2276.8h.6v-20.1h-.6V2078.2h.6v-20h-.6V1826H334.4v.5h20.1v-.5h82.7v.5h20.1v-.5h86.2v577.7h20V2078.1H2918.1v325.6h359.6V2384h-33.4v-.4h-.6v-22.3h-19.6V2384H3078.2v-.4h-20.1v.4H2937.9V2276.8h120.2v1h20.1v-1h145.9v26.4h19.6v-26.4h33.9v-20.1H2938v-.6h-.3V2078.5h.3v-.3h382.3v.3h20.1v-.3h79.8v.3h20.1v-.3h162.5v178.5H3440.3v-.6h-20.1v.6h-38v20.1h38.1v26.4h20v-26.4h.6v-1.7h161.7v1.7h.1V2384H3440.2v-22.7h-20v22.3h-.1v.4h-36.9v19.6h36.9v10.6h20v-10.1h.1v-.5h182.9V2384h-.5V2276.8h25.9v-20.1h-25.9V2078.2h.5v-.2h108.4v177.6h-.2v1H3707v20.1h44.4V1072.5h21.4v-19.9h-21.4v-14h-19.7v14H3632v20h99.7V1192h-.3v20.1h.3v79h-.3v.3H3440.6v-.3h-.1v-79h.1V1192h-.1V1072.5h107.1v-20H3301v20h119.5v218.9H3087.4v-.3h-.5v-79h.5V1192h-.5V1072.5h129.7v-20H2951.8v20h115.5v218.9H2751.2V1072.5h116.3v-19.9H2553.4v19.9h177.8V1192h-.2v20.1h.2v79h-.2v.3H2276.4V1072.5h189.2v-19.9H2276.4v-110h.2v-.2h16.8V922.6h-16.9V674h16.9V654.1h-16.8v-.2h-.2V41.3l3124.5.4h.4v75.7h-.4v20.1h.4v70.1h-.4v20.1h.4V472h-.4v20h.4v68.8h-.4v20h.4V654H5384v20h16.9v.2h.4V922h-.4v.4h-12.7v19.8h13.1v110.2h-.4v20.1h.4V1192h-.4v20.1h.4v79h-.4v20.1h.4v232.3h-.4v20.1h.4v210h.6v104.7h-.6v87.1h-.4v20.1h.4v72.7h-.4v20h.4v215h-.4v20.1h.4V2384h-.4v20.1h.4v85.2h-.4v20.1h.4v86.7h-.4v20h.4v78.8h-.4V2715h.4v81.2h-.4v.7H5281.4v-.7h-.1v-.4h-20.1v.4H5066.7v-.4h-20v.4h-54.6v-.4h-20v.4H4852.2v-.4H4832v.4H4709.7v-.4h-20v.4H4559.2v-.4h-20v.4h-30.7v-.4h-20.1v.4h-71v-.4h-20.1v.4h-74.8v-.4h-22.2v.4h-30.6v-.4h-20.1v.4H3897.9V2715h.5v-20h-.5v-78.8h.5v-98.3h-20v78.2H3721.8v19.6h11.1V2796h-1.2v1.1h-9.9v20.1h11.1v177.6h-1.5v.5H3623v-.6h-20v.6H3440V2536.5h162.9v1.1h.1v58.6h-.1v20h.1V2797h-.1v20.1h31.2V2797H3623V2616.1h1v-.5h10.1V2596H3623v-58.6h.5v-19.6H3440.6v-.5h-.1v-6.9h-20v6.4h-.1v.5h-79.8v-.5h-20.1v.5H3049.4v19.5h6.4v27.5h21.1v-27.5h343.6v458.9H3076.9V2658.4h-21.1v32.3h-27.5v20.6h27.5v283.8H2938.3V2817h.1v-20.1h-.1v-85.1h.1v-.5h27.5v-20.6h-27.6V2616h.1v-20h-.1v-58.6h.1v-.6h6.4v-19.5h-6.5v-.5h-19.9v477.9h-.2v.5H2807.4v-.5h-20.1v.5h-111v-.5h-20.4v.5H2547.3v-.4H2527v.4H2416.6v-.4h-20.1v.4h-101v-.4h-20.1v.3H2174.2v-.3h-20v.3h-102v-.3h-20v.3H1936v-.3h-20.1v.3h-56.3v-.3h-20v.3H1716.2v-.3H1696v.3h-57.5v-.2h-20.1v.2H1407.3v-.2h-20.1v.2H1306v-.2h-20.1v.2H1166v-.2h-20.2v.2h-71.6v-.2H1054v.2H563.6V2518.2h-20V2797H41.8Z" style="fill:#b7b7b7"/><g style="opacity:0.41999998688697815"><path d="M3560.1,2402.7h14.4v59.5h-14.4Zm12.3,2h-10.2v55.4h10.2Z" style="fill:#b7b7b7"/><path d="M3560.1,2459.5h14.4V2519h-14.4Zm12.3,2h-10.2v55.4h10.2Z" style="fill:#b7b7b7"/><path d="M3572.4,2402.7h14.4v59.5h-14.4Zm12.3,2h-10.2v55.4h10.2Z" style="fill:#b7b7b7"/><path d="M3572.4,2459.5h14.4V2519h-14.4Zm12.3,2h-10.2v55.4h10.2Z" style="fill:#b7b7b7"/><path d="M3584.7,2402.7h14.4v59.5h-14.4Zm12.4,2h-10.3v55.4h10.3Z" style="fill:#b7b7b7"/><path d="M3584.7,2459.5h14.4V2519h-14.4Zm12.4,2h-10.3v55.4h10.3Z" style="fill:#b7b7b7"/><path d="M3597.1,2402.7h14.4v59.5h-14.4Zm12.4,2h-10.3v55.4h10.3Z" style="fill:#b7b7b7"/><path d="M3597.1,2459.5h14.4V2519h-14.4Zm12.4,2h-10.3v55.4h10.3Z" style="fill:#b7b7b7"/><path d="M3609.5,2402.7h14.4v59.5h-14.4Zm12.2,2h-10.3v55.4h10.3Z" style="fill:#b7b7b7"/><path d="M3609.5,2459.5h14.4V2519h-14.4Zm12.2,2h-10.3v55.4h10.3Z" style="fill:#b7b7b7"/><path d="M3547.7,2402.7h14.4v59.5h-14.4Zm12.4,2h-10.2v55.4h10.2Z" style="fill:#b7b7b7"/><path d="M3547.7,2459.5h14.4V2519h-14.4Zm12.4,2h-10.2v55.4h10.2Z" style="fill:#b7b7b7"/><path d="M3535.3,2402.7h14.5v59.5h-14.5Zm12.4,2h-10.1v55.4h10.1Z" style="fill:#b7b7b7"/><path d="M3535.3,2459.5h14.5V2519h-14.5Zm12.4,2h-10.1v55.4h10.1Z" style="fill:#b7b7b7"/><rect x="3513.31" y="2431.57" width="58.4" height="2.2" transform="translate(416.22 5381.16) rotate(-77.8)" style="fill:#b7b7b7"/><rect x="3540.91" y="2460.37" width="2.2" height="58.4" transform="translate(-446.08 804.66) rotate(-12.2)" style="fill:#b7b7b7"/></g><path d="M2214.2,1310.7h43.2v-22.5h-83.5v22.5Zm2.7-20.1,26.7,4.4h-26.7Zm-2.7,4.4h-26.7l26.7-4.4Zm41.1,13.6h-38.4v-4.7h38.4Zm0-6.7h-38.4v-4.7h38.4Zm0-7-26.8-4.5h26.8Zm-52.6-4.5-26.7,4.5v-4.5Zm-26.7,6.8h38.2v4.7H2176Zm38.2,6.7v4.7H2176v-4.7Z" style="fill:#b7b7b7"/><polygon id="room-box" points="564.6 1806.3 564.6 2057.9 628.1 2057.9 628.1 1806.3 963.2 1806.3 963.2 2057.9 1054.2 2057.9 1054.2 1806.3 1407.3 1806.3 1407.3 2057.9 1838.6 2057.9 1838.6 1806.3 2295.4 1806.3 2295.4 2057.9 2396.9 2057.9 2396.9 1806.3 2807.2 1806.3 2807.2 2057.9 2918.2 2057.9 2918.2 1806.3 3731.9 1806.3 3731.9 1311.4 42.5 1311.4 42.5 1806.3 564.6 1806.3" style="stroke:#f0f3f3;stroke-miterlimit:10;fill:url(#room-box_8_)"/><rect id="room-box-2" x="3244.3" y="2178.5" width="176.6" height="205.9" style="fill:#f2f2f2"/><polygon id="room-box-3" points="3751.3 2596.1 3814.8 2596.1 3878.2 2596.1 3878.8 2596.1 3878.8 2312.8 3878.2 2312.8 3878.2 2057.9 3878.8 2057.9 3878.8 1826.4 3878.2 1826.4 3878.2 1072.5 3751.3 1072.5 3751.3 2276.8 3623.4 2276.8 3623.4 2596.1 3751.3 2596.1" style="fill:#f2f2f2"/><polygon id="room-box-4" points="3878.2 1052.5 3878.2 922.9 3856.5 922.9 3771.9 922.9 3751.3 922.9 3751.3 1052.5 3878.2 1052.5" style="fill:#f2f2f2"/><polygon points="564.9 1806.2 564.9 2058.2 3731.2 2058.2 3731.2 1307.8 698.7 1307.8 564.9 1307.8 41.7 1307.8 41.7 1806.2 564.9 1806.2" style="stroke:#b7b7b7;stroke-miterlimit:10;fill:url(#SVGID_64_)"/><rect x="1259.7" y="2536.9" width="74.6" height="108" style="fill:#ddd"/></g><g id="floor-rooms"><g class="clickable" id="A1-4-02-A" data-name="customclass A1-4-02-A"><rect id="a" x="3419.9" y="2275.2" width="182.9" height="108.4" style="fill:#f2f2f2"/></g><g class="clickable" id="A1-4-01" data-name="customclass A1-4-01"><polygon id="room-box-6" points="3602.8 2995.2 3602.8 2994.7 3601.7 2994.7 3601.7 2817.2 3602.8 2817.2 3602.8 2536.4 3439.9 2536.4 3439.9 2995.2 3602.8 2995.2" style="fill:#f2f2f2"/><g id="scale" style="opacity:0.4000000059604645"><line x1="3602.8" y1="2536.9" x2="3440.5" y2="2536.9" style="fill:none;stroke:#b7b7b7;stroke-miterlimit:10;stroke-width:4px"/><polyline points="3440.5 2536.9 3440.5 2817.1 3513.7 2817.1 3513.7 2630 3531.3 2630 3531.3 2817.1 3602.8 2817.1 3602.8 2536.9" style="fill:none;stroke:#b7b7b7;stroke-miterlimit:10;stroke-width:4px"/><polyline points="3475.8 2816.7 3475.8 2591.5 3565.9 2591.5 3565.9 2816.9" style="fill:none;stroke:#b7b7b7;stroke-miterlimit:10;stroke-width:4px"/><line x1="3439.9" y1="2666.5" x2="3514.3" y2="2666.5" style="fill:none;stroke:#b7b7b7;stroke-miterlimit:10;stroke-width:4px"/><line x1="3439.9" y1="2649.1" x2="3514.3" y2="2649.1" style="fill:none;stroke:#b7b7b7;stroke-miterlimit:10;stroke-width:4px"/><line x1="3439.9" y1="2632.6" x2="3514.3" y2="2632.6" style="fill:none;stroke:#b7b7b7;stroke-miterlimit:10;stroke-width:4px"/><line x1="3514.3" y1="2683.5" x2="3439.9" y2="2683.5" style="fill:none;stroke:#b7b7b7;stroke-miterlimit:10;stroke-width:4px"/><line x1="3531.3" y1="2632.6" x2="3602.8" y2="2632.6" style="fill:none;stroke:#b7b7b7;stroke-miterlimit:10;stroke-width:4px"/><line x1="3531.3" y1="2649.1" x2="3602.8" y2="2649.1" style="fill:none;stroke:#b7b7b7;stroke-miterlimit:10;stroke-width:4px"/><line x1="3531.3" y1="2666.5" x2="3602.8" y2="2666.5" style="fill:none;stroke:#b7b7b7;stroke-miterlimit:10;stroke-width:4px"/><line x1="3531.3" y1="2683.5" x2="3602.8" y2="2683.5" style="fill:none;stroke:#b7b7b7;stroke-miterlimit:10;stroke-width:4px"/><line x1="3531.3" y1="2700.4" x2="3602.8" y2="2700.4" style="fill:none;stroke:#b7b7b7;stroke-miterlimit:10;stroke-width:4px"/><line x1="3531.3" y1="2717" x2="3602.8" y2="2717" style="fill:none;stroke:#b7b7b7;stroke-miterlimit:10;stroke-width:4px"/><line x1="3531.3" y1="2733.6" x2="3602.8" y2="2733.6" style="fill:none;stroke:#b7b7b7;stroke-miterlimit:10;stroke-width:4px"/><line x1="3531.3" y1="2784.6" x2="3602.8" y2="2784.6" style="fill:none;stroke:#b7b7b7;stroke-miterlimit:10;stroke-width:4px"/><line x1="3531.3" y1="2800.6" x2="3602.8" y2="2800.6" style="fill:none;stroke:#b7b7b7;stroke-miterlimit:10;stroke-width:4px"/><polyline points="3602.8 2802 3566 2817.3 3531.7 2801.6" style="fill:none;stroke:#b7b7b7;stroke-miterlimit:10;stroke-width:4px"/><polyline points="3531.3 2801.1 3531.3 2819.9 3513.5 2819.9 3513.5 2767" style="fill:none;stroke:#b7b7b7;stroke-miterlimit:10;stroke-width:4px"/><line x1="3439.9" y1="2750.3" x2="3514.3" y2="2750.3" style="fill:none;stroke:#b7b7b7;stroke-miterlimit:10;stroke-width:4px"/><line x1="3439.9" y1="2716.8" x2="3514.3" y2="2716.8" style="fill:none;stroke:#b7b7b7;stroke-miterlimit:10;stroke-width:4px"/><line x1="3439.9" y1="2733.5" x2="3514.3" y2="2733.5" style="fill:none;stroke:#b7b7b7;stroke-miterlimit:10;stroke-width:4px"/><line x1="3439.9" y1="2700" x2="3514.3" y2="2700" style="fill:none;stroke:#b7b7b7;stroke-miterlimit:10;stroke-width:4px"/><line x1="3439.9" y1="2767.1" x2="3514.3" y2="2767.1" style="fill:none;stroke:#b7b7b7;stroke-miterlimit:10;stroke-width:4px"/><line x1="3439.9" y1="2783.8" x2="3514.3" y2="2783.8" style="fill:none;stroke:#b7b7b7;stroke-miterlimit:10;stroke-width:4px"/><line x1="3439.9" y1="2800.6" x2="3514.3" y2="2800.6" style="fill:none;stroke:#b7b7b7;stroke-miterlimit:10;stroke-width:4px"/><line x1="3531.3" y1="2750.1" x2="3602.8" y2="2750.1" style="fill:none;stroke:#b7b7b7;stroke-miterlimit:10;stroke-width:4px"/><line x1="3531.3" y1="2767.3" x2="3602.8" y2="2767.3" style="fill:none;stroke:#b7b7b7;stroke-miterlimit:10;stroke-width:4px"/></g></g><g class="clickable" id="A1-4-09-A" data-name="customclass A1-4-09-A"><rect id="a-2" x="903" y="2516.3" width="151.1" height="159.1" style="fill:#f2f2f2"/></g><g class="clickable" id="A1-4-08" data-name="customclass A1-4-08"><polygon id="room-box-8" points="741.2 2880.5 787.7 2880.5 787.7 2879.9 885.6 2879.9 885.6 2538 741.7 2538 741.7 2817.2 741.2 2817.2 741.2 2880.5" style="fill:#f2f2f2"/><g id="scala_E" data-name="scala E" style="opacity:0.4000000059604645"><line x1="885" y1="2538.3" x2="742.7" y2="2538" style="fill:none;stroke:#b7b7b7;stroke-miterlimit:10;stroke-width:4px"/><polyline points="742.7 2538 742.3 2751.6 806.4 2751.7 806.7 2609.1 822.2 2609.1 821.8 2751.7 884.5 2751.9 885 2538.3" style="fill:none;stroke:#b7b7b7;stroke-miterlimit:10;stroke-width:4px"/><polyline points="773.2 2751.3 773.6 2579.6 852.6 2579.9 852.2 2751.7" style="fill:none;stroke:#b7b7b7;stroke-miterlimit:10;stroke-width:4px"/><line x1="742" y1="2636.8" x2="807.2" y2="2636.9" style="fill:none;stroke:#b7b7b7;stroke-miterlimit:10;stroke-width:4px"/><line x1="742" y1="2623.5" x2="807.2" y2="2623.7" style="fill:none;stroke:#b7b7b7;stroke-miterlimit:10;stroke-width:4px"/><line x1="742.1" y1="2610.9" x2="807.3" y2="2611.1" style="fill:none;stroke:#b7b7b7;stroke-miterlimit:10;stroke-width:4px"/><line x1="807.1" y1="2649.8" x2="741.9" y2="2649.7" style="fill:none;stroke:#b7b7b7;stroke-miterlimit:10;stroke-width:4px"/><line x1="822.2" y1="2611.1" x2="884.9" y2="2611.2" style="fill:none;stroke:#b7b7b7;stroke-miterlimit:10;stroke-width:4px"/><line x1="822.1" y1="2623.7" x2="884.8" y2="2623.8" style="fill:none;stroke:#b7b7b7;stroke-miterlimit:10;stroke-width:4px"/><line x1="822.1" y1="2636.9" x2="884.8" y2="2637.1" style="fill:none;stroke:#b7b7b7;stroke-miterlimit:10;stroke-width:4px"/><line x1="822.1" y1="2649.8" x2="884.7" y2="2650" style="fill:none;stroke:#b7b7b7;stroke-miterlimit:10;stroke-width:4px"/><line x1="822.1" y1="2662.8" x2="884.7" y2="2662.9" style="fill:none;stroke:#b7b7b7;stroke-miterlimit:10;stroke-width:4px"/><line x1="822.1" y1="2675.4" x2="884.7" y2="2675.5" style="fill:none;stroke:#b7b7b7;stroke-miterlimit:10;stroke-width:4px"/><line x1="822" y1="2688.1" x2="884.6" y2="2688.2" style="fill:none;stroke:#b7b7b7;stroke-miterlimit:10;stroke-width:4px"/><line x1="821.9" y1="2726.9" x2="884.5" y2="2727.1" style="fill:none;stroke:#b7b7b7;stroke-miterlimit:10;stroke-width:4px"/><line x1="821.9" y1="2739.1" x2="884.5" y2="2739.3" style="fill:none;stroke:#b7b7b7;stroke-miterlimit:10;stroke-width:4px"/><polyline points="884.5 2740.4 852.3 2752 822.2 2739.9" style="fill:none;stroke:#b7b7b7;stroke-miterlimit:10;stroke-width:4px"/><polyline points="821.9 2739.5 821.8 2753.8 806.3 2753.8 806.4 2713.4" style="fill:none;stroke:#b7b7b7;stroke-miterlimit:10;stroke-width:4px"/><line x1="741.9" y1="2700.6" x2="807" y2="2700.8" style="fill:none;stroke:#b7b7b7;stroke-miterlimit:10;stroke-width:4px"/><line x1="741.9" y1="2675.1" x2="807.1" y2="2675.2" style="fill:none;stroke:#b7b7b7;stroke-miterlimit:10;stroke-width:4px"/><line x1="741.9" y1="2687.8" x2="807" y2="2688" style="fill:none;stroke:#b7b7b7;stroke-miterlimit:10;stroke-width:4px"/><line x1="741.9" y1="2662.3" x2="807.1" y2="2662.5" style="fill:none;stroke:#b7b7b7;stroke-miterlimit:10;stroke-width:4px"/><line x1="741.9" y1="2713.4" x2="807" y2="2713.6" style="fill:none;stroke:#b7b7b7;stroke-miterlimit:10;stroke-width:4px"/><line x1="741.8" y1="2726.2" x2="807" y2="2726.4" style="fill:none;stroke:#b7b7b7;stroke-miterlimit:10;stroke-width:4px"/><line x1="741.8" y1="2739" x2="807" y2="2739.1" style="fill:none;stroke:#b7b7b7;stroke-miterlimit:10;stroke-width:4px"/><line x1="822" y1="2700.7" x2="884.6" y2="2700.8" style="fill:none;stroke:#b7b7b7;stroke-miterlimit:10;stroke-width:4px"/><line x1="822" y1="2713.8" x2="884.5" y2="2713.9" style="fill:none;stroke:#b7b7b7;stroke-miterlimit:10;stroke-width:4px"/></g></g><g class="clickable" id="A1-4-26" data-name="customclass A1-4-26"><polygon id="room-box-9" points="5261.2 922.4 5261.2 674 4851.1 674 4851.1 758 4851.1 841.5 4851.1 922.4 5261.2 922.4" style="fill:#f2f2f2"/><g id="scale_emergenza" data-name="scale emergenza" style="opacity:0.4000000059604645"><line x1="4851.2" y1="674.5" x2="4851.2" y2="922.1" style="fill:none;stroke:#b7b7b7;stroke-miterlimit:10;stroke-width:4px"/><polyline points="4851.2 922.1 5179.4 922.1 5179.4 810.4 4960.1 810.4 4960.1 783.5 5179.4 783.5 5179.4 674.5 4851.2 674.5" style="fill:none;stroke:#b7b7b7;stroke-miterlimit:10;stroke-width:4px"/><polyline points="5178.9 868.2 4915.1 868.2 4915.1 730.7 5179.1 730.7" style="fill:none;stroke:#b7b7b7;stroke-miterlimit:10;stroke-width:4px"/><line x1="5002.9" y1="923" x2="5002.9" y2="809.4" style="fill:none;stroke:#b7b7b7;stroke-miterlimit:10;stroke-width:4px"/><line x1="4982.6" y1="923" x2="4982.6" y2="809.4" style="fill:none;stroke:#b7b7b7;stroke-miterlimit:10;stroke-width:4px"/><line x1="4963.2" y1="923" x2="4963.2" y2="809.4" style="fill:none;stroke:#b7b7b7;stroke-miterlimit:10;stroke-width:4px"/><line x1="5022.8" y1="809.4" x2="5022.8" y2="923" style="fill:none;stroke:#b7b7b7;stroke-miterlimit:10;stroke-width:4px"/><line x1="4963.2" y1="783.5" x2="4963.2" y2="674.5" style="fill:none;stroke:#b7b7b7;stroke-miterlimit:10;stroke-width:4px"/><line x1="4982.6" y1="783.5" x2="4982.6" y2="674.5" style="fill:none;stroke:#b7b7b7;stroke-miterlimit:10;stroke-width:4px"/><line x1="5002.9" y1="783.5" x2="5002.9" y2="674.5" style="fill:none;stroke:#b7b7b7;stroke-miterlimit:10;stroke-width:4px"/><line x1="5022.8" y1="783.5" x2="5022.8" y2="674.5" style="fill:none;stroke:#b7b7b7;stroke-miterlimit:10;stroke-width:4px"/><line x1="5042.7" y1="783.5" x2="5042.7" y2="674.5" style="fill:none;stroke:#b7b7b7;stroke-miterlimit:10;stroke-width:4px"/><line x1="5062" y1="783.5" x2="5062" y2="674.5" style="fill:none;stroke:#b7b7b7;stroke-miterlimit:10;stroke-width:4px"/><line x1="5081.5" y1="783.5" x2="5081.5" y2="674.5" style="fill:none;stroke:#b7b7b7;stroke-miterlimit:10;stroke-width:4px"/><line x1="5141.2" y1="783.5" x2="5141.2" y2="674.5" style="fill:none;stroke:#b7b7b7;stroke-miterlimit:10;stroke-width:4px"/><line x1="5160" y1="783.5" x2="5160" y2="674.5" style="fill:none;stroke:#b7b7b7;stroke-miterlimit:10;stroke-width:4px"/><polyline points="5161.6 674.5 5179.5 730.5 5161.2 783" style="fill:none;stroke:#b7b7b7;stroke-miterlimit:10;stroke-width:4px"/><polyline points="5160.6 783.5 5182.5 783.5 5182.5 810.6 5120.5 810.6" style="fill:none;stroke:#b7b7b7;stroke-miterlimit:10;stroke-width:4px"/><line x1="5101.1" y1="923" x2="5101.1" y2="809.4" style="fill:none;stroke:#b7b7b7;stroke-miterlimit:10;stroke-width:4px"/><line x1="5061.8" y1="923" x2="5061.8" y2="809.4" style="fill:none;stroke:#b7b7b7;stroke-miterlimit:10;stroke-width:4px"/><line x1="5081.4" y1="923" x2="5081.4" y2="809.4" style="fill:none;stroke:#b7b7b7;stroke-miterlimit:10;stroke-width:4px"/><line x1="5042.2" y1="923" x2="5042.2" y2="809.4" style="fill:none;stroke:#b7b7b7;stroke-miterlimit:10;stroke-width:4px"/><line x1="5120.7" y1="923" x2="5120.7" y2="809.4" style="fill:none;stroke:#b7b7b7;stroke-miterlimit:10;stroke-width:4px"/><line x1="5140.3" y1="923" x2="5140.3" y2="809.4" style="fill:none;stroke:#b7b7b7;stroke-miterlimit:10;stroke-width:4px"/><line x1="5160" y1="923" x2="5160" y2="809.4" style="fill:none;stroke:#b7b7b7;stroke-miterlimit:10;stroke-width:4px"/><line x1="5100.8" y1="783.5" x2="5100.8" y2="674.5" style="fill:none;stroke:#b7b7b7;stroke-miterlimit:10;stroke-width:4px"/><line x1="5120.9" y1="783.5" x2="5120.9" y2="674.5" style="fill:none;stroke:#b7b7b7;stroke-miterlimit:10;stroke-width:4px"/></g></g><g class="clickable" id="A1-4-18-A" data-name="customclass A1-4-18-A"><rect id="room-box-10" x="4398" y="674" width="172.9" height="248.5" style="fill:#f2f2f2"/></g><g class="clickable" id="A1-4-18-B" data-name="customclass A1-4-18-B"><rect id="room-box-11" x="3440.5" y="674" width="311.4" height="248.5" style="fill:#f2f2f2"/><g id="scale-2" style="opacity:0.4000000059604645"><line x1="3438.5" y1="672.8" x2="3438.5" y2="920.4" style="fill:none;stroke:#b7b7b7;stroke-miterlimit:10;stroke-width:4px"/><polyline points="3438.5 920.4 3750.8 920.4 3750.8 808.6 3542.2 808.6 3542.2 781.8 3750.8 781.8 3750.8 672.8 3438.5 672.8" style="fill:none;stroke:#b7b7b7;stroke-miterlimit:10;stroke-width:4px"/><polyline points="3750.4 866.5 3499.4 866.5 3499.4 729 3750.5 729" style="fill:none;stroke:#b7b7b7;stroke-miterlimit:10;stroke-width:4px"/><line x1="3583" y1="921.3" x2="3583" y2="807.8" style="fill:none;stroke:#b7b7b7;stroke-miterlimit:10;stroke-width:4px"/><line x1="3563.7" y1="921.3" x2="3563.7" y2="807.8" style="fill:none;stroke:#b7b7b7;stroke-miterlimit:10;stroke-width:4px"/><line x1="3545.2" y1="921.3" x2="3545.2" y2="807.8" style="fill:none;stroke:#b7b7b7;stroke-miterlimit:10;stroke-width:4px"/><line x1="3601.9" y1="807.8" x2="3601.9" y2="921.3" style="fill:none;stroke:#b7b7b7;stroke-miterlimit:10;stroke-width:4px"/><line x1="3545.2" y1="781.8" x2="3545.2" y2="672.8" style="fill:none;stroke:#b7b7b7;stroke-miterlimit:10;stroke-width:4px"/><line x1="3563.7" y1="781.8" x2="3563.7" y2="672.8" style="fill:none;stroke:#b7b7b7;stroke-miterlimit:10;stroke-width:4px"/><line x1="3583" y1="781.8" x2="3583" y2="672.8" style="fill:none;stroke:#b7b7b7;stroke-miterlimit:10;stroke-width:4px"/><line x1="3601.9" y1="781.8" x2="3601.9" y2="672.8" style="fill:none;stroke:#b7b7b7;stroke-miterlimit:10;stroke-width:4px"/><line x1="3620.8" y1="781.8" x2="3620.8" y2="672.8" style="fill:none;stroke:#b7b7b7;stroke-miterlimit:10;stroke-width:4px"/><line x1="3639.2" y1="781.8" x2="3639.2" y2="672.8" style="fill:none;stroke:#b7b7b7;stroke-miterlimit:10;stroke-width:4px"/><line x1="3657.7" y1="781.8" x2="3657.7" y2="672.8" style="fill:none;stroke:#b7b7b7;stroke-miterlimit:10;stroke-width:4px"/><line x1="3714.6" y1="781.8" x2="3714.6" y2="672.8" style="fill:none;stroke:#b7b7b7;stroke-miterlimit:10;stroke-width:4px"/><line x1="3732.4" y1="781.8" x2="3732.4" y2="672.8" style="fill:none;stroke:#b7b7b7;stroke-miterlimit:10;stroke-width:4px"/><polyline points="3733.9 672.8 3751 728.9 3733.5 781.3" style="fill:none;stroke:#b7b7b7;stroke-miterlimit:10;stroke-width:4px"/><polyline points="3733 781.8 3753.9 781.8 3753.9 808.9 3694.9 808.9" style="fill:none;stroke:#b7b7b7;stroke-miterlimit:10;stroke-width:4px"/><line x1="3676.3" y1="921.3" x2="3676.3" y2="807.8" style="fill:none;stroke:#b7b7b7;stroke-miterlimit:10;stroke-width:4px"/><line x1="3639" y1="921.3" x2="3639" y2="807.8" style="fill:none;stroke:#b7b7b7;stroke-miterlimit:10;stroke-width:4px"/><line x1="3657.7" y1="921.3" x2="3657.7" y2="807.8" style="fill:none;stroke:#b7b7b7;stroke-miterlimit:10;stroke-width:4px"/><line x1="3620.3" y1="921.3" x2="3620.3" y2="807.8" style="fill:none;stroke:#b7b7b7;stroke-miterlimit:10;stroke-width:4px"/><line x1="3695" y1="921.3" x2="3695" y2="807.8" style="fill:none;stroke:#b7b7b7;stroke-miterlimit:10;stroke-width:4px"/><line x1="3713.8" y1="921.3" x2="3713.8" y2="807.8" style="fill:none;stroke:#b7b7b7;stroke-miterlimit:10;stroke-width:4px"/><line x1="3732.4" y1="921.3" x2="3732.4" y2="807.8" style="fill:none;stroke:#b7b7b7;stroke-miterlimit:10;stroke-width:4px"/><line x1="3676.2" y1="781.8" x2="3676.2" y2="672.8" style="fill:none;stroke:#b7b7b7;stroke-miterlimit:10;stroke-width:4px"/><line x1="3695.3" y1="781.8" x2="3695.3" y2="672.8" style="fill:none;stroke:#b7b7b7;stroke-miterlimit:10;stroke-width:4px"/></g></g><g class="clickable" id="A1-4-22" data-name="customclass A1-4-22"><rect id="room-box-12" x="2398.6" y="783.4" width="412.9" height="139.6" style="fill:#f2f2f2"/><g id="scale_emergenza-2" data-name="scale emergenza-2" style="opacity:0.4000000059604645"><line x1="2809.2" y1="782.4" x2="2809.2" y2="921.5" style="fill:none;stroke:#b7b7b7;stroke-miterlimit:10;stroke-width:4px"/><polyline points="2809.2 921.5 2545 921.5 2545 858.8 2721.5 858.8 2721.5 843.7 2545 843.7 2545 782.4 2809.2 782.4" style="fill:none;stroke:#b7b7b7;stroke-miterlimit:10;stroke-width:4px"/><polyline points="2545.3 891.2 2757.7 891.2 2757.7 814 2545.2 814" style="fill:none;stroke:#b7b7b7;stroke-miterlimit:10;stroke-width:4px"/><line x1="2687" y1="922" x2="2687" y2="858.3" style="fill:none;stroke:#b7b7b7;stroke-miterlimit:10;stroke-width:4px"/><line x1="2703.4" y1="922" x2="2703.4" y2="858.3" style="fill:none;stroke:#b7b7b7;stroke-miterlimit:10;stroke-width:4px"/><line x1="2718.9" y1="922" x2="2718.9" y2="858.3" style="fill:none;stroke:#b7b7b7;stroke-miterlimit:10;stroke-width:4px"/><line x1="2671" y1="858.3" x2="2671" y2="922" style="fill:none;stroke:#b7b7b7;stroke-miterlimit:10;stroke-width:4px"/><line x1="2718.9" y1="843.7" x2="2718.9" y2="782.4" style="fill:none;stroke:#b7b7b7;stroke-miterlimit:10;stroke-width:4px"/><line x1="2703.4" y1="843.7" x2="2703.4" y2="782.4" style="fill:none;stroke:#b7b7b7;stroke-miterlimit:10;stroke-width:4px"/><line x1="2687" y1="843.7" x2="2687" y2="782.4" style="fill:none;stroke:#b7b7b7;stroke-miterlimit:10;stroke-width:4px"/><line x1="2671" y1="843.7" x2="2671" y2="782.4" style="fill:none;stroke:#b7b7b7;stroke-miterlimit:10;stroke-width:4px"/><line x1="2655" y1="843.7" x2="2655" y2="782.4" style="fill:none;stroke:#b7b7b7;stroke-miterlimit:10;stroke-width:4px"/><line x1="2639.4" y1="843.7" x2="2639.4" y2="782.4" style="fill:none;stroke:#b7b7b7;stroke-miterlimit:10;stroke-width:4px"/><line x1="2623.7" y1="843.7" x2="2623.7" y2="782.4" style="fill:none;stroke:#b7b7b7;stroke-miterlimit:10;stroke-width:4px"/><line x1="2575.6" y1="843.7" x2="2575.6" y2="782.4" style="fill:none;stroke:#b7b7b7;stroke-miterlimit:10;stroke-width:4px"/><line x1="2560.6" y1="843.7" x2="2560.6" y2="782.4" style="fill:none;stroke:#b7b7b7;stroke-miterlimit:10;stroke-width:4px"/><polyline points="2559.2 782.4 2544.8 813.9 2559.5 843.4" style="fill:none;stroke:#b7b7b7;stroke-miterlimit:10;stroke-width:4px"/><polyline points="2560.1 843.7 2542.4 843.7 2542.4 858.8 2592.2 858.8" style="fill:none;stroke:#b7b7b7;stroke-miterlimit:10;stroke-width:4px"/><line x1="2608" y1="922" x2="2608" y2="858.3" style="fill:none;stroke:#b7b7b7;stroke-miterlimit:10;stroke-width:4px"/><line x1="2639.5" y1="922" x2="2639.5" y2="858.3" style="fill:none;stroke:#b7b7b7;stroke-miterlimit:10;stroke-width:4px"/><line x1="2623.8" y1="922" x2="2623.8" y2="858.3" style="fill:none;stroke:#b7b7b7;stroke-miterlimit:10;stroke-width:4px"/><line x1="2655.4" y1="922" x2="2655.4" y2="858.3" style="fill:none;stroke:#b7b7b7;stroke-miterlimit:10;stroke-width:4px"/><line x1="2592.2" y1="922" x2="2592.2" y2="858.3" style="fill:none;stroke:#b7b7b7;stroke-miterlimit:10;stroke-width:4px"/><line x1="2576.4" y1="922" x2="2576.4" y2="858.3" style="fill:none;stroke:#b7b7b7;stroke-miterlimit:10;stroke-width:4px"/><line x1="2560.6" y1="922" x2="2560.6" y2="858.3" style="fill:none;stroke:#b7b7b7;stroke-miterlimit:10;stroke-width:4px"/><line x1="2608.2" y1="843.7" x2="2608.2" y2="782.4" style="fill:none;stroke:#b7b7b7;stroke-miterlimit:10;stroke-width:4px"/><line x1="2591.9" y1="843.7" x2="2591.9" y2="782.4" style="fill:none;stroke:#b7b7b7;stroke-miterlimit:10;stroke-width:4px"/></g></g><g class="clickable" id="A1-4-02-2" data-name="customclass A1-4-02-2"><polygon id="room-box-13" points="3732.8 2596.6 3623.9 2596.6 3622.9 2995.2 3731.8 2995.2 3732.8 2596.6" style="fill:#f2f2f2"/></g><rect id="room-box-14" x="4590.9" y="653.4" width="240" height="288.6" style="fill:#f2f2f2"/><g class="clickable" id="A1-4-18" data-name="customclass A1-4-18"><rect id="room-box-15" x="3751.3" y="674" width="646.2" height="248.5" style="fill:#f2f2f2"/></g><g class="clickable" id="A1-4-25" data-name="customclass A1-4-25"><rect id="room-box-16" x="5281.3" y="654.4" width="119.5" height="288.6" style="fill:#f2f2f2"/></g><g class="clickable" id="A1-4-30" data-name="customclass A1-4-30"><rect id="room-box-17" x="5281.3" y="1297.3" width="119.5" height="532" style="fill:#f2f2f2"/></g><g class="clickable" id="A1-4-28" data-name="customclass A1-4-28"><rect id="room-box-18" x="3751.7" y="1297.3" width="126.9" height="532" style="fill:#f2f2f2"/></g><rect id="room-box-19" x="4417.5" y="942.5" width="413.4" height="110" style="fill:#f2f2f2"/><rect id="room-box-20" x="3441.5" y="2403.7" width="182.4" height="114.2" style="fill:#f2f2f2"/><rect id="room-box-21" x="2276.4" y="942.5" width="1475.4" height="110" style="fill:#f2f2f2"/><g class="clickable" id="A1-4-20" data-name="customclass A1-4-20"><rect id="room-box-22" x="2276.4" y="653.4" width="122.6" height="288.6" style="fill:#f2f2f2"/></g><g class="clickable" id="A1-4-08-2" data-name="customclass A1-4-08-2"><rect id="room-box-23" x="648.1" y="2516.3" width="74.1" height="363.7" style="fill:#f2f2f2"/></g><rect id="room-box-24" x="2174.3" y="1211.6" width="82.4" height="97" style="fill:url(#SVGID_57_)"/><rect id="room-box-25" x="2937.7" y="2517.4" width="117.4" height="174.4" style="fill:#f2f2f2"/><g class="clickable" id="A1-4-19-T" data-name="customclass A1-4-19-T"><rect id="room-box-26" x="2830.7" y="227.3" width="162.5" height="244.7" style="fill:#ddd"/></g><g class="clickable" id="A1-4-19-E" data-name="customclass A1-4-19-E"><rect id="room-box-27" x="2657" y="492.1" width="336.2" height="161.7" style="fill:#ddd"/></g><g class="clickable" id="A1-4-27-A" data-name="customclass A1-4-27-A"><rect id="room-box-28" x="4851.1" y="1072.5" width="410.2" height="218.9" style="fill:#ddd"/></g><g class="clickable" id="A1-4-27-B" data-name="customclass A1-4-27-B"><rect id="room-box-29" x="3898.3" y="1072.5" width="932.6" height="218.9" style="fill:#ddd"/></g><g class="clickable" id="A1-4-23-A" data-name="customclass A1-4-23-A"><rect id="room-box-30" x="3440.5" y="1072.5" width="290.8" height="218.9" style="fill:#ddd"/></g><g class="clickable" id="A1-4-23-B" data-name="customclass A1-4-23-B"><rect id="room-box-31" x="3087.4" y="1072.5" width="333.1" height="218.9" style="fill:#ddd"/></g><g class="clickable" id="A1-4-23-C" data-name="customclass A1-4-23-C"><rect id="room-box-32" x="2751.1" y="1072.5" width="316.1" height="218.9" style="fill:#ddd"/></g><g class="clickable" id="A1-4-23-D" data-name="customclass A1-4-23-D"><rect id="room-box-33" x="2276.4" y="1072.5" width="454.6" height="218.9" style="fill:#ddd"/></g><g class="clickable" id="A1-4-19-H" data-name="customclass A1-4-19-H"><rect id="room-box-34" x="5062.5" y="227.3" width="198.8" height="245" style="fill:#ddd"/></g><g class="clickable" id="A1-4-19-L" data-name="customclass A1-4-19-L"><rect id="room-box-35" x="4851.2" y="227.3" width="191.3" height="245.8" style="fill:#ddd"/></g><g class="clickable" id="A1-4-19-B" data-name="customclass A1-4-19-B"><rect id="room-box-36" x="4851.2" y="492.1" width="191.3" height="161.7" style="fill:#ddd"/></g><g class="clickable" id="A1-4-19-N" data-name="customclass A1-4-19-N"><rect id="room-box-37" x="4326.6" y="227.3" width="202" height="244.7" style="fill:#ddd"/></g><g class="clickable" id="A1-4-19-S" data-name="customclass A1-4-19-S"><rect id="room-box-38" x="3173" y="227.3" width="247.4" height="246.8" style="fill:#ddd"/></g><g class="clickable" id="A1-4-19-Q" data-name="customclass A1-4-19-Q"><rect id="room-box-39" x="3697.9" y="227.3" width="408.8" height="246.8" style="fill:#ddd"/></g><g class="clickable" id="A1-4-19-R" data-name="customclass A1-4-19-R"><rect id="room-box-40" x="3440.5" y="227.3" width="237.2" height="244.7" style="fill:#ddd"/></g><g class="clickable" id="A1-4-29-G" data-name="customclass A1-4-29-G"><rect id="room-box-41" x="4108.2" y="2078" width="192" height="214.6" style="fill:#ddd"/></g><g class="clickable" id="A1-4-29-H" data-name="customclass A1-4-29-H"><rect id="room-box-42" x="3897.8" y="2078" width="188.2" height="214.6" style="fill:#ddd"/></g><g class="clickable" id="A1-4-29-D" data-name="customclass A1-4-29-D"><rect id="room-box-43" x="4991.7" y="2078" width="269.5" height="215.7" style="fill:#ddd"/></g><g class="clickable" id="A1-4-29-E" data-name="customclass A1-4-29-E"><rect id="room-box-44" x="4709.3" y="2078" width="262.3" height="215.7" style="fill:#ddd"/></g><g class="clickable" id="A1-4-29-F" data-name="customclass A1-4-29-F"><rect id="room-box-45" x="4508.5" y="2078" width="180.8" height="215.7" style="fill:#ddd"/></g><g class="clickable" id="A1-4-29-I" data-name="customclass A1-4-29-I"><rect id="room-box-46" x="4991.7" y="1826.4" width="269.5" height="231.6" style="fill:#ddd"/></g><g class="clickable" id="A1-4-29-L" data-name="customclass A1-4-29-L"><rect id="room-box-47" x="4709.3" y="1826.4" width="262.3" height="231.6" style="fill:#ddd"/></g><g class="clickable" id="A1-4-06-B" data-name="customclass A1-4-06-B"><rect id="room-box-48" x="1859.8" y="2538" width="172.4" height="342.6" style="fill:#ddd"/></g><g class="clickable" id="A1-4-06-A" data-name="customclass A1-4-06-A"><rect id="room-box-49" x="2052.3" y="2538" width="223.1" height="342.6" style="fill:#ddd"/></g><g class="clickable" id="A1-4-05" data-name="customclass A1-4-05"><rect id="room-box-50" x="2417" y="2536.9" width="370.1" height="343.6" style="fill:#ddd"/></g><g class="clickable" id="A1-4-07-B" data-name="customclass A1-4-07-B"><polygon id="room-box-51" points="1285.7 2644.8 1285.7 2880.5 1166.3 2880.5 1166.3 2536.9 1285.9 2536.9 1285.7 2644.8" style="fill:#ddd"/></g><g class="clickable" id="A1-4-07-A" data-name="customclass A1-4-07-A"><rect id="room-box-52" x="1305.9" y="2536.9" width="153.4" height="343.6" style="fill:#ddd"/></g><g class="clickable" id="A1-4-07-C" data-name="customclass A1-4-07-C"><rect id="a-3" x="1481.3" y="2613" width="137.4" height="267.5" style="fill:#ddd"/></g><g class="clickable" id="A1-4-13" data-name="customclass A1-4-13"><rect id="room-box-54" x="2547.1" y="2166" width="240" height="218.3" style="fill:#ddd"/></g><g class="clickable" id="A1-4-12-D" data-name="customclass A1-4-12-D"><rect id="a-4" x="2416.2" y="2166" width="110.8" height="164.7" style="fill:#ddd"/></g><g class="clickable" id="A1-4-12-B" data-name="customclass A1-4-12-B"><rect id="room-box-56" x="1935.9" y="2166" width="218.6" height="164.7" style="fill:#ddd"/></g><g class="clickable" id="A1-4-12-C" data-name="customclass A1-4-12-C"><rect id="a-5" x="1716.1" y="2166" width="199.8" height="164.7" style="fill:#ddd"/></g><g class="clickable" id="A1-4-11-B" data-name="customclass A1-4-11-B"><rect id="a-6" x="1481.3" y="2166" width="137.4" height="164.7" style="fill:#ddd"/></g><g class="clickable" id="A1-4-11" data-name="customclass A1-4-11"><rect id="room-box-59" x="1166.3" y="2166" width="292.9" height="218.3" style="fill:#ddd"/></g><g class="clickable" id="A1-4-12-A" data-name="customclass A1-4-12-A"><rect id="room-box-60" x="2173.8" y="2166" width="223.1" height="164.7" style="fill:#ddd"/></g><g class="clickable" id="A1-4-24" data-name="customclass A1-4-24"><rect id="room-box-61" x="3166.7" y="674" width="252.2" height="249" style="fill:#ddd"/></g><g class="clickable" id="A1-4-21" data-name="customclass A1-4-21"><rect id="room-box-62" x="2832.1" y="674.5" width="316.6" height="248.5" style="fill:#ddd"/></g><g class="clickable" id="A1-4-04-A" data-name="customclass A1-4-04-A"><rect id="room-box-63" x="3076.7" y="2536.9" width="343.7" height="458.9" style="fill:#ddd"/></g><g class="clickable" id="A1-4-04-B" data-name="customclass A1-4-04-B"><rect id="room-box-64" x="2938.2" y="2711.4" width="117.4" height="283.4" style="fill:#ddd"/></g><g class="clickable" id="A1-4-14" data-name="customclass A1-4-14"><rect id="room-box-65" x="2938.2" y="2276.6" width="286" height="107.7" style="fill:#ddd"/></g><g class="clickable" id="A1-4-15-B" data-name="customclass A1-4-15-B"><rect id="room-box-66" x="3622.6" y="2078" width="109.2" height="179.2" style="fill:#ddd"/></g><g class="clickable" id="A1-4-10-B" data-name="customclass A1-4-10-B"><rect id="room-box-67" x="648.2" y="2166" width="234.8" height="218.3" style="fill:#ddd"/></g><g class="clickable" id="A1-4-19-U" data-name="customclass A1-4-19-U"><rect id="room-box-68" x="2656.9" y="227.3" width="152.2" height="244.7" style="fill:#ddd"/></g><g class="clickable" id="A1-4-19-V" data-name="customclass A1-4-19-V"><rect id="room-box-69" x="2419" y="227.3" width="217.8" height="244.7" style="fill:#ddd"/></g><g class="clickable" id="A1-4-19-F" data-name="customclass A1-4-19-F"><rect id="room-box-70" x="2419" y="492.1" width="217.8" height="161.7" style="fill:#ddd"/></g><g class="clickable" id="A1-4-29-B" data-name="customclass A1-4-29-B"><rect id="room-box-71" x="3897.8" y="2519.4" width="452.7" height="275.9" style="fill:#f2f2f2;stroke:#b7b7b7;stroke-miterlimit:10"/></g><rect id="room-box-72" x="4396.9" y="2519.5" width="313" height="104.7" style="fill:#f2f2f2;stroke:#b7b7b7;stroke-miterlimit:10"/><g class="clickable" id="A1-4-29-C" data-name="customclass A1-4-29-C"><rect id="room-box-73" x="4741.8" y="2312.2" width="539" height="351" style="fill:#f2f2f2;stroke:#b7b7b7;stroke-miterlimit:10"/></g><g class="clickable" id="A1-4-19-W" data-name="customclass A1-4-19-W"><rect id="room-box-74" x="2276.9" y="41.7" width="3124.1" height="166" style="fill:#f2f2f2;stroke:#b7b7b7;stroke-miterlimit:10"/></g><g class="clickable" id="A1-4-29-A" data-name="customclass A1-4-29-A"><rect id="room-box-75" x="4350.4" y="2663.2" width="1052" height="133.3" style="fill:#f2f2f2;stroke:#b7b7b7;stroke-miterlimit:10"/></g><g class="clickable" id="A1-4-29-M" data-name="customclass A1-4-29-M"><rect id="room-box-76" x="4487.9" y="1825.8" width="204" height="231.6" style="fill:#f2f2f2;stroke:#b7b7b7;stroke-miterlimit:10"/></g><g class="clickable" id="A1-4-29-N" data-name="customclass A1-4-29-N"><rect id="room-box-77" x="3897.8" y="1825.8" width="499.2" height="116.3" style="fill:#f2f2f2;stroke:#b7b7b7;stroke-miterlimit:10"/></g><g class="clickable" id="A1-4-19-O" data-name="customclass A1-4-19-O"><rect id="room-box-78" x="4548.2" y="400.7" width="283.4" height="91" style="fill:#f2f2f2;stroke:#b7b7b7;stroke-miterlimit:10"/></g><g class="clickable" id="A1-4-19-M" data-name="customclass A1-4-19-M"><rect id="room-box-79" x="4548.2" y="207.8" width="283.4" height="192.9" style="fill:#f2f2f2;stroke:#b7b7b7;stroke-miterlimit:10"/></g><rect id="room-box-80" x="3634.4" y="588.8" width="252.7" height="65.6" style="fill:#f2f2f2;stroke:#b7b7b7;stroke-miterlimit:10"/><g class="clickable" id="A1-4-19-P" data-name="customclass A1-4-19-P"><rect id="room-box-81" x="4126.3" y="207.8" width="179.8" height="283.8" style="fill:#f2f2f2;stroke:#b7b7b7;stroke-miterlimit:10"/></g><g class="clickable" id="A1-4-19-A" data-name="customclass A1-4-19-A"><rect id="room-box-82" x="5061.9" y="491.5" width="218.9" height="162.9" style="fill:#f2f2f2;stroke:#b7b7b7;stroke-miterlimit:10"/></g><g class="clickable" id="A1-4-19-D" data-name="customclass A1-4-19-D"><rect id="room-box-83" x="3153.5" y="491.6" width="269.5" height="65.6" style="fill:#f2f2f2;stroke:#b7b7b7;stroke-miterlimit:10"/></g><g class="clickable" id="A1-4-10-A" data-name="customclass A1-4-10-A"><rect id="room-box-84" x="628.3" y="2403.4" width="142" height="43.1" style="fill:#f2f2f2;stroke:#b7b7b7;stroke-miterlimit:10"/></g><g class="clickable" id="A1-4-16-A" data-name="customclass A1-4-16-A"><rect id="room-box-85" x="3441.5" y="2078.6" width="161.3" height="177.6" style="fill:#f2f2f2;stroke:#b7b7b7;stroke-miterlimit:10"/></g><g class="clickable" id="A1-4-17" data-name="customclass A1-4-17"><rect id="room-box-86" x="3243.8" y="2078" width="178.7" height="80.4" style="fill:#f2f2f2"/></g><g class="clickable" id="A1-4-16-B" data-name="customclass A1-4-16-B"><rect id="room-box-87" x="2938.2" y="2078.6" width="284.9" height="178.4" style="fill:#f2f2f2;stroke:#b7b7b7;stroke-miterlimit:10"/></g><rect id="room-box-88" x="2419.1" y="674" width="123.7" height="108.9" style="fill:#f2f2f2"/><rect id="room-box-89" x="42.3" y="1826.4" width="501.2" height="970.6" style="stroke:#b0c2c4;stroke-miterlimit:10;opacity:0.30000001192092896;isolation:isolate;fill:url(#room-box-89_4_)"/><g id="stairs-block"><polygon points="444.1 2516.8 444.1 2517.9 563.6 2517.9 563.6 2402.6 543.5 2402.6 543.5 2268.6 443.6 2268.6 443.6 2516.8 444.1 2516.8" style="fill:#f2f2f2"/><g style="opacity:0.3799999952316284"><path d="M442.6,2361.1h102v15.6h-102v-15.6Zm99.9,2.3H444.7v11.3h97.8v-11.3Z" style="fill:#b7b7b7"/><path d="M442.6,2347.7h102v15.6h-102v-15.6Zm99.9,2.2H444.7v11.3h97.8v-11.3Z" style="fill:#b7b7b7"/><path d="M442.6,2334.4h102v15.5h-102v-15.5Zm99.9,2.1H444.7v11.3h97.8v-11.3Z" style="fill:#b7b7b7"/><path d="M442.6,2320.9h102v15.6h-102v-15.6Zm99.9,2.2H444.7v11.3h97.8v-11.3Z" style="fill:#b7b7b7"/><path d="M442.6,2307.5h102v15.6h-102v-15.6Zm99.9,2.1H444.7v11.3h97.8v-11.3Z" style="fill:#b7b7b7"/><path d="M442.6,2294.1h102v15.5h-102v-15.5Zm99.9,2.2H444.7v11.3h97.8v-11.3Z" style="fill:#b7b7b7"/><path d="M442.6,2280.7h102v15.6h-102v-15.6Zm99.9,2.1H444.7v11.3h97.8v-11.3Z" style="fill:#b7b7b7"/><path d="M442.6,2267.3h102v15.5h-102v-15.5Zm99.9,2H444.7v11.4h97.8v-11.4Z" style="fill:#b7b7b7"/><path d="M442.6,2374.6h102v15.5h-102v-15.5Zm99.9,2.1H444.7V2388h97.8v-11.3Z" style="fill:#b7b7b7"/><path d="M442.6,2388h102v15.6h-102V2388Zm99.9,2.1H444.7v11.3h97.8v-11.3Z" style="fill:#b7b7b7"/><rect x="464.93" y="2366.99" width="2.2" height="53.5" transform="translate(-1968.14 2245.5) rotate(-75.5)" style="fill:#b7b7b7"/><polygon points="494.4 2268.6 496.6 2268.6 496.6 2401 542 2388.2 542.5 2390.3 494.4 2403.8 494.4 2268.6" style="fill:#b7b7b7"/></g><polygon points="433.5 2527.4 557.2 2527.4 557.2 2517.9 443 2517.9 443 2267.3 433.5 2267.3 433.5 2527.4" style="fill:#b7b7b7"/></g></g><rect x="4722.4" y="2519.8" width="19.5" height="124" style="fill:#b7b7b7"/><rect x="4714" y="2643.8" width="27.8" height="19.5" style="fill:#b7b7b7"/><rect x="4594.1" y="2643.8" width="27.8" height="19.5" style="fill:#b7b7b7"/><rect x="4470.2" y="2643.8" width="27.8" height="19.5" style="fill:#b7b7b7"/><rect x="4350.4" y="2643.8" width="27.8" height="19.5" style="fill:#b7b7b7"/><rect x="4350.4" y="2519.9" width="371.9" height="19.5" style="fill:#b7b7b7"/><rect x="4598.4" y="2539.2" width="19.5" height="104.5" style="fill:#b7b7b7"/><rect x="4474.4" y="2539.1" width="19.5" height="104.7" style="fill:#b7b7b7"/><rect x="4350.4" y="2531.3" width="19.5" height="112.5" style="fill:#b7b7b7"/><g class="clickable" id="A1-4-29-Q" data-name="customclass A1-4-29-Q"><rect id="a-7" x="4369.9" y="2539.2" width="104.5" height="104.5" style="fill:#ddd"/></g><g class="clickable" id="A1-4-29-P" data-name="customclass A1-4-29-P"><rect id="a-8" x="4493.8" y="2539.2" width="104.5" height="104.5" style="fill:#ddd"/></g><g class="clickable" id="A1-4-29-O" data-name="customclass A1-4-29-O"><rect id="a-9" x="4617.8" y="2539.2" width="104.5" height="104.5" style="fill:#ddd"/></g></g></svg>