<svg id="Livello_1" data-name="Livello 1" xmlns="http://www.w3.org/2000/svg" xmlns:xlink="http://www.w3.org/1999/xlink" viewBox="0 0 5500 2479.09"><defs><pattern id="locale_tecnico-5_2_3" data-name="locale tecnico-5 2 3" width="57" height="57" patternTransform="matrix(-0.45, 0, 0, 0.45, -13283.72, 8951.93)" patternUnits="userSpaceOnUse" viewBox="0 0 57 57"><rect width="57" height="57" style="fill:none"/><rect width="57" height="57" style="fill:none"/><rect width="57" height="57" style="fill:none"/><rect width="57" height="57" style="fill:none"/><rect width="57" height="57" style="fill:none"/><rect width="57" height="57" style="fill:none"/><rect width="57" height="57" style="fill:none"/><rect width="57" height="57" style="fill:none"/><rect x="53" y="-53" width="60" height="58" style="fill:#f2f2f2"/><line x1="57" x2="114" y2="-57" style="fill:none;stroke:#ddd;stroke-linecap:square;stroke-linejoin:round;stroke-width:20px"/><rect x="-4" y="-53" width="60" height="58" style="fill:#f2f2f2"/><line x2="57" y2="-57" style="fill:none;stroke:#ddd;stroke-linecap:square;stroke-linejoin:round;stroke-width:20px"/><line x1="-57" y2="-57" style="fill:none;stroke:#ddd;stroke-linecap:square;stroke-linejoin:round;stroke-width:20px"/><rect x="53" y="4" width="60" height="58" style="fill:#f2f2f2"/><line x1="57" y1="57" x2="114" style="fill:none;stroke:#ddd;stroke-linecap:square;stroke-linejoin:round;stroke-width:20px"/><rect x="-4" y="4" width="60" height="58" style="fill:#f2f2f2"/><line y1="57" x2="57" style="fill:none;stroke:#ddd;stroke-linecap:square;stroke-linejoin:round;stroke-width:20px"/><line x1="-57" y1="57" style="fill:none;stroke:#ddd;stroke-linecap:square;stroke-linejoin:round;stroke-width:20px"/><line x1="57" y1="114" x2="114" y2="57" style="fill:none;stroke:#ddd;stroke-linecap:square;stroke-linejoin:round;stroke-width:20px"/><line y1="114" x2="57" y2="57" style="fill:none;stroke:#ddd;stroke-linecap:square;stroke-linejoin:round;stroke-width:20px"/><line x1="-57" y1="114" y2="57" style="fill:none;stroke:#ddd;stroke-linecap:square;stroke-linejoin:round;stroke-width:20px"/></pattern></defs><path d="M1535.23,1782.76v696.33h416.48V1782.76H5140.29V790.32H5500V0H0V1475.75H400.61v307ZM5313.83,405.65v-15" style="fill:#f2f2f2"/><polygon points="616.78 764.91 616.78 651.37 1139.58 651.37 1139.58 883.41 1139.58 898.45 1139.58 1137.78 1139.58 1152.81 1139.58 1460.72 1127.32 1460.72 856.64 1460.72 856.64 1080.11 856.64 1065.14 841.6 1065.14 777.62 1065.14 777.62 904.76 777.62 889.8 762.58 889.8 616.78 889.8 616.78 872.05 616.78 857.09 616.78 779.87 616.78 764.91" style="fill:#ddd"/><rect id="senza_codice" data-name="senza codice" x="430.99" y="1556.13" width="157.15" height="196.25" style="fill:#f2f2f2"/><polygon id="senza_codice-2" data-name="senza codice-2" points="430.99 1541.17 430.99 1475.76 446.03 1475.76 529.56 1475.76 544.6 1475.76 588.21 1475.76 588.21 1541.17 430.99 1541.17" style="fill:#f2f2f2"/><polygon id="locale_tecnico-2" data-name="locale tecnico-2" points="446.03 1087.85 446.03 1080.11 529.56 1080.11 529.56 1460.72 446.03 1460.72 446.03 1102.81 446.03 1087.85" style="fill:#f2f2f2"/><polygon id="locale_tecnico-5" data-name="locale tecnico-5" points="4426.29 1190.03 4426.29 1101.91 4468.09 1101.91 4468.09 1190.03 4468.09 1204.99 4468.09 1460.72 4426.29 1460.72 4426.29 1204.99 4426.29 1190.03" style="fill:url(#locale_tecnico-5_2_3)"/><rect id="locale_tecnico-10" data-name="locale tecnico-10" x="1565.68" y="1782.76" width="355.65" height="665.88" style="fill:url(#locale_tecnico-5_2_3)"/><polygon id="locale_tecnico-11" data-name="locale tecnico-11" points="4550.2 759.87 4550.2 785.36 1641.17 785.36 1641.17 636.33 601.9 636.33 601.9 764.91 213.47 764.91 30.38 764.91 30.38 30.45 5469.62 30.45 5469.62 759.87 4550.2 759.87" style="fill:url(#locale_tecnico-5_2_3)"/><g class="clickable" id="A2--1-11-E" data-name="customclass A2--1-11-E"><rect id="a" x="30.38" y="1080.1" width="287.53" height="132.64" style="fill:#f2f2f2"/></g><g class="clickable" id="A2--1-03-A" data-name="customclass A2--1-03-A"><rect id="a-2" x="4483.05" y="1101.01" width="146.24" height="359.71" style="fill:#f2f2f2"/></g><g class="clickable" id="A2--1-30" data-name="customclass A2--1-30"><polygon points="2706.61 1127.78 2706.61 800.32 2708.87 800.32 2723.91 800.32 2832.41 800.32 2847.45 800.32 2856.99 800.32 2856.99 1127.78 2706.61 1127.78" style="fill:#ddd"/></g><g class="clickable" id="A2--1-22" data-name="customclass A2--1-22"><rect x="859.12" y="651.37" width="277.75" height="802.88" style="fill:none"/></g><g class="clickable" id="A2--1-21" data-name="customclass A2--1-21"><polyline points="762.58 904.76 762.58 1065.14 616.78 1065.14 616.78 944.76 616.78 929.8 616.78 904.76" style="fill:#f2f2f2"/></g><g class="clickable" id="A2--1-15" data-name="customclass A2--1-15"><polygon points="603.17 1541.17 603.17 1475.76 841.6 1475.76 856.64 1475.76 1127.32 1475.76 1139.58 1475.76 1154.62 1475.76 1399.44 1475.76 1414.4 1475.76 1696.44 1475.76 1711.47 1475.76 2244.27 1475.76 2259.24 1475.76 2691.65 1475.76 2706.61 1475.76 2856.99 1475.76 2871.96 1475.76 4243.2 1475.76 4258.24 1475.76 4411.32 1475.76 4426.29 1475.76 4468.09 1475.76 4483.06 1475.76 4629.3 1475.76 4644.26 1475.76 5109.84 1475.76 5109.84 1752.38 3228.06 1752.38 2908.73 1752.38 1951.71 1752.38 1921.33 1752.38 1735.99 1752.38 1720.95 1752.38 1565.68 1752.38 1535.23 1752.38 603.17 1752.38 603.17 1556.13 603.17 1541.17" style="fill:#f2f2f2"/></g><g class="clickable" id="A2--1-14" data-name="customclass A2--1-14"><g id="scala"><polygon points="313.99 1465.45 12.33 1465.45 12.33 1226.27 226.7 1226.27 226.7 1230.03 16.09 1230.03 16.09 1461.69 310.23 1461.69 310.23 1359.21 132.79 1359.21 132.79 1329.96 182.41 1329.96 182.41 1333.72 136.54 1333.72 136.54 1355.45 313.99 1355.45 313.99 1465.45" style="fill:#b7b7b7"/><polygon points="310.84 1414.17 83.01 1414.17 83.01 1279.73 204.22 1279.73 204.22 1283.49 86.77 1283.49 86.77 1410.41 310.84 1410.41 310.84 1414.17" style="fill:#b7b7b7"/><rect x="180.16" y="1356.5" width="3.76" height="107.9" style="fill:#b7b7b7"/><rect x="157.67" y="1356.5" width="3.76" height="107.9" style="fill:#b7b7b7"/><rect x="202.11" y="1356.5" width="3.76" height="107.9" style="fill:#b7b7b7"/><rect x="136.24" y="1228.15" width="3.76" height="103.69" style="fill:#b7b7b7"/><rect x="157.67" y="1228.15" width="3.76" height="103.69" style="fill:#b7b7b7"/><rect x="180.16" y="1228.15" width="3.76" height="103.69" style="fill:#b7b7b7"/><rect x="202.11" y="1228.15" width="3.76" height="52.93" style="fill:#b7b7b7"/><polygon points="183.83 1332.07 180.39 1330.56 201.95 1281.44 180.3 1228.87 183.77 1227.44 206.03 1281.49 183.83 1332.07" style="fill:#b7b7b7"/><rect x="291.06" y="1356.5" width="3.76" height="107.9" style="fill:#b7b7b7"/><rect x="246.02" y="1356.5" width="3.76" height="107.9" style="fill:#b7b7b7"/><rect x="268.5" y="1356.5" width="3.76" height="107.9" style="fill:#b7b7b7"/><rect x="223.54" y="1356.5" width="3.76" height="107.9" style="fill:#b7b7b7"/><rect x="148.69" y="1278.23" width="111.88" height="3.76" transform="translate(-1049.5 951.92) rotate(-66.25)" style="fill:#b7b7b7"/></g><polygon points="430.99 1226.72 430.99 1460.72 400.61 1460.72 30.38 1460.72 30.38 1227.78 175.72 1227.78 190.76 1227.78 317.9 1227.78 332.94 1227.78 430.99 1226.72" style="fill:none"/></g><g class="clickable" id="A2--1-13" data-name="customclass A2--1-13"><rect x="30.38" y="779.87" width="139.48" height="156.7" style="fill:#f2f2f2"/></g><g class="clickable" id="A2--1-12" data-name="customclass A2--1-12"><polygon points="339.71 929.8 339.71 779.87 504.6 779.87 504.6 857.09 504.6 872.05 504.6 929.8 339.71 929.8" style="fill:#f2f2f2"/></g><g class="clickable" id="A2--1-12-2" data-name="customclass A2--1-12-2"><polygon points="519.64 929.8 519.64 872.05 601.82 872.05 601.82 889.8 601.82 904.76 601.82 929.8 519.64 929.8" style="fill:#f2f2f2"/></g><g class="clickable" id="A2--1-12-3" data-name="customclass A2--1-12-3"><rect x="519.56" y="779.87" width="82.18" height="77.22" style="fill:#f2f2f2"/></g><g class="clickable" id="A2--1-11" data-name="customclass A2--1-11"><rect x="30.38" y="950.78" width="466.55" height="94.36" style="fill:none"/></g><g class="clickable" id="A2--1-10-E" data-name="customclass A2--1-10-E"><polygon points="544.6 1460.72 544.6 1080.11 571.82 1080.11 601.82 1080.11 616.78 1080.11 762.58 1080.11 777.62 1080.11 841.6 1080.11 841.6 1460.72 603.17 1460.72 588.21 1460.72 544.6 1460.72" style="fill:#ddd"/></g><g class="clickable" id="A2--1-10-4-I" data-name="customclass A2--1-10-4-I"><polygon points="1154.62 1460.72 1154.62 1152.81 1399.44 1152.81 1399.44 1289.06 1399.44 1304.02 1399.44 1460.72 1154.62 1460.72" style="fill:#ddd"/></g><g class="clickable" id="A2--1-10-4-H" data-name="customclass A2--1-10-4-H"><polyline points="1626.06 651.37 1626.06 785.36 1495.23 785.36 1480.27 785.36 1414.4 785.36 1399.44 785.36 1349.43 785.36 1349.43 651.37" style="fill:#ddd"/></g><g class="clickable" id="A2--1-10-4-G" data-name="customclass A2--1-10-4-G"><polygon points="1495.23 1061.91 1495.23 800.32 1626.06 800.32 1641.02 800.32 1696.44 800.32 1696.44 1061.91 1558.84 1061.91 1543.88 1061.91 1495.23 1061.91" style="fill:#ddd"/></g><g class="clickable" id="A2--1-10-4-F" data-name="customclass A2--1-10-4-F"><polygon points="1154.62 883.41 1154.62 651.37 1334.47 651.37 1334.47 785.36 1334.47 800.32 1349.43 800.32 1399.44 800.32 1399.44 883.41 1154.62 883.41" style="fill:#ddd"/></g><g class="clickable" id="A2--1-10-4-E" data-name="customclass A2--1-10-4-E"><polygon points="1154.62 1137.78 1154.62 898.45 1399.44 898.45 1399.44 1061.91 1399.44 1076.95 1399.44 1137.78 1154.62 1137.78" style="fill:#ddd"/></g><g class="clickable" id="A2--1-10-4-D" data-name="customclass A2--1-10-4-D"><polygon points="1480.27 1061.91 1474.78 1061.91 1416.2 1061.91 1414.4 1061.91 1414.4 1056.72 1414.4 800.32 1480.27 800.32 1480.27 1061.91" style="fill:#f2f2f2"/></g><g class="clickable" id="A2--1-10-4-C" data-name="customclass A2--1-10-4-C"><polygon points="1414.4 1137.78 1414.4 1076.95 1480.27 1076.95 1495.23 1076.95 1543.88 1076.95 1543.88 1289.06 1414.4 1289.06 1414.4 1152.81 1414.4 1137.78" style="fill:#ddd"/></g><g class="clickable" id="A2--1-10-4-B" data-name="customclass A2--1-10-4-B"><rect x="1558.84" y="1076.95" width="137.6" height="212.11" style="fill:#ddd"/></g><g class="clickable" id="A2--1-10-4-A" data-name="customclass A2--1-10-4-A"><polygon points="1414.4 1389.44 1414.4 1304.02 1543.88 1304.02 1558.84 1304.02 1603.35 1304.02 1664.18 1304.02 1696.44 1304.02 1696.44 1380.34 1696.44 1460.72 1414.4 1460.72 1414.4 1445.08 1414.4 1389.44" style="fill:#f2f2f2"/></g><g class="clickable" id="A2--1-10-3-D" data-name="customclass A2--1-10-3-D"><rect x="1711.48" y="800.32" width="249.78" height="261.66" style="fill:#ddd"/></g><g class="clickable" id="A2--1-10-3-C" data-name="customclass A2--1-10-3-C"><polygon points="1976.22 909.35 1976.22 800.32 2170.66 800.32 2185.62 800.32 2244.27 800.32 2244.27 909.35 1976.22 909.35" style="fill:#ddd"/></g><g class="clickable" id="A2--1-10-3-A" data-name="customclass A2--1-10-3-A"><polygon points="1711.47 1289.06 1711.47 1076.95 1961.26 1076.95 1976.22 1076.95 1976.22 1061.91 1976.22 924.31 2244.27 924.31 2244.27 1289.06 1711.47 1289.06" style="fill:#ddd"/></g><g class="clickable" id="A2--1-10-B" data-name="customclass A2--1-10-B"><polygon points="2259.24 909.35 2259.24 800.32 2691.65 800.32 2691.65 1058.3 2691.65 1073.34 2691.65 1127.78 2691.65 1142.81 2691.65 1204.99 2691.65 1220.03 2691.65 1460.72 2259.24 1460.72 2259.24 1304.02 2259.24 1289.06 2259.24 924.31 2259.24 909.35" style="fill:#ddd"/></g><g class="clickable" id="A2--1-10-A" data-name="customclass A2--1-10-A"><rect x="1711.48" y="1304.02" width="532.8" height="156.7" style="fill:#f2f2f2"/></g><g class="clickable" id="A2--1-09" data-name="customclass A2--1-09"><rect x="2706.62" y="1220.03" width="150.38" height="240.76" style="fill:#ddd"/></g><g class="clickable" id="A2--1-09-2" data-name="customclass A2--1-09-2"><rect x="2706.62" y="1142.81" width="150.38" height="62.26" style="fill:#ddd"/></g><g class="clickable" id="A2--1-08" data-name="customclass A2--1-08"><polygon points="2871.96 1058.3 2871.96 800.32 3289.41 800.32 3304.38 800.32 3387.46 800.32 3402.5 800.32 3843.49 800.32 3858.53 800.32 3951.61 800.32 3966.57 800.32 4243.2 800.32 4243.2 1460.72 2871.96 1460.72 2871.96 1220.03 2871.96 1204.99 2871.96 1142.81 2871.96 1127.78 2871.96 1073.34 2871.96 1058.3" style="fill:#ddd"/></g><g class="clickable" id="A2--1-08-2" data-name="customclass A2--1-08-2"><polygon points="4258.24 1460.72 4258.24 800.32 4411.32 800.32 4411.32 1086.95 4411.32 1101.91 4411.32 1190.03 4411.32 1204.99 4411.32 1460.72 4258.24 1460.72" style="fill:#ddd"/></g><g class="clickable" id="A2--1-06" data-name="customclass A2--1-06"><polygon points="4765.54 950.63 4765.54 774.91 4869.16 774.91 4869.16 858.9 4869.16 873.93 4869.16 950.63 4765.54 950.63" style="fill:#f2f2f2"/></g><g class="clickable" id="A2--1-05" data-name="customclass A2--1-05"><polygon points="4979.99 858.9 4979.99 774.91 5081.27 774.91 5096.23 774.91 5109.84 774.91 5109.84 790.32 5109.84 950.63 4979.99 950.63 4979.99 873.93 4979.99 858.9" style="fill:#f2f2f2"/></g><g class="clickable" id="A2--1-05-2" data-name="customclass A2--1-05-2"><rect x="4884.12" y="873.93" width="80.83" height="76.77" style="fill:#f2f2f2"/></g><g class="clickable" id="A2--1-05-3" data-name="customclass A2--1-05-3"><rect x="4884.12" y="774.91" width="80.83" height="84.06" style="fill:#f2f2f2"/></g><g class="clickable" id="A2--1-04" data-name="customclass A2--1-04"><rect x="4777.8" y="1101.01" width="332.04" height="112.18" style="fill:#ddd"/></g><g class="clickable" id="A2--1-03" data-name="customclass A2--1-03"><polygon points="4426.29 1086.95 4426.29 800.32 4463.05 800.32 4478.02 800.32 4550.27 800.32 4565.24 800.32 4565.24 785.36 4565.24 774.91 4750.58 774.91 4750.58 950.63 4750.58 965.67 4765.54 965.67 4869.16 965.67 4884.12 965.67 4964.95 965.67 4979.99 965.67 5109.84 965.67 5109.84 1086.05 4777.8 1086.05 4762.84 1086.05 4644.26 1086.05 4629.3 1086.05 4629.3 1101.01 4629.3 1190.03 4483.06 1190.03 4483.06 1101.91 4483.06 1086.95 4468.09 1086.95 4426.29 1086.95" style="fill:#f2f2f2"/></g><g class="clickable" id="A2--1-02" data-name="customclass A2--1-02"><g id="scala-2"><rect x="4898.58" y="1383.76" width="58.37" height="3.76" transform="translate(1706.69 5364.02) rotate(-66.71)" style="fill:#b7b7b7"/><polygon points="5130.14 1465.45 4828.4 1465.45 4828.4 1355.45 5005.85 1355.45 5005.85 1333.72 4959.98 1333.72 4959.98 1329.96 5009.61 1329.96 5009.61 1359.21 4832.16 1359.21 4832.16 1461.69 5126.38 1461.69 5126.38 1230.03 4914.12 1230.03 4914.12 1226.27 5130.14 1226.27 5130.14 1465.45" style="fill:#b7b7b7"/><polygon points="5059.39 1414.17 4831.56 1414.17 4831.56 1410.41 5055.63 1410.41 5055.63 1283.49 4938.18 1283.49 4938.18 1279.73 5059.39 1279.73 5059.39 1414.17" style="fill:#b7b7b7"/><rect x="4958.48" y="1356.5" width="3.76" height="107.9" style="fill:#b7b7b7"/><rect x="4980.96" y="1356.5" width="3.76" height="107.9" style="fill:#b7b7b7"/><rect x="4936.53" y="1356.5" width="3.76" height="107.9" style="fill:#b7b7b7"/><rect x="5002.39" y="1228.15" width="3.76" height="103.69" style="fill:#b7b7b7"/><rect x="4980.96" y="1228.15" width="3.76" height="103.69" style="fill:#b7b7b7"/><rect x="4958.48" y="1228.15" width="3.76" height="103.69" style="fill:#b7b7b7"/><rect x="4936.53" y="1228.15" width="3.76" height="52.93" style="fill:#b7b7b7"/><polygon points="4958.56 1332.07 4936.36 1281.49 4958.62 1227.44 4962.1 1228.87 4940.45 1281.44 4962.01 1330.56 4958.56 1332.07" style="fill:#b7b7b7"/><rect x="4847.58" y="1356.5" width="3.76" height="107.9" style="fill:#b7b7b7"/><rect x="4892.61" y="1356.5" width="3.76" height="107.9" style="fill:#b7b7b7"/><rect x="4870.13" y="1356.5" width="3.76" height="107.9" style="fill:#b7b7b7"/><rect x="4915.1" y="1356.5" width="3.76" height="107.9" style="fill:#b7b7b7"/><rect x="4936.38" y="1224.02" width="3.76" height="113.16" transform="translate(-94.03 2118.72) rotate(-23.99)" style="fill:#b7b7b7"/></g><polygon points="4777.8 1228.15 5109.84 1228.15 5109.84 1460.72 4644.26 1460.72 4644.26 1227.55 4777.8 1228.15" style="fill:none"/></g><g class="clickable" data-building-code="P1" id="A2--1-G1--1" data-floor-code="-1"><rect id="room-box-29" x="401.29" y="1782.76" width="187.6" height="202.34" style="fill:none;stroke:#f2f2f2;stroke-miterlimit:10"/><path d="M495.05,1827.57a56.39,56.39,0,0,0-56.54,56.24h0v.08a56.58,56.58,0,0,0,113.16.07h0v-.07a56.49,56.49,0,0,0-56.62-56.32" style="fill:#fff;stroke:#303030"/><path d="M486.48,1890.65h6.62c9.92,0,14.06-4.06,14.06-11.58,0-6.39-3.76-10.9-13.76-10.9h-6.92ZM479.86,1919v-56.32h14.21c11.36,0,19.93,5.49,19.93,16.24s-7.67,17.37-20.83,17.37h-6.62v22.79Zm50.46-52.48-35.19-12.79-35.27,12.79-1.58-4.29,36.77-13.31,36.77,13.31Z"/></g><path d="M4483.05,1101.91v-15h-56.76v-21.81h-15v395.65h-5v15h283.92v-15h-45.87V1101.08h26.32v-15h-41.36v374.75H4483.13Zm-15,88.12v270.69h-41.8V1101.91h41.8Z" style="fill:#b7b7b7"/><rect x="3247.16" y="1460.79" width="188.95" height="14.96" style="fill:#b7b7b7"/><polygon points="2244.27 1475.76 2259.24 1475.76 2318.71 1475.76 2318.71 1460.72 2259.24 1460.72 2259.24 1445.08 2244.27 1445.08 2244.27 1460.72 2137.95 1460.72 2137.95 1475.76 2244.27 1475.76" style="fill:#b7b7b7"/><path d="M529.56,1475.68h58.58v65.41H540v15h48.13v5h15V1475.6H911.6v-15h-55V1065h-79v-9.55h-15V1065H725.43v15H841.68v380.62H544.6V1080H649v-15H616.78v-10.45h-15V1065H529.56ZM446,1065.14H412.87v15h18.19v380.62H30.38v-233H332.94V1080.1h3.61v-15H175.72v15H317.9v132.64H30.38V951.6h35v-15h-35V780H169.85V936.64H115.79v15h69V780H324.75V944.76h51.8v-15H339.78V780h164.9v24.51h15V780h82.18v77.22H519.64v-5h-15v23.61h15V872.2h82.18v57.68H519.64v-6.4h-15v6.4H427v15H601.82v31.8h15V904.91h145.8v70.83h15V889.87H616.78V651.3h522.8v809.42H1036.49v15h976.57v-15H1711.48v-15.64h-15v15.64h-282v-15.64h-15v15.64H1154.69v-308h244.82V1349h15v-45h1.81v-15h-1.81V1077h1.81v-15h-1.81v-5.26h-15v81.06H1154.69V898.45h244.82v102.63h15V878.67h-15v4.81H1154.69V651.37h179.86v149h65v16.77h15V800.32h3.16v-15h-68.12v-134h276.62v134H1476.28v15h4.06v202.11h15V800.32h201.21V1062H1495.3v-3.83h-15V1062h-5.49v15h69v212.11H1475.3v15h128v-15h-44.51V1077h137.6v212.11h-32.26v15h32.26v45h15v-45h150.38v-15H1711.4V1077h150.38v-15H1711.4V800.32h249.86V1062h-38.65v15h53.61V924.31h6.84v-15h-6.84v-109h268v109H2036.6v15h207.6v364.82H1922.61v15H2244.2v45h15V800.4H2691.5v660.39h-36.77v15h227.08v-15h-10V1387h-15v73.83H2706.47V1220h42.25v-15h-42.25v-62.26h150.38v62.26h-61v15h61.05v111.28h15V964.54h-15v163.31H2706.62V800.32H2857V908.9h15V800.32H4243.2v660.4h-442v15h480.09v-15h-23.16V800.32h153.09V963.41h15V800.32h139V774.91h185.34V965.67H4771v-15h-5.41V774.91h103.54V950.7H4826v15h196.24v-15H4980V923.41h-15v27.22h-80.9V873.86H4965v2.71h15V853.41h-15v5.41h-80.83V774.76H4965v31.8h15v-31.8h129.93V950.55h-30v15h30v120.37h-72.18v15h72.18V1213h-332V1100.86h204.89v-15h-230.3v15h10.45v127.22h347v232.56h-355.2v15h355.2v276.63H603.17V1631.85h-15v120.38H541.44v30.38h993.79v696.33h416.48V1782.76H5140.29V790.32H5500V0H0V1491.17H400.61v291.59h55.87V1752.3H431.06V1556.06h27.67v-15H431.06v-65.41h15Zm1475.38,1383.5H1565.68V1782.76h355.65ZM30.38,30.45H5469.62V760H4550.27v25.41H1641v-149H601.6V764.91l-571.22-.08V30.45Z" style="fill:#b7b7b7"/><line x1="1155.52" y1="1671.02" x2="1155.52" y2="1752.38" style="fill:none;stroke:#b7b7b7;stroke-miterlimit:10;stroke-width:5px"/><path d="M1157.4,1754.26H819.93l37.29-85.12H1157.4Zm-331.72-3.76h328v-77.6h-294Z" style="fill:#b7b7b7"/><rect x="841.15" y="1709.82" width="314.82" height="3.76" style="fill:#b7b7b7"/><rect x="930.4" y="1671.02" width="3.76" height="81.36" style="fill:#b7b7b7"/><rect x="912.06" y="1671.02" width="3.76" height="81.36" style="fill:#b7b7b7"/><rect x="893.78" y="1671.02" width="3.76" height="81.36" style="fill:#b7b7b7"/><rect x="875.51" y="1671.02" width="3.76" height="81.36" style="fill:#b7b7b7"/><rect x="857.24" y="1671.02" width="3.76" height="81.36" style="fill:#b7b7b7"/><rect x="839.05" y="1711.48" width="3.76" height="40.9" style="fill:#b7b7b7"/><rect x="848.14" y="1709.76" width="3.76" height="44.56" transform="translate(-633.16 498.07) rotate(-24.1)" style="fill:#b7b7b7"/><rect x="1134.99" y="1671.02" width="3.76" height="81.36" style="fill:#b7b7b7"/><rect x="1116.42" y="1671.02" width="3.76" height="81.36" style="fill:#b7b7b7"/><rect x="1097.85" y="1671.02" width="3.76" height="81.36" style="fill:#b7b7b7"/><rect x="1079.28" y="1671.02" width="3.76" height="81.36" style="fill:#b7b7b7"/><rect x="1060.63" y="1671.02" width="3.76" height="81.36" style="fill:#b7b7b7"/><rect x="1042.06" y="1671.02" width="3.76" height="81.36" style="fill:#b7b7b7"/><rect x="1023.49" y="1671.02" width="3.76" height="81.36" style="fill:#b7b7b7"/><line x1="1536.88" y1="1671.02" x2="1536.88" y2="1752.38" style="fill:none;stroke:#b7b7b7;stroke-miterlimit:10;stroke-width:5px"/><path d="M1538.76,1754.26H1404.93v-85.12h133.83Zm-130.07-3.76H1535v-77.6H1408.69Z" style="fill:#b7b7b7"/><rect x="1407.11" y="1709.82" width="128.73" height="3.76" style="fill:#b7b7b7"/><rect x="1414.29" y="1709.77" width="3.76" height="44.53" transform="translate(-582.26 726.16) rotate(-24.01)" style="fill:#b7b7b7"/><rect x="1516.43" y="1671.02" width="3.76" height="81.36" style="fill:#b7b7b7"/><rect x="1497.86" y="1671.02" width="3.76" height="81.36" style="fill:#b7b7b7"/><rect x="1479.21" y="1671.02" width="3.76" height="81.36" style="fill:#b7b7b7"/><rect x="1460.64" y="1671.02" width="3.76" height="81.36" style="fill:#b7b7b7"/><rect x="1442.07" y="1671.02" width="3.76" height="81.36" style="fill:#b7b7b7"/><rect x="1423.5" y="1671.02" width="3.76" height="81.36" style="fill:#b7b7b7"/><path d="M4888.35,1754.26H4550.88v-85.12h300.18Zm-333.71-3.76h328l-34-77.6h-294Z" style="fill:#b7b7b7"/><rect x="4552.3" y="1709.82" width="314.75" height="3.76" style="fill:#b7b7b7"/><rect x="4774.12" y="1671.02" width="3.76" height="81.36" style="fill:#b7b7b7"/><rect x="4792.39" y="1671.02" width="3.76" height="81.36" style="fill:#b7b7b7"/><rect x="4810.66" y="1671.02" width="3.76" height="81.36" style="fill:#b7b7b7"/><rect x="4829" y="1671.02" width="3.76" height="81.36" style="fill:#b7b7b7"/><rect x="4847.28" y="1671.02" width="3.76" height="81.36" style="fill:#b7b7b7"/><rect x="4865.47" y="1711.48" width="3.76" height="40.9" style="fill:#b7b7b7"/><rect x="4835.97" y="1730.16" width="44.56" height="3.76" transform="translate(1293.93 5460.07) rotate(-65.91)" style="fill:#b7b7b7"/><rect x="4550.88" y="1671.02" width="3.76" height="81.36" style="fill:#b7b7b7"/><rect x="4569.45" y="1671.02" width="3.76" height="81.36" style="fill:#b7b7b7"/><rect x="4588.1" y="1671.02" width="3.76" height="81.36" style="fill:#b7b7b7"/><rect x="4606.67" y="1671.02" width="3.76" height="81.36" style="fill:#b7b7b7"/><rect x="4625.24" y="1671.02" width="3.76" height="81.36" style="fill:#b7b7b7"/><rect x="4643.81" y="1671.02" width="3.76" height="81.36" style="fill:#b7b7b7"/><rect x="4662.46" y="1671.02" width="3.76" height="81.36" style="fill:#b7b7b7"/><rect x="4681.03" y="1671.02" width="3.76" height="81.36" style="fill:#b7b7b7"/><polygon points="733.7 1648.69 595.65 1648.69 595.65 1644.93 729.95 1644.93 729.95 1544.55 599.79 1544.63 599.79 1540.87 733.7 1540.79 733.7 1648.69" style="fill:#b7b7b7"/><rect x="674.23" y="1592.9" width="57.22" height="3.76" style="fill:#b7b7b7"/><rect x="710.09" y="1542.67" width="3.76" height="104.14" style="fill:#b7b7b7"/><rect x="691.07" y="1542.67" width="3.76" height="104.14" style="fill:#b7b7b7"/><polygon points="691.11 1647.45 671.93 1594.79 691.11 1541.21 694.65 1542.48 675.93 1594.78 694.64 1646.17 691.11 1647.45" style="fill:#b7b7b7"/><rect x="672.05" y="1542.75" width="3.76" height="104.06" style="fill:#b7b7b7"/><polygon points="1950.5 1755.99 1934.71 1755.99 1934.71 1669.29 1405.15 1669.29 1405.15 1654.26 1950.5 1654.26 1950.5 1755.99" style="fill:#b7b7b7"/></svg>