<svg id="Livello_1" data-name="Livello 1" xmlns="http://www.w3.org/2000/svg" xmlns:xlink="http://www.w3.org/1999/xlink" viewBox="0 0 5500 2479"><defs><pattern id="locale_tecnico-5_00000034784603" data-name="locale tecnico-5 00000034784603" width="57" height="57" patternTransform="translate(-76327.17 -42584.41) rotate(-180) scale(0.45)" patternUnits="userSpaceOnUse" viewBox="0 0 57 57"><rect width="57" height="57" style="fill:none"/><rect width="57" height="57" style="fill:none"/><rect width="57" height="57" style="fill:none"/><rect width="57" height="57" style="fill:none"/><rect width="57" height="57" style="fill:none"/><rect width="57" height="57" style="fill:none"/><rect width="57" height="57" style="fill:none"/><rect width="57" height="57" style="fill:none"/><rect width="57" height="57" style="fill:none"/><rect width="57" height="57" style="fill:none"/><rect width="57" height="57" style="fill:none"/><rect width="57" height="57" style="fill:none"/><rect width="57" height="57" style="fill:none"/><rect width="57" height="57" style="fill:none"/><rect width="57" height="57" style="fill:none"/><rect width="57" height="57" style="fill:none"/><rect width="57" height="57" style="fill:none"/><rect width="57" height="57" style="fill:none"/><rect width="57" height="57" style="fill:none"/><rect x="53" y="52" width="60" height="58" style="fill:#f2f2f2"/><line x1="57" y1="57" x2="114" y2="114" style="fill:none;stroke:#ddd;stroke-linecap:square;stroke-linejoin:round;stroke-width:20px"/><rect x="-4" y="52" width="60" height="58" style="fill:#f2f2f2"/><line y1="57" x2="57" y2="114" style="fill:none;stroke:#ddd;stroke-linecap:square;stroke-linejoin:round;stroke-width:20px"/><line x1="-57" y1="57" y2="114" style="fill:none;stroke:#ddd;stroke-linecap:square;stroke-linejoin:round;stroke-width:20px"/><rect x="53" y="-5" width="60" height="58" style="fill:#f2f2f2"/><line x1="57" x2="114" y2="57" style="fill:none;stroke:#ddd;stroke-linecap:square;stroke-linejoin:round;stroke-width:20px"/><rect x="-4" y="-5" width="60" height="58" style="fill:#f2f2f2"/><line x2="57" y2="57" style="fill:none;stroke:#ddd;stroke-linecap:square;stroke-linejoin:round;stroke-width:20px"/><line x1="-57" y2="57" style="fill:none;stroke:#ddd;stroke-linecap:square;stroke-linejoin:round;stroke-width:20px"/><line x1="57" y1="-57" x2="114" style="fill:none;stroke:#ddd;stroke-linecap:square;stroke-linejoin:round;stroke-width:20px"/><line y1="-57" x2="57" style="fill:none;stroke:#ddd;stroke-linecap:square;stroke-linejoin:round;stroke-width:20px"/><line x1="-57" y1="-57" style="fill:none;stroke:#ddd;stroke-linecap:square;stroke-linejoin:round;stroke-width:20px"/></pattern></defs><g id="pavimento_grigio" data-name="pavimento grigio"><rect x="4629.2" y="774.9" width="480.6" height="451.4" style="fill:#f2f2f2"/><rect id="grigio" x="30.4" y="780" width="586.4" height="447.8" style="fill:#f2f2f2"/></g><g class="clickable" id="A2--1-10-5-X" data-name="customclass A2--1-10-5-X"><rect id="senza_codice" data-name="senza codice" x="431" y="1540.8" width="157.2" height="211.5" style="fill:#f2f2f2"/></g><g class="clickable" id="A2--1-10-5-Y" data-name="customclass A2--1-10-5-Y"><polygon id="senza_codice-2" data-name="senza codice-2" points="431 1541.2 431 1475.8 446 1475.8 529.6 1475.8 544.6 1475.8 588.2 1475.8 588.2 1541.2 431 1541.2" style="fill:#f2f2f2"/></g><g class="clickable" id="A2--1-10-5-Z" data-name="customclass A2--1-10-5-Z"><polygon id="z" points="446 1088.1 446 1080.1 529.6 1080.1 529.6 1475.8 446 1475.8 446 1103.7 446 1088.1" style="fill:#f2f2f2"/></g><polygon id="locale_tecnico-5" data-name="locale tecnico-5" points="4426.3 1190 4426.3 1101.9 4468.1 1101.9 4468.1 1190 4468.1 1205 4468.1 1460.7 4426.3 1460.7 4426.3 1205 4426.3 1190" style="fill:url(#locale_tecnico-5_00000034784603)"/><rect id="locale_tecnico-10" data-name="locale tecnico-10" x="1565.7" y="1782.8" width="355.7" height="665.9" style="fill:url(#locale_tecnico-5_00000034784603)"/><polygon id="locale_tecnico-11" data-name="locale tecnico-11" points="4550.2 759.9 4550.2 785.4 1641.2 785.4 1641.2 636.3 601.9 636.3 601.9 764.9 213.5 764.9 30.4 764.9 30.4 30.4 5469.6 30.4 5469.6 759.9 4550.2 759.9" style="fill:url(#locale_tecnico-5_00000034784603)"/><g class="clickable" id="A2--1-22" data-name="customclass A2--1-22"><polygon id="D" points="616.8 764.9 616.8 651.4 1139.6 651.4 1139.6 883.4 1139.6 898.5 1139.6 1137.8 1139.6 1152.8 1139.6 1460.7 1127.3 1460.7 856.6 1460.7 856.6 1080.1 856.6 1065.1 841.6 1065.1 777.6 1065.1 777.6 904.8 777.6 889.8 762.6 889.8 616.8 889.8 616.8 872 616.8 857.1 616.8 779.9 616.8 764.9" style="fill:#f2f2f2"/></g><g class="clickable" id="A2--1-21" data-name="customclass A2--1-21"><polyline points="777.6 904.8 777.6 1080.1 603.2 1080.1 603.2 948.5 603.2 932.1 603.2 904.8" style="fill:#f2f2f2"/></g><g class="clickable" id="A2--1-13" data-name="customclass A2--1-13"><rect x="30.4" y="779.9" width="139.5" height="156.7" style="fill:#f2f2f2"/></g><g class="clickable" id="A2--1-12-3" data-name="customclass A2--1-12-3"><rect x="519.6" y="779.9" width="82.2" height="77.2" style="fill:#f2f2f2"/></g><g class="clickable" id="A2--1-12-2" data-name="customclass A2--1-12-2"><polygon points="519.6 929.8 519.6 872 601.8 872 601.8 889.8 601.8 904.8 601.8 929.8 519.6 929.8" style="fill:#f2f2f2"/></g><g class="clickable" id="A2--1-12" data-name="customclass A2--1-12"><polygon points="339.7 929.8 339.7 779.9 504.6 779.9 504.6 857.1 504.6 872 504.6 929.8 339.7 929.8" style="fill:#f2f2f2"/></g><g class="clickable" id="A2--1-11" data-name="customclass A2--1-11"><rect x="30.4" y="950.8" width="578.4" height="114.3" style="fill:#f2f2f2"/></g><g class="clickable" id="A2--1-10-5" data-name="customclass A2--1-10-5"><polygon points="544.6 1460.7 544.6 1080.1 571.8 1080.1 601.8 1080.1 616.8 1080.1 762.6 1080.1 777.6 1080.1 841.6 1080.1 841.6 1460.7 603.2 1460.7 588.2 1460.7 544.6 1460.7" style="fill:#f2f2f2"/></g><g class="clickable" id="A2--1-10-4" data-name="customclass A2--1-10-4"><polygon id="_4" data-name="4" points="1156 800.3 1156 1460.4 1696.4 1460.4 1696.4 800.3 1629.6 800.3 1629.6 651.4 1154.7 651.4 1154.7 800.3 1156 800.3" style="fill:#f2f2f2"/></g><g class="clickable" id="A2--1-10-3" data-name="customclass A2--1-10-3"><rect id="_3" data-name="3" x="1711.6" y="800.3" width="532.8" height="488.8" style="fill:#f2f2f2"/></g><g class="clickable" id="A2--1-10-2" data-name="customclass A2--1-10-2"><rect id="_2" data-name="2" x="2244.4" y="800.4" width="612.6" height="660" style="fill:#f2f2f2"/></g><g class="clickable" id="A2--1-08" data-name="customclass A2--1-08"><polygon points="2857.2 1058.3 2857.2 800.3 3330.3 800.3 3347.3 800.3 3441.5 800.3 3458.4 800.3 3958.3 800.3 3975.4 800.3 4080.9 800.3 4097.8 800.3 4411.3 800.3 4411.3 1460.7 2857.2 1460.7 2857.2 1220 2857.2 1205 2857.2 1142.8 2857.2 1127.8 2857.2 1073.3 2857.2 1058.3" style="fill:#ddd"/></g><g class="clickable" id="A2--1-06" data-name="customclass A2--1-06"><polygon points="4765.5 950.6 4765.5 774.9 4869.2 774.9 4869.2 858.9 4869.2 873.9 4869.2 950.6 4765.5 950.6" style="fill:#f2f2f2"/></g><g class="clickable" id="A2--1-05-3" data-name="customclass A2--1-05-3"><rect x="4884.1" y="774.9" width="80.8" height="84.1" style="fill:#f2f2f2"/></g><g class="clickable" id="A2--1-05-2" data-name="customclass A2--1-05-2"><rect x="4884.1" y="873.9" width="80.8" height="76.8" style="fill:#f2f2f2"/></g><g class="clickable" id="A2--1-05" data-name="customclass A2--1-05"><polygon points="4980 858.9 4980 774.9 5081.3 774.9 5096.2 774.9 5109.8 774.9 5109.8 790.3 5109.8 950.6 4980 950.6 4980 873.9 4980 858.9" style="fill:#f2f2f2"/></g><g class="clickable" id="A2--1-04" data-name="customclass A2--1-04"><rect x="4777.8" y="1101" width="332" height="112.2" style="fill:#ddd"/></g><g class="clickable" id="A2--1-03" data-name="customclass A2--1-03"><polygon points="4410.3 1086.9 4410.3 800.3 4463 800.3 4478 800.3 4550.3 800.3 4565.2 800.3 4565.2 785.4 4565.2 774.9 4750.6 774.9 4750.6 950.6 4750.6 965.7 4765.5 965.7 4869.2 965.7 4884.1 965.7 4965 965.7 4980 965.7 5109.8 965.7 5109.8 1086.1 4777.8 1086.1 4762.8 1086.1 4644.3 1086.1 4629.3 1086.1 4629.3 1101 4629.3 1190 4483.1 1190 4483.1 1101.9 4483.1 1086.9 4468.1 1086.9 4410.3 1086.9" style="fill:#f2f2f2"/></g><g class="clickable" id="A2--1-10-3-Z" data-name="customclass A2--1-10-3-Z"><rect id="z-2" data-name="z" x="1696.4" y="1289.1" width="547.8" height="171.6" style="fill:#f2f2f2"/></g><g class="clickable" data-building-code="P1" id="A2--1-P1--1" data-floor-code="-1"><rect id="room-box-29" x="401.3" y="1782.8" width="187.6" height="202.3" style="fill:none;stroke:#f2f2f2;stroke-miterlimit:10"/><path d="M495,1827.6a56.29,56.29,0,0,0-56.5,56.1h0v.1h0v.1a56.55,56.55,0,0,0,113.1.1h0v-.1a56.38,56.38,0,0,0-56.4-56.3H495" style="fill:#fff;stroke:#303030"/><path d="M486.5,1890.7h6.6c9.9,0,14.1-4.1,14.1-11.6,0-6.4-3.8-10.9-13.8-10.9h-6.9Zm-6.6,28.3v-56.3h14.2c11.4,0,19.9,5.5,19.9,16.2s-7.7,17.4-20.8,17.4h-6.6v22.8Zm50.4-52.5-35.2-12.8-35.3,12.8-1.6-4.3,36.8-13.3,36.8,13.3Z"/></g><g class="clickable" id="A2--1-LIFT-D" data-name="customclass A2--1-LIFT-D"><rect id="a-2" x="4483" y="1101" width="146.2" height="359.7" style="fill:#f2f2f2"/></g><g class="clickable" id="A2--1-STAIR-D" data-name="customclass A2--1-STAIR-D"><polygon points="4777.8 1228.2 5109.8 1228.2 5109.8 1460.7 4644.3 1460.7 4644.3 1227.6 4777.8 1228.2" style="fill:#f2f2f2"/><g id="scala-2"><rect x="4898.51" y="1383.93" width="58.4" height="3.8" transform="translate(1706.38 5364.01) rotate(-66.71)" style="fill:#b7b7b7"/><polygon points="5130.1 1465.4 4828.4 1465.4 4828.4 1355.4 5005.9 1355.4 5005.9 1333.7 4960 1333.7 4960 1330 5009.6 1330 5009.6 1359.2 4832.2 1359.2 4832.2 1461.7 5126.4 1461.7 5126.4 1230 4914.1 1230 4914.1 1226.3 5130.1 1226.3 5130.1 1465.4" style="fill:#b7b7b7"/><polygon points="5059.4 1414.2 4831.6 1414.2 4831.6 1410.4 5055.6 1410.4 5055.6 1283.5 4938.2 1283.5 4938.2 1279.7 5059.4 1279.7 5059.4 1414.2" style="fill:#b7b7b7"/><rect x="4958.5" y="1356.5" width="3.8" height="107.9" style="fill:#b7b7b7"/><rect x="4981" y="1356.5" width="3.8" height="107.9" style="fill:#b7b7b7"/><rect x="4936.5" y="1356.5" width="3.8" height="107.9" style="fill:#b7b7b7"/><rect x="5002.4" y="1228.2" width="3.8" height="103.7" style="fill:#b7b7b7"/><rect x="4981" y="1228.2" width="3.8" height="103.7" style="fill:#b7b7b7"/><rect x="4958.5" y="1228.2" width="3.8" height="103.7" style="fill:#b7b7b7"/><rect x="4936.5" y="1228.2" width="3.8" height="52.9" style="fill:#b7b7b7"/><polygon points="4958.6 1332.1 4936.4 1281.5 4958.6 1227.4 4962.1 1228.9 4940.5 1281.4 4962 1330.6 4958.6 1332.1" style="fill:#b7b7b7"/><rect x="4847.6" y="1356.5" width="3.8" height="107.9" style="fill:#b7b7b7"/><rect x="4892.6" y="1356.5" width="3.8" height="107.9" style="fill:#b7b7b7"/><rect x="4870.1" y="1356.5" width="3.8" height="107.9" style="fill:#b7b7b7"/><rect x="4915.1" y="1356.5" width="3.8" height="107.9" style="fill:#b7b7b7"/><rect x="4936.17" y="1224.19" width="3.8" height="113.2" transform="translate(-94.15 2118.48) rotate(-23.99)" style="fill:#b7b7b7"/></g></g><g class="clickable" id="A2--1-LIFT-C" data-name="customclass A2--1-LIFT-C"><rect id="a" x="30.4" y="1080.1" width="287.5" height="132.6" style="fill:#f2f2f2"/></g><g class="clickable" id="A2--1-STAIR-C" data-name="customclass A2--1-STAIR-C"><polygon points="431 1226.7 431 1460.7 400.6 1460.7 30.4 1460.7 30.4 1227.8 175.7 1227.8 190.8 1227.8 317.9 1227.8 332.9 1227.8 431 1226.7" style="fill:#f2f2f2"/><g id="scala"><polygon points="314 1465.4 12.3 1465.4 12.3 1226.3 226.7 1226.3 226.7 1230 16.1 1230 16.1 1461.7 310.2 1461.7 310.2 1359.2 132.8 1359.2 132.8 1330 182.4 1330 182.4 1333.7 136.5 1333.7 136.5 1355.4 314 1355.4 314 1465.4" style="fill:#b7b7b7"/><polygon points="310.8 1414.2 83 1414.2 83 1279.7 204.2 1279.7 204.2 1283.5 86.8 1283.5 86.8 1410.4 310.8 1410.4 310.8 1414.2" style="fill:#b7b7b7"/><rect x="180.2" y="1356.5" width="3.8" height="107.9" style="fill:#b7b7b7"/><rect x="157.7" y="1356.5" width="3.8" height="107.9" style="fill:#b7b7b7"/><rect x="202.1" y="1356.5" width="3.8" height="107.9" style="fill:#b7b7b7"/><rect x="136.2" y="1228.2" width="3.8" height="103.7" style="fill:#b7b7b7"/><rect x="157.7" y="1228.2" width="3.8" height="103.7" style="fill:#b7b7b7"/><rect x="180.2" y="1228.2" width="3.8" height="103.7" style="fill:#b7b7b7"/><rect x="202.1" y="1228.2" width="3.8" height="52.9" style="fill:#b7b7b7"/><polygon points="183.8 1332.1 180.4 1330.6 201.9 1281.4 180.3 1228.9 183.8 1227.4 206 1281.5 183.8 1332.1" style="fill:#b7b7b7"/><rect x="291.1" y="1356.5" width="3.8" height="107.9" style="fill:#b7b7b7"/><rect x="246" y="1356.5" width="3.8" height="107.9" style="fill:#b7b7b7"/><rect x="268.5" y="1356.5" width="3.8" height="107.9" style="fill:#b7b7b7"/><rect x="223.5" y="1356.5" width="3.8" height="107.9" style="fill:#b7b7b7"/><rect x="148.49" y="1278.01" width="111.9" height="3.8" transform="translate(-1049.43 951.61) rotate(-66.25)" style="fill:#b7b7b7"/></g></g><g class="clickable" id="A2--1-STAIR-A" data-name="customclass A2--1-STAIR-A"><polygon points="588.9 1529.4 588.9 1460.4 828.1 1460.4 843.1 1460.4 1114.7 1460.4 1127 1460.4 1142.1 1460.4 1387.6 1460.4 1402.7 1460.4 1685.6 1460.4 1700.7 1460.4 2235.2 1460.4 2250.2 1460.4 2683.9 1460.4 2699 1460.4 2849.9 1460.4 2864.9 1460.4 4240.5 1460.4 4255.5 1460.4 4409.1 1460.4 4424.1 1460.4 4466.1 1460.4 4481.1 1460.4 4627.8 1460.4 4642.8 1460.4 5109.8 1460.4 5109.8 1752.4 3222.1 1752.4 2901.7 1752.4 1941.7 1752.4 1911.2 1752.4 1725.3 1752.4 1710.2 1752.4 1554.4 1752.4 1523.9 1752.4 588.9 1752.4 588.9 1545.2 588.9 1529.4" style="fill:#f2f2f2"/></g><g id="muri"><path d="M4258.1,800.3h153.1V963.4h15V800.3h139V774.9h185.3V965.7h20.4v-15h-5.4V774.9H4869V950.7h-43v15h196.2v-15H4980V923.4h-15v27.2h-80.9V873.8H4965v2.7h15V853.3h-15v5.4h-80.8V774.6H4965v31.8h15V774.6h129.9V950.4h-30v15h30v120.4h-72.2v15h72.2V1213h-332V1100.9h204.9v-15H4752.5v15H4763v127.2h347v232.6H4754.8v15H5110v276.6H603.2V1631.9h-15v120.4H541.5v30.4h993.8V2479h416.5V1782.8H5140.4V790.3H5500V0H0V1491.2H400.6v291.6h55.9v-30.5H431.1V1556.1h27.7v-15H431.1v-65.4h15l-.1-410.5H412.9v15h18.2v380.6H30.4v-233H333V1080.1h3.6v-15H175.7v15H317.9v132.6H30.4V951.6h35v-15h-35V780H169.9V936.6H115.8v15h69V780h140V944.8h51.8v-15H339.8V780H504.7v24.5h15V780h82.2v77.2H519.7v-5h-15v23.6h15v-3.6h82.2v57.7H519.7v-6.4h-15v6.4H427v15H601.8v31.8h15V904.9H762.6v70.8h15V889.8H616.8V651.3h522.8v809.4H1036.5v15h976.6v-15H1711.5v-15.6h-15v15.6h-282v-15.6h-15v15.6H1154.7v-308h244.8V1349h15v-45h1.8v-15h-1.8V1077h1.8v-15h-1.8v-5.3h-15v81.1H1154.7V898.4h244.8V1001h15V878.7h-15v4.8H1154.7V651.4h179.9v149h65v16.8h15V800.4h3.2v-15h-68.1v-134h276.6v134H1476.4v15h4.1v202.1h15V800.3h201.2V1062H1495.5v-3.8h-15v3.8H1475v15h69v212.1h-68.5v15h128v-15H1559V1077h137.6v212.1h-32.3v15h32.3v45h15v-45H1862v-15H1711.6V1077H1862v-15H1711.6V800.3h249.9V1062h-38.7v15h53.6V924.3h6.8v-15h-6.8v-109h268v109H2036.8v15h207.6v364.8H1922.8v15h321.6v45h15V800.4h432.3v660.4h-36.8v15H2882v-15h-10V1387h-15v73.8H2706.7V1220h42.2v-15h-42.2v-62.3h150.4V1205h-61v15h61.1v111.3h15V964.5h-15v163.3H2706.9V800.3H2857V908.9h15V800.3ZM1565.7,2448.6V1782.7h355.7v665.9ZM5469.6,760H4550.2v25.4H1641v-149H601.6V764.9l-571.2-.1V30.4H5469.6Z" style="fill:#b7b7b7"/><polygon points="4243.2 1460.7 3801.2 1460.7 3801.2 1475.7 4281.3 1475.7 4281.3 1460.7 4258.1 1460.7 4243.2 1460.7" style="fill:#b7b7b7"/><line x1="1155.5" y1="1671" x2="1155.5" y2="1752.4" style="fill:none;stroke:#b7b7b7;stroke-miterlimit:10;stroke-width:5px"/><path d="M1157.4,1754.3H819.9l37.3-85.1h300.2Zm-331.7-3.8h328v-77.6h-294Z" style="fill:#b7b7b7"/><rect x="841.2" y="1709.8" width="314.8" height="3.8" style="fill:#b7b7b7"/><rect x="930.4" y="1671" width="3.8" height="81.4" style="fill:#b7b7b7"/><rect x="912.1" y="1671" width="3.8" height="81.4" style="fill:#b7b7b7"/><rect x="893.8" y="1671" width="3.8" height="81.4" style="fill:#b7b7b7"/><rect x="875.5" y="1671" width="3.8" height="81.4" style="fill:#b7b7b7"/><rect x="857.2" y="1671" width="3.8" height="81.4" style="fill:#b7b7b7"/><rect x="839" y="1711.5" width="3.8" height="40.9" style="fill:#b7b7b7"/><rect x="847.55" y="1709.63" width="3.8" height="44.6" transform="translate(-633.14 497.8) rotate(-24.1)" style="fill:#b7b7b7"/><rect x="1135" y="1671" width="3.8" height="81.4" style="fill:#b7b7b7"/><rect x="1116.4" y="1671" width="3.8" height="81.4" style="fill:#b7b7b7"/><rect x="1097.8" y="1671" width="3.8" height="81.4" style="fill:#b7b7b7"/><rect x="1079.3" y="1671" width="3.8" height="81.4" style="fill:#b7b7b7"/><rect x="1060.6" y="1671" width="3.8" height="81.4" style="fill:#b7b7b7"/><rect x="1042.1" y="1671" width="3.8" height="81.4" style="fill:#b7b7b7"/><rect x="1023.5" y="1671" width="3.8" height="81.4" style="fill:#b7b7b7"/><line x1="1536.9" y1="1671" x2="1536.9" y2="1752.4" style="fill:none;stroke:#b7b7b7;stroke-miterlimit:10;stroke-width:5px"/><path d="M1538.8,1754.3H1405v-85.1h133.8Zm-130.1-3.8H1535v-77.6H1408.7Z" style="fill:#b7b7b7"/><rect x="1407.1" y="1709.8" width="128.7" height="3.8" style="fill:#b7b7b7"/><rect x="1414.45" y="1709.94" width="3.8" height="44.5" transform="translate(-582.26 726.17) rotate(-24.01)" style="fill:#b7b7b7"/><rect x="1516.4" y="1671" width="3.8" height="81.4" style="fill:#b7b7b7"/><rect x="1497.9" y="1671" width="3.8" height="81.4" style="fill:#b7b7b7"/><rect x="1479.2" y="1671" width="3.8" height="81.4" style="fill:#b7b7b7"/><rect x="1460.6" y="1671" width="3.8" height="81.4" style="fill:#b7b7b7"/><rect x="1442.1" y="1671" width="3.8" height="81.4" style="fill:#b7b7b7"/><rect x="1423.5" y="1671" width="3.8" height="81.4" style="fill:#b7b7b7"/><path d="M4888.4,1754.3H4550.9v-85.1h300.2Zm-333.8-3.8h328l-34-77.6h-294Z" style="fill:#b7b7b7"/><rect x="4552.3" y="1709.8" width="314.8" height="3.8" style="fill:#b7b7b7"/><rect x="4774.1" y="1671" width="3.8" height="81.4" style="fill:#b7b7b7"/><rect x="4792.4" y="1671" width="3.8" height="81.4" style="fill:#b7b7b7"/><rect x="4810.7" y="1671" width="3.8" height="81.4" style="fill:#b7b7b7"/><rect x="4829" y="1671" width="3.8" height="81.4" style="fill:#b7b7b7"/><rect x="4847.3" y="1671" width="3.8" height="81.4" style="fill:#b7b7b7"/><rect x="4865.5" y="1711.5" width="3.8" height="40.9" style="fill:#b7b7b7"/><rect x="4835.94" y="1730.08" width="44.6" height="3.8" transform="translate(1294 5460.05) rotate(-65.91)" style="fill:#b7b7b7"/><rect x="4550.9" y="1671" width="3.8" height="81.4" style="fill:#b7b7b7"/><rect x="4569.5" y="1671" width="3.8" height="81.4" style="fill:#b7b7b7"/><rect x="4588.1" y="1671" width="3.8" height="81.4" style="fill:#b7b7b7"/><rect x="4606.7" y="1671" width="3.8" height="81.4" style="fill:#b7b7b7"/><rect x="4625.2" y="1671" width="3.8" height="81.4" style="fill:#b7b7b7"/><rect x="4643.8" y="1671" width="3.8" height="81.4" style="fill:#b7b7b7"/><rect x="4662.5" y="1671" width="3.8" height="81.4" style="fill:#b7b7b7"/><rect x="4681" y="1671" width="3.8" height="81.4" style="fill:#b7b7b7"/><polygon points="733.7 1648.7 595.7 1648.7 595.7 1644.9 730 1644.9 730 1544.6 599.8 1544.6 599.8 1540.9 733.7 1540.8 733.7 1648.7" style="fill:#b7b7b7"/><rect x="674.2" y="1592.9" width="57.2" height="3.8" style="fill:#b7b7b7"/><rect x="710.1" y="1542.7" width="3.8" height="104.1" style="fill:#b7b7b7"/><rect x="691.1" y="1542.7" width="3.8" height="104.1" style="fill:#b7b7b7"/><polygon points="691.1 1647.4 671.9 1594.8 691.1 1541.2 694.7 1542.5 675.9 1594.8 694.6 1646.2 691.1 1647.4" style="fill:#b7b7b7"/><rect x="672" y="1542.8" width="3.8" height="104.1" style="fill:#b7b7b7"/><polygon points="1950.5 1756 1934.7 1756 1934.7 1669.3 1405.2 1669.3 1405.2 1654.3 1950.5 1654.3 1950.5 1756" style="fill:#b7b7b7"/><polygon points="540 1541.1 540 1556.1 588.1 1556.1 588.1 1561.1 603.1 1561.1 603.1 1475.6 911.6 1475.6 911.6 1460.6 856.6 1460.6 856.6 1065 777.6 1065 777.6 1055.4 762.6 1055.4 762.6 1065 725.4 1065 725.4 1080 841.7 1080 841.7 1460.6 544.6 1460.6 544.6 1080 649 1080 649 1065 616.8 1065 616.8 1054.6 601.8 1054.6 601.8 1065 529.6 1065 529.6 1475.7 588.1 1475.7 588.1 1541.1 540 1541.1" style="fill:#b7b7b7"/><path d="M4483,1101.9v-15h-56.8v-21.8h-15v395.7h-5v15h283.9v-15h-45.9V1101.1h26.3v-15h-41.4v374.8H4482.9Zm-15,88.1v270.7h-41.8V1101.9H4468Z" style="fill:#b7b7b7"/><rect x="3247.2" y="1460.8" width="188.9" height="15" style="fill:#b7b7b7"/><polygon points="2244.3 1475.8 2259.2 1475.8 2318.7 1475.8 2318.7 1460.7 2259.2 1460.7 2259.2 1445.1 2244.3 1445.1 2244.3 1460.7 2137.9 1460.7 2137.9 1475.8 2244.3 1475.8" style="fill:#b7b7b7"/></g></svg>