<?xml version="1.0" encoding="utf-8"?>
<!-- Generator: Adobe Illustrator 26.4.1, SVG Export Plug-In . SVG Version: 6.00 Build 0)  -->
<svg version="1.1" id="Livello_1" xmlns="http://www.w3.org/2000/svg" xmlns:xlink="http://www.w3.org/1999/xlink" x="0px" y="0px"
	 viewBox="0 0 5500 2479" style="enable-background:new 0 0 5500 2479;" xml:space="preserve">
<pattern  y="2479" width="57" height="57" patternUnits="userSpaceOnUse" id="locale_tecnico-a_00000080920724" viewBox="71.1 -128.1 57 57" style="overflow:visible;">
	<g>
		<rect x="71.1" y="-128.1" style="fill:none;" width="57" height="57"/>
		<g>
			<rect x="71.1" y="-128.1" style="fill:none;" width="57" height="57"/>
			<g>
				<rect x="71.1" y="-128.1" style="fill:none;" width="57" height="57"/>
				<g>
					<rect x="71.1" y="-128.1" style="fill:none;" width="57" height="57"/>
					<g>
						<rect x="71.1" y="-128.1" style="fill:none;" width="57" height="57"/>
						<g>
							<rect x="71.1" y="-128.1" style="fill:none;" width="57" height="57"/>
							<g>
								<rect x="71.1" y="-128.1" style="fill:none;" width="57" height="57"/>
								<g>
									<rect x="71.1" y="-128.1" style="fill:none;" width="57" height="57"/>
									<rect x="71.1" y="-128.1" style="fill:none;" width="57" height="57"/>
									<rect x="71.1" y="-128.1" style="fill:none;" width="57" height="57"/>
									<rect x="71.1" y="-128.1" style="fill:none;" width="57" height="57"/>
									<rect x="71.1" y="-128.1" style="fill:none;" width="57" height="57"/>
									<rect x="71.1" y="-128.1" style="fill:none;" width="57" height="57"/>
									<rect x="71.1" y="-128.1" style="fill:none;" width="57" height="57"/>
									<rect x="71.1" y="-128.1" style="fill:none;" width="57" height="57"/>
									<rect x="71.1" y="-128.1" style="fill:none;" width="57" height="57"/>
									<rect x="71.1" y="-128.1" style="fill:none;" width="57" height="57"/>
									<rect x="71.1" y="-128.1" style="fill:none;" width="57" height="57"/>
									<rect x="71.1" y="-128.1" style="fill:none;" width="57" height="57"/>
									<rect x="71.1" y="-128.1" style="fill:none;" width="57" height="57"/>
									<rect x="71.1" y="-128.1" style="fill:none;" width="57" height="57"/>
									<rect x="71.1" y="-128.1" style="fill:none;" width="57" height="57"/>
									<rect x="124.1" y="-181.1" style="fill:#F2F2F2;" width="60" height="58"/>
									
										<line style="fill:none;stroke:#DDDDDD;stroke-width:20;stroke-linecap:square;stroke-linejoin:round;" x1="128.1" y1="-128.1" x2="185.1" y2="-185.1"/>
									<rect x="67.1" y="-181.1" style="fill:#F2F2F2;" width="60" height="58"/>
									
										<line style="fill:none;stroke:#DDDDDD;stroke-width:20;stroke-linecap:square;stroke-linejoin:round;" x1="71.1" y1="-128.1" x2="128.1" y2="-185.1"/>
									
										<line style="fill:none;stroke:#DDDDDD;stroke-width:20;stroke-linecap:square;stroke-linejoin:round;" x1="14.1" y1="-128.1" x2="71.1" y2="-185.1"/>
									<rect x="124.1" y="-124.1" style="fill:#F2F2F2;" width="60" height="58"/>
									
										<line style="fill:none;stroke:#DDDDDD;stroke-width:20;stroke-linecap:square;stroke-linejoin:round;" x1="128.1" y1="-71.1" x2="185.1" y2="-128.1"/>
									<rect x="67.1" y="-124.1" style="fill:#F2F2F2;" width="60" height="58"/>
									
										<line style="fill:none;stroke:#DDDDDD;stroke-width:20;stroke-linecap:square;stroke-linejoin:round;" x1="71.1" y1="-71.1" x2="128.1" y2="-128.1"/>
									
										<line style="fill:none;stroke:#DDDDDD;stroke-width:20;stroke-linecap:square;stroke-linejoin:round;" x1="14.1" y1="-71.1" x2="71.1" y2="-128.1"/>
									
										<line style="fill:none;stroke:#DDDDDD;stroke-width:20;stroke-linecap:square;stroke-linejoin:round;" x1="128.1" y1="-14.1" x2="185.1" y2="-71.1"/>
									
										<line style="fill:none;stroke:#DDDDDD;stroke-width:20;stroke-linecap:square;stroke-linejoin:round;" x1="71.1" y1="-14.1" x2="128.1" y2="-71.1"/>
									
										<line style="fill:none;stroke:#DDDDDD;stroke-width:20;stroke-linecap:square;stroke-linejoin:round;" x1="14.1" y1="-14.1" x2="71.1" y2="-71.1"/>
								</g>
							</g>
						</g>
					</g>
				</g>
			</g>
		</g>
	</g>
</pattern>
<pattern  y="2479" width="57" height="57" patternUnits="userSpaceOnUse" id="locale_tecnico-b_00000102536830" viewBox="71.1 -128.1 57 57" style="overflow:visible;">
	<g>
		<rect x="71.1" y="-128.1" style="fill:none;" width="57" height="57"/>
		<g>
			<rect x="71.1" y="-128.1" style="fill:none;" width="57" height="57"/>
			<g>
				<rect x="71.1" y="-128.1" style="fill:none;" width="57" height="57"/>
				<g>
					<rect x="71.1" y="-128.1" style="fill:none;" width="57" height="57"/>
					<g>
						<rect x="71.1" y="-128.1" style="fill:none;" width="57" height="57"/>
						<g>
							<rect x="71.1" y="-128.1" style="fill:none;" width="57" height="57"/>
							<g>
								<rect x="71.1" y="-128.1" style="fill:none;" width="57" height="57"/>
								<g>
									<rect x="71.1" y="-128.1" style="fill:none;" width="57" height="57"/>
									<rect x="71.1" y="-128.1" style="fill:none;" width="57" height="57"/>
									<rect x="71.1" y="-128.1" style="fill:none;" width="57" height="57"/>
									<rect x="71.1" y="-128.1" style="fill:none;" width="57" height="57"/>
									<rect x="71.1" y="-128.1" style="fill:none;" width="57" height="57"/>
									<rect x="71.1" y="-128.1" style="fill:none;" width="57" height="57"/>
									<rect x="71.1" y="-128.1" style="fill:none;" width="57" height="57"/>
									<rect x="71.1" y="-128.1" style="fill:none;" width="57" height="57"/>
									<rect x="71.1" y="-128.1" style="fill:none;" width="57" height="57"/>
									<rect x="71.1" y="-128.1" style="fill:none;" width="57" height="57"/>
									<rect x="71.1" y="-128.1" style="fill:none;" width="57" height="57"/>
									<rect x="71.1" y="-128.1" style="fill:none;" width="57" height="57"/>
									<rect x="71.1" y="-128.1" style="fill:none;" width="57" height="57"/>
									<rect x="71.1" y="-128.1" style="fill:none;" width="57" height="57"/>
									<rect x="71.1" y="-128.1" style="fill:none;" width="57" height="57"/>
									<rect x="124.1" y="-181.1" style="fill:#F2F2F2;" width="60" height="58"/>
									
										<line style="fill:none;stroke:#DDDDDD;stroke-width:20;stroke-linecap:square;stroke-linejoin:round;" x1="128.1" y1="-128.1" x2="185.1" y2="-185.1"/>
									<rect x="67.1" y="-181.1" style="fill:#F2F2F2;" width="60" height="58"/>
									
										<line style="fill:none;stroke:#DDDDDD;stroke-width:20;stroke-linecap:square;stroke-linejoin:round;" x1="71.1" y1="-128.1" x2="128.1" y2="-185.1"/>
									
										<line style="fill:none;stroke:#DDDDDD;stroke-width:20;stroke-linecap:square;stroke-linejoin:round;" x1="14.1" y1="-128.1" x2="71.1" y2="-185.1"/>
									<rect x="124.1" y="-124.1" style="fill:#F2F2F2;" width="60" height="58"/>
									
										<line style="fill:none;stroke:#DDDDDD;stroke-width:20;stroke-linecap:square;stroke-linejoin:round;" x1="128.1" y1="-71.1" x2="185.1" y2="-128.1"/>
									<rect x="67.1" y="-124.1" style="fill:#F2F2F2;" width="60" height="58"/>
									
										<line style="fill:none;stroke:#DDDDDD;stroke-width:20;stroke-linecap:square;stroke-linejoin:round;" x1="71.1" y1="-71.1" x2="128.1" y2="-128.1"/>
									
										<line style="fill:none;stroke:#DDDDDD;stroke-width:20;stroke-linecap:square;stroke-linejoin:round;" x1="14.1" y1="-71.1" x2="71.1" y2="-128.1"/>
									
										<line style="fill:none;stroke:#DDDDDD;stroke-width:20;stroke-linecap:square;stroke-linejoin:round;" x1="128.1" y1="-14.1" x2="185.1" y2="-71.1"/>
									
										<line style="fill:none;stroke:#DDDDDD;stroke-width:20;stroke-linecap:square;stroke-linejoin:round;" x1="71.1" y1="-14.1" x2="128.1" y2="-71.1"/>
									
										<line style="fill:none;stroke:#DDDDDD;stroke-width:20;stroke-linecap:square;stroke-linejoin:round;" x1="14.1" y1="-14.1" x2="71.1" y2="-71.1"/>
								</g>
							</g>
						</g>
					</g>
				</g>
			</g>
		</g>
	</g>
</pattern>
<pattern  y="2479" width="57" height="57" patternUnits="userSpaceOnUse" id="locale_tecnico-c_00000183220899" viewBox="71.1 -128.1 57 57" style="overflow:visible;">
	<g>
		<rect x="71.1" y="-128.1" style="fill:none;" width="57" height="57"/>
		<g>
			<rect x="71.1" y="-128.1" style="fill:none;" width="57" height="57"/>
			<g>
				<rect x="71.1" y="-128.1" style="fill:none;" width="57" height="57"/>
				<g>
					<rect x="71.1" y="-128.1" style="fill:none;" width="57" height="57"/>
					<g>
						<rect x="71.1" y="-128.1" style="fill:none;" width="57" height="57"/>
						<g>
							<rect x="71.1" y="-128.1" style="fill:none;" width="57" height="57"/>
							<g>
								<rect x="71.1" y="-128.1" style="fill:none;" width="57" height="57"/>
								<g>
									<rect x="71.1" y="-128.1" style="fill:none;" width="57" height="57"/>
									<rect x="71.1" y="-128.1" style="fill:none;" width="57" height="57"/>
									<rect x="71.1" y="-128.1" style="fill:none;" width="57" height="57"/>
									<rect x="71.1" y="-128.1" style="fill:none;" width="57" height="57"/>
									<rect x="71.1" y="-128.1" style="fill:none;" width="57" height="57"/>
									<rect x="71.1" y="-128.1" style="fill:none;" width="57" height="57"/>
									<rect x="71.1" y="-128.1" style="fill:none;" width="57" height="57"/>
									<rect x="71.1" y="-128.1" style="fill:none;" width="57" height="57"/>
									<rect x="71.1" y="-128.1" style="fill:none;" width="57" height="57"/>
									<rect x="71.1" y="-128.1" style="fill:none;" width="57" height="57"/>
									<rect x="71.1" y="-128.1" style="fill:none;" width="57" height="57"/>
									<rect x="71.1" y="-128.1" style="fill:none;" width="57" height="57"/>
									<rect x="71.1" y="-128.1" style="fill:none;" width="57" height="57"/>
									<rect x="71.1" y="-128.1" style="fill:none;" width="57" height="57"/>
									<rect x="71.1" y="-128.1" style="fill:none;" width="57" height="57"/>
									<rect x="124.1" y="-181.1" style="fill:#F2F2F2;" width="60" height="58"/>
									
										<line style="fill:none;stroke:#DDDDDD;stroke-width:20;stroke-linecap:square;stroke-linejoin:round;" x1="128.1" y1="-128.1" x2="185.1" y2="-185.1"/>
									<rect x="67.1" y="-181.1" style="fill:#F2F2F2;" width="60" height="58"/>
									
										<line style="fill:none;stroke:#DDDDDD;stroke-width:20;stroke-linecap:square;stroke-linejoin:round;" x1="71.1" y1="-128.1" x2="128.1" y2="-185.1"/>
									
										<line style="fill:none;stroke:#DDDDDD;stroke-width:20;stroke-linecap:square;stroke-linejoin:round;" x1="14.1" y1="-128.1" x2="71.1" y2="-185.1"/>
									<rect x="124.1" y="-124.1" style="fill:#F2F2F2;" width="60" height="58"/>
									
										<line style="fill:none;stroke:#DDDDDD;stroke-width:20;stroke-linecap:square;stroke-linejoin:round;" x1="128.1" y1="-71.1" x2="185.1" y2="-128.1"/>
									<rect x="67.1" y="-124.1" style="fill:#F2F2F2;" width="60" height="58"/>
									
										<line style="fill:none;stroke:#DDDDDD;stroke-width:20;stroke-linecap:square;stroke-linejoin:round;" x1="71.1" y1="-71.1" x2="128.1" y2="-128.1"/>
									
										<line style="fill:none;stroke:#DDDDDD;stroke-width:20;stroke-linecap:square;stroke-linejoin:round;" x1="14.1" y1="-71.1" x2="71.1" y2="-128.1"/>
									
										<line style="fill:none;stroke:#DDDDDD;stroke-width:20;stroke-linecap:square;stroke-linejoin:round;" x1="128.1" y1="-14.1" x2="185.1" y2="-71.1"/>
									
										<line style="fill:none;stroke:#DDDDDD;stroke-width:20;stroke-linecap:square;stroke-linejoin:round;" x1="71.1" y1="-14.1" x2="128.1" y2="-71.1"/>
									
										<line style="fill:none;stroke:#DDDDDD;stroke-width:20;stroke-linecap:square;stroke-linejoin:round;" x1="14.1" y1="-14.1" x2="71.1" y2="-71.1"/>
								</g>
							</g>
						</g>
					</g>
				</g>
			</g>
		</g>
	</g>
</pattern>
<g id="pavimento_grigio">
	<rect x="4629.2" y="774.9" style="fill:#F2F2F2;" width="480.6" height="451.4"/>
	<rect id="grigio" x="30.4" y="780" style="fill:#F2F2F2;" width="586.4" height="447.8"/>
</g>
<pattern  id="locale_tecnico-c_00000080206601130711379580000005906653848935535252_" xlink:href="#locale_tecnico-c_00000183220899" patternTransform="matrix(-0.45 0 0 0.45 -107747.0391 58206.918)">
</pattern>
<polygon id="locale_tecnico-c" style="fill:url(#locale_tecnico-c_00000080206601130711379580000005906653848935535252_);" points="
	4426.3,1190 4426.3,1101.9 4468.1,1101.9 4468.1,1190 4468.1,1205 4468.1,1460.7 4426.3,1460.7 4426.3,1205 "/>
<pattern  id="locale_tecnico-b_00000143618294714776993800000011317137671208985276_" xlink:href="#locale_tecnico-b_00000102536830" patternTransform="matrix(-0.45 0 0 0.45 -107747.0391 58206.918)">
</pattern>
<rect id="locale_tecnico-b" x="1565.7" y="1782.8" style="fill:url(#locale_tecnico-b_00000143618294714776993800000011317137671208985276_);" width="355.7" height="665.9"/>
<pattern  id="locale_tecnico-a_00000174600762336643204200000011927510002801896098_" xlink:href="#locale_tecnico-a_00000080920724" patternTransform="matrix(-0.45 0 0 0.45 -107747.0391 58206.918)">
</pattern>
<polygon id="locale_tecnico-a" style="fill:url(#locale_tecnico-a_00000174600762336643204200000011927510002801896098_);" points="
	4550.2,759.9 4550.2,785.4 1641.2,785.4 1641.2,636.3 601.9,636.3 601.9,764.9 213.5,764.9 30.4,764.9 30.4,30.4 5469.6,30.4 
	5469.6,759.9 "/>
<g class="clickable" data-name="customclass" id="A2--1-30" style="display:none;">
	<polygon style="display:inline;fill:#DDDDDD;" points="2793.4,1351.2 2793.4,1678.7 2791.1,1678.7 2776.1,1678.7 2667.6,1678.7 
		2652.6,1678.7 2643,1678.7 2643,1351.2 	"/>
</g>
<g class="clickable" data-name="customclass" id="A2--1-22">
	<polygon id="D" style="fill:#F2F2F2;" points="616.8,764.9 616.8,651.4 1139.6,651.4 1139.6,883.4 1139.6,898.5 1139.6,1137.8 
		1139.6,1152.8 1139.6,1460.7 1127.3,1460.7 856.6,1460.7 856.6,1080.1 856.6,1065.1 841.6,1065.1 777.6,1065.1 777.6,904.8 
		777.6,889.8 762.6,889.8 616.8,889.8 616.8,872 616.8,857.1 616.8,779.9 	"/>
</g>
<g class="clickable" data-name="customclass" id="A2--1-21">
	<polyline style="fill:#F2F2F2;" points="777.6,904.8 777.6,1080.1 603.2,1080.1 603.2,948.5 603.2,932.1 603.2,904.8 	"/>
</g>
<g class="clickable" data-name="customclass" id="A2--1-13">
	<rect x="30.4" y="779.9" style="fill:#F2F2F2;" width="139.5" height="156.7"/>
</g>
<g class="clickable" data-name="customclass" id="A2--1-12-3">
	<rect x="519.6" y="779.9" style="fill:#F2F2F2;" width="82.2" height="77.2"/>
</g>
<g class="clickable" data-name="customclass" id="A2--1-12-2">
	<polygon style="fill:#F2F2F2;" points="519.6,929.8 519.6,872 601.8,872 601.8,889.8 601.8,904.8 601.8,929.8 	"/>
</g>
<g class="clickable" data-name="customclass" id="A2--1-12">
	<polygon style="fill:#F2F2F2;" points="339.7,929.8 339.7,779.9 504.6,779.9 504.6,857.1 504.6,872 504.6,929.8 	"/>
</g>
<g class="clickable" data-name="customclass" id="A2--1-11">
	<rect x="30.4" y="950.8" style="fill:#F2F2F2;" width="578.4" height="114.3"/>
</g>
<g class="clickable" data-name="customclass" id="A2--1-10-5-Z">
	<polygon id="z" style="fill:#F2F2F2;" points="446,1088.1 446,1080.1 529.6,1080.1 529.6,1475.8 446,1475.8 446,1103.7 	"/>
</g>
<g class="clickable" data-name="customclass" id="A2--1-10-5-Y">
	<polygon id="senza_codice-2" style="fill:#F2F2F2;" points="431,1541.2 431,1475.8 446,1475.8 529.6,1475.8 544.6,1475.8 
		588.2,1475.8 588.2,1541.2 	"/>
</g>
<g class="clickable" data-name="customclass" id="A2--1-10-5-X">
	<rect id="senza_codice" x="431" y="1540.8" style="fill:#F2F2F2;" width="157.2" height="211.5"/>
</g>
<g class="clickable" data-name="customclass" id="A2--1-10-5">
	<polygon style="fill:#F2F2F2;" points="544.6,1460.7 544.6,1080.1 571.8,1080.1 601.8,1080.1 616.8,1080.1 762.6,1080.1 
		777.6,1080.1 841.6,1080.1 841.6,1460.7 603.2,1460.7 588.2,1460.7 	"/>
</g>
<g class="clickable" data-name="customclass" id="A2--1-10-4">
	<polygon id="_x34__00000111906899126949449920000000570335062676166804_" style="fill:#F2F2F2;" points="1156.1,1461.4 
		1696.4,1461.4 1696.4,801.3 1626.3,801.4 1626.3,651.4 1154.8,652.4 1154.8,801.3 	"/>
</g>
<g class="clickable" data-name="customclass" id="A2--1-10-3-Z">
	
		<rect id="z_00000163065831911660412220000000489920149024521906_" x="1696.4" y="1289.1" style="fill:#F2F2F2;" width="556.4" height="171.6"/>
</g>
<g class="clickable" data-name="customclass" id="A2--1-10-3">
	<rect id="_x33_" x="1711.6" y="800.3" style="fill:#F2F2F2;" width="532.8" height="488.8"/>
</g>
<g class="clickable" data-name="customclass" id="A2--1-10-2">
	<rect id="_x32_" x="2252.8" y="800.4" style="fill:#F2F2F2;" width="604.2" height="660.8"/>
</g>
<g class="clickable" data-name="customclass" id="A2--1-08">
	<polygon style="fill:#DDDDDD;" points="2857.2,1058.3 2857.2,800.3 3330.3,800.3 3347.3,800.3 3441.5,800.3 3458.4,800.3 
		3958.3,800.3 3975.4,800.3 4080.9,800.3 4097.8,800.3 4411.3,800.3 4411.3,1460.7 2857.2,1460.7 2857.2,1220 2857.2,1205 
		2857.2,1142.8 2857.2,1127.8 2857.2,1073.3 	"/>
</g>
<g class="clickable" data-name="customclass" id="A2--1-06">
	<polygon style="fill:#F2F2F2;" points="4765.5,950.6 4765.5,774.9 4869.2,774.9 4869.2,858.9 4869.2,873.9 4869.2,950.6 	"/>
</g>
<g class="clickable" data-name="customclass" id="A2--1-05-3">
	<rect x="4884.1" y="774.9" style="fill:#F2F2F2;" width="80.8" height="84.1"/>
</g>
<g class="clickable" data-name="customclass" id="A2--1-05-2">
	<rect x="4884.1" y="873.9" style="fill:#F2F2F2;" width="80.8" height="76.8"/>
</g>
<g class="clickable" data-name="customclass" id="A2--1-05">
	<polygon style="fill:#F2F2F2;" points="4980,858.9 4980,774.9 5081.3,774.9 5096.2,774.9 5109.8,774.9 5109.8,790.3 5109.8,950.6 
		4980,950.6 4980,873.9 	"/>
</g>
<g class="clickable" data-name="customclass" id="A2--1-04">
	<rect x="4777.8" y="1101" style="fill:#DDDDDD;" width="332" height="112.2"/>
</g>
<g class="clickable" data-name="customclass" id="A2--1-03">
	<polygon style="fill:#F2F2F2;" points="4410.3,1086.9 4410.3,800.3 4463,800.3 4478,800.3 4550.3,800.3 4565.2,800.3 4565.2,785.4 
		4565.2,774.9 4750.6,774.9 4750.6,950.6 4750.6,965.7 4765.5,965.7 4869.2,965.7 4884.1,965.7 4965,965.7 4980,965.7 5109.8,965.7 
		5109.8,1086.1 4777.8,1086.1 4762.8,1086.1 4644.3,1086.1 4629.3,1086.1 4629.3,1101 4629.3,1190 4483.1,1190 4483.1,1101.9 
		4483.1,1086.9 4468.1,1086.9 	"/>
</g>
<g class="clickable" data-name="customclass" id="A2--1-LIFT-D">
	<rect id="a-2" x="4483" y="1101" style="fill:#F2F2F2;" width="146.2" height="359.7"/>
</g>
<g class="clickable" data-name="customclass" id="A2--1-STAIR-D">
	<polygon style="fill:#F2F2F2;" points="4777.8,1228.2 5109.8,1228.2 5109.8,1460.7 4644.3,1460.7 4644.3,1227.6 	"/>
	<g id="scala-2">
		
			<rect x="4898.4" y="1384.1" transform="matrix(0.3954 -0.9185 0.9185 0.3954 1706.1473 5364.0659)" style="fill:#B7B7B7;" width="58.4" height="3.8"/>
		<polygon style="fill:#B7B7B7;" points="5130.1,1465.4 4828.4,1465.4 4828.4,1355.4 5005.9,1355.4 5005.9,1333.7 4960,1333.7 
			4960,1330 5009.6,1330 5009.6,1359.2 4832.2,1359.2 4832.2,1461.7 5126.4,1461.7 5126.4,1230 4914.1,1230 4914.1,1226.3 
			5130.1,1226.3 		"/>
		<polygon style="fill:#B7B7B7;" points="5059.4,1414.2 4831.6,1414.2 4831.6,1410.4 5055.6,1410.4 5055.6,1283.5 4938.2,1283.5 
			4938.2,1279.7 5059.4,1279.7 		"/>
		<rect x="4958.5" y="1356.5" style="fill:#B7B7B7;" width="3.8" height="107.9"/>
		<rect x="4981" y="1356.5" style="fill:#B7B7B7;" width="3.8" height="107.9"/>
		<rect x="4936.5" y="1356.5" style="fill:#B7B7B7;" width="3.8" height="107.9"/>
		<rect x="5002.4" y="1228.2" style="fill:#B7B7B7;" width="3.8" height="103.7"/>
		<rect x="4981" y="1228.2" style="fill:#B7B7B7;" width="3.8" height="103.7"/>
		<rect x="4958.5" y="1228.2" style="fill:#B7B7B7;" width="3.8" height="103.7"/>
		<rect x="4936.5" y="1228.2" style="fill:#B7B7B7;" width="3.8" height="52.9"/>
		<polygon style="fill:#B7B7B7;" points="4958.6,1332.1 4936.4,1281.5 4958.6,1227.4 4962.1,1228.9 4940.5,1281.4 4962,1330.6 		"/>
		<rect x="4847.6" y="1356.5" style="fill:#B7B7B7;" width="3.8" height="107.9"/>
		<rect x="4892.6" y="1356.5" style="fill:#B7B7B7;" width="3.8" height="107.9"/>
		<rect x="4870.1" y="1356.5" style="fill:#B7B7B7;" width="3.8" height="107.9"/>
		<rect x="4915.1" y="1356.5" style="fill:#B7B7B7;" width="3.8" height="107.9"/>
		
			<rect x="4936.2" y="1224.2" transform="matrix(0.9136 -0.4066 0.4066 0.9136 -94.1499 2118.4854)" style="fill:#B7B7B7;" width="3.8" height="113.2"/>
	</g>
</g>
<g class="clickable" data-name="customclass" id="A2--1-LIFT-C">
	<rect id="a" x="30.4" y="1080.1" style="fill:#F2F2F2;" width="287.5" height="132.6"/>
</g>
<g class="clickable" data-name="customclass" id="A2--1-STAIR-C">
	<polygon style="fill:#F2F2F2;" points="431,1226.7 431,1460.7 400.6,1460.7 30.4,1460.7 30.4,1227.8 175.7,1227.8 190.8,1227.8 
		317.9,1227.8 332.9,1227.8 	"/>
	<g id="scala">
		<polygon style="fill:#B7B7B7;" points="314,1465.4 12.3,1465.4 12.3,1226.3 226.7,1226.3 226.7,1230 16.1,1230 16.1,1461.7 
			310.2,1461.7 310.2,1359.2 132.8,1359.2 132.8,1330 182.4,1330 182.4,1333.7 136.5,1333.7 136.5,1355.4 314,1355.4 		"/>
		<polygon style="fill:#B7B7B7;" points="310.8,1414.2 83,1414.2 83,1279.7 204.2,1279.7 204.2,1283.5 86.8,1283.5 86.8,1410.4 
			310.8,1410.4 		"/>
		<rect x="180.2" y="1356.5" style="fill:#B7B7B7;" width="3.8" height="107.9"/>
		<rect x="157.7" y="1356.5" style="fill:#B7B7B7;" width="3.8" height="107.9"/>
		<rect x="202.1" y="1356.5" style="fill:#B7B7B7;" width="3.8" height="107.9"/>
		<rect x="136.2" y="1228.2" style="fill:#B7B7B7;" width="3.8" height="103.7"/>
		<rect x="157.7" y="1228.2" style="fill:#B7B7B7;" width="3.8" height="103.7"/>
		<rect x="180.2" y="1228.2" style="fill:#B7B7B7;" width="3.8" height="103.7"/>
		<rect x="202.1" y="1228.2" style="fill:#B7B7B7;" width="3.8" height="52.9"/>
		<polygon style="fill:#B7B7B7;" points="183.8,1332.1 180.4,1330.6 201.9,1281.4 180.3,1228.9 183.8,1227.4 206,1281.5 		"/>
		<rect x="291.1" y="1356.5" style="fill:#B7B7B7;" width="3.8" height="107.9"/>
		<rect x="246" y="1356.5" style="fill:#B7B7B7;" width="3.8" height="107.9"/>
		<rect x="268.5" y="1356.5" style="fill:#B7B7B7;" width="3.8" height="107.9"/>
		<rect x="223.5" y="1356.5" style="fill:#B7B7B7;" width="3.8" height="107.9"/>
		
			<rect x="148.3" y="1278" transform="matrix(0.4027 -0.9153 0.9153 0.4027 -1049.5137 951.4647)" style="fill:#B7B7B7;" width="111.9" height="3.8"/>
	</g>
</g>
<g class="clickable" data-name="customclass" id="A2--1-STAIR-A">
	<polygon style="fill:#F2F2F2;" points="588.9,1529.4 588.9,1460.4 828.1,1460.4 843.1,1460.4 1114.7,1460.4 1127,1460.4 
		1142.1,1460.4 1387.6,1460.4 1402.7,1460.4 1685.6,1460.4 1700.7,1460.4 2235.2,1460.4 2250.2,1460.4 2683.9,1460.4 2699,1460.4 
		2849.9,1460.4 2864.9,1460.4 4240.5,1460.4 4255.5,1460.4 4409.1,1460.4 4424.1,1460.4 4466.1,1460.4 4481.1,1460.4 4627.8,1460.4 
		4642.8,1460.4 5109.8,1460.4 5109.8,1752.4 3222.1,1752.4 2901.7,1752.4 1941.7,1752.4 1911.2,1752.4 1725.3,1752.4 1710.2,1752.4 
		1554.4,1752.4 1523.9,1752.4 588.9,1752.4 588.9,1545.2 	"/>
</g>
<g class="clickable" data-building-code="P1" id="A2--1-P1--1" data-floor-code="-1">	
	<rect id="room-box-29" x="401.3" y="1782.8" style="fill:none;stroke:#F2F2F2;stroke-miterlimit:10;" width="187.6" height="202.3"/>
	<path style="fill:#FFFFFF;stroke:#303030;" d="M495,1827.6c-31.1-0.1-56.4,25-56.5,56.1l0,0v0.1l0,0v0.1
		c0,31.2,25.3,56.6,56.5,56.6s56.6-25.3,56.6-56.5l0,0l0,0v-0.1c0-31.1-25.3-56.3-56.4-56.3l0,0L495,1827.6"/>
	<path d="M486.5,1890.7h6.6c9.9,0,14.1-4.1,14.1-11.6c0-6.4-3.8-10.9-13.8-10.9h-6.9L486.5,1890.7z M479.9,1919v-56.3h14.2
		c11.4,0,19.9,5.5,19.9,16.2s-7.7,17.4-20.8,17.4h-6.6v22.8L479.9,1919z M530.3,1866.5l-35.2-12.8l-35.3,12.8l-1.6-4.3l36.8-13.3
		l36.8,13.3L530.3,1866.5z"/>
</g>
<g id="muri">
	<polygon style="fill:#B7B7B7;" points="2872.2,1331.3 2872.2,964.5 2857.2,964.5 2857.2,1127.8 2857.1,1142.7 2857.1,1205 
		2857.2,1220 2857.2,1331.3 	"/>
	<g>
		<polygon style="fill:#B7B7B7;" points="2654.9,1460.8 2654.9,1475.8 4407,1475.8 4407,1460.8 2872,1460.8 2872,1387 2857,1387 
			2857,1460.8 		"/>
	</g>
	<path style="fill:#B7B7B7;" d="M2706.9,800.3H2857v108.6h15V800.3h1539.2v163.1h15V800.3h139v-25.4h185.3v190.8h20.4v-15h-5.4
		V774.9H4869v175.8h-43v15h196.2v-15H4980v-27.3h-15v27.2h-80.9v-76.8h80.9v2.7h15v-23.2h-15v5.4h-80.8v-84.1h80.8v31.8h15v-31.8
		h129.9v175.8h-30v15h30v120.4h-72.2v15h72.2V1213h-332v-112.1h204.9v-15h-230.3v15h10.5v127.2h347v232.6h-355.2v15H5110v276.6
		H603.2v-120.4h-15v120.4h-46.7v30.4h993.8V2479h416.5v-696.2h3188.6V790.3H5500V0H0v1491.2h400.6v291.6h55.9v-30.5h-25.4v-196.2
		h27.7v-15h-27.7v-65.4h15l-0.1-410.5h-33.1v15h18.2v380.6H30.4v-233H333v-147.7h3.6v-15H175.7v15h142.2v132.6H30.4V951.6h35v-15
		h-35V780h139.5v156.6h-54.1v15h69V780h140v164.8h51.8v-15h-36.8V780h164.9v24.5h15V780h82.2v77.2h-82.2v-5h-15v23.6h15v-3.6h82.2
		v57.7h-82.2v-6.4h-15v6.4H427v15h174.8v31.8h15v-71.8h145.8v70.8h15v-85.9H616.8V651.3h522.8v809.4h-103.1v15h976.6v-15h-858.4
		V651.4l196-1h275.6v150l70.4-0.1V1062l-0.1,15v272.1h15v-45H1862v-15h-150.4V800.3h532.8v488.8h-301.6v15h301.6v45h15V800.4h432.3
		L2706.9,800.3z M1921.4,2448.6h-355.7v-665.9h355.7L1921.4,2448.6L1921.4,2448.6z M30.4,30.4h5439.2V760h-919.4v25.4H1641v-149
		H601.6v128.5l-571.2-0.1L30.4,30.4L30.4,30.4z"/>
	<line style="fill:none;stroke:#B7B7B7;stroke-width:5;stroke-miterlimit:10;" x1="1155.5" y1="1671" x2="1155.5" y2="1752.4"/>
	<path style="fill:#B7B7B7;" d="M1157.4,1754.3H819.9l37.3-85.1h300.2V1754.3z M825.7,1750.5h328v-77.6h-294L825.7,1750.5z"/>
	<rect x="841.2" y="1709.8" style="fill:#B7B7B7;" width="314.8" height="3.8"/>
	<rect x="930.4" y="1671" style="fill:#B7B7B7;" width="3.8" height="81.4"/>
	<rect x="912.1" y="1671" style="fill:#B7B7B7;" width="3.8" height="81.4"/>
	<rect x="893.8" y="1671" style="fill:#B7B7B7;" width="3.8" height="81.4"/>
	<rect x="875.5" y="1671" style="fill:#B7B7B7;" width="3.8" height="81.4"/>
	<rect x="857.2" y="1671" style="fill:#B7B7B7;" width="3.8" height="81.4"/>
	<rect x="839" y="1711.5" style="fill:#B7B7B7;" width="3.8" height="40.9"/>
	
		<rect x="847.3" y="1709.5" transform="matrix(0.9128 -0.4083 0.4083 0.9128 -633.1132 497.7096)" style="fill:#B7B7B7;" width="3.8" height="44.6"/>
	<rect x="1135" y="1671" style="fill:#B7B7B7;" width="3.8" height="81.4"/>
	<rect x="1116.4" y="1671" style="fill:#B7B7B7;" width="3.8" height="81.4"/>
	<rect x="1097.8" y="1671" style="fill:#B7B7B7;" width="3.8" height="81.4"/>
	<rect x="1079.3" y="1671" style="fill:#B7B7B7;" width="3.8" height="81.4"/>
	<rect x="1060.6" y="1671" style="fill:#B7B7B7;" width="3.8" height="81.4"/>
	<rect x="1042.1" y="1671" style="fill:#B7B7B7;" width="3.8" height="81.4"/>
	<rect x="1023.5" y="1671" style="fill:#B7B7B7;" width="3.8" height="81.4"/>
	<line style="fill:none;stroke:#B7B7B7;stroke-width:5;stroke-miterlimit:10;" x1="1536.9" y1="1671" x2="1536.9" y2="1752.4"/>
	<path style="fill:#B7B7B7;" d="M1538.8,1754.3H1405v-85.1h133.8V1754.3z M1408.7,1750.5H1535v-77.6h-126.3V1750.5z"/>
	<rect x="1407.1" y="1709.8" style="fill:#B7B7B7;" width="128.7" height="3.8"/>
	
		<rect x="1414.4" y="1709.9" transform="matrix(0.9135 -0.4069 0.4069 0.9135 -582.2664 726.1664)" style="fill:#B7B7B7;" width="3.8" height="44.5"/>
	<rect x="1516.4" y="1671" style="fill:#B7B7B7;" width="3.8" height="81.4"/>
	<rect x="1497.9" y="1671" style="fill:#B7B7B7;" width="3.8" height="81.4"/>
	<rect x="1479.2" y="1671" style="fill:#B7B7B7;" width="3.8" height="81.4"/>
	<rect x="1460.6" y="1671" style="fill:#B7B7B7;" width="3.8" height="81.4"/>
	<rect x="1442.1" y="1671" style="fill:#B7B7B7;" width="3.8" height="81.4"/>
	<rect x="1423.5" y="1671" style="fill:#B7B7B7;" width="3.8" height="81.4"/>
	<path style="fill:#B7B7B7;" d="M4888.4,1754.3h-337.5v-85.1h300.2L4888.4,1754.3z M4554.6,1750.5h328l-34-77.6h-294V1750.5z"/>
	<rect x="4552.3" y="1709.8" style="fill:#B7B7B7;" width="314.8" height="3.8"/>
	<rect x="4774.1" y="1671" style="fill:#B7B7B7;" width="3.8" height="81.4"/>
	<rect x="4792.4" y="1671" style="fill:#B7B7B7;" width="3.8" height="81.4"/>
	<rect x="4810.7" y="1671" style="fill:#B7B7B7;" width="3.8" height="81.4"/>
	<rect x="4829" y="1671" style="fill:#B7B7B7;" width="3.8" height="81.4"/>
	<rect x="4847.3" y="1671" style="fill:#B7B7B7;" width="3.8" height="81.4"/>
	<rect x="4865.5" y="1711.5" style="fill:#B7B7B7;" width="3.8" height="40.9"/>
	
		<rect x="4836" y="1730" transform="matrix(0.4082 -0.9129 0.9129 0.4082 1294.1102 5460.0454)" style="fill:#B7B7B7;" width="44.6" height="3.8"/>
	<rect x="4550.9" y="1671" style="fill:#B7B7B7;" width="3.8" height="81.4"/>
	<rect x="4569.5" y="1671" style="fill:#B7B7B7;" width="3.8" height="81.4"/>
	<rect x="4588.1" y="1671" style="fill:#B7B7B7;" width="3.8" height="81.4"/>
	<rect x="4606.7" y="1671" style="fill:#B7B7B7;" width="3.8" height="81.4"/>
	<rect x="4625.2" y="1671" style="fill:#B7B7B7;" width="3.8" height="81.4"/>
	<rect x="4643.8" y="1671" style="fill:#B7B7B7;" width="3.8" height="81.4"/>
	<rect x="4662.5" y="1671" style="fill:#B7B7B7;" width="3.8" height="81.4"/>
	<rect x="4681" y="1671" style="fill:#B7B7B7;" width="3.8" height="81.4"/>
	<polygon style="fill:#B7B7B7;" points="733.7,1648.7 595.7,1648.7 595.7,1644.9 730,1644.9 730,1544.6 599.8,1544.6 599.8,1540.9 
		733.7,1540.8 	"/>
	<rect x="674.2" y="1592.9" style="fill:#B7B7B7;" width="57.2" height="3.8"/>
	<rect x="710.1" y="1542.7" style="fill:#B7B7B7;" width="3.8" height="104.1"/>
	<rect x="691.1" y="1542.7" style="fill:#B7B7B7;" width="3.8" height="104.1"/>
	<polygon style="fill:#B7B7B7;" points="691.1,1647.4 671.9,1594.8 691.1,1541.2 694.7,1542.5 675.9,1594.8 694.6,1646.2 	"/>
	<rect x="672" y="1542.8" style="fill:#B7B7B7;" width="3.8" height="104.1"/>
	<polygon style="fill:#B7B7B7;" points="1950.5,1756 1934.7,1756 1934.7,1669.3 1405.2,1669.3 1405.2,1654.3 1950.5,1654.3 	"/>
	<polygon style="fill:#B7B7B7;" points="540,1541.1 540,1556.1 588.1,1556.1 588.1,1561.1 603.1,1561.1 603.1,1475.6 911.6,1475.6 
		911.6,1460.6 856.6,1460.6 856.6,1065 777.6,1065 777.6,1055.4 762.6,1055.4 762.6,1065 725.4,1065 725.4,1080 841.7,1080 
		841.7,1460.6 544.6,1460.6 544.6,1080 649,1080 649,1065 616.8,1065 616.8,1054.6 601.8,1054.6 601.8,1065 529.6,1065 
		529.6,1475.7 588.1,1475.7 588.1,1541.1 	"/>
	<path style="fill:#B7B7B7;" d="M4483,1101.9v-15h-56.8v-21.8h-15v395.7h-5v15h283.9v-15h-45.9v-359.7h26.3v-15h-41.4v374.8h-146.2
		L4483,1101.9z M4468,1190v270.7h-41.8v-358.8h41.8V1190z"/>
	<polygon style="fill:#B7B7B7;" points="2244.3,1460.7 2137.9,1460.7 2137.9,1475.8 2244.3,1475.8 2259.2,1475.8 2658.7,1475.8 
		2658.7,1460.7 2259.2,1460.7 	"/>
</g>
</svg>
