<?xml version="1.0" encoding="utf-8"?>
<!-- Generator: Adobe Illustrator 25.4.1, SVG Export Plug-In . SVG Version: 6.00 Build 0)  -->
<svg version="1.1" id="Livello_1" xmlns="http://www.w3.org/2000/svg" xmlns:xlink="http://www.w3.org/1999/xlink" x="0px" y="0px"
	 viewBox="0 0 5500 2479.1" style="enable-background:new 0 0 5500 2479.1;" xml:space="preserve">
<style type="text/css">
	.st0{fill:none;}
	.st1{fill:#F2F2F2;}
	.st2{fill:none;stroke:#DDDDDD;stroke-width:20;stroke-linecap:square;stroke-linejoin:round;}
	.st3{fill:url(#locale_tecnico-5_00000067234685148419458980000001082929288705727166_);}
	.st4{fill:url(#locale_tecnico-10_00000112633509045732612370000013154795310536348583_);}
	.st5{fill:url(#locale_tecnico-11_00000087407599834070095460000006592442889850583227_);}
	.st6{fill:#DDDDDD;}
	.st7{fill:#B7B7B7;}
	.st8{fill:none;stroke:#F2F2F2;stroke-miterlimit:10;}
	.st9{fill:#FFFFFF;stroke:#303030;}
	.st10{display:none;}
	.st11{display:inline;}
	.st12{fill:none;stroke:#B7B7B7;stroke-width:5;stroke-miterlimit:10;}
</style>
<pattern  y="2479.1" width="57" height="57" patternUnits="userSpaceOnUse" id="locale_tecnico-10_0000003188994" viewBox="71.1 -128.1 57 57" style="overflow:visible;">
	<g>
		<rect x="71.1" y="-128.1" class="st0" width="57" height="57"/>
		<g>
			<rect x="71.1" y="-128.1" class="st0" width="57" height="57"/>
			<g>
				<rect x="71.1" y="-128.1" class="st0" width="57" height="57"/>
				<g>
					<rect x="71.1" y="-128.1" class="st0" width="57" height="57"/>
					<rect x="71.1" y="-128.1" class="st0" width="57" height="57"/>
					<rect x="71.1" y="-128.1" class="st0" width="57" height="57"/>
					<rect x="71.1" y="-128.1" class="st0" width="57" height="57"/>
					<rect x="71.1" y="-128.1" class="st0" width="57" height="57"/>
					<rect x="71.1" y="-128.1" class="st0" width="57" height="57"/>
					<rect x="71.1" y="-128.1" class="st0" width="57" height="57"/>
					<rect x="71.1" y="-128.1" class="st0" width="57" height="57"/>
					<rect x="71.1" y="-128.1" class="st0" width="57" height="57"/>
					<rect x="124.1" y="-181.1" class="st1" width="60" height="58"/>
					<line class="st2" x1="128.1" y1="-128.1" x2="185.1" y2="-185.1"/>
					<rect x="67.1" y="-181.1" class="st1" width="60" height="58"/>
					<line class="st2" x1="71.1" y1="-128.1" x2="128.1" y2="-185.1"/>
					<line class="st2" x1="14.1" y1="-128.1" x2="71.1" y2="-185.1"/>
					<rect x="124.1" y="-124.1" class="st1" width="60" height="58"/>
					<line class="st2" x1="128.1" y1="-71.1" x2="185.1" y2="-128.1"/>
					<rect x="67.1" y="-124.1" class="st1" width="60" height="58"/>
					<line class="st2" x1="71.1" y1="-71.1" x2="128.1" y2="-128.1"/>
					<line class="st2" x1="14.1" y1="-71.1" x2="71.1" y2="-128.1"/>
					<line class="st2" x1="128.1" y1="-14.1" x2="185.1" y2="-71.1"/>
					<line class="st2" x1="71.1" y1="-14.1" x2="128.1" y2="-71.1"/>
					<line class="st2" x1="14.1" y1="-14.1" x2="71.1" y2="-71.1"/>
				</g>
			</g>
		</g>
	</g>
</pattern>
<pattern  y="2479.1" width="57" height="57" patternUnits="userSpaceOnUse" id="locale_tecnico-11_0000015658902" viewBox="71.1 -128.1 57 57" style="overflow:visible;">
	<g>
		<rect x="71.1" y="-128.1" class="st0" width="57" height="57"/>
		<g>
			<rect x="71.1" y="-128.1" class="st0" width="57" height="57"/>
			<g>
				<rect x="71.1" y="-128.1" class="st0" width="57" height="57"/>
				<g>
					<rect x="71.1" y="-128.1" class="st0" width="57" height="57"/>
					<rect x="71.1" y="-128.1" class="st0" width="57" height="57"/>
					<rect x="71.1" y="-128.1" class="st0" width="57" height="57"/>
					<rect x="71.1" y="-128.1" class="st0" width="57" height="57"/>
					<rect x="71.1" y="-128.1" class="st0" width="57" height="57"/>
					<rect x="71.1" y="-128.1" class="st0" width="57" height="57"/>
					<rect x="71.1" y="-128.1" class="st0" width="57" height="57"/>
					<rect x="71.1" y="-128.1" class="st0" width="57" height="57"/>
					<rect x="71.1" y="-128.1" class="st0" width="57" height="57"/>
					<rect x="124.1" y="-181.1" class="st1" width="60" height="58"/>
					<line class="st2" x1="128.1" y1="-128.1" x2="185.1" y2="-185.1"/>
					<rect x="67.1" y="-181.1" class="st1" width="60" height="58"/>
					<line class="st2" x1="71.1" y1="-128.1" x2="128.1" y2="-185.1"/>
					<line class="st2" x1="14.1" y1="-128.1" x2="71.1" y2="-185.1"/>
					<rect x="124.1" y="-124.1" class="st1" width="60" height="58"/>
					<line class="st2" x1="128.1" y1="-71.1" x2="185.1" y2="-128.1"/>
					<rect x="67.1" y="-124.1" class="st1" width="60" height="58"/>
					<line class="st2" x1="71.1" y1="-71.1" x2="128.1" y2="-128.1"/>
					<line class="st2" x1="14.1" y1="-71.1" x2="71.1" y2="-128.1"/>
					<line class="st2" x1="128.1" y1="-14.1" x2="185.1" y2="-71.1"/>
					<line class="st2" x1="71.1" y1="-14.1" x2="128.1" y2="-71.1"/>
					<line class="st2" x1="14.1" y1="-14.1" x2="71.1" y2="-71.1"/>
				</g>
			</g>
		</g>
	</g>
</pattern>
<pattern  y="2479.1" width="57" height="57" patternUnits="userSpaceOnUse" id="locale_tecnico-5_00000088132369" viewBox="71.1 -128.1 57 57" style="overflow:visible;">
	<g>
		<rect x="71.1" y="-128.1" class="st0" width="57" height="57"/>
		<g>
			<rect x="71.1" y="-128.1" class="st0" width="57" height="57"/>
			<g>
				<rect x="71.1" y="-128.1" class="st0" width="57" height="57"/>
				<g>
					<rect x="71.1" y="-128.1" class="st0" width="57" height="57"/>
					<rect x="71.1" y="-128.1" class="st0" width="57" height="57"/>
					<rect x="71.1" y="-128.1" class="st0" width="57" height="57"/>
					<rect x="71.1" y="-128.1" class="st0" width="57" height="57"/>
					<rect x="71.1" y="-128.1" class="st0" width="57" height="57"/>
					<rect x="71.1" y="-128.1" class="st0" width="57" height="57"/>
					<rect x="71.1" y="-128.1" class="st0" width="57" height="57"/>
					<rect x="71.1" y="-128.1" class="st0" width="57" height="57"/>
					<rect x="71.1" y="-128.1" class="st0" width="57" height="57"/>
					<rect x="124.1" y="-181.1" class="st1" width="60" height="58"/>
					<line class="st2" x1="128.1" y1="-128.1" x2="185.1" y2="-185.1"/>
					<rect x="67.1" y="-181.1" class="st1" width="60" height="58"/>
					<line class="st2" x1="71.1" y1="-128.1" x2="128.1" y2="-185.1"/>
					<line class="st2" x1="14.1" y1="-128.1" x2="71.1" y2="-185.1"/>
					<rect x="124.1" y="-124.1" class="st1" width="60" height="58"/>
					<line class="st2" x1="128.1" y1="-71.1" x2="185.1" y2="-128.1"/>
					<rect x="67.1" y="-124.1" class="st1" width="60" height="58"/>
					<line class="st2" x1="71.1" y1="-71.1" x2="128.1" y2="-128.1"/>
					<line class="st2" x1="14.1" y1="-71.1" x2="71.1" y2="-128.1"/>
					<line class="st2" x1="128.1" y1="-14.1" x2="185.1" y2="-71.1"/>
					<line class="st2" x1="71.1" y1="-14.1" x2="128.1" y2="-71.1"/>
					<line class="st2" x1="14.1" y1="-14.1" x2="71.1" y2="-71.1"/>
				</g>
			</g>
		</g>
	</g>
</pattern>
<rect id="senza_codice" x="431" y="1556.1" class="st1" width="157.2" height="196.2"/>
<polygon id="senza_codice-2" class="st1" points="431,1541.2 431,1475.8 446,1475.8 529.6,1475.8 544.6,1475.8 588.2,1475.8 
	588.2,1541.2 "/>
<polygon id="locale_tecnico-2" class="st1" points="446,1087.8 446,1080.1 529.6,1080.1 529.6,1460.7 446,1460.7 446,1102.8 "/>
<pattern  id="locale_tecnico-5_00000136405219965609543400000017110054728489183391_" xlink:href="#locale_tecnico-5_00000088132369" patternTransform="matrix(-0.45 0 0 0.45 -44708.9922 23551.5488)">
</pattern>
<polygon id="locale_tecnico-5" style="fill:url(#locale_tecnico-5_00000136405219965609543400000017110054728489183391_);" points="
	4426.3,1190 4426.3,1101.9 4468.1,1101.9 4468.1,1190 4468.1,1205 4468.1,1460.7 4426.3,1460.7 4426.3,1205 "/>
<pattern  id="locale_tecnico-10_00000174582038443197492040000018182941341782625201_" xlink:href="#locale_tecnico-10_0000003188994" patternTransform="matrix(-0.45 0 0 0.45 -44708.9922 23551.5488)">
</pattern>
<rect id="locale_tecnico-10" x="1565.7" y="1782.8" style="fill:url(#locale_tecnico-10_00000174582038443197492040000018182941341782625201_);" width="355.7" height="665.9"/>
<pattern  id="locale_tecnico-11_00000092416094603004582540000001397298904266080423_" xlink:href="#locale_tecnico-11_0000015658902" patternTransform="matrix(-0.45 0 0 0.45 -44708.9922 23551.5488)">
</pattern>
<polygon id="locale_tecnico-11" style="fill:url(#locale_tecnico-11_00000092416094603004582540000001397298904266080423_);" points="
	4550.2,759.9 4550.2,785.4 1641.2,785.4 1641.2,636.3 601.9,636.3 601.9,764.9 213.5,764.9 30.4,764.9 30.4,30.4 5469.6,30.4 
	5469.6,759.9 "/>
<g class="clickable" id="A2--1-11-E">
	<rect id="a" x="30.4" y="1080.1" class="st1" width="287.5" height="132.6"/>
</g>
<g class="clickable" id="A2--1-03-A">
	<rect id="a-2" x="4483" y="1101" class="st1" width="146.2" height="359.7"/>
</g>
<g class="clickable" id="A2--1-30">
	<polygon class="st6" points="2706.6,1127.8 2706.6,800.3 2708.9,800.3 2723.9,800.3 2832.4,800.3 2847.4,800.3 2857,800.3 
		2857,1127.8 	"/>
</g>
<g class="clickable" id="A2--1-22">
	<rect x="859.1" y="651.4" class="st0" width="277.8" height="802.9"/>
</g>
<g class="clickable" id="A2--1-21">
	<polyline class="st1" points="762.6,904.8 762.6,1065.1 616.8,1065.1 616.8,944.8 616.8,929.8 616.8,904.8 	"/>
</g>
<g class="clickable" id="A2--1-15">
	<polygon class="st1" points="603.2,1541.2 603.2,1475.8 841.6,1475.8 856.6,1475.8 1127.3,1475.8 1139.6,1475.8 1154.6,1475.8 
		1399.4,1475.8 1414.4,1475.8 1696.4,1475.8 1711.5,1475.8 2244.3,1475.8 2259.2,1475.8 2691.6,1475.8 2706.6,1475.8 2857,1475.8 
		2872,1475.8 4243.2,1475.8 4258.2,1475.8 4411.3,1475.8 4426.3,1475.8 4468.1,1475.8 4483.1,1475.8 4629.3,1475.8 4644.3,1475.8 
		5109.8,1475.8 5109.8,1752.4 3228.1,1752.4 2908.7,1752.4 1951.7,1752.4 1921.3,1752.4 1736,1752.4 1720.9,1752.4 1565.7,1752.4 
		1535.2,1752.4 603.2,1752.4 603.2,1556.1 	"/>
</g>
<g class="clickable" id="A2--1-14">
	<g id="scala">
		<polygon class="st7" points="314,1465.4 12.3,1465.4 12.3,1226.3 226.7,1226.3 226.7,1230 16.1,1230 16.1,1461.7 310.2,1461.7 
			310.2,1359.2 132.8,1359.2 132.8,1330 182.4,1330 182.4,1333.7 136.5,1333.7 136.5,1355.4 314,1355.4 		"/>
		<polygon class="st7" points="310.8,1414.2 83,1414.2 83,1279.7 204.2,1279.7 204.2,1283.5 86.8,1283.5 86.8,1410.4 310.8,1410.4 
					"/>
		<rect x="180.2" y="1356.5" class="st7" width="3.8" height="107.9"/>
		<rect x="157.7" y="1356.5" class="st7" width="3.8" height="107.9"/>
		<rect x="202.1" y="1356.5" class="st7" width="3.8" height="107.9"/>
		<rect x="136.2" y="1228.2" class="st7" width="3.8" height="103.7"/>
		<rect x="157.7" y="1228.2" class="st7" width="3.8" height="103.7"/>
		<rect x="180.2" y="1228.2" class="st7" width="3.8" height="103.7"/>
		<rect x="202.1" y="1228.2" class="st7" width="3.8" height="52.9"/>
		<polygon class="st7" points="183.8,1332.1 180.4,1330.6 201.9,1281.4 180.3,1228.9 183.8,1227.4 206,1281.5 		"/>
		<rect x="291.1" y="1356.5" class="st7" width="3.8" height="107.9"/>
		<rect x="246" y="1356.5" class="st7" width="3.8" height="107.9"/>
		<rect x="268.5" y="1356.5" class="st7" width="3.8" height="107.9"/>
		<rect x="223.5" y="1356.5" class="st7" width="3.8" height="107.9"/>
		
			<rect x="148.7" y="1278.1" transform="matrix(0.4027 -0.9153 0.9153 0.4027 -1049.4236 951.8334)" class="st7" width="111.9" height="3.8"/>
	</g>
	<polygon class="st0" points="431,1226.7 431,1460.7 400.6,1460.7 30.4,1460.7 30.4,1227.8 175.7,1227.8 190.8,1227.8 317.9,1227.8 
		332.9,1227.8 	"/>
</g>
<g class="clickable" id="A2--1-13">
	<rect x="30.4" y="779.9" class="st1" width="139.5" height="156.7"/>
</g>
<g class="clickable" id="A2--1-12">
	<polygon class="st1" points="339.7,929.8 339.7,779.9 504.6,779.9 504.6,857.1 504.6,872 504.6,929.8 	"/>
</g>
<g class="clickable" id="A2--1-12-2">
	<polygon class="st1" points="519.6,929.8 519.6,872 601.8,872 601.8,889.8 601.8,904.8 601.8,929.8 	"/>
</g>
<g class="clickable" id="A2--1-12-3">
	<rect x="519.6" y="779.9" class="st1" width="82.2" height="77.2"/>
</g>
<g class="clickable" id="A2--1-11">
	<rect x="30.4" y="950.8" class="st0" width="466.5" height="94.4"/>
</g>
<g class="clickable" id="A2--1-10-E">
	<polygon class="st6" points="544.6,1460.7 544.6,1080.1 571.8,1080.1 601.8,1080.1 616.8,1080.1 762.6,1080.1 777.6,1080.1 
		841.6,1080.1 841.6,1460.7 603.2,1460.7 588.2,1460.7 	"/>
</g>
<g class="clickable" id="A2--1-10-D_00000168113160680326558440000009698851477018400437_">
	<polygon id="D" class="st6" points="616.8,764.9 616.8,651.4 1139.6,651.4 1139.6,883.4 1139.6,898.5 1139.6,1137.8 1139.6,1152.8 
		1139.6,1460.7 1127.3,1460.7 856.6,1460.7 856.6,1080.1 856.6,1065.1 841.6,1065.1 777.6,1065.1 777.6,904.8 777.6,889.8 
		762.6,889.8 616.8,889.8 616.8,872 616.8,857.1 616.8,779.9 	"/>
</g>
<g class="clickable" id="A2--1-10-C">
	<rect x="1154.7" y="1152.6" class="st6" width="244.8" height="307.8"/>
</g>
<g class="clickable" id="A2--1-10-B">
	<polygon class="st6" points="1399.5,1152.7 1399.5,1460.7 1696.5,1460.7 1696.4,1289.1 2244.2,1289.1 2244.3,1460.7 2691.7,1460.8 
		2691.7,800.4 1626.4,800.3 1626.2,651.3 1154.7,651.4 1154.7,1152.7 	"/>
</g>
<g class="clickable" id="A2--1-09">
	<rect x="2706.6" y="1220" class="st6" width="150.4" height="240.8"/>
</g>
<g class="clickable" id="A2--1-09-2">
	<rect x="2706.6" y="1142.8" class="st6" width="150.4" height="62.3"/>
</g>
<g class="clickable" id="A2--1-08">
	<polygon class="st6" points="2872,1058.3 2872,800.3 3340.6,800.3 3357.4,800.3 3450.7,800.3 3467.5,800.3 3962.6,800.3 
		3979.5,800.3 4084,800.3 4100.8,800.3 4411.3,800.3 4411.3,1460.7 2872,1460.7 2872,1220 2872,1205 2872,1142.8 2872,1127.8 
		2872,1073.3 	"/>
</g>
<g class="clickable" id="A2--1-06">
	<polygon class="st1" points="4765.5,950.6 4765.5,774.9 4869.2,774.9 4869.2,858.9 4869.2,873.9 4869.2,950.6 	"/>
</g>
<g class="clickable" id="A2--1-05">
	<polygon class="st1" points="4980,858.9 4980,774.9 5081.3,774.9 5096.2,774.9 5109.8,774.9 5109.8,790.3 5109.8,950.6 4980,950.6 
		4980,873.9 	"/>
</g>
<g class="clickable" id="A2--1-05-2">
	<rect x="4884.1" y="873.9" class="st1" width="80.8" height="76.8"/>
</g>
<g class="clickable" id="A2--1-05-3">
	<rect x="4884.1" y="774.9" class="st1" width="80.8" height="84.1"/>
</g>
<g class="clickable" id="A2--1-04">
	<rect x="4777.8" y="1101" class="st6" width="332" height="112.2"/>
</g>
<g class="clickable" id="A2--1-03">
	<polygon class="st1" points="4426.3,1086.9 4426.3,800.3 4463,800.3 4478,800.3 4550.3,800.3 4565.2,800.3 4565.2,785.4 
		4565.2,774.9 4750.6,774.9 4750.6,950.6 4750.6,965.7 4765.5,965.7 4869.2,965.7 4884.1,965.7 4965,965.7 4980,965.7 5109.8,965.7 
		5109.8,1086.1 4777.8,1086.1 4762.8,1086.1 4644.3,1086.1 4629.3,1086.1 4629.3,1101 4629.3,1190 4483.1,1190 4483.1,1101.9 
		4483.1,1086.9 4468.1,1086.9 	"/>
</g>
<g class="clickable" id="A2--1-02">
	<g id="scala-2">
		
			<rect x="4898.7" y="1383.9" transform="matrix(0.3954 -0.9185 0.9185 0.3954 1706.4819 5364.1685)" class="st7" width="58.4" height="3.8"/>
		<polygon class="st7" points="5130.1,1465.4 4828.4,1465.4 4828.4,1355.4 5005.9,1355.4 5005.9,1333.7 4960,1333.7 4960,1330 
			5009.6,1330 5009.6,1359.2 4832.2,1359.2 4832.2,1461.7 5126.4,1461.7 5126.4,1230 4914.1,1230 4914.1,1226.3 5130.1,1226.3 		"/>
		<polygon class="st7" points="5059.4,1414.2 4831.6,1414.2 4831.6,1410.4 5055.6,1410.4 5055.6,1283.5 4938.2,1283.5 
			4938.2,1279.7 5059.4,1279.7 		"/>
		<rect x="4958.5" y="1356.5" class="st7" width="3.8" height="107.9"/>
		<rect x="4981" y="1356.5" class="st7" width="3.8" height="107.9"/>
		<rect x="4936.5" y="1356.5" class="st7" width="3.8" height="107.9"/>
		<rect x="5002.4" y="1228.2" class="st7" width="3.8" height="103.7"/>
		<rect x="4981" y="1228.2" class="st7" width="3.8" height="103.7"/>
		<rect x="4958.5" y="1228.2" class="st7" width="3.8" height="103.7"/>
		<rect x="4936.5" y="1228.2" class="st7" width="3.8" height="52.9"/>
		<polygon class="st7" points="4958.6,1332.1 4936.4,1281.5 4958.6,1227.4 4962.1,1228.9 4940.5,1281.4 4962,1330.6 		"/>
		<rect x="4847.6" y="1356.5" class="st7" width="3.8" height="107.9"/>
		<rect x="4892.6" y="1356.5" class="st7" width="3.8" height="107.9"/>
		<rect x="4870.1" y="1356.5" class="st7" width="3.8" height="107.9"/>
		<rect x="4915.1" y="1356.5" class="st7" width="3.8" height="107.9"/>
		
			<rect x="4936.3" y="1224.2" transform="matrix(0.9136 -0.4066 0.4066 0.9136 -94.1454 2118.5225)" class="st7" width="3.8" height="113.2"/>
	</g>
	<polygon class="st0" points="4777.8,1228.2 5109.8,1228.2 5109.8,1460.7 4644.3,1460.7 4644.3,1227.6 	"/>
</g>
<g class="clickable" data-building-code="P1" id="A2--1-P1--1" data-floor-code="-1">
	<rect id="room-box-29" x="401.3" y="1782.8" class="st8" width="187.6" height="202.3"/>
	<path class="st9" d="M495,1827.6c-31.1-0.1-56.5,25.1-56.5,56.2l0,0l0,0v0.1c0,31.2,25.3,56.6,56.5,56.6s56.6-25.3,56.6-56.5l0,0
		v-0.1C551.6,1852.7,526.2,1827.5,495,1827.6"/>
	<path d="M486.5,1890.7h6.6c9.9,0,14.1-4.1,14.1-11.6c0-6.4-3.8-10.9-13.8-10.9h-6.9L486.5,1890.7z M479.9,1919v-56.3h14.2
		c11.4,0,19.9,5.5,19.9,16.2s-7.7,17.4-20.8,17.4h-6.6v22.8L479.9,1919z M530.3,1866.5l-35.2-12.8l-35.3,12.8l-1.6-4.3l36.8-13.3
		l36.8,13.3L530.3,1866.5z"/>
</g>
<g id="vecchi_livelli_eliminati_il_26_x2F_07_x2F_21" class="st10">
	<g class="clickable st11" id="A2--1-10-4-I">
		<polygon class="st6" points="1154.6,1460.7 1154.6,1152.8 1399.4,1152.8 1399.4,1289.1 1399.4,1304 1399.4,1460.7 		"/>
	</g>
	<g class="clickable st11" id="A2--1-10-4-H">
		<polyline class="st6" points="1626.1,651.4 1626.1,785.4 1495.2,785.4 1480.3,785.4 1414.4,785.4 1399.4,785.4 1349.4,785.4 
			1349.4,651.4 		"/>
	</g>
	<g class="clickable st11" id="A2--1-10-4-G">
		<polygon class="st6" points="1495.2,1061.9 1495.2,800.3 1626.1,800.3 1641,800.3 1696.4,800.3 1696.4,1061.9 1558.8,1061.9 
			1543.9,1061.9 		"/>
	</g>
	<g class="clickable st11" id="A2--1-10-4-F">
		<polygon class="st6" points="1154.6,883.4 1154.6,651.4 1334.5,651.4 1334.5,785.4 1334.5,800.3 1349.4,800.3 1399.4,800.3 
			1399.4,883.4 		"/>
	</g>
	<g class="clickable st11" id="A2--1-10-4-E">
		<polygon class="st6" points="1154.6,1137.8 1154.6,898.5 1399.4,898.5 1399.4,1061.9 1399.4,1076.9 1399.4,1137.8 		"/>
	</g>
	<g class="clickable st11" id="A2--1-10-4-D">
		<polygon class="st1" points="1480.3,1061.9 1474.8,1061.9 1416.2,1061.9 1414.4,1061.9 1414.4,1056.7 1414.4,800.3 1480.3,800.3 
					"/>
	</g>
	<g class="clickable st11" id="A2--1-10-4-C">
		<polygon class="st6" points="1414.4,1137.8 1414.4,1076.9 1480.3,1076.9 1495.2,1076.9 1543.9,1076.9 1543.9,1289.1 
			1414.4,1289.1 1414.4,1152.8 		"/>
	</g>
	<g class="clickable st11" id="A2--1-10-4-B">
		<rect x="1558.8" y="1076.9" class="st6" width="137.6" height="212.1"/>
	</g>
	<g class="clickable st11" id="A2--1-10-4-A">
		<polygon class="st1" points="1414.4,1389.4 1414.4,1304 1543.9,1304 1558.8,1304 1603.3,1304 1664.2,1304 1696.4,1304 
			1696.4,1380.3 1696.4,1460.7 1414.4,1460.7 1414.4,1445.1 		"/>
	</g>
	<g class="clickable st11" id="A2--1-10-3-D">
		<rect x="1711.5" y="800.3" class="st6" width="249.8" height="261.7"/>
	</g>
	<g class="clickable st11" id="A2--1-10-3-C">
		<polygon class="st6" points="1976.2,909.3 1976.2,800.3 2170.7,800.3 2185.6,800.3 2244.3,800.3 2244.3,909.3 		"/>
	</g>
	<g class="clickable st11" id="A2--1-10-3-A">
		<polygon class="st6" points="1711.5,1289.1 1711.5,1076.9 1961.3,1076.9 1976.2,1076.9 1976.2,1061.9 1976.2,924.3 2244.3,924.3 
			2244.3,1289.1 		"/>
	</g>
</g>
<rect x="1711.5" y="1304" class="st1" width="532.8" height="156.7"/>
<g id="muri">
	<path class="st7" d="M4258.1,800.3h153.1v163.1h15V800.3h139v-25.4h185.3v190.8h20.4v-15h-5.4V774.9H4869v175.8h-43v15h196.2v-15
		H4980v-27.3h-15v27.2h-80.9v-76.8h80.9v2.7h15v-23.2h-15v5.4h-80.8v-84.1h80.8v31.8h15v-31.8h129.9v175.8h-30v15h30v120.4h-72.2v15
		h72.2V1213h-332v-112.1h204.9v-15h-230.3v15h10.5v127.2h347v232.6h-355.2v15H5110v276.6H603.2v-120.4h-15v120.4h-46.7v30.4h993.8
		V2479h416.5v-696.2h3188.6V790.3H5500V0H0v1491.2h400.6v291.6h55.9v-30.5h-25.4v-196.2h27.7v-15h-27.7v-65.4h15l-0.1-410.5h-33.1
		v15h18.2v380.6H30.4v-233H333v-147.7h3.6v-15H175.7v15h142.2v132.6H30.4V951.6h35v-15h-35V780h139.5v156.6h-54.1v15h69V780h140
		v164.8h51.8v-15h-36.8V780h164.9v24.5h15V780h82.2v77.2h-82.2v-5h-15v23.6h15v-3.6h82.2v57.7h-82.2v-6.4h-15v6.4H427v15h174.8v31.8
		h15v-71.8h145.8v70.8h15v-85.9H616.8V651.3h522.8v809.4h-103.1v15h976.6v-15h-301.6v-15.6h-15v15.6h-282v-15.6h-15v15.6h-244.8
		v-308h244.8V1349h15v-45h1.8v-15h-1.8v-212h1.8v-15h-1.8v-5.3h-15v81.1h-244.8V898.4h244.8V1001h15V878.7h-15v4.8h-244.8V651.4
		h179.9v149h65v16.8h15v-16.8h3.2v-15h-68.1v-134h276.6v134h-149.9v15h4.1v202.1h15V800.3h201.2V1062h-201.2v-3.8h-15v3.8h-5.5v15
		h69v212.1h-68.5v15h128v-15H1559V1077h137.6v212.1h-32.3v15h32.3v45h15v-45H1862v-15h-150.4V1077H1862v-15h-150.4V800.3h249.9V1062
		h-38.7v15h53.6V924.3h6.8v-15h-6.8v-109h268v109h-207.6v15h207.6v364.8h-321.6v15h321.6v45h15V800.4h432.3v660.4h-36.8v15H2882v-15
		h-10V1387h-15v73.8h-150.3V1220h42.2v-15h-42.2v-62.3h150.4v62.3h-61v15h61.1v111.3h15V964.5h-15v163.3h-150.3V800.3H2857v108.6h15
		V800.3h1371.2H4258.1z M1565.7,2448.6v-665.9h355.7v665.9H1565.7z M5469.6,760h-919.4v25.4H1641v-149H601.6v128.5l-571.2-0.1V30.4
		h5439.2V760z"/>
	<polygon class="st7" points="4243.2,1460.7 3801.2,1460.7 3801.2,1475.7 4281.3,1475.7 4281.3,1460.7 4258.1,1460.7 	"/>
	<line class="st12" x1="1155.5" y1="1671" x2="1155.5" y2="1752.4"/>
	<path class="st7" d="M1157.4,1754.3H819.9l37.3-85.1h300.2V1754.3z M825.7,1750.5h328v-77.6h-294L825.7,1750.5z"/>
	<rect x="841.2" y="1709.8" class="st7" width="314.8" height="3.8"/>
	<rect x="930.4" y="1671" class="st7" width="3.8" height="81.4"/>
	<rect x="912.1" y="1671" class="st7" width="3.8" height="81.4"/>
	<rect x="893.8" y="1671" class="st7" width="3.8" height="81.4"/>
	<rect x="875.5" y="1671" class="st7" width="3.8" height="81.4"/>
	<rect x="857.2" y="1671" class="st7" width="3.8" height="81.4"/>
	<rect x="839" y="1711.5" class="st7" width="3.8" height="40.9"/>
	
		<rect x="847.9" y="1709.7" transform="matrix(0.9128 -0.4083 0.4083 0.9128 -633.1431 497.9713)" class="st7" width="3.8" height="44.6"/>
	<rect x="1135" y="1671" class="st7" width="3.8" height="81.4"/>
	<rect x="1116.4" y="1671" class="st7" width="3.8" height="81.4"/>
	<rect x="1097.8" y="1671" class="st7" width="3.8" height="81.4"/>
	<rect x="1079.3" y="1671" class="st7" width="3.8" height="81.4"/>
	<rect x="1060.6" y="1671" class="st7" width="3.8" height="81.4"/>
	<rect x="1042.1" y="1671" class="st7" width="3.8" height="81.4"/>
	<rect x="1023.5" y="1671" class="st7" width="3.8" height="81.4"/>
	<line class="st12" x1="1536.9" y1="1671" x2="1536.9" y2="1752.4"/>
	<path class="st7" d="M1538.8,1754.3H1405v-85.1h133.8V1754.3z M1408.7,1750.5H1535v-77.6h-126.3V1750.5z"/>
	<rect x="1407.1" y="1709.8" class="st7" width="128.7" height="3.8"/>
	
		<rect x="1414.3" y="1709.8" transform="matrix(0.9135 -0.4069 0.4069 0.9135 -582.2354 726.1194)" class="st7" width="3.8" height="44.5"/>
	<rect x="1516.4" y="1671" class="st7" width="3.8" height="81.4"/>
	<rect x="1497.9" y="1671" class="st7" width="3.8" height="81.4"/>
	<rect x="1479.2" y="1671" class="st7" width="3.8" height="81.4"/>
	<rect x="1460.6" y="1671" class="st7" width="3.8" height="81.4"/>
	<rect x="1442.1" y="1671" class="st7" width="3.8" height="81.4"/>
	<rect x="1423.5" y="1671" class="st7" width="3.8" height="81.4"/>
	<path class="st7" d="M4888.4,1754.3h-337.5v-85.1h300.2L4888.4,1754.3z M4554.6,1750.5h328l-34-77.6h-294V1750.5z"/>
	<rect x="4552.3" y="1709.8" class="st7" width="314.8" height="3.8"/>
	<rect x="4774.1" y="1671" class="st7" width="3.8" height="81.4"/>
	<rect x="4792.4" y="1671" class="st7" width="3.8" height="81.4"/>
	<rect x="4810.7" y="1671" class="st7" width="3.8" height="81.4"/>
	<rect x="4829" y="1671" class="st7" width="3.8" height="81.4"/>
	<rect x="4847.3" y="1671" class="st7" width="3.8" height="81.4"/>
	<rect x="4865.5" y="1711.5" class="st7" width="3.8" height="40.9"/>
	
		<rect x="4835.9" y="1730.1" transform="matrix(0.4082 -0.9129 0.9129 0.4082 1293.9834 5460.0732)" class="st7" width="44.6" height="3.8"/>
	<rect x="4550.9" y="1671" class="st7" width="3.8" height="81.4"/>
	<rect x="4569.5" y="1671" class="st7" width="3.8" height="81.4"/>
	<rect x="4588.1" y="1671" class="st7" width="3.8" height="81.4"/>
	<rect x="4606.7" y="1671" class="st7" width="3.8" height="81.4"/>
	<rect x="4625.2" y="1671" class="st7" width="3.8" height="81.4"/>
	<rect x="4643.8" y="1671" class="st7" width="3.8" height="81.4"/>
	<rect x="4662.5" y="1671" class="st7" width="3.8" height="81.4"/>
	<rect x="4681" y="1671" class="st7" width="3.8" height="81.4"/>
	<polygon class="st7" points="733.7,1648.7 595.7,1648.7 595.7,1644.9 730,1644.9 730,1544.6 599.8,1544.6 599.8,1540.9 
		733.7,1540.8 	"/>
	<rect x="674.2" y="1592.9" class="st7" width="57.2" height="3.8"/>
	<rect x="710.1" y="1542.7" class="st7" width="3.8" height="104.1"/>
	<rect x="691.1" y="1542.7" class="st7" width="3.8" height="104.1"/>
	<polygon class="st7" points="691.1,1647.4 671.9,1594.8 691.1,1541.2 694.7,1542.5 675.9,1594.8 694.6,1646.2 	"/>
	<rect x="672" y="1542.8" class="st7" width="3.8" height="104.1"/>
	<polygon class="st7" points="1950.5,1756 1934.7,1756 1934.7,1669.3 1405.2,1669.3 1405.2,1654.3 1950.5,1654.3 	"/>
	<g>
		<polygon class="st7" points="540,1541.1 540,1556.1 588.1,1556.1 588.1,1561.1 603.1,1561.1 603.1,1475.6 911.6,1475.6 
			911.6,1460.6 856.6,1460.6 856.6,1065 777.6,1065 777.6,1055.4 762.6,1055.4 762.6,1065 725.4,1065 725.4,1080 841.7,1080 
			841.7,1460.6 544.6,1460.6 544.6,1080 649,1080 649,1065 616.8,1065 616.8,1054.6 601.8,1054.6 601.8,1065 529.6,1065 
			529.6,1475.7 588.1,1475.7 588.1,1541.1 		"/>
	</g>
	<path class="st7" d="M4483,1101.9v-15h-56.8v-21.8h-15v395.7h-5v15h283.9v-15h-45.9v-359.7h26.3v-15h-41.4v374.8h-146.2
		L4483,1101.9z M4468,1190v270.7h-41.8v-358.8h41.8V1190z"/>
	<rect x="3247.2" y="1460.8" class="st7" width="188.9" height="15"/>
	<polygon class="st7" points="2244.3,1475.8 2259.2,1475.8 2318.7,1475.8 2318.7,1460.7 2259.2,1460.7 2259.2,1445.1 2244.3,1445.1 
		2244.3,1460.7 2137.9,1460.7 2137.9,1475.8 	"/>
</g>
</svg>
