<?xml version="1.0" encoding="utf-8"?>
<!-- Generator: Adobe Illustrator 25.3.0, SVG Export Plug-In . SVG Version: 6.00 Build 0)  -->
<svg version="1.1" id="Livello_1" xmlns="http://www.w3.org/2000/svg" xmlns:xlink="http://www.w3.org/1999/xlink" x="0px" y="0px"
	 viewBox="0 0 5500 2479.1" style="enable-background:new 0 0 5500 2479.1;" xml:space="preserve">
<style type="text/css">
	.st0{fill:none;}
	.st1{fill:#F2F2F2;}
	.st2{fill:none;stroke:#DDDDDD;stroke-width:20;stroke-linecap:square;stroke-linejoin:round;}
	.st3{fill:#DDDDDD;}
	.st4{fill:url(#locale_tecnico_1_);}
	.st5{fill:url(#locale_tecnico-2_1_);}
	.st6{fill:url(#locale_tecnico-4_1_);}
	.st7{fill:url(#locale_tecnico-5_1_);}
	.st8{fill:url(#locale_tecnico-6_1_);}
	.st9{fill:url(#locale_tecnico-7_1_);}
	.st10{fill:url(#locale_tecnico-8_1_);}
	.st11{fill:url(#locale_tecnico-9_1_);}
	.st12{fill:#B7B7B7;}
	.st13{fill:none;stroke:#B7B7B7;stroke-width:5;stroke-miterlimit:10;}
	.st14{fill:none;stroke:#B7B7B7;stroke-width:2;stroke-miterlimit:10;}
</style>
<pattern  y="2479.1" width="57" height="57" patternUnits="userSpaceOnUse" id="locale_tecnico_2_" viewBox="71.1 -128.1 57 57" style="overflow:visible;">
	<g>
		<rect x="71.1" y="-128.1" class="st0" width="57" height="57"/>
		<g>
			<rect x="71.1" y="-128.1" class="st0" width="57" height="57"/>
			<g>
				<rect x="71.1" y="-128.1" class="st0" width="57" height="57"/>
				<rect x="71.1" y="-128.1" class="st0" width="57" height="57"/>
				<rect x="71.1" y="-128.1" class="st0" width="57" height="57"/>
				<rect x="71.1" y="-128.1" class="st0" width="57" height="57"/>
				<rect x="71.1" y="-128.1" class="st0" width="57" height="57"/>
				<rect x="71.1" y="-128.1" class="st0" width="57" height="57"/>
				<rect x="71.1" y="-128.1" class="st0" width="57" height="57"/>
				<rect x="71.1" y="-128.1" class="st0" width="57" height="57"/>
				<rect x="71.1" y="-128.1" class="st0" width="57" height="57"/>
				<rect x="71.1" y="-128.1" class="st0" width="57" height="57"/>
				<rect x="71.1" y="-128.1" class="st0" width="57" height="57"/>
				<rect x="71.1" y="-128.1" class="st0" width="57" height="57"/>
				<rect x="71.1" y="-128.1" class="st0" width="57" height="57"/>
				<rect x="124.1" y="-76.1" class="st1" width="60" height="58"/>
				<line class="st2" x1="128.1" y1="-71.1" x2="185.1" y2="-14.1"/>
				<rect x="67.1" y="-76.1" class="st1" width="60" height="58"/>
				<line class="st2" x1="71.1" y1="-71.1" x2="128.1" y2="-14.1"/>
				<line class="st2" x1="14.1" y1="-71.1" x2="71.1" y2="-14.1"/>
				<rect x="124.1" y="-133.1" class="st1" width="60" height="58"/>
				<line class="st2" x1="128.1" y1="-128.1" x2="185.1" y2="-71.1"/>
				<rect x="67.1" y="-133.1" class="st1" width="60" height="58"/>
				<line class="st2" x1="71.1" y1="-128.1" x2="128.1" y2="-71.1"/>
				<line class="st2" x1="14.1" y1="-128.1" x2="71.1" y2="-71.1"/>
				<line class="st2" x1="128.1" y1="-185.1" x2="185.1" y2="-128.1"/>
				<line class="st2" x1="71.1" y1="-185.1" x2="128.1" y2="-128.1"/>
				<line class="st2" x1="14.1" y1="-185.1" x2="71.1" y2="-128.1"/>
			</g>
		</g>
	</g>
</pattern>
<pattern  y="2479.1" width="57" height="57" patternUnits="userSpaceOnUse" id="locale_tecnico-2_2_" viewBox="71.1 -128.1 57 57" style="overflow:visible;">
	<g>
		<rect x="71.1" y="-128.1" class="st0" width="57" height="57"/>
		<g>
			<rect x="71.1" y="-128.1" class="st0" width="57" height="57"/>
			<g>
				<rect x="71.1" y="-128.1" class="st0" width="57" height="57"/>
				<rect x="71.1" y="-128.1" class="st0" width="57" height="57"/>
				<rect x="71.1" y="-128.1" class="st0" width="57" height="57"/>
				<rect x="71.1" y="-128.1" class="st0" width="57" height="57"/>
				<rect x="71.1" y="-128.1" class="st0" width="57" height="57"/>
				<rect x="71.1" y="-128.1" class="st0" width="57" height="57"/>
				<rect x="71.1" y="-128.1" class="st0" width="57" height="57"/>
				<rect x="71.1" y="-128.1" class="st0" width="57" height="57"/>
				<rect x="71.1" y="-128.1" class="st0" width="57" height="57"/>
				<rect x="71.1" y="-128.1" class="st0" width="57" height="57"/>
				<rect x="71.1" y="-128.1" class="st0" width="57" height="57"/>
				<rect x="71.1" y="-128.1" class="st0" width="57" height="57"/>
				<rect x="71.1" y="-128.1" class="st0" width="57" height="57"/>
				<rect x="124.1" y="-76.1" class="st1" width="60" height="58"/>
				<line class="st2" x1="128.1" y1="-71.1" x2="185.1" y2="-14.1"/>
				<rect x="67.1" y="-76.1" class="st1" width="60" height="58"/>
				<line class="st2" x1="71.1" y1="-71.1" x2="128.1" y2="-14.1"/>
				<line class="st2" x1="14.1" y1="-71.1" x2="71.1" y2="-14.1"/>
				<rect x="124.1" y="-133.1" class="st1" width="60" height="58"/>
				<line class="st2" x1="128.1" y1="-128.1" x2="185.1" y2="-71.1"/>
				<rect x="67.1" y="-133.1" class="st1" width="60" height="58"/>
				<line class="st2" x1="71.1" y1="-128.1" x2="128.1" y2="-71.1"/>
				<line class="st2" x1="14.1" y1="-128.1" x2="71.1" y2="-71.1"/>
				<line class="st2" x1="128.1" y1="-185.1" x2="185.1" y2="-128.1"/>
				<line class="st2" x1="71.1" y1="-185.1" x2="128.1" y2="-128.1"/>
				<line class="st2" x1="14.1" y1="-185.1" x2="71.1" y2="-128.1"/>
			</g>
		</g>
	</g>
</pattern>
<pattern  y="2479.1" width="57" height="57" patternUnits="userSpaceOnUse" id="locale_tecnico-4_2_" viewBox="71.1 -128.1 57 57" style="overflow:visible;">
	<g>
		<rect x="71.1" y="-128.1" class="st0" width="57" height="57"/>
		<g>
			<rect x="71.1" y="-128.1" class="st0" width="57" height="57"/>
			<g>
				<rect x="71.1" y="-128.1" class="st0" width="57" height="57"/>
				<rect x="71.1" y="-128.1" class="st0" width="57" height="57"/>
				<rect x="71.1" y="-128.1" class="st0" width="57" height="57"/>
				<rect x="71.1" y="-128.1" class="st0" width="57" height="57"/>
				<rect x="71.1" y="-128.1" class="st0" width="57" height="57"/>
				<rect x="71.1" y="-128.1" class="st0" width="57" height="57"/>
				<rect x="71.1" y="-128.1" class="st0" width="57" height="57"/>
				<rect x="71.1" y="-128.1" class="st0" width="57" height="57"/>
				<rect x="71.1" y="-128.1" class="st0" width="57" height="57"/>
				<rect x="71.1" y="-128.1" class="st0" width="57" height="57"/>
				<rect x="71.1" y="-128.1" class="st0" width="57" height="57"/>
				<rect x="71.1" y="-128.1" class="st0" width="57" height="57"/>
				<rect x="71.1" y="-128.1" class="st0" width="57" height="57"/>
				<rect x="124.1" y="-76.1" class="st1" width="60" height="58"/>
				<line class="st2" x1="128.1" y1="-71.1" x2="185.1" y2="-14.1"/>
				<rect x="67.1" y="-76.1" class="st1" width="60" height="58"/>
				<line class="st2" x1="71.1" y1="-71.1" x2="128.1" y2="-14.1"/>
				<line class="st2" x1="14.1" y1="-71.1" x2="71.1" y2="-14.1"/>
				<rect x="124.1" y="-133.1" class="st1" width="60" height="58"/>
				<line class="st2" x1="128.1" y1="-128.1" x2="185.1" y2="-71.1"/>
				<rect x="67.1" y="-133.1" class="st1" width="60" height="58"/>
				<line class="st2" x1="71.1" y1="-128.1" x2="128.1" y2="-71.1"/>
				<line class="st2" x1="14.1" y1="-128.1" x2="71.1" y2="-71.1"/>
				<line class="st2" x1="128.1" y1="-185.1" x2="185.1" y2="-128.1"/>
				<line class="st2" x1="71.1" y1="-185.1" x2="128.1" y2="-128.1"/>
				<line class="st2" x1="14.1" y1="-185.1" x2="71.1" y2="-128.1"/>
			</g>
		</g>
	</g>
</pattern>
<pattern  y="2479.1" width="57" height="57" patternUnits="userSpaceOnUse" id="locale_tecnico-5_2_" viewBox="71.1 -128.1 57 57" style="overflow:visible;">
	<g>
		<rect x="71.1" y="-128.1" class="st0" width="57" height="57"/>
		<g>
			<rect x="71.1" y="-128.1" class="st0" width="57" height="57"/>
			<g>
				<rect x="71.1" y="-128.1" class="st0" width="57" height="57"/>
				<rect x="71.1" y="-128.1" class="st0" width="57" height="57"/>
				<rect x="71.1" y="-128.1" class="st0" width="57" height="57"/>
				<rect x="71.1" y="-128.1" class="st0" width="57" height="57"/>
				<rect x="71.1" y="-128.1" class="st0" width="57" height="57"/>
				<rect x="71.1" y="-128.1" class="st0" width="57" height="57"/>
				<rect x="71.1" y="-128.1" class="st0" width="57" height="57"/>
				<rect x="71.1" y="-128.1" class="st0" width="57" height="57"/>
				<rect x="71.1" y="-128.1" class="st0" width="57" height="57"/>
				<rect x="71.1" y="-128.1" class="st0" width="57" height="57"/>
				<rect x="71.1" y="-128.1" class="st0" width="57" height="57"/>
				<rect x="71.1" y="-128.1" class="st0" width="57" height="57"/>
				<rect x="71.1" y="-128.1" class="st0" width="57" height="57"/>
				<rect x="124.1" y="-76.1" class="st1" width="60" height="58"/>
				<line class="st2" x1="128.1" y1="-71.1" x2="185.1" y2="-14.1"/>
				<rect x="67.1" y="-76.1" class="st1" width="60" height="58"/>
				<line class="st2" x1="71.1" y1="-71.1" x2="128.1" y2="-14.1"/>
				<line class="st2" x1="14.1" y1="-71.1" x2="71.1" y2="-14.1"/>
				<rect x="124.1" y="-133.1" class="st1" width="60" height="58"/>
				<line class="st2" x1="128.1" y1="-128.1" x2="185.1" y2="-71.1"/>
				<rect x="67.1" y="-133.1" class="st1" width="60" height="58"/>
				<line class="st2" x1="71.1" y1="-128.1" x2="128.1" y2="-71.1"/>
				<line class="st2" x1="14.1" y1="-128.1" x2="71.1" y2="-71.1"/>
				<line class="st2" x1="128.1" y1="-185.1" x2="185.1" y2="-128.1"/>
				<line class="st2" x1="71.1" y1="-185.1" x2="128.1" y2="-128.1"/>
				<line class="st2" x1="14.1" y1="-185.1" x2="71.1" y2="-128.1"/>
			</g>
		</g>
	</g>
</pattern>
<pattern  y="2479.1" width="57" height="57" patternUnits="userSpaceOnUse" id="locale_tecnico-6_2_" viewBox="71.1 -128.1 57 57" style="overflow:visible;">
	<g>
		<rect x="71.1" y="-128.1" class="st0" width="57" height="57"/>
		<g>
			<rect x="71.1" y="-128.1" class="st0" width="57" height="57"/>
			<g>
				<rect x="71.1" y="-128.1" class="st0" width="57" height="57"/>
				<rect x="71.1" y="-128.1" class="st0" width="57" height="57"/>
				<rect x="71.1" y="-128.1" class="st0" width="57" height="57"/>
				<rect x="71.1" y="-128.1" class="st0" width="57" height="57"/>
				<rect x="71.1" y="-128.1" class="st0" width="57" height="57"/>
				<rect x="71.1" y="-128.1" class="st0" width="57" height="57"/>
				<rect x="71.1" y="-128.1" class="st0" width="57" height="57"/>
				<rect x="71.1" y="-128.1" class="st0" width="57" height="57"/>
				<rect x="71.1" y="-128.1" class="st0" width="57" height="57"/>
				<rect x="71.1" y="-128.1" class="st0" width="57" height="57"/>
				<rect x="71.1" y="-128.1" class="st0" width="57" height="57"/>
				<rect x="71.1" y="-128.1" class="st0" width="57" height="57"/>
				<rect x="71.1" y="-128.1" class="st0" width="57" height="57"/>
				<rect x="124.1" y="-76.1" class="st1" width="60" height="58"/>
				<line class="st2" x1="128.1" y1="-71.1" x2="185.1" y2="-14.1"/>
				<rect x="67.1" y="-76.1" class="st1" width="60" height="58"/>
				<line class="st2" x1="71.1" y1="-71.1" x2="128.1" y2="-14.1"/>
				<line class="st2" x1="14.1" y1="-71.1" x2="71.1" y2="-14.1"/>
				<rect x="124.1" y="-133.1" class="st1" width="60" height="58"/>
				<line class="st2" x1="128.1" y1="-128.1" x2="185.1" y2="-71.1"/>
				<rect x="67.1" y="-133.1" class="st1" width="60" height="58"/>
				<line class="st2" x1="71.1" y1="-128.1" x2="128.1" y2="-71.1"/>
				<line class="st2" x1="14.1" y1="-128.1" x2="71.1" y2="-71.1"/>
				<line class="st2" x1="128.1" y1="-185.1" x2="185.1" y2="-128.1"/>
				<line class="st2" x1="71.1" y1="-185.1" x2="128.1" y2="-128.1"/>
				<line class="st2" x1="14.1" y1="-185.1" x2="71.1" y2="-128.1"/>
			</g>
		</g>
	</g>
</pattern>
<pattern  y="2479.1" width="57" height="57" patternUnits="userSpaceOnUse" id="locale_tecnico-7_2_" viewBox="71.1 -128.1 57 57" style="overflow:visible;">
	<g>
		<rect x="71.1" y="-128.1" class="st0" width="57" height="57"/>
		<g>
			<rect x="71.1" y="-128.1" class="st0" width="57" height="57"/>
			<g>
				<rect x="71.1" y="-128.1" class="st0" width="57" height="57"/>
				<rect x="71.1" y="-128.1" class="st0" width="57" height="57"/>
				<rect x="71.1" y="-128.1" class="st0" width="57" height="57"/>
				<rect x="71.1" y="-128.1" class="st0" width="57" height="57"/>
				<rect x="71.1" y="-128.1" class="st0" width="57" height="57"/>
				<rect x="71.1" y="-128.1" class="st0" width="57" height="57"/>
				<rect x="71.1" y="-128.1" class="st0" width="57" height="57"/>
				<rect x="71.1" y="-128.1" class="st0" width="57" height="57"/>
				<rect x="71.1" y="-128.1" class="st0" width="57" height="57"/>
				<rect x="71.1" y="-128.1" class="st0" width="57" height="57"/>
				<rect x="71.1" y="-128.1" class="st0" width="57" height="57"/>
				<rect x="71.1" y="-128.1" class="st0" width="57" height="57"/>
				<rect x="71.1" y="-128.1" class="st0" width="57" height="57"/>
				<rect x="124.1" y="-76.1" class="st1" width="60" height="58"/>
				<line class="st2" x1="128.1" y1="-71.1" x2="185.1" y2="-14.1"/>
				<rect x="67.1" y="-76.1" class="st1" width="60" height="58"/>
				<line class="st2" x1="71.1" y1="-71.1" x2="128.1" y2="-14.1"/>
				<line class="st2" x1="14.1" y1="-71.1" x2="71.1" y2="-14.1"/>
				<rect x="124.1" y="-133.1" class="st1" width="60" height="58"/>
				<line class="st2" x1="128.1" y1="-128.1" x2="185.1" y2="-71.1"/>
				<rect x="67.1" y="-133.1" class="st1" width="60" height="58"/>
				<line class="st2" x1="71.1" y1="-128.1" x2="128.1" y2="-71.1"/>
				<line class="st2" x1="14.1" y1="-128.1" x2="71.1" y2="-71.1"/>
				<line class="st2" x1="128.1" y1="-185.1" x2="185.1" y2="-128.1"/>
				<line class="st2" x1="71.1" y1="-185.1" x2="128.1" y2="-128.1"/>
				<line class="st2" x1="14.1" y1="-185.1" x2="71.1" y2="-128.1"/>
			</g>
		</g>
	</g>
</pattern>
<pattern  y="2479.1" width="57" height="57" patternUnits="userSpaceOnUse" id="locale_tecnico-8_2_" viewBox="71.1 -128.1 57 57" style="overflow:visible;">
	<g>
		<rect x="71.1" y="-128.1" class="st0" width="57" height="57"/>
		<g>
			<rect x="71.1" y="-128.1" class="st0" width="57" height="57"/>
			<g>
				<rect x="71.1" y="-128.1" class="st0" width="57" height="57"/>
				<rect x="71.1" y="-128.1" class="st0" width="57" height="57"/>
				<rect x="71.1" y="-128.1" class="st0" width="57" height="57"/>
				<rect x="71.1" y="-128.1" class="st0" width="57" height="57"/>
				<rect x="71.1" y="-128.1" class="st0" width="57" height="57"/>
				<rect x="71.1" y="-128.1" class="st0" width="57" height="57"/>
				<rect x="71.1" y="-128.1" class="st0" width="57" height="57"/>
				<rect x="71.1" y="-128.1" class="st0" width="57" height="57"/>
				<rect x="71.1" y="-128.1" class="st0" width="57" height="57"/>
				<rect x="71.1" y="-128.1" class="st0" width="57" height="57"/>
				<rect x="71.1" y="-128.1" class="st0" width="57" height="57"/>
				<rect x="71.1" y="-128.1" class="st0" width="57" height="57"/>
				<rect x="71.1" y="-128.1" class="st0" width="57" height="57"/>
				<rect x="124.1" y="-76.1" class="st1" width="60" height="58"/>
				<line class="st2" x1="128.1" y1="-71.1" x2="185.1" y2="-14.1"/>
				<rect x="67.1" y="-76.1" class="st1" width="60" height="58"/>
				<line class="st2" x1="71.1" y1="-71.1" x2="128.1" y2="-14.1"/>
				<line class="st2" x1="14.1" y1="-71.1" x2="71.1" y2="-14.1"/>
				<rect x="124.1" y="-133.1" class="st1" width="60" height="58"/>
				<line class="st2" x1="128.1" y1="-128.1" x2="185.1" y2="-71.1"/>
				<rect x="67.1" y="-133.1" class="st1" width="60" height="58"/>
				<line class="st2" x1="71.1" y1="-128.1" x2="128.1" y2="-71.1"/>
				<line class="st2" x1="14.1" y1="-128.1" x2="71.1" y2="-71.1"/>
				<line class="st2" x1="128.1" y1="-185.1" x2="185.1" y2="-128.1"/>
				<line class="st2" x1="71.1" y1="-185.1" x2="128.1" y2="-128.1"/>
				<line class="st2" x1="14.1" y1="-185.1" x2="71.1" y2="-128.1"/>
			</g>
		</g>
	</g>
</pattern>
<pattern  y="2479.1" width="57" height="57" patternUnits="userSpaceOnUse" id="locale_tecnico-9_2_" viewBox="71.1 -128.1 57 57" style="overflow:visible;">
	<g>
		<rect x="71.1" y="-128.1" class="st0" width="57" height="57"/>
		<g>
			<rect x="71.1" y="-128.1" class="st0" width="57" height="57"/>
			<g>
				<rect x="71.1" y="-128.1" class="st0" width="57" height="57"/>
				<rect x="71.1" y="-128.1" class="st0" width="57" height="57"/>
				<rect x="71.1" y="-128.1" class="st0" width="57" height="57"/>
				<rect x="71.1" y="-128.1" class="st0" width="57" height="57"/>
				<rect x="71.1" y="-128.1" class="st0" width="57" height="57"/>
				<rect x="71.1" y="-128.1" class="st0" width="57" height="57"/>
				<rect x="71.1" y="-128.1" class="st0" width="57" height="57"/>
				<rect x="71.1" y="-128.1" class="st0" width="57" height="57"/>
				<rect x="71.1" y="-128.1" class="st0" width="57" height="57"/>
				<rect x="71.1" y="-128.1" class="st0" width="57" height="57"/>
				<rect x="71.1" y="-128.1" class="st0" width="57" height="57"/>
				<rect x="71.1" y="-128.1" class="st0" width="57" height="57"/>
				<rect x="71.1" y="-128.1" class="st0" width="57" height="57"/>
				<rect x="124.1" y="-76.1" class="st1" width="60" height="58"/>
				<line class="st2" x1="128.1" y1="-71.1" x2="185.1" y2="-14.1"/>
				<rect x="67.1" y="-76.1" class="st1" width="60" height="58"/>
				<line class="st2" x1="71.1" y1="-71.1" x2="128.1" y2="-14.1"/>
				<line class="st2" x1="14.1" y1="-71.1" x2="71.1" y2="-14.1"/>
				<rect x="124.1" y="-133.1" class="st1" width="60" height="58"/>
				<line class="st2" x1="128.1" y1="-128.1" x2="185.1" y2="-71.1"/>
				<rect x="67.1" y="-133.1" class="st1" width="60" height="58"/>
				<line class="st2" x1="71.1" y1="-128.1" x2="128.1" y2="-71.1"/>
				<line class="st2" x1="14.1" y1="-128.1" x2="71.1" y2="-71.1"/>
				<line class="st2" x1="128.1" y1="-185.1" x2="185.1" y2="-128.1"/>
				<line class="st2" x1="71.1" y1="-185.1" x2="128.1" y2="-128.1"/>
				<line class="st2" x1="14.1" y1="-185.1" x2="71.1" y2="-128.1"/>
			</g>
		</g>
	</g>
</pattern>
<polygon id="background" class="st1" points="5499.6,393.3 5499.6,1042.3 5499.6,1056.3 5499.6,1364.3 5499.6,1392.7 5471.1,1392.7 
	5163.5,1392.7 0,1392.7 0,0 5500,0 "/>
<polygon class="st3" points="2472.8,1364.3 2472.8,1193.3 2876.6,1193.3 2890.6,1193.3 2890.6,1179.3 2890.6,1010.5 2947.1,1010.5 
	2947.1,1364.3 "/>
<pattern  id="locale_tecnico_1_" xlink:href="#locale_tecnico_2_" patternTransform="matrix(-0.42 0 0 -0.42 -54391.043 -43281.5508)">
</pattern>
<polygon id="locale_tecnico" class="st4" points="4496.7,1364.3 4496.7,1010.5 4535.7,1010.5 4535.7,1111.4 4535.7,1125.4 
	4535.7,1364.3 "/>
<pattern  id="locale_tecnico-2_1_" xlink:href="#locale_tecnico-2_2_" patternTransform="matrix(-0.42 0 0 -0.42 -54391.043 -43281.5508)">
</pattern>
<polygon id="locale_tecnico-2" class="st5" points="821.7,1364.3 821.7,1010.5 857.4,1010.5 857.4,1364.3 832.9,1364.3 "/>
<pattern  id="locale_tecnico-4_1_" xlink:href="#locale_tecnico-4_2_" patternTransform="matrix(-0.42 0 0 -0.42 -54391.043 -43281.5508)">
</pattern>
<polygon id="locale_tecnico-4" class="st6" points="4545.1,733.1 4545.1,639.7 4935.7,639.7 4949.8,639.7 5034.2,639.7 
	5048.2,639.7 5140.2,639.7 5140.2,733.1 4626.5,733.1 4612.5,733.1 "/>
<pattern  id="locale_tecnico-5_1_" xlink:href="#locale_tecnico-5_2_" patternTransform="matrix(-0.42 0 0 -0.42 -54391.043 -43281.5508)">
</pattern>
<rect id="locale_tecnico-5" x="3448.9" y="610.5" class="st7" width="604.5" height="122.6"/>
<pattern  id="locale_tecnico-6_1_" xlink:href="#locale_tecnico-6_2_" patternTransform="matrix(-0.42 0 0 -0.42 -54391.043 -43281.5508)">
</pattern>
<rect id="locale_tecnico-6" x="2906.7" y="606.6" class="st8" width="101.4" height="126.4"/>
<pattern  id="locale_tecnico-7_1_" xlink:href="#locale_tecnico-7_2_" patternTransform="matrix(-0.42 0 0 -0.42 -54391.043 -43281.5508)">
</pattern>
<rect id="locale_tecnico-7" x="1887.4" y="609.6" class="st9" width="59.8" height="123.5"/>
<pattern  id="locale_tecnico-8_1_" xlink:href="#locale_tecnico-8_2_" patternTransform="matrix(-0.42 0 0 -0.42 -54391.043 -43281.5508)">
</pattern>
<polyline id="locale_tecnico-8" class="st10" points="2404.1,607.9 2458.8,607.9 2458.8,733.1 2404.1,733.1 "/>
<pattern  id="locale_tecnico-9_1_" xlink:href="#locale_tecnico-9_2_" patternTransform="matrix(-0.42 0 0 -0.42 -54391.043 -43281.5508)">
</pattern>
<polyline id="locale_tecnico-9" class="st11" points="1372.3,612.6 1392.7,612.6 1406.7,612.6 1425.3,612.6 1425.3,733.1 
	1372.3,733.1 "/>
<rect id="senza_codice" x="5048.2" y="393.3" class="st1" width="92.1" height="232.4"/>
<polygon id="senza_codice-2" class="st1" points="4023.2,409.8 4023.2,28.4 4531,28.4 4531,379.2 4531,393.3 4531,409.8 "/>
<g class="clickable" id="A2-0-13-C">
	<polygon id="a" class="st1" points="4549.7,1364.3 4549.7,1023.7 4686.3,1023.7 4686.3,1034.5 4686.3,1054.5 4686.3,1364.3 	"/>
</g>
<g class="clickable" id="A2-0-10-C">
	<rect id="a-2" x="500.8" y="1010.5" class="st1" width="159.3" height="122.2"/>
</g>
<g class="clickable" id="A2-0-20">
	<rect x="2472.8" y="1194.6" class="st0" width="416.3" height="169.6"/>
</g>
<g class="clickable" id="A2-0-19">
	<polygon class="st3" points="507.8,733.1 507.8,389.9 924.8,389.9 924.8,733.1 	"/>
</g>
<g id="senza-codice-x">
	<polygon class="st3" points="379.3,733.1 379.3,389.9 495,389.9 495,733.1 	"/>
</g>
<g class="clickable" id="A2-0-18">
	<polygon class="st1" points="4545.1,379.2 4545.1,28.4 5140.2,28.4 5140.2,379.2 5048.2,379.2 5034.2,379.2 4949.8,379.2 
		4935.7,379.2 	"/>
</g>
<g class="clickable" id="A2-0-17">
	<polygon class="st1" points="379.2,375.8 379.2,28.4 924.8,28.4 924.8,375.8 481.9,375.8 467.9,375.8 	"/>
</g>
<g class="clickable" id="A2-0-16">
	<polygon class="st1" points="28.4,747 28.4,389.9 365.2,389.9 365.2,747 	"/>
</g>
<g class="clickable" id="A2-0-13">
	<rect id="traccia" x="2472.8" y="785" class="st0" width="474.3" height="173.7"/>
</g>
<g class="clickable" id="A2-0-12">
	<polygon class="st1" points="4700.4,1111.4 4700.4,1028.3 4968.8,1028.3 4968.8,1133.1 4700.4,1133.1 4700.4,1125.4 	"/>
</g>
<g class="clickable" id="A2-0-11">
	<polygon class="st1" points="5158.1,1133.1 5158.1,1056.3 5471.1,1056.3 5471.1,1364.3 5158.1,1364.3 5158.1,1147 	"/>
</g>
<g class="clickable" id="A2-0-11-A">
	<g id="scala_D">
		<polygon class="st12" points="4933,1368.7 4809.1,1368.7 4809.1,1265.9 5038,1265.9 5038,1245.6 4808.3,1245.6 4808.3,1145.3 
			5036.1,1145.3 5036.1,1148.8 4811.8,1148.8 4811.8,1242.1 5041.5,1242.1 5041.5,1269.4 4812.6,1269.4 4812.6,1365.2 4933,1365.2 
					"/>
		<polygon class="st12" points="4933,1320.8 4762.8,1320.8 4762.8,1195.2 5036.5,1195.2 5036.5,1198.7 4766.3,1198.7 4766.3,1317.3 
			4933,1317.3 		"/>
		<rect x="4930.5" y="1266.9" class="st12" width="3.5" height="100.8"/>
		<rect x="4910" y="1266.9" class="st12" width="3.5" height="100.8"/>
		<rect x="5034.8" y="1147" class="st12" width="3.5" height="96.8"/>
		<rect x="5014.8" y="1147" class="st12" width="3.5" height="96.8"/>
		<rect x="4993.8" y="1147" class="st12" width="3.5" height="96.8"/>
		<rect x="4973.2" y="1147" class="st12" width="3.5" height="96.8"/>
		<rect x="4952.7" y="1147" class="st12" width="3.5" height="96.8"/>
		<rect x="4932.7" y="1147" class="st12" width="3.5" height="96.8"/>
		<rect x="4910.1" y="1147" class="st12" width="3.5" height="96.8"/>
		<rect x="4890" y="1147" class="st12" width="3.5" height="96.8"/>
		<rect x="4869" y="1147" class="st12" width="3.5" height="96.8"/>
		<rect x="4848" y="1147" class="st12" width="3.5" height="96.8"/>
		<rect x="4827" y="1147" class="st12" width="3.5" height="96.8"/>
		<polygon class="st12" points="4910.2,1244.1 4889.5,1196.9 4908,1146.4 4911.3,1147.6 4893.3,1196.8 4913.4,1242.7 		"/>
		<polygon class="st12" points="4915,1366.6 4911.7,1365.3 4930.3,1319.5 4910.2,1270.3 4913.5,1269 4934.1,1319.5 		"/>
		<polygon class="st12" points="4810.8,1269.7 4808.3,1269.7 4808.3,1242.1 4871,1242.1 4871,1245.6 4811.8,1245.6 4811.8,1267.9 
			4810.8,1267.9 		"/>
		
			<rect x="4880.8" y="1145.9" transform="matrix(0.9419 -0.3359 0.3359 0.9419 -110.143 1708.1672)" class="st12" width="3.5" height="53.1"/>
		<rect x="4827" y="1266.9" class="st12" width="3.5" height="100.8"/>
		<rect x="4869" y="1266.9" class="st12" width="3.5" height="100.8"/>
		<rect x="4848" y="1266.9" class="st12" width="3.5" height="100.8"/>
		<rect x="4890" y="1266.9" class="st12" width="3.5" height="100.8"/>
	</g>
	<g id="d">
		<polygon class="st0" points="4700.4,1364.3 4700.4,1147 4968.8,1147 4982.9,1147 5144,1147 5144,1364.3 5135.6,1364.3 
			5135.2,1364.3 		"/>
	</g>
</g>
<g class="clickable" id="A2-0-11-B">
	<polygon class="st1" points="4982.9,1133.1 4982.9,1028.3 5144,1028.3 5144,1042.3 5144,1056.3 5144,1133.1 	"/>
</g>
<g class="clickable" id="A2-0-10">
	<g id="scale">
		<polygon class="st12" points="700.5,1368.7 576.5,1368.7 576.5,1365.2 697,1365.2 697,1269.4 468,1269.4 468,1242.1 697.8,1242.1 
			697.8,1148.8 473.5,1148.8 473.5,1145.3 701.3,1145.3 701.3,1245.6 471.6,1245.6 471.6,1265.9 700.5,1265.9 		"/>
		<polygon class="st12" points="746.7,1320.8 576.5,1320.8 576.5,1317.3 743.2,1317.3 743.2,1198.7 473,1198.7 473,1195.2 
			746.7,1195.2 		"/>
		<rect x="575.5" y="1266.9" class="st12" width="3.5" height="100.8"/>
		<rect x="596" y="1266.9" class="st12" width="3.5" height="100.8"/>
		<rect x="471.2" y="1147" class="st12" width="3.5" height="96.8"/>
		<rect x="491.2" y="1147" class="st12" width="3.5" height="96.8"/>
		<rect x="512.3" y="1147" class="st12" width="3.5" height="96.8"/>
		<rect x="532.8" y="1147" class="st12" width="3.5" height="96.8"/>
		<rect x="553.3" y="1147" class="st12" width="3.5" height="96.8"/>
		<rect x="573.2" y="1147" class="st12" width="3.5" height="96.8"/>
		<rect x="595.9" y="1147" class="st12" width="3.5" height="96.8"/>
		<rect x="616" y="1147" class="st12" width="3.5" height="96.8"/>
		<rect x="637" y="1147" class="st12" width="3.5" height="96.8"/>
		<rect x="658" y="1147" class="st12" width="3.5" height="96.8"/>
		<rect x="679" y="1147" class="st12" width="3.5" height="96.8"/>
		<polygon class="st12" points="599.4,1244.1 596.1,1242.7 616.2,1196.8 598.2,1147.6 601.5,1146.4 620,1196.9 		"/>
		<polygon class="st12" points="594.6,1366.6 575.5,1319.5 596.1,1269 599.3,1270.3 579.3,1319.5 597.8,1365.3 		"/>
		<polygon class="st12" points="701.3,1269.7 698.7,1269.7 698.7,1267.9 697.8,1267.9 697.8,1245.6 638.5,1245.6 638.5,1242.1 
			701.3,1242.1 		"/>
		
			<rect x="600.5" y="1170.1" transform="matrix(0.3348 -0.9423 0.9423 0.3348 -687.1503 1370.3433)" class="st12" width="53.1" height="3.5"/>
		<rect x="679" y="1266.9" class="st12" width="3.5" height="100.8"/>
		<rect x="637" y="1266.9" class="st12" width="3.5" height="100.8"/>
		<rect x="658" y="1266.9" class="st12" width="3.5" height="100.8"/>
		<rect x="616" y="1266.9" class="st12" width="3.5" height="100.8"/>
	</g>
	<polygon class="st0" points="526.9,1146.6 540.9,1146.6 660.1,1146.6 674.1,1146.6 807.7,1146.6 807.7,1364.3 71.7,1364.3 
		28.4,1364.3 28.4,1146.6 407.2,1146.6 	"/>
</g>
<g class="clickable" id="A2-0-09">
	<rect x="28.4" y="28.4" class="st1" width="336.8" height="347.4"/>
</g>
<g class="clickable" id="A2-0-06">
	<polygon class="st3" points="938.8,375.8 938.8,28.4 1392.7,28.4 1392.7,598.6 1372.3,598.6 1358.4,598.6 1358.4,612.6 
		1358.4,733.1 938.8,733.1 938.8,634.2 938.8,620.2 938.8,389.9 	"/>
</g>
<g class="clickable" id="A2-0-04">
	<polygon class="st1" points="4023.2,596.4 4023.2,423.8 4531,423.8 4531,733.1 4067.4,733.1 4067.4,610.5 4067.4,596.4 
		4053.4,596.4 	"/>
</g>
<g class="clickable" id="A2-0-03-B">
	<rect x="4949.8" y="393.3" class="st1" width="84.4" height="232.4"/>
</g>
<g class="clickable" id="A2-0-03-A">
	<polygon class="st1" points="4545.1,409.8 4545.1,393.3 4935.7,393.3 4935.7,625.7 4545.1,625.7 4545.1,423.8 	"/>
</g>
<g class="clickable" id="A2-0-02-D">
	<polygon class="st3" points="871.3,1364.3 871.3,1010.5 1045.7,1010.5 1045.7,1364.3 926,1364.3 	"/>
</g>
<g class="clickable" id="A2-0-02-C">
	<rect x="1059.7" y="1010.5" class="st3" width="334.3" height="353.8"/>
</g>
<g class="clickable" id="A2-0-02-B">
	<rect x="1408" y="1010.5" class="st3" width="496.3" height="353.8"/>
</g>
<g class="clickable" id="A2-0-02-A">
	<polygon class="st3" points="1918.3,1364.3 1918.3,1010.5 2458.8,1010.5 2458.8,1179.3 2458.8,1193.3 2458.8,1364.3 	"/>
</g>
<g class="clickable" id="A2-0-01-C">
	<rect x="2961" y="1010.5" class="st3" width="484.1" height="353.8"/>
</g>
<g class="clickable" id="A2-0-01-B">
	<rect x="3459.1" y="1010.5" class="st3" width="541.7" height="353.8"/>
</g>
<g class="clickable" id="A2-0-01-A">
	<rect x="4014.8" y="1010.5" class="st3" width="467.9" height="353.8"/>
</g>
<g class="clickable" id="A2-0-05-D">
	<polygon id="tracciato_4_" class="st3" points="1406.6,28.4 1873.4,28.4 1873.4,733 1439.3,733 1439.3,598.6 1406.6,598.6 	"/>
</g>
<g class="clickable" id="A2-0-05-C">
	<rect id="tracciato_3_" x="1953.5" y="28.4" class="st3" width="441.7" height="704.6"/>
</g>
<g class="clickable" id="A2-0-05-B">
	<rect id="tracciato_2_" x="2461.9" y="28.4" class="st3" width="441.7" height="707.1"/>
</g>
<g class="clickable" id="A2-0-05-A">
	<polygon id="tracciato_1_" class="st3" points="4009.3,28.4 3445.1,28.4 3390.3,28.4 3016.3,28.4 3016.3,735.5 3445.1,735.5 
		3445.1,596 4009.3,596 	"/>
</g>
<g id="walls">
	<path class="st12" d="M379.2,523h-14v224H1598v-14h-158.7V598.6h-32.7v-84.8h-14v84.8h-34.3v134.5H938.8V513.7h-14V733H379.2V523z
		 M1372.3,612.5h53V733h-53V612.5z"/>
	<polygon class="st12" points="28.4,1392.7 110.3,1392.7 110.3,1364.3 71.7,1364.3 28.4,1364.3 28.4,1146.6 407.2,1146.6 
		407.2,1132.6 28.4,1132.6 28.4,1052.9 106.5,1052.9 106.5,1038.9 28.4,1038.9 28.4,524.8 0,524.8 0,1038.9 0,1052.9 0,1136.4 
		0,1150.5 0,1364.3 0,1392.7 	"/>
	<polygon class="st12" points="3459.1,1239.3 3459.1,1010.5 3540.5,1010.5 3540.5,996.5 3459.1,996.5 3445.1,996.5 3373,996.5 
		3373,1010.5 3445.1,1010.5 3445.1,1239.3 	"/>
	<path class="st12" d="M857.4,1364.3h-35.7v-353.8h35.7V1364.3z M4549.8,1111.4v-115h-371.6v14h304.6v353.8h-467.9v-353.8h61.1v-14
		h-433.1v14h358v353.8h-541.7v-73.8h-14v73.8H2961v-353.8h359.8v-14h-752.1v14h307.9v168.8h-308v14h322v-182.9h56.4v353.8h-474.3
		v-170.9h19.5v-14h-19.5V996.5h-395v14h381v353.8h-540.5v-353.8h55.1v-14h-411.9v14h342.8v353.8H1408v-353.8h49.2v-14h-260.5v14
		H1394v353.8h-334.3v-353.8h32.7v-14h-56.9v14h10.2v353.8H871.3v-353.8h59.9v-14H795.9v14h11.9v122.2H674.1v-122.2h70v-14H499.7v14
		h160.4v122.2H526.9v14h280.8v217.6H252v28.4h5011.7v-28.4h-105.6v-47.1h-14v47.1h-443.7V1147h457.7v-14h-175.2v-104.8h15.2v-14
		h-128.5v14h99.2V1133h-268.5v-104.8h59.8v-14h-73.8v350h-136.6L4549.8,1111.4L4549.8,1111.4z M4496.8,1010.5h39v353.8h-39V1010.5z"
		/>
	<polygon class="st12" points="5471.1,1042.3 5158.1,1042.3 5158.1,1028.3 5158.1,1014.3 5144,1014.3 5069.8,1014.3 5069.8,1028.3 
		5144,1028.3 5144,1042.3 5144,1056.3 5158.1,1056.3 5166.5,1056.3 5471.1,1056.3 5471.1,1364.3 5401.5,1364.3 5401.5,1392.7 
		5471.1,1392.7 5499.6,1392.7 5499.6,1364.3 5499.6,1056.3 5499.6,1042.3 5499.6,519.7 5471.1,519.7 	"/>
	<path class="st12" d="M28.4,419.5v-29.7h133.2v-14H28.4V28.4h336.8v347.5h-97.1v14h97.1v32.6h14v-32.7h21.1v-14h-21.1V28.4h545.6
		v347.5H476.1v14h18v344.6h14V389.8h416.6v68.8h14V28.4h453.9v430.1h14V28.4h2602.6v431h14v-35.6h357.2v-14h-357.2V28.4H4531v381.3
		h-80.6v14h80.6v35.6h14v-66.1h390.7v66.1h14v-66.1h84.4v232.4h-84.4V513.3h-14v112.4H4545V513.3h-14v219.8h-239.2v14h862.4V519.7
		h-14v106h-92.1V393.3h12.9v-14.1h-516V28.4h595.2v350.8h-11.9v14h11.9v19.9h14v-19.9h97.2v-14.1h-97.2V28.4h331.3v336.4h-14.4v14.5
		h-113.3v14h113.3v19.9h28.4v-19.9h0.4V0H0v419.5H28.4z M5140.2,639.7V733H4545v-93.3H5140.2z"/>
	<path class="st12" d="M3022.1,592.6h-129.4v140.5H2670v14h1551.8v-14h-154.4V596.5h-44.1v-83.1h-14v83.2H3435v136.6h-412.8
		L3022.1,592.6L3022.1,592.6z M3008.1,733.1h-101.4V606.7h101.4V733.1z M3448.9,610.5h604.5V733h-604.5V610.5z"/>
	<path class="st12" d="M1961.2,595.6h-87.8v137.5h-216.8v14h954.9v-14h-138.7V593.9h-82.7V733h-428.9L1961.2,595.6L1961.2,595.6z
		 M1947.2,733h-59.8V609.6h59.8V733z M2404.1,607.9h54.7V733h-54.7V607.9z"/>
	<polygon class="st12" points="344.9,1010.5 344.9,1038.9 257.1,1038.9 257.1,1052.9 344.9,1052.9 358.9,1052.9 358.9,1038.9 
		358.9,1010.5 412.8,1010.5 412.8,996.5 358.9,996.5 344.9,996.5 	"/>
</g>
<line class="st13" x1="5267.7" y1="28" x2="5392.8" y2="28"/>
<g class="clickable" id="A2-0-08">
	<g id="scale-2">
		<polygon class="st12" points="5397.4,237.8 5393.9,237.8 5393.9,105.7 5267.7,105.7 5267.7,102.2 5397.4,102.2 		"/>
		<polygon class="st12" points="5473.1,237.8 5469.6,237.8 5469.6,29.8 5394.6,29.8 5394.6,103.9 5391.1,103.9 5391.1,26.3 
			5473.1,26.3 		"/>
		<polygon class="st12" points="5434.5,237.1 5431,237.1 5431,67.7 5267.7,67.7 5267.7,64.2 5434.5,64.2 		"/>
		<rect x="5266.1" y="28" class="st12" width="3.5" height="75.9"/>
		<rect x="5283.1" y="28" class="st12" width="3.5" height="75.9"/>
		<rect x="5321.1" y="28" class="st12" width="3.5" height="75.9"/>
		<rect x="5338.9" y="28" class="st12" width="3.5" height="75.9"/>
		<rect x="5356.3" y="28" class="st12" width="3.5" height="75.9"/>
		<rect x="5373.3" y="28" class="st12" width="3.5" height="75.9"/>
		<rect x="5395.6" y="111.7" class="st12" width="75.9" height="3.5"/>
		<rect x="5395.6" y="129.6" class="st12" width="75.9" height="3.5"/>
		<rect x="5395.6" y="146.9" class="st12" width="75.9" height="3.5"/>
		<rect x="5395.6" y="166.4" class="st12" width="75.9" height="3.5"/>
		<rect x="5395.6" y="183.8" class="st12" width="75.9" height="3.5"/>
		<rect x="5395.6" y="202.1" class="st12" width="75.9" height="3.5"/>
		<rect x="5395.6" y="219" class="st12" width="75.9" height="3.5"/>
		<rect x="5395.6" y="236" class="st12" width="94.8" height="3.5"/>
		<rect x="5302.5" y="28" class="st12" width="3.5" height="75.9"/>
		<polygon class="st12" points="5282.2,104.4 5266.2,65.9 5281.8,27.2 5285.1,28.5 5270,65.9 5285.5,103 		"/>
		<polygon class="st12" points="5395.7,131.6 5394.3,128.4 5432.7,112.4 5471.6,128 5470.3,131.3 5432.7,116.2 		"/>
	</g>
	<g id="tracciato">
		<polygon class="st0" points="5154.2,379.2 5154.2,28.4 5485.5,28.4 5485.5,364.8 5471.1,364.8 5471.1,379.2 		"/>
	</g>
</g>
<line class="st13" x1="28" y1="98.6" x2="28" y2="237.8"/>
<line class="st13" x1="103.7" y1="130.7" x2="103.7" y2="237.8"/>
<rect x="27.8" y="112.6" class="st12" width="38.6" height="3.5"/>
<rect x="64.8" y="114.5" class="st12" width="3.5" height="122.6"/>
<rect x="45.8" y="86.1" transform="matrix(0.3849 -0.9229 0.9229 0.3849 -69.1121 109.3715)" class="st12" width="3.5" height="40.9"/>
<rect x="27.8" y="129.6" class="st12" width="75.9" height="3.5"/>
<rect x="27.8" y="146.9" class="st12" width="75.9" height="3.5"/>
<rect x="27.8" y="166.4" class="st12" width="75.9" height="3.5"/>
<rect x="27.8" y="183.8" class="st12" width="75.9" height="3.5"/>
<rect x="27.8" y="202.1" class="st12" width="75.9" height="3.5"/>
<rect x="27.8" y="219" class="st12" width="75.9" height="3.5"/>
<rect x="27.8" y="236" class="st12" width="75.9" height="3.5"/>
<polygon class="st12" points="103.7,131.6 66.6,116.2 29.1,131.3 27.8,128 66.6,112.4 105,128.4 "/>
<g class="clickable" id="A2-0-21">
	<g id="scale-3">
		<polygon class="st12" points="2753.4,1183.2 2647.3,1183.2 2647.3,1179.7 2749.9,1179.7 2749.9,1105.8 2557.6,1105.8 
			2557.6,1091.4 2699.9,1091.4 2699.9,1094.9 2561.1,1094.9 2561.1,1102.2 2753.4,1102.2 		"/>
		<rect x="2647.5" y="1142.1" class="st12" width="103.9" height="3.5"/>
		<rect x="2682.9" y="1008.4" class="st12" width="3.5" height="85.5"/>
		<rect x="2647.8" y="1008.4" class="st12" width="3.5" height="85.5"/>
		<rect x="2595.1" y="1008.4" class="st12" width="3.5" height="85.5"/>
		<rect x="2577.3" y="1008.4" class="st12" width="3.5" height="85.5"/>
		<rect x="2560.3" y="1008.4" class="st12" width="3.5" height="85.5"/>
		<rect x="2664.7" y="1008.4" class="st12" width="3.5" height="85.5"/>
		<rect x="2612.5" y="1008.4" class="st12" width="3.5" height="85.5"/>
		<rect x="2629.5" y="1008.4" class="st12" width="3.5" height="85.5"/>
		<rect x="2646" y="1104" class="st12" width="3.5" height="77.5"/>
		<rect x="2663.4" y="1104" class="st12" width="3.5" height="77.5"/>
		<rect x="2680.4" y="1104" class="st12" width="3.5" height="77.5"/>
		<rect x="2698.2" y="1104" class="st12" width="3.5" height="77.5"/>
		<rect x="2715.6" y="1104" class="st12" width="3.5" height="77.5"/>
		<rect x="2732.2" y="1104" class="st12" width="3.5" height="77.5"/>
		<polygon class="st12" points="2734.9,1182.2 2731.8,1180.7 2749.3,1143.9 2731.9,1105.1 2735.1,1103.7 2753.2,1143.9 		"/>
		<polygon class="st12" points="2771.6,1105.8 2736,1105.8 2736,1102.2 2768.1,1102.2 2768.1,1094.7 2699.9,1094.7 2699.9,1091.2 
			2771.6,1091.2 		"/>
		<rect x="2715.2" y="1009.1" class="st12" width="3.5" height="84.1"/>
		<rect x="2732.1" y="1009.1" class="st12" width="3.5" height="84.1"/>
		<rect x="2749.1" y="1009.1" class="st12" width="3.5" height="84.1"/>
		<rect x="2767.8" y="1009.1" class="st12" width="3.5" height="84.1"/>
		<rect x="2698.2" y="1008.2" class="st12" width="3.5" height="84.1"/>
		
			<rect x="2738.6" y="1122.8" transform="matrix(0.4156 -0.9095 0.9095 0.4156 590.1093 3167.4753)" class="st12" width="42.9" height="3.5"/>
		<rect x="2767.8" y="1103.6" class="st12" width="3.5" height="84.1"/>
	</g>
	<g id="tracciato-2">
		<polygon class="st0" points="2472.8,1010.5 2472.8,1179.3 2876.6,1179.3 2876.6,1010.5 2568.6,1010.5 		"/>
	</g>
</g>
<polygon class="st12" points="5159,1135.7 5125.1,1135.7 5125.1,1132.2 5155.5,1132.2 5155.5,1057.7 5124.2,1057.7 5124.2,1054.2 
	5159,1054.2 "/>
<rect x="5124.2" y="1091.8" class="st12" width="32.7" height="3.5"/>
<rect x="5122.9" y="1055.3" class="st12" width="3.5" height="79.3"/>
<rect x="5139" y="1055.3" class="st12" width="3.5" height="79.3"/>
<polygon class="st12" points="5139.2,1133.2 5122.9,1093.2 5138,1056 5141.2,1057.3 5126.7,1093.2 5142.4,1131.8 "/>
<polygon class="st12" points="359.3,1135.7 324,1135.7 324,1132.2 355.8,1132.2 355.8,1054 323,1054 323,1050.5 359.3,1050.5 "/>
<rect x="323" y="1090" class="st12" width="34.3" height="3.5"/>
<rect x="321.8" y="1051.6" class="st12" width="3.5" height="83"/>
<rect x="338.7" y="1051.6" class="st12" width="3.5" height="83"/>
<polygon class="st12" points="338.8,1133 321.8,1091.3 337.6,1052.4 340.8,1053.7 325.6,1091.3 342.1,1131.7 "/>
<g>
	<rect x="1873.4" y="28.4" class="st3" width="87.8" height="567.1"/>
	<rect x="2387.5" y="28.4" class="st3" width="87.8" height="567.1"/>
	<rect x="2903.2" y="28.4" class="st3" width="123.2" height="564.2"/>
</g>
<line class="st14" x1="1917.3" y1="593.9" x2="1917.3" y2="0"/>
<line class="st14" x1="2431.5" y1="593.9" x2="2431.5" y2="0"/>
<line class="st14" x1="2957.4" y1="593.9" x2="2957.4" y2="0"/>
</svg>
