<svg id="Livello_1" data-name="Livello 1" xmlns="http://www.w3.org/2000/svg" xmlns:xlink="http://www.w3.org/1999/xlink" viewBox="0 0 5500 2479.09"><defs><pattern id="locale_tecnico_1_2" data-name="locale tecnico 1 2" width="57" height="57" patternTransform="matrix(-0.42, 0, 0, 0.42, -31340.85, 24523.2)" patternUnits="userSpaceOnUse" viewBox="0 0 57 57"><rect width="57" height="57" style="fill:none"/><rect width="57" height="57" style="fill:none"/><rect width="57" height="57" style="fill:none"/><rect width="57" height="57" style="fill:none"/><rect width="57" height="57" style="fill:none"/><rect width="57" height="57" style="fill:none"/><rect width="57" height="57" style="fill:none"/><rect width="57" height="57" style="fill:none"/><rect width="57" height="57" style="fill:none"/><rect width="57" height="57" style="fill:none"/><rect width="57" height="57" style="fill:none"/><rect width="57" height="57" style="fill:none"/><rect x="53" y="-53" width="60" height="58" style="fill:#f2f2f2"/><line x1="57" x2="114" y2="-57" style="fill:none;stroke:#ddd;stroke-linecap:square;stroke-linejoin:round;stroke-width:20px"/><rect x="-4" y="-53" width="60" height="58" style="fill:#f2f2f2"/><line x2="57" y2="-57" style="fill:none;stroke:#ddd;stroke-linecap:square;stroke-linejoin:round;stroke-width:20px"/><line x1="-57" y2="-57" style="fill:none;stroke:#ddd;stroke-linecap:square;stroke-linejoin:round;stroke-width:20px"/><rect x="53" y="4" width="60" height="58" style="fill:#f2f2f2"/><line x1="57" y1="57" x2="114" style="fill:none;stroke:#ddd;stroke-linecap:square;stroke-linejoin:round;stroke-width:20px"/><rect x="-4" y="4" width="60" height="58" style="fill:#f2f2f2"/><line y1="57" x2="57" style="fill:none;stroke:#ddd;stroke-linecap:square;stroke-linejoin:round;stroke-width:20px"/><line x1="-57" y1="57" style="fill:none;stroke:#ddd;stroke-linecap:square;stroke-linejoin:round;stroke-width:20px"/><line x1="57" y1="114" x2="114" y2="57" style="fill:none;stroke:#ddd;stroke-linecap:square;stroke-linejoin:round;stroke-width:20px"/><line y1="114" x2="57" y2="57" style="fill:none;stroke:#ddd;stroke-linecap:square;stroke-linejoin:round;stroke-width:20px"/><line x1="-57" y1="114" y2="57" style="fill:none;stroke:#ddd;stroke-linecap:square;stroke-linejoin:round;stroke-width:20px"/></pattern></defs><polygon id="background" points="5499.58 393.26 5499.58 1042.28 5499.58 1056.32 5499.58 1364.26 5499.58 1392.7 5471.14 1392.7 5163.55 1392.7 0 1392.7 0 0 5500 0 5499.58 393.26" style="fill:#f2f2f2"/><polygon points="2472.75 1364.26 2472.75 1193.33 2876.61 1193.33 2890.59 1193.33 2890.59 1179.35 2890.59 1010.46 2947.05 1010.46 2947.05 1364.26 2472.75 1364.26" style="fill:#ddd"/><polygon id="locale_tecnico" data-name="locale tecnico" points="4496.7 1364.26 4496.7 1010.46 4535.74 1010.46 4535.74 1111.45 4535.74 1125.42 4535.74 1364.26 4496.7 1364.26" style="fill:url(#locale_tecnico_1_2)"/><polygon id="locale_tecnico-2" data-name="locale tecnico-2" points="821.7 1364.26 821.7 1010.46 857.37 1010.46 857.37 1364.26 832.87 1364.26 821.7 1364.26" style="fill:url(#locale_tecnico_1_2)"/><polygon id="locale_tecnico-4" data-name="locale tecnico-4" points="4545.08 733.08 4545.08 639.75 4935.74 639.75 4949.79 639.75 5034.2 639.75 5048.17 639.75 5140.24 639.75 5140.24 733.08 4626.48 733.08 4612.5 733.08 4545.08 733.08" style="fill:url(#locale_tecnico_1_2)"/><rect id="locale_tecnico-5" data-name="locale tecnico-5" x="3448.88" y="610.46" width="604.49" height="122.61" style="fill:url(#locale_tecnico_1_2)"/><rect id="locale_tecnico-6" data-name="locale tecnico-6" x="2906.74" y="606.6" width="101.4" height="126.4" style="fill:url(#locale_tecnico_1_2)"/><rect id="locale_tecnico-7" data-name="locale tecnico-7" x="1887.36" y="609.62" width="59.83" height="123.46" style="fill:url(#locale_tecnico_1_2)"/><polyline id="locale_tecnico-8" data-name="locale tecnico-8" points="2404.07 607.93 2458.78 607.93 2458.78 733.08 2404.07 733.08" style="fill:url(#locale_tecnico_1_2)"/><polyline id="locale_tecnico-9" data-name="locale tecnico-9" points="1372.33 612.57 1392.7 612.57 1406.74 612.57 1425.35 612.57 1425.35 733.08 1372.33 733.08" style="fill:url(#locale_tecnico_1_2)"/><rect id="senza_codice" data-name="senza codice" x="5048.17" y="393.26" width="92.06" height="232.44" style="fill:#f2f2f2"/><polygon id="senza_codice-2" data-name="senza codice-2" points="4023.24 409.76 4023.24 28.44 4531.04 28.44 4531.04 379.21 4531.04 393.26 4531.04 409.76 4023.24 409.76" style="fill:#f2f2f2"/><g class="clickable" id="A2-0-13-C" data-name="customclass A2-0-13-C"><polygon id="a" points="4549.72 1364.26 4549.72 1023.67 4686.31 1023.67 4686.31 1034.55 4686.31 1054.49 4686.31 1364.26 4549.72 1364.26" style="fill:#f2f2f2"/></g><g class="clickable" id="A2-0-10-C" data-name="customclass A2-0-10-C"><rect id="a-2" x="500.77" y="1010.46" width="159.27" height="122.19" style="fill:#f2f2f2"/></g><g class="clickable" id="A2-0-20" data-name="customclass A2-0-20"><rect x="2472.75" y="1194.59" width="416.29" height="169.59" style="fill:none"/></g><g class="clickable" id="A2-0-19" data-name="customclass A2-0-19"><polygon points="507.8 733.08 507.8 389.89 924.79 389.89 924.79 733.08 507.8 733.08" style="fill:#ddd"/></g><g id="senza-codice-x"><polygon points="379.28 733.08 379.28 389.89 495.01 389.89 495.01 733.08 379.28 733.08" style="fill:#ddd"/></g><g class="clickable" id="A2-0-18" data-name="customclass A2-0-18"><polygon points="4545.08 379.21 4545.08 28.44 5140.24 28.44 5140.24 379.21 5048.17 379.21 5034.2 379.21 4949.79 379.21 4935.74 379.21 4545.08 379.21" style="fill:#f2f2f2"/></g><g class="clickable" id="A2-0-17" data-name="customclass A2-0-17"><polygon points="379.21 375.84 379.21 28.44 924.79 28.44 924.79 375.84 481.88 375.84 467.91 375.84 379.21 375.84" style="fill:#f2f2f2"/></g><g class="clickable" id="A2-0-16" data-name="customclass A2-0-16"><polygon points="28.44 747.05 28.44 389.89 365.24 389.89 365.24 747.05 28.44 747.05" style="fill:#f2f2f2"/></g><g class="clickable" id="A2-0-13" data-name="customclass A2-0-13"><rect id="traccia" x="2472.75" y="785.04" width="474.3" height="173.67" style="fill:none"/></g><g class="clickable" id="A2-0-12" data-name="customclass A2-0-12"><polygon points="4700.35 1111.45 4700.35 1028.3 4968.82 1028.3 4968.82 1133.08 4700.35 1133.08 4700.35 1125.42 4700.35 1111.45" style="fill:#f2f2f2"/></g><g class="clickable" id="A2-0-11" data-name="customclass A2-0-11"><polygon points="5158.08 1133.08 5158.08 1056.32 5471.14 1056.32 5471.14 1364.26 5158.08 1364.26 5158.08 1147.05 5158.08 1133.08" style="fill:#f2f2f2"/></g><g class="clickable" id="A2-0-11-A" data-name="customclass A2-0-11-A"><g id="scala_D" data-name="scala D"><polygon points="4933.01 1368.68 4809.06 1368.68 4809.06 1265.94 5037.99 1265.94 5037.99 1245.65 4808.29 1245.65 4808.29 1145.3 5036.1 1145.3 5036.1 1148.81 4811.8 1148.81 4811.8 1242.13 5041.5 1242.13 5041.5 1269.45 4812.57 1269.45 4812.57 1365.17 4933.01 1365.17 4933.01 1368.68" style="fill:#b7b7b7"/><polygon points="4933.01 1320.79 4762.78 1320.79 4762.78 1195.22 5036.52 1195.22 5036.52 1198.74 4766.29 1198.74 4766.29 1317.28 4933.01 1317.28 4933.01 1320.79" style="fill:#b7b7b7"/><rect x="4930.55" y="1266.92" width="3.51" height="100.77" style="fill:#b7b7b7"/><rect x="4910.04" y="1266.92" width="3.51" height="100.77" style="fill:#b7b7b7"/><rect x="5034.76" y="1147.05" width="3.51" height="96.84" style="fill:#b7b7b7"/><rect x="5014.75" y="1147.05" width="3.51" height="96.84" style="fill:#b7b7b7"/><rect x="4993.75" y="1147.05" width="3.51" height="96.84" style="fill:#b7b7b7"/><rect x="4973.24" y="1147.05" width="3.51" height="96.84" style="fill:#b7b7b7"/><rect x="4952.74" y="1147.05" width="3.51" height="96.84" style="fill:#b7b7b7"/><rect x="4932.72" y="1147.05" width="3.51" height="96.84" style="fill:#b7b7b7"/><rect x="4910.11" y="1147.05" width="3.51" height="96.84" style="fill:#b7b7b7"/><rect x="4890.03" y="1147.05" width="3.51" height="96.84" style="fill:#b7b7b7"/><rect x="4869.03" y="1147.05" width="3.51" height="96.84" style="fill:#b7b7b7"/><rect x="4848.03" y="1147.05" width="3.51" height="96.84" style="fill:#b7b7b7"/><rect x="4827.04" y="1147.05" width="3.51" height="96.84" style="fill:#b7b7b7"/><polygon points="4910.19 1244.1 4889.54 1196.9 4908.04 1146.45 4911.34 1147.65 4893.32 1196.78 4913.41 1242.69 4910.19 1244.1" style="fill:#b7b7b7"/><polygon points="4914.97 1366.6 4911.72 1365.28 4930.27 1319.52 4910.24 1270.33 4913.49 1269 4934.06 1319.52 4914.97 1366.6" style="fill:#b7b7b7"/><polygon points="4810.81 1269.66 4808.29 1269.66 4808.29 1242.13 4871 1242.13 4871 1245.65 4811.8 1245.65 4811.8 1267.91 4810.81 1267.91 4810.81 1269.66" style="fill:#b7b7b7"/><rect x="4880.76" y="1145.37" width="3.51" height="53.09" transform="translate(-109.9 1708.71) rotate(-19.63)" style="fill:#b7b7b7"/><rect x="4827.04" y="1266.92" width="3.51" height="100.77" style="fill:#b7b7b7"/><rect x="4869.03" y="1266.92" width="3.51" height="100.77" style="fill:#b7b7b7"/><rect x="4848.03" y="1266.92" width="3.51" height="100.77" style="fill:#b7b7b7"/><rect x="4890.03" y="1266.92" width="3.51" height="100.77" style="fill:#b7b7b7"/></g><g id="d"><polygon points="4700.35 1364.26 4700.35 1147.05 4968.82 1147.05 4982.86 1147.05 5144.03 1147.05 5144.03 1364.26 5135.6 1364.26 5135.18 1364.26 4700.35 1364.26" style="fill:none"/></g></g><g class="clickable" id="A2-0-11-B" data-name="customclass A2-0-11-B"><polygon points="4982.86 1133.08 4982.86 1028.3 5144.03 1028.3 5144.03 1042.28 5144.03 1056.32 5144.03 1133.08 4982.86 1133.08" style="fill:#f2f2f2"/></g><g class="clickable" id="A2-0-10" data-name="customclass A2-0-10"><g id="scale"><polygon points="700.49 1368.68 576.54 1368.68 576.54 1365.17 696.98 1365.17 696.98 1269.45 468.05 1269.45 468.05 1242.13 697.75 1242.13 697.75 1148.81 473.45 1148.81 473.45 1145.3 701.26 1145.3 701.26 1245.65 471.56 1245.65 471.56 1265.94 700.49 1265.94 700.49 1368.68" style="fill:#b7b7b7"/><polygon points="746.7 1320.79 576.54 1320.79 576.54 1317.28 743.19 1317.28 743.19 1198.74 473.03 1198.74 473.03 1195.22 746.7 1195.22 746.7 1320.79" style="fill:#b7b7b7"/><rect x="575.49" y="1266.92" width="3.51" height="100.77" style="fill:#b7b7b7"/><rect x="596" y="1266.92" width="3.51" height="100.77" style="fill:#b7b7b7"/><rect x="471.21" y="1147.05" width="3.51" height="96.84" style="fill:#b7b7b7"/><rect x="491.22" y="1147.05" width="3.51" height="96.84" style="fill:#b7b7b7"/><rect x="512.29" y="1147.05" width="3.51" height="96.84" style="fill:#b7b7b7"/><rect x="532.8" y="1147.05" width="3.51" height="96.84" style="fill:#b7b7b7"/><rect x="553.3" y="1147.05" width="3.51" height="96.84" style="fill:#b7b7b7"/><rect x="573.24" y="1147.05" width="3.51" height="96.84" style="fill:#b7b7b7"/><rect x="595.93" y="1147.05" width="3.51" height="96.84" style="fill:#b7b7b7"/><rect x="616.01" y="1147.05" width="3.51" height="96.84" style="fill:#b7b7b7"/><rect x="637.01" y="1147.05" width="3.51" height="96.84" style="fill:#b7b7b7"/><rect x="658.01" y="1147.05" width="3.51" height="96.84" style="fill:#b7b7b7"/><rect x="679" y="1147.05" width="3.51" height="96.84" style="fill:#b7b7b7"/><polygon points="599.36 1244.1 596.14 1242.69 616.23 1196.78 598.21 1147.65 601.51 1146.45 620.01 1196.9 599.36 1244.1" style="fill:#b7b7b7"/><polygon points="594.58 1366.6 575.49 1319.52 596.06 1269 599.31 1270.33 579.28 1319.52 597.84 1365.28 594.58 1366.6" style="fill:#b7b7b7"/><polygon points="701.26 1269.66 698.74 1269.66 698.74 1267.91 697.75 1267.91 697.75 1245.65 638.55 1245.65 638.55 1242.13 701.26 1242.13 701.26 1269.66" style="fill:#b7b7b7"/><rect x="600.47" y="1170.15" width="53.06" height="3.51" transform="translate(-687.2 1370.37) rotate(-70.44)" style="fill:#b7b7b7"/><rect x="679" y="1266.92" width="3.51" height="100.77" style="fill:#b7b7b7"/><rect x="637.01" y="1266.92" width="3.51" height="100.77" style="fill:#b7b7b7"/><rect x="658.01" y="1266.92" width="3.51" height="100.77" style="fill:#b7b7b7"/><rect x="616.01" y="1266.92" width="3.51" height="100.77" style="fill:#b7b7b7"/></g><polygon points="526.9 1146.63 540.87 1146.63 660.11 1146.63 674.09 1146.63 807.73 1146.63 807.73 1364.26 71.7 1364.26 28.44 1364.26 28.44 1146.63 407.23 1146.63 526.9 1146.63" style="fill:none"/></g><g class="clickable" id="A2-0-09" data-name="customclass A2-0-09"><rect x="28.44" y="28.44" width="336.8" height="347.4" style="fill:#f2f2f2"/></g><g class="clickable" id="A2-0-06" data-name="customclass A2-0-06"><polygon points="938.76 375.84 938.76 28.44 1392.7 28.44 1392.7 598.6 1372.33 598.6 1358.36 598.6 1358.36 612.57 1358.36 733.08 938.76 733.08 938.76 634.2 938.76 620.23 938.76 389.89 938.76 375.84" style="fill:#ddd"/></g><g class="clickable" id="A2-0-05" data-name="customclass A2-0-05"><polygon points="1406.74 598.6 1406.74 28.44 4009.27 28.44 4009.27 409.76 4009.27 423.81 4009.27 596.42 3448.88 596.42 3434.9 596.42 3434.9 610.46 3434.9 733.08 3022.12 733.08 3022.12 606.6 3022.12 592.63 3008.15 592.63 2906.74 592.63 2892.77 592.63 2892.77 606.6 2892.77 733.08 2472.75 733.08 2472.75 607.93 2472.75 593.89 2458.78 593.89 2404.07 593.89 2390.03 593.89 2390.03 607.93 2390.03 733.08 1961.17 733.08 1961.17 609.62 1961.17 595.58 1947.19 595.58 1887.36 595.58 1873.32 595.58 1873.32 609.62 1873.32 733.08 1439.4 733.08 1439.4 612.57 1439.4 598.6 1425.35 598.6 1406.74 598.6" style="fill:#ddd"/></g><g class="clickable" id="A2-0-04" data-name="customclass A2-0-04"><polygon points="4023.24 596.42 4023.24 423.81 4531.04 423.81 4531.04 733.08 4067.42 733.08 4067.42 610.46 4067.42 596.42 4053.37 596.42 4023.24 596.42" style="fill:#f2f2f2"/></g><g class="clickable" id="A2-0-03-B" data-name="customclass A2-0-03-B"><rect x="4949.79" y="393.26" width="84.41" height="232.44" style="fill:#f2f2f2"/></g><g class="clickable" id="A2-0-03-A" data-name="customclass A2-0-03-A"><polygon points="4545.08 409.76 4545.08 393.26 4935.74 393.26 4935.74 625.7 4545.08 625.7 4545.08 423.81 4545.08 409.76" style="fill:#f2f2f2"/></g><g class="clickable" id="A2-0-02-D" data-name="customclass A2-0-02-D"><polygon points="871.35 1364.26 871.35 1010.46 1045.72 1010.46 1045.72 1364.26 926.05 1364.26 871.35 1364.26" style="fill:#ddd"/></g><g class="clickable" id="A2-0-02-C" data-name="customclass A2-0-02-C"><rect x="1059.69" y="1010.46" width="334.27" height="353.79" style="fill:#ddd"/></g><g class="clickable" id="A2-0-02-B" data-name="customclass A2-0-02-B"><rect x="1408.01" y="1010.46" width="496.35" height="353.79" style="fill:#ddd"/></g><g class="clickable" id="A2-0-02-A" data-name="customclass A2-0-02-A"><polygon points="1918.33 1364.26 1918.33 1010.46 2458.78 1010.46 2458.78 1179.35 2458.78 1193.33 2458.78 1364.26 1918.33 1364.26" style="fill:#ddd"/></g><g class="clickable" id="A2-0-01-C" data-name="customclass A2-0-01-C"><rect x="2961.03" y="1010.46" width="484.06" height="353.79" style="fill:#ddd"/></g><g class="clickable" id="A2-0-01-B" data-name="customclass A2-0-01-B"><rect x="3459.06" y="1010.46" width="541.71" height="353.79" style="fill:#ddd"/></g><g class="clickable" id="A2-0-01-A" data-name="customclass A2-0-01-A"><rect x="4014.82" y="1010.46" width="467.91" height="353.79" style="fill:#ddd"/></g><g id="walls"><path d="M379.21,523h-14v224H1598v-14H1439.33V598.6H1406.6V513.76h-14V598.6h-34.34V733.08H938.76V513.69h-14V733H379.21Zm993.12,89.54h53V733.08h-53Z" style="fill:#b7b7b7"/><polygon points="28.44 1392.7 110.32 1392.7 110.32 1364.26 71.7 1364.26 28.44 1364.26 28.44 1146.63 407.23 1146.63 407.23 1132.65 28.44 1132.65 28.44 1052.88 106.46 1052.88 106.46 1038.9 28.44 1038.9 28.44 524.79 0 524.79 0 1038.9 0 1052.88 0 1136.45 0 1150.49 0 1364.26 0 1392.7 28.44 1392.7" style="fill:#b7b7b7"/><polygon points="3459.06 1239.33 3459.06 1010.46 3540.52 1010.46 3540.52 996.49 3459.06 996.49 3445.08 996.49 3372.96 996.49 3372.96 1010.46 3445.08 1010.46 3445.08 1239.33 3459.06 1239.33" style="fill:#b7b7b7"/><path d="M857.37,1364.26H821.7v-353.8h35.67Zm3692.42-252.81v-115H4178.16v14h304.56v353.8h-467.9v-353.8h61.09v-14H3642.77v14h358v353.8H3459.06v-73.81h-14v73.81H2961v-353.8h359.76v-14H2568.68v14h307.94v168.82h-308v14h322V1010.39H2947v353.8h-474.3V1193.26h19.53v-14h-19.53V996.49H2077.74v14h381v353.8H1918.26v-353.8h55.12v-14H1561.45v14h342.76v353.8H1408v-353.8h49.15v-14H1196.7v14H1394v353.8H1059.69v-353.8h32.66v-14h-56.89v14h10.19v353.8H871.28v-353.8h59.9v-14H795.86v14h11.86v122.19H674.09V1010.46h70v-14H499.72v14H660.11v122.19H526.9v14H807.72v217.63H252v28.44H5263.69v-28.44H5158.08v-47.13h-14v47.13H4700.35V1147.05h457.73v-14H4982.87V1028.3h15.23v-14H4869.59v14h99.23v104.78H4700.28V1028.3h59.83v-14h-73.8v350H4549.72l.07-252.88Zm-53-100.92h39v353.8h-39Z" style="fill:#b7b7b7"/><polygon points="5471.14 1042.28 5158.08 1042.28 5158.08 1028.3 5158.08 1014.33 5144.03 1014.33 5069.8 1014.33 5069.8 1028.3 5144.03 1028.3 5144.03 1042.28 5144.03 1056.32 5158.08 1056.32 5166.5 1056.32 5471.14 1056.32 5471.14 1364.26 5401.55 1364.26 5401.55 1392.7 5471.14 1392.7 5499.58 1392.7 5499.58 1364.26 5499.58 1056.32 5499.58 1042.28 5499.58 519.66 5471.14 519.66 5471.14 1042.28" style="fill:#b7b7b7"/><path d="M28.44,419.52v-29.7H161.66v-14H28.44V28.37h336.8V375.84H268.12v14h97.12v32.65h14V389.82h21.07v-14H379.21V28.44H924.79V375.91H476.12v14h18.05V734.55h14V389.82H924.79v68.75h14V28.44H1392.7V458.57h14V28.44h2602.6v431h14v-35.6h357.17v-14H4023.24V28.44H4531V409.76h-80.62v14H4531v35.6h14V393.26h390.73v66.15h14V393.26h84.41V625.7h-84.41V513.27h-14V625.7H4545V513.27h-14V733.08H4291.78v14h862.43V519.66h-14v106h-92.07V393.26h12.93V379.21h-516V28.44h595.16V379.21H5128.3v14.05h11.94V413.2h14V393.26h97.19V379.21h-97.19V28.37h331.32V364.75h-14.39v14.46H5357.87v14.05h113.27V413.2h28.44V393.26h.42V0H0V419.52Zm5111.8,220.23v93.33H4545.08V639.75Z" style="fill:#b7b7b7"/><path d="M3022.12,592.63H2892.77V733.08H2670.08v14H4221.84v-14H4067.42V596.49h-44.11V513.34h-14v83.15H3435V733.08H3022.19V592.63Zm-14,140.45H2906.74V606.67h101.41Zm440.73-122.62h604.49V733H3448.88Z" style="fill:#b7b7b7"/><path d="M1961.17,595.58h-87.79v137.5H1656.6v14h954.92v-14h-138.7V593.89H2390.1V733H1961.24V595.58Zm-14,137.43h-59.83V609.62h59.83Zm456.88-125.14h54.71V733h-54.71Z" style="fill:#b7b7b7"/><polygon points="344.87 1010.46 344.87 1038.9 257.09 1038.9 257.09 1052.88 344.87 1052.88 358.92 1052.88 358.92 1038.9 358.92 1010.46 412.78 1010.46 412.78 996.49 358.92 996.49 344.87 996.49 344.87 1010.46" style="fill:#b7b7b7"/></g><line x1="5267.7" y1="28.02" x2="5392.84" y2="28.02" style="fill:none;stroke:#b7b7b7;stroke-miterlimit:10;stroke-width:5px"/><g class="clickable" id="A2-0-08" data-name="customclass A2-0-08"><g id="scale-2"><polygon points="5397.4 237.78 5393.89 237.78 5393.89 105.69 5267.7 105.69 5267.7 102.18 5397.4 102.18 5397.4 237.78" style="fill:#b7b7b7"/><polygon points="5473.1 237.78 5469.59 237.78 5469.59 29.77 5394.59 29.77 5394.59 103.93 5391.08 103.93 5391.08 26.26 5473.1 26.26 5473.1 237.78" style="fill:#b7b7b7"/><polygon points="5434.48 237.15 5430.97 237.15 5430.97 67.7 5267.7 67.7 5267.7 64.19 5434.48 64.19 5434.48 237.15" style="fill:#b7b7b7"/><rect x="5266.08" y="28.02" width="3.51" height="75.91" style="fill:#b7b7b7"/><rect x="5283.08" y="28.02" width="3.51" height="75.91" style="fill:#b7b7b7"/><rect x="5321.14" y="28.02" width="3.51" height="75.91" style="fill:#b7b7b7"/><rect x="5338.9" y="28.02" width="3.51" height="75.91" style="fill:#b7b7b7"/><rect x="5356.32" y="28.02" width="3.51" height="75.91" style="fill:#b7b7b7"/><rect x="5373.31" y="28.02" width="3.51" height="75.91" style="fill:#b7b7b7"/><rect x="5395.65" y="111.73" width="75.91" height="3.51" style="fill:#b7b7b7"/><rect x="5395.65" y="129.56" width="75.91" height="3.51" style="fill:#b7b7b7"/><rect x="5395.65" y="146.91" width="75.91" height="3.51" style="fill:#b7b7b7"/><rect x="5395.65" y="166.43" width="75.91" height="3.51" style="fill:#b7b7b7"/><rect x="5395.65" y="183.85" width="75.91" height="3.51" style="fill:#b7b7b7"/><rect x="5395.65" y="202.11" width="75.91" height="3.51" style="fill:#b7b7b7"/><rect x="5395.65" y="219.03" width="75.91" height="3.51" style="fill:#b7b7b7"/><rect x="5395.65" y="236.03" width="94.8" height="3.51" style="fill:#b7b7b7"/><rect x="5302.46" y="28.02" width="3.51" height="75.91" style="fill:#b7b7b7"/><polygon points="5282.23 104.4 5266.22 65.95 5281.8 27.16 5285.06 28.46 5270.02 65.93 5285.47 103.05 5282.23 104.4" style="fill:#b7b7b7"/><polygon points="5395.69 131.61 5394.34 128.37 5432.71 112.43 5471.58 128 5470.27 131.26 5432.74 116.22 5395.69 131.61" style="fill:#b7b7b7"/></g><g id="tracciato"><polygon points="5154.21 379.21 5154.21 28.44 5485.53 28.44 5485.53 364.82 5471.14 364.82 5471.14 379.21 5154.21 379.21" style="fill:none"/></g></g><line x1="28.02" y1="98.6" x2="28.02" y2="237.78" style="fill:none;stroke:#b7b7b7;stroke-miterlimit:10;stroke-width:5px"/><line x1="103.72" y1="130.69" x2="103.72" y2="237.78" style="fill:none;stroke:#b7b7b7;stroke-miterlimit:10;stroke-width:5px"/><rect x="27.81" y="112.57" width="38.55" height="3.51" style="fill:#b7b7b7"/><rect x="64.82" y="114.54" width="3.51" height="122.61" style="fill:#b7b7b7"/><rect x="45.75" y="86.03" width="3.51" height="40.86" transform="translate(-69.04 109.32) rotate(-67.36)" style="fill:#b7b7b7"/><rect x="27.81" y="129.56" width="75.91" height="3.51" style="fill:#b7b7b7"/><rect x="27.81" y="146.91" width="75.91" height="3.51" style="fill:#b7b7b7"/><rect x="27.81" y="166.43" width="75.91" height="3.51" style="fill:#b7b7b7"/><rect x="27.81" y="183.85" width="75.91" height="3.51" style="fill:#b7b7b7"/><rect x="27.81" y="202.11" width="75.91" height="3.51" style="fill:#b7b7b7"/><rect x="27.81" y="219.03" width="75.91" height="3.51" style="fill:#b7b7b7"/><rect x="27.81" y="236.03" width="75.91" height="3.51" style="fill:#b7b7b7"/><polygon points="103.68 131.61 66.56 116.22 29.09 131.26 27.79 128.01 66.58 112.43 105.03 128.36 103.68 131.61" style="fill:#b7b7b7"/><g class="clickable" id="A2-0-21" data-name="customclass A2-0-21"><g id="scale-3"><polygon points="2753.44 1183.22 2647.33 1183.22 2647.33 1179.7 2749.93 1179.7 2749.93 1105.76 2557.58 1105.76 2557.58 1091.36 2699.93 1091.36 2699.93 1094.87 2561.1 1094.87 2561.1 1102.25 2753.44 1102.25 2753.44 1183.22" style="fill:#b7b7b7"/><rect x="2647.54" y="1142.06" width="103.93" height="3.51" style="fill:#b7b7b7"/><rect x="2682.94" y="1008.36" width="3.51" height="85.46" style="fill:#b7b7b7"/><rect x="2647.75" y="1008.36" width="3.51" height="85.46" style="fill:#b7b7b7"/><rect x="2595.08" y="1008.36" width="3.51" height="85.46" style="fill:#b7b7b7"/><rect x="2577.32" y="1008.36" width="3.51" height="85.46" style="fill:#b7b7b7"/><rect x="2560.32" y="1008.36" width="3.51" height="85.46" style="fill:#b7b7b7"/><rect x="2664.68" y="1008.36" width="3.51" height="85.46" style="fill:#b7b7b7"/><rect x="2612.5" y="1008.36" width="3.51" height="85.46" style="fill:#b7b7b7"/><rect x="2629.49" y="1008.36" width="3.51" height="85.46" style="fill:#b7b7b7"/><rect x="2646" y="1104" width="3.51" height="77.46" style="fill:#b7b7b7"/><rect x="2663.41" y="1104" width="3.51" height="77.46" style="fill:#b7b7b7"/><rect x="2680.41" y="1104" width="3.51" height="77.46" style="fill:#b7b7b7"/><rect x="2698.17" y="1104" width="3.51" height="77.46" style="fill:#b7b7b7"/><rect x="2715.59" y="1104" width="3.51" height="77.46" style="fill:#b7b7b7"/><rect x="2732.16" y="1104" width="3.51" height="77.46" style="fill:#b7b7b7"/><polygon points="2734.94 1182.21 2731.77 1180.7 2749.33 1143.87 2731.9 1105.14 2735.1 1103.7 2753.2 1143.91 2734.94 1182.21" style="fill:#b7b7b7"/><polygon points="2771.63 1105.76 2736.03 1105.76 2736.03 1102.25 2768.12 1102.25 2768.12 1094.73 2699.93 1094.73 2699.93 1091.22 2771.63 1091.22 2771.63 1105.76" style="fill:#b7b7b7"/><rect x="2715.17" y="1009.06" width="3.51" height="84.06" style="fill:#b7b7b7"/><rect x="2732.09" y="1009.06" width="3.51" height="84.06" style="fill:#b7b7b7"/><rect x="2749.09" y="1009.06" width="3.51" height="84.06" style="fill:#b7b7b7"/><rect x="2767.77" y="1009.06" width="3.51" height="84.06" style="fill:#b7b7b7"/><rect x="2698.17" y="1008.22" width="3.51" height="84.06" style="fill:#b7b7b7"/><rect x="2738.72" y="1122.61" width="42.93" height="3.51" transform="translate(590.36 3167.57) rotate(-65.44)" style="fill:#b7b7b7"/><rect x="2767.77" y="1103.65" width="3.51" height="84.06" style="fill:#b7b7b7"/></g><g id="tracciato-2"><polygon points="2472.75 1010.46 2472.75 1179.35 2876.61 1179.35 2876.61 1010.46 2568.61 1010.46 2472.75 1010.46" style="fill:none"/></g></g><polygon points="5158.99 1135.74 5125.14 1135.74 5125.14 1132.23 5155.48 1132.23 5155.48 1057.72 5124.16 1057.72 5124.16 1054.21 5158.99 1054.21 5158.99 1135.74" style="fill:#b7b7b7"/><rect x="5124.16" y="1091.85" width="32.73" height="3.51" style="fill:#b7b7b7"/><rect x="5122.89" y="1055.34" width="3.51" height="79.28" style="fill:#b7b7b7"/><rect x="5139.04" y="1055.34" width="3.51" height="79.28" style="fill:#b7b7b7"/><polygon points="5139.18 1133.18 5122.9 1093.19 5137.98 1056.01 5141.23 1057.33 5126.68 1093.19 5142.43 1131.85 5139.18 1133.18" style="fill:#b7b7b7"/><polygon points="359.34 1135.74 324.02 1135.74 324.02 1132.23 355.83 1132.23 355.83 1054 322.96 1054 322.96 1050.49 359.34 1050.49 359.34 1135.74" style="fill:#b7b7b7"/><rect x="322.96" y="1089.96" width="34.27" height="3.51" style="fill:#b7b7b7"/><rect x="321.84" y="1051.62" width="3.51" height="83.01" style="fill:#b7b7b7"/><rect x="338.69" y="1051.62" width="3.51" height="83.01" style="fill:#b7b7b7"/><polygon points="338.82 1133.04 321.77 1091.29 337.56 1052.43 340.81 1053.75 325.56 1091.29 342.07 1131.71 338.82 1133.04" style="fill:#b7b7b7"/></svg>