<svg id="Livello_1" data-name="Livello 1" xmlns="http://www.w3.org/2000/svg" xmlns:xlink="http://www.w3.org/1999/xlink" viewBox="0 0 5500 1393.93"><defs><pattern id="locale_tecnico_2_2" data-name="locale tecnico 2 2" width="57" height="57" patternTransform="translate(-12749.32 -7714.57) rotate(180) scale(0.42)" patternUnits="userSpaceOnUse" viewBox="0 0 57 57"><rect width="57" height="57" style="fill:none"/><rect width="57" height="57" style="fill:none"/><rect width="57" height="57" style="fill:none"/><rect width="57" height="57" style="fill:none"/><rect width="57" height="57" style="fill:none"/><rect width="57" height="57" style="fill:none"/><rect width="57" height="57" style="fill:none"/><rect width="57" height="57" style="fill:none"/><rect width="57" height="57" style="fill:none"/><rect x="53" y="52" width="60" height="58" style="fill:#f2f2f2"/><line x1="57" y1="57" x2="114" y2="114" style="fill:none;stroke:#ddd;stroke-linecap:square;stroke-linejoin:round;stroke-width:20px"/><rect x="-4" y="52" width="60" height="58" style="fill:#f2f2f2"/><line y1="57" x2="57" y2="114" style="fill:none;stroke:#ddd;stroke-linecap:square;stroke-linejoin:round;stroke-width:20px"/><line x1="-57" y1="57" y2="114" style="fill:none;stroke:#ddd;stroke-linecap:square;stroke-linejoin:round;stroke-width:20px"/><rect x="53" y="-5" width="60" height="58" style="fill:#f2f2f2"/><line x1="57" x2="114" y2="57" style="fill:none;stroke:#ddd;stroke-linecap:square;stroke-linejoin:round;stroke-width:20px"/><rect x="-4" y="-5" width="60" height="58" style="fill:#f2f2f2"/><line x2="57" y2="57" style="fill:none;stroke:#ddd;stroke-linecap:square;stroke-linejoin:round;stroke-width:20px"/><line x1="-57" y2="57" style="fill:none;stroke:#ddd;stroke-linecap:square;stroke-linejoin:round;stroke-width:20px"/><line x1="57" y1="-57" x2="114" style="fill:none;stroke:#ddd;stroke-linecap:square;stroke-linejoin:round;stroke-width:20px"/><line y1="-57" x2="57" style="fill:none;stroke:#ddd;stroke-linecap:square;stroke-linejoin:round;stroke-width:20px"/><line x1="-57" y1="-57" style="fill:none;stroke:#ddd;stroke-linecap:square;stroke-linejoin:round;stroke-width:20px"/></pattern><pattern id="locale_tecnico-3_2_2" data-name="locale tecnico-3 2 2" width="57" height="57" patternTransform="translate(-14602.58 -13492.11) rotate(180) scale(0.65 0.71)" patternUnits="userSpaceOnUse" viewBox="0 0 57 57"><rect width="57" height="57" style="fill:none"/><rect width="57" height="57" style="fill:none"/><rect width="57" height="57" style="fill:none"/><rect width="57" height="57" style="fill:none"/><rect width="57" height="57" style="fill:none"/><rect width="57" height="57" style="fill:none"/><rect width="57" height="57" style="fill:none"/><rect width="57" height="57" style="fill:none"/><rect width="57" height="57" style="fill:none"/><rect x="53" y="52" width="60" height="58" style="fill:#f2f2f2"/><line x1="57" y1="57" x2="114" y2="114" style="fill:none;stroke:#ddd;stroke-linecap:square;stroke-linejoin:round;stroke-width:20px"/><rect x="-4" y="52" width="60" height="58" style="fill:#f2f2f2"/><line y1="57" x2="57" y2="114" style="fill:none;stroke:#ddd;stroke-linecap:square;stroke-linejoin:round;stroke-width:20px"/><line x1="-57" y1="57" y2="114" style="fill:none;stroke:#ddd;stroke-linecap:square;stroke-linejoin:round;stroke-width:20px"/><rect x="53" y="-5" width="60" height="58" style="fill:#f2f2f2"/><line x1="57" x2="114" y2="57" style="fill:none;stroke:#ddd;stroke-linecap:square;stroke-linejoin:round;stroke-width:20px"/><rect x="-4" y="-5" width="60" height="58" style="fill:#f2f2f2"/><line x2="57" y2="57" style="fill:none;stroke:#ddd;stroke-linecap:square;stroke-linejoin:round;stroke-width:20px"/><line x1="-57" y2="57" style="fill:none;stroke:#ddd;stroke-linecap:square;stroke-linejoin:round;stroke-width:20px"/><line x1="57" y1="-57" x2="114" style="fill:none;stroke:#ddd;stroke-linecap:square;stroke-linejoin:round;stroke-width:20px"/><line y1="-57" x2="57" style="fill:none;stroke:#ddd;stroke-linecap:square;stroke-linejoin:round;stroke-width:20px"/><line x1="-57" y1="-57" style="fill:none;stroke:#ddd;stroke-linecap:square;stroke-linejoin:round;stroke-width:20px"/></pattern></defs><polygon id="background" points="0 1072.13 0 394.13 0 32.73 0 4.28 28.44 4.28 5471.56 4.28 5500 4.28 5500 32.73 5500 1074.87 5178.84 1074.87 5178.84 1393.93 330.92 1393.93 330.92 1072.13 0 1072.13" style="fill:#f2f2f2"/><polygon points="5212.9 533.89 5212.9 397.78 5471.56 398.49 5471.56 676.81 5443.11 676.81 5434.62 676.81 5127.92 676.81 5127.92 534.45 5212.9 533.89" style="fill:#ddd"/><rect id="locale_tecnico" data-name="locale tecnico" x="4497.04" y="1129.79" width="39.05" height="238.85" style="fill:url(#locale_tecnico_2_2)"/><rect id="locale_tecnico-2" data-name="locale tecnico-2" x="821.76" y="1151" width="35.61" height="217.64" style="fill:url(#locale_tecnico_2_2)"/><polygon id="locale_tecnico-3" data-name="locale tecnico-3" points="4055.44 691.27 4055.44 32.73 1627.02 32.73 1406.85 32.73 938.84 32.73 938.84 394.13 365.27 394.13 260.06 394.13 28.44 394.13 28.44 615 28.44 620.69 28.44 643.45 28.44 1043.27 344.9 1043.27 358.95 1043.27 358.95 1137.03 526.94 1137.03 526.94 1000.85 540.91 1000.85 660.16 1000.85 674.14 1000.85 857.44 1000.85 871.41 1000.85 2458.97 1000.85 2472.94 1000.85 2890.81 1000.85 2890.81 1368.64 3445.35 1368.64 3445.35 1000.85 3459.32 1000.85 4686.66 1000.85 4700.71 1000.85 4808.87 1000.85 4822.84 1000.85 5149.97 1000.85 5163.95 1000.85 5163.95 1014.83 5163.95 1046.64 5471.56 1046.64 5471.56 688.47 4055.44 691.27" style="fill:url(#locale_tecnico-3_2_2)"/><g class="clickable" id="A2-1-08" data-name="customclass A2-1-08"><rect x="379.31" y="32.73" width="545.55" height="347.5" style="fill:#ddd"/></g><g class="clickable" id="A2-1-07" data-name="customclass A2-1-07"><polygon points="4545.43 332.68 4545.43 32.73 5113.88 32.73 5113.88 383.6 5066.82 383.6 5052.77 383.6 4545.43 383.6 4545.43 346.66 4545.43 332.68" style="fill:#ddd"/></g><g class="clickable" id="A2-1-06-C" data-name="customclass A2-1-06-C"><polygon points="4538.62 636.42 4538.62 398.49 5113.88 398.49 5113.88 676.81 5066.26 676.81 5052.07 676.81 4538.62 676.81 4538.62 647.52 4538.62 636.42" style="fill:#ddd"/></g><g class="clickable" id="A2-1-06-D" data-name="customclass A2-1-06-D"><polygon points="4369.58 638.32 4369.58 329.03 4538.62 329.03 4538.62 690.78 4524.65 690.78 4520.43 690.78 4369.58 690.78 4369.58 652.72 4369.58 638.32" style="fill:#ddd"/></g><g class="clickable" id="A2-1-06-E" data-name="customclass A2-1-06-E"><polygon points="4041.46 638.32 4041.46 329.03 4369.58 329.03 4369.58 690.78 4342.4 690.78 4334.32 690.78 4041.46 690.78 4041.46 652.72 4041.46 638.32" style="fill:#ddd"/></g><g class="clickable" id="A2-1-06-F" data-name="customclass A2-1-06-F"><polygon points="4055.44 281.27 4055.44 0 4538.62 0 4538.62 329.03 4498.59 329.03 4486.72 329.03 4055.44 329.03 4055.44 294.4 4055.44 281.27" style="fill:#ddd"/></g><g class="clickable" id="A2-1-06-B" data-name="customclass A2-1-06-B"><rect x="5212.9" y="397.78" width="258.66" height="279.02" style="fill:none"/></g><g class="clickable" id="A2-1-06-A" data-name="customclass A2-1-06-A"><polygon points="5113.88 502.36 5113.88 398.49 5212.9 398.49 5212.9 520.05 5204.68 520.05 5202.22 520.05 5113.88 520.05 5113.88 507.2 5113.88 502.36" style="fill:#ddd"/></g><g class="clickable" id="A2-1-04" data-name="customclass A2-1-04"><polygon points="4822.84 1137.45 4822.84 1014.83 5149.97 1014.83 5149.97 1046.64 5149.97 1060.68 5149.97 1137.45 4822.84 1137.45" style="fill:#f2f2f2"/></g><g class="clickable" id="A2-1-03" data-name="customclass A2-1-03"><polygon points="871.41 1137.03 871.41 1014.83 2458.97 1014.83 2458.97 1183.66 2458.97 1197.7 2458.97 1368.64 871.41 1368.64 871.41 1151 871.41 1137.03" style="fill:#ddd"/></g><g class="clickable" id="A2-1-01" data-name="customclass A2-1-01"><polygon points="3459.32 1368.64 3459.32 1014.83 4686.66 1014.83 4686.66 1115.82 4550.07 1115.82 4536.09 1115.82 4497.04 1115.82 4483.07 1115.82 4483.07 1129.79 4483.07 1368.64 3459.32 1368.64" style="fill:#ddd"/></g><g class="clickable" id="A2-1-LIFT-D" data-name="customclass A2-1-LIFT-D"><rect id="a" x="4550.07" y="1115.82" width="136.6" height="252.83" style="fill:#f2f2f2"/></g><g class="clickable" id="A2-1-STAIR-D" data-name="customclass A2-1-STAIR-D"><g id="scale-3"><path d="M5154.47,1373.07H4872.63V1270.32h165.75V1250H4808.65V1149.67h345.82Zm-278.32-3.51H5151V1153.18H4812.17v93.33h229.72v27.32H4876.15Z" transform="translate(0 0)" style="fill:#b7b7b7"/><polygon points="5088.38 1325.17 4875.65 1325.17 4875.65 1321.66 5084.87 1321.66 5084.87 1203.11 4811.6 1203.11 4811.6 1199.6 5088.38 1199.6 5088.38 1325.17" style="fill:#b7b7b7"/><rect x="4994.13" y="1271.31" width="3.51" height="100.78" style="fill:#b7b7b7"/><rect x="5015.13" y="1271.31" width="3.51" height="100.78" style="fill:#b7b7b7"/><rect x="5035.15" y="1271.31" width="3.51" height="100.78" style="fill:#b7b7b7"/><rect x="4973.63" y="1271.31" width="3.51" height="100.78" style="fill:#b7b7b7"/><rect x="5035.15" y="1151.42" width="3.51" height="96.85" style="fill:#b7b7b7"/><rect x="5015.13" y="1151.42" width="3.51" height="96.85" style="fill:#b7b7b7"/><rect x="4994.13" y="1151.42" width="3.51" height="96.85" style="fill:#b7b7b7"/><rect x="4973.63" y="1151.42" width="3.51" height="96.85" style="fill:#b7b7b7"/><rect x="4953.12" y="1151.42" width="3.51" height="96.85" style="fill:#b7b7b7"/><rect x="4933.1" y="1151.42" width="3.51" height="96.85" style="fill:#b7b7b7"/><rect x="4912.1" y="1151.42" width="3.51" height="96.85" style="fill:#b7b7b7"/><rect x="4891.6" y="1151.42" width="3.51" height="96.85" style="fill:#b7b7b7"/><rect x="4872.07" y="1151.42" width="3.51" height="96.85" style="fill:#b7b7b7"/><rect x="4852.55" y="1151.42" width="3.51" height="96.85" style="fill:#b7b7b7"/><rect x="4831.55" y="1151.42" width="3.51" height="96.85" style="fill:#b7b7b7"/><polygon points="4831.72 1248.53 4809.39 1201.24 4809.72 1200.5 4831.84 1150.71 4835.05 1152.14 4813.26 1201.19 4834.89 1247.03 4831.72 1248.53" style="fill:#b7b7b7"/><polygon points="4978.55 1370.99 4975.3 1369.67 4993.85 1323.91 4973.82 1274.71 4977.08 1273.38 4997.64 1323.91 4978.55 1370.99" style="fill:#b7b7b7"/><polygon points="4874.39 1274.04 4808.65 1274.04 4808.65 1246.51 4871.37 1246.51 4871.37 1250.03 4812.17 1250.03 4812.17 1270.53 4874.39 1270.53 4874.39 1274.04" style="fill:#b7b7b7"/><rect x="4978.85" y="1296.85" width="55" height="3.51" transform="translate(1910.96 5442.1) rotate(-67.78)" style="fill:#b7b7b7"/><rect x="4890.61" y="1271.31" width="3.51" height="100.78" style="fill:#b7b7b7"/><rect x="4932.61" y="1271.31" width="3.51" height="100.78" style="fill:#b7b7b7"/><rect x="4911.61" y="1271.31" width="3.51" height="100.78" style="fill:#b7b7b7"/><rect x="4953.61" y="1271.31" width="3.51" height="100.78" style="fill:#b7b7b7"/></g><g id="a-5"><polygon points="4808.87 1151.42 4822.84 1151.42 5149.97 1151.42 5149.97 1368.64 4700.71 1368.64 4700.71 1151.56 4808.87 1151.42" style="fill:none"/></g></g><g class="clickable" id="A2-1-STAIR-E" data-name="customclass A2-1-STAIR-E"><g id="scale"><polygon points="2720.08 1187.59 2468.8 1187.59 2468.8 1011.59 2770.37 1011.59 2770.37 1015.11 2472.31 1015.11 2472.31 1184.08 2716.57 1184.08 2716.57 1110.13 2557.78 1110.13 2557.78 1095.73 2700.14 1095.73 2700.14 1099.24 2561.29 1099.24 2561.29 1106.62 2720.08 1106.62 2720.08 1187.59" style="fill:#b7b7b7"/><polygon points="2718.19 1149.88 2541.7 1149.88 2541.7 1052.19 2805.2 1052.19 2805.2 1096.85 2801.69 1096.85 2801.69 1055.7 2545.21 1055.7 2545.21 1146.37 2718.19 1146.37 2718.19 1149.88" style="fill:#b7b7b7"/><rect x="2683.14" y="1012.72" width="3.51" height="85.47" style="fill:#b7b7b7"/><rect x="2647.96" y="1012.72" width="3.51" height="85.47" style="fill:#b7b7b7"/><rect x="2595.28" y="1012.72" width="3.51" height="85.47" style="fill:#b7b7b7"/><rect x="2577.51" y="1012.72" width="3.51" height="85.47" style="fill:#b7b7b7"/><rect x="2560.52" y="1012.72" width="3.51" height="85.47" style="fill:#b7b7b7"/><rect x="2664.88" y="1012.72" width="3.51" height="85.47" style="fill:#b7b7b7"/><rect x="2612.7" y="1012.72" width="3.51" height="85.47" style="fill:#b7b7b7"/><rect x="2629.7" y="1012.72" width="3.51" height="85.47" style="fill:#b7b7b7"/><rect x="2560.52" y="1108.37" width="3.51" height="77.46" style="fill:#b7b7b7"/><rect x="2577.51" y="1108.37" width="3.51" height="77.46" style="fill:#b7b7b7"/><rect x="2595.28" y="1108.37" width="3.51" height="77.46" style="fill:#b7b7b7"/><rect x="2612.7" y="1108.37" width="3.51" height="77.46" style="fill:#b7b7b7"/><rect x="2630.12" y="1108.37" width="3.51" height="77.46" style="fill:#b7b7b7"/><rect x="2647.04" y="1108.37" width="3.51" height="77.46" style="fill:#b7b7b7"/><rect x="2664.88" y="1108.37" width="3.51" height="77.46" style="fill:#b7b7b7"/><rect x="2682.3" y="1108.37" width="3.51" height="77.46" style="fill:#b7b7b7"/><rect x="2698.87" y="1108.37" width="3.51" height="77.46" style="fill:#b7b7b7"/><polygon points="2701.65 1186.59 2698.48 1185.08 2716.04 1148.24 2698.54 1109.52 2701.74 1108.07 2719.91 1148.28 2701.65 1186.59" style="fill:#b7b7b7"/><rect x="2715.38" y="1013.35" width="3.51" height="84.14" style="fill:#b7b7b7"/><rect x="2732.3" y="1013.35" width="3.51" height="84.14" style="fill:#b7b7b7"/><rect x="2749.3" y="1013.35" width="3.51" height="84.14" style="fill:#b7b7b7"/><rect x="2767.98" y="1013.35" width="3.51" height="84.14" style="fill:#b7b7b7"/><rect x="2698.38" y="1012.51" width="3.51" height="84.14" style="fill:#b7b7b7"/><polygon points="2880.91 1110.13 2702.66 1110.13 2702.66 1106.62 2877.4 1106.62 2877.4 1099.1 2700.14 1099.1 2700.14 1095.59 2880.91 1095.59 2880.91 1110.13" style="fill:#b7b7b7"/></g><g id="a-3"><polygon points="2876.84 1014.83 2472.94 1014.83 2472.94 1183.66 2778.02 1183.66 2876.63 1183.66 2876.84 1014.83" style="fill:none"/></g></g><g class="clickable" id="A2-1-LIFT-C" data-name="customclass A2-1-LIFT-C"><rect id="a-2" x="540.91" y="1014.82" width="157.25" height="122.2" style="fill:#f2f2f2"/></g><g class="clickable" id="A2-1-STAIR-C" data-name="customclass A2-1-STAIR-C"><g id="scale-2"><path d="M637.13,1373.07H355.29v-223.4H701.11V1250H471.38v20.29H637.13Zm-278.32-3.51H633.62v-95.73H467.87v-27.32H697.6v-93.33H358.81Z" transform="translate(0 0)" style="fill:#b7b7b7"/><polygon points="634.11 1325.17 421.38 1325.17 421.38 1199.6 698.16 1199.6 698.16 1203.11 424.89 1203.11 424.89 1321.66 634.11 1321.66 634.11 1325.17" style="fill:#b7b7b7"/><rect x="512.05" y="1271.31" width="3.51" height="100.78" style="fill:#b7b7b7"/><rect x="491.05" y="1271.31" width="3.51" height="100.78" style="fill:#b7b7b7"/><rect x="471.03" y="1271.31" width="3.51" height="100.78" style="fill:#b7b7b7"/><rect x="532.55" y="1271.31" width="3.51" height="100.78" style="fill:#b7b7b7"/><rect x="471.03" y="1151.42" width="3.51" height="96.85" style="fill:#b7b7b7"/><rect x="491.05" y="1151.42" width="3.51" height="96.85" style="fill:#b7b7b7"/><rect x="512.05" y="1151.42" width="3.51" height="96.85" style="fill:#b7b7b7"/><rect x="532.55" y="1151.42" width="3.51" height="96.85" style="fill:#b7b7b7"/><rect x="553.06" y="1151.42" width="3.51" height="96.85" style="fill:#b7b7b7"/><rect x="573.08" y="1151.42" width="3.51" height="96.85" style="fill:#b7b7b7"/><rect x="594.15" y="1151.42" width="3.51" height="96.85" style="fill:#b7b7b7"/><rect x="614.65" y="1151.42" width="3.51" height="96.85" style="fill:#b7b7b7"/><rect x="634.11" y="1151.42" width="3.51" height="96.85" style="fill:#b7b7b7"/><rect x="653.63" y="1151.42" width="3.51" height="96.85" style="fill:#b7b7b7"/><rect x="674.63" y="1151.42" width="3.51" height="96.85" style="fill:#b7b7b7"/><polygon points="677.97 1248.53 674.8 1247.03 696.44 1201.19 674.71 1152.13 677.92 1150.71 700.3 1201.24 677.97 1248.53" style="fill:#b7b7b7"/><polygon points="531.14 1371 511.62 1323.48 532.69 1273.36 535.93 1274.72 515.42 1323.49 534.39 1369.66 531.14 1371" style="fill:#b7b7b7"/><polygon points="701.11 1274.04 635.37 1274.04 635.37 1270.53 697.6 1270.53 697.6 1250.03 638.32 1250.03 638.32 1246.51 701.11 1246.51 701.11 1274.04" style="fill:#b7b7b7"/><rect x="501.39" y="1270.56" width="3.51" height="54.97" transform="translate(-452.1 285.33) rotate(-22.14)" style="fill:#b7b7b7"/><rect x="615.64" y="1271.31" width="3.51" height="100.78" style="fill:#b7b7b7"/><rect x="573.57" y="1271.31" width="3.51" height="100.78" style="fill:#b7b7b7"/><rect x="594.64" y="1271.31" width="3.51" height="100.78" style="fill:#b7b7b7"/><rect x="552.57" y="1271.31" width="3.51" height="100.78" style="fill:#b7b7b7"/></g><g id="a-4"><polygon points="807.79 1151 807.79 1368.64 358.95 1368.64 358.95 1151 526.94 1151 540.91 1151 660.16 1151 674.14 1151 700.4 1151 807.79 1151" style="fill:none"/></g></g><g class="clickable" id="A2-1-STAIR-B" data-name="customclass A2-1-STAIR-B"><g id="scale-4"><path d="M293.63,300.66H102v-195H293.63Zm-188.14-3.52H290.12v-188H105.49Z" transform="translate(0 0)" style="fill:#b7b7b7"/><polygon points="285.48 383.81 26.27 383.38 26.05 29.71 108.22 29.71 108.22 107.38 104.71 107.38 104.71 33.22 29.57 33.22 29.57 49.02 29.78 379.88 285.49 380.3 285.48 383.81" style="fill:#b7b7b7"/><polygon points="285.06 342.23 60.19 342.23 60.19 67.63 282.96 67.63 282.96 71.14 63.7 71.14 63.7 338.72 285.06 338.72 285.06 342.23" style="fill:#b7b7b7"/><rect x="246.79" y="31.46" width="3.51" height="75.92" style="fill:#b7b7b7"/><rect x="229.79" y="31.46" width="3.51" height="75.92" style="fill:#b7b7b7"/><rect x="212.73" y="31.46" width="3.51" height="75.92" style="fill:#b7b7b7"/><rect x="196.36" y="297.85" width="3.51" height="83.57" style="fill:#b7b7b7"/><rect x="177.68" y="297.85" width="3.51" height="83.57" style="fill:#b7b7b7"/><rect x="213.36" y="297.85" width="3.51" height="83.57" style="fill:#b7b7b7"/><rect x="231.13" y="297.85" width="3.51" height="83.57" style="fill:#b7b7b7"/><rect x="248.97" y="297.85" width="3.51" height="83.57" style="fill:#b7b7b7"/><rect x="265.54" y="297.85" width="3.51" height="83.57" style="fill:#b7b7b7"/><rect x="161.18" y="297.85" width="3.51" height="83.57" style="fill:#b7b7b7"/><rect x="143.76" y="297.85" width="3.51" height="83.57" style="fill:#b7b7b7"/><rect x="174.73" y="31.46" width="3.51" height="75.92" style="fill:#b7b7b7"/><rect x="156.89" y="31.46" width="3.51" height="75.92" style="fill:#b7b7b7"/><rect x="139.55" y="31.46" width="3.51" height="75.92" style="fill:#b7b7b7"/><rect x="122.55" y="31.46" width="3.51" height="75.92" style="fill:#b7b7b7"/><rect x="263.85" y="31.46" width="3.51" height="75.92" style="fill:#b7b7b7"/><rect x="27.81" y="112.65" width="75.92" height="3.51" style="fill:#b7b7b7"/><rect x="27.81" y="130.42" width="75.92" height="3.51" style="fill:#b7b7b7"/><rect x="27.81" y="147.83" width="75.92" height="3.51" style="fill:#b7b7b7"/><rect x="27.81" y="167.36" width="75.92" height="3.51" style="fill:#b7b7b7"/><rect x="27.81" y="184.71" width="75.92" height="3.51" style="fill:#b7b7b7"/><rect x="27.81" y="202.97" width="75.92" height="3.51" style="fill:#b7b7b7"/><rect x="27.81" y="219.96" width="75.92" height="3.51" style="fill:#b7b7b7"/><rect x="27.81" y="236.96" width="75.92" height="3.51" style="fill:#b7b7b7"/><rect x="27.81" y="254.3" width="75.92" height="3.51" style="fill:#b7b7b7"/><rect x="27.81" y="271.72" width="75.92" height="3.51" style="fill:#b7b7b7"/><rect x="27.81" y="289.07" width="75.92" height="3.51" style="fill:#b7b7b7"/><rect x="193.2" y="31.46" width="3.51" height="75.92" style="fill:#b7b7b7"/><polygon points="267.01 107.87 263.79 106.48 279.79 69.36 264.82 31.9 268.08 30.6 283.59 69.41 267.01 107.87" style="fill:#b7b7b7"/><rect x="283.73" y="298.9" width="3.51" height="83.15" style="fill:#b7b7b7"/><rect x="280.99" y="31.46" width="3.51" height="75.92" style="fill:#b7b7b7"/></g><g id="a-6"><rect x="28.44" y="32.73" width="336.82" height="347.5" style="fill:none"/></g></g><g class="clickable" id="A2-1-STAIR-A" data-name="customclass A2-1-STAIR-A"><g id="scale-5"><path d="M5397.75,304.1H5203.14V106.47h194.61Zm-191.1-3.52h187.58V110H5206.65Z" transform="translate(0 0)" style="fill:#b7b7b7"/><polygon points="5214.24 387.25 5214.23 383.74 5470.01 383.32 5470.01 34.06 5395.01 34.06 5395.01 108.22 5391.49 108.22 5391.49 30.55 5473.52 30.55 5473.52 386.82 5214.24 387.25" style="fill:#b7b7b7"/><polygon points="5439.6 345.67 5214.65 345.67 5214.65 342.16 5436.09 342.16 5436.09 71.99 5216.76 71.99 5216.76 68.47 5439.6 68.47 5439.6 345.67" style="fill:#b7b7b7"/><rect x="5249.42" y="32.31" width="3.51" height="75.92" style="fill:#b7b7b7"/><rect x="5266.49" y="32.31" width="3.51" height="75.92" style="fill:#b7b7b7"/><rect x="5283.48" y="32.31" width="3.51" height="75.92" style="fill:#b7b7b7"/><rect x="5299.91" y="301.29" width="3.51" height="83.57" style="fill:#b7b7b7"/><rect x="5318.53" y="301.29" width="3.51" height="83.57" style="fill:#b7b7b7"/><rect x="5282.92" y="301.29" width="3.51" height="83.57" style="fill:#b7b7b7"/><rect x="5265.08" y="301.29" width="3.51" height="83.57" style="fill:#b7b7b7"/><rect x="5247.24" y="301.29" width="3.51" height="83.57" style="fill:#b7b7b7"/><rect x="5230.74" y="301.29" width="3.51" height="83.57" style="fill:#b7b7b7"/><rect x="5335.1" y="301.29" width="3.51" height="83.57" style="fill:#b7b7b7"/><rect x="5352.52" y="301.29" width="3.51" height="83.57" style="fill:#b7b7b7"/><rect x="5321.55" y="32.31" width="3.51" height="75.92" style="fill:#b7b7b7"/><rect x="5339.31" y="32.31" width="3.51" height="75.92" style="fill:#b7b7b7"/><rect x="5356.73" y="32.31" width="3.51" height="75.92" style="fill:#b7b7b7"/><rect x="5373.73" y="32.31" width="3.51" height="75.92" style="fill:#b7b7b7"/><rect x="5232.42" y="32.31" width="3.51" height="75.92" style="fill:#b7b7b7"/><rect x="5396.06" y="116.02" width="75.92" height="3.51" style="fill:#b7b7b7"/><rect x="5396.06" y="133.86" width="75.92" height="3.51" style="fill:#b7b7b7"/><rect x="5396.06" y="151.21" width="75.92" height="3.51" style="fill:#b7b7b7"/><rect x="5396.06" y="170.73" width="75.92" height="3.51" style="fill:#b7b7b7"/><rect x="5396.06" y="188.15" width="75.92" height="3.51" style="fill:#b7b7b7"/><rect x="5396.06" y="206.41" width="75.92" height="3.51" style="fill:#b7b7b7"/><rect x="5396.06" y="223.33" width="75.92" height="3.51" style="fill:#b7b7b7"/><rect x="5396.06" y="240.33" width="75.92" height="3.51" style="fill:#b7b7b7"/><rect x="5396.06" y="257.74" width="75.92" height="3.51" style="fill:#b7b7b7"/><rect x="5396.06" y="275.09" width="75.92" height="3.51" style="fill:#b7b7b7"/><rect x="5396.06" y="292.51" width="75.92" height="3.51" style="fill:#b7b7b7"/><rect x="5302.86" y="32.31" width="3.51" height="75.92" style="fill:#b7b7b7"/><polygon points="5232.14 108.69 5216.2 70.24 5231.71 31.44 5234.97 32.75 5219.99 70.22 5235.38 107.34 5232.14 108.69" style="fill:#b7b7b7"/><rect x="5215.22" y="32.31" width="3.51" height="75.92" style="fill:#b7b7b7"/><rect x="5212.48" y="302.34" width="3.51" height="83.15" style="fill:#b7b7b7"/></g><g id="a-7"><polygon points="5127.92 383.6 5127.92 32.73 5471.56 32.73 5471.56 383.6 5252.65 383.6 5238.6 383.6 5154.61 383.6 5140.63 383.6 5127.92 383.6" style="fill:none"/></g></g><path id="altri_muri" data-name="altri muri" d="M330.92,1072.13v321.8H5178.84V1074.87H5500V1.12H0v1071Zm526.52,296.51H821.76V1151h35.68Zm2019.4,0h-403.9V1296.1h-14v72.54H871.42V1133.16h-14v3.8H807.79v231.61H359V1150.93H700.48V1137H540.91V1014.82H857.44v47.55h14v-47.55H2459V1225.3h14v-27.6h305v-14H2473V1014.82h403.9Zm1659.25,0H4497V1129.79h39.05ZM5150,1137.45H4822.84V1078h-14v73.46H5150v217.22H4700.71V1106.12h-14v23.74h0v238.85h-136.6V1115.89h-67v252.82H3459.32V1014.82H4686.67v18.26h14v-18.26H4808.8v15.67h14v-15.67H5150ZM4545.43,32.73H5114V257.6h14V32.73h343.64V383.6H5127.92V354.31h-14V383.6H4545.43Zm-3606.59,0H4531.39V397.57h940.17v649.14H5164v-45.79H3445.35v367.79H2891.72V1000.92H526.94V1137H359v-93.76H28.44V394.13h910.4Zm-910.4,0h336.9v106h13.9v-106H924.86V380.16H379.24V235.9h-14V380.16H28.37Z" transform="translate(0 0)" style="fill:#b7b7b7"/><g id="alcuni_muri" data-name="alcuni muri"><rect x="5113.88" y="396.94" width="13.98" height="53.16" style="fill:#b7b7b7"/><rect x="4531.6" y="396.94" width="13.98" height="70.09" style="fill:#b7b7b7"/><rect x="4355.53" y="343" width="13.98" height="124.03" style="fill:#b7b7b7"/><rect x="4531.6" y="531.92" width="13.98" height="144.88" style="fill:#b7b7b7"/><rect x="4355.53" y="531.92" width="13.98" height="144.88" style="fill:#b7b7b7"/><rect x="4041.46" y="32.73" width="13.98" height="658.06" style="fill:#b7b7b7"/><rect x="5113.88" y="520.05" width="13.98" height="170.73" style="fill:#b7b7b7"/><rect x="5199.34" y="396.94" width="13.98" height="22.97" style="fill:#b7b7b7"/><rect x="5199.34" y="506.36" width="13.98" height="27.67" style="fill:#b7b7b7"/><rect x="5127.92" y="520.05" width="71.42" height="13.98" style="fill:#b7b7b7"/><rect x="4452.66" y="329.03" width="80.06" height="13.98" style="fill:#b7b7b7"/><rect x="4054.24" y="676.81" width="315.33" height="13.98" style="fill:#b7b7b7"/><rect x="4055.44" y="329.03" width="314.63" height="13.98" style="fill:#b7b7b7"/><rect x="4369.58" y="676.81" width="1103.95" height="13.98" style="fill:#b7b7b7"/></g></svg>