<svg id="Livello_1" data-name="Livello 1" xmlns="http://www.w3.org/2000/svg" xmlns:xlink="http://www.w3.org/1999/xlink" viewBox="0 0 5500 1393.9"><defs><pattern id="locale_tecnico_0000006434399630" data-name="locale tecnico 0000006434399630" width="57" height="57" patternTransform="translate(-35908.66 -11857.34) rotate(-180) scale(0.42)" patternUnits="userSpaceOnUse" viewBox="0 0 57 57"><rect width="57" height="57" style="fill:none"/><rect width="57" height="57" style="fill:none"/><rect width="57" height="57" style="fill:none"/><rect width="57" height="57" style="fill:none"/><rect width="57" height="57" style="fill:none"/><rect width="57" height="57" style="fill:none"/><rect width="57" height="57" style="fill:none"/><rect width="57" height="57" style="fill:none"/><rect width="57" height="57" style="fill:none"/><rect width="57" height="57" style="fill:none"/><rect width="57" height="57" style="fill:none"/><rect width="57" height="57" style="fill:none"/><rect width="57" height="57" style="fill:none"/><rect x="53" y="52" width="60" height="58" style="fill:#f2f2f2"/><line x1="57" y1="57" x2="114" y2="114" style="fill:none;stroke:#ddd;stroke-linecap:square;stroke-linejoin:round;stroke-width:20px"/><rect x="-4" y="52" width="60" height="58" style="fill:#f2f2f2"/><line y1="57" x2="57" y2="114" style="fill:none;stroke:#ddd;stroke-linecap:square;stroke-linejoin:round;stroke-width:20px"/><line x1="-57" y1="57" y2="114" style="fill:none;stroke:#ddd;stroke-linecap:square;stroke-linejoin:round;stroke-width:20px"/><rect x="53" y="-5" width="60" height="58" style="fill:#f2f2f2"/><line x1="57" x2="114" y2="57" style="fill:none;stroke:#ddd;stroke-linecap:square;stroke-linejoin:round;stroke-width:20px"/><rect x="-4" y="-5" width="60" height="58" style="fill:#f2f2f2"/><line x2="57" y2="57" style="fill:none;stroke:#ddd;stroke-linecap:square;stroke-linejoin:round;stroke-width:20px"/><line x1="-57" y2="57" style="fill:none;stroke:#ddd;stroke-linecap:square;stroke-linejoin:round;stroke-width:20px"/><line x1="57" y1="-57" x2="114" style="fill:none;stroke:#ddd;stroke-linecap:square;stroke-linejoin:round;stroke-width:20px"/><line y1="-57" x2="57" style="fill:none;stroke:#ddd;stroke-linecap:square;stroke-linejoin:round;stroke-width:20px"/><line x1="-57" y1="-57" style="fill:none;stroke:#ddd;stroke-linecap:square;stroke-linejoin:round;stroke-width:20px"/></pattern><pattern id="locale_tecnico-3_00000162311670" data-name="locale tecnico-3 00000162311670" width="57" height="57" patternTransform="translate(-41459.83 -25461.48) rotate(-180) scale(0.65 0.71)" patternUnits="userSpaceOnUse" viewBox="0 0 57 57"><rect width="57" height="57" style="fill:none"/><rect width="57" height="57" style="fill:none"/><rect width="57" height="57" style="fill:none"/><rect width="57" height="57" style="fill:none"/><rect width="57" height="57" style="fill:none"/><rect width="57" height="57" style="fill:none"/><rect width="57" height="57" style="fill:none"/><rect width="57" height="57" style="fill:none"/><rect width="57" height="57" style="fill:none"/><rect width="57" height="57" style="fill:none"/><rect width="57" height="57" style="fill:none"/><rect width="57" height="57" style="fill:none"/><rect width="57" height="57" style="fill:none"/><rect x="53" y="52" width="60" height="58" style="fill:#f2f2f2"/><line x1="57" y1="57" x2="114" y2="114" style="fill:none;stroke:#ddd;stroke-linecap:square;stroke-linejoin:round;stroke-width:20px"/><rect x="-4" y="52" width="60" height="58" style="fill:#f2f2f2"/><line y1="57" x2="57" y2="114" style="fill:none;stroke:#ddd;stroke-linecap:square;stroke-linejoin:round;stroke-width:20px"/><line x1="-57" y1="57" y2="114" style="fill:none;stroke:#ddd;stroke-linecap:square;stroke-linejoin:round;stroke-width:20px"/><rect x="53" y="-5" width="60" height="58" style="fill:#f2f2f2"/><line x1="57" x2="114" y2="57" style="fill:none;stroke:#ddd;stroke-linecap:square;stroke-linejoin:round;stroke-width:20px"/><rect x="-4" y="-5" width="60" height="58" style="fill:#f2f2f2"/><line x2="57" y2="57" style="fill:none;stroke:#ddd;stroke-linecap:square;stroke-linejoin:round;stroke-width:20px"/><line x1="-57" y2="57" style="fill:none;stroke:#ddd;stroke-linecap:square;stroke-linejoin:round;stroke-width:20px"/><line x1="57" y1="-57" x2="114" style="fill:none;stroke:#ddd;stroke-linecap:square;stroke-linejoin:round;stroke-width:20px"/><line y1="-57" x2="57" style="fill:none;stroke:#ddd;stroke-linecap:square;stroke-linejoin:round;stroke-width:20px"/><line x1="-57" y1="-57" style="fill:none;stroke:#ddd;stroke-linecap:square;stroke-linejoin:round;stroke-width:20px"/></pattern></defs><polygon id="background" points="0 1072.1 0 394.1 0 32.7 0 4.3 28.4 4.3 5471.6 4.3 5500 4.3 5500 32.7 5500 1074.9 5178.8 1074.9 5178.8 1393.9 330.9 1393.9 330.9 1072.1 0 1072.1" style="fill:#f2f2f2"/><rect id="locale_tecnico" data-name="locale tecnico" x="4497" y="1129.8" width="39" height="238.8" style="fill:url(#locale_tecnico_0000006434399630)"/><rect id="locale_tecnico-2" data-name="locale tecnico-2" x="821.8" y="1151" width="35.6" height="217.6" style="fill:url(#locale_tecnico_0000006434399630)"/><polygon id="locale_tecnico-3" data-name="locale tecnico-3" points="4055.4 691.3 4055.4 32.7 1627 32.7 1406.8 32.7 938.8 32.7 938.8 394.1 365.3 394.1 260.1 394.1 28.4 394.1 28.4 615 28.4 620.7 28.4 643.4 28.4 1043.3 344.9 1043.3 358.9 1043.3 358.9 1137 526.9 1137 526.9 1000.8 540.9 1000.8 660.2 1000.8 674.1 1000.8 857.4 1000.8 871.4 1000.8 2459 1000.8 2472.9 1000.8 2890.8 1000.8 2890.8 1368.6 3445.4 1368.6 3445.4 1000.8 3459.3 1000.8 4686.7 1000.8 4700.7 1000.8 4808.9 1000.8 4822.8 1000.8 5150 1000.8 5164 1000.8 5164 1014.8 5164 1046.6 5471.6 1046.6 5471.6 688.5 4055.4 691.3" style="fill:url(#locale_tecnico-3_00000162311670)"/><g class="clickable" id="A2-1-08" data-name="customclass A2-1-08"><rect x="379.3" y="32.7" width="545.5" height="347.5" style="fill:#ddd"/></g><g class="clickable" id="A2-1-07" data-name="customclass A2-1-07"><polygon points="4545.4 332.7 4545.4 32.7 5113.9 32.7 5113.9 383.6 5066.8 383.6 5052.8 383.6 4545.4 383.6 4545.4 346.7 4545.4 332.7" style="fill:#ddd"/></g><g class="clickable" id="A2-1-06-Z" data-name="customclass A2-1-06-Z"><polygon points="5212.9 533.9 5212.9 397.8 5471.6 398.5 5471.6 676.8 5443.1 676.8 5434.6 676.8 5127.9 676.8 5127.9 534.4 5212.9 533.9" style="fill:#ddd"/></g><g class="clickable" id="A2-1-06-F" data-name="customclass A2-1-06-F"><polygon points="4055.4 281.3 4055.4 0 4538.6 0 4538.6 329 4498.6 329 4486.7 329 4055.4 329 4055.4 294.4 4055.4 281.3" style="fill:#ddd"/></g><g class="clickable" id="A2-1-06-E" data-name="customclass A2-1-06-E"><polygon points="4041.5 638.3 4041.5 329 4369.6 329 4369.6 690.8 4342.4 690.8 4334.3 690.8 4041.5 690.8 4041.5 652.7 4041.5 638.3" style="fill:#ddd"/></g><g class="clickable" id="A2-1-06-D" data-name="customclass A2-1-06-D"><polygon points="4369.6 638.3 4369.6 329 4538.6 329 4538.6 690.8 4524.6 690.8 4520.4 690.8 4369.6 690.8 4369.6 652.7 4369.6 638.3" style="fill:#ddd"/></g><g class="clickable" id="A2-1-06-C" data-name="customclass A2-1-06-C"><polygon points="4538.6 636.4 4538.6 398.5 5113.9 398.5 5113.9 676.8 5066.3 676.8 5052.1 676.8 4538.6 676.8 4538.6 647.5 4538.6 636.4" style="fill:#ddd"/></g><g class="clickable" id="A2-1-06-B" data-name="customclass A2-1-06-B"><rect x="5212.9" y="397.8" width="258.7" height="279" style="fill:none"/></g><g class="clickable" id="A2-1-06-A" data-name="customclass A2-1-06-A"><polygon points="5113.9 502.4 5113.9 398.5 5212.9 398.5 5212.9 520 5204.7 520 5202.2 520 5113.9 520 5113.9 507.2 5113.9 502.4" style="fill:#ddd"/></g><g class="clickable" id="A2-1-04" data-name="customclass A2-1-04"><polygon points="4822.8 1137.4 4822.8 1014.8 5150 1014.8 5150 1046.6 5150 1060.7 5150 1137.4 4822.8 1137.4" style="fill:#f2f2f2"/></g><g class="clickable" id="A2-1-03" data-name="customclass A2-1-03"><polygon points="871.4 1137 871.4 1014.8 2459 1014.8 2459 1183.7 2459 1197.7 2459 1368.6 871.4 1368.6 871.4 1151 871.4 1137" style="fill:#ddd"/></g><g class="clickable" id="A2-1-01" data-name="customclass A2-1-01"><polygon points="3459.3 1368.6 3459.3 1014.8 4686.7 1014.8 4686.7 1115.8 4550.1 1115.8 4536.1 1115.8 4497 1115.8 4483.1 1115.8 4483.1 1129.8 4483.1 1368.6 3459.3 1368.6" style="fill:#ddd"/></g><g class="clickable" id="A2-1-LIFT-D" data-name="customclass A2-1-LIFT-D"><rect id="a" x="4550.1" y="1115.8" width="136.6" height="252.8" style="fill:#f2f2f2"/></g><g class="clickable" id="A2-1-STAIR-D" data-name="customclass A2-1-STAIR-D"><g id="scale-3"><path d="M5154.5,1373.1H4872.7V1270.3h165.8V1250H4808.8V1149.7h345.8Zm-278.3-3.5H5151V1153.2H4812.2v93.3h229.7v27.3H4876.2Z" style="fill:#b7b7b7"/><polygon points="5088.4 1325.2 4875.6 1325.2 4875.6 1321.7 5084.9 1321.7 5084.9 1203.1 4811.6 1203.1 4811.6 1199.6 5088.4 1199.6 5088.4 1325.2" style="fill:#b7b7b7"/><rect x="4994.1" y="1271.3" width="3.5" height="100.8" style="fill:#b7b7b7"/><rect x="5015.1" y="1271.3" width="3.5" height="100.8" style="fill:#b7b7b7"/><rect x="5035.1" y="1271.3" width="3.5" height="100.8" style="fill:#b7b7b7"/><rect x="4973.6" y="1271.3" width="3.5" height="100.8" style="fill:#b7b7b7"/><rect x="5035.1" y="1151.4" width="3.5" height="96.8" style="fill:#b7b7b7"/><rect x="5015.1" y="1151.4" width="3.5" height="96.8" style="fill:#b7b7b7"/><rect x="4994.1" y="1151.4" width="3.5" height="96.8" style="fill:#b7b7b7"/><rect x="4973.6" y="1151.4" width="3.5" height="96.8" style="fill:#b7b7b7"/><rect x="4953.1" y="1151.4" width="3.5" height="96.8" style="fill:#b7b7b7"/><rect x="4933.1" y="1151.4" width="3.5" height="96.8" style="fill:#b7b7b7"/><rect x="4912.1" y="1151.4" width="3.5" height="96.8" style="fill:#b7b7b7"/><rect x="4891.6" y="1151.4" width="3.5" height="96.8" style="fill:#b7b7b7"/><rect x="4872.1" y="1151.4" width="3.5" height="96.8" style="fill:#b7b7b7"/><rect x="4852.5" y="1151.4" width="3.5" height="96.8" style="fill:#b7b7b7"/><rect x="4831.5" y="1151.4" width="3.5" height="96.8" style="fill:#b7b7b7"/><polygon points="4831.7 1248.5 4809.4 1201.2 4809.7 1200.5 4831.8 1150.7 4835 1152.1 4813.3 1201.2 4834.9 1247 4831.7 1248.5" style="fill:#b7b7b7"/><polygon points="4978.5 1371 4975.3 1369.7 4993.9 1323.9 4973.8 1274.7 4977.1 1273.4 4997.6 1323.9 4978.5 1371" style="fill:#b7b7b7"/><polygon points="4874.4 1274 4808.6 1274 4808.6 1246.5 4871.4 1246.5 4871.4 1250 4812.2 1250 4812.2 1270.5 4874.4 1270.5 4874.4 1274" style="fill:#b7b7b7"/><rect x="4978.94" y="1297.34" width="55" height="3.5" transform="translate(1910.37 5442.33) rotate(-67.78)" style="fill:#b7b7b7"/><rect x="4890.6" y="1271.3" width="3.5" height="100.8" style="fill:#b7b7b7"/><rect x="4932.6" y="1271.3" width="3.5" height="100.8" style="fill:#b7b7b7"/><rect x="4911.6" y="1271.3" width="3.5" height="100.8" style="fill:#b7b7b7"/><rect x="4953.6" y="1271.3" width="3.5" height="100.8" style="fill:#b7b7b7"/></g><g id="a-5"><polygon points="4808.9 1151.4 4822.8 1151.4 5150 1151.4 5150 1368.6 4700.7 1368.6 4700.7 1151.6 4808.9 1151.4" style="fill:none"/></g></g><g class="clickable" id="A2-1-STAIR-E" data-name="customclass A2-1-STAIR-E"><g id="scale"><polygon points="2720.1 1187.6 2468.8 1187.6 2468.8 1011.6 2770.4 1011.6 2770.4 1015.1 2472.3 1015.1 2472.3 1184.1 2716.6 1184.1 2716.6 1110.1 2557.8 1110.1 2557.8 1095.7 2700.1 1095.7 2700.1 1099.2 2561.3 1099.2 2561.3 1106.6 2720.1 1106.6 2720.1 1187.6" style="fill:#b7b7b7"/><polygon points="2718.2 1149.9 2541.7 1149.9 2541.7 1052.2 2805.2 1052.2 2805.2 1096.8 2801.7 1096.8 2801.7 1055.7 2545.2 1055.7 2545.2 1146.4 2718.2 1146.4 2718.2 1149.9" style="fill:#b7b7b7"/><rect x="2683.1" y="1012.7" width="3.5" height="85.5" style="fill:#b7b7b7"/><rect x="2648" y="1012.7" width="3.5" height="85.5" style="fill:#b7b7b7"/><rect x="2595.3" y="1012.7" width="3.5" height="85.5" style="fill:#b7b7b7"/><rect x="2577.5" y="1012.7" width="3.5" height="85.5" style="fill:#b7b7b7"/><rect x="2560.5" y="1012.7" width="3.5" height="85.5" style="fill:#b7b7b7"/><rect x="2664.9" y="1012.7" width="3.5" height="85.5" style="fill:#b7b7b7"/><rect x="2612.7" y="1012.7" width="3.5" height="85.5" style="fill:#b7b7b7"/><rect x="2629.7" y="1012.7" width="3.5" height="85.5" style="fill:#b7b7b7"/><rect x="2560.5" y="1108.4" width="3.5" height="77.5" style="fill:#b7b7b7"/><rect x="2577.5" y="1108.4" width="3.5" height="77.5" style="fill:#b7b7b7"/><rect x="2595.3" y="1108.4" width="3.5" height="77.5" style="fill:#b7b7b7"/><rect x="2612.7" y="1108.4" width="3.5" height="77.5" style="fill:#b7b7b7"/><rect x="2630.1" y="1108.4" width="3.5" height="77.5" style="fill:#b7b7b7"/><rect x="2647" y="1108.4" width="3.5" height="77.5" style="fill:#b7b7b7"/><rect x="2664.9" y="1108.4" width="3.5" height="77.5" style="fill:#b7b7b7"/><rect x="2682.3" y="1108.4" width="3.5" height="77.5" style="fill:#b7b7b7"/><rect x="2698.9" y="1108.4" width="3.5" height="77.5" style="fill:#b7b7b7"/><polygon points="2701.6 1186.6 2698.5 1185.1 2716 1148.2 2698.5 1109.5 2701.7 1108.1 2719.9 1148.3 2701.6 1186.6" style="fill:#b7b7b7"/><rect x="2715.4" y="1013.3" width="3.5" height="84.1" style="fill:#b7b7b7"/><rect x="2732.3" y="1013.3" width="3.5" height="84.1" style="fill:#b7b7b7"/><rect x="2749.3" y="1013.3" width="3.5" height="84.1" style="fill:#b7b7b7"/><rect x="2768" y="1013.3" width="3.5" height="84.1" style="fill:#b7b7b7"/><rect x="2698.4" y="1012.5" width="3.5" height="84.1" style="fill:#b7b7b7"/><polygon points="2880.9 1110.1 2702.7 1110.1 2702.7 1106.6 2877.4 1106.6 2877.4 1099.1 2700.1 1099.1 2700.1 1095.6 2880.9 1095.6 2880.9 1110.1" style="fill:#b7b7b7"/></g><g id="a-3"><polygon points="2876.8 1014.8 2472.9 1014.8 2472.9 1183.7 2778 1183.7 2876.6 1183.7 2876.8 1014.8" style="fill:none"/></g></g><g class="clickable" id="A2-1-LIFT-C" data-name="customclass A2-1-LIFT-C"><rect id="a-2" x="540.9" y="1014.8" width="157.2" height="122.2" style="fill:#f2f2f2"/></g><g class="clickable" id="A2-1-STAIR-C" data-name="customclass A2-1-STAIR-C"><g id="scale-2"><path d="M637.1,1373.1H355.3V1149.7H701.1V1250H471.4v20.3H637.2v102.8Zm-278.3-3.5H633.6v-95.7H467.9v-27.3H697.6v-93.3H358.8Z" style="fill:#b7b7b7"/><polygon points="634.1 1325.2 421.4 1325.2 421.4 1199.6 698.2 1199.6 698.2 1203.1 424.9 1203.1 424.9 1321.7 634.1 1321.7 634.1 1325.2" style="fill:#b7b7b7"/><rect x="512" y="1271.3" width="3.5" height="100.8" style="fill:#b7b7b7"/><rect x="491" y="1271.3" width="3.5" height="100.8" style="fill:#b7b7b7"/><rect x="471" y="1271.3" width="3.5" height="100.8" style="fill:#b7b7b7"/><rect x="532.5" y="1271.3" width="3.5" height="100.8" style="fill:#b7b7b7"/><rect x="471" y="1151.4" width="3.5" height="96.8" style="fill:#b7b7b7"/><rect x="491" y="1151.4" width="3.5" height="96.8" style="fill:#b7b7b7"/><rect x="512" y="1151.4" width="3.5" height="96.8" style="fill:#b7b7b7"/><rect x="532.5" y="1151.4" width="3.5" height="96.8" style="fill:#b7b7b7"/><rect x="553.1" y="1151.4" width="3.5" height="96.8" style="fill:#b7b7b7"/><rect x="573.1" y="1151.4" width="3.5" height="96.8" style="fill:#b7b7b7"/><rect x="594.1" y="1151.4" width="3.5" height="96.8" style="fill:#b7b7b7"/><rect x="614.6" y="1151.4" width="3.5" height="96.8" style="fill:#b7b7b7"/><rect x="634.1" y="1151.4" width="3.5" height="96.8" style="fill:#b7b7b7"/><rect x="653.6" y="1151.4" width="3.5" height="96.8" style="fill:#b7b7b7"/><rect x="674.6" y="1151.4" width="3.5" height="96.8" style="fill:#b7b7b7"/><polygon points="678 1248.5 674.8 1247 696.4 1201.2 674.7 1152.1 677.9 1150.7 700.3 1201.2 678 1248.5" style="fill:#b7b7b7"/><polygon points="531.1 1371 511.6 1323.5 532.7 1273.4 535.9 1274.7 515.4 1323.5 534.4 1369.7 531.1 1371" style="fill:#b7b7b7"/><polygon points="701.1 1274 635.4 1274 635.4 1270.5 697.6 1270.5 697.6 1250 638.3 1250 638.3 1246.5 701.1 1246.5 701.1 1274" style="fill:#b7b7b7"/><rect x="501.53" y="1270.66" width="3.5" height="55" transform="translate(-452.14 285.4) rotate(-22.14)" style="fill:#b7b7b7"/><rect x="615.6" y="1271.3" width="3.5" height="100.8" style="fill:#b7b7b7"/><rect x="573.6" y="1271.3" width="3.5" height="100.8" style="fill:#b7b7b7"/><rect x="594.6" y="1271.3" width="3.5" height="100.8" style="fill:#b7b7b7"/><rect x="552.6" y="1271.3" width="3.5" height="100.8" style="fill:#b7b7b7"/></g><g id="a-4"><polygon points="807.8 1151 807.8 1368.6 358.9 1368.6 358.9 1151 526.9 1151 540.9 1151 660.2 1151 674.1 1151 700.4 1151 807.8 1151" style="fill:none"/></g></g><g class="clickable" id="A2-1-STAIR-B" data-name="customclass A2-1-STAIR-B"><g id="scale-4"><path d="M293.6,300.7H102v-195H293.6Zm-188.1-3.6H290.1v-188H105.5Z" style="fill:#b7b7b7"/><polygon points="285.5 383.8 26.3 383.4 26 29.7 108.2 29.7 108.2 107.4 104.7 107.4 104.7 33.2 29.6 33.2 29.6 49 29.8 379.9 285.5 380.3 285.5 383.8" style="fill:#b7b7b7"/><polygon points="285.1 342.2 60.2 342.2 60.2 67.6 283 67.6 283 71.1 63.7 71.1 63.7 338.7 285.1 338.7 285.1 342.2" style="fill:#b7b7b7"/><rect x="246.8" y="31.5" width="3.5" height="75.9" style="fill:#b7b7b7"/><rect x="229.8" y="31.5" width="3.5" height="75.9" style="fill:#b7b7b7"/><rect x="212.7" y="31.5" width="3.5" height="75.9" style="fill:#b7b7b7"/><rect x="196.4" y="297.8" width="3.5" height="83.6" style="fill:#b7b7b7"/><rect x="177.7" y="297.8" width="3.5" height="83.6" style="fill:#b7b7b7"/><rect x="213.4" y="297.8" width="3.5" height="83.6" style="fill:#b7b7b7"/><rect x="231.1" y="297.8" width="3.5" height="83.6" style="fill:#b7b7b7"/><rect x="249" y="297.8" width="3.5" height="83.6" style="fill:#b7b7b7"/><rect x="265.5" y="297.8" width="3.5" height="83.6" style="fill:#b7b7b7"/><rect x="161.2" y="297.8" width="3.5" height="83.6" style="fill:#b7b7b7"/><rect x="143.8" y="297.8" width="3.5" height="83.6" style="fill:#b7b7b7"/><rect x="174.7" y="31.5" width="3.5" height="75.9" style="fill:#b7b7b7"/><rect x="156.9" y="31.5" width="3.5" height="75.9" style="fill:#b7b7b7"/><rect x="139.5" y="31.5" width="3.5" height="75.9" style="fill:#b7b7b7"/><rect x="122.5" y="31.5" width="3.5" height="75.9" style="fill:#b7b7b7"/><rect x="263.8" y="31.5" width="3.5" height="75.9" style="fill:#b7b7b7"/><rect x="27.8" y="112.6" width="75.9" height="3.5" style="fill:#b7b7b7"/><rect x="27.8" y="130.4" width="75.9" height="3.5" style="fill:#b7b7b7"/><rect x="27.8" y="147.8" width="75.9" height="3.5" style="fill:#b7b7b7"/><rect x="27.8" y="167.4" width="75.9" height="3.5" style="fill:#b7b7b7"/><rect x="27.8" y="184.7" width="75.9" height="3.5" style="fill:#b7b7b7"/><rect x="27.8" y="203" width="75.9" height="3.5" style="fill:#b7b7b7"/><rect x="27.8" y="220" width="75.9" height="3.5" style="fill:#b7b7b7"/><rect x="27.8" y="237" width="75.9" height="3.5" style="fill:#b7b7b7"/><rect x="27.8" y="254.3" width="75.9" height="3.5" style="fill:#b7b7b7"/><rect x="27.8" y="271.7" width="75.9" height="3.5" style="fill:#b7b7b7"/><rect x="27.8" y="289.1" width="75.9" height="3.5" style="fill:#b7b7b7"/><rect x="193.2" y="31.5" width="3.5" height="75.9" style="fill:#b7b7b7"/><polygon points="267 107.9 263.8 106.5 279.8 69.4 264.8 31.9 268.1 30.6 283.6 69.4 267 107.9" style="fill:#b7b7b7"/><rect x="283.7" y="298.9" width="3.5" height="83.1" style="fill:#b7b7b7"/><rect x="281" y="31.5" width="3.5" height="75.9" style="fill:#b7b7b7"/></g><g id="a-6"><rect x="28.4" y="32.7" width="336.8" height="347.5" style="fill:none"/></g></g><g class="clickable" id="A2-1-STAIR-A" data-name="customclass A2-1-STAIR-A"><g id="scale-5"><path d="M5397.8,304.1H5203.2V106.5h194.6Zm-191.2-3.5h187.6V110H5206.6Z" style="fill:#b7b7b7"/><polygon points="5214.2 387.2 5214.2 383.7 5470 383.3 5470 34.1 5395 34.1 5395 108.2 5391.5 108.2 5391.5 30.5 5473.5 30.5 5473.5 386.8 5214.2 387.2" style="fill:#b7b7b7"/><polygon points="5439.6 345.7 5214.6 345.7 5214.6 342.2 5436.1 342.2 5436.1 72 5216.8 72 5216.8 68.5 5439.6 68.5 5439.6 345.7" style="fill:#b7b7b7"/><rect x="5249.4" y="32.3" width="3.5" height="75.9" style="fill:#b7b7b7"/><rect x="5266.5" y="32.3" width="3.5" height="75.9" style="fill:#b7b7b7"/><rect x="5283.5" y="32.3" width="3.5" height="75.9" style="fill:#b7b7b7"/><rect x="5299.9" y="301.3" width="3.5" height="83.6" style="fill:#b7b7b7"/><rect x="5318.5" y="301.3" width="3.5" height="83.6" style="fill:#b7b7b7"/><rect x="5282.9" y="301.3" width="3.5" height="83.6" style="fill:#b7b7b7"/><rect x="5265.1" y="301.3" width="3.5" height="83.6" style="fill:#b7b7b7"/><rect x="5247.2" y="301.3" width="3.5" height="83.6" style="fill:#b7b7b7"/><rect x="5230.7" y="301.3" width="3.5" height="83.6" style="fill:#b7b7b7"/><rect x="5335.1" y="301.3" width="3.5" height="83.6" style="fill:#b7b7b7"/><rect x="5352.5" y="301.3" width="3.5" height="83.6" style="fill:#b7b7b7"/><rect x="5321.5" y="32.3" width="3.5" height="75.9" style="fill:#b7b7b7"/><rect x="5339.3" y="32.3" width="3.5" height="75.9" style="fill:#b7b7b7"/><rect x="5356.7" y="32.3" width="3.5" height="75.9" style="fill:#b7b7b7"/><rect x="5373.7" y="32.3" width="3.5" height="75.9" style="fill:#b7b7b7"/><rect x="5232.4" y="32.3" width="3.5" height="75.9" style="fill:#b7b7b7"/><rect x="5396.1" y="116" width="75.9" height="3.5" style="fill:#b7b7b7"/><rect x="5396.1" y="133.9" width="75.9" height="3.5" style="fill:#b7b7b7"/><rect x="5396.1" y="151.2" width="75.9" height="3.5" style="fill:#b7b7b7"/><rect x="5396.1" y="170.7" width="75.9" height="3.5" style="fill:#b7b7b7"/><rect x="5396.1" y="188.1" width="75.9" height="3.5" style="fill:#b7b7b7"/><rect x="5396.1" y="206.4" width="75.9" height="3.5" style="fill:#b7b7b7"/><rect x="5396.1" y="223.3" width="75.9" height="3.5" style="fill:#b7b7b7"/><rect x="5396.1" y="240.3" width="75.9" height="3.5" style="fill:#b7b7b7"/><rect x="5396.1" y="257.7" width="75.9" height="3.5" style="fill:#b7b7b7"/><rect x="5396.1" y="275.1" width="75.9" height="3.5" style="fill:#b7b7b7"/><rect x="5396.1" y="292.5" width="75.9" height="3.5" style="fill:#b7b7b7"/><rect x="5302.9" y="32.3" width="3.5" height="75.9" style="fill:#b7b7b7"/><polygon points="5232.1 108.7 5216.2 70.2 5231.7 31.4 5235 32.7 5220 70.2 5235.4 107.3 5232.1 108.7" style="fill:#b7b7b7"/><rect x="5215.2" y="32.3" width="3.5" height="75.9" style="fill:#b7b7b7"/><rect x="5212.5" y="302.3" width="3.5" height="83.1" style="fill:#b7b7b7"/></g><g id="a-7"><polygon points="5127.9 383.6 5127.9 32.7 5471.6 32.7 5471.6 383.6 5252.6 383.6 5238.6 383.6 5154.6 383.6 5140.6 383.6 5127.9 383.6" style="fill:none"/></g></g><path id="altri_muri" data-name="altri muri" d="M330.9,1072.1v321.8H5178.8V1074.8H5500V1.1H0v1071Zm526.5,296.5H821.7V1151h35.7Zm2019.4,0H2472.9v-72.5h-14v72.5H871.4V1133.1h-14v3.8H807.8v231.6H359V1150.9H700.5V1137H540.9V1014.8H857.4v47.5h14v-47.5H2459v210.5h14v-27.6h305v-14H2473V1014.8h403.9Zm1659.3,0H4497V1129.8h39ZM5150,1137.4H4822.8V1078h-14v73.5H5150v217.2H4700.7V1106.1h-14v23.7h0v238.8H4550.1V1115.8h-67v252.8H3459.3V1014.7H4686.6V1033h14v-18.3h108.1v15.7h14v-15.7H5150ZM4545.4,32.7H5114V257.6h14V32.7h343.6V383.6H5127.9V354.3h-14v29.3H4545.4Zm-3606.6,0H4531.4V397.5h940.2v649.1H5164v-45.8H3445.4v367.8H2891.8V1000.8H526.9V1137H359v-93.8H28.4V394.1H938.8Zm-910.4,0H365.3v106h13.9V32.7H924.8V380.1H379.2V235.9h-14V380.2H28.4Z" style="fill:#b7b7b7"/><g id="alcuni_muri" data-name="alcuni muri"><rect x="5113.9" y="396.9" width="14" height="53.2" style="fill:#b7b7b7"/><rect x="4531.6" y="396.9" width="14" height="70.1" style="fill:#b7b7b7"/><rect x="4355.5" y="343" width="14" height="124" style="fill:#b7b7b7"/><rect x="4531.6" y="531.9" width="14" height="144.9" style="fill:#b7b7b7"/><rect x="4355.5" y="531.9" width="14" height="144.9" style="fill:#b7b7b7"/><rect x="4041.5" y="32.7" width="14" height="658.1" style="fill:#b7b7b7"/><rect x="5113.9" y="520" width="14" height="170.7" style="fill:#b7b7b7"/><rect x="5199.3" y="396.9" width="14" height="23" style="fill:#b7b7b7"/><rect x="5199.3" y="506.4" width="14" height="27.7" style="fill:#b7b7b7"/><rect x="5127.9" y="520" width="71.4" height="14" style="fill:#b7b7b7"/><rect x="4452.7" y="329" width="80.1" height="14" style="fill:#b7b7b7"/><rect x="4054.2" y="676.8" width="315.3" height="14" style="fill:#b7b7b7"/><rect x="4055.4" y="329" width="314.6" height="14" style="fill:#b7b7b7"/><rect x="4369.6" y="676.8" width="1104" height="14" style="fill:#b7b7b7"/></g></svg>