<svg id="Livello_1" data-name="Livello 1" xmlns="http://www.w3.org/2000/svg" xmlns:xlink="http://www.w3.org/1999/xlink" viewBox="0 0 5500 2479.09"><defs><pattern id="locale_tecnico_2_3" data-name="locale tecnico 2 3" width="57" height="57" patternTransform="translate(-13327.71 -8916.31) rotate(180) scale(0.42)" patternUnits="userSpaceOnUse" viewBox="0 0 57 57"><rect width="57" height="57" style="fill:none"/><rect width="57" height="57" style="fill:none"/><rect width="57" height="57" style="fill:none"/><rect width="57" height="57" style="fill:none"/><rect width="57" height="57" style="fill:none"/><rect width="57" height="57" style="fill:none"/><rect width="57" height="57" style="fill:none"/><rect width="57" height="57" style="fill:none"/><rect width="57" height="57" style="fill:none"/><rect x="53" y="52" width="60" height="58" style="fill:#f2f2f2"/><line x1="57" y1="57" x2="114" y2="114" style="fill:none;stroke:#ddd;stroke-linecap:square;stroke-linejoin:round;stroke-width:20px"/><rect x="-4" y="52" width="60" height="58" style="fill:#f2f2f2"/><line y1="57" x2="57" y2="114" style="fill:none;stroke:#ddd;stroke-linecap:square;stroke-linejoin:round;stroke-width:20px"/><line x1="-57" y1="57" y2="114" style="fill:none;stroke:#ddd;stroke-linecap:square;stroke-linejoin:round;stroke-width:20px"/><rect x="53" y="-5" width="60" height="58" style="fill:#f2f2f2"/><line x1="57" x2="114" y2="57" style="fill:none;stroke:#ddd;stroke-linecap:square;stroke-linejoin:round;stroke-width:20px"/><rect x="-4" y="-5" width="60" height="58" style="fill:#f2f2f2"/><line x2="57" y2="57" style="fill:none;stroke:#ddd;stroke-linecap:square;stroke-linejoin:round;stroke-width:20px"/><line x1="-57" y2="57" style="fill:none;stroke:#ddd;stroke-linecap:square;stroke-linejoin:round;stroke-width:20px"/><line x1="57" y1="-57" x2="114" style="fill:none;stroke:#ddd;stroke-linecap:square;stroke-linejoin:round;stroke-width:20px"/><line y1="-57" x2="57" style="fill:none;stroke:#ddd;stroke-linecap:square;stroke-linejoin:round;stroke-width:20px"/><line x1="-57" y1="-57" style="fill:none;stroke:#ddd;stroke-linecap:square;stroke-linejoin:round;stroke-width:20px"/></pattern></defs><polygon id="background" points="0 1067.85 330.92 1067.85 330.92 1392.8 5178.42 1392.8 5178.42 1027.12 5500 1026.69 5500 28.44 5500 0 5471.56 0 28.44 0 0 0 0 28.44 0.21 610.72 0 1067.85" style="fill:#f2f2f2"/><rect id="locale_tecnico" data-name="locale tecnico" x="1733.49" y="634.25" width="175.22" height="98.88" style="fill:url(#locale_tecnico_2_3)"/><rect id="locale_tecnico-2" data-name="locale tecnico-2" x="358.95" y="634.25" width="565.91" height="98.88" style="fill:url(#locale_tecnico_2_3)"/><polygon id="locale_tecnico-2a" data-name="locale tecnico-2a" points="1582.21 733.13 1406.71 733.13 1406.71 634.25 1582.21 634.25 1582.21 733.13" style="fill:url(#locale_tecnico_2_3)"/><rect id="locale_tecnico-3" data-name="locale tecnico-3" x="821.76" y="1010.54" width="35.61" height="353.82" style="fill:url(#locale_tecnico_2_3)"/><polygon id="locale_tecnico-4" data-name="locale tecnico-4" points="4497.04 1364.36 4497.04 1010.54 4536.09 1010.54 4536.09 1111.53 4536.09 1125.51 4536.09 1364.36 4497.04 1364.36" style="fill:url(#locale_tecnico_2_3)"/><rect id="locale_tecnico-5" data-name="locale tecnico-5" x="4023.62" y="639.8" width="1117.01" height="93.34" style="fill:url(#locale_tecnico_2_3)"/><polygon id="senza_codice" data-name="senza codice" points="3825.86 733.13 3825.86 639.8 3952.76 639.8 3966.74 639.8 4009.58 639.8 4009.58 733.13 3825.86 733.13" style="fill:#f2f2f2"/><polygon id="senza_codice-2" data-name="senza codice-2" points="28.44 639.16 28.44 634.25 344.9 634.25 344.9 733.13 344.9 747.11 344.9 996.57 344.9 1010.54 344.9 1038.98 28.44 1038.98 28.44 639.16" style="fill:#f2f2f2"/><g class="clickable" id="A2-2-16" data-name="customclass A2-2-16"><rect id="a" x="540.91" y="1010.54" width="157.46" height="122.2" style="fill:#f2f2f2"/></g><g class="clickable" id="A2-2-19-A" data-name="customclass A2-2-19-A"><rect id="a-2" x="4550.07" y="1010.54" width="136.6" height="353.82" style="fill:#f2f2f2"/></g><g class="clickable" id="A2-2-38" data-name="customclass A2-2-38"><rect x="1406.85" y="88.7" width="173.75" height="438.66" style="fill:#ddd"/></g><g class="clickable" id="A2-2-37" data-name="customclass A2-2-37"><rect x="1406.85" y="541.33" width="173.75" height="78.94" style="fill:#f2f2f2"/></g><g class="clickable" id="A2-2-36" data-name="customclass A2-2-36"><rect x="1922.69" y="634.25" width="161.25" height="98.88" style="fill:#f2f2f2"/></g><g class="clickable" id="A2-2-35" data-name="customclass A2-2-35"><rect x="3298.99" y="634.25" width="181.97" height="98.88" style="fill:#f2f2f2"/></g><g class="clickable" id="A2-2-34" data-name="customclass A2-2-34"><rect x="3495" y="634.25" width="173.54" height="98.88" style="fill:#f2f2f2"/></g><g class="clickable" id="A2-2-32" data-name="customclass A2-2-32"><polygon points="3966.74 625.75 3966.74 548.99 4009.58 548.99 4023.55 548.99 4023.55 535.01 4023.55 88.7 4023.55 74.66 4009.58 74.66 3995.6 74.66 3995.6 28.44 4009.58 28.44 4023.55 28.44 5471.56 28.44 5471.56 625.75 5154.61 625.75 5140.63 625.75 4587.85 625.75 4573.81 625.75 4023.55 625.75 4009.58 625.75 3966.74 625.75" style="fill:#ddd"/></g><g class="clickable" id="A2-2-31" data-name="customclass A2-2-31"><polygon points="1406.85 74.66 1406.85 28.44 3981.55 28.44 3981.55 74.66 3495 74.66 3480.95 74.66 2962.09 74.66 2948.12 74.66 2434.81 74.66 2420.76 74.66 1922.69 74.66 1908.71 74.66 1594.5 74.66 1580.53 74.66 1406.85 74.66" style="fill:#f2f2f2"/></g><g class="clickable" id="A2-2-30" data-name="customclass A2-2-30"><polygon points="28.44 610.72 28.44 28.44 1392.8 28.44 1392.8 74.66 1392.8 88.7 1392.8 527.36 1392.8 541.33 1392.8 620.27 938.84 620.27 924.86 620.27 358.95 620.27 344.9 620.27 28.44 620.27 28.44 616.41 28.44 610.72" style="fill:#ddd"/></g><g class="clickable" id="A2-2-29" data-name="customclass A2-2-29"><polygon points="1594.5 527.36 1594.5 88.7 1908.71 88.7 1908.71 535.43 1908.71 549.41 1908.71 620.27 1733.49 620.27 1719.51 620.27 1719.51 634.25 1719.51 733.13 1594.5 733.13 1594.5 634.25 1594.5 620.27 1594.5 541.33 1594.5 527.36" style="fill:#ddd"/></g><g class="clickable" id="A2-2-28" data-name="customclass A2-2-28"><rect x="1922.69" y="88.7" width="498.07" height="446.73" style="fill:#ddd"/></g><g class="clickable" id="A2-2-27" data-name="customclass A2-2-27"><rect x="2434.81" y="88.7" width="513.31" height="446.73" style="fill:#ddd"/></g><g class="clickable" id="A2-2-26" data-name="customclass A2-2-26"><polygon points="2962.09 535.43 2962.09 88.7 3480.95 88.7 3480.95 620.27 3298.99 620.27 3284.94 620.27 3284.94 634.25 3284.94 733.13 3156.42 733.13 3156.42 634.25 3156.42 620.27 3142.45 620.27 2962.09 620.27 2962.09 549.41 2962.09 535.43" style="fill:#ddd"/></g><g class="clickable" id="A2-2-25" data-name="customclass A2-2-25"><polygon points="3495 620.27 3495 88.7 4009.58 88.7 4009.58 535.01 3966.74 535.01 3952.76 535.01 3952.76 548.99 3952.76 625.75 3825.86 625.75 3811.88 625.75 3811.88 639.8 3811.88 733.13 3682.51 733.13 3682.51 634.25 3682.51 620.27 3668.47 620.27 3495 620.27" style="fill:#ddd"/></g><g class="clickable" id="A2-2-24" data-name="customclass A2-2-24"><rect x="2962.1" y="634.25" width="180.28" height="98.88" style="fill:#f2f2f2"/></g><g class="clickable" id="A2-2-23" data-name="customclass A2-2-23"><rect x="2333.4" y="557.49" width="190.18" height="53.02" style="fill:#f2f2f2"/></g><g class="clickable" id="A2-2-22" data-name="customclass A2-2-22"><rect x="2761.03" y="634.25" width="187.09" height="98.88" style="fill:#f2f2f2"/></g><g class="clickable" id="A2-2-21" data-name="customclass A2-2-21"><rect x="2250.66" y="634.25" width="360.21" height="98.88" style="fill:#f2f2f2"/></g><g class="clickable" id="A2-2-19" data-name="customclass A2-2-19"><rect x="2400.61" y="747.11" width="592.39" height="241.8" style="fill:none"/></g><g class="clickable" id="A2-2-18" data-name="customclass A2-2-18"><polygon points="358.95 1038.98 358.95 1010.54 526.94 1010.54 526.94 1132.74 358.95 1132.74 358.95 1052.96 358.95 1038.98" style="fill:#f2f2f2"/></g><g class="clickable" id="A2-2-15" data-name="customclass A2-2-15"><polygon points="871.41 1364.36 871.41 1010.54 1335.99 1010.54 1335.99 1198.97 1335.99 1212.94 1349.96 1212.94 1394.07 1212.94 1394.07 1364.36 871.41 1364.36" style="fill:#ddd"/></g><g class="clickable" id="A2-2-14" data-name="customclass A2-2-14"><polygon points="1349.96 1198.97 1349.96 1010.54 1465.35 1010.54 1465.35 1198.97 1408.11 1198.97 1394.07 1198.97 1349.96 1198.97" style="fill:#f2f2f2"/></g><g class="clickable" id="A2-2-13" data-name="customclass A2-2-13"><polygon points="1408.11 1364.36 1408.11 1212.94 1465.35 1212.94 1479.33 1212.94 1479.33 1198.97 1479.33 1010.54 1842.91 1010.54 1842.91 1198.97 1842.91 1212.94 1856.95 1212.94 1904.43 1212.94 1904.43 1364.36 1408.11 1364.36" style="fill:#ddd"/></g><g class="clickable" id="A2-2-12" data-name="customclass A2-2-12"><polygon points="1856.95 1198.97 1856.95 1010.54 1974.87 1010.54 1974.87 1198.97 1918.48 1198.97 1904.43 1198.97 1856.95 1198.97" style="fill:#f2f2f2"/></g><g class="clickable" id="A2-2-11" data-name="customclass A2-2-11"><polygon points="1918.48 1364.36 1918.48 1212.94 1974.87 1212.94 1988.85 1212.94 1988.85 1198.97 1988.85 1010.54 2363.95 1010.54 2363.95 1198.97 2363.95 1212.94 2377.92 1212.94 2424.97 1212.94 2424.97 1364.36 1918.48 1364.36" style="fill:#ddd"/></g><g class="clickable" id="A2-2-10" data-name="customclass A2-2-10"><polygon points="2377.92 1198.97 2377.92 1010.54 2488.25 1010.54 2488.25 1198.97 2439.02 1198.97 2424.97 1198.97 2377.92 1198.97" style="fill:#f2f2f2"/></g><g class="clickable" id="A2-2-09" data-name="customclass A2-2-09"><polygon points="2439.02 1364.36 2439.02 1212.94 2488.25 1212.94 2502.23 1212.94 2502.23 1198.97 2502.23 1010.54 2876.84 1010.54 2876.84 1198.97 2876.84 1212.94 2890.81 1212.94 2915.46 1212.94 2915.46 1364.36 2439.02 1364.36" style="fill:#ddd"/></g><g class="clickable" id="A2-2-08" data-name="customclass A2-2-08"><polygon points="2890.81 1198.97 2890.81 1010.54 3031.27 1010.54 3031.27 1198.97 2929.44 1198.97 2915.46 1198.97 2890.81 1198.97" style="fill:#f2f2f2"/></g><g class="clickable" id="A2-2-07" data-name="customclass A2-2-07"><polygon points="2929.44 1364.36 2929.44 1212.94 3031.27 1212.94 3045.25 1212.94 3045.25 1198.97 3045.25 1010.54 3419.01 1010.54 3419.01 1198.97 3419.01 1212.94 3433.06 1212.94 3479.27 1212.94 3479.27 1364.36 2929.44 1364.36" style="fill:#ddd"/></g><g class="clickable" id="A2-2-06" data-name="customclass A2-2-06"><polygon points="3433.06 1198.97 3433.06 1010.54 3543.74 1010.54 3543.74 1198.97 3493.24 1198.97 3479.27 1198.97 3433.06 1198.97" style="fill:#f2f2f2"/></g><g class="clickable" id="A2-2-05" data-name="customclass A2-2-05"><polygon points="3493.24 1364.36 3493.24 1212.94 3543.74 1212.94 3557.79 1212.94 3557.79 1198.97 3557.79 1010.54 3932.82 1010.54 3932.82 1198.97 3932.82 1212.94 3946.79 1212.94 4001.08 1212.94 4001.08 1364.36 3493.24 1364.36" style="fill:#ddd"/></g><g class="clickable" id="A2-2-04" data-name="customclass A2-2-04"><polygon points="3946.79 1198.97 3946.79 1010.54 4098.28 1010.54 4098.28 1198.97 4015.13 1198.97 4001.08 1198.97 3946.79 1198.97" style="fill:#f2f2f2"/></g><g class="clickable" id="A2-2-03" data-name="customclass A2-2-03"><polygon points="4015.13 1364.36 4015.13 1212.94 4098.28 1212.94 4112.25 1212.94 4112.25 1198.97 4112.25 1010.54 4483.07 1010.54 4483.07 1364.36 4015.13 1364.36" style="fill:#ddd"/></g><g class="clickable" id="A2-2-02" data-name="customclass A2-2-02"><rect x="4822.84" y="1010.54" width="131.12" height="122.62" style="fill:#f2f2f2"/></g><g class="clickable" id="A2-2-20" data-name="customclass A2-2-20"><path d="M1280.16,737.13H1062.93V633.05h162v1.2l1.56-.81Zm-213.72-3.51h208l-50.21-97H1066.44Z" style="fill:#b7b7b7"/><rect x="1064.48" y="683.34" width="182.95" height="3.51" style="fill:#b7b7b7"/><rect x="1208.93" y="708.48" width="55.08" height="3.51" transform="translate(83.52 1549.28) rotate(-65.92)" style="fill:#b7b7b7"/><rect x="1131.48" y="634.81" width="3.51" height="100.57" style="fill:#b7b7b7"/><rect x="1154.65" y="634.81" width="3.51" height="100.57" style="fill:#b7b7b7"/><rect x="1177.76" y="634.81" width="3.51" height="100.57" style="fill:#b7b7b7"/><rect x="1200.86" y="634.81" width="3.51" height="100.57" style="fill:#b7b7b7"/><rect x="1085.27" y="634.81" width="3.51" height="100.57" style="fill:#b7b7b7"/><rect x="1108.37" y="634.81" width="3.51" height="100.57" style="fill:#b7b7b7"/><rect x="1223.2" y="634.81" width="3.51" height="100.57" style="fill:#b7b7b7"/><rect x="1246.23" y="685.09" width="3.51" height="50.28" style="fill:#b7b7b7"/><rect x="1065.53" y="634.81" width="342.02" height="98.32" style="fill:none"/></g><g id="walls"><polygon points="2226.43 634.25 2236.62 634.25 2236.62 656.72 2250.66 656.72 2250.66 634.25 2610.8 634.25 2610.8 656.72 2624.85 656.72 2624.85 634.25 2624.85 620.27 2610.8 620.27 2250.66 620.27 2236.62 620.27 2226.43 620.27 2226.43 634.25" style="fill:#b7b7b7"/><polygon points="3161.9 733.13 3156.42 733.13 3156.42 703.42 3142.45 703.42 3142.45 733.13 2962.09 733.13 2962.09 634.25 3142.45 634.25 3142.45 656.72 3156.42 656.72 3156.42 634.25 3156.42 620.27 3142.45 620.27 2962.09 620.27 2962.09 610.51 2948.12 610.51 2948.12 620.27 2761.03 620.27 2746.98 620.27 2746.98 634.25 2746.98 656.72 2761.03 656.72 2761.03 634.25 2948.12 634.25 2948.12 733.13 2761.03 733.13 2761.03 703.42 2746.98 703.42 2746.98 733.13 2743.61 733.13 2743.61 747.11 2761.03 747.11 2948.12 747.11 2962.09 747.11 3142.45 747.11 3156.42 747.11 3161.9 747.11 3161.9 733.13" style="fill:#b7b7b7"/><rect x="5284.04" y="625.75" width="38.21" height="13.98" style="fill:#b7b7b7"/><rect x="197.7" y="620.27" width="39.47" height="13.98" style="fill:#b7b7b7"/><path d="M330.92,1067.85v325h4847.5V1027.12l321.58-.43V0H0V1067.85Zm526.52,296.51H821.76V1010.54h35.68Zm3678.65,0H4497V1010.54h39.05ZM28.44,634.25H92.07v-14H28.44V28.44H1392.87v1.69h14V28.44H3981.63v1.27h14V28.44h1476V625.75h-36.94v14h36.94V997.41H5067.24v14H5150v121.78H4968v-14h-14v14H4822.91V1010.54H4954V1070h14V996.57h-164.2v14h5.06v136.6H5150v217.22H4700.71V1010.54h14.4v-14h-28.44v367.79h-136.6V1111.53h0v-115H4184.8v14h298.27v353.82H4015.13V1212.94h38.2v-14H3946.86V1010.54h151.42V1198.9h-1.76v14h15.73V1010.61h8.5v-14H3629.49v14h303.33v202.33h68.33v151.42h-507.9V1212.94h5.54v-14h-65.73V1010.54h110.75V1198.9h-1.68v14h15.73V1010.61h7.65v-14h-451v14h304.59v202.33h60.26v151.42H2929.58V1212.94h50.92v-14H2891V1010.54h140.46V1198.9h-7.65v14h21.63V1010.61h5.05v-14h-476v14h302.49v202.33h38.62v151.42H2439.09V1212.94h5.9v-14h-67V1010.54h110.26v202.4h14V1010.61h8.07v-14H2059.36v14H2364v202.33h61.1v151.42H1918.48V1212.94h12.71v-14H1857V1010.54h117.92V1198.9h-.42v14h14.4V1010.61h6.39v-14H1546.4v14H1843v202.33h61.52v151.42H1408.11V1212.94h71.22V1010.61h3v-14h-448v14h301.64v202.33h17.84v-14H1350V1010.54h115.39V1198.9H1392.8v14h1.27v151.42H871.42V1010.54H970.3v-14H801.89v14h6v353.82H359V1146.72h341.1v-14H540.91v-122.2h172.7v-14H459v14h67.92v122.2H359v-122.2h48.81v-14H345V1039H28.44Z" style="fill:#b7b7b7"/><path d="M344.9,634.25V747.11H938.84V634.25h641.69v98.88H1062.79v14h534.52v-14h-2.74V613.88h-14v6.39H1406.85V541.33h68.68v-14h-68.75V88.63h173.75V527.29h-39.68v14h39.68V551h14V88.63h314.21V552.36h14v-3h184.14v-14H1922.69V88.63h498.07V535.36H2226.43v14h403.06v-14H2434.74V88.63h513.31V535.36h-199v14h199v2.11h14V88.63h518.86V551.52h14V88.63h514.65V534.94h-56.89v90.81H3811.81v31h14V639.8h183.73v93.33H3825.78V703.42h-14v29.71h-5.06v14H5154.61V639.8h17v-14H3966.74V549h56.81V74.65h-28v-.84h-14v.84H1406.85v-.42h-14v546H342.79v14Zm3678.72,5.55h1117v93.33h-1117ZM358.88,634.25h566v98.88h-566Z" style="fill:#b7b7b7"/><polygon points="2628.64 733.13 2624.85 733.13 2624.85 703.42 2610.8 703.42 2610.8 733.13 2250.66 733.13 2250.66 703.42 2236.62 703.42 2236.62 725.06 2236.62 733.13 2236.62 747.11 2250.66 747.11 2610.8 747.11 2624.85 747.11 2628.64 747.11 2628.64 733.13" style="fill:#b7b7b7"/><path d="M2097.91,733.13V703.42h-14v29.71H1922.69V634.25h161.25v22.47h14V634.25h8.92v-14H1922.69v-8.92h-14v8.92h-189.2V733.13H1717v14h381v-14Zm-189.2,0H1733.49V634.25h175.22Z" style="fill:#b7b7b7"/><polygon points="3687.15 733.13 3682.51 733.13 3682.51 703.42 3668.47 703.42 3668.47 733.13 3495 733.13 3495 634.25 3668.47 634.25 3668.47 656.72 3682.51 656.72 3682.51 634.25 3682.51 620.27 3668.47 620.27 3495 620.27 3495 610.51 3480.95 610.51 3480.95 620.27 3298.99 620.27 3284.94 620.27 3284.94 634.25 3284.94 656.72 3298.99 656.72 3298.99 634.25 3480.95 634.25 3480.95 733.13 3298.99 733.13 3298.99 703.42 3284.94 703.42 3284.94 733.13 3281.57 733.13 3281.57 747.11 3284.94 747.11 3298.99 747.11 3480.95 747.11 3495 747.11 3668.47 747.11 3682.51 747.11 3687.15 747.11 3687.15 733.13" style="fill:#b7b7b7"/></g><g class="clickable" id="A2-2-17" data-name="customclass A2-2-17"><g id="scale"><path d="M637.13,1368.78H355.29v-223.4H701.11v100.36H471.38V1266H637.13Zm-278.32-3.51H633.62v-95.72H467.87v-27.32H697.6v-93.34H358.81Z" style="fill:#b7b7b7"/><polygon points="634.11 1320.89 421.38 1320.89 421.38 1195.32 698.16 1195.32 698.16 1198.83 424.89 1198.83 424.89 1317.38 634.11 1317.38 634.11 1320.89" style="fill:#b7b7b7"/><rect x="512.05" y="1267.02" width="3.51" height="100.78" style="fill:#b7b7b7"/><rect x="491.05" y="1267.02" width="3.51" height="100.78" style="fill:#b7b7b7"/><rect x="471.03" y="1267.02" width="3.51" height="100.78" style="fill:#b7b7b7"/><rect x="532.55" y="1267.02" width="3.51" height="100.78" style="fill:#b7b7b7"/><rect x="471.03" y="1147.14" width="3.51" height="96.85" style="fill:#b7b7b7"/><rect x="491.05" y="1147.14" width="3.51" height="96.85" style="fill:#b7b7b7"/><rect x="512.05" y="1147.14" width="3.51" height="96.85" style="fill:#b7b7b7"/><rect x="532.55" y="1147.14" width="3.51" height="96.85" style="fill:#b7b7b7"/><rect x="553.06" y="1147.14" width="3.51" height="96.85" style="fill:#b7b7b7"/><rect x="573.08" y="1147.14" width="3.51" height="96.85" style="fill:#b7b7b7"/><rect x="594.15" y="1147.14" width="3.51" height="96.85" style="fill:#b7b7b7"/><rect x="614.65" y="1147.14" width="3.51" height="96.85" style="fill:#b7b7b7"/><rect x="634.11" y="1147.14" width="3.51" height="96.85" style="fill:#b7b7b7"/><rect x="653.63" y="1147.14" width="3.51" height="96.85" style="fill:#b7b7b7"/><rect x="674.63" y="1147.14" width="3.51" height="96.85" style="fill:#b7b7b7"/><polygon points="677.97 1244.24 674.8 1242.74 696.44 1196.91 674.71 1147.85 677.92 1146.43 700.3 1196.95 677.97 1244.24" style="fill:#b7b7b7"/><polygon points="531.14 1366.71 511.62 1319.19 532.69 1269.08 535.93 1270.44 515.42 1319.21 534.39 1365.38 531.14 1366.71" style="fill:#b7b7b7"/><polygon points="701.11 1269.76 635.37 1269.76 635.37 1266.25 697.6 1266.25 697.6 1245.74 638.32 1245.74 638.32 1242.23 701.11 1242.23 701.11 1269.76" style="fill:#b7b7b7"/><rect x="501.41" y="1266.26" width="3.51" height="54.97" transform="translate(-450.5 285.04) rotate(-22.14)" style="fill:#b7b7b7"/><rect x="615.64" y="1267.02" width="3.51" height="100.78" style="fill:#b7b7b7"/><rect x="573.57" y="1267.02" width="3.51" height="100.78" style="fill:#b7b7b7"/><rect x="594.64" y="1267.02" width="3.51" height="100.78" style="fill:#b7b7b7"/><rect x="552.57" y="1267.02" width="3.51" height="100.78" style="fill:#b7b7b7"/></g><g id="a-3"><polygon points="807.79 1147.49 807.79 1364.36 358.95 1364.36 358.95 1146.72 526.94 1146.72 540.91 1146.72 660.16 1146.72 699.42 1146.72 807.79 1147.49" style="fill:none"/></g></g><g class="clickable" id="A2-2-01" data-name="customclass A2-2-01"><g id="scale-2"><path d="M5154.47,1368.78H4872.63V1266h165.75v-20.3H4808.65V1145.38h345.82Zm-278.32-3.51H5151V1148.89H4812.17v93.34h229.72v27.32H4876.15Z" style="fill:#b7b7b7"/><polygon points="5088.38 1320.89 4875.65 1320.89 4875.65 1317.38 5084.87 1317.38 5084.87 1198.83 4811.6 1198.83 4811.6 1195.32 5088.38 1195.32 5088.38 1320.89" style="fill:#b7b7b7"/><rect x="4994.13" y="1267.02" width="3.51" height="100.78" style="fill:#b7b7b7"/><rect x="5015.13" y="1267.02" width="3.51" height="100.78" style="fill:#b7b7b7"/><rect x="5035.15" y="1267.02" width="3.51" height="100.78" style="fill:#b7b7b7"/><rect x="4973.63" y="1267.02" width="3.51" height="100.78" style="fill:#b7b7b7"/><rect x="5035.15" y="1147.14" width="3.51" height="96.85" style="fill:#b7b7b7"/><rect x="5015.13" y="1147.14" width="3.51" height="96.85" style="fill:#b7b7b7"/><rect x="4994.13" y="1147.14" width="3.51" height="96.85" style="fill:#b7b7b7"/><rect x="4973.63" y="1147.14" width="3.51" height="96.85" style="fill:#b7b7b7"/><rect x="4953.12" y="1147.14" width="3.51" height="96.85" style="fill:#b7b7b7"/><rect x="4933.1" y="1147.14" width="3.51" height="96.85" style="fill:#b7b7b7"/><rect x="4912.1" y="1147.14" width="3.51" height="96.85" style="fill:#b7b7b7"/><rect x="4891.6" y="1147.14" width="3.51" height="96.85" style="fill:#b7b7b7"/><rect x="4872.07" y="1147.14" width="3.51" height="96.85" style="fill:#b7b7b7"/><rect x="4852.55" y="1147.14" width="3.51" height="96.85" style="fill:#b7b7b7"/><rect x="4831.55" y="1147.14" width="3.51" height="96.85" style="fill:#b7b7b7"/><polygon points="4831.72 1244.24 4809.39 1196.95 4809.72 1196.22 4831.84 1146.43 4835.05 1147.85 4813.26 1196.91 4834.89 1242.74 4831.72 1244.24" style="fill:#b7b7b7"/><polygon points="4978.55 1366.7 4975.3 1365.39 4993.85 1319.63 4973.82 1270.42 4977.08 1269.1 4997.64 1319.62 4978.55 1366.7" style="fill:#b7b7b7"/><polygon points="4874.39 1269.76 4808.65 1269.76 4808.65 1242.23 4871.37 1242.23 4871.37 1245.74 4812.17 1245.74 4812.17 1266.25 4874.39 1266.25 4874.39 1269.76" style="fill:#b7b7b7"/><rect x="4978.64" y="1292.41" width="55" height="3.51" transform="translate(1915.16 5439.3) rotate(-67.78)" style="fill:#b7b7b7"/><rect x="4890.61" y="1267.02" width="3.51" height="100.78" style="fill:#b7b7b7"/><rect x="4932.61" y="1267.02" width="3.51" height="100.78" style="fill:#b7b7b7"/><rect x="4911.61" y="1267.02" width="3.51" height="100.78" style="fill:#b7b7b7"/><rect x="4953.61" y="1267.02" width="3.51" height="100.78" style="fill:#b7b7b7"/></g><g id="a-4"><polygon points="4808.87 1147.14 4822.84 1147.14 4953.96 1147.14 4967.94 1147.14 5149.97 1147.14 5149.97 1364.36 4700.71 1364.36 4700.71 1147.28 4808.87 1147.14" style="fill:none"/></g></g><g id="scale_2" data-name="scale 2"><polygon points="5473.52 298.06 5470.01 298.06 5470.01 29.78 5395.01 29.78 5395.01 103.94 5391.49 103.94 5391.49 26.27 5473.52 26.27 5473.52 298.06" style="fill:#b7b7b7"/><polygon points="5439.6 290.19 5436.09 290.19 5436.09 67.7 5216.76 67.7 5216.76 64.19 5439.6 64.19 5439.6 290.19" style="fill:#b7b7b7"/><rect x="5249.42" y="28.02" width="3.51" height="75.92" style="fill:#b7b7b7"/><rect x="5266.49" y="28.02" width="3.51" height="75.92" style="fill:#b7b7b7"/><rect x="5283.48" y="28.02" width="3.51" height="75.92" style="fill:#b7b7b7"/><rect x="5321.55" y="28.02" width="3.51" height="75.92" style="fill:#b7b7b7"/><rect x="5339.31" y="28.02" width="3.51" height="75.92" style="fill:#b7b7b7"/><rect x="5356.73" y="28.02" width="3.51" height="75.92" style="fill:#b7b7b7"/><rect x="5373.73" y="28.02" width="3.51" height="75.92" style="fill:#b7b7b7"/><rect x="5232.42" y="28.02" width="3.51" height="75.92" style="fill:#b7b7b7"/><rect x="5396.06" y="111.74" width="75.92" height="3.51" style="fill:#b7b7b7"/><rect x="5396.06" y="129.57" width="75.92" height="3.51" style="fill:#b7b7b7"/><rect x="5396.06" y="146.92" width="75.92" height="3.51" style="fill:#b7b7b7"/><rect x="5396.06" y="166.45" width="75.92" height="3.51" style="fill:#b7b7b7"/><rect x="5396.06" y="183.86" width="75.92" height="3.51" style="fill:#b7b7b7"/><rect x="5396.06" y="202.12" width="75.92" height="3.51" style="fill:#b7b7b7"/><rect x="5396.06" y="219.05" width="75.92" height="3.51" style="fill:#b7b7b7"/><rect x="5396.06" y="236.04" width="75.92" height="3.51" style="fill:#b7b7b7"/><rect x="5396.06" y="253.46" width="75.92" height="3.51" style="fill:#b7b7b7"/><rect x="5396.06" y="270.81" width="75.92" height="3.51" style="fill:#b7b7b7"/><rect x="5396.06" y="288.22" width="75.92" height="3.51" style="fill:#b7b7b7"/><rect x="5302.86" y="28.02" width="3.51" height="75.92" style="fill:#b7b7b7"/><polygon points="5232.14 104.4 5216.2 65.96 5231.71 27.16 5234.97 28.46 5219.99 65.93 5235.38 103.06 5232.14 104.4" style="fill:#b7b7b7"/><rect x="5215.22" y="28.02" width="3.51" height="75.92" style="fill:#b7b7b7"/><path d="M5397.82,299.81H5203.14V259.92h-39.05V148.61h39.05V102.18h194.68Zm-191.17-3.51H5394.3V105.7H5206.65v46.42h-39V256.41h39Z" style="fill:#b7b7b7"/><rect x="5396.06" y="296.3" width="75.92" height="3.51" style="fill:#b7b7b7"/><rect x="5216.55" y="26.27" width="176.7" height="3.51" style="fill:#b7b7b7"/></g><g id="scale-3"><polygon points="29.78 297.21 26.27 297.21 26.27 25.42 108.22 25.42 108.22 103.1 104.71 103.1 104.71 28.93 29.78 28.93 29.78 297.21" style="fill:#b7b7b7"/><polygon points="63.7 289.35 60.19 289.35 60.19 63.35 282.96 63.35 282.96 66.86 63.7 66.86 63.7 289.35" style="fill:#b7b7b7"/><rect x="246.79" y="27.18" width="3.51" height="75.92" style="fill:#b7b7b7"/><rect x="229.79" y="27.18" width="3.51" height="75.92" style="fill:#b7b7b7"/><rect x="212.73" y="27.18" width="3.51" height="75.92" style="fill:#b7b7b7"/><rect x="174.73" y="27.18" width="3.51" height="75.92" style="fill:#b7b7b7"/><rect x="156.89" y="27.18" width="3.51" height="75.92" style="fill:#b7b7b7"/><rect x="139.55" y="27.18" width="3.51" height="75.92" style="fill:#b7b7b7"/><rect x="122.55" y="27.18" width="3.51" height="75.92" style="fill:#b7b7b7"/><rect x="263.85" y="27.18" width="3.51" height="75.92" style="fill:#b7b7b7"/><rect x="27.81" y="110.89" width="75.92" height="3.51" style="fill:#b7b7b7"/><rect x="27.81" y="128.73" width="75.92" height="3.51" style="fill:#b7b7b7"/><rect x="27.81" y="146.08" width="75.92" height="3.51" style="fill:#b7b7b7"/><rect x="27.81" y="165.6" width="75.92" height="3.51" style="fill:#b7b7b7"/><rect x="27.81" y="183.02" width="75.92" height="3.51" style="fill:#b7b7b7"/><rect x="27.81" y="201.28" width="75.92" height="3.51" style="fill:#b7b7b7"/><rect x="27.81" y="218.2" width="75.92" height="3.51" style="fill:#b7b7b7"/><rect x="27.81" y="235.2" width="75.92" height="3.51" style="fill:#b7b7b7"/><rect x="27.81" y="252.55" width="75.92" height="3.51" style="fill:#b7b7b7"/><rect x="27.81" y="269.96" width="75.92" height="3.51" style="fill:#b7b7b7"/><rect x="27.81" y="287.38" width="75.92" height="3.51" style="fill:#b7b7b7"/><rect x="193.41" y="27.18" width="3.51" height="75.92" style="fill:#b7b7b7"/><polygon points="267.65 103.56 264.41 102.22 279.8 65.09 264.82 27.62 268.08 26.32 283.59 65.11 267.65 103.56" style="fill:#b7b7b7"/><rect x="280.99" y="27.18" width="3.51" height="75.92" style="fill:#b7b7b7"/><rect x="27.81" y="295.46" width="75.92" height="3.51" style="fill:#b7b7b7"/><path d="M296.58,299H102V101.34H296.58v46.42h39.05V259.08H296.58Zm-191.09-3.51H293.07V255.57h39.05V151.28H293.07V104.85H105.49Z" style="fill:#b7b7b7"/></g></svg>