<svg id="Livello_1" data-name="Livello 1" xmlns="http://www.w3.org/2000/svg" xmlns:xlink="http://www.w3.org/1999/xlink" viewBox="0 0 5500 1392.8"><defs><pattern id="locale_tecnico_0000012630730366" data-name="locale tecnico 0000012630730366" width="57" height="57" patternTransform="matrix(-0.42, 0, 0, 0.42, -36497.16, 28335.26)" patternUnits="userSpaceOnUse" viewBox="0 0 57 57"><rect width="57" height="57" style="fill:none"/><rect width="57" height="57" style="fill:none"/><rect width="57" height="57" style="fill:none"/><rect width="57" height="57" style="fill:none"/><rect width="57" height="57" style="fill:none"/><rect width="57" height="57" style="fill:none"/><rect width="57" height="57" style="fill:none"/><rect width="57" height="57" style="fill:none"/><rect width="57" height="57" style="fill:none"/><rect width="57" height="57" style="fill:none"/><rect width="57" height="57" style="fill:none"/><rect width="57" height="57" style="fill:none"/><rect width="57" height="57" style="fill:none"/><rect width="57" height="57" style="fill:none"/><rect x="53" y="-53" width="60" height="58" style="fill:#f2f2f2"/><line x1="57" x2="114" y2="-57" style="fill:none;stroke:#ddd;stroke-linecap:square;stroke-linejoin:round;stroke-width:20px"/><rect x="-4" y="-53" width="60" height="58" style="fill:#f2f2f2"/><line x2="57" y2="-57" style="fill:none;stroke:#ddd;stroke-linecap:square;stroke-linejoin:round;stroke-width:20px"/><line x1="-57" y2="-57" style="fill:none;stroke:#ddd;stroke-linecap:square;stroke-linejoin:round;stroke-width:20px"/><rect x="53" y="4" width="60" height="58" style="fill:#f2f2f2"/><line x1="57" y1="57" x2="114" style="fill:none;stroke:#ddd;stroke-linecap:square;stroke-linejoin:round;stroke-width:20px"/><rect x="-4" y="4" width="60" height="58" style="fill:#f2f2f2"/><line y1="57" x2="57" style="fill:none;stroke:#ddd;stroke-linecap:square;stroke-linejoin:round;stroke-width:20px"/><line x1="-57" y1="57" style="fill:none;stroke:#ddd;stroke-linecap:square;stroke-linejoin:round;stroke-width:20px"/><line x1="57" y1="114" x2="114" y2="57" style="fill:none;stroke:#ddd;stroke-linecap:square;stroke-linejoin:round;stroke-width:20px"/><line y1="114" x2="57" y2="57" style="fill:none;stroke:#ddd;stroke-linecap:square;stroke-linejoin:round;stroke-width:20px"/><line x1="-57" y1="114" y2="57" style="fill:none;stroke:#ddd;stroke-linecap:square;stroke-linejoin:round;stroke-width:20px"/></pattern></defs><polygon id="background" points="0 1067.8 330.9 1067.8 330.9 1392.8 5178.4 1392.8 5178.4 1027.1 5500 1026.7 5500 28.4 5500 0 5471.6 0 28.4 0 0 0 0 28.4 0.2 610.7 0 1067.8" style="fill:#f2f2f2"/><rect id="locale_tecnico" data-name="locale tecnico" x="1733.5" y="634.2" width="175.2" height="98.9" style="fill:url(#locale_tecnico_0000012630730366)"/><polygon id="locale_tecnico-2-Z" data-name="locale tecnico-2-Z" points="1582.2 733.1 1406.7 733.1 1406.7 634.2 1582.2 634.2 1582.2 733.1" style="fill:url(#locale_tecnico_0000012630730366)"/><rect id="locale_tecnico-2" data-name="locale tecnico-2" x="359" y="634.2" width="565.9" height="98.9" style="fill:url(#locale_tecnico_0000012630730366)"/><rect id="locale_tecnico-3" data-name="locale tecnico-3" x="821.8" y="1010.5" width="35.6" height="353.8" style="fill:url(#locale_tecnico_0000012630730366)"/><polygon id="locale_tecnico-4" data-name="locale tecnico-4" points="4497 1364.4 4497 1010.5 4536.1 1010.5 4536.1 1111.5 4536.1 1125.5 4536.1 1364.4 4497 1364.4" style="fill:url(#locale_tecnico_0000012630730366)"/><rect id="locale_tecnico-5" data-name="locale tecnico-5" x="4023.6" y="639.8" width="1117" height="93.3" style="fill:url(#locale_tecnico_0000012630730366)"/><g class="clickable" id="A2-2-38" data-name="customclass A2-2-38"><rect x="1406.8" y="88.7" width="173.8" height="438.7" style="fill:#ddd"/></g><g class="clickable" id="A2-2-37" data-name="customclass A2-2-37"><rect x="1406.8" y="541.3" width="173.8" height="78.9" style="fill:#f2f2f2"/></g><g class="clickable" id="A2-2-36" data-name="customclass A2-2-36"><rect x="1922.7" y="634.2" width="161.2" height="98.9" style="fill:#f2f2f2"/></g><g class="clickable" id="A2-2-35" data-name="customclass A2-2-35"><rect x="3299" y="634.2" width="182" height="98.9" style="fill:#f2f2f2"/></g><polygon class="clickable" id="A2-2-34-Z" data-name="customclass A2-2-34-Z" points="3825.9 733.1 3825.9 639.8 3952.8 639.8 3966.7 639.8 4009.6 639.8 4009.6 733.1 3825.9 733.1" style="fill:#f2f2f2"/><g class="clickable" id="A2-2-34" data-name="customclass A2-2-34"><rect x="3495" y="634.2" width="173.5" height="98.9" style="fill:#f2f2f2"/></g><g class="clickable" id="A2-2-32" data-name="customclass A2-2-32"><polygon points="3966.7 625.8 3966.7 549 4009.6 549 4023.6 549 4023.6 535 4023.6 88.7 4023.6 74.7 4009.6 74.7 3995.6 74.7 3995.6 28.4 4009.6 28.4 4023.6 28.4 5471.6 28.4 5471.6 625.8 5154.6 625.8 5140.6 625.8 4587.9 625.8 4573.8 625.8 4023.6 625.8 4009.6 625.8 3966.7 625.8" style="fill:#ddd"/></g><g class="clickable" id="A2-2-31" data-name="customclass A2-2-31"><polygon points="1406.8 74.7 1406.8 28.4 3981.6 28.4 3981.6 74.7 3495 74.7 3480.9 74.7 2962.1 74.7 2948.1 74.7 2434.8 74.7 2420.8 74.7 1922.7 74.7 1908.7 74.7 1594.5 74.7 1580.5 74.7 1406.8 74.7" style="fill:#f2f2f2"/></g><g class="clickable" id="A2-2-30" data-name="customclass A2-2-30"><polygon points="28.4 610.7 28.4 28.4 1392.8 28.4 1392.8 74.7 1392.8 88.7 1392.8 527.4 1392.8 541.3 1392.8 620.3 938.8 620.3 924.9 620.3 359 620.3 344.9 620.3 28.4 620.3 28.4 616.4 28.4 610.7" style="fill:#ddd"/></g><g class="clickable" id="A2-2-29" data-name="customclass A2-2-29"><polygon points="1594.5 527.4 1594.5 88.7 1908.7 88.7 1908.7 535.4 1908.7 549.4 1908.7 620.3 1733.5 620.3 1719.5 620.3 1719.5 634.2 1719.5 733.1 1594.5 733.1 1594.5 634.2 1594.5 620.3 1594.5 541.3 1594.5 527.4" style="fill:#ddd"/></g><g class="clickable" id="A2-2-28" data-name="customclass A2-2-28"><rect x="1922.7" y="88.7" width="498.1" height="446.7" style="fill:#ddd"/></g><g class="clickable" id="A2-2-27" data-name="customclass A2-2-27"><rect x="2434.8" y="88.7" width="513.3" height="446.7" style="fill:#ddd"/></g><g class="clickable" id="A2-2-26" data-name="customclass A2-2-26"><polygon points="2962.1 535.4 2962.1 88.7 3480.9 88.7 3480.9 620.3 3299 620.3 3284.9 620.3 3284.9 634.2 3284.9 733.1 3156.4 733.1 3156.4 634.2 3156.4 620.3 3142.4 620.3 2962.1 620.3 2962.1 549.4 2962.1 535.4" style="fill:#ddd"/></g><g class="clickable" id="A2-2-25" data-name="customclass A2-2-25"><polygon points="3495 620.3 3495 88.7 4009.6 88.7 4009.6 535 3966.7 535 3952.8 535 3952.8 549 3952.8 625.8 3825.9 625.8 3811.9 625.8 3811.9 639.8 3811.9 733.1 3682.5 733.1 3682.5 634.2 3682.5 620.3 3668.5 620.3 3495 620.3" style="fill:#ddd"/></g><g class="clickable" id="A2-2-24" data-name="customclass A2-2-24"><rect x="2962.1" y="634.2" width="180.3" height="98.9" style="fill:#f2f2f2"/></g><g class="clickable" id="A2-2-23" data-name="customclass A2-2-23"><rect x="2333.4" y="557.5" width="190.2" height="53" style="fill:#f2f2f2"/></g><g class="clickable" id="A2-2-22" data-name="customclass A2-2-22"><rect x="2761" y="634.2" width="187.1" height="98.9" style="fill:#f2f2f2"/></g><g class="clickable" id="A2-2-21" data-name="customclass A2-2-21"><rect x="2250.7" y="634.2" width="360.2" height="98.9" style="fill:#f2f2f2"/></g><g class="clickable" id="A2-2-19-Z" data-name="customclass A2-2-19-Z"><polygon id="senza_codice-2" data-name="senza codice-2" points="28.4 639.2 28.4 634.2 344.9 634.2 344.9 733.1 344.9 747.1 344.9 996.6 344.9 1010.5 344.9 1039 28.4 1039 28.4 639.2" style="fill:#f2f2f2"/></g><g class="clickable" id="A2-2-19" data-name="customclass A2-2-19"><rect x="342.8" y="747.1" width="4797.8" height="241.8" style="fill:none"/></g><g class="clickable" id="A2-2-18" data-name="customclass A2-2-18"><polygon points="359 1039 359 1010.5 526.9 1010.5 526.9 1132.7 359 1132.7 359 1053 359 1039" style="fill:#f2f2f2"/></g><g class="clickable" id="A2-2-15" data-name="customclass A2-2-15"><polygon points="871.4 1364.4 871.4 1010.5 1336 1010.5 1336 1199 1336 1212.9 1350 1212.9 1394.1 1212.9 1394.1 1364.4 871.4 1364.4" style="fill:#ddd"/></g><g class="clickable" id="A2-2-14" data-name="customclass A2-2-14"><polygon points="1350 1199 1350 1010.5 1465.3 1010.5 1465.3 1199 1408.1 1199 1394.1 1199 1350 1199" style="fill:#f2f2f2"/></g><g class="clickable" id="A2-2-13" data-name="customclass A2-2-13"><polygon points="1408.1 1364.4 1408.1 1212.9 1465.3 1212.9 1479.3 1212.9 1479.3 1199 1479.3 1010.5 1842.9 1010.5 1842.9 1199 1842.9 1212.9 1856.9 1212.9 1904.4 1212.9 1904.4 1364.4 1408.1 1364.4" style="fill:#ddd"/></g><g class="clickable" id="A2-2-12" data-name="customclass A2-2-12"><polygon points="1856.9 1199 1856.9 1010.5 1974.9 1010.5 1974.9 1199 1918.5 1199 1904.4 1199 1856.9 1199" style="fill:#f2f2f2"/></g><g class="clickable" id="A2-2-11" data-name="customclass A2-2-11"><polygon points="1918.5 1364.4 1918.5 1212.9 1974.9 1212.9 1988.8 1212.9 1988.8 1199 1988.8 1010.5 2363.9 1010.5 2363.9 1199 2363.9 1212.9 2377.9 1212.9 2425 1212.9 2425 1364.4 1918.5 1364.4" style="fill:#ddd"/></g><g class="clickable" id="A2-2-10" data-name="customclass A2-2-10"><polygon points="2377.9 1199 2377.9 1010.5 2488.2 1010.5 2488.2 1199 2439 1199 2425 1199 2377.9 1199" style="fill:#f2f2f2"/></g><g class="clickable" id="A2-2-09" data-name="customclass A2-2-09"><polygon points="2439 1364.4 2439 1212.9 2488.2 1212.9 2502.2 1212.9 2502.2 1199 2502.2 1010.5 2876.8 1010.5 2876.8 1199 2876.8 1212.9 2890.8 1212.9 2915.5 1212.9 2915.5 1364.4 2439 1364.4" style="fill:#ddd"/></g><g class="clickable" id="A2-2-08" data-name="customclass A2-2-08"><polygon points="2890.8 1199 2890.8 1010.5 3031.3 1010.5 3031.3 1199 2929.4 1199 2915.5 1199 2890.8 1199" style="fill:#f2f2f2"/></g><g class="clickable" id="A2-2-07" data-name="customclass A2-2-07"><polygon points="2929.4 1364.4 2929.4 1212.9 3031.3 1212.9 3045.2 1212.9 3045.2 1199 3045.2 1010.5 3419 1010.5 3419 1199 3419 1212.9 3433.1 1212.9 3479.3 1212.9 3479.3 1364.4 2929.4 1364.4" style="fill:#ddd"/></g><g class="clickable" id="A2-2-06" data-name="customclass A2-2-06"><polygon points="3433.1 1199 3433.1 1010.5 3543.7 1010.5 3543.7 1199 3493.2 1199 3479.3 1199 3433.1 1199" style="fill:#f2f2f2"/></g><g class="clickable" id="A2-2-05" data-name="customclass A2-2-05"><polygon points="3493.2 1364.4 3493.2 1212.9 3543.7 1212.9 3557.8 1212.9 3557.8 1199 3557.8 1010.5 3932.8 1010.5 3932.8 1199 3932.8 1212.9 3946.8 1212.9 4001.1 1212.9 4001.1 1364.4 3493.2 1364.4" style="fill:#ddd"/></g><g class="clickable" id="A2-2-04" data-name="customclass A2-2-04"><polygon points="3946.8 1199 3946.8 1010.5 4098.3 1010.5 4098.3 1199 4015.1 1199 4001.1 1199 3946.8 1199" style="fill:#f2f2f2"/></g><g class="clickable" id="A2-2-03" data-name="customclass A2-2-03"><polygon points="4015.1 1364.4 4015.1 1212.9 4098.3 1212.9 4112.2 1212.9 4112.2 1199 4112.2 1010.5 4483.1 1010.5 4483.1 1364.4 4015.1 1364.4" style="fill:#ddd"/></g><g class="clickable" id="A2-2-02" data-name="customclass A2-2-02"><rect x="4822.8" y="1010.5" width="131.1" height="122.6" style="fill:#f2f2f2"/></g><g id="walls"><polygon points="2226.4 634.2 2236.6 634.2 2236.6 656.7 2250.7 656.7 2250.7 634.2 2610.8 634.2 2610.8 656.7 2624.9 656.7 2624.9 634.2 2624.9 620.3 2610.8 620.3 2250.7 620.3 2236.6 620.3 2226.4 620.3 2226.4 634.2" style="fill:#b7b7b7"/><polygon points="3161.9 733.1 3156.4 733.1 3156.4 703.4 3142.4 703.4 3142.4 733.1 2962.1 733.1 2962.1 634.2 3142.4 634.2 3142.4 656.7 3156.4 656.7 3156.4 634.2 3156.4 620.3 3142.4 620.3 2962.1 620.3 2962.1 610.5 2948.1 610.5 2948.1 620.3 2761 620.3 2747 620.3 2747 634.2 2747 656.7 2761 656.7 2761 634.2 2948.1 634.2 2948.1 733.1 2761 733.1 2761 703.4 2747 703.4 2747 733.1 2743.6 733.1 2743.6 747.1 2761 747.1 2948.1 747.1 2962.1 747.1 3142.4 747.1 3156.4 747.1 3161.9 747.1 3161.9 733.1" style="fill:#b7b7b7"/><rect x="5284" y="625.8" width="38.2" height="14" style="fill:#b7b7b7"/><rect x="197.7" y="620.3" width="39.5" height="14" style="fill:#b7b7b7"/><path d="M330.9,1067.8v325H5178.4V1027.1l321.6-.4V0H0V1067.8Zm526.5,296.6H821.7V1010.6h35.7Zm3678.7,0H4497V1010.6h39ZM28.4,634.2H92v-14H28.4V28.4H1392.8v1.7h14V28.4H3981.6v1.3h14V28.4h1476V625.7h-36.9v14h36.9V997.4H5067.2v14H5150v121.8H4968v-14h-14v14H4822.9V1010.6H4954v59.5h14V996.7H4803.8v14h5.1v136.6H5150v217.2H4700.7V1010.6h14.4v-14h-28.4v367.8H4550.1V1111.6h0v-115H4184.8v14h298.3v353.8H4015.2V1213h38.2v-14H3946.9V1010.6h151.4V1199h-1.8v14h15.7V1010.7h8.5v-14H3629.4v14h303.3V1213H4001v151.4H3493.1V1213h5.5v-14h-65.7V1010.6h110.8V1199H3542v14h15.7V1010.7h7.6v-14h-451v14h304.6V1213h60.3v151.4H2929.4V1213h50.9v-14H2891V1010.6h140.5V1199h-7.6v14h21.6V1010.7h5v-14h-476v14H2877V1213h38.6v151.4H2439.1V1213h5.9v-14h-67V1010.6h110.3V1213h14V1010.7h8.1v-14h-451v14H2364V1213h61.1v151.4H1918.5V1213h12.7v-14H1857V1010.6h117.9V1199h-.4v14h14.4V1010.7h6.4v-14H1546.4v14H1843V1213h61.5v151.4H1408.1V1213h71.2V1010.7h3v-14h-448v14H1336V1213h17.8v-14H1350V1010.6h115.4V1199h-72.6v14h1.3v151.4H871.4V1010.6h98.9v-14H801.9v14h6v353.8H359V1146.8H700.1v-14H540.9V1010.6H713.6v-14H459v14h67.9v122.2H359V1010.6h48.8v-14H345v42.5H28.4Z" style="fill:#b7b7b7"/><path d="M344.9,634.2V747.1H938.8V634.2h641.7v98.9H1062.8v14h534.5v-14h-2.7V613.9h-14v6.4H1406.9V541.4h68.7v-14h-68.8V88.6h173.8V527.3h-39.7v14h39.7V551h14V88.6h314.2V552.3h14v-3h184.1v-14H1922.7V88.6h498.1V535.3H2226.5v14h403.1v-14H2434.8V88.6h513.3V535.3h-199v14h199v2.1h14V88.6H3481V551.5h14V88.6h514.6V534.9h-56.9v90.8H3811.8v31h14v-17h183.7V733H3825.7V703.3h-14V733h-5.1v14H5154.5V639.8h17v-14H3966.7V549h56.8V74.7h-28v-.8h-14v.8H1406.8v-.4h-14v546H342.8v14Zm3678.7,5.6h1117v93.3h-1117ZM358.9,634.2h566v98.9h-566V634.2Z" style="fill:#b7b7b7"/><polygon points="2628.6 733.1 2624.9 733.1 2624.9 703.4 2610.8 703.4 2610.8 733.1 2250.7 733.1 2250.7 703.4 2236.6 703.4 2236.6 725.1 2236.6 733.1 2236.6 747.1 2250.7 747.1 2610.8 747.1 2624.9 747.1 2628.6 747.1 2628.6 733.1" style="fill:#b7b7b7"/><path d="M2097.9,733.1V703.4h-14v29.7H1922.7V634.2h161.2v22.5h14V634.2h8.9v-14H1922.6v-8.9h-14v8.9H1719.4V733.1h-2.5v14h381v-14Zm-189.2,0H1733.5V634.2h175.2Z" style="fill:#b7b7b7"/><polygon points="3687.1 733.1 3682.5 733.1 3682.5 703.4 3668.5 703.4 3668.5 733.1 3495 733.1 3495 634.2 3668.5 634.2 3668.5 656.7 3682.5 656.7 3682.5 634.2 3682.5 620.3 3668.5 620.3 3495 620.3 3495 610.5 3480.9 610.5 3480.9 620.3 3299 620.3 3284.9 620.3 3284.9 634.2 3284.9 656.7 3299 656.7 3299 634.2 3480.9 634.2 3480.9 733.1 3299 733.1 3299 703.4 3284.9 703.4 3284.9 733.1 3281.6 733.1 3281.6 747.1 3284.9 747.1 3299 747.1 3480.9 747.1 3495 747.1 3668.5 747.1 3682.5 747.1 3687.1 747.1 3687.1 733.1" style="fill:#b7b7b7"/></g><g class="clickable" id="A2-2-STAIR-A" data-name="customclass A2-2-STAIR-A"><rect id="c" x="5124.8" y="29.7" width="347.1" height="282.3" style="fill:none"/><g id="scale_2" data-name="scale 2"><polygon points="5473.5 298.1 5470 298.1 5470 29.8 5395 29.8 5395 103.9 5391.5 103.9 5391.5 26.3 5473.5 26.3 5473.5 298.1" style="fill:#b7b7b7"/><polygon points="5439.6 290.2 5436.1 290.2 5436.1 67.7 5216.8 67.7 5216.8 64.2 5439.6 64.2 5439.6 290.2" style="fill:#b7b7b7"/><rect x="5249.4" y="28" width="3.5" height="75.9" style="fill:#b7b7b7"/><rect x="5266.5" y="28" width="3.5" height="75.9" style="fill:#b7b7b7"/><rect x="5283.5" y="28" width="3.5" height="75.9" style="fill:#b7b7b7"/><rect x="5321.5" y="28" width="3.5" height="75.9" style="fill:#b7b7b7"/><rect x="5339.3" y="28" width="3.5" height="75.9" style="fill:#b7b7b7"/><rect x="5356.7" y="28" width="3.5" height="75.9" style="fill:#b7b7b7"/><rect x="5373.7" y="28" width="3.5" height="75.9" style="fill:#b7b7b7"/><rect x="5232.4" y="28" width="3.5" height="75.9" style="fill:#b7b7b7"/><rect x="5396.1" y="111.7" width="75.9" height="3.5" style="fill:#b7b7b7"/><rect x="5396.1" y="129.6" width="75.9" height="3.5" style="fill:#b7b7b7"/><rect x="5396.1" y="146.9" width="75.9" height="3.5" style="fill:#b7b7b7"/><rect x="5396.1" y="166.4" width="75.9" height="3.5" style="fill:#b7b7b7"/><rect x="5396.1" y="183.9" width="75.9" height="3.5" style="fill:#b7b7b7"/><rect x="5396.1" y="202.1" width="75.9" height="3.5" style="fill:#b7b7b7"/><rect x="5396.1" y="219.1" width="75.9" height="3.5" style="fill:#b7b7b7"/><rect x="5396.1" y="236" width="75.9" height="3.5" style="fill:#b7b7b7"/><rect x="5396.1" y="253.5" width="75.9" height="3.5" style="fill:#b7b7b7"/><rect x="5396.1" y="270.8" width="75.9" height="3.5" style="fill:#b7b7b7"/><rect x="5396.1" y="288.2" width="75.9" height="3.5" style="fill:#b7b7b7"/><rect x="5302.9" y="28" width="3.5" height="75.9" style="fill:#b7b7b7"/><polygon points="5232.1 104.4 5216.2 66 5231.7 27.2 5235 28.5 5220 65.9 5235.4 103.1 5232.1 104.4" style="fill:#b7b7b7"/><rect x="5215.2" y="28" width="3.5" height="75.9" style="fill:#b7b7b7"/><path d="M5397.8,299.8H5203.1V259.9h-39V148.6h39V102.2h194.7Zm-191.2-3.5h187.6V105.7H5206.6v46.4h-39V256.4h39Z" style="fill:#b7b7b7"/><rect x="5396.1" y="296.3" width="75.9" height="3.5" style="fill:#b7b7b7"/><rect x="5216.5" y="26.3" width="176.7" height="3.5" style="fill:#b7b7b7"/></g></g><g class="clickable" id="A2-2-STAIR-B" data-name="customclass A2-2-STAIR-B"><rect id="a" x="29.8" y="29" width="348.1" height="279.1" style="fill:none"/><g id="scale-3"><polygon points="31.8 299.7 28.3 299.7 28.3 27.9 110.3 27.9 110.3 105.6 106.8 105.6 106.8 31.4 31.8 31.4 31.8 299.7" style="fill:#b7b7b7"/><polygon points="65.8 291.8 62.2 291.8 62.2 65.8 285 65.8 285 69.3 65.8 69.3 65.8 291.8" style="fill:#b7b7b7"/><rect x="248.8" y="29.6" width="3.5" height="75.9" style="fill:#b7b7b7"/><rect x="231.8" y="29.6" width="3.5" height="75.9" style="fill:#b7b7b7"/><rect x="214.8" y="29.6" width="3.5" height="75.9" style="fill:#b7b7b7"/><rect x="176.8" y="29.6" width="3.5" height="75.9" style="fill:#b7b7b7"/><rect x="158.9" y="29.6" width="3.5" height="75.9" style="fill:#b7b7b7"/><rect x="141.6" y="29.6" width="3.5" height="75.9" style="fill:#b7b7b7"/><rect x="124.6" y="29.6" width="3.5" height="75.9" style="fill:#b7b7b7"/><rect x="265.9" y="29.6" width="3.5" height="75.9" style="fill:#b7b7b7"/><rect x="29.9" y="113.4" width="75.9" height="3.5" style="fill:#b7b7b7"/><rect x="29.9" y="131.2" width="75.9" height="3.5" style="fill:#b7b7b7"/><rect x="29.9" y="148.5" width="75.9" height="3.5" style="fill:#b7b7b7"/><rect x="29.9" y="168.1" width="75.9" height="3.5" style="fill:#b7b7b7"/><rect x="29.9" y="185.5" width="75.9" height="3.5" style="fill:#b7b7b7"/><rect x="29.9" y="203.7" width="75.9" height="3.5" style="fill:#b7b7b7"/><rect x="29.9" y="220.7" width="75.9" height="3.5" style="fill:#b7b7b7"/><rect x="29.9" y="237.7" width="75.9" height="3.5" style="fill:#b7b7b7"/><rect x="29.9" y="255" width="75.9" height="3.5" style="fill:#b7b7b7"/><rect x="29.9" y="272.4" width="75.9" height="3.5" style="fill:#b7b7b7"/><rect x="29.9" y="289.8" width="75.9" height="3.5" style="fill:#b7b7b7"/><rect x="195.5" y="29.6" width="3.5" height="75.9" style="fill:#b7b7b7"/><polygon points="269.7 106 266.5 104.7 281.9 67.6 266.9 30.1 270.1 28.8 285.6 67.6 269.7 106" style="fill:#b7b7b7"/><rect x="283" y="29.6" width="3.5" height="75.9" style="fill:#b7b7b7"/><rect x="29.9" y="297.9" width="75.9" height="3.5" style="fill:#b7b7b7"/><path d="M298.6,301.5H104.1V103.8H298.7v46.4h39V261.5h-39v40ZM107.5,298H295.1V258h39V153.7h-39V107.3H107.5Z" style="fill:#b7b7b7"/></g></g><g class="clickable" id="A2-2-STAIR-F" data-name="customclass A2-2-STAIR-F"><path d="M1280.2,737.1H1063V633h162v1.2l1.6-.8Zm-213.8-3.5h208l-50.2-97H1066.4Z" style="fill:#b7b7b7"/><rect x="1064.5" y="683.3" width="182.9" height="3.5" style="fill:#b7b7b7"/><rect x="1208.89" y="708.31" width="55.1" height="3.5" transform="translate(83.7 1549.21) rotate(-65.92)" style="fill:#b7b7b7"/><rect x="1131.5" y="634.8" width="3.5" height="100.6" style="fill:#b7b7b7"/><rect x="1154.7" y="634.8" width="3.5" height="100.6" style="fill:#b7b7b7"/><rect x="1177.8" y="634.8" width="3.5" height="100.6" style="fill:#b7b7b7"/><rect x="1200.9" y="634.8" width="3.5" height="100.6" style="fill:#b7b7b7"/><rect x="1085.3" y="634.8" width="3.5" height="100.6" style="fill:#b7b7b7"/><rect x="1108.4" y="634.8" width="3.5" height="100.6" style="fill:#b7b7b7"/><rect x="1223.2" y="634.8" width="3.5" height="100.6" style="fill:#b7b7b7"/><rect x="1246.2" y="685.1" width="3.5" height="50.3" style="fill:#b7b7b7"/><rect x="1065.5" y="634.8" width="342" height="98.3" style="fill:none"/></g><g class="clickable" id="A2-2-LIFT-D" data-name="customclass A2-2-LIFT-D"><rect id="a-2" x="4550.1" y="1010.5" width="136.6" height="353.8" style="fill:#f2f2f2"/></g><g class="clickable" id="A2-2-STAIR-D" data-name="customclass A2-2-STAIR-D"><g id="scale-2"><path d="M5154.5,1368.8H4872.7V1266h165.8v-20.3H4808.8V1145.4h345.8Zm-278.3-3.5H5151V1148.9H4812.2v93.3h229.7v27.3H4876.2Z" style="fill:#b7b7b7"/><polygon points="5088.4 1320.9 4875.6 1320.9 4875.6 1317.4 5084.9 1317.4 5084.9 1198.8 4811.6 1198.8 4811.6 1195.3 5088.4 1195.3 5088.4 1320.9" style="fill:#b7b7b7"/><rect x="4994.1" y="1267" width="3.5" height="100.8" style="fill:#b7b7b7"/><rect x="5015.1" y="1267" width="3.5" height="100.8" style="fill:#b7b7b7"/><rect x="5035.1" y="1267" width="3.5" height="100.8" style="fill:#b7b7b7"/><rect x="4973.6" y="1267" width="3.5" height="100.8" style="fill:#b7b7b7"/><rect x="5035.1" y="1147.1" width="3.5" height="96.8" style="fill:#b7b7b7"/><rect x="5015.1" y="1147.1" width="3.5" height="96.8" style="fill:#b7b7b7"/><rect x="4994.1" y="1147.1" width="3.5" height="96.8" style="fill:#b7b7b7"/><rect x="4973.6" y="1147.1" width="3.5" height="96.8" style="fill:#b7b7b7"/><rect x="4953.1" y="1147.1" width="3.5" height="96.8" style="fill:#b7b7b7"/><rect x="4933.1" y="1147.1" width="3.5" height="96.8" style="fill:#b7b7b7"/><rect x="4912.1" y="1147.1" width="3.5" height="96.8" style="fill:#b7b7b7"/><rect x="4891.6" y="1147.1" width="3.5" height="96.8" style="fill:#b7b7b7"/><rect x="4872.1" y="1147.1" width="3.5" height="96.8" style="fill:#b7b7b7"/><rect x="4852.5" y="1147.1" width="3.5" height="96.8" style="fill:#b7b7b7"/><rect x="4831.5" y="1147.1" width="3.5" height="96.8" style="fill:#b7b7b7"/><polygon points="4831.7 1244.2 4809.4 1196.9 4809.7 1196.2 4831.8 1146.4 4835 1147.8 4813.3 1196.9 4834.9 1242.7 4831.7 1244.2" style="fill:#b7b7b7"/><polygon points="4978.5 1366.7 4975.3 1365.4 4993.9 1319.6 4973.8 1270.4 4977.1 1269.1 4997.6 1319.6 4978.5 1366.7" style="fill:#b7b7b7"/><polygon points="4874.4 1269.8 4808.6 1269.8 4808.6 1242.2 4871.4 1242.2 4871.4 1245.7 4812.2 1245.7 4812.2 1266.2 4874.4 1266.2 4874.4 1269.8" style="fill:#b7b7b7"/><rect x="4978.91" y="1292.96" width="55" height="3.5" transform="translate(1914.41 5439.57) rotate(-67.78)" style="fill:#b7b7b7"/><rect x="4890.6" y="1267" width="3.5" height="100.8" style="fill:#b7b7b7"/><rect x="4932.6" y="1267" width="3.5" height="100.8" style="fill:#b7b7b7"/><rect x="4911.6" y="1267" width="3.5" height="100.8" style="fill:#b7b7b7"/><rect x="4953.6" y="1267" width="3.5" height="100.8" style="fill:#b7b7b7"/></g><g id="a-4"><polygon points="4808.9 1147.1 4822.8 1147.1 4954 1147.1 4967.9 1147.1 5150 1147.1 5150 1364.4 4700.7 1364.4 4700.7 1147.3 4808.9 1147.1" style="fill:none"/></g></g><g class="clickable" id="A2-2-LIFT-C" data-name="customclass A2-2-LIFT-C"><rect id="a-2-2" data-name="a" x="540.9" y="1010.5" width="157.5" height="122.2" style="fill:#f2f2f2"/></g><g class="clickable" id="A2-2-STAIR-C" data-name="customclass A2-2-STAIR-C"><g id="scale"><path d="M637.1,1368.8H355.3V1145.4H701.1v100.4H471.4v20.3H637.2v102.7Zm-278.3-3.5H633.6v-95.7H467.9v-27.3H697.6V1149H358.8Z" style="fill:#b7b7b7"/><polygon points="634.1 1320.9 421.4 1320.9 421.4 1195.3 698.2 1195.3 698.2 1198.8 424.9 1198.8 424.9 1317.4 634.1 1317.4 634.1 1320.9" style="fill:#b7b7b7"/><rect x="512" y="1267" width="3.5" height="100.8" style="fill:#b7b7b7"/><rect x="491" y="1267" width="3.5" height="100.8" style="fill:#b7b7b7"/><rect x="471" y="1267" width="3.5" height="100.8" style="fill:#b7b7b7"/><rect x="532.5" y="1267" width="3.5" height="100.8" style="fill:#b7b7b7"/><rect x="471" y="1147.1" width="3.5" height="96.8" style="fill:#b7b7b7"/><rect x="491" y="1147.1" width="3.5" height="96.8" style="fill:#b7b7b7"/><rect x="512" y="1147.1" width="3.5" height="96.8" style="fill:#b7b7b7"/><rect x="532.5" y="1147.1" width="3.5" height="96.8" style="fill:#b7b7b7"/><rect x="553.1" y="1147.1" width="3.5" height="96.8" style="fill:#b7b7b7"/><rect x="573.1" y="1147.1" width="3.5" height="96.8" style="fill:#b7b7b7"/><rect x="594.2" y="1147.1" width="3.5" height="96.8" style="fill:#b7b7b7"/><rect x="614.7" y="1147.1" width="3.5" height="96.8" style="fill:#b7b7b7"/><rect x="634.1" y="1147.1" width="3.5" height="96.8" style="fill:#b7b7b7"/><rect x="653.6" y="1147.1" width="3.5" height="96.8" style="fill:#b7b7b7"/><rect x="674.6" y="1147.1" width="3.5" height="96.8" style="fill:#b7b7b7"/><polygon points="678 1244.2 674.8 1242.7 696.4 1196.9 674.7 1147.8 677.9 1146.4 700.3 1196.9 678 1244.2" style="fill:#b7b7b7"/><polygon points="531.1 1366.7 511.6 1319.2 532.7 1269.1 535.9 1270.4 515.4 1319.2 534.4 1365.4 531.1 1366.7" style="fill:#b7b7b7"/><polygon points="701.1 1269.8 635.4 1269.8 635.4 1266.2 697.6 1266.2 697.6 1245.7 638.3 1245.7 638.3 1242.2 701.1 1242.2 701.1 1269.8" style="fill:#b7b7b7"/><rect x="501.53" y="1266.36" width="3.5" height="55" transform="translate(-450.52 285.09) rotate(-22.14)" style="fill:#b7b7b7"/><rect x="615.6" y="1267" width="3.5" height="100.8" style="fill:#b7b7b7"/><rect x="573.6" y="1267" width="3.5" height="100.8" style="fill:#b7b7b7"/><rect x="594.6" y="1267" width="3.5" height="100.8" style="fill:#b7b7b7"/><rect x="552.6" y="1267" width="3.5" height="100.8" style="fill:#b7b7b7"/></g><g id="a-3"><polygon points="807.8 1147.5 807.8 1364.4 359 1364.4 359 1146.7 526.9 1146.7 540.9 1146.7 660.2 1146.7 699.4 1146.7 807.8 1147.5" style="fill:none"/></g></g></svg>