<svg version="1.0" id="Livello_1" xmlns="http://www.w3.org/2000/svg" xmlns:xlink="http://www.w3.org/1999/xlink" x="0px" y="0px"
	 viewBox="0 0 5500 1390.6" style="enable-background:new 0 0 5500 1390.6;" xml:space="preserve">
<pattern  y="1390.6" width="57" height="57" patternUnits="userSpaceOnUse" id="locale_tecnico_0000010758273601" viewBox="71.1 -128.1 57 57" style="overflow:visible;">
	<g>
		<rect x="71.1" y="-128.1" style="fill:none;" width="57" height="57"/>
		<g>
			<rect x="71.1" y="-128.1" style="fill:none;" width="57" height="57"/>
			<g>
				<rect x="71.1" y="-128.1" style="fill:none;" width="57" height="57"/>
				<rect x="71.1" y="-128.1" style="fill:none;" width="57" height="57"/>
				<rect x="71.1" y="-128.1" style="fill:none;" width="57" height="57"/>
				<rect x="71.1" y="-128.1" style="fill:none;" width="57" height="57"/>
				<rect x="71.1" y="-128.1" style="fill:none;" width="57" height="57"/>
				<rect x="71.1" y="-128.1" style="fill:none;" width="57" height="57"/>
				<rect x="71.1" y="-128.1" style="fill:none;" width="57" height="57"/>
				<rect x="71.1" y="-128.1" style="fill:none;" width="57" height="57"/>
				<rect x="71.1" y="-128.1" style="fill:none;" width="57" height="57"/>
				<rect x="71.1" y="-128.1" style="fill:none;" width="57" height="57"/>
				<rect x="71.1" y="-128.1" style="fill:none;" width="57" height="57"/>
				<rect x="71.1" y="-128.1" style="fill:none;" width="57" height="57"/>
				<rect x="71.1" y="-128.1" style="fill:none;" width="57" height="57"/>
				<rect x="124.1" y="-76.1" style="fill:#F2F2F2;" width="60" height="58"/>
				
					<line style="fill:none;stroke:#DDDDDD;stroke-width:20;stroke-linecap:square;stroke-linejoin:round;" x1="128.1" y1="-71.1" x2="185.1" y2="-14.1"/>
				<rect x="67.1" y="-76.1" style="fill:#F2F2F2;" width="60" height="58"/>
				
					<line style="fill:none;stroke:#DDDDDD;stroke-width:20;stroke-linecap:square;stroke-linejoin:round;" x1="71.1" y1="-71.1" x2="128.1" y2="-14.1"/>
				
					<line style="fill:none;stroke:#DDDDDD;stroke-width:20;stroke-linecap:square;stroke-linejoin:round;" x1="14.1" y1="-71.1" x2="71.1" y2="-14.1"/>
				<rect x="124.1" y="-133.1" style="fill:#F2F2F2;" width="60" height="58"/>
				
					<line style="fill:none;stroke:#DDDDDD;stroke-width:20;stroke-linecap:square;stroke-linejoin:round;" x1="128.1" y1="-128.1" x2="185.1" y2="-71.1"/>
				<rect x="67.1" y="-133.1" style="fill:#F2F2F2;" width="60" height="58"/>
				
					<line style="fill:none;stroke:#DDDDDD;stroke-width:20;stroke-linecap:square;stroke-linejoin:round;" x1="71.1" y1="-128.1" x2="128.1" y2="-71.1"/>
				
					<line style="fill:none;stroke:#DDDDDD;stroke-width:20;stroke-linecap:square;stroke-linejoin:round;" x1="14.1" y1="-128.1" x2="71.1" y2="-71.1"/>
				
					<line style="fill:none;stroke:#DDDDDD;stroke-width:20;stroke-linecap:square;stroke-linejoin:round;" x1="128.1" y1="-185.1" x2="185.1" y2="-128.1"/>
				
					<line style="fill:none;stroke:#DDDDDD;stroke-width:20;stroke-linecap:square;stroke-linejoin:round;" x1="71.1" y1="-185.1" x2="128.1" y2="-128.1"/>
				
					<line style="fill:none;stroke:#DDDDDD;stroke-width:20;stroke-linecap:square;stroke-linejoin:round;" x1="14.1" y1="-185.1" x2="71.1" y2="-128.1"/>
			</g>
		</g>
	</g>
</pattern>
<pattern  y="1390.6" width="57" height="57" patternUnits="userSpaceOnUse" id="locale_tecnico-2_00000088821013" viewBox="71.1 -128.1 57 57" style="overflow:visible;">
	<g>
		<rect x="71.1" y="-128.1" style="fill:none;" width="57" height="57"/>
		<g>
			<rect x="71.1" y="-128.1" style="fill:none;" width="57" height="57"/>
			<g>
				<rect x="71.1" y="-128.1" style="fill:none;" width="57" height="57"/>
				<rect x="71.1" y="-128.1" style="fill:none;" width="57" height="57"/>
				<rect x="71.1" y="-128.1" style="fill:none;" width="57" height="57"/>
				<rect x="71.1" y="-128.1" style="fill:none;" width="57" height="57"/>
				<rect x="71.1" y="-128.1" style="fill:none;" width="57" height="57"/>
				<rect x="71.1" y="-128.1" style="fill:none;" width="57" height="57"/>
				<rect x="71.1" y="-128.1" style="fill:none;" width="57" height="57"/>
				<rect x="71.1" y="-128.1" style="fill:none;" width="57" height="57"/>
				<rect x="71.1" y="-128.1" style="fill:none;" width="57" height="57"/>
				<rect x="71.1" y="-128.1" style="fill:none;" width="57" height="57"/>
				<rect x="71.1" y="-128.1" style="fill:none;" width="57" height="57"/>
				<rect x="71.1" y="-128.1" style="fill:none;" width="57" height="57"/>
				<rect x="71.1" y="-128.1" style="fill:none;" width="57" height="57"/>
				<rect x="124.1" y="-76.1" style="fill:#F2F2F2;" width="60" height="58"/>
				
					<line style="fill:none;stroke:#DDDDDD;stroke-width:20;stroke-linecap:square;stroke-linejoin:round;" x1="128.1" y1="-71.1" x2="185.1" y2="-14.1"/>
				<rect x="67.1" y="-76.1" style="fill:#F2F2F2;" width="60" height="58"/>
				
					<line style="fill:none;stroke:#DDDDDD;stroke-width:20;stroke-linecap:square;stroke-linejoin:round;" x1="71.1" y1="-71.1" x2="128.1" y2="-14.1"/>
				
					<line style="fill:none;stroke:#DDDDDD;stroke-width:20;stroke-linecap:square;stroke-linejoin:round;" x1="14.1" y1="-71.1" x2="71.1" y2="-14.1"/>
				<rect x="124.1" y="-133.1" style="fill:#F2F2F2;" width="60" height="58"/>
				
					<line style="fill:none;stroke:#DDDDDD;stroke-width:20;stroke-linecap:square;stroke-linejoin:round;" x1="128.1" y1="-128.1" x2="185.1" y2="-71.1"/>
				<rect x="67.1" y="-133.1" style="fill:#F2F2F2;" width="60" height="58"/>
				
					<line style="fill:none;stroke:#DDDDDD;stroke-width:20;stroke-linecap:square;stroke-linejoin:round;" x1="71.1" y1="-128.1" x2="128.1" y2="-71.1"/>
				
					<line style="fill:none;stroke:#DDDDDD;stroke-width:20;stroke-linecap:square;stroke-linejoin:round;" x1="14.1" y1="-128.1" x2="71.1" y2="-71.1"/>
				
					<line style="fill:none;stroke:#DDDDDD;stroke-width:20;stroke-linecap:square;stroke-linejoin:round;" x1="128.1" y1="-185.1" x2="185.1" y2="-128.1"/>
				
					<line style="fill:none;stroke:#DDDDDD;stroke-width:20;stroke-linecap:square;stroke-linejoin:round;" x1="71.1" y1="-185.1" x2="128.1" y2="-128.1"/>
				
					<line style="fill:none;stroke:#DDDDDD;stroke-width:20;stroke-linecap:square;stroke-linejoin:round;" x1="14.1" y1="-185.1" x2="71.1" y2="-128.1"/>
			</g>
		</g>
	</g>
</pattern>
<pattern  y="1390.6" width="57" height="57" patternUnits="userSpaceOnUse" id="locale_tecnico-3_00000046334959" viewBox="71.1 -128.1 57 57" style="overflow:visible;">
	<g>
		<rect x="71.1" y="-128.1" style="fill:none;" width="57" height="57"/>
		<g>
			<rect x="71.1" y="-128.1" style="fill:none;" width="57" height="57"/>
			<g>
				<rect x="71.1" y="-128.1" style="fill:none;" width="57" height="57"/>
				<rect x="71.1" y="-128.1" style="fill:none;" width="57" height="57"/>
				<rect x="71.1" y="-128.1" style="fill:none;" width="57" height="57"/>
				<rect x="71.1" y="-128.1" style="fill:none;" width="57" height="57"/>
				<rect x="71.1" y="-128.1" style="fill:none;" width="57" height="57"/>
				<rect x="71.1" y="-128.1" style="fill:none;" width="57" height="57"/>
				<rect x="71.1" y="-128.1" style="fill:none;" width="57" height="57"/>
				<rect x="71.1" y="-128.1" style="fill:none;" width="57" height="57"/>
				<rect x="71.1" y="-128.1" style="fill:none;" width="57" height="57"/>
				<rect x="71.1" y="-128.1" style="fill:none;" width="57" height="57"/>
				<rect x="71.1" y="-128.1" style="fill:none;" width="57" height="57"/>
				<rect x="71.1" y="-128.1" style="fill:none;" width="57" height="57"/>
				<rect x="71.1" y="-128.1" style="fill:none;" width="57" height="57"/>
				<rect x="124.1" y="-76.1" style="fill:#F2F2F2;" width="60" height="58"/>
				
					<line style="fill:none;stroke:#DDDDDD;stroke-width:20;stroke-linecap:square;stroke-linejoin:round;" x1="128.1" y1="-71.1" x2="185.1" y2="-14.1"/>
				<rect x="67.1" y="-76.1" style="fill:#F2F2F2;" width="60" height="58"/>
				
					<line style="fill:none;stroke:#DDDDDD;stroke-width:20;stroke-linecap:square;stroke-linejoin:round;" x1="71.1" y1="-71.1" x2="128.1" y2="-14.1"/>
				
					<line style="fill:none;stroke:#DDDDDD;stroke-width:20;stroke-linecap:square;stroke-linejoin:round;" x1="14.1" y1="-71.1" x2="71.1" y2="-14.1"/>
				<rect x="124.1" y="-133.1" style="fill:#F2F2F2;" width="60" height="58"/>
				
					<line style="fill:none;stroke:#DDDDDD;stroke-width:20;stroke-linecap:square;stroke-linejoin:round;" x1="128.1" y1="-128.1" x2="185.1" y2="-71.1"/>
				<rect x="67.1" y="-133.1" style="fill:#F2F2F2;" width="60" height="58"/>
				
					<line style="fill:none;stroke:#DDDDDD;stroke-width:20;stroke-linecap:square;stroke-linejoin:round;" x1="71.1" y1="-128.1" x2="128.1" y2="-71.1"/>
				
					<line style="fill:none;stroke:#DDDDDD;stroke-width:20;stroke-linecap:square;stroke-linejoin:round;" x1="14.1" y1="-128.1" x2="71.1" y2="-71.1"/>
				
					<line style="fill:none;stroke:#DDDDDD;stroke-width:20;stroke-linecap:square;stroke-linejoin:round;" x1="128.1" y1="-185.1" x2="185.1" y2="-128.1"/>
				
					<line style="fill:none;stroke:#DDDDDD;stroke-width:20;stroke-linecap:square;stroke-linejoin:round;" x1="71.1" y1="-185.1" x2="128.1" y2="-128.1"/>
				
					<line style="fill:none;stroke:#DDDDDD;stroke-width:20;stroke-linecap:square;stroke-linejoin:round;" x1="14.1" y1="-185.1" x2="71.1" y2="-128.1"/>
			</g>
		</g>
	</g>
</pattern>
<pattern  y="1390.6" width="57" height="57" patternUnits="userSpaceOnUse" id="locale_tecnico-4_00000173137819" viewBox="71.1 -128.1 57 57" style="overflow:visible;">
	<g>
		<rect x="71.1" y="-128.1" style="fill:none;" width="57" height="57"/>
		<g>
			<rect x="71.1" y="-128.1" style="fill:none;" width="57" height="57"/>
			<g>
				<rect x="71.1" y="-128.1" style="fill:none;" width="57" height="57"/>
				<rect x="71.1" y="-128.1" style="fill:none;" width="57" height="57"/>
				<rect x="71.1" y="-128.1" style="fill:none;" width="57" height="57"/>
				<rect x="71.1" y="-128.1" style="fill:none;" width="57" height="57"/>
				<rect x="71.1" y="-128.1" style="fill:none;" width="57" height="57"/>
				<rect x="71.1" y="-128.1" style="fill:none;" width="57" height="57"/>
				<rect x="71.1" y="-128.1" style="fill:none;" width="57" height="57"/>
				<rect x="71.1" y="-128.1" style="fill:none;" width="57" height="57"/>
				<rect x="71.1" y="-128.1" style="fill:none;" width="57" height="57"/>
				<rect x="71.1" y="-128.1" style="fill:none;" width="57" height="57"/>
				<rect x="71.1" y="-128.1" style="fill:none;" width="57" height="57"/>
				<rect x="71.1" y="-128.1" style="fill:none;" width="57" height="57"/>
				<rect x="71.1" y="-128.1" style="fill:none;" width="57" height="57"/>
				<rect x="124.1" y="-76.1" style="fill:#F2F2F2;" width="60" height="58"/>
				
					<line style="fill:none;stroke:#DDDDDD;stroke-width:20;stroke-linecap:square;stroke-linejoin:round;" x1="128.1" y1="-71.1" x2="185.1" y2="-14.1"/>
				<rect x="67.1" y="-76.1" style="fill:#F2F2F2;" width="60" height="58"/>
				
					<line style="fill:none;stroke:#DDDDDD;stroke-width:20;stroke-linecap:square;stroke-linejoin:round;" x1="71.1" y1="-71.1" x2="128.1" y2="-14.1"/>
				
					<line style="fill:none;stroke:#DDDDDD;stroke-width:20;stroke-linecap:square;stroke-linejoin:round;" x1="14.1" y1="-71.1" x2="71.1" y2="-14.1"/>
				<rect x="124.1" y="-133.1" style="fill:#F2F2F2;" width="60" height="58"/>
				
					<line style="fill:none;stroke:#DDDDDD;stroke-width:20;stroke-linecap:square;stroke-linejoin:round;" x1="128.1" y1="-128.1" x2="185.1" y2="-71.1"/>
				<rect x="67.1" y="-133.1" style="fill:#F2F2F2;" width="60" height="58"/>
				
					<line style="fill:none;stroke:#DDDDDD;stroke-width:20;stroke-linecap:square;stroke-linejoin:round;" x1="71.1" y1="-128.1" x2="128.1" y2="-71.1"/>
				
					<line style="fill:none;stroke:#DDDDDD;stroke-width:20;stroke-linecap:square;stroke-linejoin:round;" x1="14.1" y1="-128.1" x2="71.1" y2="-71.1"/>
				
					<line style="fill:none;stroke:#DDDDDD;stroke-width:20;stroke-linecap:square;stroke-linejoin:round;" x1="128.1" y1="-185.1" x2="185.1" y2="-128.1"/>
				
					<line style="fill:none;stroke:#DDDDDD;stroke-width:20;stroke-linecap:square;stroke-linejoin:round;" x1="71.1" y1="-185.1" x2="128.1" y2="-128.1"/>
				
					<line style="fill:none;stroke:#DDDDDD;stroke-width:20;stroke-linecap:square;stroke-linejoin:round;" x1="14.1" y1="-185.1" x2="71.1" y2="-128.1"/>
			</g>
		</g>
	</g>
</pattern>
<pattern  y="1390.6" width="57" height="57" patternUnits="userSpaceOnUse" id="locale_tecnico-5_00000066491676" viewBox="71.1 -128.1 57 57" style="overflow:visible;">
	<g>
		<rect x="71.1" y="-128.1" style="fill:none;" width="57" height="57"/>
		<g>
			<rect x="71.1" y="-128.1" style="fill:none;" width="57" height="57"/>
			<g>
				<rect x="71.1" y="-128.1" style="fill:none;" width="57" height="57"/>
				<rect x="71.1" y="-128.1" style="fill:none;" width="57" height="57"/>
				<rect x="71.1" y="-128.1" style="fill:none;" width="57" height="57"/>
				<rect x="71.1" y="-128.1" style="fill:none;" width="57" height="57"/>
				<rect x="71.1" y="-128.1" style="fill:none;" width="57" height="57"/>
				<rect x="71.1" y="-128.1" style="fill:none;" width="57" height="57"/>
				<rect x="71.1" y="-128.1" style="fill:none;" width="57" height="57"/>
				<rect x="71.1" y="-128.1" style="fill:none;" width="57" height="57"/>
				<rect x="71.1" y="-128.1" style="fill:none;" width="57" height="57"/>
				<rect x="71.1" y="-128.1" style="fill:none;" width="57" height="57"/>
				<rect x="71.1" y="-128.1" style="fill:none;" width="57" height="57"/>
				<rect x="71.1" y="-128.1" style="fill:none;" width="57" height="57"/>
				<rect x="71.1" y="-128.1" style="fill:none;" width="57" height="57"/>
				<rect x="124.1" y="-76.1" style="fill:#F2F2F2;" width="60" height="58"/>
				
					<line style="fill:none;stroke:#DDDDDD;stroke-width:20;stroke-linecap:square;stroke-linejoin:round;" x1="128.1" y1="-71.1" x2="185.1" y2="-14.1"/>
				<rect x="67.1" y="-76.1" style="fill:#F2F2F2;" width="60" height="58"/>
				
					<line style="fill:none;stroke:#DDDDDD;stroke-width:20;stroke-linecap:square;stroke-linejoin:round;" x1="71.1" y1="-71.1" x2="128.1" y2="-14.1"/>
				
					<line style="fill:none;stroke:#DDDDDD;stroke-width:20;stroke-linecap:square;stroke-linejoin:round;" x1="14.1" y1="-71.1" x2="71.1" y2="-14.1"/>
				<rect x="124.1" y="-133.1" style="fill:#F2F2F2;" width="60" height="58"/>
				
					<line style="fill:none;stroke:#DDDDDD;stroke-width:20;stroke-linecap:square;stroke-linejoin:round;" x1="128.1" y1="-128.1" x2="185.1" y2="-71.1"/>
				<rect x="67.1" y="-133.1" style="fill:#F2F2F2;" width="60" height="58"/>
				
					<line style="fill:none;stroke:#DDDDDD;stroke-width:20;stroke-linecap:square;stroke-linejoin:round;" x1="71.1" y1="-128.1" x2="128.1" y2="-71.1"/>
				
					<line style="fill:none;stroke:#DDDDDD;stroke-width:20;stroke-linecap:square;stroke-linejoin:round;" x1="14.1" y1="-128.1" x2="71.1" y2="-71.1"/>
				
					<line style="fill:none;stroke:#DDDDDD;stroke-width:20;stroke-linecap:square;stroke-linejoin:round;" x1="128.1" y1="-185.1" x2="185.1" y2="-128.1"/>
				
					<line style="fill:none;stroke:#DDDDDD;stroke-width:20;stroke-linecap:square;stroke-linejoin:round;" x1="71.1" y1="-185.1" x2="128.1" y2="-128.1"/>
				
					<line style="fill:none;stroke:#DDDDDD;stroke-width:20;stroke-linecap:square;stroke-linejoin:round;" x1="14.1" y1="-185.1" x2="71.1" y2="-128.1"/>
			</g>
		</g>
	</g>
</pattern>
<pattern  y="1390.6" width="57" height="57" patternUnits="userSpaceOnUse" id="locale_tecnico-6_00000135662748" viewBox="71.1 -128.1 57 57" style="overflow:visible;">
	<g>
		<rect x="71.1" y="-128.1" style="fill:none;" width="57" height="57"/>
		<g>
			<rect x="71.1" y="-128.1" style="fill:none;" width="57" height="57"/>
			<g>
				<rect x="71.1" y="-128.1" style="fill:none;" width="57" height="57"/>
				<rect x="71.1" y="-128.1" style="fill:none;" width="57" height="57"/>
				<rect x="71.1" y="-128.1" style="fill:none;" width="57" height="57"/>
				<rect x="71.1" y="-128.1" style="fill:none;" width="57" height="57"/>
				<rect x="71.1" y="-128.1" style="fill:none;" width="57" height="57"/>
				<rect x="71.1" y="-128.1" style="fill:none;" width="57" height="57"/>
				<rect x="71.1" y="-128.1" style="fill:none;" width="57" height="57"/>
				<rect x="71.1" y="-128.1" style="fill:none;" width="57" height="57"/>
				<rect x="71.1" y="-128.1" style="fill:none;" width="57" height="57"/>
				<rect x="71.1" y="-128.1" style="fill:none;" width="57" height="57"/>
				<rect x="71.1" y="-128.1" style="fill:none;" width="57" height="57"/>
				<rect x="71.1" y="-128.1" style="fill:none;" width="57" height="57"/>
				<rect x="71.1" y="-128.1" style="fill:none;" width="57" height="57"/>
				<rect x="124.1" y="-76.1" style="fill:#F2F2F2;" width="60" height="58"/>
				
					<line style="fill:none;stroke:#DDDDDD;stroke-width:20;stroke-linecap:square;stroke-linejoin:round;" x1="128.1" y1="-71.1" x2="185.1" y2="-14.1"/>
				<rect x="67.1" y="-76.1" style="fill:#F2F2F2;" width="60" height="58"/>
				
					<line style="fill:none;stroke:#DDDDDD;stroke-width:20;stroke-linecap:square;stroke-linejoin:round;" x1="71.1" y1="-71.1" x2="128.1" y2="-14.1"/>
				
					<line style="fill:none;stroke:#DDDDDD;stroke-width:20;stroke-linecap:square;stroke-linejoin:round;" x1="14.1" y1="-71.1" x2="71.1" y2="-14.1"/>
				<rect x="124.1" y="-133.1" style="fill:#F2F2F2;" width="60" height="58"/>
				
					<line style="fill:none;stroke:#DDDDDD;stroke-width:20;stroke-linecap:square;stroke-linejoin:round;" x1="128.1" y1="-128.1" x2="185.1" y2="-71.1"/>
				<rect x="67.1" y="-133.1" style="fill:#F2F2F2;" width="60" height="58"/>
				
					<line style="fill:none;stroke:#DDDDDD;stroke-width:20;stroke-linecap:square;stroke-linejoin:round;" x1="71.1" y1="-128.1" x2="128.1" y2="-71.1"/>
				
					<line style="fill:none;stroke:#DDDDDD;stroke-width:20;stroke-linecap:square;stroke-linejoin:round;" x1="14.1" y1="-128.1" x2="71.1" y2="-71.1"/>
				
					<line style="fill:none;stroke:#DDDDDD;stroke-width:20;stroke-linecap:square;stroke-linejoin:round;" x1="128.1" y1="-185.1" x2="185.1" y2="-128.1"/>
				
					<line style="fill:none;stroke:#DDDDDD;stroke-width:20;stroke-linecap:square;stroke-linejoin:round;" x1="71.1" y1="-185.1" x2="128.1" y2="-128.1"/>
				
					<line style="fill:none;stroke:#DDDDDD;stroke-width:20;stroke-linecap:square;stroke-linejoin:round;" x1="14.1" y1="-185.1" x2="71.1" y2="-128.1"/>
			</g>
		</g>
	</g>
</pattern>
<polygon id="background" style="fill:#F2F2F2;" points="0,603.8 1378.8,603.8 1378.8,0 4037.6,0 4037.6,614.2 5500,614.2 
	5500,1022.4 5178,1022.4 5178,1390.6 330.9,1390.6 330.9,1064.8 0.4,1064.8 "/>
<pattern  id="locale_tecnico_00000162323496925062183660000008277176301805181825_" xlink:href="#locale_tecnico_0000010758273601" patternTransform="matrix(-0.42 0 0 -0.42 -56799.5273 -37414.6016)">
</pattern>
<polygon id="locale_tecnico" style="fill:url(#locale_tecnico_00000162323496925062183660000008277176301805181825_);" points="
	359,730.9 359,632.1 924.9,632.1 924.9,730.9 897.7,730.9 883.7,730.9 388.6,730.9 374.6,730.9 "/>
<pattern  id="locale_tecnico-2_00000155131921766823753340000015186070139424694204_" xlink:href="#locale_tecnico-2_00000088821013" patternTransform="matrix(-0.42 0 0 -0.42 -56799.5273 -37414.6016)">
</pattern>
<rect id="locale_tecnico-2" x="821.8" y="1008.4" style="fill:url(#locale_tecnico-2_00000155131921766823753340000015186070139424694204_);" width="35.6" height="353.8"/>
<pattern  id="locale_tecnico-3_00000111894313756370170990000001133447758633932178_" xlink:href="#locale_tecnico-3_00000046334959" patternTransform="matrix(-0.42 0 0 -0.42 -56799.5273 -37414.6016)">
</pattern>
<polygon id="locale_tecnico-3" style="fill:url(#locale_tecnico-3_00000111894313756370170990000001133447758633932178_);" points="
	1396.6,994.4 1413.2,994.4 1414.2,994.4 1465.3,994.4 1476.4,994.4 1479.3,994.4 1842.9,994.4 1856.9,994.4 1974.9,994.4 
	1974.9,744.9 1476.4,744.9 1413.2,744.9 1105.1,744.9 1105.1,994.4 "/>
<pattern  id="locale_tecnico-4_00000114047023843145387920000001196890457568004501_" xlink:href="#locale_tecnico-4_00000173137819" patternTransform="matrix(-0.48 0 0 -0.51 -59220.8281 -44135.7461)">
</pattern>
<polygon id="locale_tecnico-4" style="fill:url(#locale_tecnico-4_00000114047023843145387920000001196890457568004501_);" points="
	2420.8,618.1 2434.8,618.1 2434.8,744.9 2072.1,744.9 2072.1,994.4 2417.5,994.4 2434.1,994.4 2434.8,994.4 2484.8,994.4 
	2488.2,994.4 2502.2,994.4 2876.8,994.4 2890.8,994.4 2912,994.4 2948.1,994.4 2985.1,994.4 3000.4,994.4 3413,994.4 3428.4,994.4 
	3454.7,994.4 3480.9,994.4 3510.2,994.4 3526.1,994.4 3787.3,994.4 3787.3,801.3 3787.3,697 3787.3,618.1 3787.3,603.2 
	3787.3,547.2 3686.7,547.2 3672.8,547.2 1765.3,547.2 1751.3,547.2 1544.7,547.2 1544.7,618.1 "/>
<pattern  id="locale_tecnico-5_00000047761812662202617930000016827678594024214960_" xlink:href="#locale_tecnico-5_00000066491676" patternTransform="matrix(-0.42 0 0 -0.42 -56799.5273 -37414.6016)">
</pattern>
<polygon id="locale_tecnico-5" style="fill:url(#locale_tecnico-5_00000047761812662202617930000016827678594024214960_);" points="
	4497,1362.2 4497,1008.4 4536.1,1008.4 4536.1,1109.3 4536.1,1123.3 4536.1,1362.2 "/>
<pattern  id="locale_tecnico-6_00000181059007956246230630000004570236415732467377_" xlink:href="#locale_tecnico-6_00000135662748" patternTransform="matrix(-0.42 0 0 -0.42 -56799.5273 -37414.6016)">
</pattern>
<polygon id="locale_tecnico-6" style="fill:url(#locale_tecnico-6_00000181059007956246230630000004570236415732467377_);" points="
	3966.5,730.9 3966.5,637.6 5150,637.6 5150,730.9 "/>
<g class="clickable" id="A2-3-19-2">
	<polygon style="fill:#F2F2F2;" points="3801.3,994.4 3801.3,744.9 3952.8,744.9 3966.7,744.9 3986.3,744.9 3986.3,994.4 
		3946.8,994.4 3932.8,994.4 	"/>
</g>
<g class="clickable" id="A2-3-19">
	<rect x="3804.9" y="459.3" style="fill:none;" width="141.9" height="265"/>
</g>
<g class="clickable" id="A2-3-18-D">
	<polygon style="fill:#DDDDDD;" points="2468.7,1362.2 2468.7,1210.8 2488.2,1210.8 2502.2,1210.8 2502.2,1196.8 2502.2,1008.4 
		2876.8,1008.4 2876.8,1196.8 2876.8,1210.8 2890.8,1210.8 2991.8,1210.8 2991.8,1362.2 	"/>
</g>
<g class="clickable" id="A2-3-18-C">
	<polygon style="fill:#DDDDDD;" points="3005.8,1362.2 3005.8,1210.8 3028.7,1210.8 3042.7,1210.8 3042.7,1196.8 3042.7,1008.4 
		3419,1008.4 3419,1196.8 3419,1210.8 3433.1,1210.8 3509,1210.8 3509,1362.2 	"/>
</g>
<g class="clickable" id="A2-3-18-B-2">
	<polygon style="fill:#DDDDDD;" points="3522.9,1362.2 3522.9,1210.8 3543.7,1210.8 3557.8,1210.8 3557.8,1196.8 3557.8,1008.4 
		3787.3,1008.4 3801.3,1008.4 3932.8,1008.4 3932.8,1196.8 3932.8,1210.8 3946.8,1210.8 4037.6,1210.8 4037.6,1362.2 	"/>
</g>
<g class="clickable" id="A2-3-18-B">
	<polygon style="fill:#F2F2F2;" points="1538.3,533.2 1538.3,450.5 2359.2,450.5 2375.7,450.5 2669.2,450.5 2685.8,450.5 
		3787.3,450.5 3787.3,533.2 	"/>
</g>
<g class="clickable" id="A2-3-18-A-2">
	<rect x="396.7" y="916.7" style="fill:none;" width="495.3" height="67.3"/>
</g>
<g class="clickable" id="A2-3-18-A">
	<polygon style="fill:#DDDDDD;" points="4051.6,1362.2 4051.6,1210.8 4098.3,1210.8 4112.2,1210.8 4112.2,1196.8 4112.2,1008.4 
		4483.1,1008.4 4483.1,1362.2 	"/>
</g>
<g class="clickable" id="A2-3-18">
	<rect x="954.6" y="632.1" style="fill:none;" width="566" height="92.3"/>
</g>
<g class="clickable" id="A2-3-17">
	<polygon style="fill:#F2F2F2;" points="3946.8,1196.8 3946.8,1008.4 3986.3,1008.4 4000.2,1008.4 4098.3,1008.4 4098.3,1196.8 
		4051.6,1196.8 4037.6,1196.8 	"/>
</g>
<g class="clickable" id="A2-3-16">
	<polygon style="fill:#F2F2F2;" points="3433.1,1196.8 3433.1,1008.4 3480.9,1008.4 3495,1008.4 3543.7,1008.4 3543.7,1196.8 
		3522.9,1196.8 3509,1196.8 	"/>
</g>
<g class="clickable" id="A2-3-15">
	<polygon style="fill:#F2F2F2;" points="2890.8,1196.8 2890.8,1008.4 2948.1,1008.4 2962.1,1008.4 3028.7,1008.4 3028.7,1196.8 
		3005.8,1196.8 2991.8,1196.8 	"/>
</g>
<g class="clickable" id="A2-3-14">
	<polygon style="fill:#F2F2F2;" points="2377.9,1196.8 2377.9,1008.4 2420.8,1008.4 2434.8,1008.4 2488.2,1008.4 2488.2,1196.8 
		2468.7,1196.8 2454.7,1196.8 	"/>
</g>
<g class="clickable" id="A2-3-13">
	<rect x="871.4" y="1008.4" style="fill:#F2F2F2;" width="83.2" height="353.8"/>
</g>
<g class="clickable" id="A2-3-12-2">
	<polygon style="fill:#F2F2F2;" points="1856.9,1196.8 1856.9,1131.8 1974.9,1131.8 1974.9,1196.8 1901.5,1196.8 1887.5,1196.8 	"/>
</g>
<g class="clickable" id="A2-3-12">
	<rect x="1856.9" y="1008.4" style="fill:#F2F2F2;" width="117.9" height="109.4"/>
</g>
<g class="clickable" id="A2-3-11">
	<polygon style="fill:#F2F2F2;" points="1350,1196.8 1350,1008.4 1399.2,1008.4 1413.2,1008.4 1465.3,1008.4 1465.3,1196.8 
		1390.3,1196.8 1376.3,1196.8 	"/>
</g>
<g class="clickable" id="A2-3-10">
	<polygon style="fill:#F2F2F2;" points="359,1036.8 359,1008.4 374.6,1008.4 388.6,1008.4 526.9,1008.4 526.9,1130.6 359,1130.6 
		359,1050.8 	"/>
</g>
<g class="clickable" id="A2-3-06">
	<rect x="4822.8" y="1008.4" style="fill:#F2F2F2;" width="131.1" height="122.6"/>
</g>
<g class="clickable" id="A2-3-05-E">
	<polygon style="fill:#DDDDDD;" points="1918.5,1362.2 1918.5,1210.8 1974.9,1210.8 1988.8,1210.8 1988.8,1196.8 1988.8,1131.8 
		1988.8,1117.8 1988.8,1008.4 2058,1008.4 2072.1,1008.4 2363.9,1008.4 2363.9,1196.8 2363.9,1210.8 2377.9,1210.8 2454.7,1210.8 
		2454.7,1362.2 	"/>
</g>
<g class="clickable" id="A2-3-05-D">
	<polygon style="fill:#DDDDDD;" points="1408.1,1362.2 1408.1,1210.8 1465.3,1210.8 1479.3,1210.8 1479.3,1196.8 1479.3,1008.4 
		1842.9,1008.4 1842.9,1117.8 1842.9,1131.8 1842.9,1196.8 1842.9,1210.8 1856.9,1210.8 1887.5,1210.8 1901.5,1210.8 1904.4,1210.8 
		1904.4,1362.2 1901.5,1362.2 1887.5,1362.2 	"/>
</g>
<g class="clickable" id="A2-3-05-C">
	<polygon style="fill:#DDDDDD;" points="968.5,1362.2 968.5,1008.4 1091.2,1008.4 1105.1,1008.4 1336,1008.4 1336,1196.8 
		1336,1210.8 1350,1210.8 1376.3,1210.8 1390.3,1210.8 1394.1,1210.8 1394.1,1362.2 1390.3,1362.2 1376.3,1362.2 	"/>
</g>
<g class="clickable" id="A2-3-05-B">
	<polygon style="fill:#DDDDDD;" points="28.4,637 28.4,632.1 344.9,632.1 344.9,730.9 344.9,744.9 359,744.9 374.6,744.9 
		374.6,896.4 374.6,910.4 374.6,994.4 359,994.4 344.9,994.4 344.9,1008.4 344.9,1036.8 28.4,1036.8 	"/>
</g>
<g class="clickable" id="A2-3-05-A">
	<rect x="388.6" y="744.9" style="fill:#DDDDDD;" width="495.1" height="151.5"/>
</g>
<g class="clickable" id="A2-3-04-D">
	<rect x="4210.9" y="745" style="fill:#F2F2F2;" width="475.8" height="139.3"/>
</g>
<g class="clickable" id="A2-3-04-C">
	<rect x="4700.7" y="745" style="fill:#F2F2F2;" width="175.3" height="139.3"/>
</g>
<g class="clickable" id="A2-3-04-B">
	<rect x="4889.5" y="745" style="fill:#F2F2F2;" width="260.5" height="139.3"/>
</g>
<g class="clickable" id="A2-3-04-A">
	<rect x="5165.9" y="637.6" style="fill:#F2F2F2;" width="305.3" height="356.8"/>
</g>
<g class="clickable" id="A2-3-03-H">
	<rect x="1406.8" y="23.4" style="fill:#DDDDDD;" width="152.5" height="413.2"/>
</g>
<g class="clickable" id="A2-3-03-G">
	<rect x="1573.3" y="23.4" style="fill:#DDDDDD;" width="178" height="413.2"/>
</g>
<g class="clickable" id="A2-3-03-F">
	<polygon style="fill:#DDDDDD;" points="1765.3,436.5 1765.3,23.4 2461.5,23.4 2461.5,210.3 2461.5,224.4 2461.5,436.5 	"/>
</g>
<g class="clickable" id="A2-3-03-E">
	<rect x="2475.5" y="23.4" style="fill:#DDDDDD;" width="249" height="187"/>
</g>
<g class="clickable" id="A2-3-03-D">
	<rect x="2475.5" y="224.4" style="fill:#DDDDDD;" width="249" height="212.1"/>
</g>
<g class="clickable" id="A2-3-03-C">
	<polygon style="fill:#DDDDDD;" points="2738.6,210.3 2738.6,23.4 3672.8,23.4 3672.8,436.5 2738.6,436.5 2738.6,224.4 	"/>
</g>
<g class="clickable" id="A2-3-03-B">
	<rect x="3686.7" y="23.4" style="fill:#DDDDDD;" width="173.5" height="413.2"/>
</g>
<g class="clickable" id="A2-3-03-A">
	<polygon style="fill:#DDDDDD;" points="3874.2,436.5 3874.2,23.4 3981.6,23.4 3995.6,23.4 4009.6,23.4 4009.6,436.5 	"/>
</g>
<g class="clickable" id="A2-3-01-C">
	<rect x="902.4" y="750.5" style="fill:none;" width="181.1" height="233.4"/>
</g>
<rect x="2140.8" y="436.5" style="fill:#B7B7B7;" width="148.9" height="14"/>
<rect x="3098.3" y="436.5" style="fill:#B7B7B7;" width="466.3" height="14"/>
<path style="fill:#B7B7B7;" d="M4037.6,614.2V0H1378.8v603.8H0.4v460.9l28,0.1h302.5v325.8H5178v-368.2h322V614.2H4037.6z
	 M5150,637.6V731H3966.6v-93.4H5150z M359,632.1h565.9V731H359V632.1z M857.4,1362.2h-35.7v-353.8h35.7V1362.2z M4536.1,1362.1H4497
	v-353.8h39l0.1,101V1362.1z M5471.2,994.4h-404.3v14h82.8V1131h-182v-11.4h-14v11.4h-131.1v-122.6H4954v60.3h14v-74.2h-161.2v14h2.1
	V1145H5150v217.2h-449.3v-353.9h16.1v-14h-30.1v367.8h-136.6V994.4h-351.8v14H4483v353.8h-431.5v-67.8h-14v67.9H3523v-67.9h-14v67.9
	h-503.1v-67.9h-14v67.9h-523.1v-67.9h-14v67.9h-536.2v-67.9h-14v67.9h-496.4v-67.9h-14v67.9H968.5v-64h-14v64h-83.1v-353.8h83.2
	v237.2h14v-237.2h8.1v-14H804.4v14h3.4v353.8H359v-217.7h341.5v-14H540.9v-122.2h172.7v-14H460.8v14H527v122.2H359v-122.2h52.6v-14
	h-22.9v-7.2h-14v7.2H345v42.4H28.4l0.1-404.7h316.4v112.8h29.7v182.5h14v-17h509.1V817h-14v79.4H388.6V744.9h495.1v12.3h14v-12.3
	h41.2V632.1h467.9V450.5h90.8v-14h-90.8V23.4h152.5v413.1h-1.9v14h17.8v-14h-1.9V23.3h178v413.1H1635v14h116.2v3.4h14v-3.4h303.3
	v-14h-303.4V23.3h696.2v413.1h-66.1v14h221.4v-14h-141.3v-212h178.2v-14h-178.2v-187h249v187h-2.1v14h2.1v212.1h-2.1v14h299.9v-14
	h-283.8V23.3h934.2v413.1h-4.2v14h4.2v2.1h14v-2.1h116.6v-14h-116.6V23.3H3860v413.1h-2.1v14h18.3v-14h-2.1V23.3h135.3v413.1h-78.5
	v14h78.4v173.1h-56.9V731h-25.9v14h59.4v7.7h14V745h197.8v152.5h398.9v-13.2h-385.7V745h475.8v139.3h-21.8v13.2h123.8v-13.2h-88.8
	V745h177v139.3h-20v13.2h77.9v-13.2H4890V745h260.4v139.3H5003v13.2h147.4v38.1h13.2v-216l0,0v-81.9h307.6V994.4z"/>
<path style="fill:#B7B7B7;" d="M4000.2,859h-13.8v135.3h-185V744.9h22.5V731h-22.5V533.2h-114.5v-2.5h-14v2.5H1765.3v-1.7h-14v1.7
	h-220.6V731h-439.5v263.4h-44.1v14H1336v202.4h58.1v11.4h14v-11.4h8.1v-14H1350v-188.4h115.4v188.4h-3.8v14h17.8v-202.3H1843v202.3
	h61.5v11.4h14v-11.4h70.4v-16.6h-14.1v2.5H1857v-64.9h59v-14h-59v-109.5h117.9v109.5h-13.6v14h13.6v17.4h14v-140.9h5.1v-14h-5.1V731
	h-444.4v-98.9h876.2V731H2058v263.4h-6.8v14H2364v202.4h16.6v-14h-2.6v-188.4h110.3v188.4H2431v14h23.7v11.4h14v-11.4h33.5v-202.3
	h374.6v202.3h19.1v-14h-5.1v-188.4h137.9v188.3h-82.3v14h45.4v11.4h14v-11.4h36.9v-202.3H3419v202.3h16.1v-14h-2.1v-188.4h110.7
	v188.3h-62.8v14h28v11.4h14v-11.4h34.8v-202.3h375v202.3h16.2v-14h-2.1v-188.4h151.4v188.3h-103.5v14h42.8v11.4h14v-11.4h60.7
	v-202.3h17.9v-14h-129.9L4000.2,859L4000.2,859z M1974.8,744.9v249.5h-869.7V744.9H1974.8z M3787.3,994.4H2072.1V744.9h362.7V618.1
	h-890.1v-70.9h2242.6L3787.3,994.4L3787.3,994.4z"/>
<g class="clickable" id="A2-3-STAIR-F">
	<path style="fill:#B7B7B7;" d="M2293.6,737.3h-121.9V630.2h143.1v3.5h-21.1L2293.6,737.3L2293.6,737.3z M2175.2,733.8h114.9V633.7
		h-114.9V733.8z"/>
	<rect x="2173.1" y="682" style="fill:#B7B7B7;" width="117.9" height="3.5"/>
	<polygon style="fill:#B7B7B7;" points="2269.7,736.3 2266.5,734.9 2289.3,683.7 2266.5,632.6 2269.7,631.2 2293.2,683.7 	"/>
	<rect x="2195.3" y="631.9" style="fill:#B7B7B7;" width="3.5" height="103.7"/>
	<rect x="2219.2" y="631.9" style="fill:#B7B7B7;" width="3.5" height="103.7"/>
	<rect x="2243" y="631.9" style="fill:#B7B7B7;" width="3.5" height="103.7"/>
	
		<rect x="2270.8" y="659" transform="matrix(0.4108 -0.9117 0.9117 0.4108 752.538 2485.9897)" style="fill:#B7B7B7;" width="57.7" height="3.5"/>
	<rect x="2266.3" y="631.9" style="fill:#B7B7B7;" width="3.5" height="103.7"/>
	<path style="fill:#B7B7B7;" d="M1903.1,737.3h-365.7V630.2h363.9v1.2h1.8V737.3z M1540.9,733.8h358.7V633.7h-358.7L1540.9,733.8z"
		/>
	<rect x="1538.3" y="682" style="fill:#B7B7B7;" width="362.2" height="3.5"/>
	<polygon style="fill:#B7B7B7;" points="1879.2,736.3 1876,734.9 1898.8,683.7 1876,632.6 1879.2,631.2 1902.7,683.7 	"/>
	<rect x="1631" y="631.9" style="fill:#B7B7B7;" width="3.5" height="103.7"/>
	<rect x="1607.2" y="631.9" style="fill:#B7B7B7;" width="3.5" height="103.7"/>
	<rect x="1559.5" y="631.9" style="fill:#B7B7B7;" width="3.5" height="103.7"/>
	<rect x="1583.3" y="631.9" style="fill:#B7B7B7;" width="3.5" height="103.7"/>
	<rect x="1726.4" y="631.9" style="fill:#B7B7B7;" width="3.5" height="103.7"/>
	<rect x="1750.2" y="631.9" style="fill:#B7B7B7;" width="3.5" height="103.7"/>
	<rect x="1774.1" y="631.9" style="fill:#B7B7B7;" width="3.5" height="103.7"/>
	<rect x="1798" y="631.9" style="fill:#B7B7B7;" width="3.5" height="103.7"/>
	<rect x="1821.8" y="631.9" style="fill:#B7B7B7;" width="3.5" height="103.7"/>
	<rect x="1845.7" y="631.9" style="fill:#B7B7B7;" width="3.5" height="103.7"/>
	<rect x="1868.2" y="631.9" style="fill:#B7B7B7;" width="3.5" height="103.7"/>
	<rect x="1540" y="631.4" style="fill:none;" width="880.8" height="99.6"/>
</g>
<g class="clickable" id="A2-3-LIFT-D">
	<rect id="a-2" x="4550.1" y="994.4" style="fill:#F2F2F2;" width="136.6" height="367.8"/>
</g>
<g class="clickable" id="A2-3-STAIR-D">
	<polygon style="fill:#B7B7B7;" points="5152.7,1366.6 4812,1366.6 4812,1263.9 5038.4,1263.9 5038.4,1243.6 4871.9,1243.6 
		4871.9,1143.2 5152.7,1143.2 5152.7,1146.7 4875.4,1146.7 4875.4,1240 5041.9,1240 5041.9,1267.4 4815.5,1267.4 4815.5,1363.1 
		5152.7,1363.1 	"/>
	<polygon style="fill:#B7B7B7;" points="5088.4,1318.7 4814.2,1318.7 4814.2,1315.2 5084.9,1315.2 5084.9,1196.6 4873.1,1196.6 
		4873.1,1193.1 5088.4,1193.1 	"/>
	<rect x="4994.1" y="1264.8" style="fill:#B7B7B7;" width="3.5" height="100.8"/>
	<rect x="5015.1" y="1264.8" style="fill:#B7B7B7;" width="3.5" height="100.8"/>
	<rect x="5035.1" y="1264.8" style="fill:#B7B7B7;" width="3.5" height="100.8"/>
	<rect x="4973.6" y="1264.8" style="fill:#B7B7B7;" width="3.5" height="100.8"/>
	<rect x="5035.1" y="1145" style="fill:#B7B7B7;" width="3.5" height="96.8"/>
	<rect x="5015.1" y="1145" style="fill:#B7B7B7;" width="3.5" height="96.8"/>
	<rect x="4994.1" y="1145" style="fill:#B7B7B7;" width="3.5" height="96.8"/>
	<rect x="4973.6" y="1145" style="fill:#B7B7B7;" width="3.5" height="96.8"/>
	<rect x="4953.1" y="1145" style="fill:#B7B7B7;" width="3.5" height="96.8"/>
	<rect x="4933.1" y="1145" style="fill:#B7B7B7;" width="3.5" height="96.8"/>
	<rect x="4912.1" y="1145" style="fill:#B7B7B7;" width="3.5" height="96.8"/>
	<rect x="4891.6" y="1145" style="fill:#B7B7B7;" width="3.5" height="96.8"/>
	<polygon style="fill:#B7B7B7;" points="4891.4,1242 4872.2,1194.8 4891,1144.3 4894.3,1145.6 4876,1194.7 4894.7,1240.6 	"/>
	<polygon style="fill:#B7B7B7;" points="4978.5,1364.5 4975.3,1363.2 4993.9,1317.4 4973.8,1268.2 4977.1,1266.9 4997.6,1317.4 	"/>
	<polygon style="fill:#B7B7B7;" points="4874.4,1267.6 4808.6,1267.6 4808.6,1240 4873.3,1240 4873.3,1243.6 4812.2,1243.6 
		4812.2,1264.1 4874.4,1264.1 	"/>
	
		<rect x="4978.8" y="1290.9" transform="matrix(0.3782 -0.9257 0.9257 0.3782 1916.2213 5438.1924)" style="fill:#B7B7B7;" width="55" height="3.5"/>
	<rect x="4892.8" y="1264.8" style="fill:#B7B7B7;" width="3.5" height="100.8"/>
	<rect x="4933.3" y="1264.8" style="fill:#B7B7B7;" width="3.5" height="100.8"/>
	<rect x="4913.1" y="1264.8" style="fill:#B7B7B7;" width="3.5" height="100.8"/>
	<rect x="4953.6" y="1264.8" style="fill:#B7B7B7;" width="3.5" height="100.8"/>
	<rect x="4872.5" y="1264.8" style="fill:#B7B7B7;" width="3.5" height="100.8"/>
	<rect x="4852.2" y="1264.8" style="fill:#B7B7B7;" width="3.5" height="100.8"/>
	<rect x="4831.9" y="1264.8" style="fill:#B7B7B7;" width="3.5" height="100.8"/>
	<g id="a-3">
		<polygon style="fill:none;" points="4808.9,1144.9 4822.8,1144.9 4954,1144.9 4967.9,1144.9 5150,1144.9 5150,1362.2 
			4700.7,1362.2 4700.7,1144.4 		"/>
	</g>
</g>
<g class="clickable" id="A2-3-LIFT-C">
	<rect id="a" x="540.9" y="1008.4" style="fill:#F2F2F2;" width="158.4" height="122.2"/>
</g>
<g class="clickable" id="A2-3-STAIR-C">
	<g id="scale">
		<polygon style="fill:#B7B7B7;" points="697.7,1366.6 357,1366.6 357,1363.1 694.2,1363.1 694.2,1267.4 467.9,1267.4 467.9,1240 
			634.4,1240 634.4,1146.7 357,1146.7 357,1143.2 637.9,1143.2 637.9,1243.6 471.4,1243.6 471.4,1263.9 697.7,1263.9 		"/>
		<polygon style="fill:#B7B7B7;" points="695.6,1318.7 421.4,1318.7 421.4,1193.1 636.6,1193.1 636.6,1196.6 424.9,1196.6 
			424.9,1315.2 695.6,1315.2 		"/>
		<rect x="512" y="1264.8" style="fill:#B7B7B7;" width="3.5" height="100.8"/>
		<rect x="491" y="1264.8" style="fill:#B7B7B7;" width="3.5" height="100.8"/>
		<rect x="471" y="1264.8" style="fill:#B7B7B7;" width="3.5" height="100.8"/>
		<rect x="532.5" y="1264.8" style="fill:#B7B7B7;" width="3.5" height="100.8"/>
		<rect x="471" y="1145" style="fill:#B7B7B7;" width="3.5" height="96.8"/>
		<rect x="491" y="1145" style="fill:#B7B7B7;" width="3.5" height="96.8"/>
		<rect x="512" y="1145" style="fill:#B7B7B7;" width="3.5" height="96.8"/>
		<rect x="532.5" y="1145" style="fill:#B7B7B7;" width="3.5" height="96.8"/>
		<rect x="553.1" y="1145" style="fill:#B7B7B7;" width="3.5" height="96.8"/>
		<rect x="573.1" y="1145" style="fill:#B7B7B7;" width="3.5" height="96.8"/>
		<rect x="594.2" y="1145" style="fill:#B7B7B7;" width="3.5" height="96.8"/>
		<rect x="614.7" y="1145" style="fill:#B7B7B7;" width="3.5" height="96.8"/>
		<polygon style="fill:#B7B7B7;" points="618.2,1242 615,1240.6 633.7,1194.7 615.4,1145.6 618.7,1144.3 637.5,1194.8 		"/>
		<polygon style="fill:#B7B7B7;" points="531.1,1364.5 512,1317.4 532.7,1266.9 535.9,1268.2 515.8,1317.4 534.4,1363.2 		"/>
		<polygon style="fill:#B7B7B7;" points="701.1,1267.6 635.4,1267.6 635.4,1264.1 697.6,1264.1 697.6,1243.6 636.4,1243.6 
			636.4,1240 701.1,1240 		"/>
		
			<rect x="501.8" y="1264.5" transform="matrix(0.9258 -0.378 0.378 0.9258 -451.015 286.2014)" style="fill:#B7B7B7;" width="3.5" height="55"/>
		<rect x="613.5" y="1264.8" style="fill:#B7B7B7;" width="3.5" height="100.8"/>
		<rect x="572.9" y="1264.8" style="fill:#B7B7B7;" width="3.5" height="100.8"/>
		<rect x="593.2" y="1264.8" style="fill:#B7B7B7;" width="3.5" height="100.8"/>
		<rect x="552.6" y="1264.8" style="fill:#B7B7B7;" width="3.5" height="100.8"/>
		<rect x="633.7" y="1264.8" style="fill:#B7B7B7;" width="3.5" height="100.8"/>
		<rect x="654" y="1264.8" style="fill:#B7B7B7;" width="3.5" height="100.8"/>
		<rect x="674.3" y="1264.8" style="fill:#B7B7B7;" width="3.5" height="100.8"/>
	</g>
	<g id="a-4">
		<polygon style="fill:none;" points="807.8,1145.3 807.8,1362.2 359,1362.2 359,1144.5 526.9,1144.5 540.9,1144.5 660.2,1144.5 
			674.1,1144.5 700.4,1144.5 		"/>
	</g>
</g>
</svg>