<svg id="Livello_1" data-name="Livello 1" xmlns="http://www.w3.org/2000/svg" xmlns:xlink="http://www.w3.org/1999/xlink" viewBox="0 0 5500 2479.09"><defs><pattern id="locale_tecnico_6_" data-name="locale tecnico 6 " width="57" height="57" patternTransform="translate(-18305.41 -6996.74) rotate(180) scale(0.42)" patternUnits="userSpaceOnUse" viewBox="0 0 57 57"><rect width="57" height="57" style="fill:none"/><rect width="57" height="57" style="fill:none"/><rect width="57" height="57" style="fill:none"/><rect width="57" height="57" style="fill:none"/><rect width="57" height="57" style="fill:none"/><rect width="57" height="57" style="fill:none"/><rect width="57" height="57" style="fill:none"/><rect width="57" height="57" style="fill:none"/><rect width="57" height="57" style="fill:none"/><rect x="53" y="52" width="60" height="58" style="fill:#f2f2f2"/><line x1="57" y1="57" x2="114" y2="114" style="fill:none;stroke:#ddd;stroke-linecap:square;stroke-linejoin:round;stroke-width:20px"/><rect x="-4" y="52" width="60" height="58" style="fill:#f2f2f2"/><line y1="57" x2="57" y2="114" style="fill:none;stroke:#ddd;stroke-linecap:square;stroke-linejoin:round;stroke-width:20px"/><line x1="-57" y1="57" y2="114" style="fill:none;stroke:#ddd;stroke-linecap:square;stroke-linejoin:round;stroke-width:20px"/><rect x="53" y="-5" width="60" height="58" style="fill:#f2f2f2"/><line x1="57" x2="114" y2="57" style="fill:none;stroke:#ddd;stroke-linecap:square;stroke-linejoin:round;stroke-width:20px"/><rect x="-4" y="-5" width="60" height="58" style="fill:#f2f2f2"/><line x2="57" y2="57" style="fill:none;stroke:#ddd;stroke-linecap:square;stroke-linejoin:round;stroke-width:20px"/><line x1="-57" y2="57" style="fill:none;stroke:#ddd;stroke-linecap:square;stroke-linejoin:round;stroke-width:20px"/><line x1="57" y1="-57" x2="114" style="fill:none;stroke:#ddd;stroke-linecap:square;stroke-linejoin:round;stroke-width:20px"/><line y1="-57" x2="57" style="fill:none;stroke:#ddd;stroke-linecap:square;stroke-linejoin:round;stroke-width:20px"/><line x1="-57" y1="-57" style="fill:none;stroke:#ddd;stroke-linecap:square;stroke-linejoin:round;stroke-width:20px"/></pattern><pattern id="locale_tecnico-4_1_" data-name="locale tecnico-4 1 " width="57" height="57" patternTransform="translate(-19112.04 -9568.13) rotate(180) scale(0.48 0.51)" patternUnits="userSpaceOnUse" viewBox="0 0 57 57"><rect width="57" height="57" style="fill:none"/><rect width="57" height="57" style="fill:none"/><rect width="57" height="57" style="fill:none"/><rect width="57" height="57" style="fill:none"/><rect width="57" height="57" style="fill:none"/><rect width="57" height="57" style="fill:none"/><rect width="57" height="57" style="fill:none"/><rect width="57" height="57" style="fill:none"/><rect width="57" height="57" style="fill:none"/><rect x="53" y="52" width="60" height="58" style="fill:#f2f2f2"/><line x1="57" y1="57" x2="114" y2="114" style="fill:none;stroke:#ddd;stroke-linecap:square;stroke-linejoin:round;stroke-width:20px"/><rect x="-4" y="52" width="60" height="58" style="fill:#f2f2f2"/><line y1="57" x2="57" y2="114" style="fill:none;stroke:#ddd;stroke-linecap:square;stroke-linejoin:round;stroke-width:20px"/><line x1="-57" y1="57" y2="114" style="fill:none;stroke:#ddd;stroke-linecap:square;stroke-linejoin:round;stroke-width:20px"/><rect x="53" y="-5" width="60" height="58" style="fill:#f2f2f2"/><line x1="57" x2="114" y2="57" style="fill:none;stroke:#ddd;stroke-linecap:square;stroke-linejoin:round;stroke-width:20px"/><rect x="-4" y="-5" width="60" height="58" style="fill:#f2f2f2"/><line x2="57" y2="57" style="fill:none;stroke:#ddd;stroke-linecap:square;stroke-linejoin:round;stroke-width:20px"/><line x1="-57" y2="57" style="fill:none;stroke:#ddd;stroke-linecap:square;stroke-linejoin:round;stroke-width:20px"/><line x1="57" y1="-57" x2="114" style="fill:none;stroke:#ddd;stroke-linecap:square;stroke-linejoin:round;stroke-width:20px"/><line y1="-57" x2="57" style="fill:none;stroke:#ddd;stroke-linecap:square;stroke-linejoin:round;stroke-width:20px"/><line x1="-57" y1="-57" style="fill:none;stroke:#ddd;stroke-linecap:square;stroke-linejoin:round;stroke-width:20px"/></pattern></defs><polygon id="background" points="0 603.83 1378.83 603.83 1378.83 0 4037.6 0 4037.6 614.23 5500 614.23 5500 1022.4 5177.99 1022.4 5177.99 1390.62 330.92 1390.62 330.92 1064.82 0.42 1064.82 0 603.83" style="fill:#f2f2f2"/><polygon id="locale_tecnico" data-name="locale tecnico" points="358.95 730.95 358.95 632.07 924.86 632.07 924.86 730.95 897.68 730.95 883.71 730.95 388.58 730.95 374.61 730.95 358.95 730.95" style="fill:url(#locale_tecnico_6_)"/><rect id="locale_tecnico-2" data-name="locale tecnico-2" x="821.76" y="1008.36" width="35.61" height="353.82" style="fill:url(#locale_tecnico_6_)"/><polygon id="locale_tecnico-3" data-name="locale tecnico-3" points="1396.6 994.38 1413.17 994.38 1414.22 994.38 1465.35 994.38 1476.38 994.38 1479.33 994.38 1842.91 994.38 1856.95 994.38 1974.87 994.38 1974.87 744.92 1476.38 744.92 1413.17 744.92 1105.14 744.92 1105.14 994.38 1396.6 994.38" style="fill:url(#locale_tecnico_6_)"/><polygon id="locale_tecnico-4" data-name="locale tecnico-4" points="2420.76 618.09 2434.81 618.09 2434.81 744.92 2072.07 744.92 2072.07 994.38 2417.53 994.38 2434.11 994.38 2434.81 994.38 2484.81 994.38 2488.25 994.38 2502.23 994.38 2876.84 994.38 2890.81 994.38 2912.02 994.38 2948.12 994.38 2985.06 994.38 3000.44 994.38 3413.04 994.38 3428.42 994.38 3454.69 994.38 3480.95 994.38 3510.17 994.38 3526.11 994.38 3787.3 994.38 3787.3 801.32 3787.3 696.96 3787.3 618.09 3787.3 603.2 3787.3 547.23 3686.73 547.23 3672.75 547.23 1765.3 547.23 1751.33 547.23 1544.71 547.23 1544.71 618.09 2420.76 618.09" style="fill:url(#locale_tecnico-4_1_)"/><polygon id="locale_tecnico-5" data-name="locale tecnico-5" points="4497.04 1362.18 4497.04 1008.36 4536.09 1008.36 4536.09 1109.35 4536.09 1123.33 4536.09 1362.18 4497.04 1362.18" style="fill:url(#locale_tecnico_6_)"/><polygon id="locale_tecnico-6" data-name="locale tecnico-6" points="3966.53 730.95 3966.53 637.61 5149.97 637.61 5149.97 730.95 3966.53 730.95" style="fill:url(#locale_tecnico_6_)"/><polygon id="boh" points="4098.28 994.38 4112.25 994.38 4483.07 994.38 4497.04 994.38 4536.09 994.38 4550.07 994.38 4550.07 1008.36 4550.07 1109.35 4686.66 1109.35 4686.66 1008.36 4686.66 994.38 4700.71 994.38 4808.86 994.38 4822.84 994.38 4953.96 994.38 4967.94 994.38 4967.94 1008.36 4967.94 1130.98 5149.97 1130.98 5149.97 1008.36 5067.24 1008.36 5067.24 994.38 5128.83 994.38 5149.97 994.38 5471.56 994.38 5471.56 637.61 5163.95 637.61 5162.4 744.92 5128.83 744.92 4700.71 744.92 4686.66 744.92 4000.24 744.92 4000.24 994.38 4098.28 994.38" style="fill:#f2f2f2"/><g class="clickable" id="A2-3-04-B" data-name="customclass A2-3-04-B"><rect id="a" x="540.91" y="1008.36" width="158.44" height="122.2" style="fill:#f2f2f2"/></g><g class="clickable" id="A2-3-19-D" data-name="customclass A2-3-19-D"><rect id="a-2" x="4550.07" y="994.38" width="136.6" height="367.79" style="fill:#f2f2f2"/></g><g class="clickable" id="A2-3-18-B" data-name="customclass A2-3-18-B"><polygon points="1538.32 533.25 1538.32 450.52 2359.17 450.52 2375.67 450.52 2669.24 450.52 2685.81 450.52 3787.3 450.52 3787.3 533.25 1538.32 533.25" style="fill:#f2f2f2"/></g><g class="clickable" id="A2-3-19" data-name="customclass A2-3-19"><rect x="3804.86" y="459.3" width="141.94" height="265.05" style="fill:none"/></g><g class="clickable" id="A2-3-19-2" data-name="customclass A2-3-19-2"><polygon points="3801.27 994.38 3801.27 744.92 3952.76 744.92 3966.74 744.92 3986.26 744.92 3986.26 994.38 3946.79 994.38 3932.82 994.38 3801.27 994.38" style="fill:#f2f2f2"/></g><g class="clickable" id="A2-3-18-_" data-name="customclass A2-3-18-*"><polygon points="3522.95 1362.18 3522.95 1210.76 3543.74 1210.76 3557.79 1210.76 3557.79 1196.79 3557.79 1008.36 3787.3 1008.36 3801.27 1008.36 3932.82 1008.36 3932.82 1196.79 3932.82 1210.76 3946.79 1210.76 4037.6 1210.76 4037.6 1362.18 3522.95 1362.18" style="fill:#ddd"/></g><g class="clickable" id="A2-3-_" data-name="customclass A2-3-*"><polygon points="4051.57 1362.18 4051.57 1210.76 4098.28 1210.76 4112.25 1210.76 4112.25 1196.79 4112.25 1008.36 4483.07 1008.36 4483.07 1362.18 4051.57 1362.18" style="fill:#ddd"/></g><g class="clickable" id="A2-3-18-A" data-name="customclass A2-3-18-A"><rect x="396.66" y="916.71" width="495.26" height="67.28" style="fill:none"/></g><g class="clickable" id="A2-3-01-C" data-name="customclass A2-3-01-C"><rect x="902.39" y="750.54" width="181.05" height="233.44" style="fill:none"/></g><g class="clickable" id="A2-3-17" data-name="customclass A2-3-17"><polygon points="3946.79 1196.79 3946.79 1008.36 3986.26 1008.36 4000.24 1008.36 4098.28 1008.36 4098.28 1196.79 4051.57 1196.79 4037.6 1196.79 3946.79 1196.79" style="fill:#f2f2f2"/></g><g class="clickable" id="A2-3-16" data-name="customclass A2-3-16"><polygon points="3433.06 1196.79 3433.06 1008.36 3480.95 1008.36 3495 1008.36 3543.74 1008.36 3543.74 1196.79 3522.95 1196.79 3508.98 1196.79 3433.06 1196.79" style="fill:#f2f2f2"/></g><g class="clickable" id="A2-3-15" data-name="customclass A2-3-15"><polygon points="2890.81 1196.79 2890.81 1008.36 2948.12 1008.36 2962.09 1008.36 3028.74 1008.36 3028.74 1196.79 3005.78 1196.79 2991.8 1196.79 2890.81 1196.79" style="fill:#f2f2f2"/></g><g class="clickable" id="A2-3-14" data-name="customclass A2-3-14"><polygon points="2377.92 1196.79 2377.92 1008.36 2420.76 1008.36 2434.81 1008.36 2488.25 1008.36 2488.25 1196.79 2468.73 1196.79 2454.68 1196.79 2377.92 1196.79" style="fill:#f2f2f2"/></g><g class="clickable" id="A2-3-13" data-name="customclass A2-3-13"><rect x="871.42" y="1008.36" width="83.15" height="353.82" style="fill:#f2f2f2"/></g><g class="clickable" id="A2-3-12" data-name="customclass A2-3-12"><rect x="1856.95" y="1008.36" width="117.92" height="109.42" style="fill:#f2f2f2"/></g><g class="clickable" id="A2-3-12-2" data-name="customclass A2-3-12-2"><polygon points="1856.95 1196.79 1856.95 1131.82 1974.87 1131.82 1974.87 1196.79 1901.48 1196.79 1887.5 1196.79 1856.95 1196.79" style="fill:#f2f2f2"/></g><g class="clickable" id="A2-3-11" data-name="customclass A2-3-11"><polygon points="1349.96 1196.79 1349.96 1008.36 1399.19 1008.36 1413.17 1008.36 1465.35 1008.36 1465.35 1196.79 1390.28 1196.79 1376.3 1196.79 1349.96 1196.79" style="fill:#f2f2f2"/></g><g class="clickable" id="A2-3-10" data-name="customclass A2-3-10"><polygon points="358.95 1036.8 358.95 1008.36 374.61 1008.36 388.58 1008.36 526.94 1008.36 526.94 1130.56 358.95 1130.56 358.95 1050.78 358.95 1036.8" style="fill:#f2f2f2"/></g><g class="clickable" id="A2-3-06" data-name="customclass A2-3-06"><rect x="4822.84" y="1008.36" width="131.12" height="122.62" style="fill:#f2f2f2"/></g><g class="clickable" id="A2-3-18-C" data-name="customclass A2-3-18-C"><polygon points="3005.78 1362.18 3005.78 1210.76 3028.74 1210.76 3042.72 1210.76 3042.72 1196.79 3042.72 1008.36 3419.01 1008.36 3419.01 1196.79 3419.01 1210.76 3433.06 1210.76 3508.98 1210.76 3508.98 1362.18 3005.78 1362.18" style="fill:#ddd"/></g><g class="clickable" id="A2-3-18-D" data-name="customclass A2-3-18-D"><polygon points="2468.73 1362.18 2468.73 1210.76 2488.25 1210.76 2502.23 1210.76 2502.23 1196.79 2502.23 1008.36 2876.84 1008.36 2876.84 1196.79 2876.84 1210.76 2890.81 1210.76 2991.8 1210.76 2991.8 1362.18 2468.73 1362.18" style="fill:#ddd"/></g><g class="clickable" id="A2-3-05-E" data-name="customclass A2-3-05-E"><polygon points="1918.47 1362.18 1918.47 1210.76 1974.87 1210.76 1988.85 1210.76 1988.85 1196.79 1988.85 1131.82 1988.85 1117.85 1988.85 1008.36 2058.02 1008.36 2072.07 1008.36 2363.95 1008.36 2363.95 1196.79 2363.95 1210.76 2377.92 1210.76 2454.68 1210.76 2454.68 1362.18 1918.47 1362.18" style="fill:#ddd"/></g><g class="clickable" id="A2-3-05-D" data-name="customclass A2-3-05-D"><polygon points="1408.11 1362.18 1408.11 1210.76 1465.35 1210.76 1479.33 1210.76 1479.33 1196.79 1479.33 1008.36 1842.91 1008.36 1842.91 1117.85 1842.91 1131.82 1842.91 1196.79 1842.91 1210.76 1856.95 1210.76 1887.5 1210.76 1901.48 1210.76 1904.43 1210.76 1904.43 1362.18 1901.48 1362.18 1887.5 1362.18 1408.11 1362.18" style="fill:#ddd"/></g><g class="clickable" id="A2-3-05-C" data-name="customclass A2-3-05-C"><polygon points="968.54 1362.18 968.54 1008.36 1091.16 1008.36 1105.14 1008.36 1335.99 1008.36 1335.99 1196.79 1335.99 1210.76 1349.96 1210.76 1376.3 1210.76 1390.28 1210.76 1394.07 1210.76 1394.07 1362.18 1390.28 1362.18 1376.3 1362.18 968.54 1362.18" style="fill:#ddd"/></g><g class="clickable" id="A2-3-01-D" data-name="customclass A2-3-01-D"><polygon points="28.44 636.98 28.44 632.07 344.9 632.07 344.9 730.95 344.9 744.92 358.95 744.92 374.61 744.92 374.61 896.41 374.61 910.39 374.61 994.38 358.95 994.38 344.9 994.38 344.9 1008.36 344.9 1036.8 28.44 1036.8 28.44 636.98" style="fill:#ddd"/></g><g class="clickable" id="A2-3-01-E" data-name="customclass A2-3-01-E"><rect x="388.58" y="744.92" width="495.12" height="151.49" style="fill:#ddd"/></g><g class="clickable" id="A2-3-03-H" data-name="customclass A2-3-03-H"><rect x="1406.85" y="23.39" width="152.54" height="413.16" style="fill:#ddd"/></g><g class="clickable" id="A2-3-03-G" data-name="customclass A2-3-03-G"><rect x="1573.29" y="23.39" width="177.96" height="413.16" style="fill:#ddd"/></g><g class="clickable" id="A2-3-03-F" data-name="customclass A2-3-03-F"><polygon points="1765.3 436.47 1765.3 23.39 2461.49 23.39 2461.49 210.33 2461.49 224.38 2461.49 436.47 1765.3 436.47" style="fill:#ddd"/></g><g class="clickable" id="A2-3-03-E" data-name="customclass A2-3-03-E"><rect x="2475.47" y="23.39" width="249.04" height="187.02" style="fill:#ddd"/></g><g class="clickable" id="A2-3-03-D" data-name="customclass A2-3-03-D"><rect x="2475.47" y="224.38" width="249.04" height="212.09" style="fill:#ddd"/></g><g class="clickable" id="A2-3-03-C" data-name="customclass A2-3-03-C"><polygon points="2738.55 210.33 2738.55 23.39 3672.75 23.39 3672.75 436.47 2738.55 436.47 2738.55 224.38 2738.55 210.33" style="fill:#ddd"/></g><g class="clickable" id="A2-3-03-B" data-name="customclass A2-3-03-B"><rect x="3686.73" y="23.39" width="173.54" height="413.16" style="fill:#ddd"/></g><g class="clickable" id="A2-3-03-A" data-name="customclass A2-3-03-A"><polygon points="3874.24 436.47 3874.24 23.39 3981.55 23.39 3995.6 23.39 4009.58 23.39 4009.58 436.47 3874.24 436.47" style="fill:#ddd"/></g><g class="clickable" id="A2-3-18-A-2" data-name="customclass A2-3-18-A"><path d="M2293.57,737.34H2171.66V630.17h143.05v3.51h-21.14Zm-118.4-3.51h114.89V633.68H2175.17Z" style="fill:#b7b7b7"/><rect x="2173.13" y="682" width="117.85" height="3.51" style="fill:#b7b7b7"/><polygon points="2269.68 736.3 2266.48 734.87 2289.33 683.75 2266.48 632.64 2269.68 631.21 2293.18 683.75 2269.68 736.3" style="fill:#b7b7b7"/><rect x="2195.32" y="631.92" width="3.51" height="103.66" style="fill:#b7b7b7"/><rect x="2219.2" y="631.92" width="3.51" height="103.66" style="fill:#b7b7b7"/><rect x="2243.01" y="631.92" width="3.51" height="103.66" style="fill:#b7b7b7"/><rect x="2273.96" y="655.66" width="57.77" height="3.51" transform="translate(757.22 2486.72) rotate(-65.74)" style="fill:#b7b7b7"/><rect x="2266.33" y="631.92" width="3.51" height="103.66" style="fill:#b7b7b7"/><path d="M1903.09,737.34H1537.41V630.17h363.93v1.19h1.75Zm-362.17-3.51h358.66V633.68H1540.92Z" style="fill:#b7b7b7"/><rect x="1538.32" y="682" width="362.18" height="3.51" style="fill:#b7b7b7"/><polygon points="1879.2 736.3 1876 734.87 1898.85 683.75 1876 632.64 1879.2 631.21 1902.7 683.75 1879.2 736.3" style="fill:#b7b7b7"/><rect x="1631.02" y="631.92" width="3.51" height="103.66" style="fill:#b7b7b7"/><rect x="1607.15" y="631.92" width="3.51" height="103.66" style="fill:#b7b7b7"/><rect x="1559.46" y="631.92" width="3.51" height="103.66" style="fill:#b7b7b7"/><rect x="1583.27" y="631.92" width="3.51" height="103.66" style="fill:#b7b7b7"/><rect x="1726.4" y="631.92" width="3.51" height="103.66" style="fill:#b7b7b7"/><rect x="1750.2" y="631.92" width="3.51" height="103.66" style="fill:#b7b7b7"/><rect x="1774.08" y="631.92" width="3.51" height="103.66" style="fill:#b7b7b7"/><rect x="1797.96" y="631.92" width="3.51" height="103.66" style="fill:#b7b7b7"/><rect x="1821.77" y="631.92" width="3.51" height="103.66" style="fill:#b7b7b7"/><rect x="1845.65" y="631.92" width="3.51" height="103.66" style="fill:#b7b7b7"/><rect x="1868.19" y="631.92" width="3.51" height="103.66" style="fill:#b7b7b7"/><rect x="1540.01" y="631.36" width="880.76" height="99.59" style="fill:none"/></g><g class="clickable" id="A2-3-05" data-name="customclass A2-3-05"><polygon points="5152.71 1366.6 4811.96 1366.6 4811.96 1263.86 5038.38 1263.86 5038.38 1243.56 4871.86 1243.56 4871.86 1143.2 5152.71 1143.2 5152.71 1146.71 4875.37 1146.71 4875.37 1240.05 5041.89 1240.05 5041.89 1267.37 4815.47 1267.37 4815.47 1363.09 5152.71 1363.09 5152.71 1366.6" style="fill:#b7b7b7"/><polygon points="5088.38 1318.7 4814.2 1318.7 4814.2 1315.19 5084.87 1315.19 5084.87 1196.64 4873.13 1196.64 4873.13 1193.13 5088.38 1193.13 5088.38 1318.7" style="fill:#b7b7b7"/><rect x="4994.13" y="1264.84" width="3.51" height="100.78" style="fill:#b7b7b7"/><rect x="5015.13" y="1264.84" width="3.51" height="100.78" style="fill:#b7b7b7"/><rect x="5035.15" y="1264.84" width="3.51" height="100.78" style="fill:#b7b7b7"/><rect x="4973.63" y="1264.84" width="3.51" height="100.78" style="fill:#b7b7b7"/><rect x="5035.15" y="1144.96" width="3.51" height="96.85" style="fill:#b7b7b7"/><rect x="5015.13" y="1144.96" width="3.51" height="96.85" style="fill:#b7b7b7"/><rect x="4994.13" y="1144.96" width="3.51" height="96.85" style="fill:#b7b7b7"/><rect x="4973.63" y="1144.96" width="3.51" height="96.85" style="fill:#b7b7b7"/><rect x="4953.12" y="1144.96" width="3.51" height="96.85" style="fill:#b7b7b7"/><rect x="4933.1" y="1144.96" width="3.51" height="96.85" style="fill:#b7b7b7"/><rect x="4912.1" y="1144.96" width="3.51" height="96.85" style="fill:#b7b7b7"/><rect x="4891.6" y="1144.96" width="3.51" height="96.85" style="fill:#b7b7b7"/><polygon points="4891.44 1241.97 4872.23 1194.78 4891 1144.34 4894.3 1145.57 4875.99 1194.72 4894.7 1240.65 4891.44 1241.97" style="fill:#b7b7b7"/><polygon points="4978.55 1364.52 4975.3 1363.2 4993.85 1317.44 4973.82 1268.24 4977.08 1266.91 4997.64 1317.44 4978.55 1364.52" style="fill:#b7b7b7"/><polygon points="4874.39 1267.58 4808.65 1267.58 4808.65 1240.05 4873.34 1240.05 4873.34 1243.56 4812.17 1243.56 4812.17 1264.07 4874.39 1264.07 4874.39 1267.58" style="fill:#b7b7b7"/><rect x="4978.64" y="1290.23" width="55" height="3.51" transform="translate(1917.18 5437.94) rotate(-67.78)" style="fill:#b7b7b7"/><rect x="4892.79" y="1264.84" width="3.51" height="100.78" style="fill:#b7b7b7"/><rect x="4933.31" y="1264.84" width="3.51" height="100.78" style="fill:#b7b7b7"/><rect x="4913.09" y="1264.84" width="3.51" height="100.78" style="fill:#b7b7b7"/><rect x="4953.61" y="1264.84" width="3.51" height="100.78" style="fill:#b7b7b7"/><rect x="4872.49" y="1264.84" width="3.51" height="100.78" style="fill:#b7b7b7"/><rect x="4852.2" y="1264.84" width="3.51" height="100.78" style="fill:#b7b7b7"/><rect x="4831.9" y="1264.84" width="3.51" height="100.78" style="fill:#b7b7b7"/><g id="a-3"><polygon points="4808.86 1144.95 4822.84 1144.95 4953.96 1144.95 4967.94 1144.95 5149.97 1144.95 5149.97 1362.18 4700.71 1362.18 4700.71 1144.39 4808.86 1144.95" style="fill:none"/></g></g><g class="clickable" id="A2-3-04-A" data-name="customclass A2-3-04-A"><g id="scale"><polygon points="697.74 1366.6 357.05 1366.6 357.05 1363.09 694.22 1363.09 694.22 1267.37 467.87 1267.37 467.87 1240.05 634.39 1240.05 634.39 1146.71 357.05 1146.71 357.05 1143.2 637.9 1143.2 637.9 1243.56 471.38 1243.56 471.38 1263.86 697.74 1263.86 697.74 1366.6" style="fill:#b7b7b7"/><polygon points="695.56 1318.7 421.38 1318.7 421.38 1193.13 636.57 1193.13 636.57 1196.64 424.89 1196.64 424.89 1315.19 695.56 1315.19 695.56 1318.7" style="fill:#b7b7b7"/><rect x="512.05" y="1264.84" width="3.51" height="100.78" style="fill:#b7b7b7"/><rect x="491.05" y="1264.84" width="3.51" height="100.78" style="fill:#b7b7b7"/><rect x="471.03" y="1264.84" width="3.51" height="100.78" style="fill:#b7b7b7"/><rect x="532.55" y="1264.84" width="3.51" height="100.78" style="fill:#b7b7b7"/><rect x="471.03" y="1144.96" width="3.51" height="96.85" style="fill:#b7b7b7"/><rect x="491.05" y="1144.96" width="3.51" height="96.85" style="fill:#b7b7b7"/><rect x="512.05" y="1144.96" width="3.51" height="96.85" style="fill:#b7b7b7"/><rect x="532.55" y="1144.96" width="3.51" height="96.85" style="fill:#b7b7b7"/><rect x="553.06" y="1144.96" width="3.51" height="96.85" style="fill:#b7b7b7"/><rect x="573.08" y="1144.96" width="3.51" height="96.85" style="fill:#b7b7b7"/><rect x="594.15" y="1144.96" width="3.51" height="96.85" style="fill:#b7b7b7"/><rect x="614.65" y="1144.96" width="3.51" height="96.85" style="fill:#b7b7b7"/><polygon points="618.25 1241.97 614.99 1240.65 633.7 1194.72 615.4 1145.57 618.69 1144.34 637.47 1194.78 618.25 1241.97" style="fill:#b7b7b7"/><polygon points="531.14 1364.52 512.05 1317.44 532.68 1266.91 535.94 1268.24 515.84 1317.44 534.39 1363.2 531.14 1364.52" style="fill:#b7b7b7"/><polygon points="701.11 1267.58 635.37 1267.58 635.37 1264.07 697.6 1264.07 697.6 1243.56 636.36 1243.56 636.36 1240.05 701.11 1240.05 701.11 1267.58" style="fill:#b7b7b7"/><rect x="501.79" y="1264.48" width="3.51" height="55" transform="translate(-450.99 286.18) rotate(-22.21)" style="fill:#b7b7b7"/><rect x="613.46" y="1264.84" width="3.51" height="100.78" style="fill:#b7b7b7"/><rect x="572.87" y="1264.84" width="3.51" height="100.78" style="fill:#b7b7b7"/><rect x="593.16" y="1264.84" width="3.51" height="100.78" style="fill:#b7b7b7"/><rect x="552.57" y="1264.84" width="3.51" height="100.78" style="fill:#b7b7b7"/><rect x="633.69" y="1264.84" width="3.51" height="100.78" style="fill:#b7b7b7"/><rect x="653.98" y="1264.84" width="3.51" height="100.78" style="fill:#b7b7b7"/><rect x="674.28" y="1264.84" width="3.51" height="100.78" style="fill:#b7b7b7"/></g><g id="a-4"><polygon points="807.79 1145.31 807.79 1362.18 358.95 1362.18 358.95 1144.53 526.94 1144.53 540.91 1144.53 660.16 1144.53 674.14 1144.53 700.4 1144.53 807.79 1145.31" style="fill:none"/></g></g><g id="walls"><rect x="2140.75" y="436.47" width="148.89" height="13.98" style="fill:#b7b7b7"/><rect x="3098.27" y="436.47" width="466.26" height="13.98" style="fill:#b7b7b7"/><path d="M28.44,1064.82H330.92v325.8H5178V1022.4h322V614.23H4037.6V0H1378.83V603.83H.42v460.92h28Zm829,297.36H821.76V1008.36h35.68Zm3678.65-252.83v252.83H4497V1008.36h39.05ZM5150,637.61V731H3966.74V637.61ZM359,632.07H924.86V731H359Zm-330.51,0H344.9V744.92h29.71V927.38h14v-17h509.1V817.05h-14v79.36H388.58V744.92H883.71v12.3h14v-12.3h41.16V632.07h467.94V450.52h90.81v-14h-90.81V23.39h152.54V436.47h-1.9v14h17.84v-14h-1.9V23.32h178V436.47H1635.1v14h116.23v3.37h14v-3.37h303.33v-14H1765.3V23.32h696.19V436.47h-66.15v14h221.43v-14h-141.3V224.38h178.17v-14H2475.47v-187h249v187h-2.11v14h2.11V436.47h-2.11v14h299.95v-14h-283.8V23.32h934.2V436.47h-4.21v14h4.21v2.11h14v-2.11h116.65v-14H3686.73V23.32h173.54V436.47h-2.11v14h18.26v-14h-2.11V23.32h135.34V436.47h-78.52v14h78.45V623.57h-56.89V731h-25.91v14h59.41v7.66h14v-7.66H5163.88V637.61h307.61V994.38H5067.17v14H5150V1131H4968v-11.45h-14V1131H4822.91V1008.36H4954v60.26h14V994.38H4806.76v14h2.11V1145H5150v217.22H4700.71V1008.36h16.15v-14h-30.12v367.8h-136.6V994.38H4198.36v14h284.71v353.82h-431.5v-67.85h-14v67.92H3523v-67.92h-14v67.92H3005.85v-67.92h-14v67.92H2468.73v-67.92h-14v67.92H1918.48v-67.92h-14v67.92H1408.11v-67.92h-14v67.92H968.54v-64h-14v64H871.41V1008.43h83.16V1245.6h14V1008.43h8.08v-14H804.42v14h3.37v353.82H359V1144.53H700.47v-14H540.91v-122.2h172.7v-14H460.78v14h66.16v122.2H359v-122.2h52.6v-14h-22.9v-7.23h-14v7.23H345v42.42H28.44Z" style="fill:#b7b7b7"/><path d="M1336,1008.36v202.4h58.08v11.45h14v-11.45h8.08v-14H1350V1008.36h115.39v188.36h-3.79v14h17.84V1008.43h363.58v202.33h61.52v11.45h14v-11.45h70.37v-16.57h-14.05v2.53H1857v-64.9h59v-14h-59V1008.36h117.92v109.49h-13.55v14h13.55v17.42h14V1008.36h5.05v-14h-5.05V731H1544.57V632.07h876.19V731H2058V994.38h-6.81v14H2364v202.4h16.57v-14H2378V1008.36h110.26v188.36h-57.31v14h23.74v11.45h14v-11.45h33.5V1008.43h374.6v202.33h19.11v-14h-5.06V1008.36h137.86v188.35h-82.31v14h45.37v11.45h14v-11.45h36.94V1008.43h376.29v202.33h16.15v-14H3433V1008.36h110.68v188.35h-62.79v14h28v11.45h14v-11.45h34.77V1008.43h375v202.33h16.16v-14h-2.11V1008.36h151.42v188.35H3994.62v14h42.84v11.45h14v-11.45h60.68V1008.43H4130v-14H4000.1V859.05h-13.84V994.38h-185V744.92h22.48V731h-22.48V533.25H3686.73v-2.53h-14v2.53H1765.3v-1.68h-14v1.68H1530.74V731h-439.5V994.38h-44.11v14Zm208.72-461.13H3787.3V994.38H2072.07V744.92h362.74V618.09h-890.1ZM1105.14,744.92h869.73V994.38H1105.14Z" style="fill:#b7b7b7"/></g><g class="clickable" id="A2-3-18" data-name="customclass A2-3-18"><rect x="954.57" y="632.07" width="565.98" height="92.28" style="fill:none"/></g></svg>