<svg version="1.0" id="Livello_1" xmlns="http://www.w3.org/2000/svg" xmlns:xlink="http://www.w3.org/1999/xlink" x="0px" y="0px"
	 viewBox="0 0 5500 786.6" style="enable-background:new 0 0 5500 786.6;" xml:space="preserve">
<pattern  y="786.6" width="57" height="57" patternUnits="userSpaceOnUse" id="locale_tecnico_0000009317915821" viewBox="71.1 -128.1 57 57" style="overflow:visible;">
	<g>
		<rect x="71.1" y="-128.1" style="fill:none;" width="57" height="57"/>
		<g>
			<rect x="71.1" y="-128.1" style="fill:none;" width="57" height="57"/>
			<g>
				<rect x="71.1" y="-128.1" style="fill:none;" width="57" height="57"/>
				<g>
					<rect x="71.1" y="-128.1" style="fill:none;" width="57" height="57"/>
					<rect x="71.1" y="-128.1" style="fill:none;" width="57" height="57"/>
					<rect x="71.1" y="-128.1" style="fill:none;" width="57" height="57"/>
					<rect x="71.1" y="-128.1" style="fill:none;" width="57" height="57"/>
					<rect x="71.1" y="-128.1" style="fill:none;" width="57" height="57"/>
					<rect x="71.1" y="-128.1" style="fill:none;" width="57" height="57"/>
					<rect x="71.1" y="-128.1" style="fill:none;" width="57" height="57"/>
					<rect x="71.1" y="-128.1" style="fill:none;" width="57" height="57"/>
					<rect x="71.1" y="-128.1" style="fill:none;" width="57" height="57"/>
					<rect x="71.1" y="-128.1" style="fill:none;" width="57" height="57"/>
					<rect x="71.1" y="-128.1" style="fill:none;" width="57" height="57"/>
					<rect x="71.1" y="-128.1" style="fill:none;" width="57" height="57"/>
					<rect x="71.1" y="-128.1" style="fill:none;" width="57" height="57"/>
					<rect x="71.1" y="-128.1" style="fill:none;" width="57" height="57"/>
					<rect x="71.1" y="-128.1" style="fill:none;" width="57" height="57"/>
					<rect x="71.1" y="-128.1" style="fill:none;" width="57" height="57"/>
					<rect x="71.1" y="-128.1" style="fill:none;" width="57" height="57"/>
					<rect x="71.1" y="-128.1" style="fill:none;" width="57" height="57"/>
					<rect x="124.1" y="-76.1" style="fill:#F2F2F2;" width="60" height="58"/>
					
						<line style="fill:none;stroke:#DDDDDD;stroke-width:20;stroke-linecap:square;stroke-linejoin:round;" x1="128.1" y1="-71.1" x2="185.1" y2="-14.1"/>
					<rect x="67.1" y="-76.1" style="fill:#F2F2F2;" width="60" height="58"/>
					
						<line style="fill:none;stroke:#DDDDDD;stroke-width:20;stroke-linecap:square;stroke-linejoin:round;" x1="71.1" y1="-71.1" x2="128.1" y2="-14.1"/>
					
						<line style="fill:none;stroke:#DDDDDD;stroke-width:20;stroke-linecap:square;stroke-linejoin:round;" x1="14.1" y1="-71.1" x2="71.1" y2="-14.1"/>
					<rect x="124.1" y="-133.1" style="fill:#F2F2F2;" width="60" height="58"/>
					
						<line style="fill:none;stroke:#DDDDDD;stroke-width:20;stroke-linecap:square;stroke-linejoin:round;" x1="128.1" y1="-128.1" x2="185.1" y2="-71.1"/>
					<rect x="67.1" y="-133.1" style="fill:#F2F2F2;" width="60" height="58"/>
					
						<line style="fill:none;stroke:#DDDDDD;stroke-width:20;stroke-linecap:square;stroke-linejoin:round;" x1="71.1" y1="-128.1" x2="128.1" y2="-71.1"/>
					
						<line style="fill:none;stroke:#DDDDDD;stroke-width:20;stroke-linecap:square;stroke-linejoin:round;" x1="14.1" y1="-128.1" x2="71.1" y2="-71.1"/>
					
						<line style="fill:none;stroke:#DDDDDD;stroke-width:20;stroke-linecap:square;stroke-linejoin:round;" x1="128.1" y1="-185.1" x2="185.1" y2="-128.1"/>
					
						<line style="fill:none;stroke:#DDDDDD;stroke-width:20;stroke-linecap:square;stroke-linejoin:round;" x1="71.1" y1="-185.1" x2="128.1" y2="-128.1"/>
					
						<line style="fill:none;stroke:#DDDDDD;stroke-width:20;stroke-linecap:square;stroke-linejoin:round;" x1="14.1" y1="-185.1" x2="71.1" y2="-128.1"/>
				</g>
			</g>
		</g>
	</g>
</pattern>
<pattern  y="786.6" width="57" height="57" patternUnits="userSpaceOnUse" id="locale_tecnico-2_00000137844624" viewBox="71.1 -128.1 57 57" style="overflow:visible;">
	<g>
		<rect x="71.1" y="-128.1" style="fill:none;" width="57" height="57"/>
		<g>
			<rect x="71.1" y="-128.1" style="fill:none;" width="57" height="57"/>
			<g>
				<rect x="71.1" y="-128.1" style="fill:none;" width="57" height="57"/>
				<g>
					<rect x="71.1" y="-128.1" style="fill:none;" width="57" height="57"/>
					<rect x="71.1" y="-128.1" style="fill:none;" width="57" height="57"/>
					<rect x="71.1" y="-128.1" style="fill:none;" width="57" height="57"/>
					<rect x="71.1" y="-128.1" style="fill:none;" width="57" height="57"/>
					<rect x="71.1" y="-128.1" style="fill:none;" width="57" height="57"/>
					<rect x="71.1" y="-128.1" style="fill:none;" width="57" height="57"/>
					<rect x="71.1" y="-128.1" style="fill:none;" width="57" height="57"/>
					<rect x="71.1" y="-128.1" style="fill:none;" width="57" height="57"/>
					<rect x="71.1" y="-128.1" style="fill:none;" width="57" height="57"/>
					<rect x="71.1" y="-128.1" style="fill:none;" width="57" height="57"/>
					<rect x="71.1" y="-128.1" style="fill:none;" width="57" height="57"/>
					<rect x="71.1" y="-128.1" style="fill:none;" width="57" height="57"/>
					<rect x="71.1" y="-128.1" style="fill:none;" width="57" height="57"/>
					<rect x="71.1" y="-128.1" style="fill:none;" width="57" height="57"/>
					<rect x="71.1" y="-128.1" style="fill:none;" width="57" height="57"/>
					<rect x="71.1" y="-128.1" style="fill:none;" width="57" height="57"/>
					<rect x="71.1" y="-128.1" style="fill:none;" width="57" height="57"/>
					<rect x="71.1" y="-128.1" style="fill:none;" width="57" height="57"/>
					<rect x="124.1" y="-76.1" style="fill:#F2F2F2;" width="60" height="58"/>
					
						<line style="fill:none;stroke:#DDDDDD;stroke-width:20;stroke-linecap:square;stroke-linejoin:round;" x1="128.1" y1="-71.1" x2="185.1" y2="-14.1"/>
					<rect x="67.1" y="-76.1" style="fill:#F2F2F2;" width="60" height="58"/>
					
						<line style="fill:none;stroke:#DDDDDD;stroke-width:20;stroke-linecap:square;stroke-linejoin:round;" x1="71.1" y1="-71.1" x2="128.1" y2="-14.1"/>
					
						<line style="fill:none;stroke:#DDDDDD;stroke-width:20;stroke-linecap:square;stroke-linejoin:round;" x1="14.1" y1="-71.1" x2="71.1" y2="-14.1"/>
					<rect x="124.1" y="-133.1" style="fill:#F2F2F2;" width="60" height="58"/>
					
						<line style="fill:none;stroke:#DDDDDD;stroke-width:20;stroke-linecap:square;stroke-linejoin:round;" x1="128.1" y1="-128.1" x2="185.1" y2="-71.1"/>
					<rect x="67.1" y="-133.1" style="fill:#F2F2F2;" width="60" height="58"/>
					
						<line style="fill:none;stroke:#DDDDDD;stroke-width:20;stroke-linecap:square;stroke-linejoin:round;" x1="71.1" y1="-128.1" x2="128.1" y2="-71.1"/>
					
						<line style="fill:none;stroke:#DDDDDD;stroke-width:20;stroke-linecap:square;stroke-linejoin:round;" x1="14.1" y1="-128.1" x2="71.1" y2="-71.1"/>
					
						<line style="fill:none;stroke:#DDDDDD;stroke-width:20;stroke-linecap:square;stroke-linejoin:round;" x1="128.1" y1="-185.1" x2="185.1" y2="-128.1"/>
					
						<line style="fill:none;stroke:#DDDDDD;stroke-width:20;stroke-linecap:square;stroke-linejoin:round;" x1="71.1" y1="-185.1" x2="128.1" y2="-128.1"/>
					
						<line style="fill:none;stroke:#DDDDDD;stroke-width:20;stroke-linecap:square;stroke-linejoin:round;" x1="14.1" y1="-185.1" x2="71.1" y2="-128.1"/>
				</g>
			</g>
		</g>
	</g>
</pattern>
<pattern  y="786.6" width="57" height="57" patternUnits="userSpaceOnUse" id="locale_tecnico-3_00000092421688" viewBox="71.1 -128.1 57 57" style="overflow:visible;">
	<g>
		<rect x="71.1" y="-128.1" style="fill:none;" width="57" height="57"/>
		<g>
			<rect x="71.1" y="-128.1" style="fill:none;" width="57" height="57"/>
			<g>
				<rect x="71.1" y="-128.1" style="fill:none;" width="57" height="57"/>
				<g>
					<rect x="71.1" y="-128.1" style="fill:none;" width="57" height="57"/>
					<rect x="71.1" y="-128.1" style="fill:none;" width="57" height="57"/>
					<rect x="71.1" y="-128.1" style="fill:none;" width="57" height="57"/>
					<rect x="71.1" y="-128.1" style="fill:none;" width="57" height="57"/>
					<rect x="71.1" y="-128.1" style="fill:none;" width="57" height="57"/>
					<rect x="71.1" y="-128.1" style="fill:none;" width="57" height="57"/>
					<rect x="71.1" y="-128.1" style="fill:none;" width="57" height="57"/>
					<rect x="71.1" y="-128.1" style="fill:none;" width="57" height="57"/>
					<rect x="71.1" y="-128.1" style="fill:none;" width="57" height="57"/>
					<rect x="71.1" y="-128.1" style="fill:none;" width="57" height="57"/>
					<rect x="71.1" y="-128.1" style="fill:none;" width="57" height="57"/>
					<rect x="71.1" y="-128.1" style="fill:none;" width="57" height="57"/>
					<rect x="71.1" y="-128.1" style="fill:none;" width="57" height="57"/>
					<rect x="71.1" y="-128.1" style="fill:none;" width="57" height="57"/>
					<rect x="71.1" y="-128.1" style="fill:none;" width="57" height="57"/>
					<rect x="71.1" y="-128.1" style="fill:none;" width="57" height="57"/>
					<rect x="71.1" y="-128.1" style="fill:none;" width="57" height="57"/>
					<rect x="71.1" y="-128.1" style="fill:none;" width="57" height="57"/>
					<rect x="124.1" y="-76.1" style="fill:#F2F2F2;" width="60" height="58"/>
					
						<line style="fill:none;stroke:#DDDDDD;stroke-width:20;stroke-linecap:square;stroke-linejoin:round;" x1="128.1" y1="-71.1" x2="185.1" y2="-14.1"/>
					<rect x="67.1" y="-76.1" style="fill:#F2F2F2;" width="60" height="58"/>
					
						<line style="fill:none;stroke:#DDDDDD;stroke-width:20;stroke-linecap:square;stroke-linejoin:round;" x1="71.1" y1="-71.1" x2="128.1" y2="-14.1"/>
					
						<line style="fill:none;stroke:#DDDDDD;stroke-width:20;stroke-linecap:square;stroke-linejoin:round;" x1="14.1" y1="-71.1" x2="71.1" y2="-14.1"/>
					<rect x="124.1" y="-133.1" style="fill:#F2F2F2;" width="60" height="58"/>
					
						<line style="fill:none;stroke:#DDDDDD;stroke-width:20;stroke-linecap:square;stroke-linejoin:round;" x1="128.1" y1="-128.1" x2="185.1" y2="-71.1"/>
					<rect x="67.1" y="-133.1" style="fill:#F2F2F2;" width="60" height="58"/>
					
						<line style="fill:none;stroke:#DDDDDD;stroke-width:20;stroke-linecap:square;stroke-linejoin:round;" x1="71.1" y1="-128.1" x2="128.1" y2="-71.1"/>
					
						<line style="fill:none;stroke:#DDDDDD;stroke-width:20;stroke-linecap:square;stroke-linejoin:round;" x1="14.1" y1="-128.1" x2="71.1" y2="-71.1"/>
					
						<line style="fill:none;stroke:#DDDDDD;stroke-width:20;stroke-linecap:square;stroke-linejoin:round;" x1="128.1" y1="-185.1" x2="185.1" y2="-128.1"/>
					
						<line style="fill:none;stroke:#DDDDDD;stroke-width:20;stroke-linecap:square;stroke-linejoin:round;" x1="71.1" y1="-185.1" x2="128.1" y2="-128.1"/>
					
						<line style="fill:none;stroke:#DDDDDD;stroke-width:20;stroke-linecap:square;stroke-linejoin:round;" x1="14.1" y1="-185.1" x2="71.1" y2="-128.1"/>
				</g>
			</g>
		</g>
	</g>
</pattern>
<pattern  y="786.6" width="57" height="57" patternUnits="userSpaceOnUse" id="locale_tecnico-4_00000012455023" viewBox="71.1 -128.1 57 57" style="overflow:visible;">
	<g>
		<rect x="71.1" y="-128.1" style="fill:none;" width="57" height="57"/>
		<g>
			<rect x="71.1" y="-128.1" style="fill:none;" width="57" height="57"/>
			<g>
				<rect x="71.1" y="-128.1" style="fill:none;" width="57" height="57"/>
				<g>
					<rect x="71.1" y="-128.1" style="fill:none;" width="57" height="57"/>
					<rect x="71.1" y="-128.1" style="fill:none;" width="57" height="57"/>
					<rect x="71.1" y="-128.1" style="fill:none;" width="57" height="57"/>
					<rect x="71.1" y="-128.1" style="fill:none;" width="57" height="57"/>
					<rect x="71.1" y="-128.1" style="fill:none;" width="57" height="57"/>
					<rect x="71.1" y="-128.1" style="fill:none;" width="57" height="57"/>
					<rect x="71.1" y="-128.1" style="fill:none;" width="57" height="57"/>
					<rect x="71.1" y="-128.1" style="fill:none;" width="57" height="57"/>
					<rect x="71.1" y="-128.1" style="fill:none;" width="57" height="57"/>
					<rect x="71.1" y="-128.1" style="fill:none;" width="57" height="57"/>
					<rect x="71.1" y="-128.1" style="fill:none;" width="57" height="57"/>
					<rect x="71.1" y="-128.1" style="fill:none;" width="57" height="57"/>
					<rect x="71.1" y="-128.1" style="fill:none;" width="57" height="57"/>
					<rect x="71.1" y="-128.1" style="fill:none;" width="57" height="57"/>
					<rect x="71.1" y="-128.1" style="fill:none;" width="57" height="57"/>
					<rect x="71.1" y="-128.1" style="fill:none;" width="57" height="57"/>
					<rect x="71.1" y="-128.1" style="fill:none;" width="57" height="57"/>
					<rect x="71.1" y="-128.1" style="fill:none;" width="57" height="57"/>
					<rect x="124.1" y="-76.1" style="fill:#F2F2F2;" width="60" height="58"/>
					
						<line style="fill:none;stroke:#DDDDDD;stroke-width:20;stroke-linecap:square;stroke-linejoin:round;" x1="128.1" y1="-71.1" x2="185.1" y2="-14.1"/>
					<rect x="67.1" y="-76.1" style="fill:#F2F2F2;" width="60" height="58"/>
					
						<line style="fill:none;stroke:#DDDDDD;stroke-width:20;stroke-linecap:square;stroke-linejoin:round;" x1="71.1" y1="-71.1" x2="128.1" y2="-14.1"/>
					
						<line style="fill:none;stroke:#DDDDDD;stroke-width:20;stroke-linecap:square;stroke-linejoin:round;" x1="14.1" y1="-71.1" x2="71.1" y2="-14.1"/>
					<rect x="124.1" y="-133.1" style="fill:#F2F2F2;" width="60" height="58"/>
					
						<line style="fill:none;stroke:#DDDDDD;stroke-width:20;stroke-linecap:square;stroke-linejoin:round;" x1="128.1" y1="-128.1" x2="185.1" y2="-71.1"/>
					<rect x="67.1" y="-133.1" style="fill:#F2F2F2;" width="60" height="58"/>
					
						<line style="fill:none;stroke:#DDDDDD;stroke-width:20;stroke-linecap:square;stroke-linejoin:round;" x1="71.1" y1="-128.1" x2="128.1" y2="-71.1"/>
					
						<line style="fill:none;stroke:#DDDDDD;stroke-width:20;stroke-linecap:square;stroke-linejoin:round;" x1="14.1" y1="-128.1" x2="71.1" y2="-71.1"/>
					
						<line style="fill:none;stroke:#DDDDDD;stroke-width:20;stroke-linecap:square;stroke-linejoin:round;" x1="128.1" y1="-185.1" x2="185.1" y2="-128.1"/>
					
						<line style="fill:none;stroke:#DDDDDD;stroke-width:20;stroke-linecap:square;stroke-linejoin:round;" x1="71.1" y1="-185.1" x2="128.1" y2="-128.1"/>
					
						<line style="fill:none;stroke:#DDDDDD;stroke-width:20;stroke-linecap:square;stroke-linejoin:round;" x1="14.1" y1="-185.1" x2="71.1" y2="-128.1"/>
				</g>
			</g>
		</g>
	</g>
</pattern>
<pattern  y="786.6" width="57" height="57" patternUnits="userSpaceOnUse" id="stanzetta_000000773169262813701" viewBox="71.1 -128.1 57 57" style="overflow:visible;">
	<g>
		<rect x="71.1" y="-128.1" style="fill:none;" width="57" height="57"/>
		<g>
			<rect x="71.1" y="-128.1" style="fill:none;" width="57" height="57"/>
			<g>
				<rect x="71.1" y="-128.1" style="fill:none;" width="57" height="57"/>
				<g>
					<rect x="71.1" y="-128.1" style="fill:none;" width="57" height="57"/>
					<rect x="71.1" y="-128.1" style="fill:none;" width="57" height="57"/>
					<rect x="71.1" y="-128.1" style="fill:none;" width="57" height="57"/>
					<rect x="71.1" y="-128.1" style="fill:none;" width="57" height="57"/>
					<rect x="71.1" y="-128.1" style="fill:none;" width="57" height="57"/>
					<rect x="71.1" y="-128.1" style="fill:none;" width="57" height="57"/>
					<rect x="71.1" y="-128.1" style="fill:none;" width="57" height="57"/>
					<rect x="71.1" y="-128.1" style="fill:none;" width="57" height="57"/>
					<rect x="71.1" y="-128.1" style="fill:none;" width="57" height="57"/>
					<rect x="71.1" y="-128.1" style="fill:none;" width="57" height="57"/>
					<rect x="71.1" y="-128.1" style="fill:none;" width="57" height="57"/>
					<rect x="71.1" y="-128.1" style="fill:none;" width="57" height="57"/>
					<rect x="71.1" y="-128.1" style="fill:none;" width="57" height="57"/>
					<rect x="71.1" y="-128.1" style="fill:none;" width="57" height="57"/>
					<rect x="71.1" y="-128.1" style="fill:none;" width="57" height="57"/>
					<rect x="71.1" y="-128.1" style="fill:none;" width="57" height="57"/>
					<rect x="71.1" y="-128.1" style="fill:none;" width="57" height="57"/>
					<rect x="71.1" y="-128.1" style="fill:none;" width="57" height="57"/>
					<rect x="124.1" y="-76.1" style="fill:#F2F2F2;" width="60" height="58"/>
					
						<line style="fill:none;stroke:#DDDDDD;stroke-width:20;stroke-linecap:square;stroke-linejoin:round;" x1="128.1" y1="-71.1" x2="185.1" y2="-14.1"/>
					<rect x="67.1" y="-76.1" style="fill:#F2F2F2;" width="60" height="58"/>
					
						<line style="fill:none;stroke:#DDDDDD;stroke-width:20;stroke-linecap:square;stroke-linejoin:round;" x1="71.1" y1="-71.1" x2="128.1" y2="-14.1"/>
					
						<line style="fill:none;stroke:#DDDDDD;stroke-width:20;stroke-linecap:square;stroke-linejoin:round;" x1="14.1" y1="-71.1" x2="71.1" y2="-14.1"/>
					<rect x="124.1" y="-133.1" style="fill:#F2F2F2;" width="60" height="58"/>
					
						<line style="fill:none;stroke:#DDDDDD;stroke-width:20;stroke-linecap:square;stroke-linejoin:round;" x1="128.1" y1="-128.1" x2="185.1" y2="-71.1"/>
					<rect x="67.1" y="-133.1" style="fill:#F2F2F2;" width="60" height="58"/>
					
						<line style="fill:none;stroke:#DDDDDD;stroke-width:20;stroke-linecap:square;stroke-linejoin:round;" x1="71.1" y1="-128.1" x2="128.1" y2="-71.1"/>
					
						<line style="fill:none;stroke:#DDDDDD;stroke-width:20;stroke-linecap:square;stroke-linejoin:round;" x1="14.1" y1="-128.1" x2="71.1" y2="-71.1"/>
					
						<line style="fill:none;stroke:#DDDDDD;stroke-width:20;stroke-linecap:square;stroke-linejoin:round;" x1="128.1" y1="-185.1" x2="185.1" y2="-128.1"/>
					
						<line style="fill:none;stroke:#DDDDDD;stroke-width:20;stroke-linecap:square;stroke-linejoin:round;" x1="71.1" y1="-185.1" x2="128.1" y2="-128.1"/>
					
						<line style="fill:none;stroke:#DDDDDD;stroke-width:20;stroke-linecap:square;stroke-linejoin:round;" x1="14.1" y1="-185.1" x2="71.1" y2="-128.1"/>
				</g>
			</g>
		</g>
	</g>
</pattern>
<polygon id="background" style="fill:#F2F2F2;" points="0,460.8 330.5,460.8 330.5,786.6 5178,786.6 5178,418.4 5500,418.4 
	5500,10.2 4020.9,10.2 4020.9,112.9 3972.2,112.9 3972.2,376.4 2975.9,376.4 2975.9,0 843,0 402.2,0 0,0 "/>
<pattern  id="locale_tecnico_00000017505626313307022110000017336336141512261036_" xlink:href="#locale_tecnico_0000009317915821" patternTransform="matrix(-0.42 0 0 -0.42 -105802.7109 -56841.5703)">
</pattern>
<polygon id="locale_tecnico" style="fill:url(#locale_tecnico_00000017505626313307022110000017336336141512261036_);" points="
	4497,758.2 4497,404.4 4536,404.4 4536,505.3 4536,519.3 4536,758.2 "/>
<pattern  id="locale_tecnico-2_00000009577799461696869310000013439481311626323618_" xlink:href="#locale_tecnico-2_00000137844624" patternTransform="matrix(-0.42 0 0 -0.42 -105802.7109 -56841.5703)">
</pattern>
<polygon id="locale_tecnico-2" style="fill:url(#locale_tecnico-2_00000009577799461696869310000013439481311626323618_);" points="
	4049.5,126.9 4049.5,33.6 5150,33.6 5150,126.9 4700.6,126.9 4686.6,126.9 "/>
<pattern  id="locale_tecnico-3_00000059995575704635740030000001101385266140688795_" xlink:href="#locale_tecnico-3_00000092421688" patternTransform="matrix(-0.42 0 0 -0.42 -105802.7109 -56841.5703)">
</pattern>
<rect id="locale_tecnico-3" x="821.4" y="404.4" style="fill:url(#locale_tecnico-3_00000059995575704635740030000001101385266140688795_);" width="35.6" height="353.9"/>
<pattern  id="locale_tecnico-4_00000010994146637286852340000002752257328091187342_" xlink:href="#locale_tecnico-4_00000012455023" patternTransform="matrix(-0.42 0 0 -0.42 -105802.7109 -56841.5703)">
</pattern>
<polygon id="locale_tecnico-4" style="fill:url(#locale_tecnico-4_00000010994146637286852340000002752257328091187342_);" points="
	1412.9,390.4 1412.9,127.5 387.5,127.5 387.5,25.9 1526.2,25.9 1526.2,140.9 2420.5,140.9 2420.5,390.4 2377.7,390.4 2363.7,390.4 
	1988.7,390.4 1974.6,390.4 1856.7,390.4 1842.6,390.4 1479,390.4 1465,390.4 "/>
<g class="clickable" id="A2-4-13">
	<polygon id="A2-4-13" style="fill:#F2F2F2;" points="358.5,432.8 358.5,404.4 374.2,404.4 388.2,404.4 526.5,404.4 526.5,526.5 
		358.5,526.5 358.5,446.8 	"/>
</g>
<g class="clickable" id="A2-4-11">
	<polygon id="A2-4-11" style="fill:#F2F2F2;" points="1349.6,592.8 1349.6,404.4 1398.9,404.4 1412.9,404.4 1465,404.4 1465,592.8 	
		"/>
</g>
<g class="clickable" id="A2-4-10">
	<rect x="1856.7" y="404.4" style="fill:#F2F2F2;" width="117.9" height="188.4"/>
</g>
<g class="clickable" id="A2-4-09-E">
	<polygon id="A2-4-09-E" style="fill:#DDDDDD;" points="388.2,390.4 388.2,140.9 857,140.9 857,390.4 821.4,390.4 807.4,390.4 
		673.8,390.4 659.7,390.4 540.5,390.4 526.5,390.4 	"/>
</g>
<g class="clickable" id="A2-4-09-F">
	<path id="_gruppo_4" style="fill:#DDDDDD;" d="M28,32.9V28h346.2v362.4h-29.7v42.4H28V32.9z"/>
</g>
<g class="clickable" id="A2-4-09-D">
	<path id="_gruppo_3" style="fill:#DDDDDD;" d="M871.1,390.4V140.9h527.8v249.5H871.1z"/>
</g>
<g class="clickable" id="A2-4-09-C">
	<polygon style="fill:#DDDDDD;" points="1988.7,592.8 1988.7,404.4 2363.7,404.4 2363.7,592.8 2363.7,606.8 2363.7,758.2 
		1988.7,758.2 1988.7,606.8 	"/>
</g>
<g class="clickable" id="A2-4-09-B">
	<polygon style="fill:#DDDDDD;" points="1335.7,758.2 1335.7,606.8 1465,606.8 1479,606.8 1479,592.8 1479,404.4 1842.6,404.4 
		1842.6,592.8 1842.6,606.8 1856.7,606.8 1988.7,606.8 1988.7,758.2 	"/>
</g>
<g class="clickable" id="A2-4-09-A">
	<polygon style="fill:#DDDDDD;" points="871.1,758.2 871.1,404.4 1335.7,404.4 1335.7,592.8 1335.7,606.8 1335.7,758.2 	"/>
</g>
<g class="clickable" id="A2-4-08">
	<polygon style="fill:#F2F2F2;" points="2377.7,592.8 2377.7,404.4 2420.5,404.4 2434.5,404.4 2488,404.4 2488,592.8 	"/>
</g>
<g class="clickable" id="A2-4-07">
	<polygon style="fill:#F2F2F2;" points="2890.6,592.8 2890.6,404.4 2947.9,404.4 2961.9,404.4 3028.6,404.4 3028.6,592.8 	"/>
</g>
<g class="clickable" id="A2-4-06-D">
	<rect x="2784.6" y="29.4" style="fill:none;" width="163.4" height="361"/>
</g>
<g class="clickable" id="A2-4-06-C">
	<path id="_gruppo_" style="fill:#DDDDDD;" d="M2502,404.4h267.3v188.4H2502V404.4z"/>
</g>
<g class="clickable" id="A2-4-06-B">
	<polygon style="fill:#DDDDDD;" points="2434.5,390.4 2434.5,140.9 2769.3,140.9 2769.3,390.4 2502,390.4 2488,390.4 	"/>
</g>
<g class="clickable" id="A2-4-06-A">
	<path id="_gruppo_2" style="fill:none;" d="M2377.7,758.2V606.8h405.6V404.4h93.3v202.4h152v151.4L2377.7,758.2L2377.7,758.2z"/>
</g>
<g class="clickable" id="A2-4-05">
	<rect x="3432.8" y="404.4" style="fill:#F2F2F2;" width="110.8" height="188.4"/>
</g>
<g class="clickable" id="A2-4-04">
	<polygon style="fill:#F2F2F2;" points="3946.7,592.8 3946.7,404.4 3986.1,404.4 4000.1,404.4 4098.2,404.4 4098.2,592.8 
		4051.5,592.8 4037.5,592.8 	"/>
</g>
<g class="clickable" id="A2-4-03-Z">
	
		<pattern  id="stanzetta_00000147211806540659307830000015078217927235574916_" xlink:href="#stanzetta_000000773169262813701" patternTransform="matrix(-0.42 0 0 -0.42 -105802.7109 -56841.5703)">
	</pattern>
	
		<rect id="stanzetta" x="4822.8" y="404.4" style="fill:url(#stanzetta_00000147211806540659307830000015078217927235574916_);" width="131.1" height="122.6"/>
</g>
<g class="clickable" id="A2-4-03-H">
	<rect x="4686.6" y="288.5" style="fill:none;" width="463.3" height="101.8"/>
</g>
<g class="clickable" id="A2-4-03-G">
	<rect x="4700.6" y="140.9" style="fill:#DDDDDD;" width="449.3" height="133.7"/>
</g>
<g class="clickable" id="A2-4-03-D">
	<path id="A2-4-03-D" style="fill:#DDDDDD;" d="M3042.5,592.8V404.4h376.4v202.4h138.7v151.4h-515.1V592.8z"/>
</g>
<g class="clickable" id="A2-4-03-C">
	<path id="A2-4-03-C" style="fill:#DDDDDD;" d="M3557.6,592.8V404.4h375.1v202.4h104.8v151.4h-479.9L3557.6,592.8L3557.6,592.8z"/>
</g>
<g class="clickable" id="A2-4-03-B">
	<polygon style="fill:#DDDDDD;" points="5163.9,126.9 5163.9,33.6 5471.6,33.6 5471.6,390.4 5163.9,390.4 5163.9,288.5 
		5163.9,274.5 5163.9,140.9 	"/>
</g>
<g class="clickable" id="A2-4-03-A">
	<polygon style="fill:#DDDDDD;" points="4098.2,390.4 4112.1,390.4 4112.1,592.8 4112.1,606.8 4098.2,606.8 4051.5,606.8 
		4051.5,758.2 4483,758.2 4483,390.4 4497,390.4 4536,390.4 4536,288.5 4536,274.5 4550,274.5 4686.6,274.5 4686.6,140.9 
		4587.8,140.9 4573.7,140.9 4048.9,140.9 4035,140.9 4000.1,140.9 4000.1,390.4 	"/>
</g>
<g class="clickable" id="A2-4-02-A">
	<path id="_gruppo_5" style="fill:#DDDDDD;" d="M4822.8,404.4h131.1V527h-131.1V404.4z"/>
</g>
<g class="clickable" id="A2-4-STAIR-F">
	<path style="fill:#B7B7B7;" d="M1902.8,133.3h-365.7V26.1h364v1.2h1.8L1902.8,133.3z M1540.6,129.8h358.7V29.6h-358.7L1540.6,129.8
		z"/>
	<rect x="1538" y="78" style="fill:#B7B7B7;" width="362.2" height="3.5"/>
	<polygon style="fill:#B7B7B7;" points="1878.9,132.3 1875.7,130.8 1898.6,79.7 1875.7,28.6 1878.9,27.2 1902.4,79.7 	"/>
	<rect x="1630.7" y="27.9" style="fill:#B7B7B7;" width="3.5" height="103.7"/>
	<rect x="1606.8" y="27.9" style="fill:#B7B7B7;" width="3.5" height="103.7"/>
	<rect x="1559.2" y="27.9" style="fill:#B7B7B7;" width="3.5" height="103.7"/>
	<rect x="1583" y="27.9" style="fill:#B7B7B7;" width="3.5" height="103.7"/>
	<rect x="1726.1" y="27.9" style="fill:#B7B7B7;" width="3.5" height="103.7"/>
	<rect x="1749.9" y="27.9" style="fill:#B7B7B7;" width="3.5" height="103.7"/>
	<rect x="1773.8" y="27.9" style="fill:#B7B7B7;" width="3.5" height="103.7"/>
	<rect x="1797.7" y="27.9" style="fill:#B7B7B7;" width="3.5" height="103.7"/>
	<rect x="1821.5" y="27.9" style="fill:#B7B7B7;" width="3.5" height="103.7"/>
	<rect x="1845.4" y="27.9" style="fill:#B7B7B7;" width="3.5" height="103.7"/>
	<rect x="1867.9" y="27.9" style="fill:#B7B7B7;" width="3.5" height="103.7"/>
	<rect x="2172.9" y="78" style="fill:#B7B7B7;" width="117.9" height="3.5"/>
	<rect x="2195.1" y="27.9" style="fill:#B7B7B7;" width="3.5" height="103.7"/>
	<rect x="2218.9" y="27.9" style="fill:#B7B7B7;" width="3.5" height="103.7"/>
	<rect x="2242.8" y="27.9" style="fill:#B7B7B7;" width="3.5" height="103.7"/>
	<rect x="2266.1" y="27.9" style="fill:#B7B7B7;" width="3.5" height="103.7"/>
	<rect x="2287.7" y="27.9" style="fill:#B7B7B7;" width="3.5" height="103.7"/>
	<path style="fill:#B7B7B7;" d="M2654.2,133.3h-482.3V26.1h480.6v1.2h1.8v106H2654.2z M2175.4,129.8h475.3V29.6h-475.3V129.8z"/>
	<rect x="2289.4" y="78" style="fill:#B7B7B7;" width="362.2" height="3.5"/>
	<polygon style="fill:#B7B7B7;" points="2630.3,132.3 2627.1,130.8 2650,79.7 2627.1,28.6 2630.3,27.2 2653.8,79.7 	"/>
	<rect x="2382.1" y="27.9" style="fill:#B7B7B7;" width="3.5" height="103.7"/>
	<rect x="2358.2" y="27.9" style="fill:#B7B7B7;" width="3.5" height="103.7"/>
	<rect x="2310.5" y="27.9" style="fill:#B7B7B7;" width="3.5" height="103.7"/>
	<rect x="2334.4" y="27.9" style="fill:#B7B7B7;" width="3.5" height="103.7"/>
	<rect x="2477.5" y="27.9" style="fill:#B7B7B7;" width="3.5" height="103.7"/>
	<rect x="2501.4" y="27.9" style="fill:#B7B7B7;" width="3.5" height="103.7"/>
	<rect x="2525.2" y="27.9" style="fill:#B7B7B7;" width="3.5" height="103.7"/>
	<rect x="2549.1" y="27.9" style="fill:#B7B7B7;" width="3.5" height="103.7"/>
	<rect x="2572.9" y="27.9" style="fill:#B7B7B7;" width="3.5" height="103.7"/>
	<rect x="2596.8" y="27.9" style="fill:#B7B7B7;" width="3.5" height="103.7"/>
	<rect x="2619.4" y="27.9" style="fill:#B7B7B7;" width="3.5" height="103.7"/>
	<g id="a-3">
		<polygon style="fill:none;" points="1542.5,126.9 1542.5,28 2651.9,28 2651.9,126.9 		"/>
	</g>
</g>
<g class="clickable" id="A2-4-LIFT-D">
	<rect id="A2-4-LIFT-D" x="4550" y="393.4" style="fill:#F2F2F2;" width="136.6" height="364.9"/>
</g>
<g class="clickable" id="A2-4-STAIR-D">
	<g id="scale">
		<polygon style="fill:#B7B7B7;" points="5152.7,762.6 4811.9,762.6 4811.9,659.9 5038.3,659.9 5038.3,639.6 4831.5,639.6 
			4831.5,539.2 5152.7,539.2 5152.7,542.7 4835,542.7 4835,636 5041.9,636 5041.9,663.4 4815.4,663.4 4815.4,759.1 5152.7,759.1 		
			"/>
		<polygon style="fill:#B7B7B7;" points="5088.4,714.7 4814.1,714.7 4814.1,711.2 5084.8,711.2 5084.8,592.7 4832.8,592.7 
			4832.8,589.1 5088.4,589.1 		"/>
		<rect x="4994.1" y="660.8" style="fill:#B7B7B7;" width="3.5" height="100.8"/>
		<rect x="5015.1" y="660.8" style="fill:#B7B7B7;" width="3.5" height="100.8"/>
		<rect x="5035.1" y="660.8" style="fill:#B7B7B7;" width="3.5" height="100.8"/>
		<rect x="4973.6" y="660.8" style="fill:#B7B7B7;" width="3.5" height="100.8"/>
		<rect x="5035.1" y="541" style="fill:#B7B7B7;" width="3.5" height="96.8"/>
		<rect x="5015.1" y="541" style="fill:#B7B7B7;" width="3.5" height="96.8"/>
		<rect x="4994.1" y="541" style="fill:#B7B7B7;" width="3.5" height="96.8"/>
		<rect x="4973.6" y="541" style="fill:#B7B7B7;" width="3.5" height="96.8"/>
		<rect x="4953.1" y="541" style="fill:#B7B7B7;" width="3.5" height="96.8"/>
		<rect x="4933.1" y="541" style="fill:#B7B7B7;" width="3.5" height="96.8"/>
		<rect x="4912.9" y="541" style="fill:#B7B7B7;" width="3.5" height="96.8"/>
		<rect x="4851.2" y="541" style="fill:#B7B7B7;" width="3.5" height="96.8"/>
		<polygon style="fill:#B7B7B7;" points="4851.1,638 4831.9,590.8 4850.6,540.3 4853.9,541.6 4835.6,590.7 4854.3,636.7 		"/>
		<polygon style="fill:#B7B7B7;" points="4978.5,760.5 4975.3,759.2 4993.8,713.5 4973.8,664.2 4977,662.9 4997.6,713.5 		"/>
		<polygon style="fill:#B7B7B7;" points="4874.3,663.6 4808.6,663.6 4808.6,636 4833,636 4833,639.6 4812.1,639.6 4812.1,660.1 
			4874.3,660.1 		"/>
		
			<rect x="4978.3" y="687.6" transform="matrix(0.3782 -0.9257 0.9257 0.3782 2474.446 5062.6499)" style="fill:#B7B7B7;" width="55" height="3.5"/>
		<rect x="4892.7" y="660.8" style="fill:#B7B7B7;" width="3.5" height="100.8"/>
		<rect x="4933.3" y="660.8" style="fill:#B7B7B7;" width="3.5" height="100.8"/>
		<rect x="4913" y="660.8" style="fill:#B7B7B7;" width="3.5" height="100.8"/>
		<rect x="4953.6" y="660.8" style="fill:#B7B7B7;" width="3.5" height="100.8"/>
		<rect x="4872.5" y="660.8" style="fill:#B7B7B7;" width="3.5" height="100.8"/>
		<rect x="4852.1" y="660.8" style="fill:#B7B7B7;" width="3.5" height="100.8"/>
		<rect x="4831.9" y="660.8" style="fill:#B7B7B7;" width="3.5" height="100.8"/>
		<rect x="4893" y="541" style="fill:#B7B7B7;" width="3.5" height="96.8"/>
		<rect x="4872.2" y="541" style="fill:#B7B7B7;" width="3.5" height="96.8"/>
	</g>
	<g id="a-4">
		<polygon style="fill:none;" points="4808.8,541 4822.8,541 4953.9,541 4967.9,541 5150,541 5150,758.2 4700.6,758.2 4700.6,541.8 
					"/>
	</g>
</g>
<g class="clickable" id="A2-4-LIFT-C">
	<rect id="_A2-4-LIFT-C" x="540.5" y="404.4" style="fill:#F2F2F2;" width="155.1" height="122.2"/>
</g>
<g class="clickable" id="A2-4-STAIR-C">
	<g id="scale-2">
		<polygon style="fill:#B7B7B7;" points="697.4,762.6 356.7,762.6 356.7,759.1 693.9,759.1 693.9,663.4 467.4,663.4 467.4,636 
			674.3,636 674.3,542.7 356.7,542.7 356.7,539.2 677.8,539.2 677.8,639.6 470.9,639.6 470.9,659.9 697.4,659.9 		"/>
		<polygon style="fill:#B7B7B7;" points="695.2,714.7 420.9,714.7 420.9,589.1 676.5,589.1 676.5,592.7 424.4,592.7 424.4,711.2 
			695.2,711.2 		"/>
		<rect x="511.7" y="660.8" style="fill:#B7B7B7;" width="3.5" height="100.8"/>
		<rect x="490.7" y="660.8" style="fill:#B7B7B7;" width="3.5" height="100.8"/>
		<rect x="470.6" y="660.8" style="fill:#B7B7B7;" width="3.5" height="100.8"/>
		<rect x="532.2" y="660.8" style="fill:#B7B7B7;" width="3.5" height="100.8"/>
		<rect x="470.6" y="541" style="fill:#B7B7B7;" width="3.5" height="96.8"/>
		<rect x="490.7" y="541" style="fill:#B7B7B7;" width="3.5" height="96.8"/>
		<rect x="511.7" y="541" style="fill:#B7B7B7;" width="3.5" height="96.8"/>
		<rect x="532.2" y="541" style="fill:#B7B7B7;" width="3.5" height="96.8"/>
		<rect x="552.7" y="541" style="fill:#B7B7B7;" width="3.5" height="96.8"/>
		<rect x="572.7" y="541" style="fill:#B7B7B7;" width="3.5" height="96.8"/>
		<rect x="592.9" y="541" style="fill:#B7B7B7;" width="3.5" height="96.8"/>
		<rect x="654.5" y="541" style="fill:#B7B7B7;" width="3.5" height="96.8"/>
		<polygon style="fill:#B7B7B7;" points="658.2,638 654.9,636.7 673.6,590.7 655.3,541.6 658.6,540.3 677.4,590.8 		"/>
		<polygon style="fill:#B7B7B7;" points="530.8,760.5 511.7,713.5 532.3,662.9 535.6,664.2 515.5,713.5 534,759.2 		"/>
		<polygon style="fill:#B7B7B7;" points="700.7,663.6 635,663.6 635,660.1 697.2,660.1 697.2,639.6 676.3,639.6 676.3,636 
			700.7,636 		"/>
		
			<rect x="501.4" y="660.5" transform="matrix(0.9258 -0.378 0.378 0.9258 -222.7327 241.2367)" style="fill:#B7B7B7;" width="3.5" height="55"/>
		<rect x="613.1" y="660.8" style="fill:#B7B7B7;" width="3.5" height="100.8"/>
		<rect x="572.5" y="660.8" style="fill:#B7B7B7;" width="3.5" height="100.8"/>
		<rect x="592.8" y="660.8" style="fill:#B7B7B7;" width="3.5" height="100.8"/>
		<rect x="552.2" y="660.8" style="fill:#B7B7B7;" width="3.5" height="100.8"/>
		<rect x="633.3" y="660.8" style="fill:#B7B7B7;" width="3.5" height="100.8"/>
		<rect x="653.6" y="660.8" style="fill:#B7B7B7;" width="3.5" height="100.8"/>
		<rect x="673.9" y="660.8" style="fill:#B7B7B7;" width="3.5" height="100.8"/>
		<rect x="612.8" y="541" style="fill:#B7B7B7;" width="3.5" height="96.8"/>
		<rect x="633.6" y="541" style="fill:#B7B7B7;" width="3.5" height="96.8"/>
	</g>
	<g id="a-5">
		<polygon style="fill:none;" points="807.4,539.9 807.4,758.2 358.5,758.2 358.5,540.5 526.5,540.5 540.5,540.5 659.7,540.5 
			673.8,540.5 700,540.5 		"/>
	</g>
</g>
<path id="muri" style="fill:#B7B7B7;" d="M330.5,460.7v325.9H5178V418.4h322V10.2H4020.9v102.7h-48.8v263.5h-996.2V0.1H0v460.8
	L330.5,460.7z M857,758.2h-35.6V404.4H857V758.2z M4536,505.3v252.9h-39.1V404.4h39.1V505.3z M4049,33.6h1101v93.3H4049V33.6z
	 M388.3,28h1136.1v112.9h896.1v249.5H1412.9V126.9H388.2L388.3,28z M28,28h346.3v237.2h14V140.9h468.8v124.3h14V140.9h527.8v249.5
	h-69.2v14h6v202.4h17.8v-14h-3.8V404.4H1465v188.4h-59v14h73V404.4h363.6v202.3h22.4v-14h-8.5V404.4h118v188.4h-56.8v14h70.9V404.4
	h375.1v213h14v-10.7h17.8v-14h-17.8V404.4H2488v188.4h-39.9v14h335.2V490.5h-14v102.2H2502V404.4h267.3v18.3h14v-87.8h-14v55.6
	h-334.7V140.9h334.7v126h14v-140H1537.7V28h1410.2v362.4h-71.3v216.4h68.8v-14h-54.7V404.4h137.9v188.4h-27.2v14h27.2V620h14V404.4
	h376.3v202.3h60.7v-14h-46.7V404.4h110.8v188.4h-3v14h17V404.4h375.1v202.3h15.3v-14h-1.3V404.4h151.5v188.4H4009v14h28.4v3.8h14
	v-3.8h60.7V390.4h-112V140.9h686.5v133.7H4536v16.1h14v-2.1h358.6v-14h-207.9V140.9H5150v133.7h-186.7v14H5150v23.7h14V33.6h307.6
	v356.8h-307.7v-8.5h-14v8.5h-82.7v14h82.8V527h-182.1v-6.6l0,0v-130h-165.1v14h6V541H5150v217.3h-449.3V404.4h12.7v-14.1h-26.7
	v367.8h-136.6v-395h-14v27.2h-53v367.8h-431.5v-79.8h-14v79.8h-995.1v-70.4h-14v70.4h-650.8v-73h-14v73H871.1V404.4h392.5v-14H871.1
	V337h-14v53.5h-52.6v14h3v353.8h-449V540.5h341.6v-14H540.5V404.4h174v-14H459.1v14h67.4v122.2h-168V404.4h47.6v-14h-17.8V337h-14
	v53.5h-29.7v42.4H28V28z M4953.9,404.3v112.9l0,0v9.8h-131.1V404.4L4953.9,404.3z"/>
</svg>