<svg id="Livello_1" data-name="Livello 1" xmlns="http://www.w3.org/2000/svg" xmlns:xlink="http://www.w3.org/1999/xlink" viewBox="0 0 5500 786.6"><defs><pattern id="stanzetta_000001291765914410392" data-name="stanzetta 000001291765914410392" width="57" height="57" patternTransform="translate(-75017.51 -41052.9) rotate(180) scale(0.42)" patternUnits="userSpaceOnUse" viewBox="0 0 57 57"><rect width="57" height="57" style="fill:none"/><rect width="57" height="57" style="fill:none"/><rect width="57" height="57" style="fill:none"/><rect width="57" height="57" style="fill:none"/><rect width="57" height="57" style="fill:none"/><rect width="57" height="57" style="fill:none"/><rect width="57" height="57" style="fill:none"/><rect width="57" height="57" style="fill:none"/><rect width="57" height="57" style="fill:none"/><rect width="57" height="57" style="fill:none"/><rect width="57" height="57" style="fill:none"/><rect width="57" height="57" style="fill:none"/><rect width="57" height="57" style="fill:none"/><rect width="57" height="57" style="fill:none"/><rect width="57" height="57" style="fill:none"/><rect width="57" height="57" style="fill:none"/><rect width="57" height="57" style="fill:none"/><rect x="53" y="52" width="60" height="58" style="fill:#f2f2f2"/><line x1="57" y1="57" x2="114" y2="114" style="fill:none;stroke:#ddd;stroke-linecap:square;stroke-linejoin:round;stroke-width:20px"/><rect x="-4" y="52" width="60" height="58" style="fill:#f2f2f2"/><line y1="57" x2="57" y2="114" style="fill:none;stroke:#ddd;stroke-linecap:square;stroke-linejoin:round;stroke-width:20px"/><line x1="-57" y1="57" y2="114" style="fill:none;stroke:#ddd;stroke-linecap:square;stroke-linejoin:round;stroke-width:20px"/><rect x="53" y="-5" width="60" height="58" style="fill:#f2f2f2"/><line x1="57" x2="114" y2="57" style="fill:none;stroke:#ddd;stroke-linecap:square;stroke-linejoin:round;stroke-width:20px"/><rect x="-4" y="-5" width="60" height="58" style="fill:#f2f2f2"/><line x2="57" y2="57" style="fill:none;stroke:#ddd;stroke-linecap:square;stroke-linejoin:round;stroke-width:20px"/><line x1="-57" y2="57" style="fill:none;stroke:#ddd;stroke-linecap:square;stroke-linejoin:round;stroke-width:20px"/><line x1="57" y1="-57" x2="114" style="fill:none;stroke:#ddd;stroke-linecap:square;stroke-linejoin:round;stroke-width:20px"/><line y1="-57" x2="57" style="fill:none;stroke:#ddd;stroke-linecap:square;stroke-linejoin:round;stroke-width:20px"/><line x1="-57" y1="-57" style="fill:none;stroke:#ddd;stroke-linecap:square;stroke-linejoin:round;stroke-width:20px"/></pattern></defs><rect id="stanzetta" x="4822.8" y="404.4" width="131.1" height="122.6" style="fill:url(#stanzetta_000001291765914410392)"/><polygon id="background" points="0 460.8 330.5 460.8 330.5 786.6 5178 786.6 5178 418.4 5500 418.4 5500 10.2 4020.9 10.2 4020.9 112.9 3972.2 112.9 3972.2 376.4 2975.9 376.4 2975.9 0 843 0 402.2 0 0 0 0 460.8" style="fill:#f2f2f2"/><polygon id="locale_tecnico" data-name="locale tecnico" points="4497 758.2 4497 404.4 4536 404.4 4536 505.3 4536 519.3 4536 758.2 4497 758.2" style="fill:url(#stanzetta_000001291765914410392)"/><polygon id="locale_tecnico-2" data-name="locale tecnico-2" points="4049.5 126.9 4049.5 33.6 5150 33.6 5150 126.9 4700.6 126.9 4686.6 126.9 4049.5 126.9" style="fill:url(#stanzetta_000001291765914410392)"/><rect id="locale_tecnico-3" data-name="locale tecnico-3" x="821.4" y="404.4" width="35.6" height="353.9" style="fill:url(#stanzetta_000001291765914410392)"/><polygon id="locale_tecnico-4" data-name="locale tecnico-4" points="1412.9 390.4 1412.9 127.5 387.5 127.5 387.5 25.9 1526.2 25.9 1526.2 140.9 2420.5 140.9 2420.5 390.4 2377.7 390.4 2363.7 390.4 1988.7 390.4 1974.6 390.4 1856.7 390.4 1842.6 390.4 1479 390.4 1465 390.4 1412.9 390.4" style="fill:url(#stanzetta_000001291765914410392)"/><g class="clickable" id="A2-4-06-C" data-name="customclass A2-4-06-C"><path id="_gruppo_" data-name="&lt;gruppo&gt;" d="M2502,404.4h267.3V592.8H2502Z" transform="translate(0 0)" style="fill:#ddd"/></g><g class="clickable" id="A2-4-06-A" data-name="customclass A2-4-06-A"><path id="_gruppo_2" data-name="&lt;gruppo&gt;" d="M2377.7,758.2V606.8h405.6V404.4h93.3V606.8h152V758.2Z" transform="translate(0 0)" style="fill:none"/></g><g class="clickable" id="A2-4-09-E" data-name="customclass A2-4-09-E"><polygon id="A2-4-09-E" points="388.2 390.4 388.2 140.9 857 140.9 857 390.4 821.4 390.4 807.4 390.4 673.8 390.4 659.7 390.4 540.5 390.4 526.5 390.4 388.2 390.4" style="fill:#ddd"/></g><g class="clickable" id="A2-4-13" data-name="customclass A2-4-13"><polygon id="A2-4-13" points="358.5 432.8 358.5 404.4 374.2 404.4 388.2 404.4 526.5 404.4 526.5 526.5 358.5 526.5 358.5 446.8 358.5 432.8" style="fill:#f2f2f2"/></g><g class="clickable" id="A2-4-11" data-name="customclass A2-4-11"><polygon id="A2-4-11" points="1349.6 592.8 1349.6 404.4 1398.9 404.4 1412.9 404.4 1465 404.4 1465 592.8 1349.6 592.8" style="fill:#f2f2f2"/></g><g class="clickable" id="A2-4-10" data-name="customclass A2-4-10"><rect x="1856.7" y="404.4" width="117.9" height="188.4" style="fill:#f2f2f2"/></g><g class="clickable" id="A2-4-09-B" data-name="customclass A2-4-09-B"><polygon points="1335.7 758.2 1335.7 606.8 1465 606.8 1479 606.8 1479 592.8 1479 404.4 1842.6 404.4 1842.6 592.8 1842.6 606.8 1856.7 606.8 1988.7 606.8 1988.7 758.2 1335.7 758.2" style="fill:#ddd"/></g><g class="clickable" id="A2-4-09-A" data-name="customclass A2-4-09-A"><polygon points="871.1 758.2 871.1 404.4 1335.7 404.4 1335.7 592.8 1335.7 606.8 1335.7 758.2 871.1 758.2" style="fill:#ddd"/></g><g class="clickable" id="A2-4-09-D" data-name="customclass A2-4-09-D"><path id="_gruppo_3" data-name="&lt;gruppo&gt;" d="M871.1,390.4V140.9h527.8V390.4H871.1Z" transform="translate(0 0)" style="fill:#ddd"/></g><g class="clickable" id="A2-4-09-C" data-name="customclass A2-4-09-C"><polygon points="1988.7 592.8 1988.7 404.4 2363.7 404.4 2363.7 592.8 2363.7 606.8 2363.7 758.2 1988.7 758.2 1988.7 606.8 1988.7 592.8" style="fill:#ddd"/></g><g class="clickable" id="A2-4-09-F" data-name="customclass A2-4-09-F"><path id="_gruppo_4" data-name="&lt;gruppo&gt;" d="M28,32.9V28H374.2V390.4H344.5v42.4H28Z" transform="translate(0 0)" style="fill:#ddd"/></g><g class="clickable" id="A2-4-08" data-name="customclass A2-4-08"><polygon points="2377.7 592.8 2377.7 404.4 2420.5 404.4 2434.5 404.4 2488 404.4 2488 592.8 2377.7 592.8" style="fill:#f2f2f2"/></g><g class="clickable" id="A2-4-07" data-name="customclass A2-4-07"><polygon points="2890.6 592.8 2890.6 404.4 2947.9 404.4 2961.9 404.4 3028.6 404.4 3028.6 592.8 2890.6 592.8" style="fill:#f2f2f2"/></g><g class="clickable" id="A2-4-06-B" data-name="customclass A2-4-06-B"><polygon points="2434.5 390.4 2434.5 140.9 2769.3 140.9 2769.3 390.4 2502 390.4 2488 390.4 2434.5 390.4" style="fill:#ddd"/></g><g class="clickable" id="A2-4-06-D" data-name="customclass A2-4-06-D"><rect x="2784.6" y="29.4" width="163.4" height="361" style="fill:none"/></g><g class="clickable" id="A2-4-05" data-name="customclass A2-4-05"><rect x="3432.8" y="404.4" width="110.8" height="188.4" style="fill:#f2f2f2"/></g><g class="clickable" id="A2-4-04" data-name="customclass A2-4-04"><polygon points="3946.7 592.8 3946.7 404.4 3986.1 404.4 4000.1 404.4 4098.2 404.4 4098.2 592.8 4051.5 592.8 4037.5 592.8 3946.7 592.8" style="fill:#f2f2f2"/></g><g class="clickable" id="A2-4-03-H" data-name="customclass A2-4-03-H"><rect x="4686.6" y="288.5" width="463.3" height="101.8" style="fill:none"/></g><g class="clickable" id="A2-4-03-G" data-name="customclass A2-4-03-G"><rect x="4700.6" y="140.9" width="449.3" height="133.7" style="fill:#ddd"/></g><g class="clickable" id="A2-4-03-D" data-name="customclass A2-4-03-D"><path id="A2-4-03-D" d="M3042.5,592.8V404.4h376.4V606.8h138.7V758.2H3042.5V592.8Z" transform="translate(0 0)" style="fill:#ddd"/></g><g class="clickable" id="A2-4-03-C" data-name="customclass A2-4-03-C"><path id="A2-4-03-C" d="M3557.6,592.8V404.4h375.1V606.8h104.8V758.2H3557.6V592.8Z" transform="translate(0 0)" style="fill:#ddd"/></g><g class="clickable" id="A2-4-03-A" data-name="customclass A2-4-03-A"><polygon points="4098.2 390.4 4112.1 390.4 4112.1 592.8 4112.1 606.8 4098.2 606.8 4051.5 606.8 4051.5 758.2 4483 758.2 4483 390.4 4497 390.4 4536 390.4 4536 288.5 4536 274.5 4550 274.5 4686.6 274.5 4686.6 140.9 4587.8 140.9 4573.7 140.9 4048.9 140.9 4035 140.9 4000.1 140.9 4000.1 390.4 4098.2 390.4" style="fill:#ddd"/></g><g class="clickable" id="A2-4-03-B" data-name="customclass A2-4-03-B"><polygon points="5163.9 126.9 5163.9 33.6 5471.6 33.6 5471.6 390.4 5163.9 390.4 5163.9 288.5 5163.9 274.5 5163.9 140.9 5163.9 126.9" style="fill:#ddd"/></g><g class="clickable" id="A2-4-STAIR-F" data-name="customclass A2-4-STAIR-F"><path d="M1902.8,133.3H1537.1V26.1h364v1.2h1.8Zm-362.2-3.5h358.7V29.6H1540.6Z" transform="translate(0 0)" style="fill:#b7b7b7"/><rect x="1538" y="78" width="362.2" height="3.5" style="fill:#b7b7b7"/><polygon points="1878.9 132.3 1875.7 130.8 1898.6 79.7 1875.7 28.6 1878.9 27.2 1902.4 79.7 1878.9 132.3" style="fill:#b7b7b7"/><rect x="1630.7" y="27.9" width="3.5" height="103.7" style="fill:#b7b7b7"/><rect x="1606.8" y="27.9" width="3.5" height="103.7" style="fill:#b7b7b7"/><rect x="1559.2" y="27.9" width="3.5" height="103.7" style="fill:#b7b7b7"/><rect x="1583" y="27.9" width="3.5" height="103.7" style="fill:#b7b7b7"/><rect x="1726.1" y="27.9" width="3.5" height="103.7" style="fill:#b7b7b7"/><rect x="1749.9" y="27.9" width="3.5" height="103.7" style="fill:#b7b7b7"/><rect x="1773.8" y="27.9" width="3.5" height="103.7" style="fill:#b7b7b7"/><rect x="1797.7" y="27.9" width="3.5" height="103.7" style="fill:#b7b7b7"/><rect x="1821.5" y="27.9" width="3.5" height="103.7" style="fill:#b7b7b7"/><rect x="1845.4" y="27.9" width="3.5" height="103.7" style="fill:#b7b7b7"/><rect x="1867.9" y="27.9" width="3.5" height="103.7" style="fill:#b7b7b7"/><rect x="2172.9" y="78" width="117.9" height="3.5" style="fill:#b7b7b7"/><rect x="2195.1" y="27.9" width="3.5" height="103.7" style="fill:#b7b7b7"/><rect x="2218.9" y="27.9" width="3.5" height="103.7" style="fill:#b7b7b7"/><rect x="2242.8" y="27.9" width="3.5" height="103.7" style="fill:#b7b7b7"/><rect x="2266.1" y="27.9" width="3.5" height="103.7" style="fill:#b7b7b7"/><rect x="2287.7" y="27.9" width="3.5" height="103.7" style="fill:#b7b7b7"/><path d="M2654.2,133.3H2171.9V26.1h480.6v1.2h1.8v106Zm-478.8-3.5h475.3V29.6H2175.4Z" transform="translate(0 0)" style="fill:#b7b7b7"/><rect x="2289.4" y="78" width="362.2" height="3.5" style="fill:#b7b7b7"/><polygon points="2630.3 132.3 2627.1 130.8 2650 79.7 2627.1 28.6 2630.3 27.2 2653.8 79.7 2630.3 132.3" style="fill:#b7b7b7"/><rect x="2382.1" y="27.9" width="3.5" height="103.7" style="fill:#b7b7b7"/><rect x="2358.2" y="27.9" width="3.5" height="103.7" style="fill:#b7b7b7"/><rect x="2310.5" y="27.9" width="3.5" height="103.7" style="fill:#b7b7b7"/><rect x="2334.4" y="27.9" width="3.5" height="103.7" style="fill:#b7b7b7"/><rect x="2477.5" y="27.9" width="3.5" height="103.7" style="fill:#b7b7b7"/><rect x="2501.4" y="27.9" width="3.5" height="103.7" style="fill:#b7b7b7"/><rect x="2525.2" y="27.9" width="3.5" height="103.7" style="fill:#b7b7b7"/><rect x="2549.1" y="27.9" width="3.5" height="103.7" style="fill:#b7b7b7"/><rect x="2572.9" y="27.9" width="3.5" height="103.7" style="fill:#b7b7b7"/><rect x="2596.8" y="27.9" width="3.5" height="103.7" style="fill:#b7b7b7"/><rect x="2619.4" y="27.9" width="3.5" height="103.7" style="fill:#b7b7b7"/><g id="a-3"><polygon points="1542.5 126.9 1542.5 28 2651.9 28 2651.9 126.9 1542.5 126.9" style="fill:none"/></g></g><g class="clickable" id="A2-4-LIFT-D" data-name="customclass A2-4-LIFT-D"><rect id="A2-4-LIFT-D" x="4550" y="393.4" width="136.6" height="364.9" style="fill:#f2f2f2"/></g><g class="clickable" id="A2-4-STAIR-D" data-name="customclass A2-4-STAIR-D"><g id="scale"><polygon points="5152.7 762.6 4811.9 762.6 4811.9 659.9 5038.3 659.9 5038.3 639.6 4831.5 639.6 4831.5 539.2 5152.7 539.2 5152.7 542.7 4835 542.7 4835 636 5041.9 636 5041.9 663.4 4815.4 663.4 4815.4 759.1 5152.7 759.1 5152.7 762.6" style="fill:#b7b7b7"/><polygon points="5088.4 714.7 4814.1 714.7 4814.1 711.2 5084.8 711.2 5084.8 592.7 4832.8 592.7 4832.8 589.1 5088.4 589.1 5088.4 714.7" style="fill:#b7b7b7"/><rect x="4994.1" y="660.8" width="3.5" height="100.8" style="fill:#b7b7b7"/><rect x="5015.1" y="660.8" width="3.5" height="100.8" style="fill:#b7b7b7"/><rect x="5035.1" y="660.8" width="3.5" height="100.8" style="fill:#b7b7b7"/><rect x="4973.6" y="660.8" width="3.5" height="100.8" style="fill:#b7b7b7"/><rect x="5035.1" y="541" width="3.5" height="96.8" style="fill:#b7b7b7"/><rect x="5015.1" y="541" width="3.5" height="96.8" style="fill:#b7b7b7"/><rect x="4994.1" y="541" width="3.5" height="96.8" style="fill:#b7b7b7"/><rect x="4973.6" y="541" width="3.5" height="96.8" style="fill:#b7b7b7"/><rect x="4953.1" y="541" width="3.5" height="96.8" style="fill:#b7b7b7"/><rect x="4933.1" y="541" width="3.5" height="96.8" style="fill:#b7b7b7"/><rect x="4912.9" y="541" width="3.5" height="96.8" style="fill:#b7b7b7"/><rect x="4851.2" y="541" width="3.5" height="96.8" style="fill:#b7b7b7"/><polygon points="4851.1 638 4831.9 590.8 4850.6 540.3 4853.9 541.6 4835.6 590.7 4854.3 636.7 4851.1 638" style="fill:#b7b7b7"/><polygon points="4978.5 760.5 4975.3 759.2 4993.8 713.5 4973.8 664.2 4977 662.9 4997.6 713.5 4978.5 760.5" style="fill:#b7b7b7"/><polygon points="4874.3 663.6 4808.6 663.6 4808.6 636 4833 636 4833 639.6 4812.1 639.6 4812.1 660.1 4874.3 660.1 4874.3 663.6" style="fill:#b7b7b7"/><rect x="4978.54" y="687.31" width="55" height="3.5" transform="translate(2474.83 5062.64) rotate(-67.78)" style="fill:#b7b7b7"/><rect x="4892.7" y="660.8" width="3.5" height="100.8" style="fill:#b7b7b7"/><rect x="4933.3" y="660.8" width="3.5" height="100.8" style="fill:#b7b7b7"/><rect x="4913" y="660.8" width="3.5" height="100.8" style="fill:#b7b7b7"/><rect x="4953.6" y="660.8" width="3.5" height="100.8" style="fill:#b7b7b7"/><rect x="4872.5" y="660.8" width="3.5" height="100.8" style="fill:#b7b7b7"/><rect x="4852.1" y="660.8" width="3.5" height="100.8" style="fill:#b7b7b7"/><rect x="4831.9" y="660.8" width="3.5" height="100.8" style="fill:#b7b7b7"/><rect x="4893" y="541" width="3.5" height="96.8" style="fill:#b7b7b7"/><rect x="4872.2" y="541" width="3.5" height="96.8" style="fill:#b7b7b7"/></g><g id="a-4"><polygon points="4808.8 541 4822.8 541 4953.9 541 4967.9 541 5150 541 5150 758.2 4700.6 758.2 4700.6 541.8 4808.8 541" style="fill:none"/></g></g><g class="clickable" id="A2-4-LIFT-C" data-name="customclass A2-4-LIFT-C"><rect id="_A2-4-LIFT-C" data-name=" A2-4-LIFT-C" x="540.5" y="404.4" width="155.1" height="122.2" style="fill:#f2f2f2"/></g><g class="clickable" id="A2-4-STAIR-C" data-name="customclass A2-4-STAIR-C"><g id="scale-2"><polygon points="697.4 762.6 356.7 762.6 356.7 759.1 693.9 759.1 693.9 663.4 467.4 663.4 467.4 636 674.3 636 674.3 542.7 356.7 542.7 356.7 539.2 677.8 539.2 677.8 639.6 470.9 639.6 470.9 659.9 697.4 659.9 697.4 762.6" style="fill:#b7b7b7"/><polygon points="695.2 714.7 420.9 714.7 420.9 589.1 676.5 589.1 676.5 592.7 424.4 592.7 424.4 711.2 695.2 711.2 695.2 714.7" style="fill:#b7b7b7"/><rect x="511.7" y="660.8" width="3.5" height="100.8" style="fill:#b7b7b7"/><rect x="490.7" y="660.8" width="3.5" height="100.8" style="fill:#b7b7b7"/><rect x="470.6" y="660.8" width="3.5" height="100.8" style="fill:#b7b7b7"/><rect x="532.2" y="660.8" width="3.5" height="100.8" style="fill:#b7b7b7"/><rect x="470.6" y="541" width="3.5" height="96.8" style="fill:#b7b7b7"/><rect x="490.7" y="541" width="3.5" height="96.8" style="fill:#b7b7b7"/><rect x="511.7" y="541" width="3.5" height="96.8" style="fill:#b7b7b7"/><rect x="532.2" y="541" width="3.5" height="96.8" style="fill:#b7b7b7"/><rect x="552.7" y="541" width="3.5" height="96.8" style="fill:#b7b7b7"/><rect x="572.7" y="541" width="3.5" height="96.8" style="fill:#b7b7b7"/><rect x="592.9" y="541" width="3.5" height="96.8" style="fill:#b7b7b7"/><rect x="654.5" y="541" width="3.5" height="96.8" style="fill:#b7b7b7"/><polygon points="658.2 638 654.9 636.7 673.6 590.7 655.3 541.6 658.6 540.3 677.4 590.8 658.2 638" style="fill:#b7b7b7"/><polygon points="530.8 760.5 511.7 713.5 532.3 662.9 535.6 664.2 515.5 713.5 534 759.2 530.8 760.5" style="fill:#b7b7b7"/><polygon points="700.7 663.6 635 663.6 635 660.1 697.2 660.1 697.2 639.6 676.3 639.6 676.3 636 700.7 636 700.7 663.6" style="fill:#b7b7b7"/><rect x="501.4" y="660.5" width="3.5" height="55" transform="translate(-222.73 241.24) rotate(-22.21)" style="fill:#b7b7b7"/><rect x="613.1" y="660.8" width="3.5" height="100.8" style="fill:#b7b7b7"/><rect x="572.5" y="660.8" width="3.5" height="100.8" style="fill:#b7b7b7"/><rect x="592.8" y="660.8" width="3.5" height="100.8" style="fill:#b7b7b7"/><rect x="552.2" y="660.8" width="3.5" height="100.8" style="fill:#b7b7b7"/><rect x="633.3" y="660.8" width="3.5" height="100.8" style="fill:#b7b7b7"/><rect x="653.6" y="660.8" width="3.5" height="100.8" style="fill:#b7b7b7"/><rect x="673.9" y="660.8" width="3.5" height="100.8" style="fill:#b7b7b7"/><rect x="612.8" y="541" width="3.5" height="96.8" style="fill:#b7b7b7"/><rect x="633.6" y="541" width="3.5" height="96.8" style="fill:#b7b7b7"/></g><g id="a-5"><polygon points="807.4 539.9 807.4 758.2 358.5 758.2 358.5 540.5 526.5 540.5 540.5 540.5 659.7 540.5 673.8 540.5 700 540.5 807.4 539.9" style="fill:none"/></g></g><g class="clickable" id="A2-4-02-A" data-name="customclass A2-4-02-A"><path id="_gruppo_5" data-name="&lt;gruppo&gt;" d="M4822.8,404.4h131.1V527H4822.8Z" transform="translate(0 0)" style="fill:#ddd"/></g><path id="muri" d="M330.5,460.7V786.6H5178V418.4h322V10.2H4020.9V112.9h-48.8V376.4H2975.9V.1H0V460.9ZM857,758.2H821.4V404.4H857ZM4536,505.3V758.2h-39.1V404.4H4536ZM4049,33.6H5150v93.3H4049ZM388.3,28H1524.4V140.9h896.1V390.4H1412.9V126.9H388.2ZM28,28H374.3V265.2h14V140.9H857.1V265.2h14V140.9h527.8V390.4h-69.2v14h6V606.8h17.8v-14h-3.8V404.4H1465V592.8h-59v14h73V404.4h363.6V606.7H1865v-14h-8.5V404.4h118V592.8h-56.8v14h70.9V404.4h375.1v213h14V606.7h17.8v-14h-17.8V404.4H2488V592.8h-39.9v14h335.2V490.5h-14V592.7H2502V404.4h267.3v18.3h14V334.9h-14v55.6H2434.6V140.9h334.7v126h14v-140H1537.7V28H2947.9V390.4h-71.3V606.8h68.8v-14h-54.7V404.4h137.9V592.8h-27.2v14h27.2V620h14V404.4h376.3V606.7h60.7v-14h-46.7V404.4h110.8V592.8h-3v14h17V404.4h375.1V606.7h15.3v-14h-1.3V404.4h151.5V592.8H4009v14h28.4v3.8h14v-3.8h60.7V390.4h-112V140.9h686.5V274.6H4536v16.1h14v-2.1h358.6v-14H4700.7V140.9H5150V274.6H4963.3v14H5150v23.7h14V33.6h307.6V390.4H5163.9v-8.5h-14v8.5h-82.7v14H5150V527H4967.9v-6.6h0v-130H4802.8v14h6V541H5150V758.3H4700.7V404.4h12.7V390.3h-26.7V758.1H4550.1v-395h-14v27.2h-53V758.1H4051.6V678.3h-14v79.8H3042.5V687.7h-14v70.4H2377.7v-73h-14v73H871.1V404.4h392.5v-14H871.1V337h-14v53.5H804.5v14h3V758.3h-449V540.5H700.1v-14H540.5V404.4h174v-14H459.1v14h67.4V526.6h-168V404.4h47.6v-14H388.3V337h-14v53.5H344.6v42.4H28ZM4953.9,404.3V517.2h0V527H4822.8V404.4Z" transform="translate(0 0)" style="fill:#b7b7b7"/></svg>