<svg id="Livello_1" data-name="Livello 1" xmlns="http://www.w3.org/2000/svg" xmlns:xlink="http://www.w3.org/1999/xlink" viewBox="0 0 5500 2479.09"><defs><pattern id="stanzetta_2_" data-name="stanzetta 2 " width="57" height="57" patternTransform="matrix(-0.42, 0, 0, 0.42, -13344.68, 9771.34)" patternUnits="userSpaceOnUse" viewBox="0 0 57 57"><rect width="57" height="57" style="fill:none"/><rect width="57" height="57" style="fill:none"/><rect width="57" height="57" style="fill:none"/><rect width="57" height="57" style="fill:none"/><rect width="57" height="57" style="fill:none"/><rect width="57" height="57" style="fill:none"/><rect width="57" height="57" style="fill:none"/><rect width="57" height="57" style="fill:none"/><rect x="53" y="-53" width="60" height="58" style="fill:#f2f2f2"/><line x1="57" x2="114" y2="-57" style="fill:none;stroke:#ddd;stroke-linecap:square;stroke-linejoin:round;stroke-width:20px"/><rect x="-4" y="-53" width="60" height="58" style="fill:#f2f2f2"/><line x2="57" y2="-57" style="fill:none;stroke:#ddd;stroke-linecap:square;stroke-linejoin:round;stroke-width:20px"/><line x1="-57" y2="-57" style="fill:none;stroke:#ddd;stroke-linecap:square;stroke-linejoin:round;stroke-width:20px"/><rect x="53" y="4" width="60" height="58" style="fill:#f2f2f2"/><line x1="57" y1="57" x2="114" style="fill:none;stroke:#ddd;stroke-linecap:square;stroke-linejoin:round;stroke-width:20px"/><rect x="-4" y="4" width="60" height="58" style="fill:#f2f2f2"/><line y1="57" x2="57" style="fill:none;stroke:#ddd;stroke-linecap:square;stroke-linejoin:round;stroke-width:20px"/><line x1="-57" y1="57" style="fill:none;stroke:#ddd;stroke-linecap:square;stroke-linejoin:round;stroke-width:20px"/><line x1="57" y1="114" x2="114" y2="57" style="fill:none;stroke:#ddd;stroke-linecap:square;stroke-linejoin:round;stroke-width:20px"/><line y1="114" x2="57" y2="57" style="fill:none;stroke:#ddd;stroke-linecap:square;stroke-linejoin:round;stroke-width:20px"/><line x1="-57" y1="114" y2="57" style="fill:none;stroke:#ddd;stroke-linecap:square;stroke-linejoin:round;stroke-width:20px"/></pattern></defs><rect id="stanzetta" x="4822.79" y="404.35" width="131.13" height="122.63" style="fill:url(#stanzetta_2_)"/><polygon id="background" points="0 460.81 330.53 460.81 330.53 786.64 5177.97 786.64 5177.97 418.39 5500 418.39 5500 10.18 4020.91 10.18 4020.91 112.87 3972.17 112.87 3972.17 376.39 2975.88 376.39 2975.88 0 843.04 0 402.24 0 0 0 0 460.81" style="fill:#f2f2f2"/><polygon id="locale_tecnico" data-name="locale tecnico" points="4496.97 758.19 4496.97 404.35 4536.02 404.35 4536.02 505.34 4536.02 519.32 4536.02 758.19 4496.97 758.19" style="fill:url(#stanzetta_2_)"/><polygon id="locale_tecnico-2" data-name="locale tecnico-2" points="4049.5 126.92 4049.5 33.57 5149.95 33.57 5149.95 126.92 4700.65 126.92 4686.6 126.92 4049.5 126.92" style="fill:url(#stanzetta_2_)"/><rect id="locale_tecnico-3" data-name="locale tecnico-3" x="821.4" y="404.35" width="35.61" height="353.85" style="fill:url(#stanzetta_2_)"/><polygon id="locale_tecnico-4" data-name="locale tecnico-4" points="1412.86 390.37 1412.86 127.55 387.49 127.55 387.49 25.92 1526.22 25.92 1526.22 140.89 2420.53 140.89 2420.53 390.37 2377.68 390.37 2363.7 390.37 1988.65 390.37 1974.6 390.37 1856.67 390.37 1842.63 390.37 1479.02 390.37 1465.04 390.37 1412.86 390.37" style="fill:url(#stanzetta_2_)"/><rect id="senza_codice" data-name="senza codice" x="2502" y="404.35" width="267.32" height="188.37" style="fill:#ddd"/><polygon id="senza_codice-2" data-name="senza codice-2" points="2377.68 758.19 2377.68 606.76 2488.02 606.76 2502 606.76 2769.32 606.76 2783.29 606.76 2783.29 592.79 2783.29 404.35 2876.64 404.35 2876.64 592.79 2876.64 606.76 2890.61 606.76 3028.55 606.76 3028.55 758.19 2377.68 758.19" style="fill:#f2f2f2"/><polygon id="senza_codice-3" data-name="senza codice-3" points="388.19 390.37 388.19 140.89 857.01 140.89 857.01 390.37 821.4 390.37 807.43 390.37 673.77 390.37 659.72 390.37 540.53 390.37 526.55 390.37 388.19 390.37" style="fill:#ddd"/><g class="clickable" id="A2-4-02-A" data-name="customclass A2-4-02-A"><rect id="a" x="4550" y="393.39" width="136.61" height="364.87" style="fill:#f2f2f2"/></g><g class="clickable" id="A2-4-14-B" data-name="customclass A2-4-14-B"><rect id="a-2" x="540.53" y="404.35" width="155.08" height="122.21" style="fill:#f2f2f2"/></g><g class="clickable" id="A2-4-13" data-name="customclass A2-4-13"><polygon points="358.55 432.79 358.55 404.35 374.21 404.35 388.19 404.35 526.55 404.35 526.55 526.55 358.55 526.55 358.55 446.77 358.55 432.79" style="fill:#f2f2f2"/></g><g class="clickable" id="A2-4-11" data-name="customclass A2-4-11"><polygon points="1349.64 592.79 1349.64 404.35 1398.88 404.35 1412.86 404.35 1465.04 404.35 1465.04 592.79 1349.64 592.79" style="fill:#f2f2f2"/></g><g class="clickable" id="A2-4-10" data-name="customclass A2-4-10"><rect x="1856.67" y="404.35" width="117.93" height="188.37" style="fill:#f2f2f2"/></g><g class="clickable" id="A2-4-09-F" data-name="customclass A2-4-09-F"><polygon points="1988.65 592.79 1988.65 404.35 2363.7 404.35 2363.7 592.79 2363.7 606.76 2363.7 758.19 1988.65 758.19 1988.65 606.76 1988.65 592.79" style="fill:#ddd"/></g><g class="clickable" id="A2-4-09-E" data-name="customclass A2-4-09-E"><polygon points="1335.67 758.19 1335.67 606.76 1465.04 606.76 1479.02 606.76 1479.02 592.79 1479.02 404.35 1842.63 404.35 1842.63 592.79 1842.63 606.76 1856.67 606.76 1988.65 606.76 1988.65 758.19 1335.67 758.19" style="fill:#ddd"/></g><g class="clickable" id="A2-4-09-D" data-name="customclass A2-4-09-D"><polygon points="871.06 758.19 871.06 404.35 1335.67 404.35 1335.67 592.79 1335.67 606.76 1335.67 758.19 871.06 758.19" style="fill:#ddd"/></g><g class="clickable" id="A2-4-09-B" data-name="customclass A2-4-09-B"><polygon points="871.06 390.37 871.06 140.89 1398.88 140.89 1398.88 390.37 1349.64 390.37 1335.67 390.37 871.06 390.37" style="fill:#ddd"/></g><g class="clickable" id="A2-4-09-B-2" data-name="customclass A2-4-09-B-2"><polygon points="28.02 32.94 28.02 28.02 374.21 28.02 374.21 126.92 374.21 140.89 374.21 390.37 358.55 390.37 344.5 390.37 344.5 404.35 344.5 432.79 28.02 432.79 28.02 32.94" style="fill:#ddd"/></g><g class="clickable" id="A2-4-08" data-name="customclass A2-4-08"><polygon points="2377.68 592.79 2377.68 404.35 2420.53 404.35 2434.5 404.35 2488.02 404.35 2488.02 592.79 2377.68 592.79" style="fill:#f2f2f2"/></g><g class="clickable" id="A2-4-07" data-name="customclass A2-4-07"><polygon points="2890.61 592.79 2890.61 404.35 2947.92 404.35 2961.9 404.35 3028.55 404.35 3028.55 592.79 2890.61 592.79" style="fill:#f2f2f2"/></g><g class="clickable" id="A2-4-06-B" data-name="customclass A2-4-06-B"><polygon points="2434.5 390.37 2434.5 140.89 2769.32 140.89 2769.32 390.37 2502 390.37 2488.02 390.37 2434.5 390.37" style="fill:#ddd"/></g><g class="clickable" id="A2-4-06-A" data-name="customclass A2-4-06-A"><rect x="2784.56" y="29.36" width="163.37" height="361.01" style="fill:none"/></g><g class="clickable" id="A2-4-05" data-name="customclass A2-4-05"><rect x="3432.83" y="404.35" width="110.76" height="188.37" style="fill:#f2f2f2"/></g><g class="clickable" id="A2-4-04" data-name="customclass A2-4-04"><polygon points="3946.67 592.79 3946.67 404.35 3986.14 404.35 4000.12 404.35 4098.17 404.35 4098.17 592.79 4051.46 592.79 4037.49 592.79 3946.67 592.79" style="fill:#f2f2f2"/></g><g class="clickable" id="A2-4-03-H" data-name="customclass A2-4-03-H"><rect x="4686.6" y="288.53" width="463.34" height="101.84" style="fill:none"/></g><g class="clickable" id="A2-4-03-G" data-name="customclass A2-4-03-G"><rect x="4700.65" y="140.89" width="449.3" height="133.66" style="fill:#ddd"/></g><g class="clickable" id="A2-4-03-E" data-name="customclass A2-4-03-E"><polygon points="3042.53 592.79 3042.53 404.35 3418.85 404.35 3418.85 592.79 3418.85 606.76 3432.83 606.76 3557.64 606.76 3557.64 758.19 3042.53 758.19 3042.53 606.76 3042.53 592.79" style="fill:#ddd"/></g><g class="clickable" id="A2-4-03-D" data-name="customclass A2-4-03-D"><polygon points="3557.64 592.79 3557.64 404.35 3932.7 404.35 3932.7 592.79 3932.7 606.76 3946.67 606.76 4037.49 606.76 4037.49 758.19 3557.64 758.19 3557.64 606.76 3557.64 592.79" style="fill:#ddd"/></g><g class="clickable" id="A2-4-03-C" data-name="customclass A2-4-03-C"><polygon points="4098.17 390.37 4112.15 390.37 4112.15 592.79 4112.15 606.76 4098.17 606.76 4051.46 606.76 4051.46 758.19 4482.99 758.19 4482.99 390.37 4496.97 390.37 4536.02 390.37 4536.02 288.53 4536.02 274.55 4549.99 274.55 4686.6 274.55 4686.6 140.89 4587.78 140.89 4573.73 140.89 4048.93 140.89 4034.96 140.89 4000.12 140.89 4000.12 390.37 4098.17 390.37" style="fill:#ddd"/></g><g class="clickable" id="A2-4-03-B" data-name="customclass A2-4-03-B"><polygon points="5163.92 126.92 5163.92 33.57 5471.56 33.57 5471.56 390.37 5163.92 390.37 5163.92 288.53 5163.92 274.55 5163.92 140.89 5163.92 126.92" style="fill:#ddd"/></g><g class="clickable" id="A2-4-17" data-name="customclass A2-4-17"><path d="M1902.82,133.31H1537.1V26.13h364v1.19h1.76Zm-362.2-3.51h358.69V29.64H1540.62Z" style="fill:#b7b7b7"/><rect x="1538.02" y="77.96" width="362.2" height="3.51" style="fill:#b7b7b7"/><polygon points="1878.93 132.27 1875.72 130.83 1898.58 79.72 1875.72 28.6 1878.93 27.17 1902.42 79.72 1878.93 132.27" style="fill:#b7b7b7"/><rect x="1630.66" y="27.88" width="3.51" height="103.67" style="fill:#b7b7b7"/><rect x="1606.85" y="27.88" width="3.51" height="103.67" style="fill:#b7b7b7"/><rect x="1559.16" y="27.88" width="3.51" height="103.67" style="fill:#b7b7b7"/><rect x="1582.97" y="27.88" width="3.51" height="103.67" style="fill:#b7b7b7"/><rect x="1726.11" y="27.88" width="3.51" height="103.67" style="fill:#b7b7b7"/><rect x="1749.92" y="27.88" width="3.51" height="103.67" style="fill:#b7b7b7"/><rect x="1773.8" y="27.88" width="3.51" height="103.67" style="fill:#b7b7b7"/><rect x="1797.68" y="27.88" width="3.51" height="103.67" style="fill:#b7b7b7"/><rect x="1821.49" y="27.88" width="3.51" height="103.67" style="fill:#b7b7b7"/><rect x="1845.37" y="27.88" width="3.51" height="103.67" style="fill:#b7b7b7"/><rect x="1867.91" y="27.88" width="3.51" height="103.67" style="fill:#b7b7b7"/><rect x="2172.88" y="77.96" width="117.86" height="3.51" style="fill:#b7b7b7"/><rect x="2195.07" y="27.88" width="3.51" height="103.67" style="fill:#b7b7b7"/><rect x="2218.95" y="27.88" width="3.51" height="103.67" style="fill:#b7b7b7"/><rect x="2242.76" y="27.88" width="3.51" height="103.67" style="fill:#b7b7b7"/><rect x="2266.08" y="27.88" width="3.51" height="103.67" style="fill:#b7b7b7"/><rect x="2287.71" y="27.88" width="3.51" height="103.67" style="fill:#b7b7b7"/><path d="M2654.2,133.31H2171.89V26.13h480.55v1.19h1.76Zm-478.8-3.51h475.29V29.64H2175.4Z" style="fill:#b7b7b7"/><rect x="2289.4" y="77.96" width="362.2" height="3.51" style="fill:#b7b7b7"/><polygon points="2630.31 132.27 2627.1 130.83 2649.96 79.72 2627.1 28.6 2630.31 27.17 2653.8 79.72 2630.31 132.27" style="fill:#b7b7b7"/><rect x="2382.11" y="27.88" width="3.51" height="103.67" style="fill:#b7b7b7"/><rect x="2358.23" y="27.88" width="3.51" height="103.67" style="fill:#b7b7b7"/><rect x="2310.54" y="27.88" width="3.51" height="103.67" style="fill:#b7b7b7"/><rect x="2334.42" y="27.88" width="3.51" height="103.67" style="fill:#b7b7b7"/><rect x="2477.49" y="27.88" width="3.51" height="103.67" style="fill:#b7b7b7"/><rect x="2501.37" y="27.88" width="3.51" height="103.67" style="fill:#b7b7b7"/><rect x="2525.18" y="27.88" width="3.51" height="103.67" style="fill:#b7b7b7"/><rect x="2549.06" y="27.88" width="3.51" height="103.67" style="fill:#b7b7b7"/><rect x="2572.94" y="27.88" width="3.51" height="103.67" style="fill:#b7b7b7"/><rect x="2596.75" y="27.88" width="3.51" height="103.67" style="fill:#b7b7b7"/><rect x="2619.36" y="27.88" width="3.51" height="103.67" style="fill:#b7b7b7"/><g id="a-3"><polygon points="1542.51 126.92 1542.51 28.02 2651.88 28.02 2651.88 126.92 1542.51 126.92" style="fill:none"/></g></g><g class="clickable" id="A2-4-01" data-name="customclass A2-4-01"><g id="scale"><polygon points="5152.69 762.62 4811.9 762.62 4811.9 659.86 5038.34 659.86 5038.34 639.56 4831.5 639.56 4831.5 539.2 5152.69 539.2 5152.69 542.71 4835.01 542.71 4835.01 636.05 5041.85 636.05 5041.85 663.37 4815.41 663.37 4815.41 759.11 5152.69 759.11 5152.69 762.62" style="fill:#b7b7b7"/><polygon points="5088.35 714.72 4814.08 714.72 4814.08 711.2 5084.84 711.2 5084.84 592.65 4832.76 592.65 4832.76 589.13 5088.35 589.13 5088.35 714.72" style="fill:#b7b7b7"/><rect x="4994.09" y="660.85" width="3.51" height="100.79" style="fill:#b7b7b7"/><rect x="5015.09" y="660.85" width="3.51" height="100.79" style="fill:#b7b7b7"/><rect x="5035.11" y="660.85" width="3.51" height="100.79" style="fill:#b7b7b7"/><rect x="4973.59" y="660.85" width="3.51" height="100.79" style="fill:#b7b7b7"/><rect x="5035.11" y="540.95" width="3.51" height="96.85" style="fill:#b7b7b7"/><rect x="5015.09" y="540.95" width="3.51" height="96.85" style="fill:#b7b7b7"/><rect x="4994.09" y="540.95" width="3.51" height="96.85" style="fill:#b7b7b7"/><rect x="4973.59" y="540.95" width="3.51" height="96.85" style="fill:#b7b7b7"/><rect x="4953.08" y="540.95" width="3.51" height="96.85" style="fill:#b7b7b7"/><rect x="4933.06" y="540.95" width="3.51" height="96.85" style="fill:#b7b7b7"/><rect x="4912.9" y="540.95" width="3.51" height="96.85" style="fill:#b7b7b7"/><rect x="4851.23" y="540.95" width="3.51" height="96.85" style="fill:#b7b7b7"/><polygon points="4851.08 637.98 4831.86 590.78 4850.64 540.34 4853.93 541.57 4835.63 590.72 4854.34 636.65 4851.08 637.98" style="fill:#b7b7b7"/><polygon points="4978.51 760.54 4975.26 759.22 4993.81 713.45 4973.78 664.25 4977.04 662.92 4997.6 713.45 4978.51 760.54" style="fill:#b7b7b7"/><polygon points="4874.34 663.59 4808.6 663.59 4808.6 636.05 4832.97 636.05 4832.97 639.56 4812.11 639.56 4812.11 660.07 4874.34 660.07 4874.34 663.59" style="fill:#b7b7b7"/><rect x="4978.6" y="686.24" width="55" height="3.51" transform="translate(2476.3 5062.29) rotate(-67.78)" style="fill:#b7b7b7"/><rect x="4892.74" y="660.85" width="3.51" height="100.79" style="fill:#b7b7b7"/><rect x="4933.27" y="660.85" width="3.51" height="100.79" style="fill:#b7b7b7"/><rect x="4913.04" y="660.85" width="3.51" height="100.79" style="fill:#b7b7b7"/><rect x="4953.57" y="660.85" width="3.51" height="100.79" style="fill:#b7b7b7"/><rect x="4872.45" y="660.85" width="3.51" height="100.79" style="fill:#b7b7b7"/><rect x="4852.15" y="660.85" width="3.51" height="100.79" style="fill:#b7b7b7"/><rect x="4831.85" y="660.85" width="3.51" height="100.79" style="fill:#b7b7b7"/><rect x="4892.95" y="540.95" width="3.51" height="96.85" style="fill:#b7b7b7"/><rect x="4872.17" y="540.95" width="3.51" height="96.85" style="fill:#b7b7b7"/></g><g id="a-4"><polygon points="4808.81 540.95 4822.79 540.95 4953.92 540.95 4967.9 540.95 5149.95 540.95 5149.95 758.19 4700.65 758.19 4700.65 541.8 4808.81 540.95" style="fill:none"/></g></g><g class="clickable" id="A2-4-14" data-name="customclass A2-4-14"><g id="scale-2"><polygon points="697.44 762.62 356.66 762.62 356.66 759.11 693.93 759.11 693.93 663.37 467.42 663.37 467.42 636.05 674.33 636.05 674.33 542.71 356.66 542.71 356.66 539.2 677.84 539.2 677.84 639.56 470.93 639.56 470.93 659.86 697.44 659.86 697.44 762.62" style="fill:#b7b7b7"/><polygon points="695.19 714.72 420.92 714.72 420.92 589.13 676.51 589.13 676.51 592.65 424.43 592.65 424.43 711.2 695.19 711.2 695.19 714.72" style="fill:#b7b7b7"/><rect x="511.67" y="660.85" width="3.51" height="100.79" style="fill:#b7b7b7"/><rect x="490.67" y="660.85" width="3.51" height="100.79" style="fill:#b7b7b7"/><rect x="470.65" y="660.85" width="3.51" height="100.79" style="fill:#b7b7b7"/><rect x="532.17" y="660.85" width="3.51" height="100.79" style="fill:#b7b7b7"/><rect x="470.65" y="540.95" width="3.51" height="96.85" style="fill:#b7b7b7"/><rect x="490.67" y="540.95" width="3.51" height="96.85" style="fill:#b7b7b7"/><rect x="511.67" y="540.95" width="3.51" height="96.85" style="fill:#b7b7b7"/><rect x="532.17" y="540.95" width="3.51" height="96.85" style="fill:#b7b7b7"/><rect x="552.68" y="540.95" width="3.51" height="96.85" style="fill:#b7b7b7"/><rect x="572.7" y="540.95" width="3.51" height="96.85" style="fill:#b7b7b7"/><rect x="592.86" y="540.95" width="3.51" height="96.85" style="fill:#b7b7b7"/><rect x="654.52" y="540.95" width="3.51" height="96.85" style="fill:#b7b7b7"/><polygon points="658.19 637.98 654.93 636.65 673.64 590.72 655.34 541.57 658.63 540.34 677.41 590.78 658.19 637.98" style="fill:#b7b7b7"/><polygon points="530.76 760.54 511.67 713.45 532.3 662.92 535.56 664.25 515.46 713.46 534.01 759.22 530.76 760.54" style="fill:#b7b7b7"/><polygon points="700.74 663.59 635 663.59 635 660.07 697.23 660.07 697.23 639.56 676.3 639.56 676.3 636.05 700.74 636.05 700.74 663.59" style="fill:#b7b7b7"/><rect x="501.41" y="660.49" width="3.51" height="55" transform="translate(-222.72 241.23) rotate(-22.21)" style="fill:#b7b7b7"/><rect x="613.09" y="660.85" width="3.51" height="100.79" style="fill:#b7b7b7"/><rect x="572.49" y="660.85" width="3.51" height="100.79" style="fill:#b7b7b7"/><rect x="592.79" y="660.85" width="3.51" height="100.79" style="fill:#b7b7b7"/><rect x="552.19" y="660.85" width="3.51" height="100.79" style="fill:#b7b7b7"/><rect x="633.31" y="660.85" width="3.51" height="100.79" style="fill:#b7b7b7"/><rect x="653.61" y="660.85" width="3.51" height="100.79" style="fill:#b7b7b7"/><rect x="673.91" y="660.85" width="3.51" height="100.79" style="fill:#b7b7b7"/><rect x="612.8" y="540.95" width="3.51" height="96.85" style="fill:#b7b7b7"/><rect x="633.59" y="540.95" width="3.51" height="96.85" style="fill:#b7b7b7"/></g><g id="a-5"><polygon points="807.43 539.9 807.43 758.19 358.55 758.19 358.55 540.53 526.55 540.53 540.53 540.53 659.72 540.53 673.77 540.53 700.04 540.53 807.43 539.9" style="fill:none"/></g></g><path id="muri" d="M330.53,460.74v325.9H5178V418.39h322V10.25H4020.91V112.94H3972.1V376.46H2975.88V.07H0V460.82ZM857,758.19H821.4V404.35H857ZM4536,505.34V758.19H4496.9V404.42H4536Zm-487-471.77H5150v93.28h-1101ZM388.26,28H1524.39V140.89h896.14V390.37H1412.86V126.92H388.19ZM28,28H374.28V265.21h14V140.89H857.08V265.21h14V140.89h527.82V390.37h-69.25v14h6V606.76h17.77v-14h-3.8V404.35H1465V592.72h-59v14h73V404.42h363.61V606.76H1865v-14h-8.5V404.35h118V592.72h-56.82v14h70.87V404.42h375.05v213h14V606.76h17.84v-14h-17.84V404.35H2488V592.72h-39.89v14h335.16V490.52h-14v102.2H2501.93V404.35h267.31v18.26h14v-87.8h-14v55.56H2434.5V140.89h334.74v126h14v-140H1537.74V28H2947.92V390.37h-71.29V606.76h68.77v-14h-54.72V404.35h137.87V592.72h-27.18v14h27.18V619.9h14V404.42h376.32V606.76h60.69v-14h-46.71V404.35h110.76V592.72h-3v14h17V404.42H3932.7V606.76H3948v-14h-1.27V404.35h151.5V592.72H4009v14h28.45v3.8h14v-3.8h60.69V390.37h-112V140.89h686.55V274.55H4536v16.08h14v-2.1h358.56v-14h-207.9V140.89H5150V274.55H4963.26v14H5150v23.74h14V33.57h307.63v356.8H5163.92v-8.5h-14v8.5h-82.74v14H5150V527H4967.9v-6.61h0v-130H4802.84v14.05h6V541H5150V758.26h-449.3V404.42h12.71V390.37h-26.69V758.19h-136.6v-395h-14v27.18h-53V758.19H4051.6V678.4h-14v79.79h-995.1V687.75h-14v70.44H2377.68v-73h-14v73H871.06V404.35h392.48v-14H871.06V336.92h-14v53.45h-52.6v14h2.95V758.19H358.55V540.53H700.11v-14H540.53V404.35h174v-14H459.06v14h67.43V526.56H358.55V404.35H406.1v-14H388.26V336.92h-14v53.45h-29.7v42.42H28Zm4925.9,376.33V517.21h0V527H4822.79V404.35Z" style="fill:#b7b7b7"/></svg>