<svg id="Livello_1" data-name="Livello 1" xmlns="http://www.w3.org/2000/svg" xmlns:xlink="http://www.w3.org/1999/xlink" viewBox="0 0 5500 2479.09"><defs><pattern id="locale_tecnico-3_1_2" data-name="locale tecnico-3 1 2" width="57" height="57" patternTransform="translate(-5127.49 -8356.92) rotate(180) scale(0.42)" patternUnits="userSpaceOnUse" viewBox="0 0 57 57"><rect width="57" height="57" style="fill:none"/><rect width="57" height="57" style="fill:none"/><rect width="57" height="57" style="fill:none"/><rect width="57" height="57" style="fill:none"/><rect width="57" height="57" style="fill:none"/><rect width="57" height="57" style="fill:none"/><rect width="57" height="57" style="fill:none"/><rect x="53" y="52" width="60" height="58" style="fill:#f2f2f2"/><line x1="57" y1="57" x2="114" y2="114" style="fill:none;stroke:#ddd;stroke-linecap:square;stroke-linejoin:round;stroke-width:20px"/><rect x="-4" y="52" width="60" height="58" style="fill:#f2f2f2"/><line y1="57" x2="57" y2="114" style="fill:none;stroke:#ddd;stroke-linecap:square;stroke-linejoin:round;stroke-width:20px"/><line x1="-57" y1="57" y2="114" style="fill:none;stroke:#ddd;stroke-linecap:square;stroke-linejoin:round;stroke-width:20px"/><rect x="53" y="-5" width="60" height="58" style="fill:#f2f2f2"/><line x1="57" x2="114" y2="57" style="fill:none;stroke:#ddd;stroke-linecap:square;stroke-linejoin:round;stroke-width:20px"/><rect x="-4" y="-5" width="60" height="58" style="fill:#f2f2f2"/><line x2="57" y2="57" style="fill:none;stroke:#ddd;stroke-linecap:square;stroke-linejoin:round;stroke-width:20px"/><line x1="-57" y2="57" style="fill:none;stroke:#ddd;stroke-linecap:square;stroke-linejoin:round;stroke-width:20px"/><line x1="57" y1="-57" x2="114" style="fill:none;stroke:#ddd;stroke-linecap:square;stroke-linejoin:round;stroke-width:20px"/><line y1="-57" x2="57" style="fill:none;stroke:#ddd;stroke-linecap:square;stroke-linejoin:round;stroke-width:20px"/><line x1="-57" y1="-57" style="fill:none;stroke:#ddd;stroke-linecap:square;stroke-linejoin:round;stroke-width:20px"/></pattern></defs><polygon id="background" points="30.12 1067.1 332.09 1067.1 332.09 1132.39 332.09 1146.37 332.09 1363.94 332.09 1392.38 360.52 1392.38 809.22 1392.38 823.2 1392.38 885.12 1392.38 899.16 1392.38 4483.38 1392.38 4497.35 1392.38 4536.39 1392.38 4550.36 1392.38 4686.98 1392.38 4700.96 1392.38 5150.08 1392.38 5178.52 1392.38 5178.52 1363.94 5178.52 1146.79 5178.52 1132.82 5178.52 1081.91 5471.57 1081.91 5500 1081.91 5500 1053.55 5500 28.43 5500 0 5471.57 0 5164.05 0 5150.08 0 360.52 0 346.48 0 30.12 0 1.69 0 1.69 28.43 1.69 1038.67 1.69 1067.1 30.12 1067.1" style="fill:#f2f2f2"/><polygon id="locale_tecnico-3" data-name="locale tecnico-3" points="821.51 1132.82 821.51 1146.79 821.51 1364.36 883.43 1364.36 883.43 1010.65 821.51 1010.65 821.51 1132.82" style="fill:url(#locale_tecnico-3_1_2)"/><polygon id="locale_tecnico-4" data-name="locale tecnico-4" points="4495.67 1364.36 4534.7 1364.36 4534.7 1125.58 4534.7 1111.61 4534.7 1010.65 4495.67 1010.65 4495.67 1364.36" style="fill:url(#locale_tecnico-3_1_2)"/><polygon id="locale_tecnico-5" data-name="locale tecnico-5" points="330.4 1039.09 344.79 1039.09 344.79 733.96 2444.66 733.96 2445.36 625.98 2922.08 625.98 2924.19 734.24 5162.37 733.33 5162.37 747.3 5162.37 1053.97 5176.83 1053.97 5469.88 1053.97 5469.88 28.86 5182.73 28.86 5162.37 28.86 344.79 28.86 315.94 28.86 28.43 28.86 28.43 1039.09 330.4 1039.09" style="fill:url(#locale_tecnico-3_1_2)"/><g class="clickable" id="A2-5-01-B" data-name="customclass A2-5-01-B"><polygon id="a" points="4548.67 1364.36 4685.23 1364.36 4685.23 1042.74 4685.23 1022.03 4685.23 1010.65 4548.67 1010.65 4548.67 1364.36" style="fill:#f2f2f2"/></g><g class="clickable" id="A2-5-07" data-name="customclass A2-5-07"><polygon id="a-2" points="897.41 1364.36 4481.69 1364.36 4481.69 996.68 4572.4 996.68 4572.4 747.3 4481.69 747.3 2909.86 747.3 2909.86 640.02 2458.63 640.02 2458.63 747.3 897.41 747.3 897.41 1364.36" style="fill:#f2f2f2"/></g><g class="clickable" id="A2-5-05" data-name="customclass A2-5-05"><polygon points="4699.27 1125.58 4699.27 1133.24 4807.39 1133.24 4807.39 747.3 4586.45 747.3 4586.45 996.68 4586.45 1010.65 4572.4 1010.65 4548.67 1010.65 4548.67 1007.7 4685.23 1007.7 4699.27 1007.7 4699.27 1125.58" style="fill:#f2f2f2"/></g><g class="clickable" id="A2-5-03" data-name="customclass A2-5-03"><polygon points="807.54 1010.65 807.54 996.68 821.51 996.68 883.43 996.68 883.43 747.3 358.84 747.3 358.84 1039.09 358.84 1061.97 358.84 1067.52 358.84 1132.82 807.54 1132.82 807.54 1010.65" style="fill:#ddd"/></g><g class="clickable" id="A2-5-02" data-name="customclass A2-5-02"><polygon points="4821.36 1133.24 5148.4 1133.24 5148.4 1082.34 5148.4 1053.97 5148.4 747.3 4821.36 747.3 4821.36 1133.24" style="fill:#ddd"/></g><g class="clickable" id="A2-5-01" data-name="customclass A2-5-01"><g id="scale"><polygon points="5151.13 1368.79 4810.48 1368.79 4810.48 1266.07 5036.83 1266.07 5036.83 1245.78 4810.48 1245.78 4810.48 1145.52 5151.13 1145.52 5151.13 1149.03 4813.99 1149.03 4813.99 1242.27 5040.34 1242.27 5040.34 1269.58 4813.99 1269.58 4813.99 1365.28 5151.13 1365.28 5151.13 1368.79" style="fill:#b7b7b7"/><polygon points="5086.82 1320.97 4812.73 1320.97 4812.73 1317.46 5083.31 1317.46 5083.31 1198.88 4812.52 1198.88 4812.52 1195.37 5086.82 1195.37 5086.82 1320.97" style="fill:#b7b7b7"/><rect x="4992.6" y="1267.05" width="3.51" height="100.75" style="fill:#b7b7b7"/><rect x="5013.6" y="1267.05" width="3.51" height="100.75" style="fill:#b7b7b7"/><rect x="5033.6" y="1267.05" width="3.51" height="100.75" style="fill:#b7b7b7"/><rect x="4972.1" y="1267.05" width="3.51" height="100.75" style="fill:#b7b7b7"/><rect x="5033.6" y="1147.28" width="3.51" height="96.75" style="fill:#b7b7b7"/><rect x="5013.6" y="1147.28" width="3.51" height="96.75" style="fill:#b7b7b7"/><rect x="4992.6" y="1147.28" width="3.51" height="96.75" style="fill:#b7b7b7"/><rect x="4972.1" y="1147.28" width="3.51" height="96.75" style="fill:#b7b7b7"/><rect x="4951.6" y="1147.28" width="3.51" height="96.75" style="fill:#b7b7b7"/><rect x="4931.59" y="1147.28" width="3.51" height="96.75" style="fill:#b7b7b7"/><rect x="4911.44" y="1147.28" width="3.51" height="96.75" style="fill:#b7b7b7"/><rect x="4849.8" y="1147.28" width="3.51" height="96.75" style="fill:#b7b7b7"/><rect x="4830.42" y="1147.28" width="3.51" height="96.75" style="fill:#b7b7b7"/><polygon points="4829.29 1244.19 4810.14 1197.01 4828.85 1146.67 4832.14 1147.89 4813.91 1196.96 4832.54 1242.88 4829.29 1244.19" style="fill:#b7b7b7"/><polygon points="4872.9 1269.79 4807.18 1269.79 4807.18 1242.27 4831.54 1242.27 4831.54 1245.78 4810.69 1245.78 4810.69 1266.28 4872.9 1266.28 4872.9 1269.79" style="fill:#b7b7b7"/><rect x="4891.29" y="1267.05" width="3.51" height="100.75" style="fill:#b7b7b7"/><rect x="4931.8" y="1267.05" width="3.51" height="100.75" style="fill:#b7b7b7"/><rect x="4911.58" y="1267.05" width="3.51" height="100.75" style="fill:#b7b7b7"/><rect x="4952.09" y="1267.05" width="3.51" height="100.75" style="fill:#b7b7b7"/><rect x="4871" y="1267.05" width="3.51" height="100.75" style="fill:#b7b7b7"/><rect x="4850.71" y="1267.05" width="3.51" height="100.75" style="fill:#b7b7b7"/><rect x="4830.42" y="1267.05" width="3.51" height="100.75" style="fill:#b7b7b7"/><rect x="4891.5" y="1147.28" width="3.51" height="96.75" style="fill:#b7b7b7"/><rect x="4870.72" y="1147.28" width="3.51" height="96.75" style="fill:#b7b7b7"/></g><g id="a-3"><polygon points="4807.39 1147.28 4699.27 1147.28 4699.27 1364.36 5148.4 1364.36 5148.4 1147.28 4821.36 1147.28 4807.39 1147.28" style="fill:none"/></g></g><g class="clickable" id="A2-5-04" data-name="customclass A2-5-04"><g id="scale-2"><polygon points="697.52 1368.79 356.94 1368.79 356.94 1365.28 694.01 1365.28 694.01 1269.58 467.73 1269.58 467.73 1242.27 694.01 1242.27 694.01 1149.03 356.94 1149.03 356.94 1145.52 697.52 1145.52 697.52 1245.78 471.24 1245.78 471.24 1266.07 697.52 1266.07 697.52 1368.79" style="fill:#b7b7b7"/><polygon points="695.35 1320.97 421.25 1320.97 421.25 1195.37 695.56 1195.37 695.56 1198.88 424.76 1198.88 424.76 1317.46 695.35 1317.46 695.35 1320.97" style="fill:#b7b7b7"/><rect x="511.89" y="1267.05" width="3.51" height="100.75" style="fill:#b7b7b7"/><rect x="490.9" y="1267.05" width="3.51" height="100.75" style="fill:#b7b7b7"/><rect x="470.89" y="1267.05" width="3.51" height="100.75" style="fill:#b7b7b7"/><rect x="532.39" y="1267.05" width="3.51" height="100.75" style="fill:#b7b7b7"/><rect x="470.89" y="1147.28" width="3.51" height="96.75" style="fill:#b7b7b7"/><rect x="490.9" y="1147.28" width="3.51" height="96.75" style="fill:#b7b7b7"/><rect x="511.89" y="1147.28" width="3.51" height="96.75" style="fill:#b7b7b7"/><rect x="532.39" y="1147.28" width="3.51" height="96.75" style="fill:#b7b7b7"/><rect x="552.89" y="1147.28" width="3.51" height="96.75" style="fill:#b7b7b7"/><rect x="572.9" y="1147.28" width="3.51" height="96.75" style="fill:#b7b7b7"/><rect x="593.05" y="1147.28" width="3.51" height="96.75" style="fill:#b7b7b7"/><rect x="654.7" y="1147.28" width="3.51" height="96.75" style="fill:#b7b7b7"/><rect x="674.07" y="1147.28" width="3.51" height="96.75" style="fill:#b7b7b7"/><polygon points="678.72 1244.2 675.47 1242.87 694.16 1196.96 675.87 1147.89 679.16 1146.66 697.93 1197.01 678.72 1244.2" style="fill:#b7b7b7"/><polygon points="700.89 1269.79 635.18 1269.79 635.18 1266.28 697.38 1266.28 697.38 1245.78 676.46 1245.78 676.46 1242.27 700.89 1242.27 700.89 1269.79" style="fill:#b7b7b7"/><rect x="613.27" y="1267.05" width="3.51" height="100.75" style="fill:#b7b7b7"/><rect x="572.69" y="1267.05" width="3.51" height="100.75" style="fill:#b7b7b7"/><rect x="592.98" y="1267.05" width="3.51" height="100.75" style="fill:#b7b7b7"/><rect x="552.4" y="1267.05" width="3.51" height="100.75" style="fill:#b7b7b7"/><rect x="633.49" y="1267.05" width="3.51" height="100.75" style="fill:#b7b7b7"/><rect x="653.78" y="1267.05" width="3.51" height="100.75" style="fill:#b7b7b7"/><rect x="674.07" y="1267.05" width="3.51" height="100.75" style="fill:#b7b7b7"/><rect x="612.99" y="1147.28" width="3.51" height="96.75" style="fill:#b7b7b7"/><rect x="633.77" y="1147.28" width="3.51" height="96.75" style="fill:#b7b7b7"/></g><g id="a-4"><rect x="358.84" y="1146.79" width="448.7" height="217.58" style="fill:none"/></g></g><path id="walls" d="M28.43,1067.52h302V1392.8H5176.83V1082.34h321.49V.42H0v1067H28.43Zm855,296.84H821.51V1010.65h61.92ZM4534.7,1111.61v252.75h-39V1010.65h39Zm-3637.29-165h-14v50.06H807.54v136.14h-8.07v14h8.07v217.57H358.84V1146.79H727.78v-14H358.84V747.3H883.5v98.78h14V747.3H2458.63V640h451.31V747.3H4572.47V892.35h14V747.3h220.94V875.78h14V747.3h327v385.94h-327V978h-14v155.23h-25v14h366v217.15H4699.27V1147.21h11.44v-14h-11.44v-21.63h-14v252.75H4548.74V1010.65h37.78V964h-14v32.72h-90.77v367.68H897.41ZM28.43,28.86H5469.88v1025H5162.37V734.24H2924.19V626H2444.66V734H344.79v305.06H28.43Z" style="fill:#b7b7b7"/></svg>