<svg id="Livello_1" data-name="Livello 1" xmlns="http://www.w3.org/2000/svg" xmlns:xlink="http://www.w3.org/1999/xlink" viewBox="0 0 5500 3451.34"><defs><pattern id="locale_tecnico-5_2_" data-name="locale tecnico-5 2 " width="48.1" height="48.1" patternTransform="matrix(-0.6, 0, 0, 0.38, -9710.89, 9297.29)" patternUnits="userSpaceOnUse" viewBox="0 0 48.1 48.1"><rect width="48.1" height="48.1" style="fill:none"/><rect width="48.1" height="48.1" style="fill:none"/><rect width="48.1" height="48.1" style="fill:none"/><rect width="48.1" height="48.1" style="fill:none"/><rect width="48.1" height="48.1" style="fill:none"/><rect width="48.1" height="48.1" style="fill:none"/><rect width="48.1" height="48.1" style="fill:none"/><rect width="48.1" height="48.1" style="fill:none"/><rect width="48.1" height="48.1" style="fill:none"/><rect width="48.1" height="48.1" style="fill:none"/><rect x="44.7" y="-44.7" width="50.6" height="48.9" style="fill:#f2f2f2"/><line x1="48.1" x2="96.1" y2="-48.1" style="fill:none;stroke:#ddd;stroke-linecap:square;stroke-linejoin:round;stroke-width:20px"/><rect x="-3.4" y="-44.7" width="50.6" height="48.9" style="fill:#f2f2f2"/><line x2="48.1" y2="-48.1" style="fill:none;stroke:#ddd;stroke-linecap:square;stroke-linejoin:round;stroke-width:20px"/><line x1="-48.1" y2="-48.1" style="fill:none;stroke:#ddd;stroke-linecap:square;stroke-linejoin:round;stroke-width:20px"/><rect x="44.7" y="3.4" width="50.6" height="48.9" style="fill:#f2f2f2"/><line x1="48.1" y1="48.1" x2="96.1" style="fill:none;stroke:#ddd;stroke-linecap:square;stroke-linejoin:round;stroke-width:20px"/><rect x="-3.4" y="3.4" width="50.6" height="48.9" style="fill:#f2f2f2"/><line y1="48.1" x2="48.1" style="fill:none;stroke:#ddd;stroke-linecap:square;stroke-linejoin:round;stroke-width:20px"/><line x1="-48.1" y1="48.1" style="fill:none;stroke:#ddd;stroke-linecap:square;stroke-linejoin:round;stroke-width:20px"/><line x1="48.1" y1="96.1" x2="96.1" y2="48.1" style="fill:none;stroke:#ddd;stroke-linecap:square;stroke-linejoin:round;stroke-width:20px"/><line y1="96.1" x2="48.1" y2="48.1" style="fill:none;stroke:#ddd;stroke-linecap:square;stroke-linejoin:round;stroke-width:20px"/><line x1="-48.1" y1="96.1" y2="48.1" style="fill:none;stroke:#ddd;stroke-linecap:square;stroke-linejoin:round;stroke-width:20px"/></pattern><pattern id="locale_tecnico-6_2_" data-name="locale tecnico-6 2 " width="48.1" height="48.1" patternTransform="matrix(-0.6, 0, 0, 0.6, -9710.89, 13647.65)" patternUnits="userSpaceOnUse" viewBox="0 0 48.1 48.1"><rect width="48.1" height="48.1" style="fill:none"/><rect width="48.1" height="48.1" style="fill:none"/><rect width="48.1" height="48.1" style="fill:none"/><rect width="48.1" height="48.1" style="fill:none"/><rect width="48.1" height="48.1" style="fill:none"/><rect width="48.1" height="48.1" style="fill:none"/><rect width="48.1" height="48.1" style="fill:none"/><rect width="48.1" height="48.1" style="fill:none"/><rect width="48.1" height="48.1" style="fill:none"/><rect width="48.1" height="48.1" style="fill:none"/><rect x="44.7" y="-44.7" width="50.6" height="48.9" style="fill:#f2f2f2"/><line x1="48.1" x2="96.1" y2="-48.1" style="fill:none;stroke:#ddd;stroke-linecap:square;stroke-linejoin:round;stroke-width:20px"/><rect x="-3.4" y="-44.7" width="50.6" height="48.9" style="fill:#f2f2f2"/><line x2="48.1" y2="-48.1" style="fill:none;stroke:#ddd;stroke-linecap:square;stroke-linejoin:round;stroke-width:20px"/><line x1="-48.1" y2="-48.1" style="fill:none;stroke:#ddd;stroke-linecap:square;stroke-linejoin:round;stroke-width:20px"/><rect x="44.7" y="3.4" width="50.6" height="48.9" style="fill:#f2f2f2"/><line x1="48.1" y1="48.1" x2="96.1" style="fill:none;stroke:#ddd;stroke-linecap:square;stroke-linejoin:round;stroke-width:20px"/><rect x="-3.4" y="3.4" width="50.6" height="48.9" style="fill:#f2f2f2"/><line y1="48.1" x2="48.1" style="fill:none;stroke:#ddd;stroke-linecap:square;stroke-linejoin:round;stroke-width:20px"/><line x1="-48.1" y1="48.1" style="fill:none;stroke:#ddd;stroke-linecap:square;stroke-linejoin:round;stroke-width:20px"/><line x1="48.1" y1="96.1" x2="96.1" y2="48.1" style="fill:none;stroke:#ddd;stroke-linecap:square;stroke-linejoin:round;stroke-width:20px"/><line y1="96.1" x2="48.1" y2="48.1" style="fill:none;stroke:#ddd;stroke-linecap:square;stroke-linejoin:round;stroke-width:20px"/><line x1="-48.1" y1="96.1" y2="48.1" style="fill:none;stroke:#ddd;stroke-linecap:square;stroke-linejoin:round;stroke-width:20px"/></pattern></defs><g id="A4-floor-1"><g id="background"><path d="M28.1,2201.48c3.8,9.24,8,18.35,12.4,27.17a375.35,375.35,0,0,0,65.89,92.52,364.51,364.51,0,0,0,91.47,68.75q12.25,6.45,25,12a354.07,354.07,0,0,0,113.27,28.46H844.49V2628H2411.81v823.34H5500V210.17H2411.81V853.38H0v1223.5A382.12,382.12,0,0,0,28.1,2201.48Z" transform="translate(0 0)" style="fill:#f2f2f2"/></g><g id="rooms"><rect id="senza_codice" data-name="senza codice" x="3002.38" y="1764.32" width="177.07" height="94.92" style="fill:#f2f2f2"/><rect id="senza_codice-2" data-name="senza codice-2" x="3002.38" y="1648.83" width="177.07" height="94.27" style="fill:#f2f2f2"/><rect id="senza_codice-3" data-name="senza codice-3" x="3002.38" y="1340.57" width="177.07" height="93.12" style="fill:#f2f2f2"/><rect id="senza_codice-4" data-name="senza codice-4" x="3002.38" y="1226.3" width="177.07" height="93.12" style="fill:#f2f2f2"/><rect id="locale_tecnico-5" data-name="locale tecnico-5" x="2982.45" y="250.69" width="132.41" height="183.74" style="fill:url(#locale_tecnico-5_2_)"/><path id="locale_tecnico-6" data-name="locale tecnico-6" d="M346.18,2389.94H885v197.65H2452.4v823.27H5459.64V1879.17H2432.38v-672.8h-92.47V994.82h92.47V893.88H40.5V2055.09C40.5,2233.23,175.92,2379.48,346.18,2389.94Z" transform="translate(0 0)" style="fill:url(#locale_tecnico-6_2_)"/><g class="clickable" id="A4--1-34" data-name="customclass A4--1-34"><polygon id="tracciato_11" data-name="tracciato 11" points="3393.51 1859.16 3413.44 1859.16 3978.63 1859.16 3998.56 1859.16 4435 1859.16 4977.18 1859.16 4997.18 1859.16 5459.57 1859.16 5459.57 250.69 4435 250.69 4435 413.28 4435 434.43 4435 683.48 4435 704.69 4435 928.94 4435 950.08 4435 1205.15 4435 1226.3 3199.45 1226.3 3199.45 1319.42 3199.45 1340.57 3199.45 1433.62 3199.45 1454.77 3199.45 1627.68 3199.45 1648.83 3199.45 1743.1 3199.45 1764.32 3199.45 1859.16 3393.51 1859.16" style="fill:#ddd"/><rect x="3199.45" y="250.76" width="2253.03" height="1606.16" style="fill:none"/></g><g class="clickable" id="A4--1-LIFT-A" data-name="customclass A4--1-LIFT-A"><rect id="a" x="2452.31" y="458.02" width="214.56" height="223.02" style="fill:#f2f2f2"/></g><g class="clickable" id="A4--1-STAIR-A" data-name="customclass A4--1-STAIR-A" style="opacity:0.4000000059604645"><g id="scale"><rect x="3047.11" y="436.37" width="3.58" height="395.86" style="fill:#b7b7b7"/><rect x="2980.44" y="585.91" width="137.93" height="3.58" style="fill:#b7b7b7"/><rect x="2982.88" y="680.18" width="137.86" height="3.58" style="fill:#b7b7b7"/><rect x="2980.44" y="557.81" width="137.93" height="3.58" style="fill:#b7b7b7"/><rect x="2980.44" y="527.84" width="137.93" height="3.58" style="fill:#b7b7b7"/><rect x="2977" y="465.61" width="143.74" height="3.58" style="fill:#b7b7b7"/><polygon points="2977.44 469.62 2975.99 466.34 3049.26 434.05 3121.32 465.77 3119.87 469.05 3049.26 437.97 2977.44 469.62" style="fill:#b7b7b7"/><rect x="2980.44" y="494" width="137.93" height="3.58" style="fill:#b7b7b7"/><rect x="2978.79" y="800.47" width="140.22" height="3.58" style="fill:#b7b7b7"/><rect x="2978.79" y="830.72" width="140.22" height="3.58" style="fill:#b7b7b7"/><rect x="2978.79" y="739.46" width="140.22" height="3.58" style="fill:#b7b7b7"/><rect x="2978.79" y="709.21" width="140.22" height="3.58" style="fill:#b7b7b7"/><rect x="2978.79" y="770.86" width="140.22" height="3.58" style="fill:#b7b7b7"/><rect x="2976.96" y="785.81" width="143.59" height="3.58" transform="translate(-96.89 645.59) rotate(-11.9)" style="fill:#b7b7b7"/><rect x="2982.88" y="434.07" width="137.86" height="3.58" style="fill:#b7b7b7"/></g><rect x="2982.88" y="435.86" width="131.98" height="432.42" style="fill:none"/></g><g id="STAIR" style="opacity:0.4000000059604645"><g id="scale-2"><rect x="2823.95" y="453.43" width="3.58" height="247.32" style="fill:#b7b7b7"/><rect x="2684.94" y="451.71" width="280.52" height="3.58" style="fill:#b7b7b7"/><rect x="2684.94" y="515.15" width="280.52" height="3.58" style="fill:#b7b7b7"/><rect x="2685.09" y="482.53" width="280.44" height="3.58" style="fill:#b7b7b7"/><rect x="2684.94" y="547.2" width="280.52" height="3.58" style="fill:#b7b7b7"/><rect x="2684.94" y="637.88" width="280.52" height="3.58" style="fill:#b7b7b7"/><rect x="2684.94" y="673.58" width="280.52" height="3.58" style="fill:#b7b7b7"/><polygon points="2825.53 701.85 2685.44 678.79 2686.02 675.26 2825.52 698.22 2963.37 675.26 2963.96 678.79 2825.53 701.85" style="fill:#b7b7b7"/><rect x="2684.94" y="576.23" width="280.52" height="3.58" style="fill:#b7b7b7"/><rect x="2684.94" y="605.84" width="280.52" height="3.58" style="fill:#b7b7b7"/><rect x="2684.94" y="698.96" width="280.52" height="3.58" style="fill:#b7b7b7"/></g><rect x="2688.1" y="414.21" width="273.2" height="312.85" style="fill:none"/></g><g class="clickable" id="A4--1-26" data-name="customclass A4--1-26"><polygon id="_tracciato_3" data-name=" tracciato 3" points="3789.16 928.94 3789.16 250.69 4413.85 250.69 4413.85 683.48 4413.85 704.69 4413.85 928.94 3789.16 928.94" style="fill:#f2f2f2"/></g><g class="clickable" id="A4--1-24" data-name="customclass A4--1-24"><polygon id="_tracciato_5" data-name=" tracciato 5" points="3136.01 683.48 3136.01 250.69 3767.94 250.69 3767.94 928.94 3136.01 928.94 3136.01 704.69 3136.01 683.48" style="fill:#f2f2f2"/></g><g class="clickable" id="A4--1-20" data-name="customclass A4--1-20"><polygon id="_tracciato_8" data-name=" tracciato 8" points="2700.79 1433.62 2700.79 1226.3 2982.45 1226.3 2982.45 1319.42 2982.45 1340.57 2982.45 1433.62 2700.79 1433.62" style="fill:#f2f2f2"/></g><g class="clickable" id="A4--1-19" data-name="customclass A4--1-19"><polygon id="_tracciato_9" data-name=" tracciato 9" points="2700.79 1627.68 2700.79 1454.77 2982.45 1454.77 3002.38 1454.77 3179.52 1454.77 3179.52 1627.68 3002.38 1627.68 2982.45 1627.68 2700.79 1627.68" style="fill:#f2f2f2"/></g><g class="clickable" id="A4--1-18" data-name="customclass A4--1-18"><polygon id="_tracciato_10" data-name=" tracciato 10" points="2700.79 1859.16 2700.79 1648.83 2982.45 1648.83 2982.45 1743.1 2982.45 1764.32 2982.45 1859.16 2700.79 1859.16" style="fill:#f2f2f2"/></g><g class="clickable" id="A4--1-21" data-name="customclass A4--1-21"><polygon id="_tracciato_7" data-name=" tracciato 7" points="2452.31 1206.37 2452.31 1185.8 2452.31 1185.22 2359.84 1185.22 2359.84 1014.75 2432.39 1014.75 2452.31 1014.75 2452.31 994.82 2452.31 950.08 2452.31 950.08 2452.31 950.08 2666.95 950.08 2688.1 950.08 2688.1 950.08 2688.1 950.08 2688.1 950.08 2666.95 950.08 2452.31 950.08 2452.31 950.08 2961.3 950.08 2961.3 950.08 2961.3 950.08 2961.3 950.08 2982.45 950.08 2982.45 950.08 3114.86 950.08 3114.86 950.08 3114.86 950.08 3114.86 1002.06 3136.01 1002.06 3136.01 950.08 3475.09 950.08 3496.24 950.08 3767.94 950.08 3789.16 950.08 4060.86 950.08 4082.01 950.08 4413.85 950.08 4413.85 1205.15 3199.45 1205.15 3179.52 1205.15 3002.38 1205.15 2982.45 1205.15 2700.79 1205.15 2680.86 1205.15 2452.31 1206.37" style="fill:#f2f2f2"/></g><g class="clickable" data-building-code="P1" id="A1--1-G1--1" data-floor-code="-1"><rect id="room-box-29" x="2469.38" y="0.5" width="194.49" height="209.76" style="fill:none;stroke:#f2f2f2;stroke-miterlimit:10"/><path d="M2566.59,47a58.55,58.55,0,0,0-58.65,58.28h0v.07a58.65,58.65,0,0,0,117.29.07v-.07C2625.3,73.12,2599,47,2566.59,47" transform="translate(0 0)" style="fill:#fff;stroke:#303030"/><path d="M2557.7,112.33h6.88c10.32,0,14.55-4.22,14.55-12,0-6.59-3.87-11.32-14.26-11.32h-7.17Zm-6.89,29.4V83.3h14.7c11.76,0,20.65,5.66,20.65,16.85s-8,18-21.58,18h-6.88v23.59Zm52.34-54.41-36.49-13.15-36.49,13.27L2528.52,83l38.14-13.82L2604.8,83Z" transform="translate(0 0)"/></g></g><g id="walls"><path d="M4248.25,250.69h165.6V928.86H3908V950h506v49h21.15V250.69H5459.64V1859.17H4162.37v19.93h1297.2V3410.86H2452.31V2587.59H884.92V2389.94H346.18C175.92,2379.48,40.5,2233.31,40.5,2055.09V893.88H2432.38V994.82h-92.47v37.49h19.93v-17.49h92.47V702.33H2471V681.17h-18.71v-223H2471v-21.3h-18.71V250.69H2471V210.17h-59.21V853.38H0v1223.5a383.1,383.1,0,0,0,28.1,124.67c3.8,9.25,8,18.35,12.4,27.17a375.5,375.5,0,0,0,65.89,92.45,364.71,364.71,0,0,0,91.47,68.74q12.25,6.47,25,12.05a354.07,354.07,0,0,0,113.27,28.46H844.49v197.64H2411.81v823.27H5500V210.17H2666.3v40.5h295v15.7h21.15v-15.7h132.41V1002H3136V950h474.5V928.9H3136V250.76h631.93V928.94h-55.27v21.14h93.12V928.94h-16.63V250.76l459.09-.07ZM2452.31,1879.17h34.49v-20h-34.49V1185.22h-92.47V1032.31h-19.93v152.91h0v21.15h92.47v672.8M2982.45,266.39H2961.3v568.2h21.15Z" transform="translate(0 0)" style="fill:#b7b7b7"/><polygon points="3393.51 1879.16 3199.45 1879.16 3199.45 1879.16 3179.52 1879.16 3179.52 1879.16 3002.38 1879.16 2982.45 1879.16 2700.79 1879.16 2700.79 1879.16 2680.86 1879.16 2680.86 1879.16 2486.8 1879.16 2486.8 1859.16 2680.86 1859.16 2680.86 1746.18 2700.79 1746.18 2700.79 1859.16 2982.45 1859.16 2982.45 1831.35 3002.38 1831.35 3002.38 1859.16 3179.52 1859.16 3179.52 1764.32 3002.38 1764.32 3002.38 1777.01 2982.45 1777.01 2982.45 1764.32 2982.45 1743.1 2982.45 1722.6 3002.38 1722.6 3002.38 1743.1 3179.52 1743.1 3179.52 1648.83 3002.38 1648.83 3002.38 1668.19 2982.45 1668.19 2982.45 1648.83 2700.79 1648.83 2700.79 1657.94 2680.86 1657.94 2680.86 1648.83 2680.86 1627.68 2680.86 1556.93 2700.79 1556.93 2700.79 1627.68 2982.45 1627.68 3002.38 1627.68 3179.52 1627.68 3179.52 1454.77 3002.38 1454.77 2982.45 1454.77 2700.79 1454.77 2700.79 1468.68 2680.86 1468.68 2680.86 1454.77 2680.86 1433.62 2680.86 1341.14 2700.79 1341.14 2700.79 1433.62 2982.45 1433.62 2982.45 1411.9 3002.38 1411.9 3002.38 1433.62 3179.52 1433.62 3179.52 1340.57 3002.38 1340.57 3002.38 1357.49 2982.45 1357.49 2982.45 1340.57 2982.45 1319.42 2982.45 1301.86 3002.38 1301.86 3002.38 1319.42 3179.52 1319.42 3179.52 1226.3 3002.38 1226.3 3002.38 1247.45 2982.45 1247.45 2982.45 1226.3 2700.79 1226.3 2700.79 1252.9 2680.86 1252.9 2680.86 1226.3 2680.86 1205.15 2700.79 1205.15 2982.45 1205.15 3002.38 1205.15 3179.52 1205.15 3199.45 1205.15 4007.02 1205.15 4007.02 1226.3 3199.45 1226.3 3199.45 1319.42 3199.45 1340.57 3199.45 1433.62 3199.45 1454.77 3199.45 1627.68 3199.45 1648.83 3199.45 1743.1 3199.45 1764.32 3199.45 1859.16 3393.51 1859.16 3413.44 1859.16 3978.63 1859.16 3998.56 1859.16 4162.37 1859.16 4162.37 1879.16 3998.56 1879.16 3978.63 1879.16 3413.44 1879.16 3393.51 1879.16" style="fill:#b7b7b7"/><polygon points="2655.48 436.87 2655.48 458.02 2666.95 458.02 2666.95 681.11 2655.48 681.11 2655.48 702.26 2666.95 702.26 2688.1 702.26 2688.1 681.11 2688.1 458.02 2688.1 436.87 2666.95 436.87 2655.48 436.87" style="fill:#b7b7b7"/><polygon points="4162.37 1226.3 4413.85 1226.3 4435 1226.3 4435 1205.15 4435 1188.23 4413.85 1188.23 4413.85 1205.15 4162.37 1205.15 4162.37 1226.3" style="fill:#b7b7b7"/><polyline points="2961.3 414.21 2961.3 435.36 3136.01 435.36 3136.01 414.21" style="fill:#b7b7b7"/></g></g></svg>