<?xml version="1.0" encoding="utf-8"?>
<!-- Generator: Adobe Illustrator 26.2.0, SVG Export Plug-In . SVG Version: 6.00 Build 0)  -->
<svg version="1.0" id="Livello_1" xmlns="http://www.w3.org/2000/svg" xmlns:xlink="http://www.w3.org/1999/xlink" x="0px" y="0px"
	 viewBox="0 0 5500 3451.3" style="enable-background:new 0 0 5500 3451.3;" xml:space="preserve">
<pattern  y="3451.3" width="48.1" height="48.1" patternUnits="userSpaceOnUse" id="locale_tecnico-5_00000129915519" viewBox="62.2 -110.2 48.1 48.1" style="overflow:visible;">
	<g>
		<rect x="62.2" y="-110.2" style="fill:none;" width="48.1" height="48.1"/>
		<g>
			<rect x="62.2" y="-110.2" style="fill:none;" width="48.1" height="48.1"/>
			<rect x="62.2" y="-110.2" style="fill:none;" width="48.1" height="48.1"/>
			<rect x="62.2" y="-110.2" style="fill:none;" width="48.1" height="48.1"/>
			<rect x="62.2" y="-110.2" style="fill:none;" width="48.1" height="48.1"/>
			<rect x="62.2" y="-110.2" style="fill:none;" width="48.1" height="48.1"/>
			<rect x="62.2" y="-110.2" style="fill:none;" width="48.1" height="48.1"/>
			<rect x="62.2" y="-110.2" style="fill:none;" width="48.1" height="48.1"/>
			<rect x="62.2" y="-110.2" style="fill:none;" width="48.1" height="48.1"/>
			<rect x="62.2" y="-110.2" style="fill:none;" width="48.1" height="48.1"/>
			<rect x="62.2" y="-110.2" style="fill:none;" width="48.1" height="48.1"/>
			<rect x="62.2" y="-110.2" style="fill:none;" width="48.1" height="48.1"/>
			<rect x="106.9" y="-154.9" style="fill:#F2F2F2;" width="50.6" height="48.9"/>
			
				<line style="fill:none;stroke:#DDDDDD;stroke-width:20;stroke-linecap:square;stroke-linejoin:round;" x1="110.3" y1="-110.2" x2="158.3" y2="-158.3"/>
			<rect x="58.8" y="-154.9" style="fill:#F2F2F2;" width="50.6" height="48.9"/>
			
				<line style="fill:none;stroke:#DDDDDD;stroke-width:20;stroke-linecap:square;stroke-linejoin:round;" x1="62.2" y1="-110.2" x2="110.3" y2="-158.3"/>
			
				<line style="fill:none;stroke:#DDDDDD;stroke-width:20;stroke-linecap:square;stroke-linejoin:round;" x1="14.1" y1="-110.2" x2="62.2" y2="-158.3"/>
			<rect x="106.9" y="-106.8" style="fill:#F2F2F2;" width="50.6" height="48.9"/>
			
				<line style="fill:none;stroke:#DDDDDD;stroke-width:20;stroke-linecap:square;stroke-linejoin:round;" x1="110.3" y1="-62.1" x2="158.3" y2="-110.2"/>
			<rect x="58.8" y="-106.8" style="fill:#F2F2F2;" width="50.6" height="48.9"/>
			
				<line style="fill:none;stroke:#DDDDDD;stroke-width:20;stroke-linecap:square;stroke-linejoin:round;" x1="62.2" y1="-62.1" x2="110.3" y2="-110.2"/>
			
				<line style="fill:none;stroke:#DDDDDD;stroke-width:20;stroke-linecap:square;stroke-linejoin:round;" x1="14.1" y1="-62.1" x2="62.2" y2="-110.2"/>
			
				<line style="fill:none;stroke:#DDDDDD;stroke-width:20;stroke-linecap:square;stroke-linejoin:round;" x1="110.3" y1="-14.1" x2="158.3" y2="-62.1"/>
			
				<line style="fill:none;stroke:#DDDDDD;stroke-width:20;stroke-linecap:square;stroke-linejoin:round;" x1="62.2" y1="-14.1" x2="110.3" y2="-62.1"/>
			
				<line style="fill:none;stroke:#DDDDDD;stroke-width:20;stroke-linecap:square;stroke-linejoin:round;" x1="14.1" y1="-14.1" x2="62.2" y2="-62.1"/>
		</g>
	</g>
</pattern>
<pattern  y="3451.3" width="48.1" height="48.1" patternUnits="userSpaceOnUse" id="locale_tecnico-6_00000054233695" viewBox="62.2 -110.2 48.1 48.1" style="overflow:visible;">
	<g>
		<rect x="62.2" y="-110.2" style="fill:none;" width="48.1" height="48.1"/>
		<g>
			<rect x="62.2" y="-110.2" style="fill:none;" width="48.1" height="48.1"/>
			<rect x="62.2" y="-110.2" style="fill:none;" width="48.1" height="48.1"/>
			<rect x="62.2" y="-110.2" style="fill:none;" width="48.1" height="48.1"/>
			<rect x="62.2" y="-110.2" style="fill:none;" width="48.1" height="48.1"/>
			<rect x="62.2" y="-110.2" style="fill:none;" width="48.1" height="48.1"/>
			<rect x="62.2" y="-110.2" style="fill:none;" width="48.1" height="48.1"/>
			<rect x="62.2" y="-110.2" style="fill:none;" width="48.1" height="48.1"/>
			<rect x="62.2" y="-110.2" style="fill:none;" width="48.1" height="48.1"/>
			<rect x="62.2" y="-110.2" style="fill:none;" width="48.1" height="48.1"/>
			<rect x="62.2" y="-110.2" style="fill:none;" width="48.1" height="48.1"/>
			<rect x="62.2" y="-110.2" style="fill:none;" width="48.1" height="48.1"/>
			<rect x="106.9" y="-154.9" style="fill:#F2F2F2;" width="50.6" height="48.9"/>
			
				<line style="fill:none;stroke:#DDDDDD;stroke-width:20;stroke-linecap:square;stroke-linejoin:round;" x1="110.3" y1="-110.2" x2="158.3" y2="-158.3"/>
			<rect x="58.8" y="-154.9" style="fill:#F2F2F2;" width="50.6" height="48.9"/>
			
				<line style="fill:none;stroke:#DDDDDD;stroke-width:20;stroke-linecap:square;stroke-linejoin:round;" x1="62.2" y1="-110.2" x2="110.3" y2="-158.3"/>
			
				<line style="fill:none;stroke:#DDDDDD;stroke-width:20;stroke-linecap:square;stroke-linejoin:round;" x1="14.1" y1="-110.2" x2="62.2" y2="-158.3"/>
			<rect x="106.9" y="-106.8" style="fill:#F2F2F2;" width="50.6" height="48.9"/>
			
				<line style="fill:none;stroke:#DDDDDD;stroke-width:20;stroke-linecap:square;stroke-linejoin:round;" x1="110.3" y1="-62.1" x2="158.3" y2="-110.2"/>
			<rect x="58.8" y="-106.8" style="fill:#F2F2F2;" width="50.6" height="48.9"/>
			
				<line style="fill:none;stroke:#DDDDDD;stroke-width:20;stroke-linecap:square;stroke-linejoin:round;" x1="62.2" y1="-62.1" x2="110.3" y2="-110.2"/>
			
				<line style="fill:none;stroke:#DDDDDD;stroke-width:20;stroke-linecap:square;stroke-linejoin:round;" x1="14.1" y1="-62.1" x2="62.2" y2="-110.2"/>
			
				<line style="fill:none;stroke:#DDDDDD;stroke-width:20;stroke-linecap:square;stroke-linejoin:round;" x1="110.3" y1="-14.1" x2="158.3" y2="-62.1"/>
			
				<line style="fill:none;stroke:#DDDDDD;stroke-width:20;stroke-linecap:square;stroke-linejoin:round;" x1="62.2" y1="-14.1" x2="110.3" y2="-62.1"/>
			
				<line style="fill:none;stroke:#DDDDDD;stroke-width:20;stroke-linecap:square;stroke-linejoin:round;" x1="14.1" y1="-14.1" x2="62.2" y2="-62.1"/>
		</g>
	</g>
</pattern>
<g id="A4-floor-1">
	<g id="background">
		<path style="fill:#F2F2F2;" d="M28.1,2201.5c3.8,9.2,8,18.4,12.4,27.2c17.1,34,39.4,65.2,65.9,92.5c26.7,27.6,57.6,50.8,91.5,68.8
			c8.2,4.3,16.5,8.3,25,12c35.9,15.7,74.2,25.3,113.3,28.5h508.4V2628h1567.3v823.3H5500V210.2H2411.8v643.2H0v1223.5
			C2.3,2119.7,11.8,2161.8,28.1,2201.5z"/>
	</g>
	<g id="rooms">
		<rect id="senza_codice" x="3002.4" y="1764.3" style="fill:#F2F2F2;" width="177.1" height="94.9"/>
		<rect id="senza_codice-2" x="3002.4" y="1648.8" style="fill:#F2F2F2;" width="177.1" height="94.3"/>
		<rect id="senza_codice-3" x="3002.4" y="1340.6" style="fill:#F2F2F2;" width="177.1" height="93.1"/>
		<rect id="senza_codice-4" x="3002.4" y="1226.3" style="fill:#F2F2F2;" width="177.1" height="93.1"/>
		
			<pattern  id="locale_tecnico-5_00000131341142389498206520000005779961408366963370_" xlink:href="#locale_tecnico-5_00000129915519" patternTransform="matrix(-0.6 0 0 0.38 -27016.7539 13128.583)">
		</pattern>
		
			<rect id="locale_tecnico-5" x="2982.4" y="250.7" style="fill:url(#locale_tecnico-5_00000131341142389498206520000005779961408366963370_);" width="132.4" height="183.7"/>
		
			<pattern  id="locale_tecnico-6_00000141430160698167993170000002785093161022197931_" xlink:href="#locale_tecnico-6_00000054233695" patternTransform="matrix(-0.6 0 0 0.6 -27016.7539 21878.6113)">
		</pattern>
		<path id="locale_tecnico-6" style="fill:url(#locale_tecnico-6_00000141430160698167993170000002785093161022197931_);" d="
			M346.2,2389.9H885v197.6h1567.4v823.3h3007.2V1879.2H2432.4v-672.8h-92.5V994.8h92.5V893.9H40.5v1161.2
			C40.5,2233.2,175.9,2379.5,346.2,2389.9z"/>
		<g class="clickable" id="A4--1-34">
			<polygon id="tracciato_11" style="fill:#DDDDDD;" points="3393.5,1859.2 3413.4,1859.2 3978.6,1859.2 3998.6,1859.2 4435,1859.2 
				4977.2,1859.2 4997.2,1859.2 5459.6,1859.2 5459.6,250.7 4435,250.7 4435,413.3 4435,434.4 4435,683.5 4435,704.7 4435,928.9 
				4435,950.1 4435,1205.2 4435,1226.3 3199.4,1226.3 3199.4,1319.4 3199.4,1340.6 3199.4,1433.6 3199.4,1454.8 3199.4,1627.7 
				3199.4,1648.8 3199.4,1743.1 3199.4,1764.3 3199.4,1859.2 			"/>
			<rect x="3199.4" y="250.8" style="fill:none;" width="2253" height="1606.2"/>
		</g>
		<g id="STAIR" style="opacity:0.4;">
			<g id="scale-2">
				<rect x="2823.9" y="453.4" style="fill:#B7B7B7;" width="3.6" height="247.3"/>
				<rect x="2684.9" y="451.7" style="fill:#B7B7B7;" width="280.5" height="3.6"/>
				<rect x="2684.9" y="515.2" style="fill:#B7B7B7;" width="280.5" height="3.6"/>
				<rect x="2685.1" y="482.5" style="fill:#B7B7B7;" width="280.4" height="3.6"/>
				<rect x="2684.9" y="547.2" style="fill:#B7B7B7;" width="280.5" height="3.6"/>
				<rect x="2684.9" y="637.9" style="fill:#B7B7B7;" width="280.5" height="3.6"/>
				<rect x="2684.9" y="673.6" style="fill:#B7B7B7;" width="280.5" height="3.6"/>
				<polygon style="fill:#B7B7B7;" points="2825.5,701.8 2685.4,678.8 2686,675.3 2825.5,698.2 2963.4,675.3 2964,678.8 				"/>
				<rect x="2684.9" y="576.2" style="fill:#B7B7B7;" width="280.5" height="3.6"/>
				<rect x="2684.9" y="605.8" style="fill:#B7B7B7;" width="280.5" height="3.6"/>
				<rect x="2684.9" y="699" style="fill:#B7B7B7;" width="280.5" height="3.6"/>
			</g>
			<rect x="2688.1" y="414.2" style="fill:none;" width="273.2" height="312.9"/>
		</g>
		<g class="clickable" id="A4--1-26">
			<polygon id="_tracciato_3" style="fill:#F2F2F2;" points="3789.2,928.9 3789.2,250.7 4413.9,250.7 4413.9,683.5 4413.9,704.7 
				4413.9,928.9 			"/>
		</g>
		<g class="clickable" id="A4--1-24">
			<polygon id="_tracciato_5" style="fill:#F2F2F2;" points="3136,683.5 3136,250.7 3767.9,250.7 3767.9,928.9 3136,928.9 
				3136,704.7 			"/>
		</g>
		<g class="clickable" id="A4--1-20">
			<polygon id="_tracciato_8" style="fill:#F2F2F2;" points="2700.8,1433.6 2700.8,1226.3 2982.4,1226.3 2982.4,1319.4 
				2982.4,1340.6 2982.4,1433.6 			"/>
		</g>
		<g class="clickable" id="A4--1-19">
			<polygon id="_tracciato_9" style="fill:#F2F2F2;" points="2700.8,1627.7 2700.8,1454.8 2982.4,1454.8 3002.4,1454.8 
				3179.5,1454.8 3179.5,1627.7 3002.4,1627.7 2982.4,1627.7 			"/>
		</g>
		<g class="clickable" id="A4--1-18">
			<polygon id="_tracciato_10" style="fill:#F2F2F2;" points="2700.8,1859.2 2700.8,1648.8 2982.4,1648.8 2982.4,1743.1 
				2982.4,1764.3 2982.4,1859.2 			"/>
		</g>
		<g class="clickable" id="A4--1-21">
			<polygon id="_tracciato_7" style="fill:#F2F2F2;" points="2452.3,1206.4 2452.3,1185.8 2452.3,1185.2 2359.8,1185.2 
				2359.8,1014.8 2432.4,1014.8 2452.3,1014.8 2452.3,994.8 2452.3,950.1 2452.3,950.1 2452.3,950.1 2666.9,950.1 2688.1,950.1 
				2688.1,950.1 2688.1,950.1 2688.1,950.1 2666.9,950.1 2452.3,950.1 2452.3,950.1 2961.3,950.1 2961.3,950.1 2961.3,950.1 
				2961.3,950.1 2982.4,950.1 2982.4,950.1 3114.9,950.1 3114.9,950.1 3114.9,950.1 3114.9,1002.1 3136,1002.1 3136,950.1 
				3475.1,950.1 3496.2,950.1 3767.9,950.1 3789.2,950.1 4060.9,950.1 4082,950.1 4413.9,950.1 4413.9,1205.2 3199.4,1205.2 
				3179.5,1205.2 3002.4,1205.2 2982.4,1205.2 2700.8,1205.2 2680.9,1205.2 			"/>
		</g>
		<g class="clickable" data-building-code="P1" id="A1--1-G1--1" data-floor-code="-1">
			
				<rect id="room-box-29" x="2469.4" y="0.5" style="fill:none;stroke:#F2F2F2;stroke-miterlimit:10;" width="194.5" height="209.8"/>
			<path style="fill:#FFFFFF;stroke:#303030;" d="M2566.6,47c-32.3-0.1-58.5,26-58.6,58.3l0,0v0.1c0.4,32.4,27,58.3,59.4,57.9
				c31.8-0.4,57.5-26.1,57.9-57.8v-0.1C2625.3,73.1,2599,47,2566.6,47"/>
			<path d="M2557.7,112.3h6.9c10.3,0,14.6-4.2,14.6-12c0-6.6-3.9-11.3-14.3-11.3h-7.2V112.3z M2550.8,141.7V83.3h14.7
				c11.8,0,20.6,5.7,20.6,16.8s-8,18-21.6,18h-6.9v23.6L2550.8,141.7z M2603.2,87.3l-36.5-13.2l-36.5,13.3l-1.7-4.4l38.1-13.8
				l38.1,13.8L2603.2,87.3z"/>
		</g>
		<g class="clickable" id="A4--1-LIFT-A">
			<rect id="a" x="2452.3" y="458" style="fill:#F2F2F2;" width="214.6" height="223"/>
		</g>
		<g class="clickable" id="A4--1-STAIR-A" style="opacity:0.4;">
			<g id="scale">
				<rect x="3047.1" y="436.4" style="fill:#B7B7B7;" width="3.6" height="395.9"/>
				<rect x="2980.4" y="585.9" style="fill:#B7B7B7;" width="137.9" height="3.6"/>
				<rect x="2982.9" y="680.2" style="fill:#B7B7B7;" width="137.9" height="3.6"/>
				<rect x="2980.4" y="557.8" style="fill:#B7B7B7;" width="137.9" height="3.6"/>
				<rect x="2980.4" y="527.8" style="fill:#B7B7B7;" width="137.9" height="3.6"/>
				<rect x="2977" y="465.6" style="fill:#B7B7B7;" width="143.7" height="3.6"/>
				<polygon style="fill:#B7B7B7;" points="2977.4,469.6 2976,466.3 3049.3,434 3121.3,465.8 3119.9,469 3049.3,438 				"/>
				<rect x="2980.4" y="494" style="fill:#B7B7B7;" width="137.9" height="3.6"/>
				<rect x="2978.8" y="800.5" style="fill:#B7B7B7;" width="140.2" height="3.6"/>
				<rect x="2978.8" y="830.7" style="fill:#B7B7B7;" width="140.2" height="3.6"/>
				<rect x="2978.8" y="739.5" style="fill:#B7B7B7;" width="140.2" height="3.6"/>
				<rect x="2978.8" y="709.2" style="fill:#B7B7B7;" width="140.2" height="3.6"/>
				<rect x="2978.8" y="770.9" style="fill:#B7B7B7;" width="140.2" height="3.6"/>
				
					<rect x="2977" y="785.8" transform="matrix(0.9785 -0.2062 0.2062 0.9785 -96.884 645.5881)" style="fill:#B7B7B7;" width="143.6" height="3.6"/>
				<rect x="2982.9" y="434.1" style="fill:#B7B7B7;" width="137.9" height="3.6"/>
			</g>
			<rect x="2982.9" y="435.9" style="fill:none;" width="132" height="432.4"/>
		</g>
	</g>
	<g id="walls">
		<path style="fill:#B7B7B7;" d="M4248.2,250.7h165.6v678.2H3908V950h506v49h21.1V250.7h1024.5v1608.5H4162.4v19.9h1297.2v1531.8
			H2452.3v-823.3H884.9v-197.7H346.2c-170.3-10.5-305.7-156.6-305.7-334.8V893.9h2391.9v100.9h-92.5v37.5h19.9v-17.5h92.5V702.3
			h18.7v-21.2h-18.7v-223h18.7v-21.3h-18.7V250.7h18.7v-40.5h-59.2v643.2H0v1223.5c2.3,42.8,11.8,85,28.1,124.7
			c3.8,9.2,8,18.4,12.4,27.2c17.2,34,39.4,65.2,65.9,92.4c26.7,27.6,57.6,50.8,91.5,68.7c8.2,4.3,16.5,8.3,25,12.1
			c35.9,15.7,74.2,25.3,113.3,28.5h508.4v197.6h1567.3v823.3H5500V210.2H2666.3v40.5h295v15.7h21.1v-15.7h132.4V1002h21.1v-52h474.5
			v-21.1H3136V250.8h631.9V929h-55.3v21.1h93.1V929h-16.6V250.8L4248.2,250.7L4248.2,250.7z M2452.3,1879.2h34.5v-20h-34.5v-674
			h-92.5v-152.9h-19.9v152.9l0,0v21.2h92.5v672.8 M2982.4,266.4h-21.1v568.2h21.1V266.4z"/>
		<polygon style="fill:#B7B7B7;" points="3393.5,1879.2 3199.4,1879.2 3199.4,1879.2 3179.5,1879.2 3179.5,1879.2 3002.4,1879.2 
			2982.4,1879.2 2700.8,1879.2 2700.8,1879.2 2680.9,1879.2 2680.9,1879.2 2486.8,1879.2 2486.8,1859.2 2680.9,1859.2 
			2680.9,1746.2 2700.8,1746.2 2700.8,1859.2 2982.4,1859.2 2982.4,1831.3 3002.4,1831.3 3002.4,1859.2 3179.5,1859.2 
			3179.5,1764.3 3002.4,1764.3 3002.4,1777 2982.4,1777 2982.4,1764.3 2982.4,1743.1 2982.4,1722.6 3002.4,1722.6 3002.4,1743.1 
			3179.5,1743.1 3179.5,1648.8 3002.4,1648.8 3002.4,1668.2 2982.4,1668.2 2982.4,1648.8 2700.8,1648.8 2700.8,1657.9 
			2680.9,1657.9 2680.9,1648.8 2680.9,1627.7 2680.9,1556.9 2700.8,1556.9 2700.8,1627.7 2982.4,1627.7 3002.4,1627.7 
			3179.5,1627.7 3179.5,1454.8 3002.4,1454.8 2982.4,1454.8 2700.8,1454.8 2700.8,1468.7 2680.9,1468.7 2680.9,1454.8 
			2680.9,1433.6 2680.9,1341.1 2700.8,1341.1 2700.8,1433.6 2982.4,1433.6 2982.4,1411.9 3002.4,1411.9 3002.4,1433.6 
			3179.5,1433.6 3179.5,1340.6 3002.4,1340.6 3002.4,1357.5 2982.4,1357.5 2982.4,1340.6 2982.4,1319.4 2982.4,1301.9 
			3002.4,1301.9 3002.4,1319.4 3179.5,1319.4 3179.5,1226.3 3002.4,1226.3 3002.4,1247.4 2982.4,1247.4 2982.4,1226.3 
			2700.8,1226.3 2700.8,1252.9 2680.9,1252.9 2680.9,1226.3 2680.9,1205.2 2700.8,1205.2 2982.4,1205.2 3002.4,1205.2 
			3179.5,1205.2 3199.4,1205.2 4007,1205.2 4007,1226.3 3199.4,1226.3 3199.4,1319.4 3199.4,1340.6 3199.4,1433.6 3199.4,1454.8 
			3199.4,1627.7 3199.4,1648.8 3199.4,1743.1 3199.4,1764.3 3199.4,1859.2 3393.5,1859.2 3413.4,1859.2 3978.6,1859.2 
			3998.6,1859.2 4162.4,1859.2 4162.4,1879.2 3998.6,1879.2 3978.6,1879.2 3413.4,1879.2 		"/>
		<polygon style="fill:#B7B7B7;" points="2655.5,436.9 2655.5,458 2666.9,458 2666.9,681.1 2655.5,681.1 2655.5,702.3 2666.9,702.3 
			2688.1,702.3 2688.1,681.1 2688.1,458 2688.1,436.9 2666.9,436.9 		"/>
		<polygon style="fill:#B7B7B7;" points="4162.4,1226.3 4413.9,1226.3 4435,1226.3 4435,1205.2 4435,1188.2 4413.9,1188.2 
			4413.9,1205.2 4162.4,1205.2 		"/>
		<polyline style="fill:#B7B7B7;" points="2961.3,414.2 2961.3,435.4 3136,435.4 3136,414.2 		"/>
	</g>
</g>
</svg>
