<svg id="Livello_1" data-name="Livello 1" xmlns="http://www.w3.org/2000/svg" xmlns:xlink="http://www.w3.org/1999/xlink" viewBox="0 0 5500 3452.19"><defs><pattern id="locale_tecnico-5_2_" data-name="locale tecnico-5 2 " width="48.1" height="48.1" patternTransform="matrix(-0.6, 0, 0, 0.38, -9599.85, 9296.46)" patternUnits="userSpaceOnUse" viewBox="0 0 48.1 48.1"><rect width="48.1" height="48.1" style="fill:none"/><rect width="48.1" height="48.1" style="fill:none"/><rect width="48.1" height="48.1" style="fill:none"/><rect width="48.1" height="48.1" style="fill:none"/><rect width="48.1" height="48.1" style="fill:none"/><rect width="48.1" height="48.1" style="fill:none"/><rect x="44.7" y="-44.7" width="50.6" height="48.9" style="fill:#f2f2f2"/><line x1="48.1" x2="96.1" y2="-48.1" style="fill:none;stroke:#ddd;stroke-linecap:square;stroke-linejoin:round;stroke-width:20px"/><rect x="-3.4" y="-44.7" width="50.6" height="48.9" style="fill:#f2f2f2"/><line x2="48.1" y2="-48.1" style="fill:none;stroke:#ddd;stroke-linecap:square;stroke-linejoin:round;stroke-width:20px"/><line x1="-48.1" y2="-48.1" style="fill:none;stroke:#ddd;stroke-linecap:square;stroke-linejoin:round;stroke-width:20px"/><rect x="44.7" y="3.4" width="50.6" height="48.9" style="fill:#f2f2f2"/><line x1="48.1" y1="48.1" x2="96.1" style="fill:none;stroke:#ddd;stroke-linecap:square;stroke-linejoin:round;stroke-width:20px"/><rect x="-3.4" y="3.4" width="50.6" height="48.9" style="fill:#f2f2f2"/><line y1="48.1" x2="48.1" style="fill:none;stroke:#ddd;stroke-linecap:square;stroke-linejoin:round;stroke-width:20px"/><line x1="-48.1" y1="48.1" style="fill:none;stroke:#ddd;stroke-linecap:square;stroke-linejoin:round;stroke-width:20px"/><line x1="48.1" y1="96.1" x2="96.1" y2="48.1" style="fill:none;stroke:#ddd;stroke-linecap:square;stroke-linejoin:round;stroke-width:20px"/><line y1="96.1" x2="48.1" y2="48.1" style="fill:none;stroke:#ddd;stroke-linecap:square;stroke-linejoin:round;stroke-width:20px"/><line x1="-48.1" y1="96.1" y2="48.1" style="fill:none;stroke:#ddd;stroke-linecap:square;stroke-linejoin:round;stroke-width:20px"/></pattern><pattern id="locale_tecnico-6_2_" data-name="locale tecnico-6 2 " width="48.1" height="48.1" patternTransform="matrix(-0.6, 0, 0, 0.6, -9599.85, 13646.82)" patternUnits="userSpaceOnUse" viewBox="0 0 48.1 48.1"><rect width="48.1" height="48.1" style="fill:none"/><rect width="48.1" height="48.1" style="fill:none"/><rect width="48.1" height="48.1" style="fill:none"/><rect width="48.1" height="48.1" style="fill:none"/><rect width="48.1" height="48.1" style="fill:none"/><rect width="48.1" height="48.1" style="fill:none"/><rect x="44.7" y="-44.7" width="50.6" height="48.9" style="fill:#f2f2f2"/><line x1="48.1" x2="96.1" y2="-48.1" style="fill:none;stroke:#ddd;stroke-linecap:square;stroke-linejoin:round;stroke-width:20px"/><rect x="-3.4" y="-44.7" width="50.6" height="48.9" style="fill:#f2f2f2"/><line x2="48.1" y2="-48.1" style="fill:none;stroke:#ddd;stroke-linecap:square;stroke-linejoin:round;stroke-width:20px"/><line x1="-48.1" y2="-48.1" style="fill:none;stroke:#ddd;stroke-linecap:square;stroke-linejoin:round;stroke-width:20px"/><rect x="44.7" y="3.4" width="50.6" height="48.9" style="fill:#f2f2f2"/><line x1="48.1" y1="48.1" x2="96.1" style="fill:none;stroke:#ddd;stroke-linecap:square;stroke-linejoin:round;stroke-width:20px"/><rect x="-3.4" y="3.4" width="50.6" height="48.9" style="fill:#f2f2f2"/><line y1="48.1" x2="48.1" style="fill:none;stroke:#ddd;stroke-linecap:square;stroke-linejoin:round;stroke-width:20px"/><line x1="-48.1" y1="48.1" style="fill:none;stroke:#ddd;stroke-linecap:square;stroke-linejoin:round;stroke-width:20px"/><line x1="48.1" y1="96.1" x2="96.1" y2="48.1" style="fill:none;stroke:#ddd;stroke-linecap:square;stroke-linejoin:round;stroke-width:20px"/><line y1="96.1" x2="48.1" y2="48.1" style="fill:none;stroke:#ddd;stroke-linecap:square;stroke-linejoin:round;stroke-width:20px"/><line x1="-48.1" y1="96.1" y2="48.1" style="fill:none;stroke:#ddd;stroke-linecap:square;stroke-linejoin:round;stroke-width:20px"/></pattern></defs><g id="A4-floor-1"><g id="background"><path d="M28.1,2202.31c3.8,9.24,8,18.35,12.4,27.17A375.34,375.34,0,0,0,106.39,2322a364.51,364.51,0,0,0,91.47,68.75q12.25,6.45,25,12.05a354.07,354.07,0,0,0,113.27,28.46H844.49v197.64H2411.81v823.34H5500V211H2411.81V854.21H0v1223.5A382.12,382.12,0,0,0,28.1,2202.31Z" style="fill:#f2f2f2"/></g><g id="rooms"><rect id="senza_codice" data-name="senza codice" x="3002.38" y="1765.15" width="177.07" height="94.92" style="fill:#f2f2f2"/><rect id="senza_codice-2" data-name="senza codice-2" x="3002.38" y="1649.66" width="177.07" height="94.27" style="fill:#f2f2f2"/><rect id="senza_codice-3" data-name="senza codice-3" x="3002.38" y="1341.4" width="177.07" height="93.12" style="fill:#f2f2f2"/><rect id="senza_codice-4" data-name="senza codice-4" x="3002.38" y="1227.13" width="177.07" height="93.12" style="fill:#f2f2f2"/><rect id="locale_tecnico-5" data-name="locale tecnico-5" x="2982.45" y="251.52" width="132.41" height="183.74" style="fill:url(#locale_tecnico-5_2_)"/><path id="locale_tecnico-6" data-name="locale tecnico-6" d="M346.18,2390.77H885v197.65h1567.4v823.27H5459.64V1880H2432.38V1207.2h-92.47V995.65h92.47V894.71H40.5V2055.92C40.5,2234.06,175.92,2380.31,346.18,2390.77Z" style="fill:url(#locale_tecnico-6_2_)"/><g class="clickable" id="A4--1-23-C" data-name="customclass A4--1-23-C"><rect id="a" x="2452.31" y="458.85" width="214.56" height="223.02" style="fill:#f2f2f2"/></g><g class="clickable" id="A4--1-22" data-name="customclass A4--1-22" style="opacity:0.400000005960465"><g id="scale"><rect x="3047.11" y="437.2" width="3.58" height="395.86" style="fill:#b7b7b7"/><rect x="2980.44" y="586.74" width="137.93" height="3.58" style="fill:#b7b7b7"/><rect x="2982.88" y="681.01" width="137.86" height="3.58" style="fill:#b7b7b7"/><rect x="2980.44" y="558.64" width="137.93" height="3.58" style="fill:#b7b7b7"/><rect x="2980.44" y="528.67" width="137.93" height="3.58" style="fill:#b7b7b7"/><rect x="2977" y="466.44" width="143.74" height="3.58" style="fill:#b7b7b7"/><polygon points="2977.44 470.45 2975.99 467.17 3049.26 434.88 3121.32 466.6 3119.87 469.88 3049.26 438.8 2977.44 470.45" style="fill:#b7b7b7"/><rect x="2980.44" y="494.83" width="137.93" height="3.58" style="fill:#b7b7b7"/><rect x="2978.79" y="801.3" width="140.22" height="3.58" style="fill:#b7b7b7"/><rect x="2978.79" y="831.55" width="140.22" height="3.58" style="fill:#b7b7b7"/><rect x="2978.79" y="740.29" width="140.22" height="3.58" style="fill:#b7b7b7"/><rect x="2978.79" y="710.04" width="140.22" height="3.58" style="fill:#b7b7b7"/><rect x="2978.79" y="771.69" width="140.22" height="3.58" style="fill:#b7b7b7"/><rect x="2976.96" y="786.5" width="143.59" height="3.58" transform="translate(-97.03 645.75) rotate(-11.9)" style="fill:#b7b7b7"/><rect x="2982.88" y="434.9" width="137.86" height="3.58" style="fill:#b7b7b7"/></g><rect x="2982.88" y="436.69" width="131.98" height="432.42" style="fill:none"/></g><g class="clickable" id="A4--1-23" data-name="customclass A4--1-23" style="opacity:0.400000005960465"><g id="scale-2"><rect x="2823.95" y="454.26" width="3.58" height="247.32" style="fill:#b7b7b7"/><rect x="2684.94" y="452.54" width="280.52" height="3.58" style="fill:#b7b7b7"/><rect x="2684.94" y="515.98" width="280.52" height="3.58" style="fill:#b7b7b7"/><rect x="2685.09" y="483.36" width="280.44" height="3.58" style="fill:#b7b7b7"/><rect x="2684.94" y="548.03" width="280.52" height="3.58" style="fill:#b7b7b7"/><rect x="2684.94" y="638.71" width="280.52" height="3.58" style="fill:#b7b7b7"/><rect x="2684.94" y="674.41" width="280.52" height="3.58" style="fill:#b7b7b7"/><polygon points="2825.53 702.68 2685.44 679.62 2686.02 676.09 2825.52 699.05 2963.37 676.09 2963.96 679.62 2825.53 702.68" style="fill:#b7b7b7"/><rect x="2684.94" y="577.06" width="280.52" height="3.58" style="fill:#b7b7b7"/><rect x="2684.94" y="606.67" width="280.52" height="3.58" style="fill:#b7b7b7"/><rect x="2684.94" y="699.79" width="280.52" height="3.58" style="fill:#b7b7b7"/></g><rect x="2688.1" y="415.04" width="273.2" height="312.85" style="fill:none"/></g><g class="clickable" id="A4--1-26" data-name="customclass A4--1-26"><polygon id="_tracciato_3" data-name=" tracciato 3" points="3789.16 929.77 3789.16 251.52 4413.85 251.52 4413.85 684.31 4413.85 705.52 4413.85 929.77 3789.16 929.77" style="fill:#f2f2f2"/></g><g class="clickable" id="A4--1-24" data-name="customclass A4--1-24"><polygon id="_tracciato_5" data-name=" tracciato 5" points="3136.01 684.31 3136.01 251.52 3767.94 251.52 3767.94 929.77 3136.01 929.77 3136.01 705.52 3136.01 684.31" style="fill:#f2f2f2"/></g><g class="clickable" id="A4--1-21" data-name="customclass A4--1-21"><polygon id="_tracciato_7" data-name=" tracciato 7" points="2359.84 1186.05 2359.84 1015.58 2432.39 1015.58 2452.31 1015.58 2452.31 995.65 2452.31 950.91 2452.31 950.91 2452.31 950.91 2666.95 950.91 2688.1 950.91 2688.1 950.91 2688.1 950.91 2688.1 950.91 2666.95 950.91 2452.31 950.91 2452.31 950.91 2961.3 950.91 2961.3 950.91 2961.3 950.91 2961.3 950.91 2982.45 950.91 2982.45 950.91 3114.86 950.91 3114.86 950.91 3114.86 950.91 3114.86 1002.89 3136.01 1002.89 3136.01 950.91 3475.09 950.91 3496.24 950.91 3767.94 950.91 3789.16 950.91 4060.86 950.91 4082.01 950.91 4413.85 950.91 4413.85 1205.98 3199.45 1205.98 3179.52 1205.98 3002.38 1205.98 2982.45 1205.98 2700.79 1205.98 2680.86 1205.98 2680.86 1227.13 2680.86 1434.45 2680.86 1455.6 2680.86 1628.51 2680.86 1649.66 2680.86 1859.99 2452.31 1859.99 2452.31 1207.2 2452.31 1186.63 2452.31 1186.05 2359.84 1186.05" style="fill:#f2f2f2"/></g><g class="clickable" id="A4--1-20" data-name="customclass A4--1-20"><polygon id="_tracciato_8" data-name=" tracciato 8" points="2700.79 1434.45 2700.79 1227.13 2982.45 1227.13 2982.45 1320.25 2982.45 1341.4 2982.45 1434.45 2700.79 1434.45" style="fill:#f2f2f2"/></g><g class="clickable" id="A4--1-19" data-name="customclass A4--1-19"><polygon id="_tracciato_9" data-name=" tracciato 9" points="2700.79 1628.51 2700.79 1455.6 2982.45 1455.6 3002.38 1455.6 3179.52 1455.6 3179.52 1628.51 3002.38 1628.51 2982.45 1628.51 2700.79 1628.51" style="fill:#f2f2f2"/></g><g class="clickable" id="A4--1-18" data-name="customclass A4--1-18"><polygon id="_tracciato_10" data-name=" tracciato 10" points="2700.79 1859.99 2700.79 1649.66 2982.45 1649.66 2982.45 1743.93 2982.45 1765.15 2982.45 1859.99 2700.79 1859.99" style="fill:#f2f2f2"/></g><g class="clickable" id="A4--1-34" data-name="customclass A4--1-34"><polygon id="tracciato_11" data-name="tracciato 11" points="3393.51 1859.99 3413.44 1859.99 3978.63 1859.99 3998.56 1859.99 4435 1859.99 4977.18 1859.99 4997.18 1859.99 5459.57 1859.99 5459.57 251.52 4435 251.52 4435 414.11 4435 435.26 4435 684.31 4435 705.52 4435 929.77 4435 950.91 4435 1205.98 4435 1227.13 3199.45 1227.13 3199.45 1320.25 3199.45 1341.4 3199.45 1434.45 3199.45 1455.6 3199.45 1628.51 3199.45 1649.66 3199.45 1743.93 3199.45 1765.15 3199.45 1859.99 3393.51 1859.99" style="fill:#ddd"/></g><g class="clickable" data-building-code="P1" id="A1--1-G1--1" data-floor-code="-1"><rect id="room-box-29" x="2469.38" y="1.33" width="194.49" height="209.76" style="fill:none;stroke:#f2f2f2;stroke-miterlimit:10"/><path d="M2566.59,47.86a58.55,58.55,0,0,0-58.65,58.28h0v.07a58.65,58.65,0,0,0,117.29.07v-.07c.07-32.26-26.24-58.35-58.64-58.35" style="fill:#fff;stroke:#303030"/><path d="M2557.7,113.16h6.88c10.32,0,14.55-4.22,14.55-12,0-6.59-3.87-11.32-14.26-11.32h-7.17Zm-6.89,29.4V84.13h14.7c11.76,0,20.65,5.66,20.65,16.85s-8,18-21.58,18h-6.88v23.59Zm52.34-54.41L2566.66,75l-36.49,13.27-1.65-4.45,38.14-13.83,38.14,13.83Z"/></g></g><g id="walls"><path d="M4248.25,251.52h165.6V929.69H3908v21.15h506v49h21.15V251.52H5459.64V1860H4162.37v19.93h1297.2V3411.69H2452.31V2588.42H884.92V2390.77H346.18C175.92,2380.31,40.5,2234.14,40.5,2055.92V894.71H2432.38V995.65h-92.47v37.49h19.93v-17.49h92.47V703.16H2471V682h-18.71V459H2471V437.7h-18.71V251.52H2471V211h-59.21V854.21H0v1223.5a383.1,383.1,0,0,0,28.1,124.67c3.8,9.25,8,18.35,12.4,27.17A375.4,375.4,0,0,0,106.39,2322a364.71,364.71,0,0,0,91.47,68.74q12.25,6.46,25,12.05a354.07,354.07,0,0,0,113.27,28.46H844.49v197.64H2411.81v823.27H5500V211H2666.3v40.5h295v15.7h21.15v-15.7h132.41v751.37H3136v-52h474.5V929.77H3136V251.59h631.93V929.77h-55.27v21.14h93.12V929.77h-16.63V251.59l459.09-.07ZM2452.31,1880h34.49v-20h-34.49V1186.05h-92.47V1033.14h-19.93v152.91h0v21.15h92.47V1880M2982.45,267.22H2961.3v568.2h21.15Z" style="fill:#b7b7b7"/><polygon points="3393.51 1879.99 3199.45 1879.99 3199.45 1879.99 3179.52 1879.99 3179.52 1879.99 3002.38 1879.99 2982.45 1879.99 2700.79 1879.99 2700.79 1879.99 2680.86 1879.99 2680.86 1879.99 2486.8 1879.99 2486.8 1859.99 2680.86 1859.99 2680.86 1747.01 2700.79 1747.01 2700.79 1859.99 2982.45 1859.99 2982.45 1832.18 3002.38 1832.18 3002.38 1859.99 3179.52 1859.99 3179.52 1765.15 3002.38 1765.15 3002.38 1777.84 2982.45 1777.84 2982.45 1765.15 2982.45 1743.93 2982.45 1723.43 3002.38 1723.43 3002.38 1743.93 3179.52 1743.93 3179.52 1649.66 3002.38 1649.66 3002.38 1669.02 2982.45 1669.02 2982.45 1649.66 2700.79 1649.66 2700.79 1658.77 2680.86 1658.77 2680.86 1649.66 2680.86 1628.51 2680.86 1557.76 2700.79 1557.76 2700.79 1628.51 2982.45 1628.51 3002.38 1628.51 3179.52 1628.51 3179.52 1455.6 3002.38 1455.6 2982.45 1455.6 2700.79 1455.6 2700.79 1469.51 2680.86 1469.51 2680.86 1455.6 2680.86 1434.45 2680.86 1341.97 2700.79 1341.97 2700.79 1434.45 2982.45 1434.45 2982.45 1412.73 3002.38 1412.73 3002.38 1434.45 3179.52 1434.45 3179.52 1341.4 3002.38 1341.4 3002.38 1358.32 2982.45 1358.32 2982.45 1341.4 2982.45 1320.25 2982.45 1302.69 3002.38 1302.69 3002.38 1320.25 3179.52 1320.25 3179.52 1227.13 3002.38 1227.13 3002.38 1248.28 2982.45 1248.28 2982.45 1227.13 2700.79 1227.13 2700.79 1253.73 2680.86 1253.73 2680.86 1227.13 2680.86 1205.98 2700.79 1205.98 2982.45 1205.98 3002.38 1205.98 3179.52 1205.98 3199.45 1205.98 4007.02 1205.98 4007.02 1227.13 3199.45 1227.13 3199.45 1320.25 3199.45 1341.4 3199.45 1434.45 3199.45 1455.6 3199.45 1628.51 3199.45 1649.66 3199.45 1743.93 3199.45 1765.15 3199.45 1859.99 3393.51 1859.99 3413.44 1859.99 3978.63 1859.99 3998.56 1859.99 4162.37 1859.99 4162.37 1879.99 3998.56 1879.99 3978.63 1879.99 3413.44 1879.99 3393.51 1879.99" style="fill:#b7b7b7"/><polygon points="2655.48 437.7 2655.48 458.85 2666.95 458.85 2666.95 681.94 2655.48 681.94 2655.48 703.09 2666.95 703.09 2688.1 703.09 2688.1 681.94 2688.1 458.85 2688.1 437.7 2666.95 437.7 2655.48 437.7" style="fill:#b7b7b7"/><polygon points="4162.37 1227.13 4413.85 1227.13 4435 1227.13 4435 1205.98 4435 1189.06 4413.85 1189.06 4413.85 1205.98 4162.37 1205.98 4162.37 1227.13" style="fill:#b7b7b7"/><polyline points="2961.3 415.04 2961.3 436.19 3136.01 436.19 3136.01 415.04" style="fill:#b7b7b7"/></g></g></svg>