<svg id="Livello_1" data-name="Livello 1" xmlns="http://www.w3.org/2000/svg" xmlns:xlink="http://www.w3.org/1999/xlink" viewBox="0 0 5500 3452.19"><defs><pattern id="senza_codice_2_" data-name="senza codice 2 " width="48.1" height="48.1" patternTransform="matrix(-0.87, 0, 0, 0.67, -13026.17, 15737.67)" patternUnits="userSpaceOnUse" viewBox="0 0 48.1 48.1"><rect width="48.1" height="48.1" style="fill:none"/><rect width="48.1" height="48.1" style="fill:none"/><rect width="48.1" height="48.1" style="fill:none"/><rect width="48.1" height="48.1" style="fill:none"/><rect width="48.1" height="48.1" style="fill:none"/><rect width="48.1" height="48.1" style="fill:none"/><rect x="44.7" y="-44.7" width="50.6" height="48.9" style="fill:#f2f2f2"/><line x1="48" x2="96.1" y2="-48.1" style="fill:none;stroke:#ddd;stroke-linecap:square;stroke-linejoin:round;stroke-width:20px"/><rect x="-3.4" y="-44.7" width="50.6" height="48.9" style="fill:#f2f2f2"/><line x2="48.1" y2="-48.1" style="fill:none;stroke:#ddd;stroke-linecap:square;stroke-linejoin:round;stroke-width:20px"/><line x1="-48.1" y2="-48.1" style="fill:none;stroke:#ddd;stroke-linecap:square;stroke-linejoin:round;stroke-width:20px"/><rect x="44.7" y="3.4" width="50.6" height="48.9" style="fill:#f2f2f2"/><line x1="48" y1="48.1" x2="96.1" style="fill:none;stroke:#ddd;stroke-linecap:square;stroke-linejoin:round;stroke-width:20px"/><rect x="-3.4" y="3.4" width="50.6" height="48.9" style="fill:#f2f2f2"/><line y1="48.1" x2="48.1" style="fill:none;stroke:#ddd;stroke-linecap:square;stroke-linejoin:round;stroke-width:20px"/><line x1="-48.1" y1="48.1" style="fill:none;stroke:#ddd;stroke-linecap:square;stroke-linejoin:round;stroke-width:20px"/><line x1="48" y1="96.1" x2="96.1" y2="48.1" style="fill:none;stroke:#ddd;stroke-linecap:square;stroke-linejoin:round;stroke-width:20px"/><line y1="96.1" x2="48.1" y2="48.1" style="fill:none;stroke:#ddd;stroke-linecap:square;stroke-linejoin:round;stroke-width:20px"/><line x1="-48.1" y1="96.1" y2="48.1" style="fill:none;stroke:#ddd;stroke-linecap:square;stroke-linejoin:round;stroke-width:20px"/></pattern><pattern id="locale_tecnico-13_2_" data-name="locale tecnico-13 2 " width="48.1" height="48.1" patternTransform="matrix(-0.56, 0, 0, 0.56, -9177.7, 12207.66)" patternUnits="userSpaceOnUse" viewBox="0 0 48.1 48.1"><rect width="48.1" height="48.1" style="fill:none"/><rect width="48.1" height="48.1" style="fill:none"/><rect width="48.1" height="48.1" style="fill:none"/><rect width="48.1" height="48.1" style="fill:none"/><rect width="48.1" height="48.1" style="fill:none"/><rect width="48.1" height="48.1" style="fill:none"/><rect x="44.7" y="-44.7" width="50.6" height="48.9" style="fill:#f2f2f2"/><line x1="48" x2="96.1" y2="-48.1" style="fill:none;stroke:#ddd;stroke-linecap:square;stroke-linejoin:round;stroke-width:20px"/><rect x="-3.4" y="-44.7" width="50.6" height="48.9" style="fill:#f2f2f2"/><line x2="48.1" y2="-48.1" style="fill:none;stroke:#ddd;stroke-linecap:square;stroke-linejoin:round;stroke-width:20px"/><line x1="-48.1" y2="-48.1" style="fill:none;stroke:#ddd;stroke-linecap:square;stroke-linejoin:round;stroke-width:20px"/><rect x="44.7" y="3.4" width="50.6" height="48.9" style="fill:#f2f2f2"/><line x1="48" y1="48.1" x2="96.1" style="fill:none;stroke:#ddd;stroke-linecap:square;stroke-linejoin:round;stroke-width:20px"/><rect x="-3.4" y="3.4" width="50.6" height="48.9" style="fill:#f2f2f2"/><line y1="48.1" x2="48.1" style="fill:none;stroke:#ddd;stroke-linecap:square;stroke-linejoin:round;stroke-width:20px"/><line x1="-48.1" y1="48.1" style="fill:none;stroke:#ddd;stroke-linecap:square;stroke-linejoin:round;stroke-width:20px"/><line x1="48" y1="96.1" x2="96.1" y2="48.1" style="fill:none;stroke:#ddd;stroke-linecap:square;stroke-linejoin:round;stroke-width:20px"/><line y1="96.1" x2="48.1" y2="48.1" style="fill:none;stroke:#ddd;stroke-linecap:square;stroke-linejoin:round;stroke-width:20px"/><line x1="-48.1" y1="96.1" y2="48.1" style="fill:none;stroke:#ddd;stroke-linecap:square;stroke-linejoin:round;stroke-width:20px"/></pattern></defs><g id="A4-floor0"><g id="background"><path d="M.6,2097.72a610.57,610.57,0,0,0,45.78,216,602.19,602.19,0,0,0,125.73,191.51,584.15,584.15,0,0,0,186.61,129.08,569.35,569.35,0,0,0,210.91,47.06h140.7v252.39h1105.9V2681.32h625.55v770.87H5343.3V2527.93H5499V1959.71H5343.3V213.49H2441.84V858.38H.67V2079.13H.34C.34,2085.37.47,2091.55.6,2097.72Zm890.83,583.6h924.8v85.45H891.43Z" style="fill:#f2f2f2"/></g><g id="scale"><g id="scala2" style="opacity:0.400000005960465"><rect x="3046.25" y="441.49" width="3.36" height="370.6" style="fill:#b7b7b7"/><rect x="2983.82" y="581.51" width="129.15" height="3.36" style="fill:#b7b7b7"/><rect x="2986.1" y="669.79" width="129.15" height="3.36" style="fill:#b7b7b7"/><rect x="2983.82" y="555.2" width="129.15" height="3.36" style="fill:#b7b7b7"/><rect x="2983.82" y="527.14" width="129.15" height="3.36" style="fill:#b7b7b7"/><rect x="2980.66" y="468.88" width="134.59" height="3.36" style="fill:#b7b7b7"/><rect x="2986.1" y="439.34" width="129.15" height="3.36" style="fill:#b7b7b7"/><polygon points="2981.01 472.63 2979.65 469.56 3048.26 439.32 3115.72 469.02 3114.37 472.09 3048.26 442.99 2981.01 472.63" style="fill:#b7b7b7"/><rect x="2983.82" y="495.46" width="129.15" height="3.36" style="fill:#b7b7b7"/><rect x="2982.34" y="782.42" width="131.3" height="3.36" style="fill:#b7b7b7"/><rect x="2982.34" y="810.68" width="131.3" height="3.36" style="fill:#b7b7b7"/><rect x="2982.34" y="725.23" width="131.3" height="3.36" style="fill:#b7b7b7"/><rect x="2982.34" y="696.97" width="131.3" height="3.36" style="fill:#b7b7b7"/><rect x="2982.34" y="754.7" width="131.3" height="3.36" style="fill:#b7b7b7"/></g><g id="scala1" style="opacity:0.400000005960465"><rect x="2837.35" y="495.93" width="3.36" height="138.35" style="fill:#b7b7b7"/><rect x="2707.19" y="494.32" width="262.6" height="3.36" style="fill:#b7b7b7"/><rect x="2707.19" y="517.27" width="262.6" height="3.36" style="fill:#b7b7b7"/><rect x="2707.19" y="540.37" width="262.6" height="3.36" style="fill:#b7b7b7"/><rect x="2707.19" y="610.92" width="262.6" height="3.36" style="fill:#b7b7b7"/><rect x="2707.19" y="633.13" width="262.6" height="3.36" style="fill:#b7b7b7"/><polygon points="2838.76 635.71 2707.66 614.18 2708.2 610.87 2838.76 632.31 2967.84 610.87 2968.39 614.18 2838.76 635.71" style="fill:#b7b7b7"/><rect x="2707.19" y="563.12" width="262.6" height="3.36" style="fill:#b7b7b7"/><rect x="2707.19" y="586.95" width="262.6" height="3.36" style="fill:#b7b7b7"/></g></g><g id="rooms"><polygon id="senza_codice" data-name="senza codice" points="1516.85 2398.92 1021.86 2398.92 1021.86 2643.39 1516.85 2643.39 1516.85 2398.92" style="fill:url(#senza_codice_2_)"/><path id="senza_codice-2" data-name="senza codice-2" d="M525.4,2658.36c5.1.54,10.13,1.07,15.3,1.48,9.6.8,19.33,1.34,29.07,1.67H609.3v-56.05h37.93v37.93h82.63v271.66H1816V2681.32h0v104.11H871.3v-142h130.76V2496.25H508c-1.95-.13-3.89-.34-5.77-.54A332.09,332.09,0,0,1,402,2469.6c-8-3.49-15.78-7.25-23.43-11.28a342.47,342.47,0,0,1-72.16-51.21c-4.56-4.23-9.06-8.6-13.42-13.16a351.37,351.37,0,0,1-61.69-86.59c-4.17-8.33-8.06-16.78-11.62-25.44a358,358,0,0,1-26.31-116.74V1019.68H2451.51V878.18H20.07V2097.32C28.8,2388.92,247.23,2627.28,525.4,2658.36Z" style="fill:#f2f2f2"/><rect id="senza_codice-3" data-name="senza codice-3" x="2439.7" y="3222.96" width="151.56" height="191.31" style="fill:#f2f2f2"/><rect id="senza_codice-4" data-name="senza codice-4" x="2609.93" y="3222.96" width="92.23" height="191.31" style="fill:#f2f2f2"/><rect id="senza_codice-5" data-name="senza codice-5" x="2720.89" y="3222.96" width="93.37" height="191.31" style="fill:#f2f2f2"/><rect id="senza_codice-6" data-name="senza codice-6" x="2832.92" y="3222.96" width="121.1" height="191.31" style="fill:#f2f2f2"/><rect id="senza_codice-7" data-name="senza codice-7" x="2972.68" y="3222.96" width="155.67" height="191.31" style="fill:#f2f2f2"/><g class="clickable" id="A4-0-12-D" data-name="customclass A4-0-12-D"><g id="a"><rect x="5342.96" y="1961.39" width="136.94" height="547.28" style="fill:#f2f2f2"/></g><g id="scala3" style="opacity:0.490000009536743"><rect x="5340.61" y="1990.86" width="140.56" height="3.36" style="fill:#b7b7b7"/><polygon points="5411.3 2112.9 5340.91 2083.97 5342.19 2080.87 5411.29 2109.26 5479.73 2080.87 5481.01 2083.97 5411.3 2112.9" style="fill:#b7b7b7"/><rect x="5409.22" y="1961.39" width="3.36" height="149.76" style="fill:#b7b7b7"/><rect x="5340.61" y="2020.66" width="140.56" height="3.36" style="fill:#b7b7b7"/><rect x="5340.61" y="2050.4" width="140.56" height="3.36" style="fill:#b7b7b7"/><rect x="5340.61" y="2080.2" width="140.56" height="3.36" style="fill:#b7b7b7"/><rect x="5340.61" y="2110.01" width="140.56" height="3.36" style="fill:#b7b7b7"/><rect x="5340.61" y="1959.44" width="140.56" height="3.36" style="fill:#b7b7b7"/></g></g><rect id="locale_tecnico-13" data-name="locale tecnico-13" x="2288.46" y="1350.21" width="182.25" height="89.41" style="fill:url(#locale_tecnico-13_2_)"/><rect id="locale_tecnico-14" data-name="locale tecnico-14" x="2288.46" y="1980.05" width="182.25" height="87.73" style="fill:url(#locale_tecnico-13_2_)"/><rect id="locale_tecnico-15" data-name="locale tecnico-15" x="3004.43" y="1368.87" width="165.8" height="87.13" style="fill:url(#locale_tecnico-13_2_)"/><rect id="locale_tecnico-16" data-name="locale tecnico-16" x="3004.43" y="1980.05" width="165.8" height="87.73" style="fill:url(#locale_tecnico-13_2_)"/><polygon id="locale_tecnico-17" data-name="locale tecnico-17" points="2972.68 2731.66 2972.68 2662.05 3128.34 2662.05 3148.14 2662.05 3170.23 2662.05 3188.89 2662.05 5002.23 2662.05 5305.04 2662.05 5305.04 2928.61 5305.04 2947.34 5305.04 3140.32 5305.04 3158.99 5305.04 3165.23 5305.04 3414.26 4857.91 3414.26 4839.25 3414.26 4267.07 3414.26 4248.4 3414.26 3148.14 3414.26 3148.14 3222.96 3148.14 3204.3 3148.14 2911.69 3148.14 2892.97 3128.34 2892.97 2972.68 2892.97 2972.68 2731.66" style="fill:url(#locale_tecnico-13_2_)"/><g class="clickable" id="A4-0-01-A" data-name="customclass A4-0-01-A"><rect id="a-2" x="2489.37" y="458.18" width="200.91" height="208.83" style="fill:#f2f2f2"/></g><g class="clickable" id="A4-0-13" data-name="customclass A4-0-13"><polygon id="_tracciato_" data-name=" tracciato " points="2720.89 2892.97 2720.89 2662.05 2954.01 2662.05 2954.01 2892.97 2832.92 2892.97 2814.26 2892.97 2720.89 2892.97" style="fill:#f2f2f2"/></g><g class="clickable" id="A4-0-12" data-name="customclass A4-0-12"><polygon id="_tracciato_2" data-name=" tracciato 2" points="1021.86 2067.78 1021.86 1350.21 2269.8 1350.21 2269.8 1439.62 2269.8 1458.28 2288.46 1458.28 2470.71 1458.28 2470.71 1961.39 2288.46 1961.39 2269.8 1961.39 2269.8 1980.12 2269.8 2067.78 1021.86 2067.78" style="fill:#ddd"/></g><g class="clickable" id="A4-0-11" data-name="customclass A4-0-11"><path id="_tracciato_3" data-name=" tracciato 3" d="M231.18,2141.76V1057.54H2470.71v272.8H1002.06v757.25H2470.71v555.8h-934.4V2379.05H1002.06v97.33H647.16v-18.12H517.41c-4.5-.27-9.06-.67-13.56-1.14-4.77-.54-9.53-1.15-14.23-1.88a298.4,298.4,0,0,1-142.24-63.84c-70.69-57.59-116.13-146.74-116.13-246.69Z" style="fill:#ddd"/></g><g class="clickable" id="A4-0-06" data-name="customclass A4-0-06"><polygon id="_tracciato_4" data-name=" tracciato 4" points="3129.48 1037.74 3129.48 251.42 5305.04 251.42 5305.04 1959.17 5305.04 1977.84 5305.04 2509.27 5305.04 2527.93 5305.04 2643.39 4150.47 2643.39 4131.81 2643.39 3188.89 2643.39 3188.89 2087.65 3188.89 2067.78 3188.89 1980.12 3188.89 1960.25 3188.89 1475.8 3188.89 1456 3188.89 1368.87 3188.89 1368.87 3188.89 1368.87 3188.89 1349.07 3188.89 1057.54 3188.89 1037.74 3188.89 1037.74 3188.89 1037.74 3170.23 1037.74 3129.48 1037.74" style="fill:#ddd"/></g><g class="clickable" id="A4-0-05" data-name="customclass A4-0-05"><polygon id="_tracciato_5" data-name=" tracciato 5" points="2832.92 3204.3 2832.92 2911.69 2954.01 2911.69 2972.68 2911.69 3128.34 2911.69 3128.34 3204.3 2972.68 3204.3 2954.01 3204.3 2832.92 3204.3" style="fill:#f2f2f2"/></g><g class="clickable" id="A4-0-04" data-name="customclass A4-0-04"><polygon id="_tracciato_6" data-name=" tracciato 6" points="2439.7 3204.3 2439.7 2911.69 2685.02 2911.69 2706.61 2911.69 2814.26 2911.69 2814.26 3204.3 2706.61 3204.3 2685.02 3204.3 2578.69 3204.3 2557.18 3204.3 2439.7 3204.3" style="fill:#f2f2f2"/></g><g class="clickable" id="A4-0-03" data-name="customclass A4-0-03"><polygon id="_tracciato_7" data-name=" tracciato 7" points="2439.7 2681.32 2439.7 2662.05 2702.16 2662.05 2702.16 2892.97 2439.7 2892.97 2439.7 2681.32" style="fill:#f2f2f2"/></g><g class="clickable" id="A4-0-02" data-name="customclass A4-0-02"><polygon id="_tracciato_8" data-name=" tracciato 8" points="2489.37 1330.34 2489.37 1057.54 2965.9 1057.54 2985.7 1057.54 3109.68 1057.54 3129.48 1057.54 3170.23 1057.54 3170.23 1349.07 3004.43 1349.07 2985.7 1349.07 2985.7 1368.87 2985.7 1456 2985.7 1475.8 3004.43 1475.8 3170.23 1475.8 3170.23 1960.25 3004.43 1960.25 2985.7 1960.25 2985.7 1980.12 2985.7 2067.78 2985.7 2087.65 3004.43 2087.65 3170.23 2087.65 3170.23 2643.39 3148.14 2643.39 3128.34 2643.39 2489.37 2643.39 2489.37 2087.65 2489.37 2067.78 2489.37 1980.12 2489.37 1961.39 2489.37 1458.28 2489.37 1439.62 2489.37 1350.21 2489.37 1330.34" style="fill:#ddd"/></g><g class="clickable" id="A4-0-01-C" data-name="customclass A4-0-01-C"><polygon id="_tracciato_9" data-name=" tracciato 9" points="2489.37 629.68 2489.37 251.42 3109.68 251.42 3109.68 1037.74 2985.7 1037.74 2985.7 607.59 2965.9 607.59 2965.9 1037.74 2489.37 1037.74 2489.37 1019.68 2489.37 878.18 2690.28 878.18 2710.08 878.18 2710.08 858.38 2710.08 649.48 2710.08 629.68 2690.28 629.68 2489.37 629.68" style="fill:none"/></g></g><g id="walls"><path d="M0,2079.13H.27V1295.3h19.8v802c.2,6.58.54,13.22.94,19.74H1.14c-.4-6.45-.67-12.83-.87-19.34C.07,2091.55,0,2085.37,0,2079.13Z" style="fill:#b7b7b7"/><polygon points="193.26 1057.54 193.26 1019.68 231.18 1019.68 1147.45 1019.68 1147.45 1057.54 231.18 1057.54 231.18 1064.38 193.26 1064.38 193.26 1057.54" style="fill:#b7b7b7"/><rect x="193.26" y="1200.79" width="37.93" height="242.79" style="fill:#b7b7b7"/><rect x="193.26" y="1579.98" width="37.93" height="225.27" style="fill:#b7b7b7"/><path d="M193.26,2123.43V1941.59h37.92v203.19a318.25,318.25,0,0,0,1.68,33l-36.92,15.77c-1.27-9.4-2.15-18.79-2.68-28.33v-41.75Z" style="fill:#b7b7b7"/><path d="M229.84,2304.61l35.58-15.24c3.22,6.44,6.64,12.68,10.33,18.79L246.15,2334q-8.06-13-15-26.72C230.71,2306.42,230.24,2305.55,229.84,2304.61Z" style="fill:#b7b7b7"/><path d="M322.2,2420.93,351.81,2395q11.78,9.17,24.43,17.26l-19.33,33.56A345.13,345.13,0,0,1,322.2,2420.93Z" style="fill:#b7b7b7"/><path d="M464.78,2489.87l20.41-35.31c1.47.27,2.95.54,4.49.74,4.7.74,9.47,1.41,14.24,1.88,4.49.47,9,.88,13.55,1.14H647.3v18.13h80.35v19.8H647.16v17.52H609.24v-17.52H507.94c-1.94-.13-3.89-.34-5.77-.54A334.78,334.78,0,0,1,464.78,2489.87Z" style="fill:#b7b7b7"/><rect x="547.01" y="858.38" width="600.51" height="19.8" style="fill:#b7b7b7"/><path d="M563.39,2681.12v-19.81c2.08.07,4.23.14,6.31.27h39.54v-24.9h37.92v6.78h82.63v271.59h1086.1v18.66H710V2681.32H569.23Z" style="fill:#b7b7b7"/><path d="M1536.65,2379.12v264.34H2471V2465.17h18.66v178.29h301.06v18.66h-69.61v69.61h-18.66v-69.61H2439.7V2893h262.79V2795.1h18.66V2893h7.39v18.73H2439.7v292.6h67.72V3223H2439.7v191.31h151.9V3223h-17v-18.66h44.84V3223h-9.2v191.31h92.23V3223h-15.84v-18.66h43.7V3223h-9.2v191.31h93.44V3223h-17v-18.66h17V2911.69h-13.76V2893h44.31v18.66h-11.89V3204.3h34.64V3223h-34.64v191.31h121.1V3223h-19.27V3204.3h60.69V3223H2973v191.31h155.67V3223H3063V3204.3h65.65V2911.69H2917.43V2893h36.92V2662.12H2883.6v-18.66h287v-340.2h18.66v340.13H5305.37V2434h37.93v75.25h136.93v-549.5H5499v568.22H5343.3v924.19H2401.84v-770.8H1835l-14.7.53-4-.53H891.43v85.45h924.8v18.66H871.63v-142h130.76V2496.25h-133v-19.8h133v-97.33Zm-112,264.27h92.23V2398.92H1022.19v244.47h382.62m1568.27,18.66V2893h175.47V3414.2H5305.37V2662.05Z" style="fill:#b7b7b7"/><polygon points="1002.06 1350.21 1002.06 1330.34 1021.86 1330.34 1156.51 1330.34 1156.51 1350.21 1021.86 1350.21 1021.86 1463.38 1002.06 1463.38 1002.06 1350.21" style="fill:#b7b7b7"/><polygon points="1002.06 2067.78 1002.06 1950.11 1021.86 1950.11 1021.86 2067.78 1156.51 2067.78 1156.51 2087.65 1021.86 2087.65 1002.06 2087.65 1002.06 2067.78" style="fill:#b7b7b7"/><rect x="1448.58" y="1330.34" width="147.14" height="19.8" style="fill:#b7b7b7"/><rect x="1448.58" y="2067.78" width="147.14" height="19.8" style="fill:#b7b7b7"/><rect x="1887.78" y="1330.34" width="146" height="19.8" style="fill:#b7b7b7"/><rect x="1887.78" y="2067.78" width="146" height="19.8" style="fill:#b7b7b7"/><polygon points="1942.09 1057.54 1942.09 1019.68 2403.44 1019.68 2403.44 878.18 2072.25 878.18 2072.25 858.38 2403.44 858.38 2403.44 649.48 2403.44 629.68 2403.44 251.42 2403.44 213.49 2441.37 213.49 2673.9 213.49 2673.9 251.42 2441.37 251.42 2441.37 629.68 2506.89 629.68 2506.89 649.48 2441.37 649.48 2441.37 858.38 2506.89 858.38 2506.89 878.18 2441.37 878.18 2441.37 1019.68 2489.37 1019.74 2489.44 1038.15 2721.42 1037.74 2721.42 1057.54 2489.37 1057.54 2489.37 1107.95 2470.71 1107.95 2470.71 1057.54 2451.44 1057.54 1942.09 1057.54" style="fill:#b7b7b7"/><path d="M2269.8,1350.21v-19.8h219.57v127.94H2269.8Zm18.66,0v89.41h182.25v-89.41Z" style="fill:#b7b7b7"/><path d="M2269.8,1980.05v-18.66h219.57v126.2H2269.8Zm18.66,0v87.73h182.25v-87.73Z" style="fill:#b7b7b7"/><polygon points="2679.54 459.48 2679.54 439.68 2690.28 439.68 2710.08 439.68 2710.08 459.48 2710.08 668.38 2710.08 688.18 2690.28 688.18 2679.54 688.18 2679.54 668.38 2690.28 668.38 2690.28 459.48 2679.54 459.48" style="fill:#b7b7b7"/><polygon points="2894.07 1057.54 2894.07 1037.74 2965.9 1037.74 2965.9 439.59 2985.7 439.59 2985.7 1037.74 3109.68 1037.74 3109.68 251.42 2950.66 251.42 2950.66 213.49 3109.68 213.49 3129.48 213.49 3308.91 213.49 3308.91 251.42 3129.48 251.42 3129.48 1037.74 3170.23 1037.74 3188.89 1037.74 3188.89 1122.65 3170.23 1122.65 3170.23 1057.54 3129.48 1057.54 3109.68 1057.54 2985.7 1057.54 2965.9 1057.54 2894.07 1057.54" style="fill:#b7b7b7"/><path d="M2985.7,1368.87v-19.8h184.53v-74.18h18.66V2151h-18.66v-63.37H2985.7V1960.32h184.53V1475.87H2985.7Zm18.73,0V1456h165.8v-87.13Zm0,611.25v87.73h165.8v-87.73Z" style="fill:#b7b7b7"/><rect x="3495.12" y="213.49" width="432.36" height="37.93" style="fill:#b7b7b7"/><rect x="4113.68" y="213.49" width="429.54" height="37.93" style="fill:#b7b7b7"/><rect x="4729.43" y="213.49" width="332.81" height="37.93" style="fill:#b7b7b7"/><polygon points="5183.94 251.42 5183.94 213.49 5305.04 213.49 5342.96 213.49 5342.96 251.42 5342.96 641.56 5305.04 641.56 5305.04 251.42 5183.94 251.42" style="fill:#b7b7b7"/><rect x="5305.04" y="827.77" width="37.93" height="770.81" style="fill:#b7b7b7"/><polygon points="5305.04 1959.17 5305.04 1766.12 5342.96 1766.12 5342.96 2312.86 5305.04 2312.86 5305.04 1977.84 5305.04 1959.17" style="fill:#b7b7b7"/></g></g></svg>