<svg version="1.0" id="Livello_1" xmlns="http://www.w3.org/2000/svg" xmlns:xlink="http://www.w3.org/1999/xlink" x="0px" y="0px"
	 viewBox="0 0 5499 3238.7" style="enable-background:new 0 0 5499 3238.7;" xml:space="preserve">
<pattern  y="3238.7" width="48.1" height="48.1" patternUnits="userSpaceOnUse" id="locale_tecnico-13_0000017312706" viewBox="62.2 -110.3 48.1 48.1" style="overflow:visible;">
	<g>
		<rect x="62.2" y="-110.3" style="fill:none;" width="48.1" height="48.1"/>
		<g>
			<rect x="62.2" y="-110.3" style="fill:none;" width="48.1" height="48.1"/>
			<rect x="62.2" y="-110.3" style="fill:none;" width="48.1" height="48.1"/>
			<rect x="62.2" y="-110.3" style="fill:none;" width="48.1" height="48.1"/>
			<rect x="62.2" y="-110.3" style="fill:none;" width="48.1" height="48.1"/>
			<rect x="62.2" y="-110.3" style="fill:none;" width="48.1" height="48.1"/>
			<rect x="62.2" y="-110.3" style="fill:none;" width="48.1" height="48.1"/>
			<rect x="62.2" y="-110.3" style="fill:none;" width="48.1" height="48.1"/>
			<rect x="62.2" y="-110.3" style="fill:none;" width="48.1" height="48.1"/>
			<rect x="106.9" y="-66.4" style="fill:#F2F2F2;" width="50.6" height="48.9"/>
			
				<line style="fill:none;stroke:#DDDDDD;stroke-width:20;stroke-linecap:square;stroke-linejoin:round;" x1="110.2" y1="-62.2" x2="158.3" y2="-14.1"/>
			<rect x="58.8" y="-66.4" style="fill:#F2F2F2;" width="50.6" height="48.9"/>
			
				<line style="fill:none;stroke:#DDDDDD;stroke-width:20;stroke-linecap:square;stroke-linejoin:round;" x1="62.2" y1="-62.2" x2="110.3" y2="-14.1"/>
			
				<line style="fill:none;stroke:#DDDDDD;stroke-width:20;stroke-linecap:square;stroke-linejoin:round;" x1="14.1" y1="-62.2" x2="62.2" y2="-14.1"/>
			<rect x="106.9" y="-114.5" style="fill:#F2F2F2;" width="50.6" height="48.9"/>
			
				<line style="fill:none;stroke:#DDDDDD;stroke-width:20;stroke-linecap:square;stroke-linejoin:round;" x1="110.2" y1="-110.3" x2="158.3" y2="-62.2"/>
			<rect x="58.8" y="-114.5" style="fill:#F2F2F2;" width="50.6" height="48.9"/>
			
				<line style="fill:none;stroke:#DDDDDD;stroke-width:20;stroke-linecap:square;stroke-linejoin:round;" x1="62.2" y1="-110.3" x2="110.3" y2="-62.2"/>
			
				<line style="fill:none;stroke:#DDDDDD;stroke-width:20;stroke-linecap:square;stroke-linejoin:round;" x1="14.1" y1="-110.3" x2="62.2" y2="-62.2"/>
			
				<line style="fill:none;stroke:#DDDDDD;stroke-width:20;stroke-linecap:square;stroke-linejoin:round;" x1="110.2" y1="-158.3" x2="158.3" y2="-110.3"/>
			
				<line style="fill:none;stroke:#DDDDDD;stroke-width:20;stroke-linecap:square;stroke-linejoin:round;" x1="62.2" y1="-158.3" x2="110.3" y2="-110.3"/>
			
				<line style="fill:none;stroke:#DDDDDD;stroke-width:20;stroke-linecap:square;stroke-linejoin:round;" x1="14.1" y1="-158.3" x2="62.2" y2="-110.3"/>
		</g>
	</g>
</pattern>
<pattern  y="3238.7" width="48.1" height="48.1" patternUnits="userSpaceOnUse" id="locale_tecnico-14_0000008885435" viewBox="62.2 -110.3 48.1 48.1" style="overflow:visible;">
	<g>
		<rect x="62.2" y="-110.3" style="fill:none;" width="48.1" height="48.1"/>
		<g>
			<rect x="62.2" y="-110.3" style="fill:none;" width="48.1" height="48.1"/>
			<rect x="62.2" y="-110.3" style="fill:none;" width="48.1" height="48.1"/>
			<rect x="62.2" y="-110.3" style="fill:none;" width="48.1" height="48.1"/>
			<rect x="62.2" y="-110.3" style="fill:none;" width="48.1" height="48.1"/>
			<rect x="62.2" y="-110.3" style="fill:none;" width="48.1" height="48.1"/>
			<rect x="62.2" y="-110.3" style="fill:none;" width="48.1" height="48.1"/>
			<rect x="62.2" y="-110.3" style="fill:none;" width="48.1" height="48.1"/>
			<rect x="62.2" y="-110.3" style="fill:none;" width="48.1" height="48.1"/>
			<rect x="106.9" y="-66.4" style="fill:#F2F2F2;" width="50.6" height="48.9"/>
			
				<line style="fill:none;stroke:#DDDDDD;stroke-width:20;stroke-linecap:square;stroke-linejoin:round;" x1="110.2" y1="-62.2" x2="158.3" y2="-14.1"/>
			<rect x="58.8" y="-66.4" style="fill:#F2F2F2;" width="50.6" height="48.9"/>
			
				<line style="fill:none;stroke:#DDDDDD;stroke-width:20;stroke-linecap:square;stroke-linejoin:round;" x1="62.2" y1="-62.2" x2="110.3" y2="-14.1"/>
			
				<line style="fill:none;stroke:#DDDDDD;stroke-width:20;stroke-linecap:square;stroke-linejoin:round;" x1="14.1" y1="-62.2" x2="62.2" y2="-14.1"/>
			<rect x="106.9" y="-114.5" style="fill:#F2F2F2;" width="50.6" height="48.9"/>
			
				<line style="fill:none;stroke:#DDDDDD;stroke-width:20;stroke-linecap:square;stroke-linejoin:round;" x1="110.2" y1="-110.3" x2="158.3" y2="-62.2"/>
			<rect x="58.8" y="-114.5" style="fill:#F2F2F2;" width="50.6" height="48.9"/>
			
				<line style="fill:none;stroke:#DDDDDD;stroke-width:20;stroke-linecap:square;stroke-linejoin:round;" x1="62.2" y1="-110.3" x2="110.3" y2="-62.2"/>
			
				<line style="fill:none;stroke:#DDDDDD;stroke-width:20;stroke-linecap:square;stroke-linejoin:round;" x1="14.1" y1="-110.3" x2="62.2" y2="-62.2"/>
			
				<line style="fill:none;stroke:#DDDDDD;stroke-width:20;stroke-linecap:square;stroke-linejoin:round;" x1="110.2" y1="-158.3" x2="158.3" y2="-110.3"/>
			
				<line style="fill:none;stroke:#DDDDDD;stroke-width:20;stroke-linecap:square;stroke-linejoin:round;" x1="62.2" y1="-158.3" x2="110.3" y2="-110.3"/>
			
				<line style="fill:none;stroke:#DDDDDD;stroke-width:20;stroke-linecap:square;stroke-linejoin:round;" x1="14.1" y1="-158.3" x2="62.2" y2="-110.3"/>
		</g>
	</g>
</pattern>
<pattern  y="3238.7" width="48.1" height="48.1" patternUnits="userSpaceOnUse" id="locale_tecnico-15_0000002324720" viewBox="62.2 -110.3 48.1 48.1" style="overflow:visible;">
	<g>
		<rect x="62.2" y="-110.3" style="fill:none;" width="48.1" height="48.1"/>
		<g>
			<rect x="62.2" y="-110.3" style="fill:none;" width="48.1" height="48.1"/>
			<rect x="62.2" y="-110.3" style="fill:none;" width="48.1" height="48.1"/>
			<rect x="62.2" y="-110.3" style="fill:none;" width="48.1" height="48.1"/>
			<rect x="62.2" y="-110.3" style="fill:none;" width="48.1" height="48.1"/>
			<rect x="62.2" y="-110.3" style="fill:none;" width="48.1" height="48.1"/>
			<rect x="62.2" y="-110.3" style="fill:none;" width="48.1" height="48.1"/>
			<rect x="62.2" y="-110.3" style="fill:none;" width="48.1" height="48.1"/>
			<rect x="62.2" y="-110.3" style="fill:none;" width="48.1" height="48.1"/>
			<rect x="106.9" y="-66.4" style="fill:#F2F2F2;" width="50.6" height="48.9"/>
			
				<line style="fill:none;stroke:#DDDDDD;stroke-width:20;stroke-linecap:square;stroke-linejoin:round;" x1="110.2" y1="-62.2" x2="158.3" y2="-14.1"/>
			<rect x="58.8" y="-66.4" style="fill:#F2F2F2;" width="50.6" height="48.9"/>
			
				<line style="fill:none;stroke:#DDDDDD;stroke-width:20;stroke-linecap:square;stroke-linejoin:round;" x1="62.2" y1="-62.2" x2="110.3" y2="-14.1"/>
			
				<line style="fill:none;stroke:#DDDDDD;stroke-width:20;stroke-linecap:square;stroke-linejoin:round;" x1="14.1" y1="-62.2" x2="62.2" y2="-14.1"/>
			<rect x="106.9" y="-114.5" style="fill:#F2F2F2;" width="50.6" height="48.9"/>
			
				<line style="fill:none;stroke:#DDDDDD;stroke-width:20;stroke-linecap:square;stroke-linejoin:round;" x1="110.2" y1="-110.3" x2="158.3" y2="-62.2"/>
			<rect x="58.8" y="-114.5" style="fill:#F2F2F2;" width="50.6" height="48.9"/>
			
				<line style="fill:none;stroke:#DDDDDD;stroke-width:20;stroke-linecap:square;stroke-linejoin:round;" x1="62.2" y1="-110.3" x2="110.3" y2="-62.2"/>
			
				<line style="fill:none;stroke:#DDDDDD;stroke-width:20;stroke-linecap:square;stroke-linejoin:round;" x1="14.1" y1="-110.3" x2="62.2" y2="-62.2"/>
			
				<line style="fill:none;stroke:#DDDDDD;stroke-width:20;stroke-linecap:square;stroke-linejoin:round;" x1="110.2" y1="-158.3" x2="158.3" y2="-110.3"/>
			
				<line style="fill:none;stroke:#DDDDDD;stroke-width:20;stroke-linecap:square;stroke-linejoin:round;" x1="62.2" y1="-158.3" x2="110.3" y2="-110.3"/>
			
				<line style="fill:none;stroke:#DDDDDD;stroke-width:20;stroke-linecap:square;stroke-linejoin:round;" x1="14.1" y1="-158.3" x2="62.2" y2="-110.3"/>
		</g>
	</g>
</pattern>
<pattern  y="3238.7" width="48.1" height="48.1" patternUnits="userSpaceOnUse" id="locale_tecnico-16_0000010466984" viewBox="62.2 -110.3 48.1 48.1" style="overflow:visible;">
	<g>
		<rect x="62.2" y="-110.3" style="fill:none;" width="48.1" height="48.1"/>
		<g>
			<rect x="62.2" y="-110.3" style="fill:none;" width="48.1" height="48.1"/>
			<rect x="62.2" y="-110.3" style="fill:none;" width="48.1" height="48.1"/>
			<rect x="62.2" y="-110.3" style="fill:none;" width="48.1" height="48.1"/>
			<rect x="62.2" y="-110.3" style="fill:none;" width="48.1" height="48.1"/>
			<rect x="62.2" y="-110.3" style="fill:none;" width="48.1" height="48.1"/>
			<rect x="62.2" y="-110.3" style="fill:none;" width="48.1" height="48.1"/>
			<rect x="62.2" y="-110.3" style="fill:none;" width="48.1" height="48.1"/>
			<rect x="62.2" y="-110.3" style="fill:none;" width="48.1" height="48.1"/>
			<rect x="106.9" y="-66.4" style="fill:#F2F2F2;" width="50.6" height="48.9"/>
			
				<line style="fill:none;stroke:#DDDDDD;stroke-width:20;stroke-linecap:square;stroke-linejoin:round;" x1="110.2" y1="-62.2" x2="158.3" y2="-14.1"/>
			<rect x="58.8" y="-66.4" style="fill:#F2F2F2;" width="50.6" height="48.9"/>
			
				<line style="fill:none;stroke:#DDDDDD;stroke-width:20;stroke-linecap:square;stroke-linejoin:round;" x1="62.2" y1="-62.2" x2="110.3" y2="-14.1"/>
			
				<line style="fill:none;stroke:#DDDDDD;stroke-width:20;stroke-linecap:square;stroke-linejoin:round;" x1="14.1" y1="-62.2" x2="62.2" y2="-14.1"/>
			<rect x="106.9" y="-114.5" style="fill:#F2F2F2;" width="50.6" height="48.9"/>
			
				<line style="fill:none;stroke:#DDDDDD;stroke-width:20;stroke-linecap:square;stroke-linejoin:round;" x1="110.2" y1="-110.3" x2="158.3" y2="-62.2"/>
			<rect x="58.8" y="-114.5" style="fill:#F2F2F2;" width="50.6" height="48.9"/>
			
				<line style="fill:none;stroke:#DDDDDD;stroke-width:20;stroke-linecap:square;stroke-linejoin:round;" x1="62.2" y1="-110.3" x2="110.3" y2="-62.2"/>
			
				<line style="fill:none;stroke:#DDDDDD;stroke-width:20;stroke-linecap:square;stroke-linejoin:round;" x1="14.1" y1="-110.3" x2="62.2" y2="-62.2"/>
			
				<line style="fill:none;stroke:#DDDDDD;stroke-width:20;stroke-linecap:square;stroke-linejoin:round;" x1="110.2" y1="-158.3" x2="158.3" y2="-110.3"/>
			
				<line style="fill:none;stroke:#DDDDDD;stroke-width:20;stroke-linecap:square;stroke-linejoin:round;" x1="62.2" y1="-158.3" x2="110.3" y2="-110.3"/>
			
				<line style="fill:none;stroke:#DDDDDD;stroke-width:20;stroke-linecap:square;stroke-linejoin:round;" x1="14.1" y1="-158.3" x2="62.2" y2="-110.3"/>
		</g>
	</g>
</pattern>
<pattern  y="3238.7" width="48.1" height="48.1" patternUnits="userSpaceOnUse" id="locale_tecnico-17_0000003262891" viewBox="62.2 -110.3 48.1 48.1" style="overflow:visible;">
	<g>
		<rect x="62.2" y="-110.3" style="fill:none;" width="48.1" height="48.1"/>
		<g>
			<rect x="62.2" y="-110.3" style="fill:none;" width="48.1" height="48.1"/>
			<rect x="62.2" y="-110.3" style="fill:none;" width="48.1" height="48.1"/>
			<rect x="62.2" y="-110.3" style="fill:none;" width="48.1" height="48.1"/>
			<rect x="62.2" y="-110.3" style="fill:none;" width="48.1" height="48.1"/>
			<rect x="62.2" y="-110.3" style="fill:none;" width="48.1" height="48.1"/>
			<rect x="62.2" y="-110.3" style="fill:none;" width="48.1" height="48.1"/>
			<rect x="62.2" y="-110.3" style="fill:none;" width="48.1" height="48.1"/>
			<rect x="62.2" y="-110.3" style="fill:none;" width="48.1" height="48.1"/>
			<rect x="106.9" y="-66.4" style="fill:#F2F2F2;" width="50.6" height="48.9"/>
			
				<line style="fill:none;stroke:#DDDDDD;stroke-width:20;stroke-linecap:square;stroke-linejoin:round;" x1="110.2" y1="-62.2" x2="158.3" y2="-14.1"/>
			<rect x="58.8" y="-66.4" style="fill:#F2F2F2;" width="50.6" height="48.9"/>
			
				<line style="fill:none;stroke:#DDDDDD;stroke-width:20;stroke-linecap:square;stroke-linejoin:round;" x1="62.2" y1="-62.2" x2="110.3" y2="-14.1"/>
			
				<line style="fill:none;stroke:#DDDDDD;stroke-width:20;stroke-linecap:square;stroke-linejoin:round;" x1="14.1" y1="-62.2" x2="62.2" y2="-14.1"/>
			<rect x="106.9" y="-114.5" style="fill:#F2F2F2;" width="50.6" height="48.9"/>
			
				<line style="fill:none;stroke:#DDDDDD;stroke-width:20;stroke-linecap:square;stroke-linejoin:round;" x1="110.2" y1="-110.3" x2="158.3" y2="-62.2"/>
			<rect x="58.8" y="-114.5" style="fill:#F2F2F2;" width="50.6" height="48.9"/>
			
				<line style="fill:none;stroke:#DDDDDD;stroke-width:20;stroke-linecap:square;stroke-linejoin:round;" x1="62.2" y1="-110.3" x2="110.3" y2="-62.2"/>
			
				<line style="fill:none;stroke:#DDDDDD;stroke-width:20;stroke-linecap:square;stroke-linejoin:round;" x1="14.1" y1="-110.3" x2="62.2" y2="-62.2"/>
			
				<line style="fill:none;stroke:#DDDDDD;stroke-width:20;stroke-linecap:square;stroke-linejoin:round;" x1="110.2" y1="-158.3" x2="158.3" y2="-110.3"/>
			
				<line style="fill:none;stroke:#DDDDDD;stroke-width:20;stroke-linecap:square;stroke-linejoin:round;" x1="62.2" y1="-158.3" x2="110.3" y2="-110.3"/>
			
				<line style="fill:none;stroke:#DDDDDD;stroke-width:20;stroke-linecap:square;stroke-linejoin:round;" x1="14.1" y1="-158.3" x2="62.2" y2="-110.3"/>
		</g>
	</g>
</pattern>
<pattern  y="3238.7" width="48.1" height="48.1" patternUnits="userSpaceOnUse" id="senza_codice_000000398337488957" viewBox="62.2 -110.3 48.1 48.1" style="overflow:visible;">
	<g>
		<rect x="62.2" y="-110.3" style="fill:none;" width="48.1" height="48.1"/>
		<g>
			<rect x="62.2" y="-110.3" style="fill:none;" width="48.1" height="48.1"/>
			<rect x="62.2" y="-110.3" style="fill:none;" width="48.1" height="48.1"/>
			<rect x="62.2" y="-110.3" style="fill:none;" width="48.1" height="48.1"/>
			<rect x="62.2" y="-110.3" style="fill:none;" width="48.1" height="48.1"/>
			<rect x="62.2" y="-110.3" style="fill:none;" width="48.1" height="48.1"/>
			<rect x="62.2" y="-110.3" style="fill:none;" width="48.1" height="48.1"/>
			<rect x="62.2" y="-110.3" style="fill:none;" width="48.1" height="48.1"/>
			<rect x="62.2" y="-110.3" style="fill:none;" width="48.1" height="48.1"/>
			<rect x="106.9" y="-66.4" style="fill:#F2F2F2;" width="50.6" height="48.9"/>
			
				<line style="fill:none;stroke:#DDDDDD;stroke-width:20;stroke-linecap:square;stroke-linejoin:round;" x1="110.2" y1="-62.2" x2="158.3" y2="-14.1"/>
			<rect x="58.8" y="-66.4" style="fill:#F2F2F2;" width="50.6" height="48.9"/>
			
				<line style="fill:none;stroke:#DDDDDD;stroke-width:20;stroke-linecap:square;stroke-linejoin:round;" x1="62.2" y1="-62.2" x2="110.3" y2="-14.1"/>
			
				<line style="fill:none;stroke:#DDDDDD;stroke-width:20;stroke-linecap:square;stroke-linejoin:round;" x1="14.1" y1="-62.2" x2="62.2" y2="-14.1"/>
			<rect x="106.9" y="-114.5" style="fill:#F2F2F2;" width="50.6" height="48.9"/>
			
				<line style="fill:none;stroke:#DDDDDD;stroke-width:20;stroke-linecap:square;stroke-linejoin:round;" x1="110.2" y1="-110.3" x2="158.3" y2="-62.2"/>
			<rect x="58.8" y="-114.5" style="fill:#F2F2F2;" width="50.6" height="48.9"/>
			
				<line style="fill:none;stroke:#DDDDDD;stroke-width:20;stroke-linecap:square;stroke-linejoin:round;" x1="62.2" y1="-110.3" x2="110.3" y2="-62.2"/>
			
				<line style="fill:none;stroke:#DDDDDD;stroke-width:20;stroke-linecap:square;stroke-linejoin:round;" x1="14.1" y1="-110.3" x2="62.2" y2="-62.2"/>
			
				<line style="fill:none;stroke:#DDDDDD;stroke-width:20;stroke-linecap:square;stroke-linejoin:round;" x1="110.2" y1="-158.3" x2="158.3" y2="-110.3"/>
			
				<line style="fill:none;stroke:#DDDDDD;stroke-width:20;stroke-linecap:square;stroke-linejoin:round;" x1="62.2" y1="-158.3" x2="110.3" y2="-110.3"/>
			
				<line style="fill:none;stroke:#DDDDDD;stroke-width:20;stroke-linecap:square;stroke-linejoin:round;" x1="14.1" y1="-158.3" x2="62.2" y2="-110.3"/>
		</g>
	</g>
</pattern>
<g id="A4-floor0">
	<g id="background">
		<path style="fill:#F2F2F2;" d="M0.6,1884.2c2,74.2,17.5,147.4,45.8,216c29.3,71.3,72,136.3,125.7,191.5
			c53.2,54.8,116.6,98.7,186.6,129.1c66.7,29,138.2,45,210.9,47.1h140.7v252.4h1105.9v-252.4h625.6v770.9h2901.5v-924.3H5499v-568.2
			h-155.7V0H2441.8v644.9H0.7v1220.7H0.3C0.3,1871.9,0.5,1878.1,0.6,1884.2z M891.4,2467.8h924.8v85.4H891.4V2467.8z"/>
	</g>
	<g id="STAIR" style="opacity:0.4;">
		<rect x="2837.4" y="282.4" style="fill:#B7B7B7;" width="3.4" height="138.4"/>
		<rect x="2707.2" y="280.8" style="fill:#B7B7B7;" width="262.6" height="3.4"/>
		<rect x="2707.2" y="303.8" style="fill:#B7B7B7;" width="262.6" height="3.4"/>
		<rect x="2707.2" y="326.9" style="fill:#B7B7B7;" width="262.6" height="3.4"/>
		<rect x="2707.2" y="397.4" style="fill:#B7B7B7;" width="262.6" height="3.4"/>
		<rect x="2707.2" y="419.6" style="fill:#B7B7B7;" width="262.6" height="3.4"/>
		<polygon style="fill:#B7B7B7;" points="2838.8,422.2 2707.7,400.7 2708.2,397.4 2838.8,418.8 2967.8,397.4 2968.4,400.7 		"/>
		<rect x="2707.2" y="349.6" style="fill:#B7B7B7;" width="262.6" height="3.4"/>
		<rect x="2707.2" y="373.5" style="fill:#B7B7B7;" width="262.6" height="3.4"/>
	</g>
	<g id="rooms">
		
			<pattern  id="senza_codice_00000098218697559650702780000012351313032850795922_" xlink:href="#senza_codice_000000398337488957" patternTransform="matrix(-0.87 0 0 -0.67 -33290.832 -31996.0449)">
		</pattern>
		<polygon id="senza_codice" style="fill:url(#senza_codice_00000098218697559650702780000012351313032850795922_);" points="
			1516.8,2185.4 1021.9,2185.4 1021.9,2429.9 1516.8,2429.9 		"/>
		<path id="senza_codice-2" style="fill:#F2F2F2;" d="M525.4,2444.9c5.1,0.5,10.1,1.1,15.3,1.5c9.6,0.8,19.3,1.3,29.1,1.7h39.5V2392
			h37.9v37.9h82.6v271.7H1816v-233.7l0,0V2572H871.3v-142h130.8v-147.2H508c-2-0.1-3.9-0.3-5.8-0.5c-34.6-3.4-68.4-12.2-100.2-26.1
			c-8-3.5-15.8-7.2-23.4-11.3c-26.2-13.9-50.4-31.1-72.2-51.2c-4.6-4.2-9.1-8.6-13.4-13.2c-24.8-25.6-45.6-54.8-61.7-86.6
			c-4.2-8.3-8.1-16.8-11.6-25.4c-15.3-37.2-24.2-76.6-26.3-116.7V806.2h2258.1V664.7H20.1v1219.1
			C28.8,2175.4,247.2,2413.8,525.4,2444.9z"/>
		<rect id="senza_codice-3" x="2439.7" y="3009.5" style="fill:#F2F2F2;" width="151.6" height="191.3"/>
		<rect id="senza_codice-4" x="2609.9" y="3009.5" style="fill:#F2F2F2;" width="92.2" height="191.3"/>
		<rect id="senza_codice-5" x="2720.9" y="3009.5" style="fill:#F2F2F2;" width="93.4" height="191.3"/>
		<rect id="senza_codice-6" x="2832.9" y="3009.5" style="fill:#F2F2F2;" width="121.1" height="191.3"/>
		<rect id="senza_codice-7" x="2972.7" y="3009.5" style="fill:#F2F2F2;" width="155.7" height="191.3"/>
		<g class="clickable" id="A4-0-12-D">
			<g id="a">
				<rect x="5343" y="1747.9" style="fill:#F2F2F2;" width="136.9" height="547.3"/>
			</g>
			<g id="scala3" style="opacity:0.49;">
				<rect x="5340.6" y="1777.4" style="fill:#B7B7B7;" width="140.6" height="3.4"/>
				<polygon style="fill:#B7B7B7;" points="5411.3,1899.4 5340.9,1870.5 5342.2,1867.4 5411.3,1895.8 5479.7,1867.4 5481,1870.5 
									"/>
				<rect x="5409.2" y="1747.9" style="fill:#B7B7B7;" width="3.4" height="149.8"/>
				<rect x="5340.6" y="1807.2" style="fill:#B7B7B7;" width="140.6" height="3.4"/>
				<rect x="5340.6" y="1836.9" style="fill:#B7B7B7;" width="140.6" height="3.4"/>
				<rect x="5340.6" y="1866.7" style="fill:#B7B7B7;" width="140.6" height="3.4"/>
				<rect x="5340.6" y="1896.5" style="fill:#B7B7B7;" width="140.6" height="3.4"/>
				<rect x="5340.6" y="1745.9" style="fill:#B7B7B7;" width="140.6" height="3.4"/>
			</g>
		</g>
		
			<pattern  id="locale_tecnico-13_00000014612222038723699640000012321768573167762864_" xlink:href="#locale_tecnico-13_0000017312706" patternTransform="matrix(-0.56 0 0 -0.56 -26038.6113 -26300.5)">
		</pattern>
		
			<rect id="locale_tecnico-13" x="2288.5" y="1136.7" style="fill:url(#locale_tecnico-13_00000014612222038723699640000012321768573167762864_);" width="182.2" height="89.4"/>
		
			<pattern  id="locale_tecnico-14_00000009570357718727140710000011699083576331029941_" xlink:href="#locale_tecnico-14_0000008885435" patternTransform="matrix(-0.56 0 0 -0.56 -26038.6113 -26300.5)">
		</pattern>
		
			<rect id="locale_tecnico-14" x="2288.5" y="1766.6" style="fill:url(#locale_tecnico-14_00000009570357718727140710000011699083576331029941_);" width="182.2" height="87.7"/>
		
			<pattern  id="locale_tecnico-15_00000083777987593959073000000006607899096743845822_" xlink:href="#locale_tecnico-15_0000002324720" patternTransform="matrix(-0.56 0 0 -0.56 -26038.6113 -26300.5)">
		</pattern>
		
			<rect id="locale_tecnico-15" x="3004.4" y="1155.4" style="fill:url(#locale_tecnico-15_00000083777987593959073000000006607899096743845822_);" width="165.8" height="87.1"/>
		
			<pattern  id="locale_tecnico-16_00000151508531262169622880000005392761674278645157_" xlink:href="#locale_tecnico-16_0000010466984" patternTransform="matrix(-0.56 0 0 -0.56 -26038.6113 -26300.5)">
		</pattern>
		
			<rect id="locale_tecnico-16" x="3004.4" y="1766.6" style="fill:url(#locale_tecnico-16_00000151508531262169622880000005392761674278645157_);" width="165.8" height="87.7"/>
		
			<pattern  id="locale_tecnico-17_00000129183591801474079660000018150347124328449955_" xlink:href="#locale_tecnico-17_0000003262891" patternTransform="matrix(-0.56 0 0 -0.56 -26038.6113 -26300.5)">
		</pattern>
		
			<polygon id="locale_tecnico-17" style="fill:url(#locale_tecnico-17_00000129183591801474079660000018150347124328449955_);" points="
			2972.7,2518.2 2972.7,2448.6 3128.3,2448.6 3148.1,2448.6 3170.2,2448.6 3188.9,2448.6 5002.2,2448.6 5305,2448.6 5305,2715.1 
			5305,2733.9 5305,2926.8 5305,2945.5 5305,2951.7 5305,3200.8 4857.9,3200.8 4839.2,3200.8 4267.1,3200.8 4248.4,3200.8 
			3148.1,3200.8 3148.1,3009.5 3148.1,2990.8 3148.1,2698.2 3148.1,2679.5 3128.3,2679.5 2972.7,2679.5 		"/>
		<g class="clickable" id="A4-0-13">
			<polygon id="_tracciato_" style="fill:#F2F2F2;" points="2720.9,2679.5 2720.9,2448.6 2954,2448.6 2954,2679.5 2832.9,2679.5 
				2814.3,2679.5 			"/>
		</g>
		<g class="clickable" id="A4-0-12">
			<polygon id="_tracciato_2" style="fill:#DDDDDD;" points="1021.9,1854.3 1021.9,1136.7 2269.8,1136.7 2269.8,1226.1 
				2269.8,1244.8 2288.5,1244.8 2470.7,1244.8 2470.7,1747.9 2288.5,1747.9 2269.8,1747.9 2269.8,1766.6 2269.8,1854.3 			"/>
		</g>
		<g class="clickable" id="A4-0-11">
			<path id="_tracciato_3" style="fill:#DDDDDD;" d="M231.2,1928.3V844.1h2239.5v272.8H1002.1v757.2h1468.6v555.8h-934.4v-264.3
				h-534.2v97.3H647.2v-18.1H517.4c-4.5-0.3-9.1-0.7-13.6-1.1c-4.8-0.5-9.5-1.1-14.2-1.9c-52.2-8.3-101.3-30.3-142.2-63.8
				c-70.7-57.6-116.1-146.7-116.1-246.7L231.2,1928.3z"/>
		</g>
		<g class="clickable" id="A4-0-06">
			<polygon id="_tracciato_4" style="fill:#DDDDDD;" points="3129.5,824.2 3129.5,37.9 5305,37.9 5305,1745.7 5305,1764.3 
				5305,2295.8 5305,2314.4 5305,2429.9 4150.5,2429.9 4131.8,2429.9 3188.9,2429.9 3188.9,1874.2 3188.9,1854.3 3188.9,1766.6 
				3188.9,1746.8 3188.9,1262.3 3188.9,1242.5 3188.9,1155.4 3188.9,1155.4 3188.9,1155.4 3188.9,1135.6 3188.9,844 3188.9,824.2 
				3188.9,824.2 3188.9,824.2 3170.2,824.2 			"/>
		</g>
		<g class="clickable" id="A4-0-05">
			<polygon id="_tracciato_5" style="fill:#F2F2F2;" points="2832.9,2990.8 2832.9,2698.2 2954,2698.2 2972.7,2698.2 3128.3,2698.2 
				3128.3,2990.8 2972.7,2990.8 2954,2990.8 			"/>
		</g>
		<g class="clickable" id="A4-0-04">
			<polygon id="_tracciato_6" style="fill:#F2F2F2;" points="2439.7,2990.8 2439.7,2698.2 2685,2698.2 2706.6,2698.2 2814.3,2698.2 
				2814.3,2990.8 2706.6,2990.8 2685,2990.8 2578.7,2990.8 2557.2,2990.8 			"/>
		</g>
		<g class="clickable" id="A4-0-03">
			<polygon id="_tracciato_7" style="fill:#F2F2F2;" points="2439.7,2467.8 2439.7,2448.6 2702.2,2448.6 2702.2,2679.5 
				2439.7,2679.5 			"/>
		</g>
		<g class="clickable" id="A4-0-02">
			<polygon id="_tracciato_8" style="fill:#DDDDDD;" points="2489.4,1116.8 2489.4,844 2965.9,844 2985.7,844 3109.7,844 
				3129.5,844 3170.2,844 3170.2,1135.6 3004.4,1135.6 2985.7,1135.6 2985.7,1155.4 2985.7,1242.5 2985.7,1262.3 3004.4,1262.3 
				3170.2,1262.3 3170.2,1746.8 3004.4,1746.8 2985.7,1746.8 2985.7,1766.6 2985.7,1854.3 2985.7,1874.2 3004.4,1874.2 
				3170.2,1874.2 3170.2,2429.9 3148.1,2429.9 3128.3,2429.9 2489.4,2429.9 2489.4,1874.2 2489.4,1854.3 2489.4,1766.6 
				2489.4,1747.9 2489.4,1244.8 2489.4,1226.1 2489.4,1136.7 			"/>
		</g>
		<g class="clickable" id="A4-0-01-C">
			<polygon id="_tracciato_9" style="fill:none;" points="2489.4,416.2 2489.4,37.9 3109.7,37.9 3109.7,824.2 2985.7,824.2 
				2985.7,394.1 2965.9,394.1 2965.9,824.2 2489.4,824.2 2489.4,806.2 2489.4,664.7 2690.3,664.7 2710.1,664.7 2710.1,644.9 
				2710.1,436 2710.1,416.2 2690.3,416.2 			"/>
		</g>
		<g class="clickable" id="A4-0-LIFT-A">
			<rect id="a-2" x="2489.4" y="244.7" style="fill:#F2F2F2;" width="200.9" height="208.8"/>
		</g>
		<g class="clickable" id="A4-0-STAIR-A" style="opacity:0.4;">
			<rect x="2985.7" y="226.1" style="fill:#F2F2F2;" width="124" height="401.4"/>
			<rect x="3046.2" y="228" style="fill:#B7B7B7;" width="3.4" height="370.6"/>
			<rect x="2983.8" y="368" style="fill:#B7B7B7;" width="129.1" height="3.4"/>
			<rect x="2986.1" y="456.3" style="fill:#B7B7B7;" width="129.1" height="3.4"/>
			<rect x="2983.8" y="341.7" style="fill:#B7B7B7;" width="129.1" height="3.4"/>
			<rect x="2983.8" y="313.6" style="fill:#B7B7B7;" width="129.1" height="3.4"/>
			<rect x="2980.7" y="255.4" style="fill:#B7B7B7;" width="134.6" height="3.4"/>
			<rect x="2986.1" y="225.9" style="fill:#B7B7B7;" width="129.1" height="3.4"/>
			<polygon style="fill:#B7B7B7;" points="2981,259.1 2979.6,256.1 3048.3,225.8 3115.7,255.5 3114.4,258.6 3048.3,229.5 			"/>
			<rect x="2983.8" y="282" style="fill:#B7B7B7;" width="129.1" height="3.4"/>
			<rect x="2982.3" y="568.9" style="fill:#B7B7B7;" width="131.3" height="3.4"/>
			<rect x="2982.3" y="597.2" style="fill:#B7B7B7;" width="131.3" height="3.4"/>
			<rect x="2982.3" y="511.7" style="fill:#B7B7B7;" width="131.3" height="3.4"/>
			<rect x="2982.3" y="483.5" style="fill:#B7B7B7;" width="131.3" height="3.4"/>
			<rect x="2982.3" y="541.2" style="fill:#B7B7B7;" width="131.3" height="3.4"/>
		</g>
	</g>
	<g id="walls">
		<path style="fill:#B7B7B7;" d="M0,1865.6h0.3v-783.8h19.8v802c0.2,6.6,0.5,13.2,0.9,19.7H1.1c-0.4-6.4-0.7-12.8-0.9-19.3
			C0.1,1878.1,0,1871.9,0,1865.6z"/>
		<polygon style="fill:#B7B7B7;" points="193.3,844 193.3,806.2 231.2,806.2 1147.4,806.2 1147.4,844 231.2,844 231.2,850.9 
			193.3,850.9 		"/>
		<rect x="193.3" y="987.3" style="fill:#B7B7B7;" width="37.9" height="242.8"/>
		<rect x="193.3" y="1366.5" style="fill:#B7B7B7;" width="37.9" height="225.3"/>
		<path style="fill:#B7B7B7;" d="M193.3,1909.9v-181.8h37.9v203.2c0,11,0.6,22,1.7,33l-36.9,15.8c-1.3-9.4-2.1-18.8-2.7-28.3V1909.9
			z"/>
		<path style="fill:#B7B7B7;" d="M229.8,2091.1l35.6-15.2c3.2,6.4,6.6,12.7,10.3,18.8l-29.6,25.8c-5.4-8.7-10.4-17.6-15-26.7
			C230.7,2092.9,230.2,2092.1,229.8,2091.1z"/>
		<path style="fill:#B7B7B7;" d="M322.2,2207.4l29.6-25.9c7.9,6.1,16,11.9,24.4,17.3l-19.3,33.6
			C344.8,2224.8,333.2,2216.4,322.2,2207.4z"/>
		<path style="fill:#B7B7B7;" d="M464.8,2276.4l20.4-35.3c1.5,0.3,3,0.5,4.5,0.7c4.7,0.7,9.5,1.4,14.2,1.9c4.5,0.5,9,0.9,13.5,1.1
			h129.8v18.1h80.3v19.8H647v17.5h-37.9v-17.5H507.9c-1.9-0.1-3.9-0.3-5.8-0.5C489.6,2281,477.1,2279,464.8,2276.4z"/>
		<rect x="547" y="644.9" style="fill:#B7B7B7;" width="600.5" height="19.8"/>
		<path style="fill:#B7B7B7;" d="M563.4,2467.6v-19.8c2.1,0.1,4.2,0.1,6.3,0.3h39.5v-24.9h37.9v6.8h82.6v271.6h1086.1v18.7H710
			v-252.4H569.2L563.4,2467.6z"/>
		<path style="fill:#B7B7B7;" d="M1536.7,2165.6V2430H2471v-178.3h18.7V2430h301.1v18.7h-69.6v69.6h-18.7v-69.6h-262.8v230.9h262.8
			v-97.9h18.7v97.9h7.4v18.7h-288.8v292.6h67.7v18.7h-67.7v191.3h151.9v-191.3h-17v-18.7h44.8v18.7h-9.2v191.3h92.2v-191.3h-15.8
			v-18.7h43.7v18.7h-9.2v191.3h93.4v-191.3h-17v-18.7h17v-292.7h-13.8v-18.7h44.3v18.7h-11.9v292.6h34.6v18.7h-34.6v191.3h121.1
			v-191.3H2935v-18.7h60.7v18.7H2973v191.3h155.7v-191.3H3063v-18.7h65.6v-292.6h-211.2v-18.7h36.9v-230.9h-70.7V2430h287v-340.2
			h18.7v340.1h2116.1v-209.4h37.9v75.2h136.9v-549.5h18.8v568.2h-155.7v924.2H2401.8v-770.8H1835l-14.7,0.5l-4-0.5H891.4v85.4h924.8
			v18.7H871.6v-142h130.8v-147.2h-133V2263h133v-97.3L1536.7,2165.6z M1424.7,2429.9h92.2v-244.5h-494.7v244.5h382.6 M2973.1,2448.6
			v231h175.5v521.2h2156.8v-752.1L2973.1,2448.6z"/>
		<polygon style="fill:#B7B7B7;" points="1002.1,1136.7 1002.1,1116.8 1021.9,1116.8 1156.5,1116.8 1156.5,1136.7 1021.9,1136.7 
			1021.9,1249.9 1002.1,1249.9 		"/>
		<polygon style="fill:#B7B7B7;" points="1002.1,1854.3 1002.1,1736.6 1021.9,1736.6 1021.9,1854.3 1156.5,1854.3 1156.5,1874.2 
			1021.9,1874.2 1002.1,1874.2 		"/>
		<rect x="1448.6" y="1116.8" style="fill:#B7B7B7;" width="147.1" height="19.8"/>
		<rect x="1448.6" y="1854.3" style="fill:#B7B7B7;" width="147.1" height="19.8"/>
		<rect x="1887.8" y="1116.8" style="fill:#B7B7B7;" width="146" height="19.8"/>
		<rect x="1887.8" y="1854.3" style="fill:#B7B7B7;" width="146" height="19.8"/>
		<polygon style="fill:#B7B7B7;" points="1942.1,844 1942.1,806.2 2403.4,806.2 2403.4,664.7 2072.2,664.7 2072.2,644.9 
			2403.4,644.9 2403.4,436 2403.4,416.2 2403.4,37.9 2403.4,0 2441.4,0 2673.9,0 2673.9,37.9 2441.4,37.9 2441.4,416.2 
			2506.9,416.2 2506.9,436 2441.4,436 2441.4,644.9 2506.9,644.9 2506.9,664.7 2441.4,664.7 2441.4,806.2 2489.4,806.2 
			2489.4,824.7 2721.4,824.2 2721.4,844 2489.4,844 2489.4,894.5 2470.7,894.5 2470.7,844 2451.4,844 		"/>
		<path style="fill:#B7B7B7;" d="M2269.8,1136.7v-19.8h219.6v127.9h-219.6V1136.7z M2288.5,1136.7v89.4h182.2v-89.4H2288.5z"/>
		<path style="fill:#B7B7B7;" d="M2269.8,1766.6v-18.7h219.6v126.2h-219.6V1766.6z M2288.5,1766.6v87.7h182.2v-87.7H2288.5z"/>
		<polygon style="fill:#B7B7B7;" points="2679.5,246 2679.5,226.2 2690.3,226.2 2710.1,226.2 2710.1,246 2710.1,454.9 2710.1,474.7 
			2690.3,474.7 2679.5,474.7 2679.5,454.9 2690.3,454.9 2690.3,246 		"/>
		<polygon style="fill:#B7B7B7;" points="2894.1,844 2894.1,824.2 2965.9,824.2 2965.9,226.1 2985.7,226.1 2985.7,824.2 
			3109.7,824.2 3109.7,37.9 2950.7,37.9 2950.7,0 3109.7,0 3129.5,0 3308.9,0 3308.9,37.9 3129.5,37.9 3129.5,824.2 3170.2,824.2 
			3188.9,824.2 3188.9,909.2 3170.2,909.2 3170.2,844 3129.5,844 3109.7,844 2985.7,844 2965.9,844 		"/>
		<path style="fill:#B7B7B7;" d="M2985.7,1155.4v-19.8h184.5v-74.2h18.7v876.1h-18.7v-63.4h-184.5v-127.3h184.5v-484.4h-184.5
			V1155.4z M3004.4,1155.4v87.1h165.8v-87.1H3004.4z M3004.4,1766.6v87.7h165.8v-87.7H3004.4z"/>
		<rect x="3495.1" y="0" style="fill:#B7B7B7;" width="432.4" height="37.9"/>
		<rect x="4113.7" y="0" style="fill:#B7B7B7;" width="429.5" height="37.9"/>
		<rect x="4729.4" y="0" style="fill:#B7B7B7;" width="332.8" height="37.9"/>
		<polygon style="fill:#B7B7B7;" points="5183.9,37.9 5183.9,0 5305,0 5343,0 5343,37.9 5343,428.1 5305,428.1 5305,37.9 		"/>
		<rect x="5305" y="614.3" style="fill:#B7B7B7;" width="37.9" height="770.8"/>
		<polygon style="fill:#B7B7B7;" points="5305,1745.7 5305,1552.6 5343,1552.6 5343,2099.4 5305,2099.4 5305,1764.3 		"/>
	</g>
</g>
</svg>