<svg id="Livello_1" data-name="Livello 1" xmlns="http://www.w3.org/2000/svg" xmlns:xlink="http://www.w3.org/1999/xlink" viewBox="0 0 5499 3238.7"><defs><pattern id="senza_codice_2_" data-name="senza codice 2 " width="48.1" height="48.1" patternTransform="translate(-13051.04 -15124.19) rotate(180) scale(0.87 0.67)" patternUnits="userSpaceOnUse" viewBox="0 0 48.1 48.1"><rect width="48.1" height="48.1" style="fill:none"/><rect width="48.1" height="48.1" style="fill:none"/><rect width="48.1" height="48.1" style="fill:none"/><rect width="48.1" height="48.1" style="fill:none"/><rect width="48.1" height="48.1" style="fill:none"/><rect width="48.1" height="48.1" style="fill:none"/><rect width="48.1" height="48.1" style="fill:none"/><rect x="44.7" y="43.9" width="50.6" height="48.9" style="fill:#f2f2f2"/><line x1="48" y1="48.1" x2="96.1" y2="96.2" style="fill:none;stroke:#ddd;stroke-linecap:square;stroke-linejoin:round;stroke-width:20px"/><rect x="-3.4" y="43.9" width="50.6" height="48.9" style="fill:#f2f2f2"/><line y1="48.1" x2="48.1" y2="96.2" style="fill:none;stroke:#ddd;stroke-linecap:square;stroke-linejoin:round;stroke-width:20px"/><line x1="-48.1" y1="48.1" y2="96.2" style="fill:none;stroke:#ddd;stroke-linecap:square;stroke-linejoin:round;stroke-width:20px"/><rect x="44.7" y="-4.2" width="50.6" height="48.9" style="fill:#f2f2f2"/><line x1="48" x2="96.1" y2="48.1" style="fill:none;stroke:#ddd;stroke-linecap:square;stroke-linejoin:round;stroke-width:20px"/><rect x="-3.4" y="-4.2" width="50.6" height="48.9" style="fill:#f2f2f2"/><line x2="48.1" y2="48.1" style="fill:none;stroke:#ddd;stroke-linecap:square;stroke-linejoin:round;stroke-width:20px"/><line x1="-48.1" y2="48.1" style="fill:none;stroke:#ddd;stroke-linecap:square;stroke-linejoin:round;stroke-width:20px"/><line x1="48" y1="-48" x2="96.1" style="fill:none;stroke:#ddd;stroke-linecap:square;stroke-linejoin:round;stroke-width:20px"/><line y1="-48" x2="48.1" style="fill:none;stroke:#ddd;stroke-linecap:square;stroke-linejoin:round;stroke-width:20px"/><line x1="-48.1" y1="-48" style="fill:none;stroke:#ddd;stroke-linecap:square;stroke-linejoin:round;stroke-width:20px"/></pattern><pattern id="locale_tecnico-13_2_" data-name="locale tecnico-13 2 " width="48.1" height="48.1" patternTransform="translate(-9178.52 -11590.33) rotate(180) scale(0.56)" patternUnits="userSpaceOnUse" viewBox="0 0 48.1 48.1"><rect width="48.1" height="48.1" style="fill:none"/><rect width="48.1" height="48.1" style="fill:none"/><rect width="48.1" height="48.1" style="fill:none"/><rect width="48.1" height="48.1" style="fill:none"/><rect width="48.1" height="48.1" style="fill:none"/><rect width="48.1" height="48.1" style="fill:none"/><rect width="48.1" height="48.1" style="fill:none"/><rect x="44.7" y="43.9" width="50.6" height="48.9" style="fill:#f2f2f2"/><line x1="48" y1="48.1" x2="96.1" y2="96.2" style="fill:none;stroke:#ddd;stroke-linecap:square;stroke-linejoin:round;stroke-width:20px"/><rect x="-3.4" y="43.9" width="50.6" height="48.9" style="fill:#f2f2f2"/><line y1="48.1" x2="48.1" y2="96.2" style="fill:none;stroke:#ddd;stroke-linecap:square;stroke-linejoin:round;stroke-width:20px"/><line x1="-48.1" y1="48.1" y2="96.2" style="fill:none;stroke:#ddd;stroke-linecap:square;stroke-linejoin:round;stroke-width:20px"/><rect x="44.7" y="-4.2" width="50.6" height="48.9" style="fill:#f2f2f2"/><line x1="48" x2="96.1" y2="48.1" style="fill:none;stroke:#ddd;stroke-linecap:square;stroke-linejoin:round;stroke-width:20px"/><rect x="-3.4" y="-4.2" width="50.6" height="48.9" style="fill:#f2f2f2"/><line x2="48.1" y2="48.1" style="fill:none;stroke:#ddd;stroke-linecap:square;stroke-linejoin:round;stroke-width:20px"/><line x1="-48.1" y2="48.1" style="fill:none;stroke:#ddd;stroke-linecap:square;stroke-linejoin:round;stroke-width:20px"/><line x1="48" y1="-48" x2="96.1" style="fill:none;stroke:#ddd;stroke-linecap:square;stroke-linejoin:round;stroke-width:20px"/><line y1="-48" x2="48.1" style="fill:none;stroke:#ddd;stroke-linecap:square;stroke-linejoin:round;stroke-width:20px"/><line x1="-48.1" y1="-48" style="fill:none;stroke:#ddd;stroke-linecap:square;stroke-linejoin:round;stroke-width:20px"/></pattern></defs><g id="A4-floor0"><g id="background"><path d="M.6,2097.72a610.67,610.67,0,0,0,45.78,216,602.19,602.19,0,0,0,125.73,191.51,584.25,584.25,0,0,0,186.61,129.08,569.31,569.31,0,0,0,210.91,47.06h140.7v252.39h1105.9V2681.32h625.55v770.87H5343.3V2527.93H5499V1959.71H5343.3V213.49H2441.84V858.38H.67V2079.13H.34C.34,2085.37.47,2091.55.6,2097.72Zm890.83,583.6h924.8v85.45H891.43Z" transform="translate(0 -213.49)" style="fill:#f2f2f2"/></g><g id="STAIR" style="opacity:0.4000000059604645"><rect x="2837.35" y="282.44" width="3.36" height="138.35" style="fill:#b7b7b7"/><rect x="2707.19" y="280.83" width="262.6" height="3.36" style="fill:#b7b7b7"/><rect x="2707.19" y="303.78" width="262.6" height="3.36" style="fill:#b7b7b7"/><rect x="2707.19" y="326.88" width="262.6" height="3.36" style="fill:#b7b7b7"/><rect x="2707.19" y="397.43" width="262.6" height="3.36" style="fill:#b7b7b7"/><rect x="2707.19" y="419.64" width="262.6" height="3.36" style="fill:#b7b7b7"/><polygon points="2838.76 422.22 2707.66 400.69 2708.2 397.38 2838.76 418.82 2967.84 397.38 2968.39 400.69 2838.76 422.22" style="fill:#b7b7b7"/><rect x="2707.19" y="349.63" width="262.6" height="3.36" style="fill:#b7b7b7"/><rect x="2707.19" y="373.46" width="262.6" height="3.36" style="fill:#b7b7b7"/></g><g id="rooms"><polygon id="senza_codice" data-name="senza codice" points="1516.85 2185.43 1021.86 2185.43 1021.86 2429.9 1516.85 2429.9 1516.85 2185.43" style="fill:url(#senza_codice_2_)"/><path id="senza_codice-2" data-name="senza codice-2" d="M525.4,2658.36c5.1.54,10.13,1.07,15.3,1.48,9.6.8,19.33,1.34,29.07,1.67H609.3v-56.05h37.93v37.93h82.63v271.66H1816V2681.32h0v104.11H871.3v-142h130.76V2496.25H508c-1.95-.13-3.89-.34-5.77-.54A332.23,332.23,0,0,1,402,2469.6c-8-3.49-15.78-7.25-23.43-11.28a342.47,342.47,0,0,1-72.16-51.21c-4.56-4.23-9.06-8.6-13.42-13.16a351.18,351.18,0,0,1-61.69-86.59c-4.17-8.33-8.06-16.78-11.62-25.44a358,358,0,0,1-26.31-116.74V1019.68H2451.51V878.18H20.07V2097.32C28.8,2388.92,247.23,2627.28,525.4,2658.36Z" transform="translate(0 -213.49)" style="fill:#f2f2f2"/><rect id="senza_codice-3" data-name="senza codice-3" x="2439.7" y="3009.47" width="151.56" height="191.31" style="fill:#f2f2f2"/><rect id="senza_codice-4" data-name="senza codice-4" x="2609.93" y="3009.47" width="92.23" height="191.31" style="fill:#f2f2f2"/><rect id="senza_codice-5" data-name="senza codice-5" x="2720.89" y="3009.47" width="93.37" height="191.31" style="fill:#f2f2f2"/><rect id="senza_codice-6" data-name="senza codice-6" x="2832.92" y="3009.47" width="121.1" height="191.31" style="fill:#f2f2f2"/><rect id="senza_codice-7" data-name="senza codice-7" x="2972.68" y="3009.47" width="155.67" height="191.31" style="fill:#f2f2f2"/><g class="clickable" id="A4-0-12-D" data-name="customclass A4-0-12-D"><g id="a"><rect x="5342.96" y="1747.9" width="136.94" height="547.28" style="fill:#f2f2f2"/></g><g id="scala3" style="opacity:0.49000000953674316"><rect x="5340.61" y="1777.37" width="140.56" height="3.36" style="fill:#b7b7b7"/><polygon points="5411.3 1899.41 5340.91 1870.48 5342.19 1867.38 5411.29 1895.77 5479.73 1867.38 5481.01 1870.48 5411.3 1899.41" style="fill:#b7b7b7"/><rect x="5409.22" y="1747.9" width="3.36" height="149.76" style="fill:#b7b7b7"/><rect x="5340.61" y="1807.17" width="140.56" height="3.36" style="fill:#b7b7b7"/><rect x="5340.61" y="1836.91" width="140.56" height="3.36" style="fill:#b7b7b7"/><rect x="5340.61" y="1866.71" width="140.56" height="3.36" style="fill:#b7b7b7"/><rect x="5340.61" y="1896.52" width="140.56" height="3.36" style="fill:#b7b7b7"/><rect x="5340.61" y="1745.95" width="140.56" height="3.36" style="fill:#b7b7b7"/></g></g><rect id="locale_tecnico-13" data-name="locale tecnico-13" x="2288.46" y="1136.72" width="182.25" height="89.41" style="fill:url(#locale_tecnico-13_2_)"/><rect id="locale_tecnico-14" data-name="locale tecnico-14" x="2288.46" y="1766.56" width="182.25" height="87.73" style="fill:url(#locale_tecnico-13_2_)"/><rect id="locale_tecnico-15" data-name="locale tecnico-15" x="3004.43" y="1155.38" width="165.8" height="87.13" style="fill:url(#locale_tecnico-13_2_)"/><rect id="locale_tecnico-16" data-name="locale tecnico-16" x="3004.43" y="1766.56" width="165.8" height="87.73" style="fill:url(#locale_tecnico-13_2_)"/><polygon id="locale_tecnico-17" data-name="locale tecnico-17" points="2972.68 2518.17 2972.68 2448.56 3128.34 2448.56 3148.14 2448.56 3170.23 2448.56 3188.89 2448.56 5002.23 2448.56 5305.04 2448.56 5305.04 2715.12 5305.04 2733.85 5305.04 2926.83 5305.04 2945.5 5305.04 2951.74 5305.04 3200.77 4857.91 3200.77 4839.25 3200.77 4267.07 3200.77 4248.4 3200.77 3148.14 3200.77 3148.14 3009.47 3148.14 2990.81 3148.14 2698.2 3148.14 2679.48 3128.34 2679.48 2972.68 2679.48 2972.68 2518.17" style="fill:url(#locale_tecnico-13_2_)"/><g class="clickable" id="A4-0-13" data-name="customclass A4-0-13"><polygon id="_tracciato_" data-name=" tracciato " points="2720.89 2679.48 2720.89 2448.56 2954.01 2448.56 2954.01 2679.48 2832.92 2679.48 2814.26 2679.48 2720.89 2679.48" style="fill:#f2f2f2"/></g><g class="clickable" id="A4-0-12" data-name="customclass A4-0-12"><polygon id="_tracciato_2" data-name=" tracciato 2" points="1021.86 1854.29 1021.86 1136.72 2269.8 1136.72 2269.8 1226.13 2269.8 1244.79 2288.46 1244.79 2470.71 1244.79 2470.71 1747.9 2288.46 1747.9 2269.8 1747.9 2269.8 1766.63 2269.8 1854.29 1021.86 1854.29" style="fill:#ddd"/></g><g class="clickable" id="A4-0-11" data-name="customclass A4-0-11"><path id="_tracciato_3" data-name=" tracciato 3" d="M231.18,2141.76V1057.54H2470.71v272.8H1002.06v757.25H2470.71v555.8h-934.4V2379.05H1002.06v97.33H647.16v-18.12H517.41c-4.5-.27-9.06-.67-13.56-1.14-4.77-.54-9.53-1.15-14.23-1.88a298.43,298.43,0,0,1-142.24-63.84c-70.69-57.59-116.13-146.74-116.13-246.69Z" transform="translate(0 -213.49)" style="fill:#ddd"/></g><g class="clickable" id="A4-0-06" data-name="customclass A4-0-06"><polygon id="_tracciato_4" data-name=" tracciato 4" points="3129.48 824.25 3129.48 37.93 5305.04 37.93 5305.04 1745.68 5305.04 1764.35 5305.04 2295.78 5305.04 2314.44 5305.04 2429.9 4150.47 2429.9 4131.81 2429.9 3188.89 2429.9 3188.89 1874.16 3188.89 1854.29 3188.89 1766.63 3188.89 1746.76 3188.89 1262.31 3188.89 1242.51 3188.89 1155.38 3188.89 1155.38 3188.89 1155.38 3188.89 1135.58 3188.89 844.05 3188.89 824.25 3188.89 824.25 3188.89 824.25 3170.23 824.25 3129.48 824.25" style="fill:#ddd"/></g><g class="clickable" id="A4-0-05" data-name="customclass A4-0-05"><polygon id="_tracciato_5" data-name=" tracciato 5" points="2832.92 2990.81 2832.92 2698.2 2954.01 2698.2 2972.68 2698.2 3128.34 2698.2 3128.34 2990.81 2972.68 2990.81 2954.01 2990.81 2832.92 2990.81" style="fill:#f2f2f2"/></g><g class="clickable" id="A4-0-04" data-name="customclass A4-0-04"><polygon id="_tracciato_6" data-name=" tracciato 6" points="2439.7 2990.81 2439.7 2698.2 2685.02 2698.2 2706.61 2698.2 2814.26 2698.2 2814.26 2990.81 2706.61 2990.81 2685.02 2990.81 2578.69 2990.81 2557.18 2990.81 2439.7 2990.81" style="fill:#f2f2f2"/></g><g class="clickable" id="A4-0-03" data-name="customclass A4-0-03"><polygon id="_tracciato_7" data-name=" tracciato 7" points="2439.7 2467.83 2439.7 2448.56 2702.16 2448.56 2702.16 2679.48 2439.7 2679.48 2439.7 2467.83" style="fill:#f2f2f2"/></g><g class="clickable" id="A4-0-02" data-name="customclass A4-0-02"><polygon id="_tracciato_8" data-name=" tracciato 8" points="2489.37 1116.85 2489.37 844.05 2965.9 844.05 2985.7 844.05 3109.68 844.05 3129.48 844.05 3170.23 844.05 3170.23 1135.58 3004.43 1135.58 2985.7 1135.58 2985.7 1155.38 2985.7 1242.51 2985.7 1262.31 3004.43 1262.31 3170.23 1262.31 3170.23 1746.76 3004.43 1746.76 2985.7 1746.76 2985.7 1766.63 2985.7 1854.29 2985.7 1874.16 3004.43 1874.16 3170.23 1874.16 3170.23 2429.9 3148.14 2429.9 3128.34 2429.9 2489.37 2429.9 2489.37 1874.16 2489.37 1854.29 2489.37 1766.63 2489.37 1747.9 2489.37 1244.79 2489.37 1226.13 2489.37 1136.72 2489.37 1116.85" style="fill:#ddd"/></g><g id="_tracciato_9_container" data-name="_tracciato_9_container"><polygon id="_tracciato_9" data-name=" tracciato 9" points="2489.37 416.19 2489.37 37.93 3109.68 37.93 3109.68 824.25 2985.7 824.25 2985.7 394.1 2965.9 394.1 2965.9 824.25 2489.37 824.25 2489.37 806.19 2489.37 664.69 2690.28 664.69 2710.08 664.69 2710.08 644.89 2710.08 435.99 2710.08 416.19 2690.28 416.19 2489.37 416.19" style="fill:none"/></g><g id="A4-0-LIFT-A"><rect id="a-2" x="2489.37" y="244.69" width="200.91" height="208.83" style="fill:#f2f2f2"/></g><g id="A4-0-STAIR-A" style="opacity:0.4000000059604645"><rect x="2985.7" y="439.59" width="123.98" height="401.39" transform="translate(6095.38 1067.08) rotate(180)" style="fill:#f2f2f2"/><rect x="3046.25" y="228" width="3.36" height="370.6" style="fill:#b7b7b7"/><rect x="2983.82" y="368.02" width="129.15" height="3.36" style="fill:#b7b7b7"/><rect x="2986.1" y="456.3" width="129.15" height="3.36" style="fill:#b7b7b7"/><rect x="2983.82" y="341.71" width="129.15" height="3.36" style="fill:#b7b7b7"/><rect x="2983.82" y="313.65" width="129.15" height="3.36" style="fill:#b7b7b7"/><rect x="2980.66" y="255.39" width="134.59" height="3.36" style="fill:#b7b7b7"/><rect x="2986.1" y="225.85" width="129.15" height="3.36" style="fill:#b7b7b7"/><polygon points="2981.01 259.14 2979.65 256.07 3048.26 225.83 3115.72 255.53 3114.37 258.6 3048.26 229.5 2981.01 259.14" style="fill:#b7b7b7"/><rect x="2983.82" y="281.97" width="129.15" height="3.36" style="fill:#b7b7b7"/><rect x="2982.34" y="568.93" width="131.3" height="3.36" style="fill:#b7b7b7"/><rect x="2982.34" y="597.19" width="131.3" height="3.36" style="fill:#b7b7b7"/><rect x="2982.34" y="511.74" width="131.3" height="3.36" style="fill:#b7b7b7"/><rect x="2982.34" y="483.48" width="131.3" height="3.36" style="fill:#b7b7b7"/><rect x="2982.34" y="541.21" width="131.3" height="3.36" style="fill:#b7b7b7"/></g></g><g id="walls"><path d="M0,2079.13H.27V1295.3h19.8v802c.2,6.58.54,13.22.94,19.74H1.14c-.4-6.45-.67-12.83-.87-19.34C.07,2091.55,0,2085.37,0,2079.13Z" transform="translate(0 -213.49)" style="fill:#b7b7b7"/><polygon points="193.26 844.05 193.26 806.19 231.18 806.19 1147.45 806.19 1147.45 844.05 231.18 844.05 231.18 850.89 193.26 850.89 193.26 844.05" style="fill:#b7b7b7"/><rect x="193.26" y="987.3" width="37.93" height="242.79" style="fill:#b7b7b7"/><rect x="193.26" y="1366.49" width="37.93" height="225.27" style="fill:#b7b7b7"/><path d="M193.26,2123.43V1941.59h37.92v203.19a319,319,0,0,0,1.68,33l-36.92,15.77c-1.27-9.4-2.15-18.79-2.68-28.33v-41.79Z" transform="translate(0 -213.49)" style="fill:#b7b7b7"/><path d="M229.84,2304.61l35.58-15.24c3.22,6.44,6.64,12.68,10.33,18.79L246.15,2334q-8.06-13-15-26.72C230.71,2306.42,230.24,2305.55,229.84,2304.61Z" transform="translate(0 -213.49)" style="fill:#b7b7b7"/><path d="M322.2,2420.93,351.81,2395q11.78,9.16,24.43,17.26l-19.33,33.56A344.94,344.94,0,0,1,322.2,2420.93Z" transform="translate(0 -213.49)" style="fill:#b7b7b7"/><path d="M464.78,2489.87l20.41-35.31c1.47.27,2.95.54,4.49.74,4.7.74,9.47,1.41,14.24,1.88,4.49.47,9,.88,13.55,1.14H647.3v18.13h80.35v19.8H647.16v17.52H609.24v-17.52H507.94c-1.94-.13-3.89-.34-5.77-.54A334.78,334.78,0,0,1,464.78,2489.87Z" transform="translate(0 -213.49)" style="fill:#b7b7b7"/><rect x="547.01" y="644.89" width="600.51" height="19.8" style="fill:#b7b7b7"/><path d="M563.39,2681.12v-19.81c2.08.07,4.23.14,6.31.27h39.54v-24.9h37.92v6.78h82.63v271.59h1086.1v18.66H710V2681.32H569.23Z" transform="translate(0 -213.49)" style="fill:#b7b7b7"/><path d="M1536.65,2379.12v264.34H2471V2465.17h18.66v178.29h301.06v18.66h-69.61v69.61h-18.66v-69.61H2439.7V2893h262.79v-97.9h18.66V2893h7.39v18.73H2439.7v292.6h67.72V3223H2439.7v191.31h151.9V3223h-17v-18.66h44.84V3223h-9.2v191.31h92.23V3223h-15.84v-18.66h43.7V3223h-9.2v191.31h93.44V3223h-17v-18.66h17V2911.69h-13.76V2893h44.31v18.66h-11.89V3204.3h34.64V3223h-34.64v191.31h121.1V3223h-19.27v-18.7h60.69V3223H2973v191.31h155.67V3223H3063v-18.7h65.65V2911.69H2917.43V2893h36.92V2662.12H2883.6v-18.66h287v-340.2h18.66v340.13H5305.37V2434h37.93v75.25h136.93v-549.5H5499V2528H5343.3v924.19H2401.84v-770.8H1835l-14.7.53-4-.53H891.43v85.45h924.8v18.66H871.63v-142h130.76V2496.25h-133v-19.8h133v-97.33Zm-112,264.27h92.23V2398.92H1022.19v244.47h382.62m1568.27,18.66V2893h175.47v521.2H5305.37V2662.05Z" transform="translate(0 -213.49)" style="fill:#b7b7b7"/><polygon points="1002.06 1136.72 1002.06 1116.85 1021.86 1116.85 1156.51 1116.85 1156.51 1136.72 1021.86 1136.72 1021.86 1249.89 1002.06 1249.89 1002.06 1136.72" style="fill:#b7b7b7"/><polygon points="1002.06 1854.29 1002.06 1736.62 1021.86 1736.62 1021.86 1854.29 1156.51 1854.29 1156.51 1874.16 1021.86 1874.16 1002.06 1874.16 1002.06 1854.29" style="fill:#b7b7b7"/><rect x="1448.58" y="1116.85" width="147.14" height="19.8" style="fill:#b7b7b7"/><rect x="1448.58" y="1854.29" width="147.14" height="19.8" style="fill:#b7b7b7"/><rect x="1887.78" y="1116.85" width="146" height="19.8" style="fill:#b7b7b7"/><rect x="1887.78" y="1854.29" width="146" height="19.8" style="fill:#b7b7b7"/><polygon points="1942.09 844.05 1942.09 806.19 2403.44 806.19 2403.44 664.69 2072.25 664.69 2072.25 644.89 2403.44 644.89 2403.44 435.99 2403.44 416.19 2403.44 37.93 2403.44 0 2441.37 0 2673.9 0 2673.9 37.93 2441.37 37.93 2441.37 416.19 2506.89 416.19 2506.89 435.99 2441.37 435.99 2441.37 644.89 2506.89 644.89 2506.89 664.69 2441.37 664.69 2441.37 806.19 2489.37 806.25 2489.44 824.66 2721.42 824.25 2721.42 844.05 2489.37 844.05 2489.37 894.46 2470.71 894.46 2470.71 844.05 2451.44 844.05 1942.09 844.05" style="fill:#b7b7b7"/><path d="M2269.8,1350.21v-19.8h219.57v127.94H2269.8Zm18.66,0v89.41h182.25v-89.41Z" transform="translate(0 -213.49)" style="fill:#b7b7b7"/><path d="M2269.8,1980.05v-18.66h219.57v126.2H2269.8Zm18.66,0v87.73h182.25v-87.73Z" transform="translate(0 -213.49)" style="fill:#b7b7b7"/><polygon points="2679.54 245.99 2679.54 226.19 2690.28 226.19 2710.08 226.19 2710.08 245.99 2710.08 454.89 2710.08 474.69 2690.28 474.69 2679.54 474.69 2679.54 454.89 2690.28 454.89 2690.28 245.99 2679.54 245.99" style="fill:#b7b7b7"/><polygon points="2894.07 844.05 2894.07 824.25 2965.9 824.25 2965.9 226.1 2985.7 226.1 2985.7 824.25 3109.68 824.25 3109.68 37.93 2950.66 37.93 2950.66 0 3109.68 0 3129.48 0 3308.91 0 3308.91 37.93 3129.48 37.93 3129.48 824.25 3170.23 824.25 3188.89 824.25 3188.89 909.16 3170.23 909.16 3170.23 844.05 3129.48 844.05 3109.68 844.05 2985.7 844.05 2965.9 844.05 2894.07 844.05" style="fill:#b7b7b7"/><path d="M2985.7,1368.87v-19.8h184.53v-74.18h18.66V2151h-18.66v-63.37H2985.7V1960.32h184.53V1475.87H2985.7Zm18.73,0V1456h165.8v-87.13Zm0,611.25v87.73h165.8v-87.73Z" transform="translate(0 -213.49)" style="fill:#b7b7b7"/><rect x="3495.12" width="432.36" height="37.93" style="fill:#b7b7b7"/><rect x="4113.68" width="429.54" height="37.93" style="fill:#b7b7b7"/><rect x="4729.43" width="332.81" height="37.93" style="fill:#b7b7b7"/><polygon points="5183.94 37.93 5183.94 0 5305.04 0 5342.96 0 5342.96 37.93 5342.96 428.07 5305.04 428.07 5305.04 37.93 5183.94 37.93" style="fill:#b7b7b7"/><rect x="5305.04" y="614.28" width="37.93" height="770.81" style="fill:#b7b7b7"/><polygon points="5305.04 1745.68 5305.04 1552.63 5342.96 1552.63 5342.96 2099.37 5305.04 2099.37 5305.04 1764.35 5305.04 1745.68" style="fill:#b7b7b7"/></g></g></svg>