<svg id="Livello_1" data-name="Livello 1" xmlns="http://www.w3.org/2000/svg" xmlns:xlink="http://www.w3.org/1999/xlink" viewBox="0 0 5500 3452.19"><defs><pattern id="copertura_1_" data-name="copertura 1 " width="48.1" height="48.1" patternTransform="translate(-4516.3 -6599.15) rotate(180) scale(0.6)" patternUnits="userSpaceOnUse" viewBox="0 0 48.1 48.1"><rect width="48.1" height="48.1" style="fill:none"/><rect width="48.1" height="48.1" style="fill:none"/><rect width="48.1" height="48.1" style="fill:none"/><rect width="48.1" height="48.1" style="fill:none"/><rect width="48.1" height="48.1" style="fill:none"/><rect x="44.7" y="43.9" width="50.6" height="48.9" style="fill:#f2f2f2"/><line x1="48.1" y1="48.1" x2="96.1" y2="96.2" style="fill:none;stroke:#ddd;stroke-linecap:square;stroke-linejoin:round;stroke-width:20px"/><rect x="-3.4" y="43.9" width="50.6" height="48.9" style="fill:#f2f2f2"/><line y1="48.1" x2="48.1" y2="96.2" style="fill:none;stroke:#ddd;stroke-linecap:square;stroke-linejoin:round;stroke-width:20px"/><line x1="-48.1" y1="48.1" y2="96.2" style="fill:none;stroke:#ddd;stroke-linecap:square;stroke-linejoin:round;stroke-width:20px"/><rect x="44.7" y="-4.2" width="50.6" height="48.9" style="fill:#f2f2f2"/><line x1="48.1" x2="96.1" y2="48.1" style="fill:none;stroke:#ddd;stroke-linecap:square;stroke-linejoin:round;stroke-width:20px"/><rect x="-3.4" y="-4.2" width="50.6" height="48.9" style="fill:#f2f2f2"/><line x2="48.1" y2="48.1" style="fill:none;stroke:#ddd;stroke-linecap:square;stroke-linejoin:round;stroke-width:20px"/><line x1="-48.1" y2="48.1" style="fill:none;stroke:#ddd;stroke-linecap:square;stroke-linejoin:round;stroke-width:20px"/><line x1="48.1" y1="-48" x2="96.1" style="fill:none;stroke:#ddd;stroke-linecap:square;stroke-linejoin:round;stroke-width:20px"/><line y1="-48" x2="48.1" style="fill:none;stroke:#ddd;stroke-linecap:square;stroke-linejoin:round;stroke-width:20px"/><line x1="-48.1" y1="-48" style="fill:none;stroke:#ddd;stroke-linecap:square;stroke-linejoin:round;stroke-width:20px"/></pattern></defs><g id="A4-floor1"><g id="background"><path d="M.65,2048.06c.07,50.61,9.74,106.89,28.67,153.13,3.08,7.6,6.45,15,10,22.29a373.41,373.41,0,0,0,68.31,97.35,366.39,366.39,0,0,0,93.77,70h1.22c7.45,3.87,15,7.45,22.72,10.82a356.19,356.19,0,0,0,142.87,29.68H844.54v197.64H2411.9v823.25H5500V211.09H2411.76V854.27H0V2048.06Z" style="fill:#f2f2f2"/></g><g id="scale"><rect x="1418.97" y="2322.48" width="3.58" height="268.75" style="fill:#b7b7b7"/><polygon points="1420.76 2593.03 1004.47 2593.03 1004.47 2468.22 1281.33 2468.22 1281.33 2442.63 1004.47 2442.63 1004.47 2320.69 1420.76 2320.69 1420.76 2324.27 1008.06 2324.27 1008.06 2439.04 1284.91 2439.04 1284.91 2471.8 1008.06 2471.8 1008.06 2589.44 1420.76 2589.44 1420.76 2593.03" style="fill:#b7b7b7"/><polygon points="1341.76 2534.53 1006.84 2534.53 1006.84 2530.95 1338.18 2530.95 1338.18 2385.28 1006.55 2385.28 1006.55 2381.69 1341.76 2381.69 1341.76 2534.53" style="fill:#b7b7b7"/><rect x="1227.2" y="2469.01" width="3.58" height="123.23" style="fill:#b7b7b7"/><rect x="1252.94" y="2469.01" width="3.58" height="123.23" style="fill:#b7b7b7"/><rect x="1277.39" y="2469.01" width="3.58" height="123.23" style="fill:#b7b7b7"/><rect x="1202.19" y="2469.01" width="3.58" height="123.23" style="fill:#b7b7b7"/><rect x="1277.39" y="2322.48" width="3.58" height="118.35" style="fill:#b7b7b7"/><rect x="1252.94" y="2322.48" width="3.58" height="118.35" style="fill:#b7b7b7"/><rect x="1227.2" y="2322.48" width="3.58" height="118.35" style="fill:#b7b7b7"/><rect x="1202.19" y="2322.48" width="3.58" height="118.35" style="fill:#b7b7b7"/><rect x="1177.1" y="2322.48" width="3.58" height="118.35" style="fill:#b7b7b7"/><rect x="1152.65" y="2322.48" width="3.58" height="118.35" style="fill:#b7b7b7"/><rect x="1127.99" y="2322.48" width="3.58" height="118.35" style="fill:#b7b7b7"/><rect x="1052.58" y="2322.48" width="3.58" height="118.35" style="fill:#b7b7b7"/><rect x="1028.92" y="2322.48" width="3.58" height="118.35" style="fill:#b7b7b7"/><polygon points="1027.47 2440.87 1004.06 2383.37 1026.95 2321.86 1030.31 2323.11 1007.9 2383.31 1030.79 2439.51 1027.47 2440.87" style="fill:#b7b7b7"/><polygon points="1080.46 2471.95 1000.39 2471.95 1000.39 2439.04 1029.92 2439.04 1029.92 2442.63 1003.97 2442.63 1003.97 2468.36 1080.46 2468.36 1080.46 2471.95" style="fill:#b7b7b7"/><rect x="1103.26" y="2469.01" width="3.58" height="123.23" style="fill:#b7b7b7"/><rect x="1152.87" y="2469.01" width="3.58" height="123.23" style="fill:#b7b7b7"/><rect x="1128.13" y="2469.01" width="3.58" height="123.23" style="fill:#b7b7b7"/><rect x="1177.67" y="2469.01" width="3.58" height="123.23" style="fill:#b7b7b7"/><rect x="1078.53" y="2469.01" width="3.58" height="123.23" style="fill:#b7b7b7"/><rect x="1053.72" y="2469.01" width="3.58" height="123.23" style="fill:#b7b7b7"/><rect x="1028.92" y="2469.01" width="3.58" height="123.23" style="fill:#b7b7b7"/><rect x="1103.62" y="2322.48" width="3.58" height="118.35" style="fill:#b7b7b7"/><rect x="1078.17" y="2322.48" width="3.58" height="118.35" style="fill:#b7b7b7"/></g><g id="rooms"><polygon id="copertura" points="40.5 1511.27 40.5 894.77 2411.76 894.77 2452.26 894.77 2452.26 854.26 2452.26 251.59 5459.45 251.59 5459.45 3411.69 2452.26 3411.69 2452.26 2628.94 2452.26 2588.44 2411.76 2588.44 1975.4 2588.44 1975.4 1994.87 1975.4 1973.72 1954.18 1973.72 1100.1 1973.72 1078.96 1973.72 884.9 1973.72 884.9 1532.42 884.9 1511.27 863.75 1511.27 40.5 1511.27" style="fill:url(#copertura_1_)"/><polygon id="senza_codice" data-name="senza codice" points="40.5 2026.92 40.5 1532.42 863.75 1532.42 863.75 1973.72 863.75 1994.87 863.75 2026.92 40.5 2026.92" style="fill:#f2f2f2"/><polygon class="clickable" id="A4-1-22" data-name="customclass A4-1-22" points="884.9 2390.8 884.9 2327.28 1078.96 2327.28 1100.1 2327.28 1413.23 2327.28 1413.23 2588.44 884.9 2588.44 884.9 2431.3 884.9 2424.63 884.9 2390.8" style="fill:none"/><g class="clickable" id="A4-1-05" data-name="customclass A4-1-05"><polygon id="_tracciato_" data-name=" tracciato " points="1100.1 2198.53 1100.1 1994.87 1954.18 1994.87 1954.18 2588.44 1823.07 2588.44 1823.07 2219.68 1823.07 2198.53 1801.92 2198.53 1100.1 2198.53" style="fill:#ddd"/></g><g class="clickable" id="A4-1-04" data-name="customclass A4-1-04"><polygon id="_tracciato_2" data-name=" tracciato 2" points="1100.1 2306.14 1100.1 2219.68 1801.92 2219.68 1801.92 2588.44 1434.38 2588.44 1434.38 2327.28 1434.38 2306.14 1413.23 2306.14 1100.1 2306.14" style="fill:#ddd"/></g><g class="clickable" id="A4-1-02" data-name="customclass A4-1-02"><path id="_tracciato_3" data-name=" tracciato 3" d="M366.89,2390.8v-.58c-179.14,0-324.88-157.35-325.17-342.08h822v342.73H366.89Z" style="fill:#ddd"/></g><g class="clickable" id="A4-1-01" data-name="customclass A4-1-01"><polygon id="_tracciato_4" data-name=" tracciato 4" points="884.9 2026.92 884.9 1994.87 1078.96 1994.87 1078.96 2198.53 1078.96 2219.68 1078.96 2306.14 884.9 2306.14 884.9 2048.06 884.9 2026.92" style="fill:#f2f2f2"/></g></g><g id="walls"><path d="M.65,2048.06c.07,50.61,9.74,106.89,28.67,153.13,3.08,7.6,6.45,15,10,22.29a373.41,373.41,0,0,0,68.31,97.35,366.39,366.39,0,0,0,93.77,70h1.22c7.45,3.87,15,7.45,22.72,10.82a356.19,356.19,0,0,0,142.87,29.68H844.54v197.64H2411.9v823.25H5500V211.09H2411.76V854.27H0V2048.06ZM40.5,894.77H2452.26V251.59H5459.45v3160.1H2452.26V2588.44H1975.4V1973.72H884.9V1511.35H40.5Zm0,637.65H863.75v494.42H741.17V2048H863.75v3.66H884.9V1994.8H1079v115.42l21.14-.08V1994.73h854.08V2588.3H1823V2198.46H1100.1v-10.89l-21.14.07v37.49l21.14-.07v-5.45h701.82V2588.3H1434.38V2306H1100.1v-3.58l-21.14.07v3.58H999.17l.07,21.15H1413.3V2588.3H885V2327.14H902l-.07-21.15H885V2128.93H863.83v261.72H366.89v-.57C187.75,2390,42,2232.66,41.72,2047.92H663.89v-21.15H40.5Z" style="fill:#b7b7b7"/></g></g></svg>