<?xml version="1.0" encoding="utf-8"?>
<svg version="1.1" id="a5" xmlns="http://www.w3.org/2000/svg" xmlns:xlink="http://www.w3.org/1999/xlink" x="0px" y="0px"
	 viewBox="0 0 537.4 867.1" style="enable-background:new 0 0 537.4 867.1;" xml:space="preserve">
<g class="clickable" id="A5-0-01">
	<polygon style="fill:#F2F2F2;" points="69.3,115.7 69.2,97.8 402.5,97.3 402.6,137 403.8,257 403.9,374.7 403.5,769.5 70.2,770 
		69.5,279.3 	"/>
</g>
<g id="walls">
	<path style="fill:#B7B7B7;" d="M61.7,108.2V90.3l0,0L410,89.8l0.1,39.7h21.8l0.2,135h-20.9l0.7,512.5l-349.2,0.5L62,286.8
		L61.7,108.2z M77,271.8l0.7,490.7l318-0.4L395,249.5h22.1l-0.1-105h-21.8l-0.1-39.6l-318.4,0.4v17.9L77,271.8z"/>
	
		<rect x="394.9" y="144.5" transform="matrix(1 -1.388568e-03 1.388568e-03 1 -0.2731 0.5742)" style="fill:#FFFFFF;" width="37.1" height="105"/>
	
		<path id="stairs_00000029738132458081498390000014611999425914758584_" style="opacity:0.4;fill:#B7B7B7;enable-background:new    ;" d="
		M475.3,198.1l-0.1-53.8l-43.3,0.1l0.1,105l43.3-0.1V198.1z M434.5,195.6l11.3-42.1l0.1,42.1H434.5z M445.6,198.2l0.1,42.2
		l-11.4-42.2H445.6z M473.1,146.3l0.1,49.2h-11.6l-0.1-49.2H473.1z M459.4,146.3l0.1,49.2h-11.6l-0.1-49.2H459.4z M445.3,146.4
		L434,188.8l-0.1-42.4H445.3z M434.1,205l11.5,42.4h-11.4L434.1,205z M447.8,247.4l-0.1-49.2h11.6l0.1,49.2H447.8z M461.5,198h11.7
		l0.1,49.2h-11.6L461.5,198z"/>
	<g>
		<g style="opacity:0.4;enable-background:new;">
			
				<rect x="323.7" y="561.6" transform="matrix(1 -2.604140e-03 2.604140e-03 1 -1.4651 0.9385)" style="fill:#B7B7B7;" width="72" height="3"/>
		</g>
		<g style="opacity:0.4;enable-background:new;">
			
				<rect x="76.7" y="561.9" transform="matrix(1 -2.929649e-03 2.929649e-03 1 -1.65 0.3325)" style="fill:#B7B7B7;" width="72" height="3"/>
		</g>
	</g>
</g>
</svg>
