<svg id="floor--1" xmlns="http://www.w3.org/2000/svg" viewBox="0 0 5227.87 3930.1"><polygon id="MURO_ESTERNO" data-name="MURO ESTERNO" points="13.17 17.3 13.17 826.8 1171.57 826.8 1171.57 1622.1 302.37 1622.1 302.37 2199 904.37 2199 904.37 2491.8 636.47 2491.8 636.47 2708 904.37 2708 904.37 2811.1 1118.47 2811.1 1118.47 3610.3 1238.27 3610.3 1238.77 3516.4 4573.07 3839.3 4635.67 3140.3 5002.17 3180.9 5108.17 2028.4 3176.77 1834.5 3176.57 951.8 3345.17 951.8 3345.17 17.5 13.17 17.3" style="fill:#f2f2f2;stroke:#b7b7b7;stroke-miterlimit:10;stroke-width:30px"/><g id="STANZE"><g class="clickable" id="A6--1-STAIR-A" data-name="customclass A6--1-STAIR-A"><rect x="28.27" y="31.9" width="326.7" height="203.8" style="fill:#f2f2f2"/></g><g class="clickable" id="A6--1-LIFT-A" data-name="customclass A6--1-LIFT-A"><rect x="370.37" y="573.3" width="135.1" height="110.2" style="fill:#f2f2f2"/></g><g class="clickable" id="A6--1-03-01" data-name="customclass A6--1-03-01"><rect x="505.47" y="256" width="217.1" height="165.2" style="fill:#f2f2f2"/></g><g class="clickable" id="A6--1-03" data-name="customclass A6--1-03"><rect x="370.17" y="256" width="120.1" height="164.7" style="fill:#f2f2f2"/></g><g class="clickable" id="A6--1-04" data-name="customclass A6--1-04"><rect x="370.17" y="31.2" width="352.4" height="209.6" style="fill:#f2f2f2"/></g><g class="clickable" id="A6--1-05" data-name="customclass A6--1-05"><rect x="371.57" y="435.9" width="565.1" height="122.2" style="fill:#f2f2f2"/></g><g class="clickable" id="A6--1-06" data-name="customclass A6--1-06"><rect x="509.37" y="573.3" width="237.4" height="110.2" style="fill:#f2f2f2"/></g><g class="clickable" id="A6--1-08" data-name="customclass A6--1-08"><rect x="737.67" y="31.2" width="278.7" height="389.5" style="fill:#f2f2f2"/></g><g class="clickable" id="A6--1-09" data-name="customclass A6--1-09"><rect x="1031.67" y="31.9" width="247.3" height="388.8" style="fill:#f2f2f2"/></g><g class="clickable" id="A6--1-10" data-name="customclass A6--1-10"><rect x="951.77" y="435.9" width="1278" height="122.2" style="fill:#f2f2f2"/></g><g class="clickable" id="A6--1-11" data-name="customclass A6--1-11"><rect x="1294.07" y="32.2" width="265.2" height="361.4" style="fill:#f2f2f2"/></g><g class="clickable" id="A6--1-12" data-name="customclass A6--1-12"><rect x="1574.47" y="32.1" width="95.6" height="361.5" style="fill:#f2f2f2"/></g><g class="clickable" id="A6--1-13" data-name="customclass A6--1-13"><rect x="1685.37" y="266.4" width="138.6" height="127.2" style="fill:#f2f2f2"/></g><g class="clickable" id="A6--1-14" data-name="customclass A6--1-14"><rect x="1839.07" y="32.1" width="94" height="361.5" style="fill:#f2f2f2"/></g><g class="clickable" id="A6--1-15" data-name="customclass A6--1-15"><rect x="1948.27" y="32.1" width="281.5" height="361.5" style="fill:#f2f2f2"/></g><g class="clickable" id="A6--1-16" data-name="customclass A6--1-16"><rect x="2244.97" y="32.3" width="705.2" height="573.3" style="fill:#f2f2f2"/></g><g class="clickable" id="A6--1-17" data-name="customclass A6--1-17"><rect x="3083.47" y="32.3" width="245.9" height="456.9" style="fill:#f2f2f2"/></g><g class="clickable" id="A6--1-18" data-name="customclass A6--1-18"><rect x="2244.97" y="620.8" width="788.4" height="322.3" style="fill:#f2f2f2"/></g><g class="clickable" id="A6--1-19" data-name="customclass A6--1-19"><rect x="1896.37" y="573.3" width="158.1" height="167.6" style="fill:#f2f2f2"/></g><g class="clickable" id="A6--1-20" data-name="customclass A6--1-20"><rect x="1336.27" y="765.8" width="640.6" height="192.5" style="fill:#f2f2f2"/></g><g class="clickable" id="A6--1-21" data-name="customclass A6--1-21"><rect x="1294.07" y="1002.5" width="760.3" height="220.8" style="fill:#f2f2f2"/></g><g class="clickable" id="A6--1-22" data-name="customclass A6--1-22"><rect x="2244.97" y="958.3" width="788.4" height="245" style="fill:#f2f2f2"/></g><g class="clickable" id="A6--1-23" data-name="customclass A6--1-23"><rect x="2244.97" y="1218.5" width="394.2" height="212.2" style="fill:#f2f2f2"/></g><g class="clickable" id="A6--1-24" data-name="customclass A6--1-24"><rect x="2244.97" y="1445.9" width="788.4" height="275" style="fill:#f2f2f2"/></g><g class="clickable" id="A6--1-25" data-name="customclass A6--1-25"><rect x="2069.67" y="573.3" width="160.1" height="1070.4" style="fill:#f2f2f2"/></g><g class="clickable" id="A6--1-26" data-name="customclass A6--1-26"><rect x="1813.17" y="1238.5" width="241.3" height="459.6" style="fill:#f2f2f2"/></g><g class="clickable" id="A6--1-27" data-name="customclass A6--1-27"><rect x="1294.17" y="1269.4" width="408.8" height="191.3" style="fill:#f2f2f2"/></g><g class="clickable" id="A6--1-28" data-name="customclass A6--1-28"><rect x="1294.07" y="1504.2" width="408.9" height="193.9" style="fill:#f2f2f2"/></g><g class="clickable" id="A6--1-29" data-name="customclass A6--1-29"><rect x="1718.17" y="1415.8" width="79.8" height="282.3" style="fill:#f2f2f2"/></g><g class="clickable" id="A6--1-30" data-name="customclass A6--1-30"><rect x="1453.07" y="1713.3" width="776.7" height="113.1" style="fill:#f2f2f2"/></g><g class="clickable" id="A6--1-31" data-name="customclass A6--1-31"><rect x="589.57" y="1713.3" width="848.3" height="113.1" style="fill:#f2f2f2"/></g><g class="clickable" id="A6--1-LIFT-B" data-name="customclass A6--1-LIFT-B"><rect x="1453.17" y="1830.7" width="214.4" height="282.3" style="fill:#f2f2f2"/></g><g class="clickable" id="A6--1-STAIR-B" data-name="customclass A6--1-STAIR-B"><rect x="1673.07" y="1842.2" width="202.9" height="160.5" style="fill:#f2f2f2"/></g><g class="clickable" id="A6--1-32" data-name="customclass A6--1-32"><rect x="1030.37" y="1842.2" width="407.5" height="270.7" style="fill:#f2f2f2"/></g><g class="clickable" id="A6--1-33" data-name="customclass A6--1-33"><rect x="821.97" y="1842.2" width="191.8" height="270.7" style="fill:#f2f2f2"/></g><g class="clickable" id="A6--1-34" data-name="customclass A6--1-34"><rect x="589.57" y="1841.6" width="217.1" height="124.1" style="fill:#f2f2f2"/></g><g class="clickable" id="A6--1-35" data-name="customclass A6--1-35"><rect x="392.67" y="1713.3" width="181.7" height="252.4" style="fill:#f2f2f2"/></g><g class="clickable" id="A6--1-36" data-name="customclass A6--1-36"><rect x="589.57" y="1980.9" width="150.1" height="132" style="fill:#f2f2f2"/></g><g class="clickable" id="A6--1-37" data-name="customclass A6--1-37"><rect x="392.67" y="1980.9" width="181.7" height="132" style="fill:#f2f2f2"/></g><g class="clickable" id="A6--1-38" data-name="customclass A6--1-38"><rect x="1727.57" y="573.3" width="153.6" height="168.6" style="fill:#f2f2f2"/></g><g class="clickable" id="A6--1-Z-00" data-name="customclass A6--1-Z-00"><rect x="2246.67" y="1737.6" width="270" height="63.7" style="fill:#f2f2f2"/></g><g class="clickable" id="A6--1-Z-00-1" data-name="customclass A6--1-Z-00-1"><rect x="3048.57" y="605.6" width="280.8" height="330.2" style="fill:#f2f2f2"/></g><g class="clickable" id="A6--1-Z-01" data-name="customclass A6--1-Z-01"><rect x="1881.17" y="1842.1" width="348.6" height="270.9" style="fill:#f2f2f2"/></g><g class="clickable" id="A6--1-Z-02" data-name="customclass A6--1-Z-02"><rect x="2244.97" y="1818" width="565" height="153.9" style="fill:#f2f2f2"/></g><g class="clickable" id="A6--1-Z-03" data-name="customclass A6--1-Z-03"><rect x="2244.97" y="1987.1" width="645.7" height="125.8" style="fill:#f2f2f2"/></g><g class="clickable" id="A6--1-Z-04" data-name="customclass A6--1-Z-04"><rect x="2914.67" y="1987.1" width="306.6" height="125.8" style="fill:#f2f2f2"/></g><g class="clickable" id="A6--1-Z-07" data-name="customclass A6--1-Z-07"><rect x="4722.47" y="2148.4" width="191.7" height="518.2" style="fill:#f2f2f2"/></g><g class="clickable" id="A6--1-Z-08" data-name="customclass A6--1-Z-08"><rect x="4677.97" y="2706.9" width="341.7" height="88.9" style="fill:#f2f2f2"/></g><g class="clickable" id="A6--1-STAIR-C" data-name="customclass A6--1-STAIR-C"><rect id="STAIR-C" x="4662.17" y="2851.5" width="327.6" height="272.9" style="fill:#f2f2f2"/></g><g class="clickable" id="A6--1-Z-10" data-name="customclass A6--1-Z-10"><rect x="919.77" y="2128.1" width="587.5" height="667.7" style="fill:#f2f2f2"/></g><g class="clickable" id="A6--1-Z-11" data-name="customclass A6--1-Z-11"><rect x="1522.57" y="2128.1" width="337.1" height="191.3" style="fill:#f2f2f2"/></g><g class="clickable" id="A6--1-Z-12" data-name="customclass A6--1-Z-12"><rect x="1719.47" y="2334.6" width="140.2" height="119.7" style="fill:#f2f2f2"/></g><g class="clickable" id="A6--1-Z-13" data-name="customclass A6--1-Z-13"><rect x="1522.57" y="2469.6" width="337.1" height="154.1" style="fill:#f2f2f2"/></g><g class="clickable" id="A6--1-Z-14" data-name="customclass A6--1-Z-14"><rect x="1522.57" y="2640.2" width="337.1" height="154.1" style="fill:#f2f2f2"/></g><g class="clickable" id="A6--1-Z-15" data-name="customclass A6--1-Z-15"><rect x="650.77" y="2506.6" width="253.8" height="186.8" style="fill:#f2f2f2"/></g><g class="clickable" id="A6--1-Z-16" data-name="customclass A6--1-Z-16"><rect x="1239.47" y="2811.1" width="620.2" height="239.6" style="fill:#f2f2f2"/></g><g class="clickable" id="A6--1-Z-17" data-name="customclass A6--1-Z-17"><rect x="1239.47" y="3065.9" width="620.2" height="231.4" style="fill:#f2f2f2"/></g><g class="clickable" id="A6--1-Z-18" data-name="customclass A6--1-Z-18"><rect x="1239.47" y="3312.5" width="620.2" height="188.9" style="fill:#f2f2f2"/></g><g class="clickable" id="A6--1-Z-19" data-name="customclass A6--1-Z-19"><rect x="1874.87" y="2128.1" width="149.1" height="1432.8" style="fill:#f2f2f2"/></g><g class="clickable" id="A6--1-Z-22" data-name="customclass A6--1-Z-22"><rect x="2290.37" y="2128.1" width="241.9" height="425.1" style="fill:#f2f2f2"/></g><g class="clickable" id="A6--1-Z-23" data-name="customclass A6--1-Z-23"><rect x="2547.47" y="2128.1" width="241.8" height="425.1" style="fill:#f2f2f2"/></g><g class="clickable" id="A6--1-Z-24" data-name="customclass A6--1-Z-24"><rect x="2804.57" y="2128.1" width="239.9" height="425.1" style="fill:#f2f2f2"/></g><g class="clickable" id="A6--1-Z-26" data-name="customclass A6--1-Z-26"><rect x="3059.67" y="2464.4" width="244.1" height="88.8" style="fill:#f2f2f2"/></g><g class="clickable" id="A6--1-Z-25" data-name="customclass A6--1-Z-25"><rect x="3059.67" y="2228.3" width="255.5" height="179.5" style="fill:#f2f2f2"/></g><g class="clickable" id="A6--1-Z-27" data-name="customclass A6--1-Z-27"><rect x="3241.27" y="2075" width="91.5" height="122.6" style="fill:#f2f2f2"/></g><g class="clickable" id="A6--1-Z-28" data-name="customclass A6--1-Z-28"><rect x="3359.87" y="2092.8" width="202.3" height="471.2" style="fill:#f2f2f2"/></g><g class="clickable" id="A6--1-Z-29" data-name="customclass A6--1-Z-29"><rect x="3615.57" y="2128.1" width="258.7" height="457.1" style="fill:#f2f2f2"/></g><g class="clickable" id="A6--1-Z-30" data-name="customclass A6--1-Z-30"><rect x="3908.17" y="2416.5" width="236" height="195.8" style="fill:#f2f2f2"/></g><g class="clickable" id="A6--1-Z-31" data-name="customclass A6--1-Z-31"><rect x="3930.97" y="2156" width="367.6" height="119.1" style="fill:#f2f2f2"/></g><g class="clickable" id="A6--1-Z-32" data-name="customclass A6--1-Z-32"><rect x="4439.07" y="2187.4" width="242.2" height="226.9" style="fill:#f2f2f2"/></g><g class="clickable" id="A6--1-Z-33" data-name="customclass A6--1-Z-33"><rect x="4423.37" y="2461.1" width="238.8" height="191.4" style="fill:#f2f2f2"/></g><g class="clickable" id="A6--1-Z-35" data-name="customclass A6--1-Z-35"><rect x="4178.07" y="2317" width="225.5" height="194.6" style="fill:#f2f2f2"/></g><g class="clickable" id="A6--1-Z-36" data-name="customclass A6--1-Z-36"><rect x="3090.17" y="2606.7" width="461.4" height="91.6" style="fill:#f2f2f2"/></g><g class="clickable" id="A6--1-Z-38" data-name="customclass A6--1-Z-38"><rect x="2473.97" y="2727.4" width="194.1" height="285.6" style="fill:#f2f2f2"/></g><g class="clickable" id="A6--1-Z-37" data-name="customclass A6--1-Z-37"><rect x="2216.87" y="2727.4" width="241.9" height="285.6" style="fill:#f2f2f2"/></g><g class="clickable" id="A6--1-Z-39" data-name="customclass A6--1-Z-39"><rect x="2683.27" y="2727.4" width="199.8" height="285.6" style="fill:#f2f2f2"/></g><g class="clickable" id="A6--1-Z-40" data-name="customclass A6--1-Z-40"><rect x="2898.27" y="2727.4" width="236.2" height="285.6" style="fill:#f2f2f2"/></g><g class="clickable" id="A6--1-Z-41" data-name="customclass A6--1-Z-41"><rect x="3365.87" y="2762.1" width="140.1" height="278.2" style="fill:#f2f2f2"/></g><g class="clickable" id="A6--1-Z-42" data-name="customclass A6--1-Z-42"><rect x="3543.87" y="2781.3" width="237.7" height="276.9" style="fill:#f2f2f2"/></g><g class="clickable" id="A6--1-Z-43" data-name="customclass A6--1-Z-43"><rect x="3818.77" y="2806.3" width="219.7" height="275.6" style="fill:#f2f2f2"/></g><g class="clickable" id="A6--1-Z-44" data-name="customclass A6--1-Z-44"><rect x="4076.17" y="2825.3" width="188.7" height="278.1" style="fill:#f2f2f2"/></g><g class="clickable" id="A6--1-Z-45" data-name="customclass A6--1-Z-45"><rect x="4303.47" y="2836.6" width="104.3" height="287.9" style="fill:#f2f2f2"/></g><g class="clickable" id="A6--1-Z-46" data-name="customclass A6--1-Z-46"><rect x="2039.17" y="3193.2" width="888.6" height="386.9" style="fill:#f2f2f2"/></g><g class="clickable" id="A6--1-Z-47" data-name="customclass A6--1-Z-47"><rect x="2942.97" y="3193.2" width="263.2" height="471.8" style="fill:#f2f2f2"/></g><g class="clickable" id="A6--1-Z-48" data-name="customclass A6--1-Z-48"><rect x="3221.37" y="3259.5" width="683.6" height="430.1" style="fill:#f2f2f2"/></g><g class="clickable" id="A6--1-Z-49" data-name="customclass A6--1-Z-49"><rect x="3962.47" y="3314" width="599" height="448.9" style="fill:#f2f2f2"/></g><g class="clickable" id="A6--1-Z-_2" data-name="customclass A6--1-Z-??2"><rect x="1133.97" y="2811.1" width="90.3" height="382.1" style="fill:#f2f2f2"/></g><g class="clickable" id="A6--1-Z-_1" data-name="customclass A6--1-Z-??1"><rect x="1133.97" y="3208.4" width="90.3" height="387.1" style="fill:#f2f2f2"/></g></g><g id="MURI_PORTE" data-name="MURI+PORTE"><rect x="3068.27" y="32.3" width="15.2" height="456.9" style="fill:#b7b7b7"/><rect x="1016.47" y="31.9" width="15.2" height="388.8" style="fill:#b7b7b7"/><rect x="2927.77" y="3193.2" width="15.2" height="489.1" style="fill:#b7b7b7"/><rect x="3206.17" y="3193.2" width="15.2" height="516" style="fill:#b7b7b7"/><rect x="4662.29" y="2397.41" width="564.9" height="15.2" transform="translate(2117.93 7121.33) rotate(-85)" style="fill:#b7b7b7"/><rect x="3658.58" y="2357.91" width="492.8" height="15.2" transform="translate(1208.11 6049.45) rotate(-85)" style="fill:#b7b7b7"/><rect x="3343.2" y="2330.41" width="492.8" height="15.2" transform="translate(947.65 5710.19) rotate(-85)" style="fill:#b7b7b7"/><rect x="904.57" y="2506.6" width="15.2" height="186.8" style="fill:#b7b7b7"/><polygon points="1704.27 2469.5 1719.47 2469.5 1719.47 2334.6 1859.57 2334.6 1859.57 2319.4 1719.47 2319.4 1719.37 2319.4 1704.27 2319.4 1704.27 2383.9 1522.57 2383.9 1522.57 2399.1 1704.27 2399.1 1704.27 2469.5" style="fill:#b7b7b7"/><rect x="3068.27" y="489.3" width="271.6" height="15.2" style="fill:#b7b7b7"/><rect x="1294.07" y="987.3" width="760.3" height="15.2" style="fill:#b7b7b7"/><rect x="3896.28" y="2196.29" width="15.2" height="1169.71" transform="translate(793.08 6427.78) rotate(-85)" style="fill:#b7b7b7"/><polygon points="3221.37 3193.1 3952.33 3256.97 3906.95 3775.71 3922.09 3777.03 3967.47 3258.29 4605.07 3314 4606.37 3298.8 3221.37 3178 3221.37 3193.1" style="fill:#b7b7b7"/><polygon points="3293.06 3052.47 4455.93 3154.2 4457.25 3139.06 4422.01 3135.98 4448.22 2836.51 4433.07 2835.18 4406.87 3134.65 4278.4 3123.41 4304.6 2823.9 4289.46 2822.58 4263.26 3122.09 4051.9 3103.6 4078.1 2804.09 4062.96 2802.77 4036.76 3102.27 3794.8 3081.11 3821 2781.6 3805.86 2780.27 3779.66 3079.78 3519.81 3057.05 3546.01 2757.58 3530.86 2756.26 3504.66 3055.72 3341.51 3041.45 3367.7 2741.98 3352.56 2740.66 3326.36 3040.12 3294.39 3037.33 3293.06 3052.47" style="fill:#b7b7b7"/><path d="M5019.66,2833.13l-354.41-31,10.66-121.77,250.31,21.9,1.32-15.14-250.31-21.9,47.92-547.72,235.12,20.57,1.33-15.14L3235,1971.86v0H2245V1818h570.6v-15.2h-282v-66.6h515V605.6h-83.2V32.3h-15.2V605.6H2245V32.3h-15.2V393.6h-281.5V32.1h-15.2V393.6h-94V251.2h-76.9V32.1H1747V251.2h-76.8V393.6h-95.7V32.1h-15.2V393.6h-265.2V32.2h-15.2V420.8H737.67V31.2h-15.2V240.8H370.17V31.2H355V683.5h15.2V436h566.4V683.5h15.2V573.3h327.1V683.6H28.27v15.2h1250.6v999.3H377.47v15.2h1692.2v-15.2h0V1659h160.1v453.9h-776.7V1713.3h-15.2v113.1H589.57V1713.3h-15.2v252.4H392.67V1713.3h-15.2v399.6h0v15.2h1129.9v667.7H1134V2811h725.7v239.7h-620.2V2811.1h-15.2l-.22,382H1134v15.2H1224l-.17,309.6h15.6V3312.5h620.2V3580h15.2V2128.1H2024V3595.5h15.2V3193.1h1182.1v-15.2H2039.17V2128.1h236v425.1h0v15.2h946.2v-.1l1438.07,125.8L4620.53,3139l15.14,1.32,28.26-323,354.4,31ZM2245,620.8h788.4V943.1H2245Zm0,337.5h788.4v245H2245Zm0,260.2h394.2v212.2H2245Zm0,227.4h409.4V1218.5h379V1721H2245Zm0,290.3h273.4v66.6H2245ZM392.67,1980.9h181.7v132H392.67Zm622.5-138.7v270.7H754.87v-132h-15.2v132H589.57v-132h232.3v-15.2h.1V1842.2h-15.2v123.5H589.57V1841.6h848.3v271.3h-407.5V1842.2Zm844.5,1455.1h-620.2V3065.9h620.2Zm0-842.9h-140.2v15.2h140.2v154.2h-337.1V2639h337.1v156.8h-337.1V2128.1h337.1Zm2845.38-281.55L3244,2045l5-56.68,1461,127.82ZM1685.37,266.4h138.5V393.6h-138.5ZM370.17,256h120.1V420.7h15.2V256h217V420.8H370.17Zm581.6,302.1V436h342.3V420.8h0v-12h935.7V558.1Zm929.4,183.8h-153.6V573.3h153.6ZM1798,1698.1h-79.8V1415.7H1798Zm15.2,0V1238.5h241.2v-15.2H1798v30.9h-503.8v15.2H1798v131.1h-79.8v.1H1703V1489h-213.7v-24.7h-195.2v15.2h180v9.5h.1v15.2H1703v193.9h-408.9V573.3h418.3V757.1h342V741.9h-158V573.3h158.1V1698.1Zm256.5-54.3V573.3h160.1V1643.8ZM2245,2112.9V1987.1h650v125.8Zm799.5,440.3h-239.9V2128.1h239.9Zm-255.1,0h-241.9V2128.1h241.9Zm-499-425.1h241.9v425.1h-241.9Zm2041.35,412.28-9.54,109-107-9.35,9.54-109Zm5.6,110.35,9.54-109,68.79,6,1.32-15.15-255.09-22.31,20.17-230.65-15.14-1.32-10.31,117.89-244.76-21.42-1.32,15.15,244.75,21.41-8.56,97.89h.07l-1.3,14.87,64.14,5.61-9.54,109-978.71-85.54h-161.7v-94.8h161.6l90.7,7.89-8.23,94,15.15,1.32,9-102.64.6-6.49h0l33.4-381.8-15.14-1.32-33.4,381.8-91.92-8h-161.7V2128.1h161.7l1.4-15.2h-312.6V1987.1h323.6V1987h.06l-18.38,210.07h-.16l-1.33,15.14,119.25,10.43,1.32-15.14-103.94-9.09,12.1-138.25,1461,127.82-22.23,254.12-254.66-22.28,10.32-118-15.14-1.33v.09L4312.42,2291l11.91-136.17-15.14-1.32-11.92,136.17-115.14-10.07-1.33,15.14,239.88,21-18.86,215.49,15.15,1.33,8.53-97.56,254.67,22.28L4660.77,2679Z" style="fill:#b7b7b7"/><polygon points="3171.17 1849 3171.77 1833.8 2815.57 1802.8 2815.67 1817.9 3171.17 1849" style="fill:#b7b7b7"/><polygon points="370.27 558.1 370.27 573.3 746.87 573.3 746.87 683.5 762.07 683.5 762.07 573.3 761.97 573.3 761.97 558.1 370.27 558.1" style="fill:#b7b7b7"/><rect x="1673.17" y="1826.4" width="556.5" height="15.2" style="fill:#b7b7b7"/><path d="M2157.57,3013v15.2h976.9l1.3-15.2h-237.5V2727.4h262.4l-26.2,300.8,15.1.6,26.3-301.4v-15.2H2157.57v15.2h44.1V3013Zm725.5-285.6V3013h-199.8V2727.4Zm-215,0V3013H2474V2727.4Zm-451.2,0h241.9V3013h-241.9Z" style="fill:#b7b7b7"/><g id="porte"><rect x="396.27" y="420.7" width="67.4" height="15.2" style="fill:#f2f2f2;stroke:#f2f2f2;stroke-miterlimit:10;stroke-width:3px"/><rect x="207.17" y="683.6" width="67.4" height="15.2" style="fill:#f2f2f2;stroke:#f2f2f2;stroke-miterlimit:10;stroke-width:3px"/><rect x="532.47" y="558.1" width="67.4" height="15.2" style="fill:#f2f2f2;stroke:#f2f2f2;stroke-miterlimit:10;stroke-width:3px"/><rect x="532.47" y="420.7" width="67.4" height="15.2" style="fill:#f2f2f2;stroke:#f2f2f2;stroke-miterlimit:10;stroke-width:3px"/><rect x="396.27" y="240.8" width="67.4" height="15.2" style="fill:#f2f2f2;stroke:#f2f2f2;stroke-miterlimit:10;stroke-width:3px"/><rect x="777.77" y="420.7" width="67.4" height="15.2" style="fill:#f2f2f2;stroke:#f2f2f2;stroke-miterlimit:10;stroke-width:3px"/><rect x="1158.57" y="420.7" width="67.4" height="15.2" style="fill:#f2f2f2;stroke:#f2f2f2;stroke-miterlimit:10;stroke-width:3px"/><rect x="1192.27" y="558.1" width="67.4" height="15.2" style="fill:#f2f2f2;stroke:#f2f2f2;stroke-miterlimit:10;stroke-width:3px"/><rect x="1328.27" y="393.6" width="67.4" height="15.2" style="fill:#f2f2f2;stroke:#f2f2f2;stroke-miterlimit:10;stroke-width:3px"/><rect x="1720.97" y="393.6" width="67.4" height="15.2" style="fill:#f2f2f2;stroke:#f2f2f2;stroke-miterlimit:10;stroke-width:3px"/><rect x="1976.87" y="393.5" width="67.4" height="15.2" style="fill:#f2f2f2;stroke:#f2f2f2;stroke-miterlimit:10;stroke-width:3px"/><rect x="2118.27" y="558.1" width="67.4" height="15.2" style="fill:#f2f2f2;stroke:#f2f2f2;stroke-miterlimit:10;stroke-width:3px"/><rect x="3170.47" y="489.3" width="67.4" height="15.2" style="fill:#f2f2f2;stroke:#f2f2f2;stroke-miterlimit:10;stroke-width:3px"/><rect x="1826.27" y="1698.1" width="67.4" height="15.2" style="fill:#f2f2f2;stroke:#f2f2f2;stroke-miterlimit:10;stroke-width:3px"/><rect x="2115.97" y="1643.8" width="67.4" height="15.2" style="fill:#f2f2f2;stroke:#f2f2f2;stroke-miterlimit:10;stroke-width:3px"/><rect x="2672.67" y="1802.8" width="67.4" height="15.2" style="fill:#f2f2f2;stroke:#f2f2f2;stroke-miterlimit:10;stroke-width:3px"/><rect x="2590.37" y="1971.8" width="67.4" height="15.2" style="fill:#f2f2f2;stroke:#f2f2f2;stroke-miterlimit:10;stroke-width:3px"/><rect x="3025.97" y="1971.9" width="67.4" height="15.2" style="fill:#f2f2f2;stroke:#f2f2f2;stroke-miterlimit:10;stroke-width:3px"/><rect x="2371.87" y="1203.3" width="67.4" height="15.2" style="fill:#f2f2f2;stroke:#f2f2f2;stroke-miterlimit:10;stroke-width:3px"/><rect x="1917.77" y="2112.9" width="67.4" height="15.2" style="fill:#f2f2f2;stroke:#f2f2f2;stroke-miterlimit:10;stroke-width:3px"/><rect x="2387.17" y="2553.2" width="67.4" height="15.2" style="fill:#f2f2f2;stroke:#f2f2f2;stroke-miterlimit:10;stroke-width:3px"/><rect x="2662.57" y="2553.2" width="67.4" height="15.2" style="fill:#f2f2f2;stroke:#f2f2f2;stroke-miterlimit:10;stroke-width:3px"/><rect x="2539.87" y="3013.1" width="67.4" height="15.2" style="fill:#f2f2f2;stroke:#f2f2f2;stroke-miterlimit:10;stroke-width:3px"/><rect x="2356.47" y="3013" width="67.4" height="15.2" style="fill:#f2f2f2;stroke:#f2f2f2;stroke-miterlimit:10;stroke-width:3px"/><rect x="2755.57" y="3013" width="67.4" height="15.2" style="fill:#f2f2f2;stroke:#f2f2f2;stroke-miterlimit:10;stroke-width:3px"/><rect x="2992.27" y="3013" width="67.4" height="15.2" style="fill:#f2f2f2;stroke:#f2f2f2;stroke-miterlimit:10;stroke-width:3px"/><rect x="2996.97" y="2712.2" width="67.4" height="15.2" style="fill:#f2f2f2;stroke:#f2f2f2;stroke-miterlimit:10;stroke-width:3px"/><rect x="2753.57" y="2712.2" width="67.4" height="15.2" style="fill:#f2f2f2;stroke:#f2f2f2;stroke-miterlimit:10;stroke-width:3px"/><rect x="3436.72" y="3024.46" width="15.2" height="67.4" transform="translate(97.61 6222.85) rotate(-85)" style="fill:#f2f2f2;stroke:#f2f2f2;stroke-miterlimit:10.000351678911983;stroke-width:3.0000153809886383px"/><rect x="3408.26" y="3168.76" width="15.2" height="67.4" transform="translate(-72.12 6326.22) rotate(-85)" style="fill:#f2f2f2;stroke:#f2f2f2;stroke-miterlimit:10.000351678911983;stroke-width:3.0000153809886383px"/><rect x="3850.64" y="3207.3" width="15.2" height="67.4" transform="translate(293.31 6802.09) rotate(-85)" style="fill:#f2f2f2;stroke:#f2f2f2;stroke-miterlimit:10.000351678911983;stroke-width:3.0000153809886383px"/><rect x="4059.36" y="3225.66" width="15.2" height="67.4" transform="translate(465.55 7026.79) rotate(-85)" style="fill:#f2f2f2;stroke:#f2f2f2;stroke-miterlimit:10.000351678911983;stroke-width:3.0000153809886383px"/><rect x="4495.78" y="3263.53" width="15.2" height="67.4" transform="translate(826.22 7496.11) rotate(-85)" style="fill:#f2f2f2;stroke:#f2f2f2;stroke-miterlimit:10.000351678911983;stroke-width:3.0000153809886383px"/><rect x="3653.41" y="3043.29" width="15.2" height="67.4" transform="translate(276.65 6455.9) rotate(-85)" style="fill:#f2f2f2;stroke:#f2f2f2;stroke-miterlimit:10.000351678911983;stroke-width:3.0000153809886383px"/><rect x="3914.46" y="3066.19" width="15.2" height="67.4" transform="translate(492.15 6736.86) rotate(-85)" style="fill:#f2f2f2;stroke:#f2f2f2;stroke-miterlimit:10.000351678911983;stroke-width:3.0000153809886383px"/><rect x="4151.46" y="3086.99" width="15.2" height="67.4" transform="translate(687.76 6991.94) rotate(-85)" style="fill:#f2f2f2;stroke:#f2f2f2;stroke-miterlimit:10.000351678911983;stroke-width:3.0000153809886383px"/><rect x="4181.95" y="2772.5" width="15.2" height="67.4" transform="translate(1028.9 6735.25) rotate(-85)" style="fill:#f2f2f2;stroke:#f2f2f2;stroke-miterlimit:10.000351678911983;stroke-width:3.0000153809886383px"/><rect x="4366.22" y="2788.61" width="15.2" height="67.4" transform="translate(1181.06 6933.51) rotate(-85)" style="fill:#f2f2f2;stroke:#f2f2f2;stroke-miterlimit:10.000351678911983;stroke-width:3.0000153809886383px"/><rect x="4963.66" y="2802.7" width="15.2" height="67.4" transform="translate(1712.39 7541.55) rotate(-85)" style="fill:#f2f2f2;stroke:#f2f2f2;stroke-miterlimit:10.000351678911983;stroke-width:3.0000153809886383px"/><rect x="3942.14" y="2751.53" width="15.2" height="67.4" transform="translate(830.88 6477.21) rotate(-85)" style="fill:#f2f2f2;stroke:#f2f2f2;stroke-miterlimit:10.000351678911983;stroke-width:3.0000153809886383px"/><rect x="3456.72" y="2709.11" width="15.2" height="67.4" transform="translate(430.02 5954.9) rotate(-85)" style="fill:#f2f2f2;stroke:#f2f2f2;stroke-miterlimit:10.000351678911983;stroke-width:3.0000153809886383px"/><rect x="3423.77" y="2545.12" width="15.2" height="67.4" transform="translate(563.31 5772.38) rotate(-85)" style="fill:#f2f2f2;stroke:#f2f2f2;stroke-miterlimit:10.000351678911983;stroke-width:3.0000153809886383px"/><rect x="3724.01" y="2571.28" width="15.2" height="67.4" transform="translate(811.32 6095.36) rotate(-85)" style="fill:#f2f2f2;stroke:#f2f2f2;stroke-miterlimit:10.000351678911983;stroke-width:3.0000153809886383px"/><rect x="4336.09" y="3102.96" width="15.2" height="67.4" transform="translate(840.4 7190.45) rotate(-85)" style="fill:#f2f2f2;stroke:#f2f2f2;stroke-miterlimit:10.000351678911983;stroke-width:3.0000153809886383px"/><rect x="3036.67" y="3177.9" width="67.4" height="15.2" style="fill:#f2f2f2;stroke:#f2f2f2;stroke-miterlimit:10;stroke-width:3px"/><rect x="2815.67" y="3178" width="67.4" height="15.2" style="fill:#f2f2f2;stroke:#f2f2f2;stroke-miterlimit:10;stroke-width:3px"/><rect x="2906.77" y="2553.2" width="67.4" height="15.2" style="fill:#f2f2f2;stroke:#f2f2f2;stroke-miterlimit:10;stroke-width:3px"/><rect x="3134.47" y="2553.2" width="67.4" height="15.2" style="fill:#f2f2f2;stroke:#f2f2f2;stroke-miterlimit:10;stroke-width:3px"/><rect x="614.77" y="1826.4" width="67.4" height="15.2" style="fill:#f2f2f2;stroke:#f2f2f2;stroke-miterlimit:10;stroke-width:3px"/><rect x="433.57" y="1965.7" width="67.4" height="15.2" style="fill:#f2f2f2;stroke:#f2f2f2;stroke-miterlimit:10;stroke-width:3px"/><rect x="614.77" y="1965.7" width="67.4" height="15.2" style="fill:#f2f2f2;stroke:#f2f2f2;stroke-miterlimit:10;stroke-width:3px"/><rect x="922.67" y="1826.4" width="67.4" height="15.2" style="fill:#f2f2f2;stroke:#f2f2f2;stroke-miterlimit:10;stroke-width:3px"/><rect x="1098.77" y="1826.4" width="67.4" height="15.2" style="fill:#f2f2f2;stroke:#f2f2f2;stroke-miterlimit:10;stroke-width:3px"/><rect x="1860.37" y="393.6" width="50.9" height="15.2" style="fill:#f2f2f2;stroke:#f2f2f2;stroke-miterlimit:10;stroke-width:3px"/><rect x="1596.77" y="393.6" width="50.9" height="15.2" style="fill:#f2f2f2;stroke:#f2f2f2;stroke-miterlimit:10;stroke-width:3px"/><rect x="1813.97" y="740.9" width="50.9" height="15.2" style="fill:#f2f2f2;stroke:#f2f2f2;stroke-miterlimit:10;stroke-width:3px"/><rect x="1732.67" y="1698.1" width="50.9" height="15.2" style="fill:#f2f2f2;stroke:#f2f2f2;stroke-miterlimit:10;stroke-width:3px"/><rect x="1702.97" y="1425.8" width="15.2" height="50.9" style="fill:#f2f2f2;stroke:#f2f2f2;stroke-miterlimit:10;stroke-width:3px"/><rect x="1702.97" y="1545.3" width="15.2" height="50.9" style="fill:#f2f2f2;stroke:#f2f2f2;stroke-miterlimit:10;stroke-width:3px"/><rect x="1224.27" y="2907.8" width="15.2" height="50.9" style="fill:#f2f2f2;stroke:#f2f2f2;stroke-miterlimit:10;stroke-width:3px"/><rect x="1224.27" y="3109.7" width="15.2" height="50.9" style="fill:#f2f2f2;stroke:#f2f2f2;stroke-miterlimit:10;stroke-width:3px"/><rect x="1859.67" y="3467" width="15.2" height="50.9" style="fill:#f2f2f2;stroke:#f2f2f2;stroke-miterlimit:10;stroke-width:3px"/><rect x="3044.37" y="2479.7" width="15.2" height="50.9" style="fill:#f2f2f2;stroke:#f2f2f2;stroke-miterlimit:10;stroke-width:3px"/><rect x="4133.06" y="2453.48" width="50.9" height="15.2" transform="translate(1344.37 6389.28) rotate(-85)" style="fill:#f2f2f2;stroke:#f2f2f2;stroke-miterlimit:10.000351126956529;stroke-width:3.000015215406976px"/><rect x="4142.82" y="2342.26" width="50.9" height="15.2" transform="translate(1464.07 6297.47) rotate(-85)" style="fill:#f2f2f2;stroke:#f2f2f2;stroke-miterlimit:10.000351126956529;stroke-width:3.000015215406976px"/><rect x="4397.95" y="2364.6" width="50.9" height="15.2" transform="translate(1674.71 6572.02) rotate(-85)" style="fill:#f2f2f2;stroke:#f2f2f2;stroke-miterlimit:10.000351126956529;stroke-width:3.000015215406976px"/><rect x="4388.18" y="2475.83" width="50.9" height="15.2" transform="translate(1554.99 6663.83) rotate(-85)" style="fill:#f2f2f2;stroke:#f2f2f2;stroke-miterlimit:10.000351126956529;stroke-width:3.000015215406976px"/><rect x="3289.7" y="2509.29" width="50.9" height="15.2" transform="translate(518.91 5600.07) rotate(-85)" style="fill:#f2f2f2;stroke:#f2f2f2;stroke-miterlimit:10.000351126956529;stroke-width:3.000015215406976px"/><rect x="354.87" y="467.1" width="15.2" height="67.4" style="fill:#f2f2f2;stroke:#f2f2f2;stroke-miterlimit:10;stroke-width:3px"/><rect x="936.67" y="470" width="15.2" height="67.4" style="fill:#f2f2f2;stroke:#f2f2f2;stroke-miterlimit:10;stroke-width:3px"/><rect x="2229.77" y="453.3" width="15.2" height="67.4" style="fill:#f2f2f2;stroke:#f2f2f2;stroke-miterlimit:10;stroke-width:3px"/><rect x="2054.37" y="649.9" width="15.2" height="67.4" style="fill:#f2f2f2;stroke:#f2f2f2;stroke-miterlimit:10;stroke-width:3px"/><rect x="2054.37" y="829.7" width="15.2" height="67.4" style="fill:#f2f2f2;stroke:#f2f2f2;stroke-miterlimit:10;stroke-width:3px"/><rect x="2054.37" y="1087.9" width="15.2" height="67.4" style="fill:#f2f2f2;stroke:#f2f2f2;stroke-miterlimit:10;stroke-width:3px"/><rect x="1437.97" y="1747.3" width="15.2" height="67.4" style="fill:#f2f2f2;stroke:#f2f2f2;stroke-miterlimit:10;stroke-width:3px"/><rect x="2229.77" y="1879.4" width="15.2" height="67.4" style="fill:#f2f2f2;stroke:#f2f2f2;stroke-miterlimit:10;stroke-width:3px"/><rect x="2023.87" y="2334.7" width="15.2" height="67.4" style="fill:#f2f2f2;stroke:#f2f2f2;stroke-miterlimit:10;stroke-width:3px"/><rect x="1859.67" y="2196.7" width="15.2" height="67.4" style="fill:#f2f2f2;stroke:#f2f2f2;stroke-miterlimit:10;stroke-width:3px"/><rect x="1859.67" y="2538.9" width="15.2" height="67.4" style="fill:#f2f2f2;stroke:#f2f2f2;stroke-miterlimit:10;stroke-width:3px"/><rect x="1859.67" y="2693.7" width="15.2" height="67.4" style="fill:#f2f2f2;stroke:#f2f2f2;stroke-miterlimit:10;stroke-width:3px"/><rect x="1859.67" y="2913" width="15.2" height="67.4" style="fill:#f2f2f2;stroke:#f2f2f2;stroke-miterlimit:10;stroke-width:3px"/><rect x="1859.67" y="3159.5" width="15.2" height="67.4" style="fill:#f2f2f2;stroke:#f2f2f2;stroke-miterlimit:10;stroke-width:3px"/><rect x="2023.87" y="3263.7" width="15.2" height="67.4" style="fill:#f2f2f2;stroke:#f2f2f2;stroke-miterlimit:10;stroke-width:3px"/><rect x="1507.27" y="2693.7" width="15.2" height="67.4" style="fill:#f2f2f2;stroke:#f2f2f2;stroke-miterlimit:10;stroke-width:3px"/><rect x="904.67" y="2584.2" width="15.2" height="67.4" style="fill:#f2f2f2;stroke:#f2f2f2;stroke-miterlimit:10;stroke-width:3px"/><rect x="2023.87" y="2836.5" width="15.2" height="67.4" style="fill:#f2f2f2;stroke:#f2f2f2;stroke-miterlimit:10;stroke-width:3px"/><rect x="4910.67" y="2401.2" width="67.4" height="15.2" transform="translate(2113.83 7124.43) rotate(-85)" style="fill:#f2f2f2;stroke:#f2f2f2;stroke-miterlimit:10.000351126956529;stroke-width:3.000015215406976px"/><rect x="4628.45" y="2741.95" width="67.4" height="15.2" transform="translate(1516.74 7154.33) rotate(-85)" style="fill:#f2f2f2;stroke:#f2f2f2;stroke-miterlimit:10.000351126956529;stroke-width:3.000015215406976px"/><rect x="574.37" y="1747.3" width="15.2" height="67.4" style="fill:#f2f2f2;stroke:#f2f2f2;stroke-miterlimit:10;stroke-width:3px"/><rect x="2229.77" y="796" width="15.2" height="67.4" style="fill:#f2f2f2;stroke:#f2f2f2;stroke-miterlimit:10;stroke-width:3px"/><rect x="2229.77" y="1087.9" width="15.2" height="67.4" style="fill:#f2f2f2;stroke:#f2f2f2;stroke-miterlimit:10;stroke-width:3px"/><rect x="2229.77" y="1489" width="15.2" height="67.4" style="fill:#f2f2f2;stroke:#f2f2f2;stroke-miterlimit:10;stroke-width:3px"/><rect x="4279.97" y="2503.26" width="15.2" height="50.9" transform="translate(1394.81 6579.58) rotate(-85)" style="fill:#f2f2f2;stroke:#f2f2f2;stroke-miterlimit:10.000351678911983;stroke-width:3.0000153809886383px"/><rect x="3270.47" y="2184.78" width="15.2" height="50.9" transform="translate(790.56 5283.2) rotate(-85)" style="fill:#f2f2f2;stroke:#f2f2f2;stroke-miterlimit:10.000351678911983;stroke-width:3.0000153809886383px"/><rect x="4265.64" y="2626.95" width="15.2" height="50.9" transform="translate(1258.51 6678.21) rotate(-85)" style="fill:#f2f2f2;stroke:#f2f2f2;stroke-miterlimit:10.000351678911983;stroke-width:3.0000153809886383px"/><polygon points="1999.47 3574.9 1996.87 3604.8 1913.47 3596.8 1916.07 3566.9 1999.47 3574.9" style="fill:#f2f2f2;stroke:#f2f2f2;stroke-miterlimit:10;stroke-width:3px"/><polygon points="1223.77 3529.9 1283.07 3535.7 1253.57 3632.7 1102.07 3632.7 1102.07 3595.5 1133.47 3595.2 1133.57 3529.9 1223.77 3529.9" style="fill:#fff"/><rect x="1859.67" y="2360.8" width="15.2" height="67.4" style="fill:#f2f2f2;stroke:#f2f2f2;stroke-miterlimit:10;stroke-width:3px"/></g></g><g id="scale"><g id="scala_B" data-name="scala B"><polygon points="1875.97 1915.9 1756.57 1915.9 1756.57 1930.5 1787.47 1930.5 1787.47 1932.9 1754.07 1932.9 1754.07 1913.3 1873.37 1913.3 1873.37 1844.4 1675.57 1844.4 1675.57 2000.2 1817.27 2000.2 1817.27 2002.7 1673.07 2002.7 1673.07 1841.9 1875.97 1841.9 1875.97 1915.9" style="fill:#b7b7b7"/><polygon points="1873.77 1878.9 1723.17 1878.9 1723.17 1964.2 1802.07 1964.2 1802.07 1966.8 1720.57 1966.8 1720.57 1876.3 1873.77 1876.3 1873.77 1878.9" style="fill:#b7b7b7"/><rect x="1800.67" y="1965.8" width="2.6" height="35.6" style="fill:#b7b7b7"/><polygon points="1803.27 1965.6 1788.37 2001.9 1785.97 2000.9 1800.57 1965.6 1786.07 1932.5 1788.37 1931.5 1803.27 1965.6" style="fill:#b7b7b7"/><rect x="1800.6" y="1928.98" width="2.6" height="75.3" transform="translate(-639.41 892.17) rotate(-23.75)" style="fill:#b7b7b7"/><rect x="1856.47" y="1842.2" width="2.5" height="72" style="fill:#b7b7b7"/><rect x="1864.97" y="1842.2" width="2.5" height="72" style="fill:#b7b7b7"/><rect x="1848.07" y="1842.2" width="2.5" height="72" style="fill:#b7b7b7"/><rect x="1831.17" y="1842.2" width="2.5" height="72" style="fill:#b7b7b7"/><rect x="1839.57" y="1842.2" width="2.5" height="72" style="fill:#b7b7b7"/><rect x="1813.77" y="1842.2" width="2.5" height="72" style="fill:#b7b7b7"/><rect x="1822.27" y="1842.2" width="2.5" height="72" style="fill:#b7b7b7"/><rect x="1805.37" y="1842.2" width="2.5" height="72" style="fill:#b7b7b7"/><rect x="1788.47" y="1842.2" width="2.5" height="72" style="fill:#b7b7b7"/><rect x="1796.97" y="1842.2" width="2.5" height="72" style="fill:#b7b7b7"/><rect x="1771.17" y="1842.2" width="2.5" height="72" style="fill:#b7b7b7"/><rect x="1779.57" y="1842.2" width="2.5" height="72" style="fill:#b7b7b7"/><rect x="1762.67" y="1842.2" width="2.5" height="72" style="fill:#b7b7b7"/><rect x="1784.07" y="1932.3" width="2.5" height="69.6" style="fill:#b7b7b7"/><rect x="1766.67" y="1932.3" width="2.5" height="69.6" style="fill:#b7b7b7"/><rect x="1775.07" y="1932.3" width="2.5" height="69.6" style="fill:#b7b7b7"/><rect x="1758.27" y="1932.3" width="2.5" height="69.6" style="fill:#b7b7b7"/></g><g id="scala_A" data-name="scala A"><polygon points="27.37 235.7 27.37 30.4 354.97 32.4 354.97 192.4 352.47 192.4 352.47 34.9 29.87 32.9 29.87 232.2 98.27 232.2 98.27 110.8 282.77 110.8 282.77 162.9 280.27 162.9 280.27 113.3 100.77 113.3 100.77 235.7 27.37 235.7" style="fill:#b7b7b7"/><polygon points="61.57 232.6 61.57 77.6 316.27 77.6 316.27 172.4 313.77 172.4 313.77 80.1 64.07 80.1 64.07 232.6 61.57 232.6" style="fill:#b7b7b7"/><rect x="28.07" y="131" width="72" height="2.5" style="fill:#b7b7b7"/><rect x="28.07" y="122.6" width="72" height="2.5" style="fill:#b7b7b7"/><rect x="28.07" y="139.5" width="72" height="2.5" style="fill:#b7b7b7"/><rect x="281.47" y="120.1" width="72.2" height="2.5" style="fill:#b7b7b7"/><rect x="281.47" y="128.4" width="72.2" height="2.5" style="fill:#b7b7b7"/><rect x="281.47" y="136.7" width="72.2" height="2.5" style="fill:#b7b7b7"/><rect x="281.47" y="145" width="72.2" height="2.5" style="fill:#b7b7b7"/><rect x="281.47" y="161.4" width="72.2" height="2.5" style="fill:#b7b7b7"/><polygon points="353.67 176 353.67 178.6 315.37 173.6 315.37 171 353.67 176" style="fill:#b7b7b7"/><polygon points="281.37 163.8 282.37 161.5 315.17 170.9 353.17 161.5 354.17 163.8 315.07 173.6 281.37 163.8" style="fill:#b7b7b7"/><rect x="28.07" y="173.2" width="72" height="2.5" style="fill:#b7b7b7"/><rect x="28.07" y="156.3" width="72" height="2.5" style="fill:#b7b7b7"/><rect x="28.07" y="164.8" width="72" height="2.5" style="fill:#b7b7b7"/><rect x="28.07" y="147.9" width="72" height="2.5" style="fill:#b7b7b7"/><rect x="28.07" y="190.1" width="72" height="2.5" style="fill:#b7b7b7"/><rect x="28.07" y="181.7" width="72" height="2.5" style="fill:#b7b7b7"/><rect x="28.07" y="198.5" width="72" height="2.5" style="fill:#b7b7b7"/><rect x="28.07" y="215.4" width="72" height="2.5" style="fill:#b7b7b7"/><rect x="28.07" y="223.8" width="72" height="2.5" style="fill:#b7b7b7"/><rect x="28.07" y="207" width="72" height="2.5" style="fill:#b7b7b7"/><polygon points="282.47 161.4 353.87 191.5 352.87 193.8 281.47 163.7 282.47 161.4" style="fill:#b7b7b7"/></g><path id="scala_C" data-name="scala C" d="M5004.7,2970.91l-.57-1.68-70.73,24,.38,1.12-.71-.06-7.6,81.4L4717,3048.9l10.3-118-73.1-6.4-17.6,200.6,353.1,39.4,17.4-193.4Zm-.21.84-1.16,12.92L4974,2982.1Zm-37,13.15-1,11.17-25.54-2.23Zm2.61.07,26.61,13.75L4969,2996.3Zm-34.64,10.9,30.79,2.69-.67,7.38-30.81-2.69Zm29.89,12.56-.57,6.35-30.83-2.7.59-6.34Zm-.8,8.84-.57,6.28-30.84-2.69.58-6.29Zm-.79,8.77-.55,6-30.86-2.7.55-6Zm-.77,8.46-.57,6.27-30.88-2.7.58-6.27Zm2.57.23,33.05,2.89-.56,6.27L4965,3041Zm.22-2.49.55-6,33,2.89-.54,6Zm.78-8.46.57-6.29,33,2.89-.56,6.29Zm.8-8.78.58-6.34,33,2.89-.57,6.34Zm.8-8.83.68-7.38,33,2.88-.66,7.39Zm7.08-21.45,27.89,2.44-1,11.42Zm-47.45,93.68,3.51-37.84,30.89,2.7-6.2,68.44-278.5-33,4.57-52,34,3-1.87,21.45Zm-244-71.62.54-6.1,34,3-.53,6.1Zm33.77,5.47-.54,6.16-34-3,.54-6.16Zm-33-14.06.57-6.45,34,3-.56,6.46Zm.79-8.94.51-5.89,34,3-.51,5.88Zm.73-8.38.52-5.89,34,3-.52,5.9Zm.74-8.38.57-6.42,34,3-.57,6.42Zm.78-8.91.56-6.36,34,3-.56,6.36Zm.78-8.85.53-6,34,3-.52,6Zm.75-8.47.52-5.89,33.94,3-.51,5.89Zm-2.59-.23-31.56-2.76.52-5.89,31.56,2.76Zm-.21,2.49-.52,6-31.57-2.76.52-6Zm-.74,8.47-.56,6.36-31.56-2.76.55-6.36Zm-.77,8.85-.56,6.43-31.57-2.77.56-6.42Zm-.78,8.92-.51,5.89-31.58-2.76.52-5.9Zm-.73,8.38-.51,5.89-31.58-2.77.51-5.88Zm-.73,8.38L4682,2998l-31.58-2.76.56-6.45Zm-.78,8.94-.53,6.1-31.58-2.76.53-6.1Zm-.75,8.59-.54,6.16-31.58-2.76.54-6.16Zm-.75,8.65-.55,6.27-31.59-2.77.55-6.26Zm2.52.22,34,3-.55,6.26-34-3Zm41-77.07-33.94-3,.67-7.62,33.94,2.94ZM4687.93,2930l-.67,7.62-31.56-2.76.67-7.59Zm299.54,231.77-348.2-39,8.67-99.11,31.58,2.77-4.75,54.54,283.5,33.4,6.47-70.91,33.07,2.89Z" style="fill:#b7b7b7"/><g id="ingresso"><line x1="1714.87" y1="3578.5" x2="1706.97" y2="3659.5" style="fill:none"/><path d="M1708.67,3661.5l-144.8-14.2,8.4-84.7,144.7,14.2ZM1568,3644l139.2,13.6,7.6-77.2-139.3-13.6Z" style="fill:#b7b7b7"/><rect x="1637.24" y="3540.28" width="3.8" height="144.09" transform="translate(-2115.75 4891.57) rotate(-84.41)" style="fill:#b7b7b7"/><rect x="1609.3" y="3611.43" width="81.4" height="3.8" transform="translate(-2106.94 4903.29) rotate(-84.41)" style="fill:#b7b7b7"/><rect x="1598.71" y="3610.29" width="81.4" height="3.8" transform="translate(-2115.37 4891.72) rotate(-84.41)" style="fill:#b7b7b7"/><rect x="1587.19" y="3609.19" width="81.4" height="3.8" transform="translate(-2124.68 4879.26) rotate(-84.41)" style="fill:#b7b7b7"/><rect x="1575.76" y="3608.08" width="81.4" height="3.8" transform="translate(-2133.89 4866.88) rotate(-84.41)" style="fill:#b7b7b7"/><rect x="1564.07" y="3607.04" width="81.4" height="3.8" transform="translate(-2143.4 4854.3) rotate(-84.41)" style="fill:#b7b7b7"/><rect x="1655.23" y="3617.9" width="81.4" height="3.8" transform="translate(-2071.93 4954.84) rotate(-84.41)" style="fill:#b7b7b7"/><rect x="1643.63" y="3616.65" width="81.4" height="3.8" transform="translate(-2081.16 4942.16) rotate(-84.41)" style="fill:#b7b7b7"/><rect x="1632.12" y="3615.62" width="81.4" height="3.8" transform="translate(-2090.52 4929.77) rotate(-84.41)" style="fill:#b7b7b7"/><rect x="1620.58" y="3614.39" width="81.4" height="3.8" transform="translate(-2099.71 4917.18) rotate(-84.41)" style="fill:#b7b7b7"/><rect x="1552.62" y="3605.91" width="81.4" height="3.8" transform="translate(-2152.62 4841.9) rotate(-84.41)" style="fill:#b7b7b7"/><rect x="1540.2" y="3604.63" width="81.4" height="3.8" transform="translate(-2162.55 4828.37) rotate(-84.41)" style="fill:#b7b7b7"/><line x1="1878.17" y1="3594.4" x2="1870.17" y2="3675.4" style="fill:none"/><path d="M1871.87,3677.5l-144.8-14.2,8.4-84.7,144.7,14.2Zm-140.6-17.6,139.2,13.6,7.6-77.2-139.3-13.6Z" style="fill:#b7b7b7"/><rect x="1800.61" y="3556.17" width="3.8" height="144.09" transform="translate(-1984.12 5068.5) rotate(-84.41)" style="fill:#b7b7b7"/><rect x="1772.59" y="3627.49" width="81.4" height="3.8" transform="translate(-1975.56 5080.29) rotate(-84.41)" style="fill:#b7b7b7"/><rect x="1762.08" y="3626.41" width="81.4" height="3.8" transform="translate(-1983.96 5068.86) rotate(-84.41)" style="fill:#b7b7b7"/><rect x="1750.48" y="3625.16" width="81.4" height="3.8" transform="translate(-1993.19 5056.18) rotate(-84.41)" style="fill:#b7b7b7"/><rect x="1739.07" y="3624.13" width="81.4" height="3.8" transform="translate(-2002.47 5043.9) rotate(-84.41)" style="fill:#b7b7b7"/><rect x="1727.44" y="3622.89" width="81.4" height="3.8" transform="translate(-2011.73 5031.21) rotate(-84.41)" style="fill:#b7b7b7"/><rect x="1818.52" y="3633.86" width="81.4" height="3.8" transform="translate(-1940.44 5131.76) rotate(-84.41)" style="fill:#b7b7b7"/><rect x="1807.01" y="3632.78" width="81.4" height="3.8" transform="translate(-1949.75 5119.32) rotate(-84.41)" style="fill:#b7b7b7"/><rect x="1795.41" y="3631.58" width="81.4" height="3.8" transform="translate(-1959.03 5106.69) rotate(-84.41)" style="fill:#b7b7b7"/><rect x="1783.78" y="3630.34" width="81.4" height="3.8" transform="translate(-1968.3 5094) rotate(-84.41)" style="fill:#b7b7b7"/><rect x="1715.93" y="3621.96" width="81.4" height="3.8" transform="translate(-2021.19 5018.91) rotate(-84.41)" style="fill:#b7b7b7"/><rect x="1703.39" y="3620.68" width="81.4" height="3.8" transform="translate(-2031.24 5005.28) rotate(-84.41)" style="fill:#b7b7b7"/><line x1="1555.07" y1="3562.8" x2="1547.07" y2="3643.8" style="fill:none"/><path d="M1548.77,3645.9l-300-29.4,8.5-84.7,299.8,29.4ZM1253,3613.1l292.5,28.6,7.6-77.2-292.6-28.7Z" style="fill:#b7b7b7"/><rect x="1386.71" y="3424.62" width="3.8" height="326.29" transform="translate(-2317.41 4620.07) rotate(-84.41)" style="fill:#b7b7b7"/><rect x="1449.5" y="3595.84" width="81.4" height="3.8" transform="translate(-2235.65 4730.18) rotate(-84.41)" style="fill:#b7b7b7"/><rect x="1438.93" y="3594.76" width="81.4" height="3.8" transform="translate(-2244.12 4718.68) rotate(-84.41)" style="fill:#b7b7b7"/><rect x="1427.41" y="3593.52" width="81.4" height="3.8" transform="translate(-2253.28 4706.1) rotate(-84.41)" style="fill:#b7b7b7"/><rect x="1415.9" y="3592.48" width="81.4" height="3.8" transform="translate(-2262.64 4693.71) rotate(-84.41)" style="fill:#b7b7b7"/><rect x="1404.28" y="3591.24" width="81.4" height="3.8" transform="translate(-2271.9 4681.02) rotate(-84.41)" style="fill:#b7b7b7"/><rect x="1495.46" y="3602.22" width="81.4" height="3.8" transform="translate(-2200.53 4781.67) rotate(-84.41)" style="fill:#b7b7b7"/><rect x="1483.83" y="3601.04" width="81.4" height="3.8" transform="translate(-2209.85 4769.04) rotate(-84.41)" style="fill:#b7b7b7"/><rect x="1472.43" y="3599.92" width="81.4" height="3.8" transform="translate(-2219.02 4756.68) rotate(-84.41)" style="fill:#b7b7b7"/><rect x="1460.72" y="3598.7" width="81.4" height="3.8" transform="translate(-2228.38 4743.92) rotate(-84.41)" style="fill:#b7b7b7"/><rect x="1392.93" y="3590.13" width="81.4" height="3.8" transform="translate(-2281.03 4668.72) rotate(-84.41)" style="fill:#b7b7b7"/><rect x="1380.22" y="3589.03" width="81.4" height="3.8" transform="translate(-2291.41 4655.08) rotate(-84.41)" style="fill:#b7b7b7"/><rect x="1295.04" y="3578.68" width="81.4" height="3.8" transform="translate(-2357.99 4560.96) rotate(-84.41)" style="fill:#b7b7b7"/><rect x="1284.42" y="3577.63" width="81.4" height="3.8" transform="translate(-2366.53 4549.44) rotate(-84.41)" style="fill:#b7b7b7"/><rect x="1272.91" y="3576.54" width="81.4" height="3.8" transform="translate(-2375.83 4537.01) rotate(-84.41)" style="fill:#b7b7b7"/><rect x="1261.39" y="3575.41" width="81.4" height="3.8" transform="translate(-2385.1 4524.53) rotate(-84.41)" style="fill:#b7b7b7"/><rect x="1249.7" y="3574.28" width="81.4" height="3.8" transform="translate(-2394.53 4511.87) rotate(-84.41)" style="fill:#b7b7b7"/><rect x="1238.35" y="3573.17" width="81.4" height="3.8" transform="translate(-2403.66 4499.57) rotate(-84.41)" style="fill:#b7b7b7"/><rect x="1225.93" y="3571.88" width="81.4" height="3.8" transform="translate(-2413.59 4486.05) rotate(-84.41)" style="fill:#b7b7b7"/><polygon points="1239.17 3615.6 1224.17 3571.8 1247.47 3530.9 1250.97 3532.3 1228.17 3572.1 1242.77 3615 1239.17 3615.6" style="fill:#b7b7b7"/></g></g></svg>