<svg id="Livello_1" data-name="Livello 1" xmlns="http://www.w3.org/2000/svg" viewBox="0 0 5229.4 3928"><g id="ESTERNO_EDIFICIO_INUTILIZZATO" data-name="ESTERNO EDIFICIO/INUTILIZZATO"><polygon points="0 2169.5 0 2558.8 3655.8 2558.8 4515.6 2789.6 4461.7 3518 5164.2 3585.5 5164.2 2513.4 4391.7 2513.6 3228.5 2210.5 3228.5 1817.8 2834.1 1817.8 2834.4 2168.6 0 2169.5" style="fill:#f2f2f2"/><polygon points="0.6 2558.9 0.6 3280.3 4245.3 3654 4245.3 3497.2 4461.7 3518 4515.6 2789.6 3655.8 2558.8 0.6 2558.9" style="fill:#ddd"/><polygon points="5164.4 1792 5164.4 532.9 5165.7 532.9 5165.7 1.7 2974.1 1.7 2974.1 532.9 3054.9 532.9 3054.9 1751.8 2834.1 1751.8 2797.9 1751.8 2284 1751.8 2284 2168.7 2834.1 2168.7 2834.1 1817.8 3229.1 1817.8 3229.1 2207.2 3229.1 2208.7 3229.1 2210.7 3232 2211.4 4391.7 2513.6 5164.2 2513.4 5164.8 2207.7 5164.2 2207.7 5164.2 1792 5164.4 1792" style="fill:#ddd"/><polygon points="376.9 720.8 380.9 720.8 380.9 3.1 2.2 3.1 2.2 2169.4 380.9 2169.4 380.9 1706.5 376.9 1706.5 376.9 720.8" style="fill:#f2f2f2"/><polygon points="1271.7 719.9 380.9 719.9 376.9 719.9 376.9 1706.2 380.9 1706.2 1271.7 1706.2 1271.7 719.9" style="fill:#f2f2f2"/><polyline points="380.9 2169.4 0.7 2169.7 0.7 3280.3 4245.3 3654 4245.3 3497.2 5164.2 3585.5 5165.9 1.7 2980 1.7" style="fill:none;stroke:#b7b7b7;stroke-miterlimit:10;stroke-width:3px"/><polyline points="0 2558.8 3655.8 2558.8 4515.6 2789.6 4461.6 3519.3" style="fill:none;stroke:#b7b7b7;stroke-miterlimit:10;stroke-width:3px"/><polyline points="2284 2169.3 2834.1 2169.3 2834.1 1817.8 3228.5 1817.8 3228.5 2210.5 4390.5 2513.4 5162.3 2513.4" style="fill:none;stroke:#b7b7b7;stroke-miterlimit:10;stroke-width:3px"/><polyline points="2284 1817.8 3360.2 1817.8 3360.2 0" style="fill:none;stroke:#b7b7b7;stroke-miterlimit:10;stroke-width:3px"/><polyline points="354.8 1.7 0.9 1.7 0.7 2169.4" style="fill:none;stroke:#b7b7b7;stroke-miterlimit:10;stroke-width:3px"/><rect id="inutilizzato" x="426.6" y="814.1" width="720.4" height="352" style="fill:#ddd"/><polyline points="1268.8 1167.7 928.5 1167.7 928.5 1384.6 190.4 1384.6 190.4 1559.7 0 1559.7" style="fill:none;stroke:#b7b7b7;stroke-miterlimit:10;stroke-width:3px"/><line x1="2.2" y1="690.2" x2="354.7" y2="690.1" style="fill:none;stroke:#b7b7b7;stroke-miterlimit:10;stroke-width:3px"/><polyline points="425 719.7 425 812.6 1148.7 812.6 1148.7 1167.7" style="fill:none;stroke:#b7b7b7;stroke-miterlimit:10;stroke-width:3px"/><line x1="824.3" y1="1275.5" x2="190.4" y2="1275.5" style="fill:none;stroke:#b7b7b7;stroke-miterlimit:10;stroke-width:3px"/><line x1="824.3" y1="1384.6" x2="824.3" y2="1274" style="fill:none;stroke:#b7b7b7;stroke-miterlimit:10;stroke-width:3px"/><polyline points="0 1002.5 190.4 1002.5 193 1002.5 193 1275.5" style="fill:none;stroke:#b7b7b7;stroke-miterlimit:10;stroke-width:3px"/><line x1="425" y1="1275.5" x2="425" y2="812.6" style="fill:none;stroke:#b7b7b7;stroke-miterlimit:10;stroke-width:3px"/><line x1="927.4" y1="1167.7" x2="425" y2="1167.7" style="fill:none;stroke:#b7b7b7;stroke-miterlimit:10;stroke-width:3px"/><rect x="4806.02" y="2957" width="15.2" height="382.98" transform="translate(1155.16 7586.92) rotate(-83.69)" style="fill:#b7b7b7"/><rect x="4831.03" y="2667.82" width="15.2" height="384.5" transform="translate(1514.65 7392.56) rotate(-84.33)" style="fill:#b7b7b7"/><rect x="4494.01" y="2975.46" width="299.1" height="15.2" transform="translate(1298.01 7372.66) rotate(-85.4)" style="fill:#b7b7b7"/><rect x="4859.08" y="3019.54" width="299.69" height="15.2" transform="translate(1554.12 7751.24) rotate(-84.97)" style="fill:#b7b7b7"/><rect x="4839.45" y="2827.13" width="15.2" height="67.4" transform="translate(1561.93 7430.97) rotate(-84.84)" style="fill:#f2f2f2;stroke:#f2f2f2;stroke-miterlimit:9.998516505861225;stroke-width:2.999655035042236px"/></g><g id="MURO_ESTERNO" data-name="MURO ESTERNO"><polygon id="MURO_ESTERNO-2" data-name="MURO ESTERNO" points="1286 1721.3 396.3 1721.3 395.2 2155.8 2269.2 2155.8 2268.8 1738.8 3054.9 1738.3 3054.9 543.5 2965.7 543.3 2965.7 15.2 369.7 15.2 369.7 704.7 1286 704.5 1286.1 1191.3 1286 1721.3" style="fill:#f2f2f2;stroke:#b7b7b7;stroke-miterlimit:10;stroke-width:30px"/><polygon id="INGRESSO" points="1145 2170.9 1145 2303 1378.9 2303 1378.9 2250.4 2284 2250.4 2284 2170.9 1145 2170.9" style="fill:#f2f2f2"/></g><g id="MURI_INTERNI_e_PORTE" data-name="MURI INTERNI e PORTE"><rect x="745.7" y="30.4" width="15.2" height="393.5" style="fill:#b7b7b7"/><rect x="1286" y="29.9" width="15.2" height="375.3" style="fill:#b7b7b7"/><rect x="1573.5" y="29.9" width="15.2" height="390.5" style="fill:#b7b7b7"/><rect x="1826.1" y="29.9" width="15.2" height="360.4" style="fill:#b7b7b7"/><rect x="1989.5" y="29.9" width="15.2" height="91.9" style="fill:#b7b7b7"/><rect x="2044.6" y="121.8" width="15.2" height="118" style="fill:#b7b7b7"/><rect x="2076.6" y="239.8" width="15.2" height="150.5" style="fill:#b7b7b7"/><rect x="1937.1" y="239.8" width="15.2" height="150.5" style="fill:#b7b7b7"/><rect x="2123.2" y="716" width="15.2" height="193.2" style="fill:#b7b7b7"/><rect x="2025.7" y="1063" width="15.2" height="158.1" style="fill:#b7b7b7"/><rect x="2045.2" y="1548.5" width="15.2" height="175.3" style="fill:#b7b7b7"/><rect x="2143.3" y="1548.5" width="15.2" height="175.3" style="fill:#b7b7b7"/><rect x="2629.4" y="29.9" width="15.2" height="1368.5" style="fill:#b7b7b7"/><rect x="2242.2" y="29.9" width="15.2" height="1191.2" style="fill:#b7b7b7"/><rect x="2253.9" y="1350.1" width="15.2" height="373.7" style="fill:#b7b7b7"/><rect x="1938.2" y="1533.3" width="15.2" height="190.5" style="fill:#b7b7b7"/><rect x="2088.4" y="1739" width="15.2" height="168.9" style="fill:#b7b7b7"/><rect x="1949.6" y="1840.1" width="15.2" height="301" style="fill:#b7b7b7"/><rect x="1600.6" y="1841.4" width="15.2" height="301" style="fill:#b7b7b7"/><rect x="1447.1" y="1841.4" width="15.2" height="301.7" style="fill:#b7b7b7"/><rect x="1033.4" y="1736.5" width="15.2" height="405.1" style="fill:#b7b7b7"/><rect x="2484.4" y="543.5" width="15.2" height="616.6" style="fill:#b7b7b7"/><rect x="2526.3" y="1365.3" width="15.2" height="356" style="fill:#b7b7b7"/><rect x="998.6" y="30.4" width="15.2" height="374.8" style="fill:#b7b7b7"/><rect x="928.5" y="543.5" width="15.2" height="153.4" style="fill:#b7b7b7"/><rect x="1714.1" y="558.7" width="15.2" height="1162.7" style="fill:#b7b7b7"/><rect x="1881.6" y="558.7" width="15.2" height="662.4" style="fill:#b7b7b7"/><rect x="371.7" y="408.7" width="374" height="15.2" style="fill:#b7b7b7"/><rect x="759.4" y="270.5" width="239.2" height="15.2" style="fill:#b7b7b7"/><rect x="371.3" y="560.4" width="135.7" height="15.2" style="fill:#b7b7b7"/><rect x="998.6" y="405.2" width="574.9" height="15.2" style="fill:#b7b7b7"/><rect x="1588.7" y="266.3" width="237.4" height="15.2" style="fill:#b7b7b7"/><rect x="2257.4" y="1350.1" width="372.8" height="15.2" style="fill:#b7b7b7"/><rect x="1938.2" y="1723.8" width="315.6" height="15.2" style="fill:#b7b7b7"/><rect x="1293.6" y="1455.4" width="420.5" height="15.2" style="fill:#b7b7b7"/><rect x="1278.4" y="1191.3" width="435.7" height="15.2" style="fill:#b7b7b7"/><rect x="1293.6" y="923.3" width="420.5" height="15.2" style="fill:#b7b7b7"/><rect x="1896.6" y="700.8" width="241.7" height="15.2" style="fill:#b7b7b7"/><rect x="1896.8" y="894" width="226.4" height="15.2" style="fill:#b7b7b7"/><rect x="2138.4" y="793" width="346.1" height="15.2" style="fill:#b7b7b7"/><rect x="2644.6" y="812.6" width="395.1" height="15.2" style="fill:#b7b7b7"/><rect x="2644.6" y="1108.6" width="394.2" height="15.2" style="fill:#b7b7b7"/><rect x="2004.7" y="106.6" width="55.2" height="15.2" style="fill:#b7b7b7"/><rect x="1952.3" y="239.8" width="124.3" height="15.2" style="fill:#b7b7b7"/><rect x="1896.8" y="1047.8" width="345.4" height="15.2" style="fill:#b7b7b7"/><rect x="2088.4" y="1907.9" width="165.4" height="15.2" style="fill:#b7b7b7"/><rect x="1964.8" y="1991.9" width="289" height="15.2" style="fill:#b7b7b7"/><rect x="1964.8" y="1840.1" width="123.6" height="15.2" style="fill:#b7b7b7"/><rect x="1949.6" y="1533.3" width="304.2" height="15.2" style="fill:#b7b7b7"/><rect x="1729.3" y="1620.9" width="208.9" height="15.2" style="fill:#b7b7b7"/><rect x="1462.3" y="1841.4" width="138.3" height="15.2" style="fill:#b7b7b7"/><rect x="1462.3" y="2002.4" width="138.3" height="15.2" style="fill:#b7b7b7"/><rect x="1826.1" y="390.3" width="803.3" height="15.2" style="fill:#b7b7b7"/><rect x="943.7" y="543.5" width="1540.7" height="15.2" style="fill:#b7b7b7"/><rect x="1881.6" y="1221.1" width="375.8" height="15.2" style="fill:#b7b7b7"/><rect x="2257.4" y="1160.1" width="242.3" height="15.2" style="fill:#b7b7b7"/><rect x="2644.6" y="1383.2" width="393.5" height="15.2" style="fill:#b7b7b7"/><rect x="2644.6" y="543" width="306.3" height="15.2" style="fill:#b7b7b7"/><rect x="1300.6" y="1720.9" width="428.7" height="15.2" style="fill:#b7b7b7"/><rect x="355.1" y="456.5" width="29.3" height="67.4" style="fill:#f2f2f2;stroke:#f2f2f2;stroke-miterlimit:10;stroke-width:3px"/><rect x="745.7" y="308.6" width="15.2" height="67.4" style="fill:#f2f2f2;stroke:#f2f2f2;stroke-miterlimit:10;stroke-width:3px"/><rect x="998.6" y="308.6" width="15.2" height="67.4" style="fill:#f2f2f2;stroke:#f2f2f2;stroke-miterlimit:10;stroke-width:3px"/><rect x="1573.5" y="308.6" width="15.2" height="67.4" style="fill:#f2f2f2;stroke:#f2f2f2;stroke-miterlimit:10;stroke-width:3px"/><rect x="2629.4" y="446.2" width="15.2" height="67.4" style="fill:#f2f2f2;stroke:#f2f2f2;stroke-miterlimit:10;stroke-width:3px"/><rect x="2629.4" y="708.5" width="15.2" height="67.4" style="fill:#f2f2f2;stroke:#f2f2f2;stroke-miterlimit:10;stroke-width:3px"/><rect x="2484.4" y="591.8" width="15.2" height="67.4" style="fill:#f2f2f2;stroke:#f2f2f2;stroke-miterlimit:10;stroke-width:3px"/><rect x="2484.4" y="851.8" width="15.2" height="67.4" style="fill:#f2f2f2;stroke:#f2f2f2;stroke-miterlimit:10;stroke-width:3px"/><rect x="1033.4" y="2028.1" width="15.2" height="67.4" style="fill:#f2f2f2;stroke:#f2f2f2;stroke-miterlimit:10;stroke-width:3px"/><rect x="1881.4" y="1116.2" width="15.2" height="67.4" style="fill:#f2f2f2;stroke:#f2f2f2;stroke-miterlimit:10;stroke-width:3px"/><rect x="1714.1" y="1490.2" width="15.2" height="67.4" style="fill:#f2f2f2;stroke:#f2f2f2;stroke-miterlimit:10;stroke-width:3px"/><rect x="1714.1" y="1228.7" width="15.2" height="67.4" style="fill:#f2f2f2;stroke:#f2f2f2;stroke-miterlimit:10;stroke-width:3px"/><rect x="1714.1" y="956.1" width="15.2" height="67.4" style="fill:#f2f2f2;stroke:#f2f2f2;stroke-miterlimit:10;stroke-width:3px"/><rect x="1714.1" y="605.8" width="15.2" height="67.4" style="fill:#f2f2f2;stroke:#f2f2f2;stroke-miterlimit:10;stroke-width:3px"/><rect x="1881.4" y="947.2" width="15.2" height="67.4" style="fill:#f2f2f2;stroke:#f2f2f2;stroke-miterlimit:10;stroke-width:3px"/><rect x="1881.4" y="773.5" width="15.2" height="67.4" style="fill:#f2f2f2;stroke:#f2f2f2;stroke-miterlimit:10;stroke-width:3px"/><rect x="1881.6" y="605.8" width="15.2" height="67.4" style="fill:#f2f2f2;stroke:#f2f2f2;stroke-miterlimit:10;stroke-width:3px"/><rect x="2629.4" y="1003.7" width="15.2" height="67.4" style="fill:#f2f2f2;stroke:#f2f2f2;stroke-miterlimit:10;stroke-width:3px"/><rect x="2629.4" y="1255.7" width="15.2" height="67.4" style="fill:#f2f2f2;stroke:#f2f2f2;stroke-miterlimit:10;stroke-width:3px"/><rect x="2088.4" y="1770" width="15.2" height="43.9" style="fill:#f2f2f2;stroke:#f2f2f2;stroke-miterlimit:10;stroke-width:3px"/><rect x="1600.6" y="2073.5" width="15.2" height="43.9" style="fill:#f2f2f2;stroke:#f2f2f2;stroke-miterlimit:10;stroke-width:3px"/><rect x="2242.2" y="446.2" width="15.2" height="67.4" style="fill:#f2f2f2;stroke:#f2f2f2;stroke-miterlimit:10;stroke-width:3px"/><rect x="798.9" y="270.5" width="67.4" height="15.2" style="fill:#f2f2f2;stroke:#f2f2f2;stroke-miterlimit:10;stroke-width:3px"/><rect x="845.3" y="1706.2" width="67.4" height="30.3" style="fill:#f2f2f2;stroke:#f2f2f2;stroke-miterlimit:10;stroke-width:3px"/><rect x="1800.1" y="1620.9" width="67.4" height="15.2" style="fill:#f2f2f2;stroke:#f2f2f2;stroke-miterlimit:10;stroke-width:3px"/><rect x="1766.4" y="543.5" width="67.4" height="15.2" style="fill:#f2f2f2;stroke:#f2f2f2;stroke-miterlimit:10;stroke-width:3px"/><rect x="972.5" y="543.5" width="67.4" height="15.2" style="fill:#f2f2f2;stroke:#f2f2f2;stroke-miterlimit:10;stroke-width:3px"/><rect x="544.3" y="1706.2" width="67.4" height="30.3" style="fill:#f2f2f2;stroke:#f2f2f2;stroke-miterlimit:10;stroke-width:3px"/><rect x="1624.1" y="266.3" width="67.4" height="15.2" style="fill:#f2f2f2;stroke:#f2f2f2;stroke-miterlimit:10;stroke-width:3px"/><rect x="1858.1" y="390.3" width="55.7" height="15.2" style="fill:#f2f2f2;stroke:#f2f2f2;stroke-miterlimit:10;stroke-width:3px"/><rect x="1990.5" y="390" width="55.7" height="15.2" style="fill:#f2f2f2;stroke:#f2f2f2;stroke-miterlimit:10;stroke-width:3px"/><rect x="2176.8" y="1533.3" width="43.4" height="15.2" style="fill:#f2f2f2;stroke:#f2f2f2;stroke-miterlimit:10;stroke-width:3px"/><rect x="2082" y="1533.3" width="43.4" height="15.2" style="fill:#f2f2f2;stroke:#f2f2f2;stroke-miterlimit:10;stroke-width:3px"/><rect x="2005" y="1840.1" width="43.4" height="15.2" style="fill:#f2f2f2;stroke:#f2f2f2;stroke-miterlimit:10;stroke-width:3px"/><rect x="2005" y="1991.7" width="43.4" height="15.2" style="fill:#f2f2f2;stroke:#f2f2f2;stroke-miterlimit:10;stroke-width:3px"/><rect x="1979.5" y="1533.3" width="43.4" height="15.2" style="fill:#f2f2f2;stroke:#f2f2f2;stroke-miterlimit:10;stroke-width:3px"/><rect x="2133.6" y="390" width="67.4" height="15.2" style="fill:#f2f2f2;stroke:#f2f2f2;stroke-miterlimit:10;stroke-width:3px"/><rect x="2499.6" y="390" width="67.4" height="15.2" style="fill:#f2f2f2;stroke:#f2f2f2;stroke-miterlimit:10;stroke-width:3px"/><rect x="2560.2" y="1350.1" width="67.4" height="15.2" style="fill:#f2f2f2;stroke:#f2f2f2;stroke-miterlimit:10;stroke-width:3px"/><rect x="2441.8" y="1350.1" width="67.4" height="15.2" style="fill:#f2f2f2;stroke:#f2f2f2;stroke-miterlimit:10;stroke-width:3px"/><rect x="2133.6" y="1221.2" width="67.4" height="15.2" style="fill:#f2f2f2;stroke:#f2f2f2;stroke-miterlimit:10;stroke-width:3px"/><rect x="1496.8" y="1841.4" width="67.4" height="15.2" style="fill:#f2f2f2;stroke:#f2f2f2;stroke-miterlimit:10;stroke-width:3px"/><rect x="1205.4" y="2140.6" width="109.5" height="28.9" style="fill:#f2f2f2;stroke:#f2f2f2;stroke-miterlimit:10;stroke-width:3px"/></g><g id="SCALE"><g id="scale-2" data-name="scale"><g id="scala_B" data-name="scala B"><polygon points="1746.6 1926.9 1866 1926.9 1866 1912.3 1835.1 1912.3 1835.1 1909.9 1868.5 1909.9 1868.5 1929.5 1749.2 1929.5 1749.2 1998.4 1947 1998.4 1947 1842.6 1747.3 1842.6 1747.3 1840.1 1949.5 1840.1 1949.5 2000.9 1746.6 2000.9 1746.6 1926.9" style="fill:#b7b7b7"/><polygon points="1748.8 1963.9 1899.4 1963.9 1899.4 1878.6 1820.5 1878.6 1820.5 1876 1902 1876 1902 1966.5 1748.8 1966.5 1748.8 1963.9" style="fill:#b7b7b7"/><rect x="1819.3" y="1841.4" width="2.6" height="35.6" style="fill:#b7b7b7"/><polygon points="1819.3 1877.2 1834.2 1840.9 1836.6 1841.9 1822 1877.2 1836.5 1910.3 1834.2 1911.3 1819.3 1877.2" style="fill:#b7b7b7"/><rect x="1818.83" y="1838.49" width="2.6" height="75.3" transform="translate(-601.43 891.85) rotate(-23.75)" style="fill:#b7b7b7"/><rect x="1763.6" y="1928.6" width="2.5" height="72" style="fill:#b7b7b7"/><rect x="1755.1" y="1928.6" width="2.5" height="72" style="fill:#b7b7b7"/><rect x="1746.6" y="1840.1" width="2.5" height="86.9" style="fill:#b7b7b7"/><rect x="1772" y="1928.6" width="2.5" height="72" style="fill:#b7b7b7"/><rect x="1788.9" y="1928.6" width="2.5" height="72" style="fill:#b7b7b7"/><rect x="1780.5" y="1928.6" width="2.5" height="72" style="fill:#b7b7b7"/><rect x="1806.3" y="1928.6" width="2.5" height="72" style="fill:#b7b7b7"/><rect x="1797.8" y="1928.6" width="2.5" height="72" style="fill:#b7b7b7"/><rect x="1814.7" y="1928.6" width="2.5" height="72" style="fill:#b7b7b7"/><rect x="1831.6" y="1928.6" width="2.5" height="72" style="fill:#b7b7b7"/><rect x="1823.1" y="1928.6" width="2.5" height="72" style="fill:#b7b7b7"/><rect x="1848.9" y="1928.6" width="2.5" height="72" style="fill:#b7b7b7"/><rect x="1840.5" y="1928.6" width="2.5" height="72" style="fill:#b7b7b7"/><rect x="1857.4" y="1928.6" width="2.5" height="72" style="fill:#b7b7b7"/><rect x="1836" y="1840.9" width="2.5" height="69.6" style="fill:#b7b7b7"/><rect x="1853.4" y="1840.9" width="2.5" height="69.6" style="fill:#b7b7b7"/><rect x="1845" y="1840.9" width="2.5" height="69.6" style="fill:#b7b7b7"/><rect x="1861.8" y="1840.9" width="2.5" height="69.6" style="fill:#b7b7b7"/><rect x="1143.8" y="2169.5" width="2.5" height="133.5" style="fill:#b7b7b7"/><rect x="1153.9" y="2169.5" width="2.5" height="123.9" style="fill:#b7b7b7"/><rect x="1164.5" y="2169.5" width="2.5" height="115.5" style="fill:#b7b7b7"/><rect x="1174.7" y="2169.5" width="2.5" height="105.4" style="fill:#b7b7b7"/><rect x="1184" y="2169.5" width="2.5" height="96.3" style="fill:#b7b7b7"/><rect x="1376.4" y="2169.5" width="2.5" height="133.5" style="fill:#b7b7b7"/><rect x="1366.3" y="2169.5" width="2.5" height="123.9" style="fill:#b7b7b7"/><rect x="1355.7" y="2169.5" width="2.5" height="115.5" style="fill:#b7b7b7"/><rect x="1345.1" y="2170.3" width="2.5" height="105.4" style="fill:#b7b7b7"/><rect x="1334.5" y="2169.5" width="2.5" height="96.3" style="fill:#b7b7b7"/><rect x="1146.3" y="2300.9" width="232.7" height="2.2" style="fill:#b7b7b7"/><rect x="1154.8" y="2291.2" width="213.8" height="2.2" style="fill:#b7b7b7"/><rect x="1164.5" y="2282.9" width="191.4" height="2.2" style="fill:#b7b7b7"/><rect x="1174.7" y="2273.6" width="170.7" height="2.2" style="fill:#b7b7b7"/><rect x="1184" y="2263.6" width="150.4" height="2.2" style="fill:#b7b7b7"/><rect x="1337" y="2247.9" width="947" height="2.5" style="fill:#b7b7b7"/></g><g id="scala_A" data-name="scala A"><polygon points="14.7 218.6 14.7 13.3 342.3 15.3 342.3 175.3 339.8 175.3 339.8 17.8 17.2 15.8 17.2 215.1 85.6 215.1 85.6 93.7 270.1 93.7 270.1 145.8 267.6 145.8 267.6 96.2 88.1 96.2 88.1 218.6 14.7 218.6" style="fill:#b7b7b7"/><polygon points="48.9 215.5 48.9 60.5 303.6 60.5 303.6 155.3 301.1 155.3 301.1 63 51.4 63 51.4 215.5 48.9 215.5" style="fill:#b7b7b7"/><rect x="15.4" y="113.9" width="72" height="2.5" style="fill:#b7b7b7"/><rect x="15.4" y="105.5" width="72" height="2.5" style="fill:#b7b7b7"/><rect x="15.4" y="122.4" width="72" height="2.5" style="fill:#b7b7b7"/><rect x="268.8" y="103" width="72.2" height="2.5" style="fill:#b7b7b7"/><rect x="268.8" y="111.3" width="72.2" height="2.5" style="fill:#b7b7b7"/><rect x="268.8" y="119.6" width="72.2" height="2.5" style="fill:#b7b7b7"/><rect x="268.8" y="127.9" width="72.2" height="2.5" style="fill:#b7b7b7"/><rect x="268.8" y="144.3" width="72.2" height="2.5" style="fill:#b7b7b7"/><polygon points="341 158.9 341 161.5 302.7 156.5 302.7 153.9 341 158.9" style="fill:#b7b7b7"/><polygon points="268.7 146.7 269.7 144.4 302.5 153.8 340.5 144.4 341.5 146.7 302.4 156.5 268.7 146.7" style="fill:#b7b7b7"/><rect x="15.4" y="156.1" width="72" height="2.5" style="fill:#b7b7b7"/><rect x="15.4" y="139.2" width="72" height="2.5" style="fill:#b7b7b7"/><rect x="15.4" y="147.7" width="72" height="2.5" style="fill:#b7b7b7"/><rect x="15.4" y="130.8" width="72" height="2.5" style="fill:#b7b7b7"/><rect x="15.4" y="173" width="72" height="2.5" style="fill:#b7b7b7"/><rect x="15.4" y="164.6" width="72" height="2.5" style="fill:#b7b7b7"/><rect x="15.4" y="181.4" width="72" height="2.5" style="fill:#b7b7b7"/><rect x="15.4" y="198.3" width="72" height="2.5" style="fill:#b7b7b7"/><rect x="15.4" y="206.7" width="72" height="2.5" style="fill:#b7b7b7"/><rect x="15.4" y="189.9" width="72" height="2.5" style="fill:#b7b7b7"/><polygon points="269.8 144.3 341.2 174.4 340.2 176.7 268.8 146.6 269.8 144.3" style="fill:#b7b7b7"/></g><g id="scala_C" data-name="scala C"><g id="scala"><polygon points="4728.8 2928.8 4718.5 3046.8 4927 3073.6 4934.6 2992.2 4937.1 2992.4 4929.3 3076.3 4715.7 3049 4726 2931.1 4657.9 2925.2 4640.8 3120.7 4989 3159.7 5006.1 2968.8 5008.6 2969 4991.2 3162.4 4638.1 3123 4655.7 2922.4 4728.8 2928.8" style="fill:#b7b7b7"/><polygon points="4692.1 2927.7 4679 3076.6 4957.5 3109.6 4969.2 2980.6 4971.8 2980.8 4959.8 3112.3 4676.3 3078.9 4689.5 2927.5 4692.1 2927.7" style="fill:#b7b7b7"/><rect x="4969.09" y="2960.78" width="2.5" height="69.2" transform="translate(1553.19 7685.75) rotate(-85)" style="fill:#b7b7b7"/><rect x="4987.19" y="2964.64" width="2.5" height="35.3" transform="translate(1582.74 7691.84) rotate(-85)" style="fill:#b7b7b7"/><polygon points="4970.7 2979.5 5005.4 2997.4 5004.2 2999.7 4970.5 2982.3 4936.6 2993.7 4935.8 2991.4 4970.7 2979.5" style="fill:#b7b7b7"/><rect x="4932.95" y="2978.94" width="74.7" height="2.5" transform="matrix(0.95, -0.32, 0.32, 0.95, -694.14, 1755.65)" style="fill:#b7b7b7"/><rect x="4967.47" y="2978.55" width="2.5" height="71.1" transform="translate(1533.05 7701.22) rotate(-85)" style="fill:#b7b7b7"/><rect x="4968.07" y="2969.7" width="2.5" height="71.1" transform="translate(1542.41 7693.75) rotate(-85)" style="fill:#b7b7b7"/><rect x="4964.84" y="3004.46" width="2.5" height="71.1" transform="translate(1504.83 7722.26) rotate(-85)" style="fill:#b7b7b7"/><rect x="4966.37" y="2987.34" width="2.5" height="71.1" transform="translate(1523.29 7708.16) rotate(-85)" style="fill:#b7b7b7"/><rect x="4965.65" y="2995.76" width="2.5" height="71.1" transform="translate(1514.25 7715.13) rotate(-85)" style="fill:#b7b7b7"/></g><rect x="4687.38" y="2926.63" width="2.5" height="72" transform="translate(1328.65 7375.22) rotate(-85)" style="fill:#b7b7b7"/><rect x="4689.01" y="2909.33" width="2.5" height="72" transform="translate(1347.37 7361.06) rotate(-85)" style="fill:#b7b7b7"/><rect x="4688.26" y="2917.79" width="2.5" height="72" transform="translate(1338.26 7368.03) rotate(-85)" style="fill:#b7b7b7"/><rect x="4689.58" y="2900.94" width="2.5" height="72" transform="translate(1356.25 7353.96) rotate(-85)" style="fill:#b7b7b7"/><rect x="4684.6" y="2961.28" width="2.5" height="72" transform="translate(1291.59 7404.08) rotate(-85)" style="fill:#b7b7b7"/><rect x="4686.15" y="2943.92" width="2.5" height="72" transform="translate(1310.3 7389.78) rotate(-85)" style="fill:#b7b7b7"/><rect x="4685.56" y="2952.4" width="2.5" height="72" transform="translate(1301.31 7396.93) rotate(-85)" style="fill:#b7b7b7"/><rect x="4682.15" y="2987.25" width="2.5" height="72" transform="translate(1263.48 7425.35) rotate(-85)" style="fill:#b7b7b7"/><rect x="4683.65" y="2969.93" width="2.5" height="72" transform="translate(1282.11 7411.03) rotate(-85)" style="fill:#b7b7b7"/><rect x="4682.86" y="2978.52" width="2.5" height="72" transform="translate(1272.83 7418.08) rotate(-85)" style="fill:#b7b7b7"/><rect x="4686.9" y="2935.59" width="2.5" height="72" transform="translate(1319.28 7382.92) rotate(-85)" style="fill:#b7b7b7"/></g></g><g id="rampa2"><polyline points="103.8 1096.4 51.6 1114.7 1.2 1096.4" style="fill:none;stroke:#b7b7b7;stroke-miterlimit:10;stroke-width:3px"/><line x1="52.5" y1="1114.7" x2="52.5" y2="1003.1" style="fill:none;stroke:#b7b7b7;stroke-miterlimit:10;stroke-width:3px"/><polyline points="103.8 1003.7 103.8 1085.1 1.2 1085.1 1.2 1003.7" style="fill:none;stroke:#b7b7b7;stroke-miterlimit:10;stroke-width:3px"/><line x1="103.8" y1="1073.4" x2="1.2" y2="1073.4" style="fill:none;stroke:#b7b7b7;stroke-miterlimit:10;stroke-width:3px"/><line x1="103.8" y1="1061.7" x2="1.2" y2="1061.7" style="fill:none;stroke:#b7b7b7;stroke-miterlimit:10;stroke-width:3px"/><line x1="103.8" y1="1049.9" x2="1.2" y2="1049.9" style="fill:none;stroke:#b7b7b7;stroke-miterlimit:10;stroke-width:3px"/><line x1="103.8" y1="1038.2" x2="1.2" y2="1038.2" style="fill:none;stroke:#b7b7b7;stroke-miterlimit:10;stroke-width:3px"/><line x1="103.8" y1="1026.5" x2="1.2" y2="1026.5" style="fill:none;stroke:#b7b7b7;stroke-miterlimit:10;stroke-width:3px"/><line x1="103.8" y1="1014.8" x2="1.2" y2="1014.8" style="fill:none;stroke:#b7b7b7;stroke-miterlimit:10;stroke-width:3px"/><line x1="103.8" y1="1003.1" x2="1.2" y2="1003.1" style="fill:none;stroke:#b7b7b7;stroke-miterlimit:10;stroke-width:3px"/></g><g id="rampa1"><polyline points="0.7 1465.2 53.2 1446.9 103.8 1465.2" style="fill:none;stroke:#b7b7b7;stroke-miterlimit:10;stroke-width:3px"/><line x1="52.3" y1="1446.9" x2="52.3" y2="1558.5" style="fill:none;stroke:#b7b7b7;stroke-miterlimit:10;stroke-width:3px"/><polyline points="0.7 1557.9 0.7 1476.5 103.8 1476.5 103.8 1557.9" style="fill:none;stroke:#b7b7b7;stroke-miterlimit:10;stroke-width:3px"/><line x1="0.7" y1="1488.2" x2="103.8" y2="1488.2" style="fill:none;stroke:#b7b7b7;stroke-miterlimit:10;stroke-width:3px"/><line x1="0.7" y1="1499.9" x2="103.8" y2="1499.9" style="fill:none;stroke:#b7b7b7;stroke-miterlimit:10;stroke-width:3px"/><line x1="0.7" y1="1511.7" x2="103.8" y2="1511.7" style="fill:none;stroke:#b7b7b7;stroke-miterlimit:10;stroke-width:3px"/><line x1="0.7" y1="1523.4" x2="103.8" y2="1523.4" style="fill:none;stroke:#b7b7b7;stroke-miterlimit:10;stroke-width:3px"/><line x1="0.7" y1="1535.1" x2="103.8" y2="1535.1" style="fill:none;stroke:#b7b7b7;stroke-miterlimit:10;stroke-width:3px"/><line x1="0.7" y1="1546.8" x2="103.8" y2="1546.8" style="fill:none;stroke:#b7b7b7;stroke-miterlimit:10;stroke-width:3px"/><line x1="0.7" y1="1558.5" x2="103.8" y2="1558.5" style="fill:none;stroke:#b7b7b7;stroke-miterlimit:10;stroke-width:3px"/></g></g><g id="STANZE"><g class="clickable" id="A6-0-STAIR-A" data-name="customclass A6-0-STAIR-A"><rect x="5.8" y="6.3" width="343.7" height="227.3" style="fill:none"/></g><g class="clickable" id="A6-0-LIFT-A" data-name="customclass A6-0-LIFT-A"><rect x="388.5" y="580" width="118.5" height="105.7" style="fill:#f2f2f2"/></g><g class="clickable" id="A6-0-STAIR-C" data-name="customclass A6-0-STAIR-C"><rect id="STAIR-C" x="4622.9" y="2833.6" width="407.8" height="343" style="fill:none"/></g><g class="clickable" id="A6-0-LIFT-B" data-name="customclass A6-0-LIFT-B"><rect x="1465.3" y="1859.2" width="131.4" height="140.1" style="fill:#f2f2f2"/></g><g class="clickable" id="A6-0-STAIR-B" data-name="customclass A6-0-STAIR-B"><rect x="1743.6" y="1837.2" width="200.6" height="165.2" style="fill:none"/></g><g class="clickable" id="A6-0-01" data-name="customclass A6-0-01"><rect x="5.8" y="239.8" width="343.7" height="445.8" style="fill:none"/></g><g class="clickable" id="A6-0-02" data-name="customclass A6-0-02"><rect x="391.3" y="429.3" width="522.2" height="125.5" style="fill:none"/></g><g class="clickable" id="A6-0-03" data-name="customclass A6-0-03"><rect x="391.3" y="33.9" width="348.5" height="369.4" style="fill:none"/></g><g class="clickable" id="A6-0-04" data-name="customclass A6-0-04"><rect x="766.6" y="36.1" width="226.7" height="229.6" style="fill:none"/></g><g class="clickable" id="A6-0-05" data-name="customclass A6-0-05"><rect x="1017.4" y="33.9" width="262.7" height="366.7" style="fill:none"/></g><g class="clickable" id="A6-0-06" data-name="customclass A6-0-06"><rect x="948.5" y="564.3" width="342.8" height="122.2" style="fill:none"/></g><g class="clickable" id="A6-0-07" data-name="customclass A6-0-07"><rect x="936.1" y="426.7" width="1301.1" height="111.4" style="fill:none"/></g><g class="clickable" id="A6-0-08" data-name="customclass A6-0-08"><rect x="1307.4" y="33.9" width="260.5" height="366.7" style="fill:none"/></g><g class="clickable" id="A6-0-09" data-name="customclass A6-0-09"><rect x="1595.6" y="33.9" width="224.4" height="227.3" style="fill:none"/></g><g class="clickable" id="A6-0-10" data-name="customclass A6-0-10"><rect x="1845.1" y="33.9" width="88.5" height="353.7" style="fill:none"/></g><g class="clickable" id="A6-0-11" data-name="customclass A6-0-11"><rect x="1955.8" y="257.8" width="117.3" height="129.9" style="fill:none"/></g><g class="clickable" id="A6-0-12" data-name="customclass A6-0-12"><rect x="2095.3" y="33.9" width="144.1" height="353.7" style="fill:none"/></g><g class="clickable" id="A6-0-13" data-name="customclass A6-0-13"><rect x="2261.2" y="33.9" width="365.2" height="353.7" style="fill:none"/></g><g class="clickable" id="A6-0-14" data-name="customclass A6-0-14"><rect x="2647.5" y="32.2" width="300.3" height="506.6" style="fill:none"/></g><g class="clickable" id="A6-0-15-A" data-name="customclass A6-0-15-A"><rect x="2261.5" y="561.6" width="219.8" height="227.4" style="fill:none"/></g><g class="clickable" id="A6-0-15-B" data-name="customclass A6-0-15-B"><rect x="2261.5" y="811.9" width="219.8" height="345.1" style="fill:none"/></g><g class="clickable" id="A6-0-16" data-name="customclass A6-0-16"><rect x="2647.5" y="561.6" width="388.8" height="246.7" style="fill:none"/></g><g class="clickable" id="A6-0-17" data-name="customclass A6-0-17"><rect x="2647.5" y="832.8" width="388.8" height="271.5" style="fill:none"/></g><g class="clickable" id="A6-0-18" data-name="customclass A6-0-18"><rect x="2647.7" y="1128" width="388.8" height="252.9" style="fill:none"/></g><g class="clickable" id="A6-0-19" data-name="customclass A6-0-19"><rect x="2546.4" y="1400.8" width="489.9" height="320.6" style="fill:none"/></g><g class="clickable" id="A6-0-20" data-name="customclass A6-0-20"><rect x="2272.9" y="1368.5" width="250" height="352.8" style="fill:none"/></g><g class="clickable" id="A6-0-21" data-name="customclass A6-0-21"><rect x="1305" y="566.1" width="402.6" height="353.1" style="fill:none"/></g><g class="clickable" id="A6-0-22" data-name="customclass A6-0-22"><rect x="1900.1" y="561.6" width="337.1" height="135.3" style="fill:none"/></g><g class="clickable" id="A6-0-23" data-name="customclass A6-0-23"><rect x="1899.9" y="719.9" width="218.7" height="170" style="fill:none"/></g><g class="clickable" id="A6-0-24" data-name="customclass A6-0-24"><rect x="1899.9" y="913.3" width="339.7" height="131.6" style="fill:none"/></g><g class="clickable" id="A6-0-25" data-name="customclass A6-0-25"><rect x="1305" y="942.7" width="402.6" height="240.8" style="fill:none"/></g><g class="clickable" id="A6-0-26" data-name="customclass A6-0-26"><rect x="1899.9" y="1067.2" width="121" height="150.2" style="fill:none"/></g><g class="clickable" id="A6-0-27" data-name="customclass A6-0-27"><rect x="2044" y="1067.2" width="195.6" height="150.2" style="fill:none"/></g><g class="clickable" id="A6-0-28" data-name="customclass A6-0-28"><rect x="1747.9" y="1256.9" width="494.3" height="255.3" style="fill:none"/></g><g class="clickable" id="A6-0-29" data-name="customclass A6-0-29"><rect x="1305" y="1214.2" width="402" height="234.5" style="fill:none"/></g><g class="clickable" id="A6-0-30" data-name="customclass A6-0-30"><rect x="1305" y="1478.7" width="402" height="236.8" style="fill:none"/></g><g class="clickable" id="A6-0-31-A" data-name="customclass A6-0-31-A"><rect x="2162.1" y="1552.5" width="87.6" height="168.8" style="fill:none"/></g><g class="clickable" id="A6-0-31-B" data-name="customclass A6-0-31-B"><rect x="2065.5" y="1552.5" width="73.9" height="168.8" style="fill:none"/></g><g class="clickable" id="A6-0-31-C" data-name="customclass A6-0-31-C"><rect x="1957.2" y="1552.5" width="84.5" height="168.8" style="fill:none"/></g><g class="clickable" id="A6-0-32" data-name="customclass A6-0-32"><rect x="2107.3" y="1743.5" width="142.4" height="159.4" style="fill:none"/></g><g class="clickable" id="A6-0-33-A" data-name="customclass A6-0-33-A"><rect x="1969.9" y="1860.2" width="113.5" height="127.9" style="fill:none"/></g><g class="clickable" id="A6-0-33-B" data-name="customclass A6-0-33-B"><rect x="1968.9" y="2011.6" width="280.9" height="125.8" style="fill:none"/></g><g class="clickable" id="A6-0-34" data-name="customclass A6-0-34"><rect x="1057.6" y="1746.2" width="1024.4" height="84.6" style="fill:none"/></g><g class="clickable" id="A6-0-35" data-name="customclass A6-0-35"><rect x="1057.6" y="1959.5" width="379.6" height="172.7" style="fill:none"/></g><g class="clickable" id="A6-0-36" data-name="customclass A6-0-36"><rect x="415.3" y="1744.7" width="608.3" height="387.6" style="fill:none"/></g><g class="clickable" id="A6-0-37" data-name="customclass A6-0-37"><rect x="1466.9" y="2022.7" width="129.8" height="115.4" style="fill:none"/></g><g class="clickable" id="A6-0-38" data-name="customclass A6-0-38(?)"><rect x="197.8" y="1390.7" width="1071" height="304.3" style="fill:none"/></g><g class="clickable" id="A6-0-1-Z" data-name="customclass A6-0-1-Z"><rect x="1383.8" y="2174.1" width="895.6" height="69.1" style="fill:none"/></g><g class="clickable" id="A6-0-00-Y" data-name="customclass A6-0-00-Y"><rect x="5.8" y="725.4" width="414.2" height="270" style="fill:none"/></g><g class="clickable" id="A6-0-00-X" data-name="customclass A6-0-00-X"><rect x="431.2" y="725.4" width="833.5" height="80.7" style="fill:none"/></g><g class="clickable" id="A6-0-00-W" data-name="customclass A6-0-00-W"><rect x="197.8" y="1173.8" width="724.4" height="202.4" style="fill:none"/></g></g></svg>