<svg id="Livello_1" data-name="Livello 1" xmlns="http://www.w3.org/2000/svg" viewBox="0 0 5227.87 3929.43"><g id="MURO_ESTERNO" data-name="MURO ESTERNO"><g id="MURO_ESTERNO-2" data-name="MURO ESTERNO"><g id="MURO_ESTERNO-3" data-name="MURO ESTERNO"><polygon id="MURO_ESTERNO-4" data-name="MURO ESTERNO" points="3053.37 1739.73 3053.37 544.93 2964.17 544.73 2964.17 16.63 13.17 16.63 13.17 683.63 1285.07 683.63 1285.27 1692.53 376.77 1692.83 376.67 2157.23 2267.67 2157.23 2267.27 1740.23 3053.37 1739.73" style="fill:#f2f2f2;stroke:#b7b7b7;stroke-miterlimit:10;stroke-width:30px"/></g></g></g><g id="SCALE"><g id="SCALE-2" data-name="SCALE"><g id="SCALE-3" data-name="SCALE"><g id="scale-4" data-name="scale"><g id="scala_B" data-name="scala B"><polygon points="1251.37 1918.83 1370.77 1918.83 1370.77 1904.23 1339.87 1904.23 1339.87 1901.83 1373.27 1901.83 1373.27 1921.43 1253.97 1921.43 1253.97 1990.33 1451.77 1990.33 1451.77 1834.53 1252.07 1834.53 1252.07 1832.03 1454.27 1832.03 1454.27 1992.83 1251.37 1992.83 1251.37 1918.83" style="fill:#b7b7b7"/><polygon points="1253.57 1955.83 1404.17 1955.83 1404.17 1870.53 1325.27 1870.53 1325.27 1867.93 1406.77 1867.93 1406.77 1958.43 1253.57 1958.43 1253.57 1955.83" style="fill:#b7b7b7"/><rect x="1324.07" y="1833.33" width="2.6" height="35.6" style="fill:#b7b7b7"/><polygon points="1324.07 1869.13 1338.97 1832.83 1341.37 1833.83 1326.77 1869.13 1341.27 1902.23 1338.97 1903.23 1324.07 1869.13" style="fill:#b7b7b7"/><rect x="1323.71" y="1830.38" width="2.6" height="75.3" transform="translate(-640.09 691.77) rotate(-23.75)" style="fill:#b7b7b7"/><rect x="1268.37" y="1920.53" width="2.5" height="72" style="fill:#b7b7b7"/><rect x="1259.87" y="1920.53" width="2.5" height="72" style="fill:#b7b7b7"/><rect x="1251.37" y="1832.03" width="2.5" height="86.9" style="fill:#b7b7b7"/><rect x="1276.77" y="1920.53" width="2.5" height="72" style="fill:#b7b7b7"/><rect x="1293.67" y="1920.53" width="2.5" height="72" style="fill:#b7b7b7"/><rect x="1285.27" y="1920.53" width="2.5" height="72" style="fill:#b7b7b7"/><rect x="1311.07" y="1920.53" width="2.5" height="72" style="fill:#b7b7b7"/><rect x="1302.57" y="1920.53" width="2.5" height="72" style="fill:#b7b7b7"/><rect x="1319.47" y="1920.53" width="2.5" height="72" style="fill:#b7b7b7"/><rect x="1336.37" y="1920.53" width="2.5" height="72" style="fill:#b7b7b7"/><rect x="1327.87" y="1920.53" width="2.5" height="72" style="fill:#b7b7b7"/><rect x="1353.67" y="1920.53" width="2.5" height="72" style="fill:#b7b7b7"/><rect x="1345.27" y="1920.53" width="2.5" height="72" style="fill:#b7b7b7"/><rect x="1362.17" y="1920.53" width="2.5" height="72" style="fill:#b7b7b7"/><rect x="1340.77" y="1832.83" width="2.5" height="69.6" style="fill:#b7b7b7"/><rect x="1358.17" y="1832.83" width="2.5" height="69.6" style="fill:#b7b7b7"/><rect x="1349.77" y="1832.83" width="2.5" height="69.6" style="fill:#b7b7b7"/><rect x="1366.57" y="1832.83" width="2.5" height="69.6" style="fill:#b7b7b7"/></g><g id="scala_A" data-name="scala A"><polygon points="27.37 235.03 27.37 29.73 354.97 31.73 354.97 191.73 352.47 191.73 352.47 34.23 29.87 32.23 29.87 231.53 98.27 231.53 98.27 110.13 282.77 110.13 282.77 162.23 280.27 162.23 280.27 112.63 100.77 112.63 100.77 235.03 27.37 235.03" style="fill:#b7b7b7"/><polygon points="61.57 231.93 61.57 76.93 316.27 76.93 316.27 171.73 313.77 171.73 313.77 79.43 64.07 79.43 64.07 231.93 61.57 231.93" style="fill:#b7b7b7"/><rect x="28.07" y="130.33" width="72" height="2.5" style="fill:#b7b7b7"/><rect x="28.07" y="121.93" width="72" height="2.5" style="fill:#b7b7b7"/><rect x="28.07" y="138.83" width="72" height="2.5" style="fill:#b7b7b7"/><rect x="281.47" y="119.43" width="72.2" height="2.5" style="fill:#b7b7b7"/><rect x="281.47" y="127.73" width="72.2" height="2.5" style="fill:#b7b7b7"/><rect x="281.47" y="136.03" width="72.2" height="2.5" style="fill:#b7b7b7"/><rect x="281.47" y="144.33" width="72.2" height="2.5" style="fill:#b7b7b7"/><rect x="281.47" y="160.73" width="72.2" height="2.5" style="fill:#b7b7b7"/><polygon points="353.67 175.33 353.67 177.93 315.37 172.93 315.37 170.33 353.67 175.33" style="fill:#b7b7b7"/><polygon points="281.37 163.13 282.37 160.83 315.17 170.23 353.17 160.83 354.17 163.13 315.07 172.93 281.37 163.13" style="fill:#b7b7b7"/><rect x="28.07" y="172.53" width="72" height="2.5" style="fill:#b7b7b7"/><rect x="28.07" y="155.63" width="72" height="2.5" style="fill:#b7b7b7"/><rect x="28.07" y="164.13" width="72" height="2.5" style="fill:#b7b7b7"/><rect x="28.07" y="147.23" width="72" height="2.5" style="fill:#b7b7b7"/><rect x="28.07" y="189.43" width="72" height="2.5" style="fill:#b7b7b7"/><rect x="28.07" y="181.03" width="72" height="2.5" style="fill:#b7b7b7"/><rect x="28.07" y="197.83" width="72" height="2.5" style="fill:#b7b7b7"/><rect x="28.07" y="214.73" width="72" height="2.5" style="fill:#b7b7b7"/><rect x="28.07" y="223.13" width="72" height="2.5" style="fill:#b7b7b7"/><rect x="28.07" y="206.33" width="72" height="2.5" style="fill:#b7b7b7"/><polygon points="282.47 160.73 353.87 190.83 352.87 193.13 281.47 163.03 282.47 160.73" style="fill:#b7b7b7"/></g></g></g></g></g><g id="MURI_E_PORTE" data-name="MURI E PORTE"><g id="MURI"><rect x="357.07" y="30.83" width="15.2" height="637.5" style="fill:#b7b7b7"/><rect x="1696.37" y="683.93" width="15.2" height="846.9" style="fill:#b7b7b7"/><rect x="1703.97" y="1692.33" width="15.2" height="450" style="fill:#b7b7b7"/><rect x="1908.87" y="1516.03" width="15.2" height="626.4" style="fill:#b7b7b7"/><rect x="2053.67" y="1570.03" width="15.2" height="126.1" style="fill:#b7b7b7"/><rect x="1964.17" y="683.93" width="15.2" height="278.3" style="fill:#b7b7b7"/><rect x="1825.07" y="683.93" width="15.2" height="161" style="fill:#b7b7b7"/><rect x="1453.57" y="1832.03" width="15.2" height="310.4" style="fill:#b7b7b7"/><rect x="1040.77" y="1707.53" width="15.2" height="434.8" style="fill:#b7b7b7"/><rect x="679.87" y="1707.43" width="15.2" height="452.9" style="fill:#b7b7b7"/><rect x="1552.67" y="683.93" width="15.2" height="1012.3" style="fill:#b7b7b7"/><rect x="2252.27" y="31.53" width="15.2" height="1693.7" style="fill:#b7b7b7"/><rect x="1300.07" y="668.73" width="952.2" height="15.2" style="fill:#b7b7b7"/><rect x="695.07" y="1841.63" width="345.7" height="15.2" style="fill:#b7b7b7"/><rect x="1468.77" y="1832.03" width="440.1" height="15.2" style="fill:#b7b7b7"/><rect x="1916.47" y="1570.03" width="137.2" height="15.2" style="fill:#b7b7b7"/><rect x="1711.57" y="1516.03" width="197.3" height="15.2" style="fill:#b7b7b7"/><rect x="1299.97" y="1443.33" width="252.7" height="15.2" style="fill:#b7b7b7"/><rect x="1299.97" y="1194.83" width="252.7" height="15.2" style="fill:#b7b7b7"/><rect x="1299.97" y="962.23" width="252.7" height="15.2" style="fill:#b7b7b7"/><rect x="1711.57" y="844.93" width="252.7" height="15.2" style="fill:#b7b7b7"/><rect x="372.27" y="500.33" width="141.6" height="15.2" style="fill:#b7b7b7"/><rect x="1468.77" y="1976.83" width="141.6" height="15.2" style="fill:#b7b7b7"/><rect x="1964.17" y="962.23" width="288" height="15.2" style="fill:#b7b7b7"/><rect x="1924.07" y="1696.13" width="328.2" height="15.2" style="fill:#b7b7b7"/><rect x="1300.07" y="1692.33" width="403.9" height="15.2" style="fill:#b7b7b7"/></g><rect x="2252.27" y="146.83" width="15.2" height="67.4" style="fill:#f2f2f2;stroke:#f2f2f2;stroke-miterlimit:10;stroke-width:3px"/><rect x="2252.27" y="742.43" width="15.2" height="67.4" style="fill:#f2f2f2;stroke:#f2f2f2;stroke-miterlimit:10;stroke-width:3px"/><rect x="2252.27" y="1008.53" width="15.2" height="67.4" style="fill:#f2f2f2;stroke:#f2f2f2;stroke-miterlimit:10;stroke-width:3px"/><rect x="2252.27" y="1254.43" width="15.2" height="67.4" style="fill:#f2f2f2;stroke:#f2f2f2;stroke-miterlimit:10;stroke-width:3px"/><rect x="1964.17" y="881.93" width="15.2" height="67.4" style="fill:#f2f2f2;stroke:#f2f2f2;stroke-miterlimit:10;stroke-width:3px"/><rect x="1552.67" y="873.93" width="15.2" height="67.4" style="fill:#f2f2f2;stroke:#f2f2f2;stroke-miterlimit:10;stroke-width:3px"/><rect x="357.07" y="431.43" width="15.2" height="67.4" style="fill:#f2f2f2;stroke:#f2f2f2;stroke-miterlimit:10;stroke-width:3px"/><rect x="1552.67" y="998.43" width="15.2" height="67.4" style="fill:#f2f2f2;stroke:#f2f2f2;stroke-miterlimit:10;stroke-width:3px"/><rect x="1552.67" y="1236.23" width="15.2" height="67.4" style="fill:#f2f2f2;stroke:#f2f2f2;stroke-miterlimit:10;stroke-width:3px"/><rect x="1552.67" y="1482.33" width="15.2" height="67.4" style="fill:#f2f2f2;stroke:#f2f2f2;stroke-miterlimit:10;stroke-width:3px"/><rect x="1703.97" y="1732.73" width="15.2" height="67.4" style="fill:#f2f2f2;stroke:#f2f2f2;stroke-miterlimit:10;stroke-width:3px"/><rect x="1040.77" y="1735.73" width="15.2" height="67.4" style="fill:#f2f2f2;stroke:#f2f2f2;stroke-miterlimit:10;stroke-width:3px"/><rect x="679.87" y="1735.73" width="15.2" height="67.4" style="fill:#f2f2f2;stroke:#f2f2f2;stroke-miterlimit:10;stroke-width:3px"/><rect x="1908.87" y="1735.73" width="15.2" height="67.4" style="fill:#f2f2f2;stroke:#f2f2f2;stroke-miterlimit:10;stroke-width:3px"/><rect x="1864.57" y="844.93" width="67.4" height="15.2" style="fill:#f2f2f2;stroke:#f2f2f2;stroke-miterlimit:10;stroke-width:3px"/><rect x="1958.87" y="1570.03" width="67.4" height="15.2" style="fill:#f2f2f2;stroke:#f2f2f2;stroke-miterlimit:10;stroke-width:3px"/><rect x="1816.47" y="1832.03" width="67.4" height="15.2" style="fill:#f2f2f2;stroke:#f2f2f2;stroke-miterlimit:10;stroke-width:3px"/><rect x="834.27" y="1841.63" width="67.4" height="15.2" style="fill:#f2f2f2;stroke:#f2f2f2;stroke-miterlimit:10;stroke-width:3px"/><rect x="1611.77" y="1832.03" width="67.4" height="15.2" style="fill:#f2f2f2;stroke:#f2f2f2;stroke-miterlimit:10;stroke-width:3px"/><rect x="1735.97" y="844.93" width="67.4" height="15.2" style="fill:#f2f2f2;stroke:#f2f2f2;stroke-miterlimit:10;stroke-width:3px"/></g><g id="STANZE"><g class="clickable" id="A6-1-01" data-name="customclass A6-1-01"><rect x="33.87" y="345.13" width="316.9" height="316.9" style="fill:none"/></g><g class="clickable" id="A6-1-LIFT-A" data-name="customclass A6-1-LIFT-A"><rect x="377.37" y="525.63" width="136.5" height="136.5" style="fill:none"/></g><g class="clickable" id="A6-1-STAIR-A" data-name="customclass A6-1-STAIR-A"><rect x="30.47" y="32.83" width="326.6" height="305.2" style="fill:none"/></g><g class="clickable" id="A6-1-02" data-name="customclass A6-1-02"><rect x="526.87" y="38.93" width="1717.1" height="620.2" style="fill:none"/></g><g class="clickable" id="A6-1-03" data-name="customclass A6-1-03"><rect x="1306.67" y="690.83" width="237.6" height="265.1" style="fill:none"/></g><g class="clickable" id="A6-1-04" data-name="customclass A6-1-04"><rect x="1577.57" y="690.83" width="111" height="250.5" style="fill:none"/></g><g class="clickable" id="A6-1-05" data-name="customclass A6-1-05"><rect x="1719.17" y="690.83" width="98.6" height="148.7" style="fill:none"/></g><g class="clickable" id="A6-1-06" data-name="customclass A6-1-06"><rect x="1848.97" y="690.83" width="107.8" height="148.7" style="fill:none"/></g><g class="clickable" id="A6-1-07" data-name="customclass A6-1-07"><rect x="1987.37" y="690.83" width="256.6" height="265.1" style="fill:none"/></g><g class="clickable" id="A6-1-08" data-name="customclass A6-1-08"><rect x="1306.67" y="983.83" width="237.6" height="206.3" style="fill:none"/></g><g class="clickable" id="A6-1-09" data-name="customclass A6-1-09"><rect x="1577.57" y="955.83" width="111" height="731.1" style="fill:none"/></g><g class="clickable" id="A6-1-10" data-name="customclass A6-1-10"><rect x="1722.77" y="989.43" width="521.2" height="514.1" style="fill:none"/></g><g class="clickable" id="A6-1-10-C" data-name="customclass A6-1-10-C"><rect x="1929.47" y="1590.03" width="119.7" height="102.3" style="fill:none"/></g><g class="clickable" id="A6-1-11" data-name="customclass A6-1-11"><rect x="1306.67" y="1218.03" width="237.6" height="218.6" style="fill:none"/></g><g class="clickable" id="A6-1-12" data-name="customclass A6-1-12"><rect x="1307.57" y="1465.73" width="237.6" height="221.2" style="fill:none"/></g><g class="clickable" id="A6-1-13" data-name="customclass A6-1-13"><rect x="400.17" y="1716.43" width="270.6" height="420.4" style="fill:none"/></g><g class="clickable" id="A6-1-14" data-name="customclass A6-1-14"><rect x="702.47" y="1866.33" width="330.6" height="270.6" style="fill:none"/></g><g class="clickable" id="A6-1-15" data-name="customclass A6-1-15"><rect x="702.47" y="1713.93" width="330.6" height="118.1" style="fill:none"/></g><g class="clickable" id="A6-1-16" data-name="customclass A6-1-16"><rect x="1063.17" y="1713.23" width="386.8" height="106.2" style="fill:none"/></g><g class="clickable" id="A6-1-17" data-name="customclass A6-1-17"><rect x="1461.17" y="1713.23" width="235.2" height="106.2" style="fill:none"/></g><g class="clickable" id="A6-1-20" data-name="customclass A6-1-20"><rect x="1929.47" y="1718.33" width="317.6" height="418.6" style="fill:none"/></g><g class="clickable" id="A6-1-18" data-name="customclass A6-1-18"><rect x="1474.07" y="2001.63" width="224.6" height="135.3" style="fill:none"/></g><g class="clickable" id="A6-1-19" data-name="customclass A6-1-19"><rect x="1724.67" y="1851.73" width="179.1" height="285.1" style="fill:none"/></g><g class="clickable" id="A6-1-LIFT-B" data-name="customclass A6-1-LIFT-B"><rect x="1474.07" y="1851.73" width="136.5" height="121.1" style="fill:none"/></g><g class="clickable" id="A6-1-STAIR-B" data-name="customclass A6-1-STAIR-B"><rect x="1063.17" y="1832.03" width="386.8" height="304.9" style="fill:none"/></g><g class="clickable" id="A6-1-21" data-name="customclass A6-1-21"><rect x="2280.17" y="38.93" width="657.4" height="1672.4" style="fill:none"/></g></g></svg>