<?xml version="1.0" encoding="utf-8"?>
<!-- Generator: Adobe Illustrator 25.3.0, SVG Export Plug-In . SVG Version: 6.00 Build 0)  -->
<svg version="1.1" id="isometric-map" xmlns="http://www.w3.org/2000/svg" xmlns:xlink="http://www.w3.org/1999/xlink" x="0px"
	 y="0px" viewBox="0 0 7365.9 5334.4" style="enable-background:new 0 0 7365.9 5334.4;" xml:space="preserve">
<style type="text/css">
	.st0{fill:#141414;}
	.st1{fill:none;stroke:#141414;stroke-width:5;}
	.st2{fill:#414042;}
	.st3{fill:#B0B2B2;}
	.st4{fill:#878A8C;}
	.st5{fill:#FFFFFF;}
	.st6{font-family:"MyriadPro-Bold", "Myriad Pro", arial, sans-serif;}
	.st7{font-size:150px;}
	.st8{letter-spacing:-3;}
	.st9{fill:#4D4D4F;}
	.st10{fill:none;stroke:#FFFFFF;stroke-width:15;stroke-miterlimit:10;}
	.st11{fill:#9C9F9F;}
	.st12{fill:none;stroke:#FFFFFF;stroke-width:14.9997;stroke-miterlimit:9.9997;}
	.st13{fill:none;stroke:#FFFFFF;stroke-width:5;}
	.st14{fill:none;stroke:#FFFFFF;stroke-width:5;stroke-miterlimit:10;stroke-dasharray:50;}
	.st15{fill:none;stroke:#000000;stroke-width:5;stroke-miterlimit:10;stroke-dasharray:50;}
</style>
<polygon id="Arrow" class="st0" points="4431.3,4847.7 4433,4913.2 4415.2,4919.6 4408.7,4824.8 4522.6,4814.5 4525.8,4833.2 
	4449.6,4836.8 4567.3,4906.3 4549.9,4916.1 "/>
<g id="" class="clickable" data-building-code="D1" data-building-floor="-1">
	<path class="st1" d="M2788.4,1990.6c-50.8-0.1-92,40.9-92.1,91.7v0.1c0,50.7,41.3,91.7,92.2,91.7s92.1-41,92.1-91.7
		C2880.6,2031.7,2839.3,1990.6,2788.4,1990.6"/>
	<path d="M2775.6,2092.3h9.9c14.9,0,21-6.1,21-17.3c0-9.6-5.6-16.3-20.6-16.3h-10.4L2775.6,2092.3z M2765.6,2134.8v-84.3h21.2
		c17,0,29.8,8.2,29.8,24.3s-11.5,26-31.1,26h-9.9v34.1L2765.6,2134.8z M2841.1,2056.2l-52.6-19.1l-52.7,19.1l-2.4-6.4l55-19.9
		l55,19.9L2841.1,2056.2z"/>
	<path class="st1" d="M2788.4,1990.6c-50.8-0.1-92,40.9-92.1,91.7v0.1c0,50.7,41.3,91.7,92.2,91.7s92.1-41,92.1-91.7
		C2880.6,2031.7,2839.3,1990.6,2788.4,1990.6"/>
	<path d="M2775.6,2092.3h9.9c14.9,0,21-6.1,21-17.3c0-9.6-5.6-16.3-20.6-16.3h-10.4L2775.6,2092.3z M2765.6,2134.8v-84.3h21.2
		c17,0,29.8,8.2,29.8,24.3s-11.5,26-31.1,26h-9.9v34.1L2765.6,2134.8z M2841.1,2056.2l-52.6-19.1l-52.7,19.1l-2.4-6.4l55-19.9
		l55,19.9L2841.1,2056.2z"/>
</g>
<g xmlns="http://www.w3.org/2000/svg" class="clickable" data-building-code="P1" data-building-floor="-1">
	<path class="st1" d="M6582.4,3290.2c-50.7-0.1-92,40.9-92.1,91.7l0,0v0.1c0,50.7,41.3,91.7,92.2,91.7s92.1-41,92.1-91.7
		S6633.3,3290.2,6582.4,3290.2"/>
	<path d="M6569.6,3392h9.9c14.9,0,21-6.1,21-17.3c0-9.6-5.6-16.3-20.6-16.3h-10.4L6569.6,3392z M6559.6,3434.4v-84.3h21.2
		c17,0,29.8,8.2,29.8,24.3s-11.5,26-31.1,26h-9.9v34.1L6559.6,3434.4z M6635.1,3355.9l-52.6-19.1l-52.7,19.1l-2.4-6.4l55-19.9
		l55,19.9L6635.1,3355.9z"/>
	<path class="st1" d="M6582.4,3290.2c-50.7-0.1-92,40.9-92.1,91.7l0,0v0.1c0,50.7,41.3,91.7,92.2,91.7s92.1-41,92.1-91.7
		S6633.3,3290.2,6582.4,3290.2"/>
	<path d="M6569.6,3392h9.9c14.9,0,21-6.1,21-17.3c0-9.6-5.6-16.3-20.6-16.3h-10.4L6569.6,3392z M6559.6,3434.4v-84.3h21.2
		c17,0,29.8,8.2,29.8,24.3s-11.5,26-31.1,26h-9.9v34.1L6559.6,3434.4z M6635.1,3355.9l-52.6-19.1l-52.7,19.1l-2.4-6.4l55-19.9
		l55,19.9L6635.1,3355.9z"/>
</g>
<polygon id="Arrow-2" class="st0" points="4431.3,4847.7 4433,4913.2 4415.2,4919.6 4408.7,4824.8 4522.6,4814.5 4525.8,4833.2 
	4449.6,4836.8 4567.3,4906.3 4549.9,4916.1 "/>
<g id="boh_icon">
	<path class="st1" d="M4666.8,3408.3c-50.1,0-90.7,40.6-90.7,90.7s40.6,90.7,90.7,90.7s90.7-40.6,90.7-90.7
		C4757.5,3448.9,4716.9,3408.3,4666.8,3408.3L4666.8,3408.3L4666.8,3408.3"/>
	<path class="st0" d="M4667.2,3539.8v7.4h-10.7v10.8h-5.8v-10.8h-19.1v10.8h-5.8v-10.8h-10.7v-7.4h10.7v-4.6h-4.7v-10.6h39.9v10.6
		h-4.7v4.6H4667.2z M4631.7,3535.2v4.6h19.1v-4.6H4631.7z M4718.3,3474.1c0,16.8-12.3,31.2-28.9,33.8v50.1h-10.6v-50.1
		c-18.7-2.9-31.4-20.4-28.5-39.1s20.4-31.4,39.1-28.5C4706,3442.9,4718.3,3457.3,4718.3,3474.1z"/>
	<path class="st1" d="M4666.8,3408.3c-50.1,0-90.7,40.6-90.7,90.7s40.6,90.7,90.7,90.7s90.7-40.6,90.7-90.7
		C4757.5,3448.9,4716.9,3408.3,4666.8,3408.3L4666.8,3408.3L4666.8,3408.3"/>
	<path class="st0" d="M4667.2,3539.8v7.4h-10.7v10.8h-5.8v-10.8h-19.1v10.8h-5.8v-10.8h-10.7v-7.4h10.7v-4.6h-4.7v-10.6h39.9v10.6
		h-4.7v4.6H4667.2z M4631.7,3535.2v4.6h19.1v-4.6H4631.7z M4718.3,3474.1c0,16.8-12.3,31.2-28.9,33.8v50.1h-10.6v-50.1
		c-18.7-2.9-31.4-20.4-28.5-39.1s20.4-31.4,39.1-28.5C4706,3442.9,4718.3,3457.3,4718.3,3474.1z"/>
</g>
<g id="building_B5" class="clickable" data-building-code="B5" data-building-floor="0">
	<polygon id="W-L-7" class="st2" points="3285.4,820.2 3631,621 3628.8,899.4 3282.5,1102.5 	"/>
	<polygon id="W-T-5" class="st3" points="3187.1,369.7 2843,573 3285.4,820.2 3631,621 	"/>
	<polygon id="W-M-8" class="st4" points="2843,573 3285.4,820.2 3282.5,1102.5 2843,855.1 	"/>
	<text transform="matrix(1 0 0 1 3190.1399 669.86)" class="st5 st6 st7 st8">B5</text>
	<polygon id="W-T-5-2" class="st9" points="3187.1,369.7 2843,573 3285.4,820.2 3631,621 	"/>
	<polygon id="W-M-8-2" class="st0" points="2843,573 3285.4,820.2 3282.5,1102.5 2843,855.1 	"/>
	<text transform="matrix(1 0 0 1 3163.2788 668.86)" class="st5 st6 st7 st8">B5</text>
	<circle class="st10" cx="3255.6" cy="621" r="138.1"/>
</g>
<g>
	<polygon id="W-T-6" class="st3" points="3800.5,728.7 3453.8,929.1 4648.9,1621.3 4998.4,1423.9 	"/>
	<polygon id="W-L-8" class="st11" points="4648.9,1621.3 4998.4,1423.9 4995,1703.1 4646.8,1903.5 	"/>
	<polygon id="W-M-9" class="st4" points="3453.8,929.1 4650.1,1621.5 4646,1903.5 3456.4,1211.4 	"/>
	<text transform="matrix(1 0 0 1 4558.4399 1463.0597)" class="st5 st6 st7 st8">B2</text>
	<text transform="matrix(1 0 0 1 4147.3701 1223.86)" class="st5 st6 st7 st8">B3</text>
	<text transform="matrix(1 0 0 1 3736.3 977.9601)" class="st5 st6 st7 st8">B4</text>
	<polygon id="W-T-6-2" class="st3" points="3800.5,728.7 3453.8,929.1 4648.9,1621.3 4998.4,1423.9 	"/>
	<polygon id="W-L-8-2" class="st11" points="4648.9,1621.3 4998.4,1423.9 4995,1703.1 4646.8,1903.5 	"/>
	<polygon id="W-M-9-2" class="st4" points="3453.8,929.1 4650.1,1621.5 4646,1903.5 3456.4,1211.4 	"/>
	<text transform="matrix(1 0 0 1 4543.8833 1459.9801)" class="st5 st6 st7 st8">B2</text>
	<circle class="st10" cx="4636.2" cy="1411.1" r="138.1"/>
	<text transform="matrix(1 0 0 1 4147.4199 1236.4113)" class="st5 st6 st7 st8">B3</text>
	<circle class="st10" cx="4239.8" cy="1187.6" r="138.1"/>
	<text transform="matrix(1 0 0 1 3758.6279 1007.1601)" class="st5 st6 st7 st8">B4</text>
	<circle class="st10" cx="3851" cy="958.3" r="138.1"/>
</g>
<g>
	<polygon id="W-T-2" class="st3" points="2517.4,0 2170.6,203 2454.9,364.8 2801.8,164.7 	"/>
	<polygon id="W-L-3" class="st11" points="2453.5,363 2801.8,164.7 2798.3,443.9 2449.9,644.3 	"/>
	<polygon id="W-M-5" class="st4" points="2171,203.3 2453.5,363 2449.9,644.3 2171,485.4 	"/>
	<text transform="matrix(1 0 0 1 2361.1399 213.5602)" class="st5 st6 st7 st8">B6</text>
	<polygon id="W-T-2-2" class="st3" points="2517.4,0 2170.6,203 2454.9,364.8 2801.8,164.7 	"/>
	<polygon id="W-L-3-2" class="st11" points="2453.5,363 2801.8,164.7 2798.3,443.9 2449.9,644.3 	"/>
	<polygon id="W-M-5-2" class="st4" points="2171,203.3 2453.5,363 2449.9,644.3 2171,485.4 	"/>
	<text transform="matrix(1 0 0 1 2414.2397 252.1601)" class="st5 st6 st7 st8">B6</text>
	<circle class="st10" cx="2506.6" cy="203.3" r="138.1"/>
</g>
<g id="building_E" class="clickable" data-building-code="E" data-building-floor="0">
	<path id="W-T" class="st3" d="M582.2,1183.6L3.5,1518.7l231.4,133.9c0,0,583.5-332.2,578.8-335L582.2,1183.6z"/>
	<polygon id="W-L" class="st11" points="231.5,1650.3 813.8,1315.9 810.3,1554.9 231.5,1890 	"/>
	<polygon id="W-M" class="st4" points="0,1756.1 231.5,1890 231.5,1651.1 0,1517 0,1649 	"/>
	<text transform="matrix(1 0 0 1 368.5701 1543.4899)" class="st5 st6 st7 st8">E</text>
	<path id="W-T-2-3" class="st9" d="M582.2,1183.6L3.5,1518.7l231.4,133.9c0,0,583.5-332.2,578.8-335L582.2,1183.6z"/>
	<polygon id="W-L-2" class="st2" points="231.5,1650.3 813.8,1315.9 810.3,1554.9 231.5,1890 	"/>
	<polygon id="W-M-2" class="st0" points="0,1756.1 231.5,1890 231.5,1651.1 0,1517 0,1649 	"/>
	<text transform="matrix(1 0 0 1 428.7607 1515.3898)" class="st5 st6 st7 st8">E</text>
	<circle class="st10" cx="468.8" cy="1466.5" r="138.1"/>
</g>
<g id="D5-0">
	<polygon id="W-T-13" class="st3" points="916.3,2011.7 1471,1686.9 1185.8,1521 1012.1,1621.5 1069.9,1655.1 664.7,1889.3 
		896.2,2023.3 	"/>
	<polygon id="W-M-19" class="st4" points="892.8,2553 896.2,2020.9 664.7,1889.1 661.2,2419.2 	"/>
	<polygon id="W-L-14" class="st11" points="1471,2219 892,2554.4 895.6,2021.8 1471,1686.9 	"/>
	<text transform="matrix(1 0 0 1 803.8401 1922.86)" class="st5 st6 st7 st8">D5</text>
	<polygon id="W-M-18" class="st4" points="1011.6,1620.8 1008.1,1867.1 1145.5,1744 1069.3,1654.3 	"/>
	<polygon id="W-T-13-2" class="st3" points="916.3,2011.7 1471,1686.9 1185.8,1521 1012.1,1621.5 1069.9,1655.1 664.7,1889.3 
		896.2,2023.3 	"/>
	<polygon id="W-M-19-2" class="st4" points="892.8,2553 896.2,2020.9 664.7,1889.1 661.2,2419.2 	"/>
	<polygon id="W-L-14-2" class="st11" points="1471,2219 892,2554.4 895.6,2021.8 1471,1686.9 	"/>
	<text transform="matrix(1 0 0 1 1001.7402 1869.8722)" class="st5 st6 st7 st8">D5</text>
	<circle class="st10" cx="1094.1" cy="1821" r="138.1"/>
</g>
<g id="D4-0">
	<text transform="matrix(1 0 0 1 1151.9399 2122.26)" class="st5 st6 st7 st8">D4</text>
	<polygon id="W-M-20" class="st4" points="1359.7,1827.1 1356.3,2073.4 1493.7,1950.3 1417.4,1860.6 	"/>
	<g id="gruppo-2">
		<polygon id="W-T-14" class="st3" points="1264.4,2218 1819.2,1893.2 1534,1727.3 1360.3,1827.8 1418.1,1861.3 1012.9,2095.6 
			1244.4,2229.6 		"/>
		<polygon id="W-M-21" class="st4" points="1240.9,2759.3 1244.3,2227.2 1012.9,2095.4 1009.4,2625.5 		"/>
		<polygon id="W-L-15" class="st11" points="1819.2,2425.3 1240.2,2760.7 1243.7,2228.1 1819.2,1893.2 		"/>
		<text transform="matrix(1 0 0 1 1332.6399 2090.46)" class="st5 st6 st7 st8">D4</text>
		<circle class="st10" cx="1425" cy="2041.6" r="138.1"/>
	</g>
</g>
<g id="D3-0">
	<text transform="matrix(1 0 0 1 1500.24 2328.5601)" class="st5 st6 st7 st8">D3</text>
	<polygon id="W-M-22" class="st4" points="1708,2033.4 1704.5,2279.7 1841.9,2156.5 1765.7,2066.9 	"/>
	<g id="gruppo-3">
		<polygon id="W-T-15" class="st3" points="1612.7,2424.3 2167.4,2099.4 1882.2,1933.6 1708.5,2034.1 1766.4,2067.6 1361.2,2301.9 
			1592.6,2435.8 		"/>
		<polygon id="W-M-23" class="st4" points="1589.2,2965.6 1592.6,2433.5 1361.2,2301.7 1357.6,2831.8 		"/>
		<polygon id="W-L-16" class="st11" points="2167.4,2631.5 1588.4,2967 1592,2434.3 2167.4,2099.4 		"/>
		<text transform="matrix(1 0 0 1 1638.34 2321.4602)" class="st5 st6 st7 st8">D3</text>
		<circle class="st10" cx="1730.7" cy="2272.6" r="138.1"/>
	</g>
</g>
<g id="D2-0">
	<text transform="matrix(1 0 0 1 1848.79 2534.8601)" class="st5 st6 st7 st8">D2</text>
	<polygon id="W-M-24" class="st4" points="2056.2,2239.7 2052.8,2486 2190.2,2362.8 2113.9,2273.1 	"/>
	<g id="gruppo-4">
		<polygon id="W-T-16" class="st3" points="1960.9,2630.6 2515.7,2305.7 2230.5,2139.9 2056.8,2240.4 2114.6,2273.9 1709.4,2508.2 
			1940.9,2642.1 		"/>
		<polygon id="W-M-25" class="st4" points="1937.5,3171.9 1940.8,2639.8 1709.4,2507.9 1705.9,3038.1 		"/>
		<polygon id="W-L-17" class="st11" points="2515.7,2837.8 1936.7,3173.2 1940.2,2640.6 2515.7,2305.7 		"/>
		<text transform="matrix(1 0 0 1 2029.1268 2534.8875)" class="st5 st6 st7 st8">D2</text>
		
			<ellipse transform="matrix(0.7071 -0.7071 0.7071 0.7071 -1136.5018 2228.2368)" class="st12" cx="2121.5" cy="2486" rx="138.1" ry="138.1"/>
	</g>
</g>
<g>
	<polygon id="W-T-7" class="st3" points="4970.3,1615.3 6053.2,2238.8 6396.9,2034.1 5317.4,1414.2 	"/>
	<polygon id="W-M-10" class="st4" points="6053.2,2238.8 4970.3,1615.3 4972.4,2085.6 6049.5,2704.5 	"/>
	<polygon id="W-L-9" class="st11" points="6396.9,2034.5 6053.2,2238.8 6049.5,2704.5 6396.9,2503.7 	"/>
	<text transform="matrix(1 0 0 1 5957.1401 2083.3601)" class="st5 st6 st7 st8">B1</text>
	<polygon id="W-T-7-2" class="st3" points="4970.3,1615.3 6053.2,2238.8 6396.9,2034.1 5317.4,1414.2 	"/>
	<polygon id="W-M-10-2" class="st4" points="6053.2,2238.8 4970.3,1615.3 4972.4,2085.6 6049.5,2704.5 	"/>
	<polygon id="W-L-9-2" class="st11" points="6396.9,2034.5 6053.2,2238.8 6049.5,2704.5 6396.9,2503.7 	"/>
	<text transform="matrix(1 0 0 1 5591.2402 1918.7325)" class="st5 st6 st7 st8">B1</text>
	<circle class="st10" cx="5683.6" cy="1869.9" r="138.1"/>
</g>
<g id="building_D1" class="clickable" data-building-code="D1" data-building-floor="0">
	<polygon id="W-T-17" class="st9" points="2319.7,2843.4 2877.9,2519.5 2588.8,2352.7 2413.7,2450.9 2473.2,2486.6 2068.6,2721 
		2299.7,2855.1 	"/>
	<polygon id="W-L-18" class="st2" points="2296.1,3384.8 2299.5,2853.9 2876.4,2519 2874,3049.4 	"/>
	<polygon id="W-M-27" class="st0" points="2065,3250.8 2296.1,3384.8 2299.5,2853.9 2068.3,2720.1 	"/>
	<g id="gruppo-5">
		<text transform="matrix(1 0 0 1 2207.1399 2750.6899)" class="st5 st6 st7 st8">D1</text>
		<g id="gruppo-6">
			<polygon id="black_1_" class="st0" points="2413.7,2450.9 2411.3,2608.5 2601.9,2497.2 2471.6,2484.4 			"/>
			<polygon id="light" class="st9" points="2319.7,2843.4 2877.9,2519.5 2588.8,2352.7 2413.7,2450.9 2473.2,2486.6 2068.6,2721 
				2299.7,2855.1 			"/>
			<polygon id="medium" class="st2" points="2296.1,3384.8 2299.5,2853.9 2876.4,2519 2874,3049.4 			"/>
			<polygon id="black" class="st0" points="2065,3250.8 2296.1,3384.8 2299.5,2853.9 2068.3,2720.1 			"/>
			<text transform="matrix(1 0 0 1 2371.4397 2734.0762)" class="st5 st6 st7 st8">D1</text>
			<circle class="st10" cx="2463.8" cy="2685.2" r="138.1"/>
		</g>
	</g>
</g>
<g id="building_A1" class="clickable" data-building-code="A1">
	<polygon id="W-M-28" class="st0" points="2409.5,2926.1 2407.2,3181 2673.4,2972.4 2467.5,2959.6 	"/>
	<polygon id="W-T-18" class="st9" points="2040.1,4247.8 2275,4113.2 1655.7,3749.9 1420.1,3882.9 	"/>
	<polygon id="W-M-29" class="st0" points="1654.9,4093.5 2411.5,4532.2 2411.5,4003.1 1654.9,3570.6 	"/>
	<polygon id="W-M-30" class="st0" points="2042.1,4581.1 2048.1,4248 1420.1,3882.9 1421.4,4210.5 	"/>
	<polygon id="W-L-19" class="st2" points="2275.7,4452.9 2042.1,4581.1 2042.1,4246.3 2275,4113.2 	"/>
	<polygon id="W-L-20" class="st2" points="3161.4,3896.2 3164.8,3363.2 3741,3030.6 3741,3562.5 	"/>
	<polygon id="W-L-21" class="st2" points="2409.8,4531.4 2409.8,4002.3 3339.5,3463 3336.9,3996.7 	"/>
	<polygon id="W-T-19" class="st9" points="2579.7,3027.7 1654.9,3570.6 2409.3,4002 3335.7,3469.3 3167.3,3363.4 3741,3030.6 
		2991.3,2589.9 2409.3,2926.7 	"/>
	<g id="gruppo-7">
		<text transform="matrix(1 0 0 1 2303.29 3762.5601)" class="st5 st6 st7 st8">A1</text>
		<circle class="st10" cx="2395.6" cy="3713.7" r="138.1"/>
		<g id="gruppo-8">
			<polygon id="W-M-28-2" class="st0" points="2409.5,2926.1 2407.2,3181 2673.4,2972.4 2467.5,2959.6 			"/>
			<polygon id="W-M-29-2" class="st0" points="1654.9,4093.5 2411.5,4532.2 2411.5,4003.1 1654.9,3570.6 			"/>
			<polygon id="W-M-30-2" class="st0" points="2042.1,4581.1 2048.1,4248 1420.1,3882.9 1421.4,4210.5 			"/>
			<polygon id="W-L-19-2" class="st2" points="2275.7,4452.9 2042.1,4581.1 2042.1,4246.3 2275,4113.2 			"/>
			<polygon id="W-L-20-2" class="st2" points="3161.4,3896.2 3164.8,3363.2 3741,3030.6 3741,3562.5 			"/>
			<polygon id="W-L-21-2" class="st2" points="2409.8,4531.4 2409.8,4002.3 3339.5,3463 3336.9,3996.7 			"/>
			<polygon id="W-T-19-2" class="st9" points="2579.7,3027.7 1654.9,3570.6 2409.3,4002 3335.7,3469.3 3167.3,3363.4 3741,3030.6 
				2991.3,2589.9 2409.3,2926.7 			"/>
			<text transform="matrix(1 0 0 1 2581.0898 3398.96)" class="st5 st6 st7 st8">A1</text>
			<circle class="st10" cx="2673.4" cy="3350.1" r="138.1"/>
			<path class="st1" d="M3513.5,3799.6c-50.9,0-92.1,41.3-92.1,92.2s41.3,92.1,92.2,92.1s92.1-41.3,92.1-92.2
				S3564.5,3799.6,3513.5,3799.6L3513.5,3799.6"/>
			<path id="Shape" d="M3520.5,3943.1h-14V3870h14V3943.1z M3513.5,3859.4c-5.2-0.1-9.4-4.5-9.3-9.7c0.1-5.2,4.5-9.4,9.7-9.3
				c5.2,0.1,9.3,4.3,9.3,9.5C3523,3855.2,3518.8,3859.4,3513.5,3859.4z"/>
			<path class="st1" d="M3513.5,3799.6c-50.9,0-92.1,41.3-92.1,92.2s41.3,92.1,92.2,92.1s92.1-41.3,92.1-92.2
				S3564.5,3799.6,3513.5,3799.6L3513.5,3799.6"/>
			<path id="Shape-2" d="M3520.5,3943.1h-14V3870h14V3943.1z M3513.5,3859.4c-5.2-0.1-9.4-4.5-9.3-9.7c0.1-5.2,4.5-9.4,9.7-9.3
				c5.2,0.1,9.3,4.3,9.3,9.5C3523,3855.2,3518.8,3859.4,3513.5,3859.4z"/>
			<path class="st1" d="M3819.9,3892.2c0,50.5-41,91.5-91.5,91.5s-91.5-41-91.5-91.5s41-91.5,91.5-91.5l0,0l0,0
				C3778.9,3800.8,3819.9,3841.7,3819.9,3892.2"/>
			<path d="M3735.7,3917.1c3.8,0.1,7.1,2.5,8.5,6l2.3,10.3h-36.7l2.4-10.3c1.4-3.5,4.8-5.9,8.6-6H3735.7z M3719.2,3905.2
				c0-4.9,4-8.9,8.9-8.9s8.9,4,8.9,8.9s-4,8.9-8.9,8.9l0,0l0,0C3723.2,3914.2,3719.2,3910.2,3719.2,3905.2
				C3719.2,3905.3,3719.2,3905.3,3719.2,3905.2z M3785.4,3922.9l2.3,10.3h-36.6l2.4-10.3c1.4-3.5,4.8-5.9,8.6-6h14.9
				C3780.5,3917.1,3784.4,3919.6,3785.4,3922.9z M3769.4,3914.1c-4.9,0-8.9-4-8.9-8.9s4-8.9,8.9-8.9s8.9,4,8.9,8.9l0,0l0,0
				C3778.3,3910.2,3774.3,3914.1,3769.4,3914.1L3769.4,3914.1z M3694.3,3917c3.8,0.1,7.1,2.5,8.5,6l2.3,10.3h-36.7l2.4-10.3
				c1.4-3.5,4.8-5.9,8.6-6H3694.3z M3686.8,3914.1c-4.9,0-8.9-4-8.9-8.9s4-8.9,8.9-8.9s8.9,4,8.9,8.9l0,0l0,0
				C3695.7,3910.2,3691.7,3914.1,3686.8,3914.1L3686.8,3914.1z M3728.1,3857.3c-4.9,0-8.9-4-8.9-8.9s4-8.9,8.9-8.9s8.9,4,8.9,8.9
				l0,0l0,0C3737,3853.4,3733,3857.3,3728.1,3857.3C3728.1,3857.4,3728.1,3857.4,3728.1,3857.3L3728.1,3857.3z M3752.5,3876.5
				L3752.5,3876.5v10.7h-49v-10.7h6.2l2.4-10.3c1.4-3.5,4.8-5.9,8.6-6h14.9c3.8,0.1,7.1,2.5,8.5,6l2.3,10.3H3752.5z"/>
			<path class="st1" d="M3819.9,3892.2c0,50.5-41,91.5-91.5,91.5s-91.5-41-91.5-91.5s41-91.5,91.5-91.5l0,0l0,0
				C3778.9,3800.8,3819.9,3841.7,3819.9,3892.2"/>
			<path d="M3735.7,3917.1c3.8,0.1,7.1,2.5,8.5,6l2.3,10.3h-36.7l2.4-10.3c1.4-3.5,4.8-5.9,8.6-6H3735.7z M3719.2,3905.2
				c0-4.9,4-8.9,8.9-8.9s8.9,4,8.9,8.9s-4,8.9-8.9,8.9l0,0l0,0C3723.2,3914.2,3719.2,3910.2,3719.2,3905.2
				C3719.2,3905.3,3719.2,3905.3,3719.2,3905.2z M3785.4,3922.9l2.3,10.3h-36.6l2.4-10.3c1.4-3.5,4.8-5.9,8.6-6h14.9
				C3780.5,3917.1,3784.4,3919.6,3785.4,3922.9z M3769.4,3914.1c-4.9,0-8.9-4-8.9-8.9s4-8.9,8.9-8.9s8.9,4,8.9,8.9l0,0l0,0
				C3778.3,3910.2,3774.3,3914.1,3769.4,3914.1L3769.4,3914.1z M3694.3,3917c3.8,0.1,7.1,2.5,8.5,6l2.3,10.3h-36.7l2.4-10.3
				c1.4-3.5,4.8-5.9,8.6-6H3694.3z M3686.8,3914.1c-4.9,0-8.9-4-8.9-8.9s4-8.9,8.9-8.9s8.9,4,8.9,8.9l0,0l0,0
				C3695.7,3910.2,3691.7,3914.1,3686.8,3914.1L3686.8,3914.1z M3728.1,3857.3c-4.9,0-8.9-4-8.9-8.9s4-8.9,8.9-8.9s8.9,4,8.9,8.9
				l0,0l0,0C3737,3853.4,3733,3857.3,3728.1,3857.3C3728.1,3857.4,3728.1,3857.4,3728.1,3857.3L3728.1,3857.3z M3752.5,3876.5
				L3752.5,3876.5v10.7h-49v-10.7h6.2l2.4-10.3c1.4-3.5,4.8-5.9,8.6-6h14.9c3.8,0.1,7.1,2.5,8.5,6l2.3,10.3H3752.5z"/>
		</g>
	</g>
	<polygon id="W-T-18-2" class="st9" points="2040.1,4247.8 2275,4113.2 1655.7,3749.9 1420.1,3882.9 	"/>
</g>
<path class="st13" d="M4946.1,2718.8c-50.5,0-91.5,41-91.5,91.5s41,91.5,91.5,91.5s91.5-41,91.5-91.5l0,0l0,0
	C5037.6,2759.8,4996.6,2718.8,4946.1,2718.8"/>
<path id="Path" class="st5" d="M4965.8,2853.6c8.5-7.3,13.4-18,13.4-29.2c0-8.5-2.8-16.8-8.1-23.6c-2.4-3.1-5.2-5.8-8.4-8l13.4-23.1
	l-6.7-4l3.1-5.2l-5.8-3.3l-3,5.2l-6.7-4l-32.2,55.9l6.7,3.9l-3.2,5.7l5.8,3.3l3.2-5.6l6.7,3.9l14.1-24.4c12.9,9.6,15.6,27.8,6,40.7
	c-5.6,7.6-14.5,11.9-23.9,11.7h-38.5v9.6h89.1v-9.6L4965.8,2853.6L4965.8,2853.6z"/>
<polygon class="st5" points="4911.2,2829.8 4914.5,2824 4940.7,2839.2 4937.3,2844.9 "/>
<g id="building_A2" class="clickable" data-building-code="A2" data-building-floor="0">
	<text transform="matrix(1 0 0 1 4235.2402 2716.0601)" class="st5 st6 st7 st8">A2</text>
	<polygon id="W-T-8" class="st9" points="4321.7,2905.3 3800.8,2593.9 5014.7,1901.5 5541.7,2190.3 	"/>
	<polygon id="W-L-10" class="st2" points="5541.7,2190.3 4325.6,2893.8 4320.6,3426.5 5534.9,2724 	"/>
	<polygon id="W-M-11" class="st0" points="3801.6,3111.9 3801.6,2595 4327.6,2897.2 4320.6,3426.5 	"/>
	<text transform="matrix(1 0 0 1 4578.8901 2452.26)" class="st5 st6 st7 st8">A2</text>
	<circle class="st10" cx="4671.2" cy="2403.4" r="138.1"/>
</g>
<g id="building_A3" class="clickable" data-building-code="A3" data-building-floor="0">
	<polygon id="W-M-2-2" class="st0" points="3491.1,4869.3 3491.1,5204.4 3085.3,4970.2 3085.3,4635.3 	"/>
	<polygon id="W-M-3" class="st0" points="3791.2,4666.7 3791.2,5001.8 3385.4,4767.6 3385.4,4432.7 	"/>
	<path class="st2" d="M3929.8,4570.6l-135.9,102.2v20.8L3489.6,4869v334.9l366.4-211.3v-24.2l41.3-24.7
		c11.8-7.1,19.7-14.7,23.9-22.5s6.1-19.2,5.9-34L3929.8,4570.6z"/>
	<polygon id="W-M-4" class="st0" points="3180.5,5334.4 3180.5,4999.9 2762.6,4754.8 2763.9,5082.5 	"/>
	<polygon id="W-L-2-2" class="st2" points="3444.1,5178.7 3179,5334.4 3179,4999.7 3444.1,4844.1 	"/>
	<path class="st9" d="M3893.7,4520.2l-323-190.4l-185.3,103.9l29,17l-246,137.8l-58.5-34.3l-347.3,200.6l418.1,244.9l267.3-154.5
		l42.2,24.4l364.6-209.6l-18.2-10.5l67.8-37.3c16.9-10,25.4-23.9,25.4-41.6S3917.8,4536.1,3893.7,4520.2z"/>
	<path id="admBnd" class="st13" d="M3739.9,4919.9c0,50.1-40.6,90.7-90.7,90.7s-90.7-40.6-90.7-90.7s40.6-90.7,90.7-90.7
		C3699.3,4829.1,3739.9,4869.8,3739.9,4919.9L3739.9,4919.9L3739.9,4919.9"/>
	<path id="Combined-Shape" class="st5" d="M3677.1,4903.5c-4.9-0.1-8.8-4-8.7-8.9s4-8.8,8.9-8.7c4.8,0.1,8.7,4,8.7,8.8
		C3685.9,4899.6,3682,4903.6,3677.1,4903.5z M3700.8,4886.8l6.3,3.9l-17,27.5v63.9h-10.6v-26.7h-4.5v26.7h-10.6v-66.6l-15.2-24.6
		l-16.8,27.1l-0.8,4.7l11.3,32.6h-9.8v26.7h-10.5v-26.7h-4.7v26.7h-10.5v-26.7h-9.8l11.3-32.6l-0.6-4.7l-16.9-27.2l6.2-3.9
		l12.5,20.2c0.9-0.3,1.9-0.5,2.9-0.5h14.8c1,0,1.9,0.2,2.8,0.5l12.5-20.1l6.2,3.8l6.2-3.8l12.4,20l2-0.3h14.8c1.2,0,2.4,0.3,3.5,0.8
		L3700.8,4886.8z M3638.9,4881c-7.3,0-13.2-5.9-13.2-13.2c0-7.3,5.9-13.2,13.2-13.2s13.2,5.9,13.2,13.2S3646.2,4881,3638.9,4881
		L3638.9,4881z M3620.6,4903.6c-4.9-0.1-8.8-4-8.7-8.9s4-8.8,8.9-8.7c4.8,0.1,8.7,4,8.7,8.8
		C3629.4,4899.6,3625.5,4903.6,3620.6,4903.6z"/>
	<text transform="matrix(1 0 0 1 3495.9399 4684.1602)" class="st5 st6 st7 st8">A3</text>
	<polygon id="W-M-2-3" class="st0" points="3491.1,4869.3 3491.1,5204.4 3085.3,4970.2 3085.3,4635.3 	"/>
	<polygon id="W-M-3-2" class="st0" points="3791.2,4666.7 3791.2,5001.8 3385.4,4767.6 3385.4,4432.7 	"/>
	<path class="st2" d="M3929.8,4570.6l-135.9,102.2v20.8L3489.6,4869v334.9l366.4-211.3v-24.2l41.3-24.7
		c11.8-7.1,19.7-14.7,23.9-22.5s6.1-19.2,5.9-34L3929.8,4570.6z"/>
	<polygon id="W-M-4-2" class="st0" points="3180.5,5334.4 3180.5,4999.9 2762.6,4754.8 2763.9,5082.5 	"/>
	<polygon id="W-L-2-3" class="st2" points="3444.1,5178.7 3179,5334.4 3179,4999.7 3444.1,4844.1 	"/>
	<path class="st9" d="M3893.7,4520.2l-323-190.4l-185.3,103.9l29,17l-246,137.8l-58.5-34.3l-347.3,200.6l418.1,244.9l267.3-154.5
		l42.2,24.4l364.6-209.6l-18.2-10.5l67.8-37.3c16.9-10,25.4-23.9,25.4-41.6S3917.8,4536.1,3893.7,4520.2z"/>
	<path id="admBnd-2" class="st13" d="M3739.9,4919.9c0,50.1-40.6,90.7-90.7,90.7s-90.7-40.6-90.7-90.7s40.6-90.7,90.7-90.7
		C3699.3,4829.1,3739.9,4869.8,3739.9,4919.9L3739.9,4919.9L3739.9,4919.9"/>
	<path id="Combined-Shape-2" class="st5" d="M3677.1,4903.5c-4.9-0.1-8.8-4-8.7-8.9s4-8.8,8.9-8.7c4.8,0.1,8.7,4,8.7,8.8
		C3685.9,4899.6,3682,4903.6,3677.1,4903.5z M3700.8,4886.8l6.3,3.9l-17,27.5v63.9h-10.6v-26.7h-4.5v26.7h-10.6v-66.6l-15.2-24.6
		l-16.8,27.1l-0.8,4.7l11.3,32.6h-9.8v26.7h-10.5v-26.7h-4.7v26.7h-10.5v-26.7h-9.8l11.3-32.6l-0.6-4.7l-16.9-27.2l6.2-3.9
		l12.5,20.2c0.9-0.3,1.9-0.5,2.9-0.5h14.8c1,0,1.9,0.2,2.8,0.5l12.5-20.1l6.2,3.8l6.2-3.8l12.4,20l2-0.3h14.8c1.2,0,2.4,0.3,3.5,0.8
		L3700.8,4886.8z M3638.9,4881c-7.3,0-13.2-5.9-13.2-13.2c0-7.3,5.9-13.2,13.2-13.2s13.2,5.9,13.2,13.2S3646.2,4881,3638.9,4881
		L3638.9,4881z M3620.6,4903.6c-4.9-0.1-8.8-4-8.7-8.9s4-8.8,8.9-8.7c4.8,0.1,8.7,4,8.7,8.8
		C3629.4,4899.6,3625.5,4903.6,3620.6,4903.6z"/>
	<text transform="matrix(1 0 0 1 3293.0398 4733.0205)" class="st5 st6 st7 st8">A3</text>
	<circle class="st10" cx="3385.4" cy="4684.2" r="138.1"/>
</g>
<g id="building_A5" class="clickable" data-building-code="A5" data-building-floor="0">
	<text transform="matrix(1 0 0 1 5295.75 3638.5601)" class="st5 st6 st7 st8">A5</text>
	<circle class="st10" cx="5388.1" cy="3589.7" r="138.1"/>
	<g id="gruppo-10">
		<polygon id="W-M-12" class="st0" points="5453.3,4131.8 5453.3,3797.5 4990.6,3531 4990.6,3864.3 		"/>
		<polygon id="W-M-13" class="st0" points="6032,3597.6 6032,3264.3 5800.6,3124.5 5800.6,3458.9 		"/>
		<polygon id="W-M-14" class="st0" points="5742.3,3764.5 5742.3,3430.5 5511,3291.3 5512.6,3625.3 		"/>
		<polygon id="W-T-9" class="st9" points="5453.6,3798.8 6385.5,3260.8 5973.7,3023.6 5801.1,3124.5 6032.3,3263.9 5976.1,3297.3 
			5742.8,3158.1 5510.7,3291.8 5742.2,3431.6 5627.2,3497.9 5339.5,3331.7 4990.6,3531.3 		"/>
		<polygon id="W-L-11" class="st2" points="6379.5,3597.1 5454,4131.8 5454,3797.6 6385.5,3260.5 		"/>
		<text transform="matrix(1 0 0 1 5295.75 3624.46)" class="st5 st6 st7 st8">A5</text>
		<circle class="st10" cx="5388.1" cy="3575.6" r="138.1"/>
	</g>
</g>
<g id="building_A4" class="clickable" data-building-code="A4" data-building-floor="0">
	<g id="gruppo-11">
		<polygon id="W-M-15" class="st0" points="4990.3,4402.1 4990.3,4067.6 4527.4,3800 4528.8,4127.6 		"/>
		<polygon id="W-L-12" class="st2" points="5338,4201.3 4990.3,4402.1 4990.3,4067.4 5338,3866.7 		"/>
		<polygon id="W-M-16" class="st0" points="4704.3,4443.9 4704.3,4112.3 4393.3,3932.3 4393.3,4264.1 		"/>
		<polygon id="W-L-13" class="st2" points="4889.9,4339.9 4889.9,4007.2 4703.5,4111.2 4703.5,4443.9 4845.5,4365.5 		"/>
		<polygon id="W-T-10" class="st9" points="4702.6,4112 4889.2,4008.9 4577.9,3828.2 4392.6,3932.1 		"/>
		<polygon id="W-T-11" class="st9" points="4990.6,4067.4 5338,3866.7 4874.8,3599.3 4527.4,3799.9 		"/>
		<path id="W-M-17" class="st2" d="M4527,4160.1v-4.5l151.9-60.3V4428l-75.8,44.2c-19.7,8.7-35,14.3-45.9,16.7
			c-10.9,2.4-21,3.1-30.1,2c-13.5-0.2-24.2-1.1-32-2.6s-17.9-4.7-30.3-9.6l-171.5-106.3v-328L4527,4160.1z"/>
		<path id="W-T-12" class="st9" d="M4622.6,4131.3l54.8-35l-234-138l-151.6,88.2l134.8,80.9c29.9,20.1,63.4,30.6,100.4,31.3
			C4564,4159.4,4595.9,4150.3,4622.6,4131.3z"/>
		<path class="st13" d="M4774.8,4311.3c0.1,50.1-40.5,90.7-90.6,90.8s-90.7-40.5-90.8-90.6s40.5-90.7,90.6-90.8h0.1
			C4734.2,4220.7,4774.7,4261.2,4774.8,4311.3"/>
		<path class="st5" d="M4724.4,4300h-2.9v-17h2.9c4.7,0,8.6,3.9,8.6,8.6l0,0l0,0c0,4.6-3.8,8.4-8.4,8.4H4724.4z M4717.2,4300
			c0,11.4-5.8,22.1-15.4,28.3h31.1v10.6h-98.4v-10.6h31.1c-9.6-6.2-15.4-16.9-15.4-28.3v-17h66.9L4717.2,4300L4717.2,4300z"/>
		<path class="st13" d="M4942,4097.8c-49.9-0.1-90.5,40.3-90.6,90.2l0,0v0.1c0,49.8,40.6,90.3,90.7,90.3
			c49.9,0.1,90.5-40.3,90.6-90.2l0,0v-0.1C5032.7,4138.2,4992.1,4097.8,4942,4097.8"/>
		<path class="st5" d="M4938,4128.9h4.4v39.2c-0.2,4.4-3.7,7.8-8.1,8h-1.1v70.4h-10.6v-70.4h-0.9c-4.6,0-8.3-3.7-8.3-8.3
			c0-0.1,0-0.2,0-0.3v-38.6h4.5v26.5h3.7v-26.5h4.4v26.5h3.9v-26.5h4.2v26.5h3.9V4128.9L4938,4128.9z M4970.7,4139.4v107.1h-10.8
			v-46.7h-8.5v-60.4C4951.5,4125.4,4970.7,4125.4,4970.7,4139.4z"/>
		<text transform="matrix(1 0 0 1 4844.4399 3892.2598)" class="st5 st6 st7 st8">A4</text>
		<circle class="st10" cx="4936.8" cy="3843.4" r="138.1"/>
		<polygon id="W-M-15-2" class="st0" points="4990.3,4402.1 4990.3,4067.6 4527.4,3800 4528.8,4127.6 		"/>
		<polygon id="W-L-12-2" class="st2" points="5338,4201.3 4990.3,4402.1 4990.3,4067.4 5338,3866.7 		"/>
		<polygon id="W-M-16-2" class="st0" points="4704.3,4443.9 4704.3,4112.3 4393.3,3932.3 4393.3,4264.1 		"/>
		<polygon id="W-L-13-2" class="st2" points="4889.9,4339.9 4889.9,4007.2 4703.5,4111.2 4703.5,4443.9 4845.5,4365.5 		"/>
		<polygon id="W-T-10-2" class="st9" points="4702.6,4112 4889.2,4008.9 4577.9,3828.2 4392.6,3932.1 		"/>
		<polygon id="W-T-11-2" class="st9" points="4990.6,4067.4 5338,3866.7 4874.8,3599.3 4527.4,3799.9 		"/>
		<path id="W-M-17-2" class="st2" d="M4527,4160.1v-4.5l151.9-60.3V4428l-75.8,44.2c-19.7,8.7-35,14.3-45.9,16.7
			c-10.9,2.4-21,3.1-30.1,2c-13.5-0.2-24.2-1.1-32-2.6s-17.9-4.7-30.3-9.6l-171.5-106.3v-328L4527,4160.1z"/>
		<path id="W-T-12-2" class="st9" d="M4622.6,4131.3l54.8-35l-234-138l-151.6,88.2l134.8,80.9c29.9,20.1,63.4,30.6,100.4,31.3
			C4564,4159.4,4595.9,4150.3,4622.6,4131.3z"/>
		<path class="st13" d="M4774.8,4311.3c0.1,50.1-40.5,90.7-90.6,90.8s-90.7-40.5-90.8-90.6s40.5-90.7,90.6-90.8h0.1
			C4734.2,4220.7,4774.7,4261.2,4774.8,4311.3"/>
		<path class="st5" d="M4724.4,4300h-2.9v-17h2.9c4.7,0,8.6,3.9,8.6,8.6l0,0l0,0c0,4.6-3.8,8.4-8.4,8.4H4724.4z M4717.2,4300
			c0,11.4-5.8,22.1-15.4,28.3h31.1v10.6h-98.4v-10.6h31.1c-9.6-6.2-15.4-16.9-15.4-28.3v-17h66.9L4717.2,4300L4717.2,4300z"/>
		<path class="st13" d="M4942,4097.8c-49.9-0.1-90.5,40.3-90.6,90.2l0,0v0.1c0,49.8,40.6,90.3,90.7,90.3
			c49.9,0.1,90.5-40.3,90.6-90.2l0,0v-0.1C5032.7,4138.2,4992.1,4097.8,4942,4097.8"/>
		<path class="st5" d="M4938,4128.9h4.4v39.2c-0.2,4.4-3.7,7.8-8.1,8h-1.1v70.4h-10.6v-70.4h-0.9c-4.6,0-8.3-3.7-8.3-8.3
			c0-0.1,0-0.2,0-0.3v-38.6h4.5v26.5h3.7v-26.5h4.4v26.5h3.9v-26.5h4.2v26.5h3.9V4128.9L4938,4128.9z M4970.7,4139.4v107.1h-10.8
			v-46.7h-8.5v-60.4C4951.5,4125.4,4970.7,4125.4,4970.7,4139.4z"/>
		<text transform="matrix(1 0 0 1 4844.4399 3892.2598)" class="st5 st6 st7 st8">A4</text>
		<circle class="st10" cx="4936.8" cy="3843.4" r="138.1"/>
	</g>
	<path class="st13" d="M5183.8,3981c-49.9-0.1-90.5,40.3-90.6,90.2v0.1c0,49.9,40.6,90.3,90.7,90.3s90.7-40.4,90.7-90.3
		S5234,3981,5183.8,3981"/>
	<path class="st5" d="M5206.9,4024.3c5.2,0,9.3,4.2,9.3,9.4s-4.2,9.3-9.4,9.3s-9.3-4.2-9.3-9.4c0-5.1,4.2-9.3,9.3-9.3H5206.9z
		 M5191.5,4037.7l11.1,11c1.7,1.9,2.7,4.3,2.7,6.9l-1.8,22.9l-19.6-3.5l16.6,51.6l-10.1,3.2l-16.7-51.9l-2.3-1.1l-9.8,52.8
		l-10.4-1.9l11-58.6l0.3-1.7c0.3-1.4,0.8-2.5,1.1-3.5c0.5-1,1-2,1.5-2.9c2-3.6,3.3-5.2,6.3-10l8.5-13.4c1.3-2.7,2.7-5.3,4.4-7.7
		c8.2-12.2,19.4-18,32.2-16.9l-0.7,7.3c-10.1-0.9-18.7,3.7-25.4,13.7c-0.4,0.6-0.8,1.3-1.2,2C5190,4036.4,5190.8,4037,5191.5,4037.7
		z M5196.7,4069.8l0.7-7.7l-2.8,1.1l-5.1,5.3L5196.7,4069.8z"/>
</g>
<g id="building_A6" class="clickable" data-building-code="A6" data-building-floor="0">
	<polygon id="W-L-4" class="st2" points="7365.9,3031.9 7365.9,2764.4 6902,3031.6 6902.5,3299.3 	"/>
	<polygon id="W-M-6" class="st0" points="6437.3,3031.9 6437.3,2764.4 6901.4,3031.6 6902,3299.3 	"/>
	<polygon id="W-L-5" class="st0" points="6902.7,2898 6902,2630.5 6786.5,2697.3 6786.5,2964.8 	"/>
	<polygon id="W-T-3" class="st9" points="6805.2,3180.7 6456.2,2980.7 6553.5,2924.7 6902.7,3125.4 	"/>
	<polygon id="W-T-4" class="st9" points="7250.5,2831.8 6902.2,3032.9 6438,2765.8 6786.4,2565.3 6902.2,2632.1 6786.4,2698.9 
		7018,2832.4 7250.5,2699.5 7365.2,2765.8 	"/>
	<polygon id="W-M-7" class="st0" points="6457.2,3154.3 6457.2,3020.5 6805.7,3217.7 6805.7,3354.9 	"/>
	<polygon id="W-L-6" class="st2" points="6902.7,3298.8 6902.7,3125.1 6805.1,3180.7 6805.1,3355.3 	"/>
	<text transform="matrix(1 0 0 1 6621.6899 2872.8899)" class="st5 st6 st7 st8">A6</text>
	<circle class="st10" cx="6714" cy="2824" r="138.1"/>
	<polygon id="W-L-4-2" class="st2" points="7365.9,3031.9 7365.9,2764.4 6902,3031.6 6902.5,3299.3 	"/>
	<polygon id="W-M-6-2" class="st0" points="6437.3,3031.9 6437.3,2764.4 6901.4,3031.6 6902,3299.3 	"/>
	<polygon id="W-L-5-2" class="st0" points="6902.7,2898 6902,2630.5 6786.5,2697.3 6786.5,2964.8 	"/>
	<polygon id="W-T-3-2" class="st9" points="6805.2,3180.7 6456.2,2980.7 6553.5,2924.7 6902.7,3125.4 	"/>
	<polygon id="W-T-4-2" class="st9" points="7250.5,2831.8 6902.2,3032.9 6438,2765.8 6786.4,2565.3 6902.2,2632.1 6786.4,2698.9 
		7018,2832.4 7250.5,2699.5 7365.2,2765.8 	"/>
	<polygon id="W-M-7-2" class="st0" points="6457.2,3154.3 6457.2,3020.5 6805.7,3217.7 6805.7,3354.9 	"/>
	<polygon id="W-L-6-2" class="st2" points="6902.7,3298.8 6902.7,3125.1 6805.1,3180.7 6805.1,3355.3 	"/>
	<text transform="matrix(1 0 0 1 6621.6899 2872.8899)" class="st5 st6 st7 st8">A6</text>
	<circle class="st10" cx="6714" cy="2824" r="138.1"/>
</g>
<g id="TOWER">
	<path id="ISOMETRIC-TOWER-1" class="st2" d="M3990.5,3210.1c0,0.6,0,1.1-0.2,1.7c-0.1,0.5-0.3,0.9-0.3,1.4
		c-0.1,0.5-0.3,1.1-0.5,1.6l-0.5,1.4c-0.2,0.6-0.5,1.1-0.8,1.6c-0.2,0.4-0.5,0.8-0.8,1.1c-0.4,0.7-0.8,1.3-1.3,1.9l-1.4,1.7
		l-0.3,0.5l-2.2,2.2l-1.6,1.4l-1.4,1.1l-1.9,1.3l-2,1.4l-4.9,2.5l-1.4,0.6l-4.1,1.6l-1.6,0.5l-2.7,0.8l-2.1,0.5l-2.9,0.6l-2,0.5
		l-5.9,0.8h-1.9l-3.4,0.2h-10.1l-2.4-0.2c-0.9,0.1-1.8-0.1-2.6-0.3l-2.4-0.3l-2.8-0.5l-2.2-0.5l-3.4-0.8l-1.7-0.5
		c-1.9-0.5-3.8-1.1-5.6-2l-2.6-1.1l-1.4-0.6c-1.4-0.6-2.6-1.4-3.8-2c-10.2-5.9-15.4-13.7-15.4-21.5l-0.3,672.1
		c0,7.7,5,15.5,15.4,21.5c1.3,0.8,2.6,1.4,3.8,2l1.4,0.5l2.4,1.1h0.3c1.8,0.8,3.7,1.4,5.6,2h0.5l1.4,0.3l3.4,0.8l0.9,0.2l1.4,0.2
		l2.8,0.5l1.1,0.2h1.3l2.6,0.3h12.6l3.4-0.2h1.7l5.9-0.8h0.3l1.7-0.3l2.9-0.6l2.1-0.5l2.7-0.8h0.5l0.9-0.3c1.4-0.4,2.8-1,4.1-1.6
		l1.4-0.6c1.7-0.7,3.4-1.5,5-2.5l0.6-0.3l1.4-0.9l1.9-1.3l1.4-1.1c0.6-0.4,1.1-0.9,1.6-1.4l0.3-0.3c0.7-0.6,1.3-1.2,1.9-1.9l0.3-0.5
		c0.3-0.4,0.7-0.8,1.1-1.1l0.3-0.5c0.5-0.6,0.9-1.2,1.3-1.9c0-0.2,0.3-0.5,0.5-0.8s0.1-0.3,0.2-0.5s0.5-1.1,0.8-1.6
		c0.1-0.3,0.3-0.6,0.5-0.9v-0.3c0.1-0.6,0.2-1.1,0.5-1.6l0.3-1.1v-0.3c0.1-0.6,0.1-1.1,0-1.7v-1.4l0.3-672.1
		C3990.6,3209.1,3990.6,3209.6,3990.5,3210.1z"/>
	<path id="ISOMETRIC-TOWER-2" class="st9" d="M4057.4,3148.8c66.3,38.4,66.7,100.8,0.8,139.3s-173.2,38.4-239.5,0
		s-66.7-100.8-0.8-139.3S3990.9,3110.3,4057.4,3148.8z"/>
	<path id="ISOMETRIC-TOWER-3" class="st2" d="M4065.8,3112.9c0,1.4-0.2,2.8-0.5,4.1c-0.2,1.1-0.5,2.3-0.8,3.5s-0.7,2.6-1.1,3.9
		c-0.4,1.1-0.9,2.2-1.4,3.2c-0.5,1.4-1.2,2.8-2,4.1c-0.5,1-1.1,2-1.7,2.9c-0.9,1.6-2,3.1-3.1,4.7s-2.2,2.9-3.4,4.4s-0.5,0.8-0.9,0.9
		c-1.7,2-3.5,3.8-5.5,5.5l-4.1,3.5l-3.6,2.9c-1.2,1-3.2,2.2-4.7,3.2c-1.6,1.2-3.3,2.2-5,3.2c-4,2.3-8.1,4.4-12.3,6.3l-3.8,1.6
		l-10.1,3.9l-3.8,1.4c-2.2,0.8-4.5,1.5-6.8,2l-5.2,1.4l-7.1,1.6l-5,0.9c-4.9,0.8-9.8,1.6-14.9,2.1c-1.6,0-3.1,0.2-4.7,0.3
		s-5.9,0.5-8.8,0.5h-18.8l-6.6-0.3l-6.1-0.5l-6.5-0.8l-5.9-0.8l-6.8-1.1l-5.5-1.1l-8.2-2l-4.4-1.1c-4.9-1.4-9.5-3-14-4.7l-6.6-2.8
		l-3.4-1.6c-3.3-1.5-6.5-3.2-9.6-5.1c-25.8-15.1-38.6-34.8-38.6-54.4l-0.8,107.5c0,19.7,12.8,39.3,38.5,54.3
		c3.1,1.7,6.3,3.5,9.5,5.1l3.4,1.4l5.9,2.6l0.8,0.2c4.6,1.8,9.3,3.4,14,4.7l1.1,0.5l3.4,0.8c2.7,0.8,5.4,1.4,8.2,2l2.2,0.5l3.4,0.5
		l6.8,1.3l2.8,0.5l3.1,0.3l6.5,0.8l3.2,0.3h2.9c2.2,0.1,4.4,0.3,6.7,0.3h18.8c3,0,5.9-0.3,8.8-0.5l3.4-0.2h1.1
		c5-0.5,9.9-1.1,14.9-2.1h0.8c1.4-0.2,2.8-0.6,4.2-0.9s4.9-0.9,7.2-1.6l5.2-1.4l6.8-2l1.4-0.5l2.4-0.8c3.4-1.1,6.8-2.5,10.1-3.9
		l3.8-1.6c4.2-2,8.3-4.1,12.3-6.3l1.6-0.9c1.1-0.8,2.2-1.6,3.4-2.3c1.6-1,3.2-2,4.7-3.2l3.6-2.9c1.1-0.9,2.8-2.2,4.1-3.5
		c0.3-0.2,0.6-0.5,0.8-0.8c1.7-1.6,3.2-3.2,4.7-4.7l0.8-1.1l2.6-3l0.9-1.4c1.1-1.5,2.2-3.1,3.1-4.7c0.4-0.7,0.8-1.4,1.4-2l0.5-0.9
		c0.7-1.3,1.4-2.7,2-4.1c0.3-0.8,0.8-1.6,1.1-2.4c0-0.3,0.1-0.6,0.2-0.8c0.4-1.3,0.8-2.6,1.1-3.9l0.8-2.6v-0.6
		c0.3-1.3,0.5-2.7,0.5-4.1c0-0.9,0.3-1.7,0.3-2.7v-1.1l0.8-107.5C4066.1,3110.4,4066,3111.6,4065.8,3112.9z"/>
	<path id="ISOMETRIC-TOWER-4" class="st2" d="M4108.4,3219.6c-0.1,1.8-0.3,7.1-0.6,8.9c-0.3,1.5-0.7,3-1.1,4.4
		c-0.4,1.5-0.9,3.5-1.4,5.1c-0.5,1.4-1,2.8-1.7,4.1c-0.6,1.3-1.6,3.6-2.5,5.3l-2.3,3.8c-1.3,2-2.6,4.1-4.1,6s-2.9,3.8-4.4,5.7
		l-1.1,1.4c-2.3,2.5-4.7,4.8-7.2,7.1l-5.3,4.4l-4.7,3.8c-1.7,1.3-4.1,2.8-6.1,4.1s-4.2,2.8-6.5,4.1c-5.2,3-10.6,5.8-16.1,8.2
		l-4.9,2.1c-4.4,1.7-8.8,3.5-13.4,5.1l-4.9,1.7l-8.8,2.6l-6.8,1.7c-3.1,0.8-6.3,1.4-9.4,2l-6.5,1.4c-6.4,1.1-12.8,2.1-19.4,2.7
		l-6.1,0.5l-11.6,0.8c-2.5,0-4.9,0-7.4,0.2h-9.4l-7.9-0.2c-2.9,0-5.8-0.3-8.6-0.5s-5.3-0.5-8-0.6l-8.5-0.9l-7.7-1.1
		c-2.6-0.5-6.1-0.9-9-1.6l-7.1-1.4l-10.5-2.6l-5.9-1.6c-6.3-1.9-12.5-4.3-18.5-6.7c-2.9-1.1-5.7-2.4-8.6-3.6c-1.4-0.8-3-1.3-4.4-2
		c-4.2-2.1-8.6-4.4-12.6-6.6c-33.5-19.4-48.9-45.1-48.9-70.5l-2.4,34.4c0,25.4,16.7,51,50.4,70.3c4.1,2.4,8.2,4.4,12.5,6.5
		c1.4,0.8,3,1.3,4.4,2s5,2.4,7.7,3.5c0.3-0.1,0.7,0,0.9,0.3c6,2.4,12.1,4.4,18.3,6.1c0.5,0.1,1,0.2,1.4,0.5c1.4,0.5,2.9,0.8,4.4,1.1
		l10.5,2.6l2.8,0.8l4.2,0.8l9.1,1.6c1.2,0.1,2.4,0.3,3.6,0.6l4.1,0.5c2.8,0.3,5.7,0.8,8.6,0.9c1.4,0.1,2.7,0.2,4.1,0.5
		c1.4,0.2,2.6,0,3.8,0.2l8.7,0.5l4.4,0.2h20.3c3.8,0,7.7-0.5,11.6-0.8c1.6,0.1,3.1-0.1,4.7-0.3h1.4c6.5-0.8,13-1.6,19.4-2.8h0.9
		l5.5-1.1l9.4-2l6.8-1.7c3-0.8,5.9-1.6,8.8-2.6l2-0.5c1.1-0.3,2-0.8,3-1.1c4.6-1.6,9-3.5,13.4-5.1l4.9-2.1
		c5.5-2.4,10.9-5.2,16.1-8.2l2.1-1.3c1.5-0.9,3-1.9,4.4-3l6.2-4.1c2-1.4,3.2-2.6,4.7-3.8s3.6-2.8,5.3-4.4l1.1-0.8
		c2.1-2,4.2-4.1,6.1-6.2c0.4-0.4,0.8-0.9,1.1-1.4c1.1-1.4,2.3-2.6,3.4-3.8c0.5-0.5,0.8-1.1,1.1-1.7c1.4-2,2.8-3.9,4.1-6
		c0.6-0.8,1.2-1.7,1.7-2.6c0.5-0.9,0.3-0.8,0.6-1.3s1.7-3.5,2.5-5.3c0.6-1,1.1-2,1.4-3.1c-0.1-0.4,0-0.8,0.3-1.1
		c0.6-1.7,1.1-3.4,1.4-5.1c0.4-1.1,0.7-2.3,0.9-3.5v-0.9c0.3-1.8,0.5-3.6,0.6-5.4c0.1-1.2,0.2-2.3,0.5-3.5v-1.7l1.1-33.6
		C4108.7,3220.1,4108.7,3218.1,4108.4,3219.6z"/>
	<path id="ISOMETRIC-TOWER-5" class="st9" d="M4027.5,3054.2c51.3,29.8,51.6,78.3,0.5,108.1s-133.9,29.8-185.2,0
		s-51.5-78.3-0.6-108.1S3976.1,3024.3,4027.5,3054.2z"/>
</g>
<line class="st14" x1="2786.8" y1="2708.3" x2="2786.8" y2="2459.5"/>
<line class="st15" x1="2786.8" y1="2427.3" x2="2786.8" y2="2156.5"/>
</svg>