<svg id="Livello_1" data-name="Livello 1" xmlns="http://www.w3.org/2000/svg" xmlns:xlink="http://www.w3.org/1999/xlink" viewBox="0 0 5500 2859.47"><defs><pattern id="locale_tecnico-9_2_" data-name="locale tecnico-9 2 " width="38.5" height="38.5" patternTransform="translate(-10250.95 -8765.18) rotate(-180) scale(0.51)" patternUnits="userSpaceOnUse" viewBox="0 0 38.5 38.5"><rect width="38.5" height="38.5" style="fill:none"/><rect width="38.5" height="38.5" style="fill:none"/><rect width="38.5" height="38.5" style="fill:none"/><rect width="38.5" height="38.5" style="fill:none"/><rect width="38.5" height="38.5" style="fill:none"/><rect width="38.5" height="38.5" style="fill:none"/><rect width="38.5" height="38.5" style="fill:none"/><rect width="38.5" height="38.5" style="fill:none"/><rect width="38.5" height="38.5" style="fill:none"/><rect x="35.8" y="35.1" width="40.5" height="39.2" style="fill:#f2f2f2"/><line x1="38.5" y1="38.5" x2="77" y2="77" style="fill:none;stroke:#ddd;stroke-linecap:square;stroke-linejoin:round;stroke-width:20px"/><rect x="-2.7" y="35.1" width="40.5" height="39.2" style="fill:#f2f2f2"/><line y1="38.5" x2="38.5" y2="77" style="fill:none;stroke:#ddd;stroke-linecap:square;stroke-linejoin:round;stroke-width:20px"/><line x1="-38.5" y1="38.5" y2="77" style="fill:none;stroke:#ddd;stroke-linecap:square;stroke-linejoin:round;stroke-width:20px"/><rect x="35.8" y="-3.4" width="40.5" height="39.2" style="fill:#f2f2f2"/><line x1="38.5" x2="77" y2="38.5" style="fill:none;stroke:#ddd;stroke-linecap:square;stroke-linejoin:round;stroke-width:20px"/><rect x="-2.7" y="-3.4" width="40.5" height="39.2" style="fill:#f2f2f2"/><line x2="38.5" y2="38.5" style="fill:none;stroke:#ddd;stroke-linecap:square;stroke-linejoin:round;stroke-width:20px"/><line x1="-38.5" y2="38.5" style="fill:none;stroke:#ddd;stroke-linecap:square;stroke-linejoin:round;stroke-width:20px"/><line x1="38.5" y1="-38.5" x2="77" style="fill:none;stroke:#ddd;stroke-linecap:square;stroke-linejoin:round;stroke-width:20px"/><line y1="-38.5" x2="38.5" style="fill:none;stroke:#ddd;stroke-linecap:square;stroke-linejoin:round;stroke-width:20px"/><line x1="-38.5" y1="-38.5" style="fill:none;stroke:#ddd;stroke-linecap:square;stroke-linejoin:round;stroke-width:20px"/></pattern></defs><g id="D1-floor-2"><g id="rooms"><polygon id="locale_tecnico-9" data-name="locale tecnico-9" points="888.71 1580.66 888.71 1540.72 1402.81 1540.72 1402.81 1883.12 888.71 1883.12 888.71 1841.59 1269.01 1841.59 1285.94 1841.59 1285.94 1824.65 1285.94 1597.6 1285.94 1580.66 1269.01 1580.66 888.71 1580.66" style="fill:url(#locale_tecnico-9_2_)"/><polygon id="locale_tecnico-10" data-name="locale tecnico-10" points="2379.69 1883.12 2379.69 1540.72 2458.66 1540.72 2458.66 1838.02 2458.66 1854.88 2475.52 1854.88 2846.63 1854.88 2846.63 1883.12 2379.69 1883.12" style="fill:url(#locale_tecnico-9_2_)"/><polygon id="locale_tecnico-11" data-name="locale tecnico-11" points="3338.18 1580.66 3338.18 1540.72 3721.22 1540.72 3721.22 1883.12 3338.18 1883.12 3338.18 1841.59 3632.6 1841.59 3649.3 1841.59 3649.45 1841.59 3649.45 1580.66 3649.3 1580.66 3632.6 1580.66 3338.18 1580.66" style="fill:url(#locale_tecnico-9_2_)"/><rect id="locale_tecnico-12" data-name="locale tecnico-12" x="5252.52" y="1044.61" width="213.24" height="461.78" style="fill:url(#locale_tecnico-9_2_)"/><g class="clickable" id="D1--2W-06" data-name="customclass D1--2W-06"><path id="_tracciato_" data-name=" tracciato " d="M34.32,2825.14V34.4H5465.68v993.28h-230.1v495.65h230.1v199.41H5216.07v776h249.61V2825.2ZM488.44,1523.78V1900h931.31V1523.8Zm212.7-1090V450.7H2146.71V433.76Zm1661.69,1090V1900H3738.15V1523.8Z" transform="translate(0 0)" style="fill:#f2f2f2"/></g><g class="clickable" id="D1--2W-02" data-name="customclass D1--2W-02"><polygon id="_tracciato_2" data-name=" tracciato 2" points="2958.87 1900 2958.87 1523.79 3338.18 1523.79 3338.18 1567.76 3338.18 1586.37 3338.18 1835.84 3338.18 1854.36 3338.18 1900 2958.87 1900" style="fill:#f2f2f2"/></g><g class="clickable" id="D1--2W-01" data-name="customclass D1--2W-01"><rect id="_tracciato_3" data-name=" tracciato 3" x="505.37" y="1523.78" width="230.63" height="376.13" style="fill:#f2f2f2"/></g><g class="clickable" id="D1--2E-02" data-name="customclass D1--2E-02"><rect id="_tracciato_4" data-name=" tracciato 4" x="5233" y="1722.74" width="232.68" height="223.41" style="fill:#f2f2f2"/></g><g class="clickable" id="D1--2-STAIR-C" data-name="customclass D1--2-STAIR-C"><rect id="_tracciato_5" data-name=" tracciato 5" x="5233" y="1946.15" width="232.68" height="535.59" style="fill:#f2f2f2"/><g id="scala_3" data-name="scala 3"><polygon points="5469.02 2480.38 5465.22 2480.38 5465.22 2154 5365.66 2154 5365.66 2395.94 5336.35 2395.94 5336.35 2154 5234.22 2154 5234.22 2480.38 5230.42 2480.38 5230.42 2150.2 5340.15 2150.2 5340.15 2392.14 5361.87 2392.14 5361.87 2150.2 5469.02 2150.2 5469.02 2480.38" style="fill:#b7b7b7"/><polygon points="5415.71 2422.97 5281.52 2422.97 5281.52 2152.63 5285.32 2152.63 5285.32 2419.17 5411.91 2419.17 5411.91 2334.35 5415.71 2334.35 5415.71 2422.97" style="fill:#b7b7b7"/><rect x="5231.48" y="2344.83" width="107.61" height="3.8" style="fill:#b7b7b7"/><rect x="5231.48" y="2367.31" width="107.61" height="3.8" style="fill:#b7b7b7"/><rect x="5231.48" y="2322.96" width="107.61" height="3.8" style="fill:#b7b7b7"/><rect x="5363.77" y="2367.31" width="103.35" height="3.8" style="fill:#b7b7b7"/><rect x="5363.77" y="2344.83" width="79.36" height="3.8" style="fill:#b7b7b7"/><rect x="5416.77" y="2322.96" width="50.35" height="3.8" style="fill:#b7b7b7"/><rect x="5363.77" y="2301.01" width="103.35" height="3.8" style="fill:#b7b7b7"/><rect x="5363.77" y="2279.67" width="103.35" height="3.8" style="fill:#b7b7b7"/><rect x="5363.77" y="2258.11" width="103.35" height="3.8" style="fill:#b7b7b7"/><rect x="5363.77" y="2192.27" width="103.35" height="3.8" style="fill:#b7b7b7"/><rect x="5363.77" y="2171.54" width="103.35" height="3.8" style="fill:#b7b7b7"/><polygon points="5340 2216.95 5336.2 2216.95 5336.2 2146.71 5365.66 2146.71 5365.66 2172.75 5361.87 2172.75 5361.87 2150.5 5340 2150.5 5340 2216.95" style="fill:#b7b7b7"/><rect x="5231.48" y="2236.54" width="107.61" height="3.8" style="fill:#b7b7b7"/><rect x="5231.48" y="2279.9" width="107.61" height="3.8" style="fill:#b7b7b7"/><rect x="5231.48" y="2258.26" width="107.61" height="3.8" style="fill:#b7b7b7"/><rect x="5231.48" y="2301.54" width="107.61" height="3.8" style="fill:#b7b7b7"/><rect x="5231.48" y="2214.9" width="107.61" height="3.8" style="fill:#b7b7b7"/><rect x="5231.48" y="2193.26" width="107.61" height="3.8" style="fill:#b7b7b7"/><rect x="5231.48" y="2171.54" width="107.61" height="3.8" style="fill:#b7b7b7"/><rect x="5363.77" y="2236.85" width="103.35" height="3.8" style="fill:#b7b7b7"/><rect x="5363.77" y="2214.6" width="103.35" height="3.8" style="fill:#b7b7b7"/><polygon points="5299.98 2174.67 5283.48 2155.31 5266.93 2174.3 5264.07 2171.81 5283.52 2149.49 5302.87 2172.2 5299.98 2174.67" style="fill:#b7b7b7"/><polygon points="5413.56 2324.83 5394.26 2303.89 5397.06 2301.32 5413.6 2319.27 5430.28 2301.68 5433.03 2304.29 5413.56 2324.83" style="fill:#b7b7b7"/><rect x="5413.94" y="2268.81" width="3.8" height="111.86" transform="translate(1167.6 6409.86) rotate(-67.11)" style="fill:#b7b7b7"/><rect x="5413.94" y="2279.06" width="3.8" height="111.86" transform="translate(1158.15 6416.12) rotate(-67.11)" style="fill:#b7b7b7"/><rect x="5411.91" y="2151.95" width="3.8" height="171.93" style="fill:#b7b7b7"/><rect x="5363.99" y="2322.96" width="27.41" height="3.8" style="fill:#b7b7b7"/></g></g><g class="clickable" id="D1--2-STAIR-B" data-name="customclass D1--2-STAIR-B"><polygon id="a" points="736 1883.12 736 1540.72 871.85 1540.72 871.85 1580.66 871.85 1597.6 888.71 1597.6 1269.01 1597.6 1269.01 1824.65 888.71 1824.65 871.85 1824.65 871.85 1841.59 871.85 1883.12 736 1883.12" style="fill:#f2f2f2"/><g id="scala1"><polygon points="1277.74 1828.75 951.89 1828.75 951.89 1720.39 1190.56 1720.39 1190.56 1699.05 951.89 1699.05 951.89 1593.27 1277.74 1593.27 1277.74 1597.06 955.69 1597.06 955.69 1695.25 1194.36 1695.25 1194.36 1724.18 955.69 1724.18 955.69 1824.95 1277.74 1824.95 1277.74 1828.75" style="fill:#b7b7b7"/><polygon points="1221.09 1778.33 954.24 1778.33 954.24 1774.53 1217.3 1774.53 1217.3 1649.61 1133.61 1649.61 1133.61 1645.82 1221.09 1645.82 1221.09 1778.33" style="fill:#b7b7b7"/><rect x="1143.94" y="1721.45" width="3.8" height="106.24" style="fill:#b7b7b7"/><rect x="1166.11" y="1721.45" width="3.8" height="106.24" style="fill:#b7b7b7"/><rect x="1122.3" y="1721.45" width="3.8" height="106.24" style="fill:#b7b7b7"/><rect x="1166.11" y="1595.16" width="3.8" height="101.99" style="fill:#b7b7b7"/><rect x="1143.94" y="1618.78" width="3.8" height="78.37" style="fill:#b7b7b7"/><rect x="1122.3" y="1595.16" width="3.8" height="49.66" style="fill:#b7b7b7"/><rect x="1100.65" y="1595.16" width="3.8" height="101.99" style="fill:#b7b7b7"/><rect x="1079.62" y="1595.16" width="3.8" height="101.99" style="fill:#b7b7b7"/><rect x="1058.36" y="1595.16" width="3.8" height="101.99" style="fill:#b7b7b7"/><rect x="993.35" y="1595.16" width="3.8" height="101.99" style="fill:#b7b7b7"/><rect x="972.92" y="1595.16" width="3.8" height="101.99" style="fill:#b7b7b7"/><polygon points="1017.73 1724.41 948.32 1724.41 948.32 1695.25 974.14 1695.25 974.14 1699.05 952.12 1699.05 952.12 1720.62 1017.73 1720.62 1017.73 1724.41" style="fill:#b7b7b7"/><rect x="1037.09" y="1721.45" width="3.8" height="106.24" style="fill:#b7b7b7"/><rect x="1079.85" y="1721.45" width="3.8" height="106.24" style="fill:#b7b7b7"/><rect x="1058.43" y="1721.45" width="3.8" height="106.24" style="fill:#b7b7b7"/><rect x="1101.18" y="1721.45" width="3.8" height="106.24" style="fill:#b7b7b7"/><rect x="1015.68" y="1721.45" width="3.8" height="106.24" style="fill:#b7b7b7"/><rect x="994.26" y="1721.45" width="3.8" height="106.24" style="fill:#b7b7b7"/><rect x="972.92" y="1721.45" width="3.8" height="106.24" style="fill:#b7b7b7"/><rect x="1037.32" y="1595.16" width="3.8" height="101.99" style="fill:#b7b7b7"/><rect x="1015.37" y="1595.16" width="3.8" height="101.99" style="fill:#b7b7b7"/><polygon points="973.12 1795.55 951.11 1776.34 973.51 1757.22 975.98 1760.11 956.92 1776.37 975.62 1792.69 973.12 1795.55" style="fill:#b7b7b7"/><polygon points="1103.53 1667.03 1100.96 1664.24 1118.68 1647.92 1101.32 1631.55 1103.93 1628.79 1124.24 1647.96 1103.53 1667.03" style="fill:#b7b7b7"/><rect x="1069.08" y="1643.75" width="110.39" height="3.8" transform="translate(-829.29 2040.27) rotate(-67.08)" style="fill:#b7b7b7"/><rect x="1078.11" y="1645.76" width="110.31" height="3.8" transform="translate(-826.01 2048.07) rotate(-67.03)" style="fill:#b7b7b7"/><rect x="953.56" y="1645.82" width="169.65" height="3.8" style="fill:#b7b7b7"/><rect x="1122.3" y="1669.89" width="3.8" height="27.03" style="fill:#b7b7b7"/><path d="M953.86,1659.71a11.92,11.92,0,1,1,11.93-11.92,11.92,11.92,0,0,1-11.93,11.92Zm0-20a8.13,8.13,0,1,0,8.13,8.13,8.13,8.13,0,0,0-8.13-8.13Z" transform="translate(0 0)" style="fill:#b7b7b7"/></g></g><g class="clickable" id="D1--2-LIFT-A" data-name="customclass D1--2-LIFT-A"><rect id="a-3" x="3338.18" y="1600.18" width="294.41" height="227.06" style="fill:#f2f2f2"/></g><g class="clickable" id="D1--2-STAIR-A" data-name="customclass D1--2-STAIR-A"><polygon id="a-2" points="2475.52 1838.02 2475.52 1540.72 2958.87 1540.72 2958.87 1883.12 2863.57 1883.12 2863.57 1854.88 2863.57 1838.02 2846.63 1838.02 2475.52 1838.02" style="fill:#f2f2f2"/><g id="scala2"><rect x="2469.07" y="1538.74" width="3.8" height="302.31" style="fill:#b7b7b7"/><polygon points="2795.68 1842.95 2470.96 1842.95 2470.96 1839.16 2791.88 1839.16 2791.88 1709.83 2578.95 1709.83 2578.95 1673.23 2791.88 1673.23 2791.88 1540.64 2470.96 1540.64 2470.96 1536.84 2795.68 1536.84 2795.68 1677.03 2582.74 1677.03 2582.74 1706.04 2795.68 1706.04 2795.68 1842.95" style="fill:#b7b7b7"/><polygon points="2793.47 1774.3 2526.78 1774.3 2526.78 1608.23 2600.89 1608.23 2600.89 1612.02 2530.57 1612.02 2530.57 1770.51 2793.47 1770.51 2793.47 1774.3" style="fill:#b7b7b7"/><rect x="2610.61" y="1608.23" width="182.63" height="3.8" style="fill:#b7b7b7"/><rect x="2578.95" y="1537.6" width="3.8" height="138.59" style="fill:#b7b7b7"/><rect x="2602.95" y="1625.77" width="3.8" height="50.42" style="fill:#b7b7b7"/><rect x="2602.95" y="1538.13" width="3.8" height="50.42" style="fill:#b7b7b7"/><rect x="2578.95" y="1707.93" width="3.8" height="133.12" style="fill:#b7b7b7"/><rect x="2602.95" y="1707.93" width="3.8" height="133.12" style="fill:#b7b7b7"/><rect x="2626.87" y="1707.93" width="3.8" height="133.12" style="fill:#b7b7b7"/><rect x="2650.25" y="1707.93" width="3.8" height="133.12" style="fill:#b7b7b7"/><rect x="2673.87" y="1707.93" width="3.8" height="133.12" style="fill:#b7b7b7"/><rect x="2745.86" y="1707.93" width="3.8" height="133.12" style="fill:#b7b7b7"/><rect x="2768.49" y="1707.93" width="3.8" height="133.12" style="fill:#b7b7b7"/><polygon points="2777.44 1789.45 2774.88 1786.65 2790.3 1772.54 2774.87 1758.15 2777.45 1755.37 2795.89 1772.57 2777.44 1789.45" style="fill:#b7b7b7"/><polygon points="2799.55 1709.83 2771.15 1709.83 2771.15 1706.04 2795.75 1706.04 2795.75 1676.8 2722.85 1676.8 2722.85 1673 2799.55 1673 2799.55 1709.83" style="fill:#b7b7b7"/><rect x="2697.41" y="1537.6" width="3.8" height="138.59" style="fill:#b7b7b7"/><rect x="2650.03" y="1537.6" width="3.8" height="138.59" style="fill:#b7b7b7"/><rect x="2673.72" y="1537.6" width="3.8" height="138.59" style="fill:#b7b7b7"/><rect x="2626.33" y="1537.6" width="3.8" height="138.59" style="fill:#b7b7b7"/><rect x="2721.11" y="1537.6" width="3.8" height="138.59" style="fill:#b7b7b7"/><rect x="2744.8" y="1537.6" width="3.8" height="138.59" style="fill:#b7b7b7"/><rect x="2768.49" y="1537.6" width="3.8" height="138.59" style="fill:#b7b7b7"/><rect x="2697.11" y="1707.93" width="3.8" height="133.12" style="fill:#b7b7b7"/><rect x="2721.41" y="1707.93" width="3.8" height="133.12" style="fill:#b7b7b7"/><path d="M2793.85,1623.34a13.44,13.44,0,1,1,13.45-13.44,13.44,13.44,0,0,1-13.45,13.44Zm0-23.09a9.65,9.65,0,1,0,9.65,9.65h0A9.66,9.66,0,0,0,2793.85,1600.25Z" transform="translate(0 0)" style="fill:#b7b7b7"/><polygon points="2626.72 1626.94 2608.36 1610.14 2626.7 1592.87 2629.31 1595.64 2613.94 1610.1 2629.29 1624.14 2626.72 1626.94" style="fill:#b7b7b7"/><rect x="2607.72" y="1535.64" width="3.8" height="142.48" transform="translate(-327.58 732.22) rotate(-15.04)" style="fill:#b7b7b7"/><rect x="2597.91" y="1535.65" width="3.8" height="142.48" transform="translate(-327.92 729.68) rotate(-15.04)" style="fill:#b7b7b7"/></g></g></g><g id="auto"><line x1="704.48" y1="230.93" x2="730.15" y2="230.93" style="fill:none;stroke:#fff;stroke-linecap:round;stroke-miterlimit:10;stroke-width:11px"/><line x1="781.64" y1="230.93" x2="2095.37" y2="230.93" style="fill:none;stroke:#fff;stroke-linecap:round;stroke-miterlimit:10;stroke-width:11px;stroke-dasharray:100.5199966430664,100.5199966430664"/><line x1="2121.11" y1="230.93" x2="2146.78" y2="230.93" style="fill:none;stroke:#fff;stroke-linecap:round;stroke-miterlimit:10;stroke-width:11px"/></g><g id="linee-parcheggi"><line x1="5240.67" y1="2497.47" x2="5240.67" y2="2824" style="fill:none;stroke:#fff;stroke-miterlimit:10;stroke-width:6px"/><line x1="5028.57" y1="2419.93" x2="5028.57" y2="2824" style="fill:none;stroke:#fff;stroke-miterlimit:10;stroke-width:6px"/><line x1="5216.07" y1="2419.93" x2="34.32" y2="2419.93" style="fill:none;stroke:#fff;stroke-miterlimit:10;stroke-width:6px"/><line x1="4787.62" y1="2419.93" x2="4787.62" y2="2824" style="fill:none;stroke:#fff;stroke-miterlimit:10;stroke-width:6px"/><line x1="4550.69" y1="2419.93" x2="4550.69" y2="2824" style="fill:none;stroke:#fff;stroke-miterlimit:10;stroke-width:6px"/><line x1="4309.21" y1="2419.93" x2="4309.21" y2="2824" style="fill:none;stroke:#fff;stroke-miterlimit:10;stroke-width:6px"/><line x1="4067.72" y1="2419.93" x2="4067.72" y2="2824" style="fill:none;stroke:#fff;stroke-miterlimit:10;stroke-width:6px"/><line x1="5028.57" y1="33.19" x2="5028.57" y2="466.03" style="fill:none;stroke:#fff;stroke-miterlimit:10;stroke-width:6px"/><line x1="4787.62" y1="33.19" x2="4787.62" y2="466.03" style="fill:none;stroke:#fff;stroke-miterlimit:10;stroke-width:6px"/><line x1="4550.69" y1="33.19" x2="4550.69" y2="466.03" style="fill:none;stroke:#fff;stroke-miterlimit:10;stroke-width:6px"/><line x1="4309.21" y1="33.19" x2="4309.21" y2="466.03" style="fill:none;stroke:#fff;stroke-miterlimit:10;stroke-width:6px"/><line x1="4067.72" y1="33.19" x2="4067.72" y2="466.03" style="fill:none;stroke:#fff;stroke-miterlimit:10;stroke-width:6px"/><line x1="3776.5" y1="33.19" x2="3776.5" y2="466.03" style="fill:none;stroke:#fff;stroke-miterlimit:10;stroke-width:6px"/><line x1="3507.83" y1="33.19" x2="3507.83" y2="466.03" style="fill:none;stroke:#fff;stroke-miterlimit:10;stroke-width:6px"/><line x1="3485.35" y1="466.03" x2="2149.97" y2="466.03" style="fill:none;stroke:#fff;stroke-miterlimit:10;stroke-width:6px"/><line x1="3485.35" y1="33.19" x2="3485.35" y2="466.03" style="fill:none;stroke:#fff;stroke-miterlimit:10;stroke-width:6px"/><line x1="3110.44" y1="33.19" x2="3110.44" y2="466.03" style="fill:none;stroke:#fff;stroke-miterlimit:10;stroke-width:6px"/><line x1="2890.22" y1="33.19" x2="2890.22" y2="466.03" style="fill:none;stroke:#fff;stroke-miterlimit:10;stroke-width:6px"/><line x1="2632.33" y1="33.19" x2="2632.33" y2="466.03" style="fill:none;stroke:#fff;stroke-miterlimit:10;stroke-width:6px"/><line x1="2391.3" y1="33.19" x2="2391.3" y2="466.03" style="fill:none;stroke:#fff;stroke-miterlimit:10;stroke-width:6px"/><line x1="2149.97" y1="33.19" x2="2149.97" y2="466.03" style="fill:none;stroke:#fff;stroke-miterlimit:10;stroke-width:6px"/><line x1="3830.8" y1="2419.93" x2="3830.8" y2="2824" style="fill:none;stroke:#fff;stroke-miterlimit:10;stroke-width:6px"/><line x1="3588.7" y1="2419.93" x2="3588.7" y2="2824" style="fill:none;stroke:#fff;stroke-miterlimit:10;stroke-width:6px"/><line x1="3347.75" y1="2419.93" x2="3347.75" y2="2824" style="fill:none;stroke:#fff;stroke-miterlimit:10;stroke-width:6px"/><line x1="3110.44" y1="2419.93" x2="3110.44" y2="2824" style="fill:none;stroke:#fff;stroke-miterlimit:10;stroke-width:6px"/><line x1="2869.34" y1="2419.93" x2="2869.34" y2="2824" style="fill:none;stroke:#fff;stroke-miterlimit:10;stroke-width:6px"/><line x1="2627.85" y1="2419.93" x2="2627.85" y2="2824" style="fill:none;stroke:#fff;stroke-miterlimit:10;stroke-width:6px"/><line x1="2390.39" y1="2419.93" x2="2390.39" y2="2824" style="fill:none;stroke:#fff;stroke-miterlimit:10;stroke-width:6px"/><line x1="2149.97" y1="2419.93" x2="2149.97" y2="2824" style="fill:none;stroke:#fff;stroke-miterlimit:10;stroke-width:6px"/><line x1="4787.62" y1="1003.07" x2="4787.62" y2="1875.23" style="fill:none;stroke:#fff;stroke-miterlimit:10;stroke-width:6px"/><line x1="4787.62" y1="1875.23" x2="3840.44" y2="1875.23" style="fill:none;stroke:#fff;stroke-miterlimit:10;stroke-width:6px"/><line x1="5465.68" y1="466.03" x2="3507.83" y2="466.03" style="fill:none;stroke:#fff;stroke-miterlimit:10;stroke-width:6px"/><line x1="4787.62" y1="1438.73" x2="3840.44" y2="1438.73" style="fill:none;stroke:#fff;stroke-miterlimit:10;stroke-width:6px"/><line x1="3812.95" y1="1438.73" x2="3369.16" y2="1438.73" style="fill:none;stroke:#fff;stroke-miterlimit:10;stroke-width:6px"/><line x1="3812.95" y1="1002.69" x2="3369.16" y2="1002.69" style="fill:none;stroke:#fff;stroke-miterlimit:10;stroke-width:6px"/><line x1="3330.66" y1="1438.73" x2="3110.44" y2="1438.73" style="fill:none;stroke:#fff;stroke-miterlimit:10;stroke-width:6px"/><line x1="3330.66" y1="1002.69" x2="3110.44" y2="1002.69" style="fill:none;stroke:#fff;stroke-miterlimit:10;stroke-width:6px"/><line x1="4787.62" y1="1003.07" x2="3840.44" y2="1003.07" style="fill:none;stroke:#fff;stroke-miterlimit:10;stroke-width:6px"/><line x1="4550.69" y1="1003.07" x2="4550.69" y2="1875.23" style="fill:none;stroke:#fff;stroke-miterlimit:10;stroke-width:6px"/><line x1="4309.21" y1="1003.07" x2="4309.21" y2="1875.23" style="fill:none;stroke:#fff;stroke-miterlimit:10;stroke-width:6px"/><line x1="1901.42" y1="1002.69" x2="1901.42" y2="1874.85" style="fill:none;stroke:#fff;stroke-miterlimit:10;stroke-width:6px"/><line x1="1901.42" y1="1874.85" x2="1423.01" y2="1874.85" style="fill:none;stroke:#fff;stroke-miterlimit:10;stroke-width:6px"/><line x1="1901.42" y1="1438.28" x2="469.68" y2="1438.28" style="fill:none;stroke:#fff;stroke-miterlimit:10;stroke-width:6px"/><line x1="1901.42" y1="1002.69" x2="469.68" y2="1002.69" style="fill:none;stroke:#fff;stroke-miterlimit:10;stroke-width:6px"/><line x1="1664.5" y1="1002.69" x2="1664.5" y2="1874.85" style="fill:none;stroke:#fff;stroke-miterlimit:10;stroke-width:6px"/><line x1="1424.53" y1="1002.69" x2="1424.53" y2="1874.85" style="fill:none;stroke:#fff;stroke-miterlimit:10;stroke-width:6px"/><line x1="4067.72" y1="1003.07" x2="4067.72" y2="1875.23" style="fill:none;stroke:#fff;stroke-miterlimit:10;stroke-width:6px"/><line x1="3840.44" y1="1003.07" x2="3840.44" y2="1875.23" style="fill:none;stroke:#fff;stroke-miterlimit:10;stroke-width:6px"/><line x1="3812.95" y1="1002.69" x2="3812.95" y2="1438.73" style="fill:none;stroke:#fff;stroke-miterlimit:10;stroke-width:6px"/><line x1="3589.23" y1="1002.69" x2="3589.23" y2="1438.73" style="fill:none;stroke:#fff;stroke-miterlimit:10;stroke-width:6px"/><line x1="3369.16" y1="1002.69" x2="3369.16" y2="1438.73" style="fill:none;stroke:#fff;stroke-miterlimit:10;stroke-width:6px"/><line x1="2866.68" y1="1438.73" x2="2391.3" y2="1438.73" style="fill:none;stroke:#fff;stroke-miterlimit:10;stroke-width:6px"/><line x1="2866.68" y1="1002.69" x2="2391.3" y2="1002.69" style="fill:none;stroke:#fff;stroke-miterlimit:10;stroke-width:6px"/><line x1="2866.68" y1="1002.69" x2="2866.68" y2="1438.73" style="fill:none;stroke:#fff;stroke-miterlimit:10;stroke-width:6px"/><line x1="2627.02" y1="1002.69" x2="2627.02" y2="1438.73" style="fill:none;stroke:#fff;stroke-miterlimit:10;stroke-width:6px"/><line x1="2391.3" y1="1002.69" x2="2391.3" y2="1438.73" style="fill:none;stroke:#fff;stroke-miterlimit:10;stroke-width:6px"/><line x1="3330.66" y1="1002.69" x2="3330.66" y2="1438.73" style="fill:none;stroke:#fff;stroke-miterlimit:10;stroke-width:6px"/><line x1="3110.44" y1="1002.69" x2="3110.44" y2="1438.73" style="fill:none;stroke:#fff;stroke-miterlimit:10;stroke-width:6px"/><line x1="1908.49" y1="2419.93" x2="1908.49" y2="2824" style="fill:none;stroke:#fff;stroke-miterlimit:10;stroke-width:6px"/><line x1="1670.42" y1="2419.93" x2="1670.42" y2="2824" style="fill:none;stroke:#fff;stroke-miterlimit:10;stroke-width:6px"/><line x1="1429.54" y1="2419.93" x2="1429.54" y2="2824" style="fill:none;stroke:#fff;stroke-miterlimit:10;stroke-width:6px"/><line x1="1186.84" y1="1002.69" x2="1186.84" y2="1438.28" style="fill:none;stroke:#fff;stroke-miterlimit:10;stroke-width:6px"/><line x1="1187.98" y1="2419.93" x2="1187.98" y2="2824" style="fill:none;stroke:#fff;stroke-miterlimit:10;stroke-width:6px"/><line x1="950.22" y1="1002.69" x2="950.22" y2="1438.28" style="fill:none;stroke:#fff;stroke-miterlimit:10;stroke-width:6px"/><line x1="711.47" y1="1002.69" x2="711.47" y2="1438.28" style="fill:none;stroke:#fff;stroke-miterlimit:10;stroke-width:6px"/><line x1="469.68" y1="1002.69" x2="469.68" y2="1438.28" style="fill:none;stroke:#fff;stroke-miterlimit:10;stroke-width:6px"/><line x1="949.92" y1="2419.93" x2="949.92" y2="2824" style="fill:none;stroke:#fff;stroke-miterlimit:10;stroke-width:6px"/><line x1="709.04" y1="2419.93" x2="709.04" y2="2824" style="fill:none;stroke:#fff;stroke-miterlimit:10;stroke-width:6px"/><line x1="477.81" y1="2419.93" x2="477.81" y2="2824" style="fill:none;stroke:#fff;stroke-miterlimit:10;stroke-width:6px"/><line x1="246.65" y1="2419.93" x2="246.65" y2="2824" style="fill:none;stroke:#fff;stroke-miterlimit:10;stroke-width:6px"/></g><g id="walls"><path d="M34.32,2859.47H5500V0H0V2859.47ZM5465.68,1506.39H5252.44V1044.61h213.24ZM34.32,34.32H5465.68V1027.6h-230.1v495.65h230.1v199.42h-63v16.93h63v189.62h-63v16.93h63v535.52H5233V1946.08h58.93v-16.94H5233V1739.52h58.93v-16.93h-75.86v776h249.61v326.46H34.32Z" transform="translate(0 0)" style="fill:#b7b7b7"/><path d="M2975.8,1883.12V1762.69h-16.93v120.43h-95.3V1838h-388V1540.7h483.34v93.78h16.94V1540.7h60.45v-16.94H2362.9V1900h673.35v-16.93Zm-129.17,0H2379.69v-342.4h78.9v314.15h388Z" transform="translate(0 0)" style="fill:#b7b7b7"/><path d="M3338.18,1523.78H3148v16.94h173.22v56.87H3632.6v227.06h-278v.53h-33.33v57.94H3148V1900h590.12V1523.8Zm383,359.34h-383v-41.53h311.35V1580.66H3338.18v-39.94h383Z" transform="translate(0 0)" style="fill:#b7b7b7"/><path d="M888.71,1523.78H641.15v16.94h77.91v102H736v-102H871.85v56.87h397.23v227.06H871.93v58.4H736.07V1754.41H719.14v128.64H641.22v16.86h778.53v-376.2h-531Zm514.1,359.34H888.71v-41.53h397.23V1580.66H888.71v-39.94h514.1Z" transform="translate(0 0)" style="fill:#b7b7b7"/><polygon points="505.37 1883.12 505.37 1540.72 529.44 1540.72 529.44 1523.78 505.37 1523.78 488.44 1523.78 488.44 1540.72 488.44 1883.12 488.44 1899.98 505.37 1899.98 529.44 1899.98 529.44 1883.12 505.37 1883.12" style="fill:#b7b7b7"/><rect x="701.14" y="445.91" width="1445.57" height="16.93" style="fill:#b7b7b7"/></g></g></svg>