<svg id="Livello_1" data-name="Livello 1" xmlns="http://www.w3.org/2000/svg" xmlns:xlink="http://www.w3.org/1999/xlink" viewBox="0 0 5500 3000"><defs><pattern id="locale_tecnico-17_1_" data-name="locale tecnico-17 1 " width="38.5" height="38.5" patternTransform="matrix(-0.58, 0, 0, 0.58, -17890.58, 23638.54)" patternUnits="userSpaceOnUse" viewBox="0 0 38.5 38.5"><rect width="38.5" height="38.5" style="fill:none"/><rect width="38.5" height="38.5" style="fill:none"/><rect width="38.5" height="38.5" style="fill:none"/><rect width="38.5" height="38.5" style="fill:none"/><rect width="38.5" height="38.5" style="fill:none"/><rect width="38.5" height="38.5" style="fill:none"/><rect width="38.5" height="38.5" style="fill:none"/><rect width="38.5" height="38.5" style="fill:none"/><rect x="35.8" y="-35.8" width="40.5" height="39.2" style="fill:#f2f2f2"/><line x1="38.5" x2="77" y2="-38.5" style="fill:none;stroke:#ddd;stroke-linecap:square;stroke-linejoin:round;stroke-width:20px"/><rect x="-2.7" y="-35.8" width="40.5" height="39.2" style="fill:#f2f2f2"/><line x2="38.5" y2="-38.5" style="fill:none;stroke:#ddd;stroke-linecap:square;stroke-linejoin:round;stroke-width:20px"/><line x1="-38.5" y2="-38.5" style="fill:none;stroke:#ddd;stroke-linecap:square;stroke-linejoin:round;stroke-width:20px"/><rect x="35.8" y="2.7" width="40.5" height="39.2" style="fill:#f2f2f2"/><line x1="38.5" y1="38.5" x2="77" style="fill:none;stroke:#ddd;stroke-linecap:square;stroke-linejoin:round;stroke-width:20px"/><rect x="-2.7" y="2.7" width="40.5" height="39.2" style="fill:#f2f2f2"/><line y1="38.5" x2="38.5" style="fill:none;stroke:#ddd;stroke-linecap:square;stroke-linejoin:round;stroke-width:20px"/><line x1="-38.5" y1="38.5" style="fill:none;stroke:#ddd;stroke-linecap:square;stroke-linejoin:round;stroke-width:20px"/><line x1="38.5" y1="77" x2="77" y2="38.5" style="fill:none;stroke:#ddd;stroke-linecap:square;stroke-linejoin:round;stroke-width:20px"/><line y1="77" x2="38.5" y2="38.5" style="fill:none;stroke:#ddd;stroke-linecap:square;stroke-linejoin:round;stroke-width:20px"/><line x1="-38.5" y1="77" y2="38.5" style="fill:none;stroke:#ddd;stroke-linecap:square;stroke-linejoin:round;stroke-width:20px"/></pattern><pattern id="locale_tecnico-17_1_3" data-name="locale tecnico-17 1 " width="38.5" height="38.5" patternTransform="matrix(-0.58, 0, 0, 0.58, -17897.23, 23631.54)" patternUnits="userSpaceOnUse" viewBox="0 0 38.5 38.5"><rect width="38.5" height="38.5" style="fill:none"/><rect width="38.5" height="38.5" style="fill:none"/><rect width="38.5" height="38.5" style="fill:none"/><rect width="38.5" height="38.5" style="fill:none"/><rect width="38.5" height="38.5" style="fill:none"/><rect width="38.5" height="38.5" style="fill:none"/><rect width="38.5" height="38.5" style="fill:none"/><rect width="38.5" height="38.5" style="fill:none"/><rect x="35.8" y="-35.8" width="40.5" height="39.2" style="fill:#f2f2f2"/><line x1="38.5" x2="77" y2="-38.5" style="fill:none;stroke:#ddd;stroke-linecap:square;stroke-linejoin:round;stroke-width:20px"/><rect x="-2.7" y="-35.8" width="40.5" height="39.2" style="fill:#f2f2f2"/><line x2="38.5" y2="-38.5" style="fill:none;stroke:#ddd;stroke-linecap:square;stroke-linejoin:round;stroke-width:20px"/><line x1="-38.5" y2="-38.5" style="fill:none;stroke:#ddd;stroke-linecap:square;stroke-linejoin:round;stroke-width:20px"/><rect x="35.8" y="2.7" width="40.5" height="39.2" style="fill:#f2f2f2"/><line x1="38.5" y1="38.5" x2="77" style="fill:none;stroke:#ddd;stroke-linecap:square;stroke-linejoin:round;stroke-width:20px"/><rect x="-2.7" y="2.7" width="40.5" height="39.2" style="fill:#f2f2f2"/><line y1="38.5" x2="38.5" style="fill:none;stroke:#ddd;stroke-linecap:square;stroke-linejoin:round;stroke-width:20px"/><line x1="-38.5" y1="38.5" style="fill:none;stroke:#ddd;stroke-linecap:square;stroke-linejoin:round;stroke-width:20px"/><line x1="38.5" y1="77" x2="77" y2="38.5" style="fill:none;stroke:#ddd;stroke-linecap:square;stroke-linejoin:round;stroke-width:20px"/><line y1="77" x2="38.5" y2="38.5" style="fill:none;stroke:#ddd;stroke-linecap:square;stroke-linejoin:round;stroke-width:20px"/><line x1="-38.5" y1="77" y2="38.5" style="fill:none;stroke:#ddd;stroke-linecap:square;stroke-linejoin:round;stroke-width:20px"/></pattern></defs><g id="D1-floor0"><g id="background"><polygon points="5498.94 39.02 5498.94 0 5459.93 0 3194.09 0 3145.98 0 3145.98 39.02 3145.98 638.54 3145.98 714.33 3040.77 714.33 39.1 714.33 0 714.33 0 753.35 0 2574.1 0 2613.12 39.1 2613.12 5459.93 2613.12 5498.94 2613.12 5498.94 2574.1 5498.94 39.02" style="fill:#f2f2f2;stroke:#b7b7b7;stroke-miterlimit:10"/></g><g id="rooms"><polygon id="senza_codice" data-name="senza codice" points="39.1 1435.66 39.1 1296.94 321.64 1296.94 340.89 1296.94 1932.02 1296.94 1951.27 1296.94 2481.48 1296.94 2481.48 1435.66 2059.61 1435.66 2040.45 1435.66 1950.67 1435.66 1931.51 1435.66 1931.51 1454.82 1931.51 1844.06 1931.51 1863.31 1950.67 1863.31 2481.48 1863.31 2481.48 2059.01 1968.19 2059.01 1948.94 2059.01 1424.61 2059.01 1405.36 2059.01 1154.85 2059.01 1135.6 2059.01 39.1 2059.01 39.1 1863.31 236.62 1863.31 255.78 1863.31 840.19 1863.31 859.45 1863.31 1134.99 1863.31 1154.24 1863.31 1676.85 1863.31 1696.1 1863.31 1696.1 1844.06 1696.1 1454.82 1696.1 1435.66 1676.85 1435.66 1154.24 1435.66 1134.99 1435.66 859.45 1435.66 840.19 1435.66 255.78 1435.66 236.62 1435.66 39.1 1435.66" style="fill:#f2f2f2"/><rect id="senza_codice-2" data-name="senza codice-2" x="2500.73" y="2218.71" width="520.88" height="355.4" style="fill:#f2f2f2;stroke:#ddd;stroke-miterlimit:10"/><rect id="senza_codice-3" data-name="senza codice-3" x="3424.74" y="1158.3" width="147.96" height="119.47" style="fill:#f2f2f2"/><rect id="senza_codice-4" data-name="senza codice-4" x="3424.74" y="1036.5" width="147.96" height="102.55" style="fill:#f2f2f2"/><rect id="senza_codice-5" data-name="senza codice-5" x="3424.74" y="908.3" width="147.96" height="108.94" style="fill:#f2f2f2"/><rect id="senza_codice-6" data-name="senza codice-6" x="3424.74" y="772.6" width="147.96" height="116.54" style="fill:#f2f2f2"/><polygon id="senza_codice-7" data-name="senza codice-7" points="3194.09 714.33 3194.09 638.54 3362.42 638.54 3362.42 753.35 3194.09 753.35 3194.09 714.33" style="fill:#f2f2f2"/><rect id="senza_codice-8" data-name="senza codice-8" x="3194.09" y="521.49" width="168.42" height="97.89" style="fill:#f2f2f2"/><rect id="senza_codice-9" data-name="senza codice-9" x="3194.09" y="399.68" width="168.42" height="102.55" style="fill:#f2f2f2"/><rect id="senza_codice-10" data-name="senza codice-10" x="3194.09" y="248.79" width="168.42" height="131.64" style="fill:#f2f2f2"/><rect id="senza_codice-11" data-name="senza codice-11" x="4051.11" y="172.48" width="321.04" height="108.94" style="fill:#f2f2f2"/><rect id="senza_codice-12" data-name="senza codice-12" x="4051.11" y="300.67" width="321.04" height="178.26" style="fill:#f2f2f2"/><polygon id="senza_codice-13" data-name="senza codice-13" points="4391.4 281.42 4391.4 172.48 4546.36 172.48 4546.36 478.93 4391.4 478.93 4391.4 300.67 4391.4 281.42" style="fill:#f2f2f2"/><polygon id="senza_codice-14" data-name="senza codice-14" points="4051.11 793.58 4051.11 498.18 4372.15 498.18 4391.4 498.18 4546.36 498.18 4546.36 793.58 4051.11 793.58" style="fill:#ddd"/><polygon id="locale_tecnico-17" data-name="locale tecnico-17" points="255.78 1500.32 255.78 1454.82 840.19 1454.82 840.19 1844.06 255.78 1844.06 255.78 1796.84 688.18 1796.84 707.34 1796.84 707.34 1777.59 707.34 1519.48 707.34 1500.32 688.18 1500.32 255.78 1500.32" style="stroke-miterlimit:10;fill:url(#locale_tecnico-17_1_);stroke:url(#locale_tecnico-17_1_3)"/><polygon id="locale_tecnico-18" data-name="locale tecnico-18" points="1950.67 1844.06 1950.67 1454.82 2040.45 1454.82 2040.45 1792.78 2040.45 1812.03 2059.61 1812.03 2481.48 1812.03 2481.48 1844.06 1950.67 1844.06" style="fill:url(#locale_tecnico-17_1_)"/><polygon id="locale_tecnico-19" data-name="locale tecnico-19" points="3040.77 1844.06 3040.77 1796.84 3375.28 1796.84 3394.44 1796.84 3475.68 1796.84 3475.68 1844.06 3040.77 1844.06" style="fill:url(#locale_tecnico-17_1_)"/><polygon id="locale_tecnico-20" data-name="locale tecnico-20" points="3040.77 1500.32 3040.77 1454.82 3475.68 1454.82 3475.68 1500.32 3394.44 1500.32 3375.28 1500.32 3040.77 1500.32" style="fill:url(#locale_tecnico-17_1_)"/><polygon id="locale_tecnico-21" data-name="locale tecnico-21" points="3591.95 889.14 3591.95 772.6 3659.55 772.6 3659.55 1277.69 3591.95 1277.69 3591.95 1158.3 3591.95 1139.05 3591.95 1036.5 3591.95 1017.25 3591.95 908.3 3591.95 889.14" style="fill:url(#locale_tecnico-17_1_)"/><rect id="locale_tecnico-22" data-name="locale tecnico-22" x="5194.22" y="2543.8" width="265.71" height="30.3" style="fill:url(#locale_tecnico-17_1_)"/><rect id="locale_tecnico-23" data-name="locale tecnico-23" x="5347.45" y="39.02" width="150.89" height="1095.97" style="fill:url(#locale_tecnico-17_1_)"/><g class="clickable" id="D1-0C-01-D" data-name="customclass D1-0C-01-D"><rect id="a" x="3040.77" y="1519.48" width="334.42" height="258.11" style="fill:#f2f2f2"/></g><g class="clickable" id="D1-0E-15" data-name="customclass D1-0E-15"><rect id="_tracciato_" data-name=" tracciato " x="39.1" y="753.35" width="282.54" height="524.33" style="fill:#ddd"/></g><g class="clickable" id="D1-0E-14" data-name="customclass D1-0E-14"><polygon id="_tracciato_2" data-name=" tracciato 2" points="340.89 1277.69 340.89 753.35 1134.99 753.35 1134.99 753.35 1134.99 1277.69 340.89 1277.69" style="fill:#ddd"/></g><g class="clickable" id="D1-0E-13" data-name="customclass D1-0E-13"><polygon id="_tracciato_3" data-name=" tracciato 3" points="1134.99 1277.69 1134.99 753.35 1134.99 753.35 1134.99 1121.01 1154.24 1121.01 1154.24 753.35 1932.02 753.35 1932.02 1277.69 1134.99 1277.69" style="fill:#ddd"/></g><g class="clickable" id="D1-0E-12" data-name="customclass D1-0E-12"><rect id="_tracciato_4" data-name=" tracciato 4" x="1951.27" y="753.35" width="530.2" height="524.33" style="fill:#ddd"/></g><g class="clickable" id="D1-0E-11" data-name="customclass D1-0E-11"><g id="scala1"><polygon points="698.02 1782.34 327.51 1782.34 327.51 1659.15 598.92 1659.15 598.92 1634.9 327.51 1634.9 327.51 1514.56 698.02 1514.56 698.02 1518.88 331.83 1518.88 331.83 1630.58 603.23 1630.58 603.23 1663.47 331.83 1663.47 331.83 1778.02 698.02 1778.02 698.02 1782.34" style="fill:#b7b7b7"/><polygon points="633.62 1725.02 240.41 1725.02 240.41 1720.7 629.3 1720.7 629.3 1578.7 460.63 1578.7 460.63 1574.38 633.62 1574.38 633.62 1725.02" style="fill:#b7b7b7"/><rect x="545.91" y="1660.36" width="4.32" height="120.77" style="fill:#b7b7b7"/><rect x="571.12" y="1660.36" width="4.32" height="120.77" style="fill:#b7b7b7"/><rect x="521.31" y="1660.36" width="4.32" height="120.77" style="fill:#b7b7b7"/><rect x="571.12" y="1516.72" width="4.32" height="116.02" style="fill:#b7b7b7"/><rect x="545.91" y="1517.15" width="4.32" height="115.59" style="fill:#b7b7b7"/><rect x="496.71" y="1516.72" width="4.32" height="116.02" style="fill:#b7b7b7"/><rect x="472.8" y="1542.79" width="4.32" height="89.95" style="fill:#b7b7b7"/><rect x="448.63" y="1516.72" width="4.32" height="55.51" style="fill:#b7b7b7"/><rect x="448.63" y="1600.19" width="4.32" height="31.51" style="fill:#b7b7b7"/><rect x="374.73" y="1516.72" width="4.32" height="116.02" style="fill:#b7b7b7"/><rect x="351.51" y="1516.72" width="4.32" height="116.02" style="fill:#b7b7b7"/><polygon points="402.44 1663.64 233.85 1663.64 233.85 1630.58 352.89 1630.58 352.89 1634.9 238.17 1634.9 238.17 1659.33 402.44 1659.33 402.44 1663.64" style="fill:#b7b7b7"/><rect x="424.46" y="1660.36" width="4.32" height="120.77" style="fill:#b7b7b7"/><rect x="473.06" y="1660.36" width="4.32" height="120.77" style="fill:#b7b7b7"/><rect x="448.71" y="1660.36" width="4.32" height="120.77" style="fill:#b7b7b7"/><rect x="497.31" y="1660.36" width="4.32" height="120.77" style="fill:#b7b7b7"/><rect x="400.11" y="1660.36" width="4.32" height="120.77" style="fill:#b7b7b7"/><rect x="375.77" y="1660.36" width="4.32" height="120.77" style="fill:#b7b7b7"/><rect x="351.51" y="1660.36" width="4.32" height="120.77" style="fill:#b7b7b7"/><rect x="296.18" y="1516.72" width="4.32" height="116.02" style="fill:#b7b7b7"/><rect x="296.18" y="1660.36" width="4.32" height="120.77" style="fill:#b7b7b7"/><rect x="266.48" y="1516.72" width="4.32" height="116.02" style="fill:#b7b7b7"/><rect x="266.48" y="1660.36" width="4.32" height="120.77" style="fill:#b7b7b7"/><rect x="236.18" y="1660.36" width="4.32" height="120.77" style="fill:#b7b7b7"/><rect x="424.72" y="1516.72" width="4.32" height="116.02" style="fill:#b7b7b7"/><rect x="399.77" y="1516.72" width="4.32" height="116.02" style="fill:#b7b7b7"/><polygon points="260.25 1744.54 237.26 1722.66 260.7 1700.99 263.63 1704.16 243.57 1722.71 263.22 1741.41 260.25 1744.54" style="fill:#b7b7b7"/><polygon points="428.34 1598.5 425.41 1595.33 445.55 1576.78 425.82 1558.08 428.79 1554.95 451.88 1576.82 428.34 1598.5" style="fill:#b7b7b7"/><rect x="387.38" y="1571.92" width="125.52" height="4.32" transform="translate(-1174.89 1374.97) rotate(-67.06)" style="fill:#b7b7b7"/><rect x="398.86" y="1571.92" width="125.52" height="4.32" transform="translate(-1167.88 1385.54) rotate(-67.06)" style="fill:#b7b7b7"/><rect x="268.04" y="1574.38" width="180.68" height="4.32" style="fill:#b7b7b7"/><rect x="521.31" y="1519.22" width="4.32" height="113.26" style="fill:#b7b7b7"/><path d="M268.64,1590.18a13.56,13.56,0,1,1,13.55-13.55A13.57,13.57,0,0,1,268.64,1590.18Zm0-22.79a9.24,9.24,0,1,0,9.24,9.24A9.25,9.25,0,0,0,268.64,1567.39Z" style="fill:#b7b7b7"/></g><g id="a-2"><polygon id="_tracciato_5" data-name=" tracciato 5" points="39.1 1844.06 39.1 1454.82 236.62 1454.82 236.62 1500.32 236.62 1519.48 255.78 1519.48 688.18 1519.48 688.18 1777.59 255.78 1777.59 236.62 1777.59 236.62 1796.84 236.62 1844.06 39.1 1844.06" style="fill:none"/></g></g><g class="clickable" id="D1-0E-10" data-name="customclass D1-0E-10"><rect id="_tracciato_6" data-name=" tracciato 6" x="859.44" y="1454.82" width="275.63" height="389.24" style="fill:#ddd;stroke:#ddd;stroke-miterlimit:10"/></g><g class="clickable" id="D1-0E-09" data-name="customclass D1-0E-09"><rect id="_tracciato_7" data-name=" tracciato 7" x="1154.24" y="1454.82" width="522.61" height="389.24" style="fill:#ddd;stroke:#ddd;stroke-miterlimit:10"/></g><g class="clickable" id="D1-0E-05" data-name="customclass D1-0E-05"><rect id="_tracciato_8" data-name=" tracciato 8" x="39.1" y="2078.26" width="1096.49" height="495.85" style="fill:#ddd"/></g><g class="clickable" id="D1-0E-04" data-name="customclass D1-0E-04"><rect id="_tracciato_9" data-name=" tracciato 9" x="1154.85" y="2078.26" width="250.51" height="495.85" style="fill:#ddd"/></g><g class="clickable" id="D1-0E-03" data-name="customclass D1-0E-03"><rect id="_tracciato_10" data-name=" tracciato 10" x="1424.61" y="2078.26" width="524.33" height="495.85" style="fill:#ddd"/></g><g class="clickable" id="D1-0E-02" data-name="customclass D1-0E-02"><polygon id="_tracciato_11" data-name=" tracciato 11" points="1968.19 2574.1 1968.19 2078.26 2481.48 2078.26 2481.48 2199.46 2481.48 2218.71 2481.48 2574.1 1968.19 2574.1" style="fill:#ddd"/></g><g class="clickable" id="D1-0C-01" data-name="customclass D1-0C-01"><polygon id="_tracciato_12" data-name=" tracciato 12" points="2526.63 1435.66 2526.63 1296.94 2526.63 1277.69 2526.63 753.35 3021.61 753.35 3021.61 772.6 3021.61 917.63 3021.61 936.88 3021.61 1112.29 3021.61 1131.45 3021.61 1277.69 3021.61 1296.94 3021.61 1435.66 3021.61 1454.82 3021.61 1500.32 3021.61 1519.48 3021.61 1777.59 3021.61 1796.84 3021.61 1844.06 3021.61 1863.31 3021.61 2059.01 3021.61 2078.26 3021.61 2199.46 2526.63 2199.46 2526.63 2078.26 2526.63 2059.01 2526.63 1863.31 2526.63 1435.66" style="fill:#f2f2f2"/></g><g class="clickable" id="D1-0E-11-A" data-name="customclass D1-0E-11-A"><g id="scala2"><polygon points="2423.55 1798.39 2054.43 1798.39 2054.43 1794.08 2419.24 1794.08 2419.24 1647.07 2177.18 1647.07 2177.18 1605.46 2496.24 1605.46 2496.24 1454.74 2054.43 1454.74 2054.43 1450.42 2500.56 1450.42 2500.56 1609.78 2181.5 1609.78 2181.5 1642.75 2423.55 1642.75 2423.55 1798.39" style="fill:#b7b7b7"/><polygon points="2497.79 1720.44 2117.88 1720.44 2117.88 1531.65 2300.28 1531.65 2300.28 1535.97 2122.2 1535.97 2122.2 1716.13 2497.79 1716.13 2497.79 1720.44" style="fill:#b7b7b7"/><rect x="2313.66" y="1531.57" width="184.73" height="4.32" style="fill:#b7b7b7"/><rect x="2177.19" y="1451.37" width="4.32" height="157.54" style="fill:#b7b7b7"/><rect x="2204.46" y="1453.36" width="4.32" height="155.56" style="fill:#b7b7b7"/><rect x="2177.19" y="1644.91" width="4.32" height="151.33" style="fill:#b7b7b7"/><rect x="2204.46" y="1644.91" width="4.32" height="151.33" style="fill:#b7b7b7"/><rect x="2231.74" y="1644.91" width="4.32" height="151.33" style="fill:#b7b7b7"/><rect x="2258.24" y="1644.91" width="4.32" height="151.33" style="fill:#b7b7b7"/><rect x="2285.09" y="1644.91" width="4.32" height="151.33" style="fill:#b7b7b7"/><rect x="2366.93" y="1644.91" width="4.32" height="151.33" style="fill:#b7b7b7"/><rect x="2392.65" y="1644.91" width="4.32" height="151.33" style="fill:#b7b7b7"/><rect x="2496.24" y="1644.91" width="4.32" height="151.33" style="fill:#b7b7b7"/><polygon points="2481.54 1737.51 2478.49 1734.46 2494.51 1718.44 2478.46 1701.92 2481.56 1698.91 2500.57 1718.48 2481.54 1737.51" style="fill:#b7b7b7"/><polygon points="2500.56 1647.07 2395.67 1647.07 2395.67 1642.75 2496.24 1642.75 2496.24 1609.52 2340.77 1609.52 2340.77 1605.2 2500.56 1605.2 2500.56 1647.07" style="fill:#b7b7b7"/><rect x="2311.85" y="1585.09" width="4.32" height="23.83" style="fill:#b7b7b7"/><rect x="2311.85" y="1451.37" width="4.32" height="81.75" style="fill:#b7b7b7"/><rect x="2257.98" y="1451.37" width="4.32" height="157.54" style="fill:#b7b7b7"/><rect x="2284.92" y="1485.73" width="4.32" height="123.18" style="fill:#b7b7b7"/><rect x="2231.05" y="1451.37" width="4.32" height="157.54" style="fill:#b7b7b7"/><rect x="2338.78" y="1451.37" width="4.32" height="157.54" style="fill:#b7b7b7"/><rect x="2365.72" y="1451.37" width="4.32" height="157.54" style="fill:#b7b7b7"/><rect x="2392.65" y="1451.37" width="4.32" height="157.54" style="fill:#b7b7b7"/><rect x="2311.51" y="1644.91" width="4.32" height="151.33" style="fill:#b7b7b7"/><rect x="2339.13" y="1644.91" width="4.32" height="151.33" style="fill:#b7b7b7"/><rect x="2470.26" y="1644.91" width="4.32" height="151.33" style="fill:#b7b7b7"/><rect x="2470.26" y="1451.46" width="4.32" height="154.87" style="fill:#b7b7b7"/><rect x="2445.22" y="1451.46" width="4.32" height="154.87" style="fill:#b7b7b7"/><rect x="2419.58" y="1451.46" width="4.32" height="154.87" style="fill:#b7b7b7"/><rect x="2444.62" y="1644.91" width="4.32" height="151.33" style="fill:#b7b7b7"/><path d="M2498.4,1548.74a15.28,15.28,0,1,1,15.28-15.27A15.29,15.29,0,0,1,2498.4,1548.74Zm0-26.24a11,11,0,1,0,11,11A11,11,0,0,0,2498.4,1522.5Z" style="fill:#b7b7b7"/><rect x="2310.08" y="1448.85" width="4.32" height="161.97" transform="translate(-317.83 652.57) rotate(-15.04)" style="fill:#b7b7b7"/><rect x="2297.31" y="1448.85" width="4.32" height="161.97" transform="translate(-318.27 649.26) rotate(-15.04)" style="fill:#b7b7b7"/><polygon points="2331.16 1552.8 2311.44 1533.84 2331.13 1514.24 2334.18 1517.3 2317.61 1533.78 2334.15 1549.69 2331.16 1552.8" style="fill:#b7b7b7"/></g><g id="a-3"><rect x="2060.04" y="1453.36" width="452.6" height="336.66" style="fill:none"/></g></g><g class="clickable" id="D1-0W-15" data-name="customclass D1-0W-15"><polygon id="_tracciato_13" data-name=" tracciato 13" points="3194.09 229.54 3194.09 39.02 3581.51 39.02 3581.51 229.54 3381.67 229.54 3362.42 229.54 3194.09 229.54" style="fill:#f2f2f2"/></g><g class="clickable" id="D1-0W-14" data-name="customclass D1-0W-14"><polygon id="_tracciato_14" data-name=" tracciato 14" points="3381.67 380.43 3381.67 248.79 3581.51 248.79 3600.76 248.79 3659.55 248.79 3659.55 502.24 3381.67 502.24 3381.67 399.68 3381.67 380.43" style="fill:#f2f2f2"/></g><g class="clickable" id="D1-0W-13" data-name="customclass D1-0W-13"><polygon id="_tracciato_15" data-name=" tracciato 15" points="3381.67 619.38 3381.67 521.49 3659.55 521.49 3659.55 753.35 3591.95 753.35 3572.79 753.35 3424.74 753.35 3405.58 753.35 3381.67 753.35 3381.67 638.54 3381.67 619.38" style="fill:#f2f2f2"/></g><g class="clickable" id="D1-0W-12" data-name="customclass D1-0W-12"><polygon id="_tracciato_16" data-name=" tracciato 16" points="3261.07 917.63 3241.82 917.63 3040.77 917.63 3040.77 772.6 3362.42 772.6 3381.67 772.6 3405.58 772.6 3405.58 889.14 3405.58 916.94 3261.07 917.63" style="fill:#f2f2f2"/></g><g class="clickable" id="D1-0W-11" data-name="customclass D1-0W-11"><polygon id="_tracciato_17" data-name=" tracciato 17" points="3040.77 1112.29 3040.77 936.88 3241.82 936.88 3241.82 1017.25 3241.82 1036.5 3241.82 1112.29 3040.77 1112.29" style="fill:#f2f2f2"/></g><g class="clickable" id="D1-0W-10" data-name="customclass D1-0W-10"><polygon id="_tracciato_18" data-name=" tracciato 18" points="3405.58 1131.28 3405.58 1158.3 3405.58 1277.69 3040.77 1277.69 3040.77 1131.45 3241.82 1131.45 3261.07 1131.45 3405.58 1131.28" style="fill:#f2f2f2"/></g><g class="clickable" id="D1-0W-09" data-name="customclass D1-0W-09"><polygon id="_tracciato_19" data-name=" tracciato 19" points="4051.11 1485.73 4051.11 812.74 4546.36 812.74 4546.36 1485.73 4138.47 1485.73 4119.31 1485.73 4051.11 1485.73" style="fill:#ddd"/></g><g class="clickable" id="D1-0W-08" data-name="customclass D1-0W-08"><g id="scala3"><rect x="3246.48" y="1365.05" width="221.25" height="4.32" style="fill:#b7b7b7"/><polygon points="3467.22 1409.33 3191.84 1409.33 3191.84 1325.16 3281.45 1325.16 3281.45 1329.48 3196.16 1329.48 3196.16 1405.01 3467.22 1405.01 3467.22 1409.33" style="fill:#b7b7b7"/><rect x="3244.33" y="1294.61" width="4.32" height="144.33" style="fill:#b7b7b7"/><rect x="3269.27" y="1311.52" width="4.32" height="127.42" style="fill:#b7b7b7"/><rect x="3294.14" y="1293.31" width="4.32" height="37.98" style="fill:#b7b7b7"/><rect x="3367.42" y="1294.95" width="4.32" height="143.99" style="fill:#b7b7b7"/><rect x="3318.22" y="1294.95" width="4.32" height="143.99" style="fill:#b7b7b7"/><rect x="3342.82" y="1294.95" width="4.32" height="143.99" style="fill:#b7b7b7"/><rect x="3293.53" y="1348.21" width="4.32" height="90.73" style="fill:#b7b7b7"/><rect x="3392.11" y="1294.95" width="4.32" height="143.99" style="fill:#b7b7b7"/><rect x="3416.72" y="1294.95" width="4.32" height="143.99" style="fill:#b7b7b7"/><rect x="3441.32" y="1294.95" width="4.32" height="143.99" style="fill:#b7b7b7"/><polygon points="3445.28 1426.26 3442.71 1422.79 3463.83 1407.11 3442.3 1391.48 3444.83 1387.99 3471.12 1407.07 3445.28 1426.26" style="fill:#b7b7b7"/><polygon points="3319.42 1346.63 3291.38 1327.43 3318.88 1308.2 3321.36 1311.74 3298.96 1327.39 3321.86 1343.07 3319.42 1346.63" style="fill:#b7b7b7"/><rect x="3293.75" y="1287.35" width="4.32" height="86.34" transform="translate(-189.4 2027.57) rotate(-33.29)" style="fill:#b7b7b7"/><rect x="3282.4" y="1287.23" width="4.32" height="87.17" transform="translate(-190.05 2028.3) rotate(-33.41)" style="fill:#b7b7b7"/><rect x="3296.98" y="1325.16" width="170.92" height="4.32" style="fill:#b7b7b7"/><rect x="3465.58" y="1293.14" width="4.32" height="146.15" style="fill:#b7b7b7"/><path d="M3467.3,1341.39a13.55,13.55,0,1,1,13.55-13.55A13.57,13.57,0,0,1,3467.3,1341.39Zm0-22.79a9.24,9.24,0,1,0,9.24,9.24A9.25,9.25,0,0,0,3467.3,1318.6Z" style="fill:#b7b7b7"/><polygon points="3467.73 1440.58 3137.28 1440.58 3137.28 1292.45 3443.48 1292.45 3443.48 1296.76 3141.6 1296.76 3141.6 1436.26 3467.73 1436.26 3467.73 1440.58" style="fill:#b7b7b7"/></g><polygon id="_tracciato_20" data-name=" tracciato 20" points="3040.77 1435.66 3040.77 1296.94 3405.58 1296.94 3424.74 1296.94 3572.79 1296.94 3591.95 1296.94 3659.55 1296.94 3659.55 1435.66 3494.93 1435.66 3475.68 1435.66 3040.77 1435.66" style="fill:none"/></g><g class="clickable" id="D1-0W-06" data-name="customclass D1-0W-06"><rect id="corridoio" x="3685.96" y="39.1" width="338.39" height="2019.9" style="fill:none"/></g><g class="clickable" id="D1-0W-05" data-name="customclass D1-0W-05"><polygon id="_tracciato_22" data-name=" tracciato 22" points="3040.77 2199.46 3040.77 2078.26 3439.33 2078.26 3439.33 2574.1 3040.77 2574.1 3040.77 2218.71 3040.77 2199.46" style="fill:#ddd"/></g><g class="clickable" id="D1-0W-04" data-name="customclass D1-0W-04"><rect id="_tracciato_23" data-name=" tracciato 23" x="3458.58" y="2078.26" width="387.42" height="495.85" style="fill:#ddd"/></g><g class="clickable" id="D1-0W-02" data-name="customclass D1-0W-02"><polygon id="senza_codice-15" data-name="senza codice-15" points="4565.61 478.93 4565.61 172.48 5172.12 172.48 5172.12 1597 4565.61 1597 4565.61 1504.98 4565.61 1485.73 4565.61 812.74 4565.61 793.58 4565.61 498.18 4565.61 478.93" style="fill:#ddd"/></g><g class="clickable" id="D1-0W-01" data-name="customclass D1-0W-01"><g id="scala4"><polygon points="5462 2404.65 5337.26 2404.65 5337.26 2183.4 5312.66 2183.4 5312.66 2380.39 5190.77 2380.39 5190.77 2074.2 5195.08 2074.2 5195.08 2376.08 5308.34 2376.08 5308.34 2179.08 5341.57 2179.08 5341.57 2400.33 5457.68 2400.33 5457.68 2074.2 5462 2074.2 5462 2404.65" style="fill:#b7b7b7"/><polygon points="5403.9 2401.97 5399.59 2401.97 5399.59 2130.91 5255.68 2130.91 5255.68 2219.83 5251.37 2219.83 5251.37 2126.6 5403.9 2126.6 5403.9 2401.97" style="fill:#b7b7b7"/><rect x="5338.47" y="2179.08" width="122.32" height="4.32" style="fill:#b7b7b7"/><rect x="5338.47" y="2204.03" width="122.32" height="4.32" style="fill:#b7b7b7"/><rect x="5191.03" y="2179.08" width="119.47" height="4.32" style="fill:#b7b7b7"/><rect x="5277" y="2228.89" width="33.49" height="4.32" style="fill:#b7b7b7"/><rect x="5190.42" y="2228.89" width="58.61" height="4.32" style="fill:#b7b7b7"/><rect x="5192.92" y="2253.24" width="117.57" height="4.32" style="fill:#b7b7b7"/><rect x="5192.92" y="2277.67" width="117.57" height="4.32" style="fill:#b7b7b7"/><rect x="5192.92" y="2352.6" width="117.57" height="4.32" style="fill:#b7b7b7"/><polygon points="5341.75 2408.71 5308.25 2408.71 5308.25 2379.01 5312.57 2379.01 5312.57 2404.39 5337.43 2404.39 5337.43 2328.86 5341.75 2328.86 5341.75 2408.71" style="fill:#b7b7b7"/><rect x="5338.47" y="2302.18" width="122.32" height="4.32" style="fill:#b7b7b7"/><rect x="5338.47" y="2252.89" width="122.32" height="4.32" style="fill:#b7b7b7"/><rect x="5338.47" y="2277.58" width="122.32" height="4.32" style="fill:#b7b7b7"/><rect x="5338.47" y="2228.29" width="122.32" height="4.32" style="fill:#b7b7b7"/><rect x="5338.47" y="2326.79" width="122.32" height="4.32" style="fill:#b7b7b7"/><rect x="5338.47" y="2351.47" width="122.32" height="4.32" style="fill:#b7b7b7"/><rect x="5338.47" y="2376.08" width="122.32" height="4.32" style="fill:#b7b7b7"/><rect x="5192.92" y="2301.92" width="117.57" height="4.32" style="fill:#b7b7b7"/><rect x="5192.92" y="2327.13" width="117.57" height="4.32" style="fill:#b7b7b7"/><polygon points="5401.64 2405.45 5379.64 2379.72 5382.93 2376.92 5401.68 2398.85 5420.49 2377.33 5423.74 2380.17 5401.64 2405.45" style="fill:#b7b7b7"/><polygon points="5272.62 2256.82 5253.76 2237.73 5234.75 2256.41 5231.73 2253.34 5253.81 2231.63 5275.69 2253.79 5272.62 2256.82" style="fill:#b7b7b7"/><rect x="5248.91" y="2168.15" width="4.32" height="127.19" transform="translate(1149.96 6198.51) rotate(-67.07)" style="fill:#b7b7b7"/><rect x="5248.91" y="2156.49" width="4.32" height="127.19" transform="translate(1160.69 6191.4) rotate(-67.07)" style="fill:#b7b7b7"/><rect x="5251.37" y="2231.74" width="4.32" height="146.84" style="fill:#b7b7b7"/><rect x="5218.99" y="2204.03" width="91.16" height="4.32" style="fill:#b7b7b7"/></g><rect id="_tracciato_25" data-name=" tracciato 25" x="5194.22" y="2078.26" width="265.71" height="446.3" style="fill:none"/></g></g><g id="walls"><path d="M1931.51,1435.66v427.65h550v5.27h19.25v-75.71h-441v-338h441v-25h-19.25v5.87ZM2059.61,1812h421.87v32H1950.67V1454.82h89.69V1812Z" style="fill:#b7b7b7"/><polygon points="1696.1 1863.31 1696.1 1844.06 1696.1 1454.82 1696.1 1435.66 1676.85 1435.66 1327.32 1435.66 1327.32 1454.82 1676.85 1454.82 1676.85 1844.06 1327.32 1844.06 1327.32 1863.31 1676.85 1863.31 1696.1 1863.31" style="fill:#b7b7b7"/><path d="M236.61,1454.82v64.66H688.18v258.11H236.61V1844H223.23v19.25H933.51V1844h-74V1454.74h74v-19.25H223.23v19.25h13.38Zm19.17,0H840.19v389.24H255.78v-47.22H707.34V1500.32H255.78Z" style="fill:#b7b7b7"/><polygon points="1134.99 1863.31 1154.24 1863.31 1235.82 1863.31 1235.82 1844.06 1154.24 1844.06 1154.24 1454.82 1235.82 1454.82 1235.82 1435.66 1154.24 1435.66 1134.99 1435.66 1024.93 1435.66 1024.93 1454.82 1134.99 1454.82 1134.99 1844.06 1024.93 1844.06 1024.93 1863.31 1134.99 1863.31" style="fill:#b7b7b7"/><polygon points="3011.08 2613.12 3040.77 2613.12 3439.33 2613.12 3458.58 2613.12 3846.01 2613.12 3865.26 2613.12 4431.54 2613.12 4431.54 2574.1 3865.26 2574.1 3865.26 2078.26 4119.31 2078.26 4138.47 2078.26 4138.47 2059.01 4138.47 1914.5 4119.31 1914.5 4119.31 2059.01 3865.26 2059.01 3846.01 2059.01 3787.74 2059.01 3787.74 2078.26 3846.01 2078.26 3846.01 2574.1 3458.58 2574.1 3458.58 2078.26 3693.99 2078.26 3693.99 2059.01 3458.58 2059.01 3439.33 2059.01 3280.84 2059.01 3280.84 2078.26 3439.33 2078.26 3439.33 2574.1 3040.77 2574.1 3040.77 2218.71 3040.77 2199.46 3040.77 2078.26 3187.09 2078.26 3187.09 2059.01 3040.77 2059.01 3040.77 2041.57 3021.61 2041.57 3021.61 2059.01 3021.61 2078.26 3021.61 2199.46 2896.35 2199.46 2896.35 2218.71 3011.08 2218.71 3011.08 2574.1 3011.08 2613.12" style="fill:#b7b7b7"/><polygon points="2512.38 2613.12 2481.48 2613.12 1968.19 2613.12 1948.94 2613.12 1424.61 2613.12 1405.36 2613.12 1154.85 2613.12 1135.6 2613.12 39.1 2613.12 0 2613.12 0 2574.1 0 2078.26 0 2059.01 0 1863.31 0 1844.06 0 1714.14 39.1 1714.14 39.1 1844.06 96.17 1844.06 96.17 1863.31 39.1 1863.31 39.1 2059.01 670.65 2059.01 670.65 2078.26 39.1 2078.26 39.1 2574.1 1135.6 2574.1 1135.6 2183.14 1154.85 2183.14 1154.85 2574.1 1405.36 2574.1 1405.36 2078.26 1334.32 2078.26 1334.32 2059.01 1405.36 2059.01 1424.61 2059.01 1792.78 2059.01 1792.78 2078.26 1424.61 2078.26 1424.61 2574.1 1948.94 2574.1 1948.94 2078.26 1891.28 2078.26 1891.28 2059.01 1948.94 2059.01 1968.19 2059.01 2481.48 2059.01 2481.48 2041.57 2500.73 2041.57 2500.73 2059.01 2500.73 2078.26 2500.73 2199.46 2646.36 2199.46 2646.36 2218.71 2512.38 2218.71 2512.38 2381.77 2481.48 2381.77 2481.48 2218.71 2481.48 2199.46 2481.48 2078.26 1968.19 2078.26 1968.19 2574.1 2481.48 2574.1 2481.48 2480.27 2512.38 2480.27 2512.38 2574.1 2512.38 2613.12" style="fill:#b7b7b7"/><polygon points="1154.85 2059.01 1135.6 2059.01 769.15 2059.01 769.15 2078.26 1135.6 2078.26 1135.6 2084.64 1154.85 2084.64 1154.85 2078.26 1235.82 2078.26 1235.82 2059.01 1154.85 2059.01" style="fill:#b7b7b7"/><rect x="492.39" y="1277.69" width="1303.32" height="19.25" style="fill:#b7b7b7"/><path d="M5459.93,2517.56v7H5194.22v-9.32H5175v58.87H4525.29v39h973.57v-95.56Zm0,56.54H5194.22v-30.3h265.71Z" style="fill:#b7b7b7"/><path d="M2901,753.35h120.6v43.08h19.25V772.52h364.72v54.12h19.25V772.43h148V889h-148V883.1h-19.25v32h19.25v-7h148v108.94h-148v-45.4h-19.25v45.4H3261.07V917.45H3040.86v-23.3h-19.25v55.33h19.25V936.62h201V1112h-201v-64.66h-19.25v96.17h19.25v-12.09h220.21v-95h144.51v40.74h19.25V1036.5h148v102.55h-148v-5.27h-19.25v33.76h19.25v-9.33h148v119.48h-148v-53.61h-19.25v53.61H3040.86V1241.6h-19.25v277.88h353.67v258.11H3058.9v.6h-37.29v101.35h19.25v-16.32h454.07v-85.63H3394.44V1519.48h100.49v-64.66H3678.8v-50.67h-19.25v31.42H3040.77V1296.94h618.78v32.63h19.25V679.37h-19.25v74H3381.67V700.87h-19.25v52.48H3146V638.54h216.42v5.78h19.25V614h-19.25v5.27H3146v-97.8h216.42v36.08h19.25V521.49h278v60h19.25V431.19h-19.25v71h-278v-38.5h-19.25v38.5H3146V399.68h216.42v7.6h19.25V372.92h-19.25v7.51H3146V248.79h216.42v67.59h19.25V248.79h278V333.3h19.25V229.62h-78V220.3H3581.6v9.32H3146.17V39.1H3581.6V137h19.25V39.1h787.7V153.31H4032V333.38h19.25V300.75h89.69V281.5H4051.2V172.56h321V281.5H4244.57v19.25h127.58V479h-321V437.06h-19.25V581.57h19.25V498.26h495.25V793.67H4051.11V685.16h-19.25v625.76h19.25V812.83h495.25v673H4051.11V1408.9h-19.25v96.16h87.36v189.23h19.25V1505h407.89v111.27h138.11V1597H4565.52V450.35h-19.25v28.58h-155V172.48h155v174.2h19.25V172.48h494.12V153.23H4407.11V39H4939V0H3107V714.33H2900.93v39Zm574.67,1043.49v47.22H3040.77v-47.22Zm0-342v45.41H3040.77v-45.41ZM3592,1158.3V772.6h67.6v505.17H3592Z" style="fill:#b7b7b7"/><polygon points="39.1 1586.55 39.1 1454.82 96.17 1454.82 96.17 1435.66 39.1 1435.66 39.1 1296.94 123.53 1296.94 123.53 1277.69 39.1 1277.69 39.1 753.35 321.64 753.35 321.64 1277.69 215.03 1277.69 215.03 1296.94 321.64 1296.94 340.89 1296.94 400.89 1296.94 400.89 1277.69 340.89 1277.69 340.89 753.35 1134.99 753.35 1134.99 1121.01 1154.24 1121.01 1154.24 753.35 1932.02 753.35 1932.02 1277.69 1887.22 1277.69 1887.22 1296.94 1932.02 1296.94 1951.27 1296.94 2026.46 1296.94 2026.46 1277.69 1951.27 1277.69 1951.27 753.35 2481.48 753.35 2481.48 1277.69 2117.88 1277.69 2117.88 1296.94 2481.48 1296.94 2481.48 1302.2 2500.73 1302.2 2500.73 1296.94 2500.73 1277.69 2500.73 753.35 2637.64 753.35 2637.64 714.33 2500.73 714.33 2481.48 714.33 1951.27 714.33 1932.02 714.33 1154.24 714.33 1134.99 714.33 340.89 714.33 321.64 714.33 39.1 714.33 0 714.33 0 753.35 0 1277.69 0 1296.94 0 1435.66 0 1454.82 0 1586.55 39.1 1586.55" style="fill:#b7b7b7"/><polygon points="5042.72 39.02 5328.28 39.02 5328.28 1134.99 5328.28 1167.02 5347.44 1167.02 5459.93 1167.02 5459.93 2059.01 5194.22 2059.01 5175.06 2059.01 5175.06 2078.26 5175.06 2416.22 5194.22 2416.22 5194.22 2078.26 5459.93 2078.26 5459.93 2403.36 5498.94 2403.36 5498.94 2078.26 5498.94 2059.01 5498.94 1154.24 5498.94 1134.99 5498.94 1134.99 5459.93 1134.99 5459.93 1134.99 5361.43 1134.99 5361.43 39.02 5459.93 39.02 5459.93 39.02 5498.94 39.02 5498.94 39.02 5498.94 0 5459.93 0 5347.44 0 5328.28 0 5042.72 0 5042.72 39.02" style="fill:#b7b7b7"/><polygon points="5172.12 1616.25 5191.37 1616.25 5191.37 1597 5191.37 172.48 5191.37 153.23 5172.12 153.23 5163.4 153.23 5163.4 172.48 5172.12 172.48 5172.12 1597 5040.39 1597 5040.39 1616.25 5172.12 1616.25" style="fill:#b7b7b7"/></g></g></svg>