<svg id="Livello_1" data-name="Livello 1" xmlns="http://www.w3.org/2000/svg" xmlns:xlink="http://www.w3.org/1999/xlink" viewBox="0 0 5499.94 2614.12"><defs><pattern id="locale_tecnico-17_1_" data-name="locale tecnico-17 1 " width="38.5" height="38.5" patternTransform="translate(-17908.11 -22802.31) rotate(180) scale(0.58)" patternUnits="userSpaceOnUse" viewBox="0 0 38.5 38.5"><rect width="38.5" height="38.5" style="fill:none"/><rect width="38.5" height="38.5" style="fill:none"/><rect width="38.5" height="38.5" style="fill:none"/><rect width="38.5" height="38.5" style="fill:none"/><rect width="38.5" height="38.5" style="fill:none"/><rect width="38.5" height="38.5" style="fill:none"/><rect width="38.5" height="38.5" style="fill:none"/><rect width="38.5" height="38.5" style="fill:none"/><rect width="38.5" height="38.5" style="fill:none"/><rect x="35.8" y="35.1" width="40.5" height="39.2" style="fill:#f2f2f2"/><line x1="38.5" y1="38.5" x2="77" y2="77" style="fill:none;stroke:#ddd;stroke-linecap:square;stroke-linejoin:round;stroke-width:20px"/><rect x="-2.7" y="35.1" width="40.5" height="39.2" style="fill:#f2f2f2"/><line y1="38.5" x2="38.5" y2="77" style="fill:none;stroke:#ddd;stroke-linecap:square;stroke-linejoin:round;stroke-width:20px"/><line x1="-38.5" y1="38.5" y2="77" style="fill:none;stroke:#ddd;stroke-linecap:square;stroke-linejoin:round;stroke-width:20px"/><rect x="35.8" y="-3.4" width="40.5" height="39.2" style="fill:#f2f2f2"/><line x1="38.5" x2="77" y2="38.5" style="fill:none;stroke:#ddd;stroke-linecap:square;stroke-linejoin:round;stroke-width:20px"/><rect x="-2.7" y="-3.4" width="40.5" height="39.2" style="fill:#f2f2f2"/><line x2="38.5" y2="38.5" style="fill:none;stroke:#ddd;stroke-linecap:square;stroke-linejoin:round;stroke-width:20px"/><line x1="-38.5" y2="38.5" style="fill:none;stroke:#ddd;stroke-linecap:square;stroke-linejoin:round;stroke-width:20px"/><line x1="38.5" y1="-38.5" x2="77" style="fill:none;stroke:#ddd;stroke-linecap:square;stroke-linejoin:round;stroke-width:20px"/><line y1="-38.5" x2="38.5" style="fill:none;stroke:#ddd;stroke-linecap:square;stroke-linejoin:round;stroke-width:20px"/><line x1="-38.5" y1="-38.5" style="fill:none;stroke:#ddd;stroke-linecap:square;stroke-linejoin:round;stroke-width:20px"/></pattern><pattern id="locale_tecnico-17_1_3" data-name="locale tecnico-17 1 3" width="38.5" height="38.5" patternTransform="translate(-17914.76 -22795.31) rotate(180) scale(0.58)" patternUnits="userSpaceOnUse" viewBox="0 0 38.5 38.5"><rect width="38.5" height="38.5" style="fill:none"/><rect width="38.5" height="38.5" style="fill:none"/><rect width="38.5" height="38.5" style="fill:none"/><rect width="38.5" height="38.5" style="fill:none"/><rect width="38.5" height="38.5" style="fill:none"/><rect width="38.5" height="38.5" style="fill:none"/><rect width="38.5" height="38.5" style="fill:none"/><rect width="38.5" height="38.5" style="fill:none"/><rect width="38.5" height="38.5" style="fill:none"/><rect x="35.8" y="35.1" width="40.5" height="39.2" style="fill:#f2f2f2"/><line x1="38.5" y1="38.5" x2="77" y2="77" style="fill:none;stroke:#ddd;stroke-linecap:square;stroke-linejoin:round;stroke-width:20px"/><rect x="-2.7" y="35.1" width="40.5" height="39.2" style="fill:#f2f2f2"/><line y1="38.5" x2="38.5" y2="77" style="fill:none;stroke:#ddd;stroke-linecap:square;stroke-linejoin:round;stroke-width:20px"/><line x1="-38.5" y1="38.5" y2="77" style="fill:none;stroke:#ddd;stroke-linecap:square;stroke-linejoin:round;stroke-width:20px"/><rect x="35.8" y="-3.4" width="40.5" height="39.2" style="fill:#f2f2f2"/><line x1="38.5" x2="77" y2="38.5" style="fill:none;stroke:#ddd;stroke-linecap:square;stroke-linejoin:round;stroke-width:20px"/><rect x="-2.7" y="-3.4" width="40.5" height="39.2" style="fill:#f2f2f2"/><line x2="38.5" y2="38.5" style="fill:none;stroke:#ddd;stroke-linecap:square;stroke-linejoin:round;stroke-width:20px"/><line x1="-38.5" y2="38.5" style="fill:none;stroke:#ddd;stroke-linecap:square;stroke-linejoin:round;stroke-width:20px"/><line x1="38.5" y1="-38.5" x2="77" style="fill:none;stroke:#ddd;stroke-linecap:square;stroke-linejoin:round;stroke-width:20px"/><line y1="-38.5" x2="38.5" style="fill:none;stroke:#ddd;stroke-linecap:square;stroke-linejoin:round;stroke-width:20px"/><line x1="-38.5" y1="-38.5" style="fill:none;stroke:#ddd;stroke-linecap:square;stroke-linejoin:round;stroke-width:20px"/></pattern></defs><g id="D1-floor0"><g id="background"><polygon points="5499.44 39.52 5499.44 0.5 5460.43 0.5 3194.59 0.5 3146.48 0.5 3146.48 39.52 3146.48 639.04 3146.48 714.83 3041.27 714.83 39.6 714.83 0.5 714.83 0.5 753.85 0.5 2574.6 0.5 2613.62 39.6 2613.62 5460.43 2613.62 5499.44 2613.62 5499.44 2574.6 5499.44 39.52" style="fill:#f2f2f2;stroke:#b7b7b7;stroke-miterlimit:10"/></g><g id="rooms"><polygon id="senza_codice" data-name="senza codice" points="39.6 1436.16 39.6 1297.44 322.14 1297.44 341.39 1297.44 1932.52 1297.44 1951.77 1297.44 2481.98 1297.44 2481.98 1436.16 2060.11 1436.16 2040.95 1436.16 1951.17 1436.16 1932.01 1436.16 1932.01 1455.32 1932.01 1844.56 1932.01 1863.81 1951.17 1863.81 2481.98 1863.81 2481.98 2059.51 1968.69 2059.51 1949.44 2059.51 1425.11 2059.51 1405.86 2059.51 1155.35 2059.51 1136.1 2059.51 39.6 2059.51 39.6 1863.81 237.12 1863.81 256.28 1863.81 840.69 1863.81 859.95 1863.81 1135.49 1863.81 1154.74 1863.81 1677.35 1863.81 1696.6 1863.81 1696.6 1844.56 1696.6 1455.32 1696.6 1436.16 1677.35 1436.16 1154.74 1436.16 1135.49 1436.16 859.95 1436.16 840.69 1436.16 256.28 1436.16 237.12 1436.16 39.6 1436.16" style="fill:#f2f2f2"/><rect id="senza_codice-2" data-name="senza codice-2" x="2501.23" y="2219.21" width="520.88" height="355.4" style="fill:#f2f2f2;stroke:#ddd;stroke-miterlimit:10"/><rect id="senza_codice-3" data-name="senza codice-3" x="3425.24" y="1158.8" width="147.96" height="119.47" style="fill:#f2f2f2"/><rect id="senza_codice-4" data-name="senza codice-4" x="3425.24" y="1037" width="147.96" height="102.55" style="fill:#f2f2f2"/><rect id="senza_codice-5" data-name="senza codice-5" x="3425.24" y="908.8" width="147.96" height="108.94" style="fill:#f2f2f2"/><rect id="senza_codice-6" data-name="senza codice-6" x="3425.24" y="773.1" width="147.96" height="116.54" style="fill:#f2f2f2"/><polygon id="senza_codice-7" data-name="senza codice-7" points="3194.59 714.83 3194.59 639.04 3362.92 639.04 3362.92 753.85 3194.59 753.85 3194.59 714.83" style="fill:#f2f2f2"/><rect id="senza_codice-8" data-name="senza codice-8" x="3194.59" y="521.99" width="168.42" height="97.89" style="fill:#f2f2f2"/><rect id="senza_codice-9" data-name="senza codice-9" x="3194.59" y="400.18" width="168.42" height="102.55" style="fill:#f2f2f2"/><rect id="senza_codice-10" data-name="senza codice-10" x="3194.59" y="249.29" width="168.42" height="131.64" style="fill:#f2f2f2"/><rect id="senza_codice-11" data-name="senza codice-11" x="4051.61" y="172.98" width="321.04" height="108.94" style="fill:#f2f2f2"/><rect id="senza_codice-12" data-name="senza codice-12" x="4051.61" y="301.17" width="321.04" height="178.26" style="fill:#f2f2f2"/><polygon id="senza_codice-13" data-name="senza codice-13" points="4391.9 281.92 4391.9 172.98 4546.86 172.98 4546.86 479.43 4391.9 479.43 4391.9 301.17 4391.9 281.92" style="fill:#f2f2f2"/><polygon id="senza_codice-14" data-name="senza codice-14" points="4051.61 794.08 4051.61 498.68 4372.65 498.68 4391.9 498.68 4546.86 498.68 4546.86 794.08 4051.61 794.08" style="fill:#ddd"/><polygon id="locale_tecnico-17" data-name="locale tecnico-17" points="256.28 1500.82 256.28 1455.32 840.69 1455.32 840.69 1844.56 256.28 1844.56 256.28 1797.34 688.68 1797.34 707.84 1797.34 707.84 1778.09 707.84 1519.98 707.84 1500.82 688.68 1500.82 256.28 1500.82" style="stroke-miterlimit:10;fill:url(#locale_tecnico-17_1_);stroke:url(#locale_tecnico-17_1_3)"/><polygon id="locale_tecnico-18" data-name="locale tecnico-18" points="1951.17 1844.56 1951.17 1455.32 2040.95 1455.32 2040.95 1793.28 2040.95 1812.53 2060.11 1812.53 2481.98 1812.53 2481.98 1844.56 1951.17 1844.56" style="fill:url(#locale_tecnico-17_1_)"/><polygon id="locale_tecnico-19" data-name="locale tecnico-19" points="3041.27 1844.56 3041.27 1797.34 3375.78 1797.34 3394.94 1797.34 3476.18 1797.34 3476.18 1844.56 3041.27 1844.56" style="fill:url(#locale_tecnico-17_1_)"/><polygon id="locale_tecnico-20" data-name="locale tecnico-20" points="3041.27 1500.82 3041.27 1455.32 3476.18 1455.32 3476.18 1500.82 3394.94 1500.82 3375.78 1500.82 3041.27 1500.82" style="fill:url(#locale_tecnico-17_1_)"/><polygon id="locale_tecnico-21" data-name="locale tecnico-21" points="3592.45 889.64 3592.45 773.1 3660.05 773.1 3660.05 1278.19 3592.45 1278.19 3592.45 1158.8 3592.45 1139.55 3592.45 1037 3592.45 1017.75 3592.45 908.8 3592.45 889.64" style="fill:url(#locale_tecnico-17_1_)"/><rect id="locale_tecnico-22" data-name="locale tecnico-22" x="5194.72" y="2544.3" width="265.71" height="30.3" style="fill:url(#locale_tecnico-17_1_)"/><rect id="locale_tecnico-23" data-name="locale tecnico-23" x="5347.95" y="39.52" width="150.89" height="1095.97" style="fill:url(#locale_tecnico-17_1_)"/><g class="clickable" id="D1-0E-15" data-name="customclass D1-0E-15"><rect id="_tracciato_" data-name=" tracciato " x="39.6" y="753.85" width="282.54" height="524.33" style="fill:#ddd"/></g><g class="clickable" id="D1-0E-14" data-name="customclass D1-0E-14"><polygon id="_tracciato_2" data-name=" tracciato 2" points="341.39 1278.19 341.39 753.85 1135.49 753.85 1135.49 753.85 1135.49 1278.19 341.39 1278.19" style="fill:#ddd"/></g><g class="clickable" id="D1-0E-13" data-name="customclass D1-0E-13"><polygon id="_tracciato_3" data-name=" tracciato 3" points="1135.49 1278.19 1135.49 753.85 1135.49 753.85 1135.49 1121.51 1154.74 1121.51 1154.74 753.85 1932.52 753.85 1932.52 1278.19 1135.49 1278.19" style="fill:#ddd"/></g><g class="clickable" id="D1-0E-12" data-name="customclass D1-0E-12"><rect id="_tracciato_4" data-name=" tracciato 4" x="1951.77" y="753.85" width="530.2" height="524.33" style="fill:#ddd"/></g><g class="clickable" id="D1-0E-10" data-name="customclass D1-0E-10"><rect id="_tracciato_6" data-name=" tracciato 6" x="859.94" y="1455.32" width="275.63" height="389.24" style="fill:#ddd;stroke:#ddd;stroke-miterlimit:10"/></g><g class="clickable" id="D1-0E-09" data-name="customclass D1-0E-09"><rect id="_tracciato_7" data-name=" tracciato 7" x="1154.74" y="1455.32" width="522.61" height="389.24" style="fill:#ddd;stroke:#ddd;stroke-miterlimit:10"/></g><g class="clickable" id="D1-0E-05" data-name="customclass D1-0E-05"><rect id="_tracciato_8" data-name=" tracciato 8" x="39.6" y="2078.76" width="1096.49" height="495.85" style="fill:#ddd"/></g><g class="clickable" id="D1-0E-04" data-name="customclass D1-0E-04"><rect id="_tracciato_9" data-name=" tracciato 9" x="1155.35" y="2078.76" width="250.51" height="495.85" style="fill:#ddd"/></g><g class="clickable" id="D1-0E-03" data-name="customclass D1-0E-03"><rect id="_tracciato_10" data-name=" tracciato 10" x="1425.11" y="2078.76" width="524.33" height="495.85" style="fill:#ddd"/></g><g class="clickable" id="D1-0E-02" data-name="customclass D1-0E-02"><polygon id="_tracciato_11" data-name=" tracciato 11" points="1968.69 2574.6 1968.69 2078.76 2481.98 2078.76 2481.98 2199.96 2481.98 2219.21 2481.98 2574.6 1968.69 2574.6" style="fill:#ddd"/></g><g class="clickable" id="D1-0C-01" data-name="customclass D1-0C-01"><polygon id="_tracciato_12" data-name=" tracciato 12" points="2527.13 1436.16 2527.13 1297.44 2527.13 1278.19 2527.13 753.85 3022.11 753.85 3022.11 773.1 3022.11 918.13 3022.11 937.38 3022.11 1112.79 3022.11 1131.95 3022.11 1278.19 3022.11 1297.44 3022.11 1436.16 3022.11 1455.32 3022.11 1500.82 3022.11 1519.98 3022.11 1778.09 3022.11 1797.34 3022.11 1844.56 3022.11 1863.81 3022.11 2059.51 3022.11 2078.76 3022.11 2199.96 2527.13 2199.96 2527.13 2078.76 2527.13 2059.51 2527.13 1863.81 2527.13 1436.16" style="fill:#f2f2f2"/></g><g class="clickable" id="D1-0W-15" data-name="customclass D1-0W-15"><polygon id="_tracciato_13" data-name=" tracciato 13" points="3194.59 230.04 3194.59 39.52 3582.01 39.52 3582.01 230.04 3382.17 230.04 3362.92 230.04 3194.59 230.04" style="fill:#f2f2f2"/></g><g class="clickable" id="D1-0W-14" data-name="customclass D1-0W-14"><polygon id="_tracciato_14" data-name=" tracciato 14" points="3382.17 380.93 3382.17 249.29 3582.01 249.29 3601.26 249.29 3660.05 249.29 3660.05 502.74 3382.17 502.74 3382.17 400.18 3382.17 380.93" style="fill:#f2f2f2"/></g><g class="clickable" id="D1-0W-13" data-name="customclass D1-0W-13"><polygon id="_tracciato_15" data-name=" tracciato 15" points="3382.17 619.88 3382.17 521.99 3660.05 521.99 3660.05 753.85 3592.45 753.85 3573.29 753.85 3425.24 753.85 3406.08 753.85 3382.17 753.85 3382.17 639.04 3382.17 619.88" style="fill:#f2f2f2"/></g><g class="clickable" id="D1-0W-12" data-name="customclass D1-0W-12"><polygon id="_tracciato_16" data-name=" tracciato 16" points="3261.57 918.13 3242.32 918.13 3041.27 918.13 3041.27 773.1 3362.92 773.1 3382.17 773.1 3406.08 773.1 3406.08 889.64 3406.08 917.44 3261.57 918.13" style="fill:#f2f2f2"/></g><g class="clickable" id="D1-0W-11" data-name="customclass D1-0W-11"><polygon id="_tracciato_17" data-name=" tracciato 17" points="3041.27 1112.79 3041.27 937.38 3242.32 937.38 3242.32 1017.75 3242.32 1037 3242.32 1112.79 3041.27 1112.79" style="fill:#f2f2f2"/></g><g class="clickable" id="D1-0W-10" data-name="customclass D1-0W-10"><polygon id="_tracciato_18" data-name=" tracciato 18" points="3406.08 1131.78 3406.08 1158.8 3406.08 1278.19 3041.27 1278.19 3041.27 1131.95 3242.32 1131.95 3261.57 1131.95 3406.08 1131.78" style="fill:#f2f2f2"/></g><g class="clickable" id="D1-0W-09" data-name="customclass D1-0W-09"><polygon id="_tracciato_19" data-name=" tracciato 19" points="4051.61 1486.23 4051.61 813.24 4546.86 813.24 4546.86 1486.23 4138.97 1486.23 4119.81 1486.23 4051.61 1486.23" style="fill:#ddd"/></g><g class="clickable" id="D1-0W-06" data-name="customclass D1-0W-06"><rect id="corridoio" x="3686.46" y="39.6" width="338.39" height="2019.9" style="fill:none"/></g><g class="clickable" id="D1-0W-05" data-name="customclass D1-0W-05"><polygon id="_tracciato_22" data-name=" tracciato 22" points="3041.27 2199.96 3041.27 2078.76 3439.83 2078.76 3439.83 2574.6 3041.27 2574.6 3041.27 2219.21 3041.27 2199.96" style="fill:#ddd"/></g><g class="clickable" id="D1-0W-04" data-name="customclass D1-0W-04"><rect id="_tracciato_23" data-name=" tracciato 23" x="3459.08" y="2078.76" width="387.42" height="495.85" style="fill:#ddd"/></g><g class="clickable" id="D1-0W-02" data-name="customclass D1-0W-02"><polygon id="senza_codice-15" data-name="senza codice-15" points="4566.11 479.43 4566.11 172.98 5172.62 172.98 5172.62 1597.5 4566.11 1597.5 4566.11 1505.48 4566.11 1486.23 4566.11 813.24 4566.11 794.08 4566.11 498.68 4566.11 479.43" style="fill:#ddd"/></g><g class="clickable" id="D1-0-STAIR-D" data-name="customclass D1-0-STAIR-D"><g id="scala3"><rect x="3246.98" y="1365.55" width="221.25" height="4.32" style="fill:#b7b7b7"/><polygon points="3467.72 1409.83 3192.34 1409.83 3192.34 1325.66 3281.95 1325.66 3281.95 1329.98 3196.66 1329.98 3196.66 1405.51 3467.72 1405.51 3467.72 1409.83" style="fill:#b7b7b7"/><rect x="3244.83" y="1295.11" width="4.32" height="144.33" style="fill:#b7b7b7"/><rect x="3269.77" y="1312.02" width="4.32" height="127.42" style="fill:#b7b7b7"/><rect x="3294.64" y="1293.81" width="4.32" height="37.98" style="fill:#b7b7b7"/><rect x="3367.92" y="1295.45" width="4.32" height="143.99" style="fill:#b7b7b7"/><rect x="3318.72" y="1295.45" width="4.32" height="143.99" style="fill:#b7b7b7"/><rect x="3343.32" y="1295.45" width="4.32" height="143.99" style="fill:#b7b7b7"/><rect x="3294.03" y="1348.71" width="4.32" height="90.73" style="fill:#b7b7b7"/><rect x="3392.61" y="1295.45" width="4.32" height="143.99" style="fill:#b7b7b7"/><rect x="3417.22" y="1295.45" width="4.32" height="143.99" style="fill:#b7b7b7"/><rect x="3441.82" y="1295.45" width="4.32" height="143.99" style="fill:#b7b7b7"/><polygon points="3445.78 1426.76 3443.21 1423.29 3464.33 1407.61 3442.8 1391.98 3445.33 1388.49 3471.62 1407.57 3445.78 1426.76" style="fill:#b7b7b7"/><polygon points="3319.92 1347.13 3291.88 1327.93 3319.38 1308.7 3321.86 1312.24 3299.46 1327.89 3322.36 1343.57 3319.92 1347.13" style="fill:#b7b7b7"/><rect x="3293.79" y="1287.54" width="4.32" height="86.34" transform="translate(-189.04 2027.94) rotate(-33.29)" style="fill:#b7b7b7"/><rect x="3282.36" y="1287.05" width="4.32" height="87.17" transform="translate(-189.42 2028.93) rotate(-33.41)" style="fill:#b7b7b7"/><rect x="3297.48" y="1325.66" width="170.92" height="4.32" style="fill:#b7b7b7"/><rect x="3466.08" y="1293.64" width="4.32" height="146.15" style="fill:#b7b7b7"/><path d="M3467.3,1341.39a13.55,13.55,0,1,1,13.55-13.55A13.55,13.55,0,0,1,3467.3,1341.39Zm0-22.79a9.24,9.24,0,1,0,9.24,9.24h0A9.25,9.25,0,0,0,3467.3,1318.6Z" transform="translate(0.5 0.5)" style="fill:#b7b7b7"/><polygon points="3468.23 1441.08 3137.78 1441.08 3137.78 1292.95 3443.98 1292.95 3443.98 1297.26 3142.1 1297.26 3142.1 1436.76 3468.23 1436.76 3468.23 1441.08" style="fill:#b7b7b7"/></g><polygon id="_tracciato_20" data-name=" tracciato 20" points="3041.27 1436.16 3041.27 1297.44 3406.08 1297.44 3425.24 1297.44 3573.29 1297.44 3592.45 1297.44 3660.05 1297.44 3660.05 1436.16 3495.43 1436.16 3476.18 1436.16 3041.27 1436.16" style="fill:none"/></g><g class="clickable" id="D1-0-STAIR-C" data-name="customclass D1-0-STAIR-C"><g id="scala4"><polygon points="5462.5 2405.15 5337.76 2405.15 5337.76 2183.9 5313.16 2183.9 5313.16 2380.89 5191.27 2380.89 5191.27 2074.7 5195.58 2074.7 5195.58 2376.58 5308.84 2376.58 5308.84 2179.58 5342.07 2179.58 5342.07 2400.83 5458.18 2400.83 5458.18 2074.7 5462.5 2074.7 5462.5 2405.15" style="fill:#b7b7b7"/><polygon points="5404.4 2402.47 5400.09 2402.47 5400.09 2131.41 5256.18 2131.41 5256.18 2220.33 5251.87 2220.33 5251.87 2127.1 5404.4 2127.1 5404.4 2402.47" style="fill:#b7b7b7"/><rect x="5338.97" y="2179.58" width="122.32" height="4.32" style="fill:#b7b7b7"/><rect x="5338.97" y="2204.53" width="122.32" height="4.32" style="fill:#b7b7b7"/><rect x="5191.53" y="2179.58" width="119.47" height="4.32" style="fill:#b7b7b7"/><rect x="5277.5" y="2229.39" width="33.49" height="4.32" style="fill:#b7b7b7"/><rect x="5190.92" y="2229.39" width="58.61" height="4.32" style="fill:#b7b7b7"/><rect x="5193.42" y="2253.74" width="117.57" height="4.32" style="fill:#b7b7b7"/><rect x="5193.42" y="2278.17" width="117.57" height="4.32" style="fill:#b7b7b7"/><rect x="5193.42" y="2353.1" width="117.57" height="4.32" style="fill:#b7b7b7"/><polygon points="5342.25 2409.21 5308.75 2409.21 5308.75 2379.51 5313.07 2379.51 5313.07 2404.89 5337.93 2404.89 5337.93 2329.36 5342.25 2329.36 5342.25 2409.21" style="fill:#b7b7b7"/><rect x="5338.97" y="2302.68" width="122.32" height="4.32" style="fill:#b7b7b7"/><rect x="5338.97" y="2253.39" width="122.32" height="4.32" style="fill:#b7b7b7"/><rect x="5338.97" y="2278.08" width="122.32" height="4.32" style="fill:#b7b7b7"/><rect x="5338.97" y="2228.79" width="122.32" height="4.32" style="fill:#b7b7b7"/><rect x="5338.97" y="2327.29" width="122.32" height="4.32" style="fill:#b7b7b7"/><rect x="5338.97" y="2351.97" width="122.32" height="4.32" style="fill:#b7b7b7"/><rect x="5338.97" y="2376.58" width="122.32" height="4.32" style="fill:#b7b7b7"/><rect x="5193.42" y="2302.42" width="117.57" height="4.32" style="fill:#b7b7b7"/><rect x="5193.42" y="2327.63" width="117.57" height="4.32" style="fill:#b7b7b7"/><polygon points="5402.14 2405.95 5380.14 2380.22 5383.43 2377.42 5402.18 2399.35 5420.99 2377.83 5424.24 2380.67 5402.14 2405.95" style="fill:#b7b7b7"/><polygon points="5273.12 2257.32 5254.26 2238.23 5235.25 2256.91 5232.23 2253.84 5254.31 2232.13 5276.19 2254.29 5273.12 2257.32" style="fill:#b7b7b7"/><rect x="5249.05" y="2168.28" width="4.32" height="127.19" transform="translate(1150.29 6199.08) rotate(-67.07)" style="fill:#b7b7b7"/><rect x="5249.04" y="2156.62" width="4.32" height="127.19" transform="translate(1161.02 6191.96) rotate(-67.07)" style="fill:#b7b7b7"/><rect x="5251.87" y="2232.24" width="4.32" height="146.84" style="fill:#b7b7b7"/><rect x="5219.49" y="2204.53" width="91.16" height="4.32" style="fill:#b7b7b7"/></g><rect id="_tracciato_25" data-name=" tracciato 25" x="5194.72" y="2078.76" width="265.71" height="446.3" style="fill:none"/></g><g class="clickable" id="D1-0-STAIR-B" data-name="customclass D1-0-STAIR-B"><g id="scala1"><polygon points="698.52 1782.84 328.01 1782.84 328.01 1659.65 599.42 1659.65 599.42 1635.4 328.01 1635.4 328.01 1515.06 698.52 1515.06 698.52 1519.38 332.33 1519.38 332.33 1631.08 603.73 1631.08 603.73 1663.97 332.33 1663.97 332.33 1778.52 698.52 1778.52 698.52 1782.84" style="fill:#b7b7b7"/><polygon points="634.12 1725.52 240.91 1725.52 240.91 1721.2 629.8 1721.2 629.8 1579.2 461.13 1579.2 461.13 1574.88 634.12 1574.88 634.12 1725.52" style="fill:#b7b7b7"/><rect x="546.41" y="1660.86" width="4.32" height="120.77" style="fill:#b7b7b7"/><rect x="571.62" y="1660.86" width="4.32" height="120.77" style="fill:#b7b7b7"/><rect x="521.81" y="1660.86" width="4.32" height="120.77" style="fill:#b7b7b7"/><rect x="571.62" y="1517.22" width="4.32" height="116.02" style="fill:#b7b7b7"/><rect x="546.41" y="1517.65" width="4.32" height="115.59" style="fill:#b7b7b7"/><rect x="497.21" y="1517.22" width="4.32" height="116.02" style="fill:#b7b7b7"/><rect x="473.3" y="1543.29" width="4.32" height="89.95" style="fill:#b7b7b7"/><rect x="449.13" y="1517.22" width="4.32" height="55.51" style="fill:#b7b7b7"/><rect x="449.13" y="1600.69" width="4.32" height="31.51" style="fill:#b7b7b7"/><rect x="375.23" y="1517.22" width="4.32" height="116.02" style="fill:#b7b7b7"/><rect x="352.01" y="1517.22" width="4.32" height="116.02" style="fill:#b7b7b7"/><polygon points="402.94 1664.14 234.35 1664.14 234.35 1631.08 353.39 1631.08 353.39 1635.4 238.67 1635.4 238.67 1659.83 402.94 1659.83 402.94 1664.14" style="fill:#b7b7b7"/><rect x="424.96" y="1660.86" width="4.32" height="120.77" style="fill:#b7b7b7"/><rect x="473.56" y="1660.86" width="4.32" height="120.77" style="fill:#b7b7b7"/><rect x="449.21" y="1660.86" width="4.32" height="120.77" style="fill:#b7b7b7"/><rect x="497.81" y="1660.86" width="4.32" height="120.77" style="fill:#b7b7b7"/><rect x="400.61" y="1660.86" width="4.32" height="120.77" style="fill:#b7b7b7"/><rect x="376.27" y="1660.86" width="4.32" height="120.77" style="fill:#b7b7b7"/><rect x="352.01" y="1660.86" width="4.32" height="120.77" style="fill:#b7b7b7"/><rect x="296.68" y="1517.22" width="4.32" height="116.02" style="fill:#b7b7b7"/><rect x="296.68" y="1660.86" width="4.32" height="120.77" style="fill:#b7b7b7"/><rect x="266.98" y="1517.22" width="4.32" height="116.02" style="fill:#b7b7b7"/><rect x="266.98" y="1660.86" width="4.32" height="120.77" style="fill:#b7b7b7"/><rect x="236.68" y="1660.86" width="4.32" height="120.77" style="fill:#b7b7b7"/><rect x="425.22" y="1517.22" width="4.32" height="116.02" style="fill:#b7b7b7"/><rect x="400.27" y="1517.22" width="4.32" height="116.02" style="fill:#b7b7b7"/><polygon points="260.75 1745.04 237.76 1723.16 261.2 1701.49 264.13 1704.66 244.07 1723.21 263.72 1741.91 260.75 1745.04" style="fill:#b7b7b7"/><polygon points="428.84 1599 425.91 1595.83 446.05 1577.28 426.32 1558.58 429.29 1555.45 452.38 1577.32 428.84 1599" style="fill:#b7b7b7"/><rect x="387.39" y="1571.79" width="125.52" height="4.32" transform="translate(-1174.28 1375.53) rotate(-67.06)" style="fill:#b7b7b7"/><rect x="398.88" y="1571.79" width="125.52" height="4.32" transform="translate(-1167.27 1386.1) rotate(-67.06)" style="fill:#b7b7b7"/><rect x="268.54" y="1574.88" width="180.68" height="4.32" style="fill:#b7b7b7"/><rect x="521.81" y="1519.72" width="4.32" height="113.26" style="fill:#b7b7b7"/><path d="M268.64,1590.18a13.56,13.56,0,1,1,13.55-13.57v0A13.57,13.57,0,0,1,268.64,1590.18Zm0-22.79a9.24,9.24,0,1,0,9.24,9.24h0A9.25,9.25,0,0,0,268.64,1567.39Z" transform="translate(0.5 0.5)" style="fill:#b7b7b7"/></g><g id="a-2"><polygon id="_tracciato_5" data-name=" tracciato 5" points="39.6 1844.56 39.6 1455.32 237.12 1455.32 237.12 1500.82 237.12 1519.98 256.28 1519.98 688.68 1519.98 688.68 1778.09 256.28 1778.09 237.12 1778.09 237.12 1797.34 237.12 1844.56 39.6 1844.56" style="fill:none"/></g></g><g class="clickable" id="D1-0-LIFT-A" data-name="customclass D1-0-LIFT-A"><rect id="a" x="3041.27" y="1519.98" width="334.42" height="258.11" style="fill:#f2f2f2"/></g><g class="clickable" id="D1-0-STAIR-A" data-name="customclass D1-0-STAIR-A"><g id="scala2"><polygon points="2424.05 1798.89 2054.93 1798.89 2054.93 1794.58 2419.74 1794.58 2419.74 1647.57 2177.68 1647.57 2177.68 1605.96 2496.74 1605.96 2496.74 1455.24 2054.93 1455.24 2054.93 1450.92 2501.06 1450.92 2501.06 1610.28 2182 1610.28 2182 1643.25 2424.05 1643.25 2424.05 1798.89" style="fill:#b7b7b7"/><polygon points="2498.29 1720.94 2118.38 1720.94 2118.38 1532.15 2300.78 1532.15 2300.78 1536.47 2122.7 1536.47 2122.7 1716.63 2498.29 1716.63 2498.29 1720.94" style="fill:#b7b7b7"/><rect x="2314.16" y="1532.07" width="184.73" height="4.32" style="fill:#b7b7b7"/><rect x="2177.69" y="1451.87" width="4.32" height="157.54" style="fill:#b7b7b7"/><rect x="2204.96" y="1453.86" width="4.32" height="155.56" style="fill:#b7b7b7"/><rect x="2177.69" y="1645.41" width="4.32" height="151.33" style="fill:#b7b7b7"/><rect x="2204.96" y="1645.41" width="4.32" height="151.33" style="fill:#b7b7b7"/><rect x="2232.24" y="1645.41" width="4.32" height="151.33" style="fill:#b7b7b7"/><rect x="2258.74" y="1645.41" width="4.32" height="151.33" style="fill:#b7b7b7"/><rect x="2285.59" y="1645.41" width="4.32" height="151.33" style="fill:#b7b7b7"/><rect x="2367.43" y="1645.41" width="4.32" height="151.33" style="fill:#b7b7b7"/><rect x="2393.15" y="1645.41" width="4.32" height="151.33" style="fill:#b7b7b7"/><rect x="2496.74" y="1645.41" width="4.32" height="151.33" style="fill:#b7b7b7"/><polygon points="2482.04 1738.01 2478.99 1734.96 2495.01 1718.94 2478.96 1702.42 2482.06 1699.41 2501.07 1718.98 2482.04 1738.01" style="fill:#b7b7b7"/><polygon points="2501.06 1647.57 2396.17 1647.57 2396.17 1643.25 2496.74 1643.25 2496.74 1610.02 2341.27 1610.02 2341.27 1605.7 2501.06 1605.7 2501.06 1647.57" style="fill:#b7b7b7"/><rect x="2312.35" y="1585.59" width="4.32" height="23.83" style="fill:#b7b7b7"/><rect x="2312.35" y="1451.87" width="4.32" height="81.75" style="fill:#b7b7b7"/><rect x="2258.48" y="1451.87" width="4.32" height="157.54" style="fill:#b7b7b7"/><rect x="2285.42" y="1486.23" width="4.32" height="123.18" style="fill:#b7b7b7"/><rect x="2231.55" y="1451.87" width="4.32" height="157.54" style="fill:#b7b7b7"/><rect x="2339.28" y="1451.87" width="4.32" height="157.54" style="fill:#b7b7b7"/><rect x="2366.22" y="1451.87" width="4.32" height="157.54" style="fill:#b7b7b7"/><rect x="2393.15" y="1451.87" width="4.32" height="157.54" style="fill:#b7b7b7"/><rect x="2312.01" y="1645.41" width="4.32" height="151.33" style="fill:#b7b7b7"/><rect x="2339.63" y="1645.41" width="4.32" height="151.33" style="fill:#b7b7b7"/><rect x="2470.76" y="1645.41" width="4.32" height="151.33" style="fill:#b7b7b7"/><rect x="2470.76" y="1451.96" width="4.32" height="154.87" style="fill:#b7b7b7"/><rect x="2445.72" y="1451.96" width="4.32" height="154.87" style="fill:#b7b7b7"/><rect x="2420.08" y="1451.96" width="4.32" height="154.87" style="fill:#b7b7b7"/><rect x="2445.12" y="1645.41" width="4.32" height="151.33" style="fill:#b7b7b7"/><path d="M2498.4,1548.74a15.28,15.28,0,1,1,15.28-15.28h0A15.3,15.3,0,0,1,2498.4,1548.74Zm0-26.24a11,11,0,1,0,11,11h0A11,11,0,0,0,2498.4,1522.5Z" transform="translate(0.5 0.5)" style="fill:#b7b7b7"/><rect x="2310.03" y="1449" width="4.32" height="161.97" transform="translate(-317.32 652.91) rotate(-15.04)" style="fill:#b7b7b7"/><rect x="2297.25" y="1449.01" width="4.32" height="161.97" transform="translate(-317.76 649.59) rotate(-15.04)" style="fill:#b7b7b7"/><polygon points="2331.66 1553.3 2311.94 1534.34 2331.63 1514.74 2334.68 1517.8 2318.11 1534.28 2334.65 1550.19 2331.66 1553.3" style="fill:#b7b7b7"/></g><g id="a-3"><rect x="2060.54" y="1453.86" width="452.6" height="336.66" style="fill:none"/></g></g></g><g id="walls"><path d="M1931.51,1435.66v427.65h550v5.27h19.25v-75.71h-441v-338h441v-25h-19.25v5.87ZM2059.61,1812h421.87v32H1950.67V1454.82h89.69V1812Z" transform="translate(0.5 0.5)" style="fill:#b7b7b7"/><polygon points="1696.6 1863.81 1696.6 1844.56 1696.6 1455.32 1696.6 1436.16 1677.35 1436.16 1327.82 1436.16 1327.82 1455.32 1677.35 1455.32 1677.35 1844.56 1327.82 1844.56 1327.82 1863.81 1677.35 1863.81 1696.6 1863.81" style="fill:#b7b7b7"/><path d="M236.61,1454.82v64.66H688.18v258.11H236.61V1844H223.23v19.25H933.51V1844h-74V1454.74h74v-19.25H223.23v19.25h13.38Zm19.17,0H840.19v389.24H255.78v-47.22H707.34V1500.32H255.78Z" transform="translate(0.5 0.5)" style="fill:#b7b7b7"/><polygon points="1135.49 1863.81 1154.74 1863.81 1236.32 1863.81 1236.32 1844.56 1154.74 1844.56 1154.74 1455.32 1236.32 1455.32 1236.32 1436.16 1154.74 1436.16 1135.49 1436.16 1025.43 1436.16 1025.43 1455.32 1135.49 1455.32 1135.49 1844.56 1025.43 1844.56 1025.43 1863.81 1135.49 1863.81" style="fill:#b7b7b7"/><polygon points="3011.58 2613.62 3041.27 2613.62 3439.83 2613.62 3459.08 2613.62 3846.51 2613.62 3865.76 2613.62 4432.04 2613.62 4432.04 2574.6 3865.76 2574.6 3865.76 2078.76 4119.81 2078.76 4138.97 2078.76 4138.97 2059.51 4138.97 1915 4119.81 1915 4119.81 2059.51 3865.76 2059.51 3846.51 2059.51 3788.24 2059.51 3788.24 2078.76 3846.51 2078.76 3846.51 2574.6 3459.08 2574.6 3459.08 2078.76 3694.49 2078.76 3694.49 2059.51 3459.08 2059.51 3439.83 2059.51 3281.34 2059.51 3281.34 2078.76 3439.83 2078.76 3439.83 2574.6 3041.27 2574.6 3041.27 2219.21 3041.27 2199.96 3041.27 2078.76 3187.59 2078.76 3187.59 2059.51 3041.27 2059.51 3041.27 2042.07 3022.11 2042.07 3022.11 2059.51 3022.11 2078.76 3022.11 2199.96 2896.85 2199.96 2896.85 2219.21 3011.58 2219.21 3011.58 2574.6 3011.58 2613.62" style="fill:#b7b7b7"/><polygon points="2512.88 2613.62 2481.98 2613.62 1968.69 2613.62 1949.44 2613.62 1425.11 2613.62 1405.86 2613.62 1155.35 2613.62 1136.1 2613.62 39.6 2613.62 0.5 2613.62 0.5 2574.6 0.5 2078.76 0.5 2059.51 0.5 1863.81 0.5 1844.56 0.5 1714.64 39.6 1714.64 39.6 1844.56 96.67 1844.56 96.67 1863.81 39.6 1863.81 39.6 2059.51 671.15 2059.51 671.15 2078.76 39.6 2078.76 39.6 2574.6 1136.1 2574.6 1136.1 2183.64 1155.35 2183.64 1155.35 2574.6 1405.86 2574.6 1405.86 2078.76 1334.82 2078.76 1334.82 2059.51 1405.86 2059.51 1425.11 2059.51 1793.28 2059.51 1793.28 2078.76 1425.11 2078.76 1425.11 2574.6 1949.44 2574.6 1949.44 2078.76 1891.78 2078.76 1891.78 2059.51 1949.44 2059.51 1968.69 2059.51 2481.98 2059.51 2481.98 2042.07 2501.23 2042.07 2501.23 2059.51 2501.23 2078.76 2501.23 2199.96 2646.86 2199.96 2646.86 2219.21 2512.88 2219.21 2512.88 2382.27 2481.98 2382.27 2481.98 2219.21 2481.98 2199.96 2481.98 2078.76 1968.69 2078.76 1968.69 2574.6 2481.98 2574.6 2481.98 2480.77 2512.88 2480.77 2512.88 2574.6 2512.88 2613.62" style="fill:#b7b7b7"/><polygon points="1155.35 2059.51 1136.1 2059.51 769.65 2059.51 769.65 2078.76 1136.1 2078.76 1136.1 2085.14 1155.35 2085.14 1155.35 2078.76 1236.32 2078.76 1236.32 2059.51 1155.35 2059.51" style="fill:#b7b7b7"/><rect x="492.89" y="1278.19" width="1303.32" height="19.25" style="fill:#b7b7b7"/><path d="M5459.93,2517.56v7H5194.22v-9.32H5175v58.87H4525.29v39h973.57v-95.56Zm0,56.54H5194.22v-30.3h265.71Z" transform="translate(0.5 0.5)" style="fill:#b7b7b7"/><path d="M2901,753.35h120.6v43.08h19.25V772.52h364.72v54.12h19.25V772.43h148V889h-148v-5.9h-19.25v32h19.25v-7h148V1017h-148v-45.4h-19.25V1017h-144.5V917.45H3040.86v-23.3h-19.25v55.33h19.25V936.62h201V1112h-201v-64.66h-19.25v96.17h19.25v-12.09h220.21v-95h144.51v40.74h19.25V1036.5h148v102.55h-148v-5.27h-19.25v33.76h19.25v-9.33h148v119.48h-148v-53.61h-19.25v53.61H3040.86V1241.6h-19.25v277.88h353.67v258.11H3058.9v.6h-37.29v101.35h19.25v-16.32h454.07v-85.63H3394.44V1519.48h100.49v-64.66H3678.8v-50.67h-19.25v31.42H3040.77V1296.94h618.78v32.63h19.25V679.37h-19.25v74H3381.67v-52.5h-19.25v52.48H3146V638.54h216.42v5.78h19.25V614h-19.25v5.27H3146v-97.8h216.42v36.08h19.25V521.49h278v60h19.25V431.19h-19.25v71h-278v-38.5h-19.25v38.5H3146V399.68h216.42v7.6h19.25V372.92h-19.25v7.51H3146V248.79h216.42v67.59h19.25V248.79h278V333.3h19.25V229.62h-78V220.3H3581.6v9.32H3146.17V39.1H3581.6V137h19.25V39.1h787.7V153.31H4032V333.38h19.25V300.75h89.69V281.5H4051.2V172.56h321V281.5H4244.57v19.25h127.58V479h-321V437.06H4031.9V581.57h19.25V498.26H4546.4V793.67H4051.11V685.16h-19.25v625.76h19.25V812.83h495.25v673H4051.11V1408.9h-19.25v96.16h87.36v189.23h19.25V1505h407.89v111.27h138.11V1597H4565.52V450.35h-19.25v28.58h-155V172.48h155v174.2h19.25V172.48h494.12V153.23H4407.11V39H4939V0H3107V714.33H2900.93v39Zm574.67,1043.49v47.22h-434.9v-47.22Zm0-342v45.41h-434.9v-45.41ZM3592,1158.3V772.6h67.6v505.17H3592Z" transform="translate(0.5 0.5)" style="fill:#b7b7b7"/><polygon points="39.6 1587.05 39.6 1455.32 96.67 1455.32 96.67 1436.16 39.6 1436.16 39.6 1297.44 124.03 1297.44 124.03 1278.19 39.6 1278.19 39.6 753.85 322.14 753.85 322.14 1278.19 215.53 1278.19 215.53 1297.44 322.14 1297.44 341.39 1297.44 401.39 1297.44 401.39 1278.19 341.39 1278.19 341.39 753.85 1135.49 753.85 1135.49 1121.51 1154.74 1121.51 1154.74 753.85 1932.52 753.85 1932.52 1278.19 1887.72 1278.19 1887.72 1297.44 1932.52 1297.44 1951.77 1297.44 2026.96 1297.44 2026.96 1278.19 1951.77 1278.19 1951.77 753.85 2481.98 753.85 2481.98 1278.19 2118.38 1278.19 2118.38 1297.44 2481.98 1297.44 2481.98 1302.7 2501.23 1302.7 2501.23 1297.44 2501.23 1278.19 2501.23 753.85 2638.14 753.85 2638.14 714.83 2501.23 714.83 2481.98 714.83 1951.77 714.83 1932.52 714.83 1154.74 714.83 1135.49 714.83 341.39 714.83 322.14 714.83 39.6 714.83 0.5 714.83 0.5 753.85 0.5 1278.19 0.5 1297.44 0.5 1436.16 0.5 1455.32 0.5 1587.05 39.6 1587.05" style="fill:#b7b7b7"/><polygon points="5043.22 39.52 5328.78 39.52 5328.78 1135.49 5328.78 1167.52 5347.94 1167.52 5460.43 1167.52 5460.43 2059.51 5194.72 2059.51 5175.56 2059.51 5175.56 2078.76 5175.56 2416.72 5194.72 2416.72 5194.72 2078.76 5460.43 2078.76 5460.43 2403.86 5499.44 2403.86 5499.44 2078.76 5499.44 2059.51 5499.44 1154.74 5499.44 1135.49 5499.44 1135.49 5460.43 1135.49 5460.43 1135.49 5361.93 1135.49 5361.93 39.52 5460.43 39.52 5460.43 39.52 5499.44 39.52 5499.44 39.52 5499.44 0.5 5460.43 0.5 5347.94 0.5 5328.78 0.5 5043.22 0.5 5043.22 39.52" style="fill:#b7b7b7"/><polygon points="5172.62 1616.75 5191.87 1616.75 5191.87 1597.5 5191.87 172.98 5191.87 153.73 5172.62 153.73 5163.9 153.73 5163.9 172.98 5172.62 172.98 5172.62 1597.5 5040.89 1597.5 5040.89 1616.75 5172.62 1616.75" style="fill:#b7b7b7"/></g></g></svg>