<svg id="Livello_1" data-name="Livello 1" xmlns="http://www.w3.org/2000/svg" xmlns:xlink="http://www.w3.org/1999/xlink" viewBox="0 0 5485.49 2607.26"><defs><pattern id="locale_tecnico-21_1_" data-name="locale tecnico-21 1 " width="38.5" height="38.5" patternTransform="translate(-17730.16 -22431.8) rotate(180) scale(0.58)" patternUnits="userSpaceOnUse" viewBox="0 0 38.5 38.5"><rect width="38.5" height="38.5" style="fill:none"/><rect width="38.5" height="38.5" style="fill:none"/><rect width="38.5" height="38.5" style="fill:none"/><rect width="38.5" height="38.5" style="fill:none"/><rect width="38.5" height="38.5" style="fill:none"/><rect width="38.5" height="38.5" style="fill:none"/><rect width="38.5" height="38.5" style="fill:none"/><rect width="38.5" height="38.5" style="fill:none"/><rect width="38.5" height="38.5" style="fill:none"/><rect x="35.8" y="35.1" width="40.5" height="39.2" style="fill:#f2f2f2"/><line x1="38.5" y1="38.5" x2="77" y2="77" style="fill:none;stroke:#ddd;stroke-linecap:square;stroke-linejoin:round;stroke-width:20px"/><rect x="-2.7" y="35.1" width="40.5" height="39.2" style="fill:#f2f2f2"/><line y1="38.5" x2="38.5" y2="77" style="fill:none;stroke:#ddd;stroke-linecap:square;stroke-linejoin:round;stroke-width:20px"/><line x1="-38.5" y1="38.5" y2="77" style="fill:none;stroke:#ddd;stroke-linecap:square;stroke-linejoin:round;stroke-width:20px"/><rect x="35.8" y="-3.4" width="40.5" height="39.2" style="fill:#f2f2f2"/><line x1="38.5" x2="77" y2="38.5" style="fill:none;stroke:#ddd;stroke-linecap:square;stroke-linejoin:round;stroke-width:20px"/><rect x="-2.7" y="-3.4" width="40.5" height="39.2" style="fill:#f2f2f2"/><line x2="38.5" y2="38.5" style="fill:none;stroke:#ddd;stroke-linecap:square;stroke-linejoin:round;stroke-width:20px"/><line x1="-38.5" y2="38.5" style="fill:none;stroke:#ddd;stroke-linecap:square;stroke-linejoin:round;stroke-width:20px"/><line x1="38.5" y1="-38.5" x2="77" style="fill:none;stroke:#ddd;stroke-linecap:square;stroke-linejoin:round;stroke-width:20px"/><line y1="-38.5" x2="38.5" style="fill:none;stroke:#ddd;stroke-linecap:square;stroke-linejoin:round;stroke-width:20px"/><line x1="-38.5" y1="-38.5" style="fill:none;stroke:#ddd;stroke-linecap:square;stroke-linejoin:round;stroke-width:20px"/></pattern></defs><g id="D1-floor1"><g id="background"><polygon points="5484.99 39.42 5484.99 0.5 5446.08 0.5 3186.19 0.5 3147.19 0.5 3147.19 39.42 3147.19 637.36 3147.19 712.96 3033.28 712.96 39.5 712.96 0.5 712.96 0.5 751.87 0.5 2567.84 0.5 2606.76 39.5 2606.76 5446.08 2606.76 5484.99 2606.76 5484.99 2567.84 5484.99 39.42" style="fill:#f2f2f2;stroke:#b7b7b7;stroke-miterlimit:10"/></g><g id="rooms"><polygon id="locale_tecnico-21" data-name="locale tecnico-21" points="255.61 1496.87 255.61 1451.5 838.49 1451.5 838.49 1839.71 255.61 1839.71 255.61 1792.62 686.87 1792.62 705.98 1792.62 705.98 1773.42 705.98 1515.99 705.98 1496.87 686.87 1496.87 255.61 1496.87" style="fill:url(#locale_tecnico-21_1_)"/><rect id="locale_tecnico-22" data-name="locale tecnico-22" x="1012.83" y="1451.5" width="119.68" height="22.64" style="fill:url(#locale_tecnico-21_1_)"/><polygon id="locale_tecnico-23" data-name="locale tecnico-23" points="1946.04 1839.71 1946.04 1451.5 2035.59 1451.5 2035.59 1788.57 2035.59 1807.77 2054.7 1807.77 2475.46 1807.77 2475.46 1839.71 1946.04 1839.71" style="fill:url(#locale_tecnico-21_1_)"/><polygon id="locale_tecnico-24" data-name="locale tecnico-24" points="3033.28 1839.71 3033.28 1792.62 3366.91 1792.62 3386.02 1792.62 3467.04 1792.62 3467.04 1839.71 3033.28 1839.71" style="fill:url(#locale_tecnico-21_1_)"/><polygon id="locale_tecnico-25" data-name="locale tecnico-25" points="3033.28 1496.87 3033.28 1451.5 3467.04 1451.5 3467.04 1496.87 3386.02 1496.87 3366.91 1496.87 3033.28 1496.87" style="fill:url(#locale_tecnico-21_1_)"/><polygon id="locale_tecnico-26" data-name="locale tecnico-26" points="3583.01 887.3 3583.01 771.07 3650.43 771.07 3650.43 1274.83 3583.01 1274.83 3583.01 1155.76 3583.01 1136.56 3583.01 1034.27 3583.01 1015.07 3583.01 906.42 3583.01 887.3" style="fill:url(#locale_tecnico-21_1_)"/><polygon id="locale_tecnico-27" data-name="locale tecnico-27" points="4128.1 2054.1 4128.1 1501.52 4361.16 1501.52 4380.36 1501.52 4380.36 1482.32 4380.36 847.18 4380.36 827.98 4380.36 39.42 5446.08 39.42 5446.08 2054.1 5181.07 2054.1 5161.96 2054.1 5161.96 2073.3 5161.96 2518.42 5161.96 2537.62 5161.96 2567.84 4128.1 2567.84 4128.1 2073.3 4128.1 2054.1" style="fill:url(#locale_tecnico-21_1_)"/><rect id="locale_tecnico-28" data-name="locale tecnico-28" x="5181.07" y="2537.62" width="265.01" height="30.22" style="fill:url(#locale_tecnico-21_1_)"/><rect id="senza_codice" data-name="senza codice" x="3416.24" y="1155.76" width="147.57" height="119.16" style="fill:#f2f2f2"/><rect id="senza_codice-2" data-name="senza codice-2" x="3416.24" y="906.42" width="147.57" height="108.65" style="fill:#f2f2f2"/><rect id="senza_codice-3" data-name="senza codice-3" x="3416.24" y="1034.27" width="147.57" height="102.28" style="fill:#f2f2f2"/><rect id="senza_codice-4" data-name="senza codice-4" x="3416.24" y="771.07" width="147.57" height="116.23" style="fill:#f2f2f2"/><g class="clickable" id="D1-1E-17" data-name="customclass D1-1E-17"><polygon id="_tracciato_" data-name=" tracciato " points="39.5 1274.83 39.5 751.87 340.5 751.87 588.63 751.87 588.63 1274.83 340.5 1274.83 321.3 1274.83 39.5 1274.83" style="fill:#ddd"/></g><g class="clickable" id="D1-1E-15" data-name="customclass D1-1E-15"><rect id="_tracciato_2" data-name=" tracciato 2" x="607.83" y="751.87" width="525.28" height="522.96" style="fill:#ddd"/></g><g class="clickable" id="D1-1E-14" data-name="customclass D1-1E-14"><rect id="_tracciato_3" data-name=" tracciato 3" x="1152.31" y="751.87" width="249.85" height="522.96" style="fill:#ddd"/></g><g class="clickable" id="D1-1E-13" data-name="customclass D1-1E-13"><rect id="_tracciato_4" data-name=" tracciato 4" x="1421.37" y="751.87" width="522.96" height="522.96" style="fill:#ddd"/></g><g class="clickable" id="D1-1E-12" data-name="customclass D1-1E-12"><rect id="_tracciato_5" data-name=" tracciato 5" x="1963.52" y="751.87" width="511.94" height="522.96" style="fill:#ddd"/></g><g class="clickable" id="D1-1E-10" data-name="customclass D1-1E-10"><polygon id="_tracciato_7" data-name=" tracciato 7" points="857.69 1839.71 857.69 1451.5 993.63 1451.5 993.63 1474.14 993.63 1493.34 1012.83 1493.34 1132.51 1493.34 1132.51 1839.71 857.69 1839.71" style="fill:#ddd"/></g><g class="clickable" id="D1-1E-09" data-name="customclass D1-1E-09"><polygon id="_tracciato_8" data-name=" tracciato 8" points="1151.71 1474.14 1151.71 1451.5 1672.94 1451.5 1672.94 1839.71 1151.71 1839.71 1151.71 1493.34 1151.71 1474.14" style="fill:#ddd"/></g><g class="clickable" id="D1-1E-08" data-name="customclass D1-1E-08"><rect x="1016.45" y="1873.12" width="256.48" height="130.18" style="fill:none"/></g><g class="clickable" id="D1-1E-06" data-name="customclass D1-1E-06"><rect id="_tracciato_10" data-name=" tracciato 10" x="39.5" y="2073.3" width="549.13" height="494.54" style="fill:#ddd"/></g><g class="clickable" id="D1-1E-05" data-name="customclass D1-1E-05"><rect id="_tracciato_11" data-name=" tracciato 11" x="607.83" y="2073.3" width="525.28" height="494.54" style="fill:#ddd"/></g><g class="clickable" id="D1-1E-04" data-name="customclass D1-1E-04"><rect id="_tracciato_12" data-name=" tracciato 12" x="1152.31" y="2073.3" width="249.85" height="494.54" style="fill:#ddd"/></g><g class="clickable" id="D1-1E-03" data-name="customclass D1-1E-03"><rect id="_tracciato_13" data-name=" tracciato 13" x="1421.37" y="2073.3" width="522.96" height="494.54" style="fill:#ddd"/></g><g class="clickable" id="D1-1E-02" data-name="customclass D1-1E-02"><rect id="_tracciato_14" data-name=" tracciato 14" x="1963.52" y="2073.3" width="511.94" height="494.54" style="fill:#ddd"/></g><g class="clickable" id="D1-1C-01" data-name="customclass D1-1C-01"><polygon id="_tracciato_15" data-name=" tracciato 15" points="2518.42 1451.5 2518.42 1432.39 2518.42 1294.03 2518.42 1274.83 2518.42 751.87 2992.99 751.87 2992.99 771.07 2992.99 915.72 2992.99 934.92 2992.99 1109.87 2992.99 1128.98 2992.99 1274.83 2992.99 1294.03 2992.99 1432.39 2992.99 1451.5 2992.99 1496.87 2992.99 1515.99 2992.99 1773.42 2992.99 1792.62 2992.99 1839.71 2992.99 1858.91 2992.99 2054.1 2992.99 2073.3 2992.99 2567.84 2518.42 2567.84 2518.42 2073.3 2518.42 2054.1 2518.42 1858.91 2518.42 1839.71 2518.42 1807.77 2518.42 1788.57 2518.42 1451.5" style="fill:none"/></g><g class="clickable" id="D1-1W-14" data-name="customclass D1-1W-14"><polygon id="_tracciato_16" data-name=" tracciato 16" points="3591.8 586.22 3591.8 39.42 4361.16 39.42 4361.16 827.98 3855.6 827.98 3855.6 605.42 3855.6 586.22 3836.4 586.22 3591.8 586.22" style="fill:#ddd"/></g><g class="clickable" id="D1-1W-13" data-name="customclass D1-1W-13"><polygon id="_tracciato_17" data-name=" tracciato 17" points="3146.19 586.22 3146.19 39.42 3572.6 39.42 3572.6 586.22 3416.24 586.22 3397.13 586.22 3146.19 586.22" style="fill:#ddd"/></g><g class="clickable" id="D1-1W-12" data-name="customclass D1-1W-12"><polygon id="_tracciato_18" data-name=" tracciato 18" points="3186.19 712.96 3186.19 605.42 3397.13 605.42 3397.13 751.87 3186.19 751.87 3186.19 712.96" style="fill:#f2f2f2"/></g><g class="clickable" id="D1-1W-11" data-name="customclass D1-1W-11"><polygon id="_tracciato_19" data-name=" tracciato 19" points="3253 915.72 3233.8 915.72 3033.28 915.72 3033.28 771.07 3397.13 771.07 3397.13 887.3 3397.13 915.03 3253 915.72" style="fill:#f2f2f2"/></g><g class="clickable" id="D1-1W-10" data-name="customclass D1-1W-10"><polygon id="_tracciato_20" data-name=" tracciato 20" points="3033.28 1109.87 3033.28 934.92 3233.8 934.92 3233.8 1015.07 3233.8 1034.27 3233.8 1109.87 3033.28 1109.87" style="fill:#f2f2f2"/></g><g class="clickable" id="D1-1W-09" data-name="customclass D1-1W-09"><polygon id="_tracciato_21" data-name=" tracciato 21" points="3397.13 1128.81 3397.13 1155.76 3397.13 1274.83 3033.28 1274.83 3033.28 1128.98 3233.8 1128.98 3253 1128.98 3397.13 1128.81" style="fill:#f2f2f2"/></g><g class="clickable" id="D1-1W-06" data-name="customclass D1-1W-06"><polygon id="_tracciato_23" data-name=" tracciato 23" points="3855.6 1482.32 3855.6 847.18 4361.16 847.18 4361.16 1482.32 4128.1 1482.32 4108.98 1482.32 3855.6 1482.32" style="fill:#ddd"/></g><g class="clickable" id="D1-1W-05" data-name="customclass D1-1W-05"><polygon id="_tracciato_24" data-name=" tracciato 24" points="3033.28 2054.1 3033.28 1858.91 3467.04 1858.91 3486.24 1858.91 3486.24 1839.71 3486.24 1792.62 3486.24 1773.42 3467.04 1773.42 3386.02 1773.42 3386.02 1515.99 3467.04 1515.99 3486.24 1515.99 3486.24 1496.87 3486.24 1451.5 3650.43 1451.5 3669.63 1451.5 3669.63 1432.39 3669.63 1294.03 3669.63 1274.83 3669.63 771.07 3669.63 751.87 3650.43 751.87 3583.01 751.87 3563.9 751.87 3416.24 751.87 3416.24 605.42 3572.6 605.42 3591.8 605.42 3836.4 605.42 3836.4 827.98 3836.4 847.18 3836.4 1482.32 3836.4 1501.52 3855.6 1501.52 4108.98 1501.52 4108.98 2054.1 3585.94 2054.1 3566.74 2054.1 3316.28 2054.1 3297.17 2054.1 3033.28 2054.1" style="fill:#f2f2f2"/></g><g class="clickable" id="D1-1W-04" data-name="customclass D1-1W-04"><rect id="_tracciato_25" data-name=" tracciato 25" x="3033.28" y="2073.3" width="263.8" height="494.54" style="fill:#ddd"/></g><g class="clickable" id="D1-1W-03" data-name="customclass D1-1W-03"><rect id="_tracciato_26" data-name=" tracciato 26" x="3316.28" y="2073.3" width="250.46" height="494.54" style="fill:#ddd"/></g><g class="clickable" id="D1-1W-02" data-name="customclass D1-1W-02"><rect id="_tracciato_27" data-name=" tracciato 27" x="3585.94" y="2073.3" width="522.96" height="494.54" style="fill:#ddd"/></g><g class="clickable" id="D1-1-STAIR-D" data-name="customclass D1-1-STAIR-D"><g id="scala3"><polygon points="3459.12 1437.29 3129.54 1437.29 3129.54 1289.55 3458.69 1289.55 3458.69 1293.86 3133.84 1293.86 3133.84 1432.99 3459.12 1432.99 3459.12 1437.29" style="fill:#b7b7b7"/><rect x="3238.45" y="1361.96" width="220.67" height="4.3" style="fill:#b7b7b7"/><polygon points="3458.6 1406.13 3183.95 1406.13 3183.95 1322.18 3273.32 1322.18 3273.32 1326.49 3188.26 1326.49 3188.26 1401.82 3458.6 1401.82 3458.6 1406.13" style="fill:#b7b7b7"/><rect x="3236.3" y="1291.7" width="4.3" height="143.96" style="fill:#b7b7b7"/><rect x="3261.18" y="1308.58" width="4.3" height="127.08" style="fill:#b7b7b7"/><rect x="3359.08" y="1364.11" width="4.3" height="71.55" style="fill:#b7b7b7"/><rect x="3310" y="1364.11" width="4.3" height="71.55" style="fill:#b7b7b7"/><rect x="3334.54" y="1364.11" width="4.3" height="71.55" style="fill:#b7b7b7"/><rect x="3285.38" y="1345.17" width="4.3" height="90.49" style="fill:#b7b7b7"/><rect x="3383.7" y="1364.11" width="4.3" height="71.55" style="fill:#b7b7b7"/><rect x="3408.24" y="1364.11" width="4.3" height="71.55" style="fill:#b7b7b7"/><rect x="3432.77" y="1364.11" width="4.3" height="71.55" style="fill:#b7b7b7"/><polygon points="3436.73 1423.01 3434.16 1419.55 3455.22 1403.91 3433.75 1388.33 3436.28 1384.84 3462.5 1403.87 3436.73 1423.01" style="fill:#b7b7b7"/><rect x="3273.73" y="1283.65" width="4.3" height="86.95" transform="translate(-188.92 2023.59) rotate(-33.41)" style="fill:#b7b7b7"/><rect x="3456.97" y="1290.24" width="4.3" height="145.76" style="fill:#b7b7b7"/></g><polygon id="_tracciato_22" data-name=" tracciato 22" points="3033.28 1432.39 3033.28 1294.03 3397.13 1294.03 3416.24 1294.03 3563.9 1294.03 3583.01 1294.03 3650.43 1294.03 3650.43 1432.39 3486.24 1432.39 3467.04 1432.39 3033.28 1432.39" style="fill:none"/></g><g class="clickable" id="D1-1-STAIR-C" data-name="customclass D1-1-STAIR-C"><g id="scala4"><polygon points="5328.04 2396.68 5323.73 2396.68 5323.73 2178.16 5299.19 2178.16 5299.19 2374.64 5177.63 2374.64 5177.63 2069.25 5181.93 2069.25 5181.93 2370.33 5294.89 2370.33 5294.89 2173.86 5328.04 2173.86 5328.04 2396.68" style="fill:#b7b7b7"/><polygon points="5390.2 2370.85 5385.9 2370.85 5385.9 2125.82 5242.37 2125.82 5242.37 2214.49 5238.06 2214.49 5238.06 2121.51 5390.2 2121.51 5390.2 2370.85" style="fill:#b7b7b7"/><rect x="5324.94" y="2173.86" width="122" height="4.3" style="fill:#b7b7b7"/><rect x="5324.94" y="2198.74" width="122" height="4.3" style="fill:#b7b7b7"/><rect x="5177.88" y="2173.86" width="119.16" height="4.3" style="fill:#b7b7b7"/><rect x="5263.64" y="2223.54" width="33.41" height="4.3" style="fill:#b7b7b7"/><rect x="5177.28" y="2223.54" width="58.46" height="4.3" style="fill:#b7b7b7"/><rect x="5179.78" y="2247.82" width="117.26" height="4.3" style="fill:#b7b7b7"/><rect x="5179.78" y="2272.18" width="117.26" height="4.3" style="fill:#b7b7b7"/><rect x="5179.78" y="2346.91" width="117.26" height="4.3" style="fill:#b7b7b7"/><polygon points="5328.21 2402.88 5294.8 2402.88 5294.8 2373.26 5299.11 2373.26 5299.11 2398.57 5323.9 2398.57 5323.9 2323.24 5328.21 2323.24 5328.21 2402.88" style="fill:#b7b7b7"/><rect x="5324.94" y="2296.63" width="122" height="4.3" style="fill:#b7b7b7"/><rect x="5324.94" y="2247.47" width="122" height="4.3" style="fill:#b7b7b7"/><rect x="5324.94" y="2272.09" width="122" height="4.3" style="fill:#b7b7b7"/><rect x="5324.94" y="2222.93" width="122" height="4.3" style="fill:#b7b7b7"/><rect x="5324.94" y="2321.17" width="122" height="4.3" style="fill:#b7b7b7"/><rect x="5324.94" y="2345.79" width="122" height="4.3" style="fill:#b7b7b7"/><rect x="5324.94" y="2370.33" width="122" height="4.3" style="fill:#b7b7b7"/><rect x="5179.78" y="2296.37" width="117.26" height="4.3" style="fill:#b7b7b7"/><rect x="5179.78" y="2321.52" width="117.26" height="4.3" style="fill:#b7b7b7"/><polygon points="5387.94 2374.66 5366 2348.91 5369.28 2346.12 5387.98 2368.07 5406.75 2346.62 5409.99 2349.45 5387.94 2374.66" style="fill:#b7b7b7"/><polygon points="5259.26 2251.39 5240.45 2232.34 5221.49 2250.99 5218.48 2247.92 5240.5 2226.26 5262.33 2248.37 5259.26 2251.39" style="fill:#b7b7b7"/><rect x="5235.26" y="2162.6" width="4.31" height="126.86" transform="translate(1147.25 6182.82) rotate(-67.07)" style="fill:#b7b7b7"/><rect x="5235.26" y="2150.97" width="4.31" height="126.86" transform="translate(1157.96 6175.72) rotate(-67.07)" style="fill:#b7b7b7"/><rect x="5238.07" y="2226.38" width="4.3" height="146.45" style="fill:#b7b7b7"/><rect x="5205.78" y="2198.74" width="90.92" height="4.3" style="fill:#b7b7b7"/></g><rect id="_tracciato_28" data-name=" tracciato 28" x="5181.07" y="2073.3" width="265.01" height="445.12" style="fill:none"/></g><g class="clickable" id="D1-1-STAIR-B" data-name="customclass D1-1-STAIR-B"><g id="scala1"><polygon points="696.68 1778.15 327.15 1778.15 327.15 1655.29 597.84 1655.29 597.84 1631.1 327.15 1631.1 327.15 1511.08 696.68 1511.08 696.68 1515.38 331.46 1515.38 331.46 1626.8 602.15 1626.8 602.15 1659.6 331.46 1659.6 331.46 1773.85 696.68 1773.85 696.68 1778.15" style="fill:#b7b7b7"/><polygon points="632.46 1720.99 268.44 1720.99 268.44 1716.68 628.15 1716.68 628.15 1575.05 459.92 1575.05 459.92 1570.74 632.46 1570.74 632.46 1720.99" style="fill:#b7b7b7"/><rect x="544.98" y="1656.5" width="4.3" height="120.45" style="fill:#b7b7b7"/><rect x="570.12" y="1656.5" width="4.3" height="120.45" style="fill:#b7b7b7"/><rect x="520.44" y="1656.5" width="4.3" height="120.45" style="fill:#b7b7b7"/><rect x="570.12" y="1513.23" width="4.3" height="115.72" style="fill:#b7b7b7"/><rect x="544.98" y="1513.66" width="4.3" height="115.28" style="fill:#b7b7b7"/><rect x="495.9" y="1513.23" width="4.3" height="115.72" style="fill:#b7b7b7"/><rect x="472.06" y="1539.23" width="4.3" height="89.71" style="fill:#b7b7b7"/><rect x="447.95" y="1513.23" width="4.3" height="55.36" style="fill:#b7b7b7"/><rect x="447.95" y="1596.49" width="4.3" height="31.43" style="fill:#b7b7b7"/><rect x="374.25" y="1513.23" width="4.3" height="115.72" style="fill:#b7b7b7"/><rect x="351.09" y="1513.23" width="4.3" height="115.72" style="fill:#b7b7b7"/><polygon points="401.89 1659.77 233.74 1659.77 233.74 1626.8 352.47 1626.8 352.47 1631.1 238.04 1631.1 238.04 1655.46 401.89 1655.46 401.89 1659.77" style="fill:#b7b7b7"/><rect x="423.84" y="1656.5" width="4.3" height="120.45" style="fill:#b7b7b7"/><rect x="472.31" y="1656.5" width="4.3" height="120.45" style="fill:#b7b7b7"/><rect x="448.03" y="1656.5" width="4.3" height="120.45" style="fill:#b7b7b7"/><rect x="496.51" y="1656.5" width="4.3" height="120.45" style="fill:#b7b7b7"/><rect x="399.56" y="1656.5" width="4.3" height="120.45" style="fill:#b7b7b7"/><rect x="375.28" y="1656.5" width="4.3" height="120.45" style="fill:#b7b7b7"/><rect x="351.09" y="1656.5" width="4.3" height="120.45" style="fill:#b7b7b7"/><rect x="295.9" y="1513.23" width="4.3" height="115.72" style="fill:#b7b7b7"/><rect x="295.9" y="1656.5" width="4.3" height="120.45" style="fill:#b7b7b7"/><rect x="266.28" y="1513.23" width="4.3" height="115.72" style="fill:#b7b7b7"/><rect x="266.28" y="1656.5" width="4.3" height="120.45" style="fill:#b7b7b7"/><rect x="424.1" y="1513.23" width="4.3" height="115.72" style="fill:#b7b7b7"/><rect x="399.22" y="1513.23" width="4.3" height="115.72" style="fill:#b7b7b7"/><polygon points="290.26 1740.51 265.41 1718.63 290.8 1696.96 293.6 1700.24 271.98 1718.69 293.1 1737.28 290.26 1740.51" style="fill:#b7b7b7"/><polygon points="427.71 1594.8 424.79 1591.63 444.88 1573.13 425.2 1554.48 428.16 1551.36 451.19 1573.18 427.71 1594.8" style="fill:#b7b7b7"/><rect x="386.37" y="1567.67" width="125.19" height="4.3" transform="translate(-1171.19 1371.92) rotate(-67.06)" style="fill:#b7b7b7"/><rect x="397.82" y="1567.67" width="125.19" height="4.3" transform="translate(-1164.2 1382.46) rotate(-67.06)" style="fill:#b7b7b7"/><rect x="267.83" y="1570.75" width="180.2" height="4.3" style="fill:#b7b7b7"/><rect x="520.44" y="1515.73" width="4.3" height="112.96" style="fill:#b7b7b7"/><path d="M267.94,1586a13.52,13.52,0,1,1,13.51-13.53h0A13.53,13.53,0,0,1,267.94,1586Zm0-22.73a9.22,9.22,0,1,0,9.21,9.23v0A9.23,9.23,0,0,0,267.94,1563.27Z" transform="translate(0.5 0.5)" style="fill:#b7b7b7"/></g><polygon id="_tracciato_6" data-name=" tracciato 6" points="39.5 1839.71 39.5 1451.5 236.49 1451.5 236.49 1496.87 236.49 1515.99 255.61 1515.99 686.87 1515.99 686.87 1773.42 255.61 1773.42 236.49 1773.42 236.49 1792.62 236.49 1839.71 39.5 1839.71" style="fill:none"/></g><g class="clickable" id="D1-1-LIFT-A" data-name="customclass D1-1-LIFT-A"><rect id="a" x="3033.28" y="1515.99" width="333.54" height="257.43" style="fill:#f2f2f2"/></g><g class="clickable" id="D1-1-STAIR-A" data-name="customclass D1-1-STAIR-A"><g id="scala2"><polygon points="2417.69 1794.17 2049.53 1794.17 2049.53 1789.86 2413.38 1789.86 2413.38 1643.24 2171.96 1643.24 2171.96 1601.74 2490.18 1601.74 2490.18 1451.41 2049.53 1451.41 2049.53 1447.11 2494.49 1447.11 2494.49 1606.05 2176.27 1606.05 2176.27 1638.93 2417.69 1638.93 2417.69 1794.17" style="fill:#b7b7b7"/><polygon points="2491.73 1716.42 2112.82 1716.42 2112.82 1528.13 2294.74 1528.13 2294.74 1532.43 2117.12 1532.43 2117.12 1712.12 2491.73 1712.12 2491.73 1716.42" style="fill:#b7b7b7"/><rect x="2308.08" y="1528.04" width="184.25" height="4.3" style="fill:#b7b7b7"/><rect x="2171.96" y="1448.06" width="4.3" height="157.13" style="fill:#b7b7b7"/><rect x="2199.17" y="1450.04" width="4.3" height="155.15" style="fill:#b7b7b7"/><rect x="2171.96" y="1641.09" width="4.3" height="150.93" style="fill:#b7b7b7"/><rect x="2199.17" y="1641.09" width="4.3" height="150.93" style="fill:#b7b7b7"/><rect x="2226.38" y="1641.09" width="4.3" height="150.93" style="fill:#b7b7b7"/><rect x="2252.81" y="1641.09" width="4.3" height="150.93" style="fill:#b7b7b7"/><rect x="2279.59" y="1641.09" width="4.3" height="150.93" style="fill:#b7b7b7"/><rect x="2361.21" y="1641.09" width="4.3" height="150.93" style="fill:#b7b7b7"/><rect x="2386.86" y="1641.09" width="4.3" height="150.93" style="fill:#b7b7b7"/><rect x="2490.18" y="1641.09" width="4.3" height="150.93" style="fill:#b7b7b7"/><polygon points="2475.51 1733.44 2472.47 1730.4 2488.45 1714.42 2472.45 1697.95 2475.54 1694.95 2494.49 1714.46 2475.51 1733.44" style="fill:#b7b7b7"/><polygon points="2494.49 1643.24 2389.88 1643.24 2389.88 1638.93 2490.18 1638.93 2490.18 1605.79 2335.12 1605.79 2335.12 1601.48 2494.49 1601.48 2494.49 1643.24" style="fill:#b7b7b7"/><rect x="2306.28" y="1581.42" width="4.3" height="23.76" style="fill:#b7b7b7"/><rect x="2306.28" y="1448.06" width="4.3" height="81.53" style="fill:#b7b7b7"/><rect x="2252.55" y="1448.06" width="4.3" height="157.13" style="fill:#b7b7b7"/><rect x="2279.41" y="1482.32" width="4.3" height="122.86" style="fill:#b7b7b7"/><rect x="2225.69" y="1448.06" width="4.3" height="157.13" style="fill:#b7b7b7"/><rect x="2333.14" y="1448.06" width="4.3" height="157.13" style="fill:#b7b7b7"/><rect x="2360" y="1448.06" width="4.3" height="157.13" style="fill:#b7b7b7"/><rect x="2386.86" y="1448.06" width="4.3" height="157.13" style="fill:#b7b7b7"/><rect x="2305.93" y="1641.09" width="4.3" height="150.93" style="fill:#b7b7b7"/><rect x="2333.48" y="1641.09" width="4.3" height="150.93" style="fill:#b7b7b7"/><rect x="2464.26" y="1641.09" width="4.3" height="150.93" style="fill:#b7b7b7"/><rect x="2464.26" y="1448.14" width="4.3" height="154.46" style="fill:#b7b7b7"/><rect x="2439.3" y="1448.14" width="4.3" height="154.46" style="fill:#b7b7b7"/><rect x="2413.73" y="1448.14" width="4.3" height="154.46" style="fill:#b7b7b7"/><rect x="2438.69" y="1641.09" width="4.3" height="150.93" style="fill:#b7b7b7"/><path d="M2491.83,1544.67a15.24,15.24,0,1,1,15.24-15.24h0A15.26,15.26,0,0,1,2491.83,1544.67Zm0-26.17a10.94,10.94,0,1,0,10.94,10.94h0A10.94,10.94,0,0,0,2491.83,1518.5Z" transform="translate(0.5 0.5)" style="fill:#b7b7b7"/><rect x="2303.95" y="1445.21" width="4.31" height="161.55" transform="translate(-316.49 651.19) rotate(-15.04)" style="fill:#b7b7b7"/><rect x="2291.22" y="1445.2" width="4.31" height="161.54" transform="translate(-316.92 647.89) rotate(-15.04)" style="fill:#b7b7b7"/><polygon points="2325.53 1549.22 2305.87 1530.31 2325.51 1510.76 2328.54 1513.81 2312.02 1530.25 2328.52 1546.12 2325.53 1549.22" style="fill:#b7b7b7"/></g><g id="tracciato"><rect x="2054.7" y="1453.39" width="450.63" height="335.18" style="fill:none"/></g></g></g><g id="walls"><path d="M983.23,1451h9.9v41.84H1132v346.37H983.23v19.2h249.34v-19.2h-81.28V1451h81.37v-19.2H983.23Zm29.1,0H1132v22.73H1012.33Z" transform="translate(0.5 0.5)" style="fill:#b7b7b7"/><path d="M2475,1858.41v5.26h19.2v-75.51H2054.29V1451.09h439.87v-25H2475V1432H1926.34v426.5ZM1945.54,1451H2035v356.19h439.87v31.94H1945.46Z" transform="translate(0.5 0.5)" style="fill:#b7b7b7"/><path d="M39,2606.26H5484.58V0H3106.69V712.46H0v1893.8Zm5406.58-38.92h-265v-30.22h265Zm0-49.42h-265V2072.8h265ZM4379.86,1501V38.92H5445.58V2053.6H5161.46v513.65H4127.6V1501ZM39,2072.8h79.64v-19.2H39V1858.33H95.91v-19.2H39V1450.91H95.91v-19.2H39V1293.44h84.29v-19.2H39V751.37H588.13v523H214.47v19.2H670.61v-19.2H607.25v-523h525.36v523H761.88v19.2h470.69v-19.2h-80.76v-523h249.86v523h-77.84v19.2h155.75v-19.2h-58.71v-523h523v523H1570.76v19.2h450.38v-19.2H1963v-523h512v523H2112.31v19.2H2475v5.25h19.2V751.37h519.51v43h19.2V770.49h363.76v54h19.2V770.4H3563.4V886.63H3415.83v-5.85h-19.2v31.94h19.2v-7H3563.4V1014.4H3415.83V969.11h-19.2v45.29H3252.5V915H3032.87V891.8h-19.2V947h19.2V934.16h200.52v174.95H3032.87v-64.49h-19.2v95.91h19.2v-12H3252.5v-94.71h144.13v40.64h19.2v-40.64H3563.4v102.29H3415.83v-5.26h-19.2v33.67h19.2v-9.3H3563.4v119.16H3415.83v-53.47h-19.2v53.47H3032.87v-36h-19.2v277.15h352.74V1773H3050.86v.6h-37.19v101h19.2v-16.27h452.87v-85.41H3385.52V1515.49h100.22V1451h183.39v-50.54h-19.2v31.34H3032.78V1293.53h617.15v32.54h19.2V751.37H3415.74v-4h-19.2v4H3145.61V604.92h250.93v57.51h19.2V604.92H3432v-19.2H3145.61V38.92H3572v546.8h-42.45v19.2h131.91v-19.2h-70.35V38.92h769.37V827.48H3854.93V585.72H3759v19.2h76.72v709.53h19.2V846.68h505.56v635.14H3854.93v-69.74h-19.2V1501h272.5v552.66H3763.66v19.2h344.57v494.55h-523V2072.88h84.89v-19.2h-204v19.2h100v494.55H3315.61V2072.88h56.91v-19.2H3211v19.2h85.41v494.55H3032.52V2072.88h84.81v-19.2h-84.81v-17.39h-19.2v531.14H2493.81V2036.29h-19.2v17.39H2116.1v19.2h358.51v494.55H1963V2072.88h55.19v-19.2H1577.74v19.2h366.08v494.55H1420.87V2072.88h58.71v-19.2H1323.83v19.2h77.84v494.55H1151.81V2072.88h73.79v-19.2H767.13v19.2h365.48v494.55H607.33V2072.88h61.56v-19.2H216.79v19.2H588.13v494.55H39Zm3327.41-576.43H3032.78v-45.28h433.76v45.28Zm19.2,295.75h81v47.09H3032.87v-47.09Zm196.9-517.79V770.49h67.42v503.84Z" transform="translate(0.5 0.5)" style="fill:#b7b7b7"/><polygon points="1324.33 1451.5 1672.94 1451.5 1672.94 1839.71 1324.33 1839.71 1324.33 1858.91 1672.94 1858.91 1692.14 1858.91 1692.14 1839.71 1692.14 1451.5 1692.14 1432.39 1672.94 1432.39 1324.33 1432.39 1324.33 1451.5" style="fill:#b7b7b7"/><path d="M255.11,1858.41H892v-19.2H857.1V1451H892v-19.2H222.56V1451h13.35v64.49H686.28v257.43H235.91v66.21H222.56v19.2h32.55Zm0-66.29H705.48V1496.37H255.11v-45.28H838V1839.3H255.11Z" transform="translate(0.5 0.5)" style="fill:#b7b7b7"/></g></g></svg>