<svg id="Livello_1" data-name="Livello 1" xmlns="http://www.w3.org/2000/svg" xmlns:xlink="http://www.w3.org/1999/xlink" viewBox="0 0 5500 3000"><defs><pattern id="locale_tecnico-21_1_" data-name="locale tecnico-21 1 " width="38.5" height="38.5" patternTransform="matrix(-0.58, 0, 0, 0.58, -17712.63, 23268.03)" patternUnits="userSpaceOnUse" viewBox="0 0 38.5 38.5"><rect width="38.5" height="38.5" style="fill:none"/><rect width="38.5" height="38.5" style="fill:none"/><rect width="38.5" height="38.5" style="fill:none"/><rect width="38.5" height="38.5" style="fill:none"/><rect width="38.5" height="38.5" style="fill:none"/><rect width="38.5" height="38.5" style="fill:none"/><rect width="38.5" height="38.5" style="fill:none"/><rect width="38.5" height="38.5" style="fill:none"/><rect x="35.8" y="-35.8" width="40.5" height="39.2" style="fill:#f2f2f2"/><line x1="38.5" x2="77" y2="-38.5" style="fill:none;stroke:#ddd;stroke-linecap:square;stroke-linejoin:round;stroke-width:20px"/><rect x="-2.7" y="-35.8" width="40.5" height="39.2" style="fill:#f2f2f2"/><line x2="38.5" y2="-38.5" style="fill:none;stroke:#ddd;stroke-linecap:square;stroke-linejoin:round;stroke-width:20px"/><line x1="-38.5" y2="-38.5" style="fill:none;stroke:#ddd;stroke-linecap:square;stroke-linejoin:round;stroke-width:20px"/><rect x="35.8" y="2.7" width="40.5" height="39.2" style="fill:#f2f2f2"/><line x1="38.5" y1="38.5" x2="77" style="fill:none;stroke:#ddd;stroke-linecap:square;stroke-linejoin:round;stroke-width:20px"/><rect x="-2.7" y="2.7" width="40.5" height="39.2" style="fill:#f2f2f2"/><line y1="38.5" x2="38.5" style="fill:none;stroke:#ddd;stroke-linecap:square;stroke-linejoin:round;stroke-width:20px"/><line x1="-38.5" y1="38.5" style="fill:none;stroke:#ddd;stroke-linecap:square;stroke-linejoin:round;stroke-width:20px"/><line x1="38.5" y1="77" x2="77" y2="38.5" style="fill:none;stroke:#ddd;stroke-linecap:square;stroke-linejoin:round;stroke-width:20px"/><line y1="77" x2="38.5" y2="38.5" style="fill:none;stroke:#ddd;stroke-linecap:square;stroke-linejoin:round;stroke-width:20px"/><line x1="-38.5" y1="77" y2="38.5" style="fill:none;stroke:#ddd;stroke-linecap:square;stroke-linejoin:round;stroke-width:20px"/></pattern></defs><g id="D1-floor1"><g id="background"><polygon points="5484.49 38.92 5484.49 0 5445.58 0 3185.69 0 3146.69 0 3146.69 38.92 3146.69 636.86 3146.69 712.46 3032.78 712.46 39 712.46 0 712.46 0 751.37 0 2567.34 0 2606.26 39 2606.26 5445.58 2606.26 5484.49 2606.26 5484.49 2567.34 5484.49 38.92" style="fill:#f2f2f2;stroke:#b7b7b7;stroke-miterlimit:10"/></g><g id="rooms"><polygon id="locale_tecnico-21" data-name="locale tecnico-21" points="255.11 1496.37 255.11 1451 837.99 1451 837.99 1839.21 255.11 1839.21 255.11 1792.12 686.37 1792.12 705.48 1792.12 705.48 1772.92 705.48 1515.49 705.48 1496.37 686.37 1496.37 255.11 1496.37" style="fill:url(#locale_tecnico-21_1_)"/><rect id="locale_tecnico-22" data-name="locale tecnico-22" x="1012.33" y="1451" width="119.68" height="22.64" style="fill:url(#locale_tecnico-21_1_)"/><polygon id="locale_tecnico-23" data-name="locale tecnico-23" points="1945.54 1839.21 1945.54 1451 2035.09 1451 2035.09 1788.07 2035.09 1807.27 2054.2 1807.27 2474.96 1807.27 2474.96 1839.21 1945.54 1839.21" style="fill:url(#locale_tecnico-21_1_)"/><polygon id="locale_tecnico-24" data-name="locale tecnico-24" points="3032.78 1839.21 3032.78 1792.12 3366.41 1792.12 3385.52 1792.12 3466.54 1792.12 3466.54 1839.21 3032.78 1839.21" style="fill:url(#locale_tecnico-21_1_)"/><polygon id="locale_tecnico-25" data-name="locale tecnico-25" points="3032.78 1496.37 3032.78 1451 3466.54 1451 3466.54 1496.37 3385.52 1496.37 3366.41 1496.37 3032.78 1496.37" style="fill:url(#locale_tecnico-21_1_)"/><polygon id="locale_tecnico-26" data-name="locale tecnico-26" points="3582.51 886.8 3582.51 770.57 3649.93 770.57 3649.93 1274.33 3582.51 1274.33 3582.51 1155.26 3582.51 1136.06 3582.51 1033.77 3582.51 1014.57 3582.51 905.92 3582.51 886.8" style="fill:url(#locale_tecnico-21_1_)"/><polygon id="locale_tecnico-27" data-name="locale tecnico-27" points="4127.6 2053.6 4127.6 1501.02 4360.66 1501.02 4379.86 1501.02 4379.86 1481.82 4379.86 846.68 4379.86 827.48 4379.86 38.92 5445.58 38.92 5445.58 2053.6 5180.57 2053.6 5161.46 2053.6 5161.46 2072.8 5161.46 2517.92 5161.46 2537.12 5161.46 2567.34 4127.6 2567.34 4127.6 2072.8 4127.6 2053.6" style="fill:url(#locale_tecnico-21_1_)"/><rect id="locale_tecnico-28" data-name="locale tecnico-28" x="5180.57" y="2537.12" width="265.01" height="30.22" style="fill:url(#locale_tecnico-21_1_)"/><rect id="senza_codice" data-name="senza codice" x="3415.74" y="1155.26" width="147.57" height="119.16" style="fill:#f2f2f2"/><rect id="senza_codice-2" data-name="senza codice-2" x="3415.74" y="905.92" width="147.57" height="108.65" style="fill:#f2f2f2"/><rect id="senza_codice-3" data-name="senza codice-3" x="3415.74" y="1033.77" width="147.57" height="102.28" style="fill:#f2f2f2"/><rect id="senza_codice-4" data-name="senza codice-4" x="3415.74" y="770.57" width="147.57" height="116.23" style="fill:#f2f2f2"/><g class="clickable" id="D1-1C-01-D" data-name="customclass D1-1C-01-D"><rect id="a" x="3032.78" y="1515.49" width="333.54" height="257.43" style="fill:#f2f2f2"/></g><g class="clickable" id="D1-1E-17" data-name="customclass D1-1E-17"><polygon id="_tracciato_" data-name=" tracciato " points="39 1274.33 39 751.37 340 751.37 588.13 751.37 588.13 1274.33 340 1274.33 320.8 1274.33 39 1274.33" style="fill:#ddd"/></g><g class="clickable" id="D1-1E-15" data-name="customclass D1-1E-15"><rect id="_tracciato_2" data-name=" tracciato 2" x="607.33" y="751.37" width="525.28" height="522.96" style="fill:#ddd"/></g><g class="clickable" id="D1-1E-14" data-name="customclass D1-1E-14"><rect id="_tracciato_3" data-name=" tracciato 3" x="1151.81" y="751.37" width="249.85" height="522.96" style="fill:#ddd"/></g><g class="clickable" id="D1-1E-13" data-name="customclass D1-1E-13"><rect id="_tracciato_4" data-name=" tracciato 4" x="1420.87" y="751.37" width="522.96" height="522.96" style="fill:#ddd"/></g><g class="clickable" id="D1-1E-12" data-name="customclass D1-1E-12"><rect id="_tracciato_5" data-name=" tracciato 5" x="1963.02" y="751.37" width="511.94" height="522.96" style="fill:#ddd"/></g><g class="clickable" id="D1-1E-11" data-name="customclass D1-1E-11"><g id="scala1"><polygon points="696.18 1777.65 326.65 1777.65 326.65 1654.79 597.34 1654.79 597.34 1630.6 326.65 1630.6 326.65 1510.58 696.18 1510.58 696.18 1514.88 330.96 1514.88 330.96 1626.3 601.65 1626.3 601.65 1659.1 330.96 1659.1 330.96 1773.35 696.18 1773.35 696.18 1777.65" style="fill:#b7b7b7"/><polygon points="631.96 1720.49 267.94 1720.49 267.94 1716.18 627.65 1716.18 627.65 1574.55 459.42 1574.55 459.42 1570.24 631.96 1570.24 631.96 1720.49" style="fill:#b7b7b7"/><rect x="544.48" y="1656" width="4.3" height="120.45" style="fill:#b7b7b7"/><rect x="569.62" y="1656" width="4.3" height="120.45" style="fill:#b7b7b7"/><rect x="519.94" y="1656" width="4.3" height="120.45" style="fill:#b7b7b7"/><rect x="569.62" y="1512.73" width="4.3" height="115.72" style="fill:#b7b7b7"/><rect x="544.48" y="1513.16" width="4.3" height="115.28" style="fill:#b7b7b7"/><rect x="495.4" y="1512.73" width="4.3" height="115.72" style="fill:#b7b7b7"/><rect x="471.56" y="1538.73" width="4.3" height="89.71" style="fill:#b7b7b7"/><rect x="447.45" y="1512.73" width="4.3" height="55.36" style="fill:#b7b7b7"/><rect x="447.45" y="1595.99" width="4.3" height="31.43" style="fill:#b7b7b7"/><rect x="373.75" y="1512.73" width="4.3" height="115.72" style="fill:#b7b7b7"/><rect x="350.59" y="1512.73" width="4.3" height="115.72" style="fill:#b7b7b7"/><polygon points="401.39 1659.27 233.24 1659.27 233.24 1626.3 351.97 1626.3 351.97 1630.6 237.54 1630.6 237.54 1654.96 401.39 1654.96 401.39 1659.27" style="fill:#b7b7b7"/><rect x="423.34" y="1656" width="4.3" height="120.45" style="fill:#b7b7b7"/><rect x="471.81" y="1656" width="4.3" height="120.45" style="fill:#b7b7b7"/><rect x="447.53" y="1656" width="4.3" height="120.45" style="fill:#b7b7b7"/><rect x="496.01" y="1656" width="4.3" height="120.45" style="fill:#b7b7b7"/><rect x="399.06" y="1656" width="4.3" height="120.45" style="fill:#b7b7b7"/><rect x="374.78" y="1656" width="4.3" height="120.45" style="fill:#b7b7b7"/><rect x="350.59" y="1656" width="4.3" height="120.45" style="fill:#b7b7b7"/><rect x="295.4" y="1512.73" width="4.3" height="115.72" style="fill:#b7b7b7"/><rect x="295.4" y="1656" width="4.3" height="120.45" style="fill:#b7b7b7"/><rect x="265.78" y="1512.73" width="4.3" height="115.72" style="fill:#b7b7b7"/><rect x="265.78" y="1656" width="4.3" height="120.45" style="fill:#b7b7b7"/><rect x="423.6" y="1512.73" width="4.3" height="115.72" style="fill:#b7b7b7"/><rect x="398.72" y="1512.73" width="4.3" height="115.72" style="fill:#b7b7b7"/><polygon points="289.76 1740.01 264.91 1718.13 290.3 1696.46 293.1 1699.74 271.48 1718.19 292.6 1736.78 289.76 1740.01" style="fill:#b7b7b7"/><polygon points="427.21 1594.3 424.29 1591.13 444.38 1572.63 424.7 1553.98 427.66 1550.86 450.69 1572.68 427.21 1594.3" style="fill:#b7b7b7"/><rect x="386.36" y="1567.79" width="125.19" height="4.3" transform="translate(-1171.8 1371.36) rotate(-67.06)" style="fill:#b7b7b7"/><rect x="397.81" y="1567.79" width="125.19" height="4.3" transform="translate(-1164.81 1381.9) rotate(-67.06)" style="fill:#b7b7b7"/><rect x="267.33" y="1570.25" width="180.2" height="4.3" style="fill:#b7b7b7"/><rect x="519.94" y="1515.23" width="4.3" height="112.96" style="fill:#b7b7b7"/><path d="M267.94,1586a13.52,13.52,0,1,1,13.51-13.52A13.53,13.53,0,0,1,267.94,1586Zm0-22.73a9.22,9.22,0,1,0,9.21,9.21A9.23,9.23,0,0,0,267.94,1563.27Z" style="fill:#b7b7b7"/></g><polygon id="_tracciato_6" data-name=" tracciato 6" points="39 1839.21 39 1451 235.99 1451 235.99 1496.37 235.99 1515.49 255.11 1515.49 686.37 1515.49 686.37 1772.92 255.11 1772.92 235.99 1772.92 235.99 1792.12 235.99 1839.21 39 1839.21" style="fill:none"/></g><g class="clickable" id="D1-1E-11-A" data-name="customclass D1-1E-11-A"><g id="scala2"><polygon points="2417.19 1793.67 2049.03 1793.67 2049.03 1789.36 2412.88 1789.36 2412.88 1642.74 2171.46 1642.74 2171.46 1601.24 2489.68 1601.24 2489.68 1450.91 2049.03 1450.91 2049.03 1446.61 2493.99 1446.61 2493.99 1605.55 2175.77 1605.55 2175.77 1638.43 2417.19 1638.43 2417.19 1793.67" style="fill:#b7b7b7"/><polygon points="2491.23 1715.92 2112.32 1715.92 2112.32 1527.63 2294.24 1527.63 2294.24 1531.93 2116.62 1531.93 2116.62 1711.62 2491.23 1711.62 2491.23 1715.92" style="fill:#b7b7b7"/><rect x="2307.58" y="1527.54" width="184.25" height="4.3" style="fill:#b7b7b7"/><rect x="2171.46" y="1447.56" width="4.3" height="157.13" style="fill:#b7b7b7"/><rect x="2198.67" y="1449.54" width="4.3" height="155.15" style="fill:#b7b7b7"/><rect x="2171.46" y="1640.59" width="4.3" height="150.93" style="fill:#b7b7b7"/><rect x="2198.67" y="1640.59" width="4.3" height="150.93" style="fill:#b7b7b7"/><rect x="2225.88" y="1640.59" width="4.3" height="150.93" style="fill:#b7b7b7"/><rect x="2252.31" y="1640.59" width="4.3" height="150.93" style="fill:#b7b7b7"/><rect x="2279.09" y="1640.59" width="4.3" height="150.93" style="fill:#b7b7b7"/><rect x="2360.71" y="1640.59" width="4.3" height="150.93" style="fill:#b7b7b7"/><rect x="2386.36" y="1640.59" width="4.3" height="150.93" style="fill:#b7b7b7"/><rect x="2489.68" y="1640.59" width="4.3" height="150.93" style="fill:#b7b7b7"/><polygon points="2475.01 1732.94 2471.97 1729.9 2487.95 1713.92 2471.95 1697.45 2475.04 1694.45 2493.99 1713.96 2475.01 1732.94" style="fill:#b7b7b7"/><polygon points="2493.99 1642.74 2389.38 1642.74 2389.38 1638.43 2489.68 1638.43 2489.68 1605.29 2334.62 1605.29 2334.62 1600.98 2493.99 1600.98 2493.99 1642.74" style="fill:#b7b7b7"/><rect x="2305.78" y="1580.92" width="4.3" height="23.76" style="fill:#b7b7b7"/><rect x="2305.78" y="1447.56" width="4.3" height="81.53" style="fill:#b7b7b7"/><rect x="2252.05" y="1447.56" width="4.3" height="157.13" style="fill:#b7b7b7"/><rect x="2278.91" y="1481.82" width="4.3" height="122.86" style="fill:#b7b7b7"/><rect x="2225.19" y="1447.56" width="4.3" height="157.13" style="fill:#b7b7b7"/><rect x="2332.64" y="1447.56" width="4.3" height="157.13" style="fill:#b7b7b7"/><rect x="2359.5" y="1447.56" width="4.3" height="157.13" style="fill:#b7b7b7"/><rect x="2386.36" y="1447.56" width="4.3" height="157.13" style="fill:#b7b7b7"/><rect x="2305.43" y="1640.59" width="4.3" height="150.93" style="fill:#b7b7b7"/><rect x="2332.98" y="1640.59" width="4.3" height="150.93" style="fill:#b7b7b7"/><rect x="2463.76" y="1640.59" width="4.3" height="150.93" style="fill:#b7b7b7"/><rect x="2463.76" y="1447.64" width="4.3" height="154.46" style="fill:#b7b7b7"/><rect x="2438.8" y="1447.64" width="4.3" height="154.46" style="fill:#b7b7b7"/><rect x="2413.23" y="1447.64" width="4.3" height="154.46" style="fill:#b7b7b7"/><rect x="2438.19" y="1640.59" width="4.3" height="150.93" style="fill:#b7b7b7"/><path d="M2491.83,1544.67a15.24,15.24,0,1,1,15.24-15.24A15.26,15.26,0,0,1,2491.83,1544.67Zm0-26.17a10.94,10.94,0,1,0,10.94,10.93A10.94,10.94,0,0,0,2491.83,1518.5Z" style="fill:#b7b7b7"/><rect x="2304.01" y="1445.05" width="4.31" height="161.55" transform="translate(-317 650.86) rotate(-15.04)" style="fill:#b7b7b7"/><rect x="2291.27" y="1445.05" width="4.31" height="161.54" transform="translate(-317.43 647.55) rotate(-15.04)" style="fill:#b7b7b7"/><polygon points="2325.03 1548.72 2305.37 1529.81 2325.01 1510.26 2328.04 1513.31 2311.52 1529.75 2328.02 1545.62 2325.03 1548.72" style="fill:#b7b7b7"/></g><g id="tracciato"><rect x="2054.2" y="1452.89" width="450.63" height="335.18" style="fill:none"/></g></g><g class="clickable" id="D1-1E-10" data-name="customclass D1-1E-10"><polygon id="_tracciato_7" data-name=" tracciato 7" points="857.19 1839.21 857.19 1451 993.13 1451 993.13 1473.64 993.13 1492.84 1012.33 1492.84 1132.01 1492.84 1132.01 1839.21 857.19 1839.21" style="fill:#ddd"/></g><g class="clickable" id="D1-1E-09" data-name="customclass D1-1E-09"><polygon id="_tracciato_8" data-name=" tracciato 8" points="1151.21 1473.64 1151.21 1451 1672.44 1451 1672.44 1839.21 1151.21 1839.21 1151.21 1492.84 1151.21 1473.64" style="fill:#ddd"/></g><g class="clickable" id="D1-1E-08" data-name="customclass D1-1E-08"><rect x="1015.95" y="1872.62" width="256.48" height="130.18" style="fill:none"/></g><g class="clickable" id="D1-1E-06" data-name="customclass D1-1E-06"><rect id="_tracciato_10" data-name=" tracciato 10" x="39" y="2072.8" width="549.13" height="494.54" style="fill:#ddd"/></g><g class="clickable" id="D1-1E-05" data-name="customclass D1-1E-05"><rect id="_tracciato_11" data-name=" tracciato 11" x="607.33" y="2072.8" width="525.28" height="494.54" style="fill:#ddd"/></g><g class="clickable" id="D1-1E-04" data-name="customclass D1-1E-04"><rect id="_tracciato_12" data-name=" tracciato 12" x="1151.81" y="2072.8" width="249.85" height="494.54" style="fill:#ddd"/></g><g class="clickable" id="D1-1E-03" data-name="customclass D1-1E-03"><rect id="_tracciato_13" data-name=" tracciato 13" x="1420.87" y="2072.8" width="522.96" height="494.54" style="fill:#ddd"/></g><g class="clickable" id="D1-1E-02" data-name="customclass D1-1E-02"><rect id="_tracciato_14" data-name=" tracciato 14" x="1963.02" y="2072.8" width="511.94" height="494.54" style="fill:#ddd"/></g><g class="clickable" id="D1-1C-01" data-name="customclass D1-1C-01"><polygon id="_tracciato_15" data-name=" tracciato 15" points="2517.92 1451 2517.92 1431.89 2517.92 1293.53 2517.92 1274.33 2517.92 751.37 2992.49 751.37 2992.49 770.57 2992.49 915.22 2992.49 934.42 2992.49 1109.37 2992.49 1128.48 2992.49 1274.33 2992.49 1293.53 2992.49 1431.89 2992.49 1451 2992.49 1496.37 2992.49 1515.49 2992.49 1772.92 2992.49 1792.12 2992.49 1839.21 2992.49 1858.41 2992.49 2053.6 2992.49 2072.8 2992.49 2567.34 2517.92 2567.34 2517.92 2072.8 2517.92 2053.6 2517.92 1858.41 2517.92 1839.21 2517.92 1807.27 2517.92 1788.07 2517.92 1451" style="fill:none"/></g><g class="clickable" id="D1-1W-14" data-name="customclass D1-1W-14"><polygon id="_tracciato_16" data-name=" tracciato 16" points="3591.3 585.72 3591.3 38.92 4360.66 38.92 4360.66 827.48 3855.1 827.48 3855.1 604.92 3855.1 585.72 3835.9 585.72 3591.3 585.72" style="fill:#ddd"/></g><g class="clickable" id="D1-1W-13" data-name="customclass D1-1W-13"><polygon id="_tracciato_17" data-name=" tracciato 17" points="3145.69 585.72 3145.69 38.92 3572.1 38.92 3572.1 585.72 3415.74 585.72 3396.63 585.72 3145.69 585.72" style="fill:#ddd"/></g><g class="clickable" id="D1-1W-12" data-name="customclass D1-1W-12"><polygon id="_tracciato_18" data-name=" tracciato 18" points="3185.69 712.46 3185.69 604.92 3396.63 604.92 3396.63 751.37 3185.69 751.37 3185.69 712.46" style="fill:#f2f2f2"/></g><g class="clickable" id="D1-1W-11" data-name="customclass D1-1W-11"><polygon id="_tracciato_19" data-name=" tracciato 19" points="3252.5 915.22 3233.3 915.22 3032.78 915.22 3032.78 770.57 3396.63 770.57 3396.63 886.8 3396.63 914.53 3252.5 915.22" style="fill:#f2f2f2"/></g><g class="clickable" id="D1-1W-10" data-name="customclass D1-1W-10"><polygon id="_tracciato_20" data-name=" tracciato 20" points="3032.78 1109.37 3032.78 934.42 3233.3 934.42 3233.3 1014.57 3233.3 1033.77 3233.3 1109.37 3032.78 1109.37" style="fill:#f2f2f2"/></g><g class="clickable" id="D1-1W-09" data-name="customclass D1-1W-09"><polygon id="_tracciato_21" data-name=" tracciato 21" points="3396.63 1128.31 3396.63 1155.26 3396.63 1274.33 3032.78 1274.33 3032.78 1128.48 3233.3 1128.48 3252.5 1128.48 3396.63 1128.31" style="fill:#f2f2f2"/></g><g class="clickable" id="D1-1W-08" data-name="customclass D1-1W-08"><g id="scala3"><polygon points="3458.62 1436.79 3129.04 1436.79 3129.04 1289.05 3458.19 1289.05 3458.19 1293.36 3133.34 1293.36 3133.34 1432.49 3458.62 1432.49 3458.62 1436.79" style="fill:#b7b7b7"/><rect x="3237.95" y="1361.46" width="220.67" height="4.3" style="fill:#b7b7b7"/><polygon points="3458.1 1405.63 3183.45 1405.63 3183.45 1321.68 3272.82 1321.68 3272.82 1325.99 3187.76 1325.99 3187.76 1401.32 3458.1 1401.32 3458.1 1405.63" style="fill:#b7b7b7"/><rect x="3235.8" y="1291.2" width="4.3" height="143.96" style="fill:#b7b7b7"/><rect x="3260.68" y="1308.08" width="4.3" height="127.08" style="fill:#b7b7b7"/><rect x="3358.58" y="1363.61" width="4.3" height="71.55" style="fill:#b7b7b7"/><rect x="3309.5" y="1363.61" width="4.3" height="71.55" style="fill:#b7b7b7"/><rect x="3334.04" y="1363.61" width="4.3" height="71.55" style="fill:#b7b7b7"/><rect x="3284.88" y="1344.67" width="4.3" height="90.49" style="fill:#b7b7b7"/><rect x="3383.2" y="1363.61" width="4.3" height="71.55" style="fill:#b7b7b7"/><rect x="3407.74" y="1363.61" width="4.3" height="71.55" style="fill:#b7b7b7"/><rect x="3432.27" y="1363.61" width="4.3" height="71.55" style="fill:#b7b7b7"/><polygon points="3436.23 1422.51 3433.66 1419.05 3454.72 1403.41 3433.25 1387.83 3435.78 1384.34 3462 1403.37 3436.23 1422.51" style="fill:#b7b7b7"/><rect x="3273.77" y="1283.85" width="4.3" height="86.95" transform="translate(-189.56 2022.95) rotate(-33.41)" style="fill:#b7b7b7"/><rect x="3456.47" y="1289.74" width="4.3" height="145.76" style="fill:#b7b7b7"/></g><polygon id="_tracciato_22" data-name=" tracciato 22" points="3032.78 1431.89 3032.78 1293.53 3396.63 1293.53 3415.74 1293.53 3563.4 1293.53 3582.51 1293.53 3649.93 1293.53 3649.93 1431.89 3485.74 1431.89 3466.54 1431.89 3032.78 1431.89" style="fill:none"/></g><g class="clickable" id="D1-1W-06" data-name="customclass D1-1W-06"><polygon id="_tracciato_23" data-name=" tracciato 23" points="3855.1 1481.82 3855.1 846.68 4360.66 846.68 4360.66 1481.82 4127.6 1481.82 4108.48 1481.82 3855.1 1481.82" style="fill:#ddd"/></g><g class="clickable" id="D1-1W-05" data-name="customclass D1-1W-05"><polygon id="_tracciato_24" data-name=" tracciato 24" points="3032.78 2053.6 3032.78 1858.41 3466.54 1858.41 3485.74 1858.41 3485.74 1839.21 3485.74 1792.12 3485.74 1772.92 3466.54 1772.92 3385.52 1772.92 3385.52 1515.49 3466.54 1515.49 3485.74 1515.49 3485.74 1496.37 3485.74 1451 3649.93 1451 3669.13 1451 3669.13 1431.89 3669.13 1293.53 3669.13 1274.33 3669.13 770.57 3669.13 751.37 3649.93 751.37 3582.51 751.37 3563.4 751.37 3415.74 751.37 3415.74 604.92 3572.1 604.92 3591.3 604.92 3835.9 604.92 3835.9 827.48 3835.9 846.68 3835.9 1481.82 3835.9 1501.02 3855.1 1501.02 4108.48 1501.02 4108.48 2053.6 3585.44 2053.6 3566.24 2053.6 3315.78 2053.6 3296.67 2053.6 3032.78 2053.6" style="fill:#f2f2f2"/></g><g class="clickable" id="D1-1W-04" data-name="customclass D1-1W-04"><rect id="_tracciato_25" data-name=" tracciato 25" x="3032.78" y="2072.8" width="263.8" height="494.54" style="fill:#ddd"/></g><g class="clickable" id="D1-1W-03" data-name="customclass D1-1W-03"><rect id="_tracciato_26" data-name=" tracciato 26" x="3315.78" y="2072.8" width="250.46" height="494.54" style="fill:#ddd"/></g><g class="clickable" id="D1-1W-02" data-name="customclass D1-1W-02"><rect id="_tracciato_27" data-name=" tracciato 27" x="3585.44" y="2072.8" width="522.96" height="494.54" style="fill:#ddd"/></g><g class="clickable" id="D1-1W-01" data-name="customclass D1-1W-01"><g id="scala4"><polygon points="5327.54 2396.18 5323.23 2396.18 5323.23 2177.66 5298.69 2177.66 5298.69 2374.14 5177.13 2374.14 5177.13 2068.75 5181.43 2068.75 5181.43 2369.83 5294.39 2369.83 5294.39 2173.36 5327.54 2173.36 5327.54 2396.18" style="fill:#b7b7b7"/><polygon points="5389.7 2370.35 5385.4 2370.35 5385.4 2125.32 5241.87 2125.32 5241.87 2213.99 5237.56 2213.99 5237.56 2121.01 5389.7 2121.01 5389.7 2370.35" style="fill:#b7b7b7"/><rect x="5324.44" y="2173.36" width="122" height="4.3" style="fill:#b7b7b7"/><rect x="5324.44" y="2198.24" width="122" height="4.3" style="fill:#b7b7b7"/><rect x="5177.38" y="2173.36" width="119.16" height="4.3" style="fill:#b7b7b7"/><rect x="5263.14" y="2223.04" width="33.41" height="4.3" style="fill:#b7b7b7"/><rect x="5176.78" y="2223.04" width="58.46" height="4.3" style="fill:#b7b7b7"/><rect x="5179.28" y="2247.32" width="117.26" height="4.3" style="fill:#b7b7b7"/><rect x="5179.28" y="2271.68" width="117.26" height="4.3" style="fill:#b7b7b7"/><rect x="5179.28" y="2346.41" width="117.26" height="4.3" style="fill:#b7b7b7"/><polygon points="5327.71 2402.38 5294.3 2402.38 5294.3 2372.76 5298.61 2372.76 5298.61 2398.07 5323.4 2398.07 5323.4 2322.74 5327.71 2322.74 5327.71 2402.38" style="fill:#b7b7b7"/><rect x="5324.44" y="2296.13" width="122" height="4.3" style="fill:#b7b7b7"/><rect x="5324.44" y="2246.97" width="122" height="4.3" style="fill:#b7b7b7"/><rect x="5324.44" y="2271.59" width="122" height="4.3" style="fill:#b7b7b7"/><rect x="5324.44" y="2222.43" width="122" height="4.3" style="fill:#b7b7b7"/><rect x="5324.44" y="2320.67" width="122" height="4.3" style="fill:#b7b7b7"/><rect x="5324.44" y="2345.29" width="122" height="4.3" style="fill:#b7b7b7"/><rect x="5324.44" y="2369.83" width="122" height="4.3" style="fill:#b7b7b7"/><rect x="5179.28" y="2295.87" width="117.26" height="4.3" style="fill:#b7b7b7"/><rect x="5179.28" y="2321.02" width="117.26" height="4.3" style="fill:#b7b7b7"/><polygon points="5387.44 2374.16 5365.5 2348.41 5368.78 2345.62 5387.48 2367.57 5406.25 2346.12 5409.49 2348.95 5387.44 2374.16" style="fill:#b7b7b7"/><polygon points="5258.76 2250.89 5239.95 2231.84 5220.99 2250.49 5217.98 2247.42 5240 2225.76 5261.83 2247.87 5258.76 2250.89" style="fill:#b7b7b7"/><rect x="5235.11" y="2162.45" width="4.31" height="126.86" transform="translate(1146.95 6182.24) rotate(-67.07)" style="fill:#b7b7b7"/><rect x="5235.11" y="2150.83" width="4.31" height="126.86" transform="translate(1157.65 6175.14) rotate(-67.07)" style="fill:#b7b7b7"/><rect x="5237.57" y="2225.88" width="4.3" height="146.45" style="fill:#b7b7b7"/><rect x="5205.28" y="2198.24" width="90.92" height="4.3" style="fill:#b7b7b7"/></g><rect id="_tracciato_28" data-name=" tracciato 28" x="5180.57" y="2072.8" width="265.01" height="445.12" style="fill:none"/></g></g><g id="walls"><path d="M983.23,1451h9.9v41.84H1132v346.37H983.23v19.2h249.34v-19.2h-81.28V1451h81.37v-19.2H983.23Zm29.1,0H1132v22.73H1012.33Z" style="fill:#b7b7b7"/><path d="M2475,1858.41v5.26h19.2v-75.51H2054.29V1451.09h439.87v-25H2475V1432H1926.34V1858.5ZM1945.54,1451H2035v356.19h439.87v31.94H1945.46Z" style="fill:#b7b7b7"/><path d="M39,2606.26H5484.58V0H3106.69V712.46H0v1893.8Zm5406.58-38.92h-265v-30.22h265Zm0-49.42h-265V2072.8h265ZM4379.86,1501V38.92H5445.58V2053.6H5161.46v513.65H4127.6V1501ZM39,2072.8h79.64v-19.2H39V1858.33H95.91v-19.2H39V1450.91H95.91v-19.2H39V1293.44h84.29v-19.2H39V751.37H588.13v523H214.47v19.2H670.61v-19.2H607.25v-523h525.36v523H761.88v19.2h470.69v-19.2h-80.76v-523h249.86v523h-77.84v19.2h155.75v-19.2h-58.71v-523h523v523H1570.76v19.2h450.38v-19.2H1963v-523H2475v523H2112.31v19.2H2475v5.25h19.2V751.37h519.51v43h19.2V770.49h363.76v54h19.2V770.4H3563.4V886.63H3415.83v-5.85h-19.2v31.94h19.2v-7H3563.4V1014.4H3415.83V969.11h-19.2v45.29H3252.5V915H3032.87V891.8h-19.2V947h19.2V934.16h200.52v174.95H3032.87v-64.49h-19.2v95.91h19.2v-12H3252.5v-94.71h144.13v40.64h19.2v-40.64H3563.4v102.29H3415.83v-5.26h-19.2v33.67h19.2v-9.3H3563.4v119.16H3415.83v-53.47h-19.2v53.47H3032.87v-36h-19.2v277.15h352.74v257.43H3050.86v.6h-37.19V1874.6h19.2v-16.27h452.87v-85.41H3385.52V1515.49h100.22V1451h183.39v-50.54h-19.2v31.34H3032.78V1293.53h617.15v32.54h19.2V751.37H3415.74v-4h-19.2v4H3145.61V604.92h250.93v57.51h19.2V604.92H3432v-19.2H3145.61V38.92H3572v546.8h-42.45v19.2h131.91v-19.2h-70.35V38.92h769.37V827.48H3854.93V585.72H3759v19.2h76.72v709.53h19.2V846.68h505.56v635.14H3854.93v-69.74h-19.2V1501h272.5v552.66H3763.66v19.2h344.57v494.55h-523V2072.88h84.89v-19.2h-204v19.2h100v494.55H3315.61V2072.88h56.91v-19.2H3211v19.2h85.41v494.55H3032.52V2072.88h84.81v-19.2h-84.81v-17.39h-19.2v531.14H2493.81V2036.29h-19.2v17.39H2116.1v19.2h358.51v494.55H1963V2072.88h55.19v-19.2H1577.74v19.2h366.08v494.55H1420.87V2072.88h58.71v-19.2H1323.83v19.2h77.84v494.55H1151.81V2072.88h73.79v-19.2H767.13v19.2h365.48v494.55H607.33V2072.88h61.56v-19.2H216.79v19.2H588.13v494.55H39Zm3327.41-576.43H3032.78v-45.28h433.76v45.28Zm19.2,295.75h81v47.09H3032.87v-47.09Zm196.9-517.79V770.49h67.42v503.84Z" style="fill:#b7b7b7"/><polygon points="1323.83 1451 1672.44 1451 1672.44 1839.21 1323.83 1839.21 1323.83 1858.41 1672.44 1858.41 1691.64 1858.41 1691.64 1839.21 1691.64 1451 1691.64 1431.89 1672.44 1431.89 1323.83 1431.89 1323.83 1451" style="fill:#b7b7b7"/><path d="M255.11,1858.41H892v-19.2H857.1V1451H892v-19.2H222.56V1451h13.35v64.49H686.28v257.43H235.91v66.21H222.56v19.2h32.55Zm0-66.29H705.48V1496.37H255.11v-45.28H838V1839.3H255.11Z" style="fill:#b7b7b7"/></g></g></svg>