<svg id="Livello_1" data-name="Livello 1" xmlns="http://www.w3.org/2000/svg" xmlns:xlink="http://www.w3.org/1999/xlink" viewBox="0 0 5500 3000"><defs><pattern id="locale_tecnico-17_1_" data-name="locale tecnico-17 1 " width="38.5" height="38.5" patternTransform="matrix(-0.53, 0, 0, 0.58, -16705.65, 23194.86)" patternUnits="userSpaceOnUse" viewBox="0 0 38.5 38.5"><rect width="38.5" height="38.5" style="fill:none"/><rect width="38.5" height="38.5" style="fill:none"/><rect width="38.5" height="38.5" style="fill:none"/><rect width="38.5" height="38.5" style="fill:none"/><rect width="38.5" height="38.5" style="fill:none"/><rect width="38.5" height="38.5" style="fill:none"/><rect width="38.5" height="38.5" style="fill:none"/><rect width="38.5" height="38.5" style="fill:none"/><rect x="35.8" y="-35.8" width="40.5" height="39.2" style="fill:#f2f2f2"/><line x1="38.5" x2="77" y2="-38.5" style="fill:none;stroke:#ddd;stroke-linecap:square;stroke-linejoin:round;stroke-width:20px"/><rect x="-2.7" y="-35.8" width="40.5" height="39.2" style="fill:#f2f2f2"/><line x2="38.5" y2="-38.5" style="fill:none;stroke:#ddd;stroke-linecap:square;stroke-linejoin:round;stroke-width:20px"/><line x1="-38.5" y2="-38.5" style="fill:none;stroke:#ddd;stroke-linecap:square;stroke-linejoin:round;stroke-width:20px"/><rect x="35.8" y="2.7" width="40.5" height="39.2" style="fill:#f2f2f2"/><line x1="38.5" y1="38.5" x2="77" style="fill:none;stroke:#ddd;stroke-linecap:square;stroke-linejoin:round;stroke-width:20px"/><rect x="-2.7" y="2.7" width="40.5" height="39.2" style="fill:#f2f2f2"/><line y1="38.5" x2="38.5" style="fill:none;stroke:#ddd;stroke-linecap:square;stroke-linejoin:round;stroke-width:20px"/><line x1="-38.5" y1="38.5" style="fill:none;stroke:#ddd;stroke-linecap:square;stroke-linejoin:round;stroke-width:20px"/><line x1="38.5" y1="77" x2="77" y2="38.5" style="fill:none;stroke:#ddd;stroke-linecap:square;stroke-linejoin:round;stroke-width:20px"/><line y1="77" x2="38.5" y2="38.5" style="fill:none;stroke:#ddd;stroke-linecap:square;stroke-linejoin:round;stroke-width:20px"/><line x1="-38.5" y1="77" y2="38.5" style="fill:none;stroke:#ddd;stroke-linecap:square;stroke-linejoin:round;stroke-width:20px"/></pattern></defs><g id="D1-floor2"><g id="background"><polygon points="5500 38.91 5500 0 5464.17 0 3137.39 0 3101.48 0 3101.48 38.91 3101.48 655.94 3101.48 712.32 2996.61 712.32 35.83 712.32 0 712.32 0 751.23 0 2566.86 0 2605.77 35.83 2605.77 5464.17 2605.77 5500 2605.77 5500 2566.86 5500 38.91" style="fill:#f2f2f2"/></g><g id="rooms"><rect id="locale_tecnico-17" data-name="locale tecnico-17" x="211.89" y="1450.73" width="55.09" height="388.14" style="fill:url(#locale_tecnico-17_1_)"/><polygon id="locale_tecnico-18" data-name="locale tecnico-18" points="439.23 1496.1 439.23 1450.73 975.88 1450.73 975.88 1838.87 439.23 1838.87 439.23 1791.78 836.29 1791.78 853.89 1791.78 853.89 1772.59 853.89 1515.2 853.89 1496.1 836.29 1496.1 439.23 1496.1" style="fill:url(#locale_tecnico-17_1_)"/><polygon id="locale_tecnico-19" data-name="locale tecnico-19" points="1995.6 1838.87 1995.6 1450.73 2078.04 1450.73 2078.04 1787.74 2078.04 1806.93 2095.63 1806.93 2483.02 1806.93 2483.02 1838.87 1995.6 1838.87" style="fill:url(#locale_tecnico-17_1_)"/><polygon id="locale_tecnico-20" data-name="locale tecnico-20" points="2996.61 1496.1 2996.61 1450.73 3395.96 1450.73 3395.96 1772.59 3395.96 1791.78 3395.96 1838.87 2996.61 1838.87 2996.61 1791.78 3303.77 1791.78 3321.37 1791.78 3321.37 1772.59 3321.37 1515.2 3321.37 1496.1 3303.77 1496.1 2996.61 1496.1" style="fill:url(#locale_tecnico-17_1_)"/><polygon id="locale_tecnico-21" data-name="locale tecnico-21" points="3502.74 854.1 3502.74 770.43 3564.81 770.43 3564.81 1014.38 3564.81 1033.58 3564.81 1274.09 3502.74 1274.09 3502.74 1128.27 3502.74 1109.16 3502.74 873.21 3502.74 854.1" style="fill:url(#locale_tecnico-17_1_)"/><polygon id="locale_tecnico-22" data-name="locale tecnico-22" points="4974.05 2566.86 4974.05 2536.65 5365.16 2536.65 5382.84 2536.65 5382.84 2517.45 5382.84 2072.41 5464.17 2072.41 5464.17 2566.86 4974.05 2566.86" style="fill:url(#locale_tecnico-17_1_)"/><rect id="locale_tecnico-23" data-name="locale tecnico-23" x="4264.12" y="1221.84" width="249.86" height="377.64" style="fill:url(#locale_tecnico-17_1_)"/><rect id="locale_tecnico-24" data-name="locale tecnico-24" x="4974.05" y="1791.78" width="243.99" height="261.43" style="fill:url(#locale_tecnico-17_1_)"/><rect id="senza_codice" data-name="senza codice" x="3317.09" y="324.18" width="167.97" height="96.41" style="fill:#f2f2f2"/><rect id="senza_codice-2" data-name="senza codice-2" x="3317.09" y="213.22" width="167.97" height="91.76" style="fill:#f2f2f2"/><rect id="senza_codice-3" data-name="senza codice-3" x="3317.09" y="38.91" width="167.97" height="155.12" style="fill:#f2f2f2"/><rect id="senza_codice-4" data-name="senza codice-4" x="3174.64" y="1128.27" width="93.06" height="145.82" style="fill:#f2f2f2"/><rect id="senza_codice-5" data-name="senza codice-5" x="3286.18" y="1128.27" width="88.78" height="145.82" style="fill:#f2f2f2"/><rect id="senza_codice-6" data-name="senza codice-6" x="3392.63" y="1128.27" width="93.06" height="145.82" style="fill:#f2f2f2"/><g class="clickable" id="D1-2C-01-D" data-name="customclass D1-2C-01-D"><rect id="a" x="2996.61" y="1515.2" width="307.09" height="257.38" style="fill:#f2f2f2"/></g><g class="clickable" id="D1-2E-17" data-name="customclass D1-2E-17"><polygon id="_tracciato_" data-name=" tracciato " points="35.83 1274.09 35.83 751.23 499.71 751.23 499.71 1274.09 89.34 1274.09 41.77 1274.09 35.83 1274.09" style="fill:#ddd"/></g><g class="clickable" id="D1-2E-16" data-name="customclass D1-2E-16"><rect id="_tracciato_2" data-name=" tracciato 2" x="517.39" y="751.23" width="479.42" height="522.86" style="fill:#ddd"/></g><g class="clickable" id="D1-2E-15" data-name="customclass D1-2E-15"><rect id="_tracciato_3" data-name=" tracciato 3" x="1014.41" y="751.23" width="480.45" height="522.86" style="fill:#ddd"/></g><g class="clickable" id="D1-2E-14" data-name="customclass D1-2E-14"><rect id="_tracciato_4" data-name=" tracciato 4" x="1512.53" y="751.23" width="481.48" height="522.86" style="fill:#ddd"/></g><g class="clickable" id="D1-2E-13" data-name="customclass D1-2E-13"><rect id="_tracciato_5" data-name=" tracciato 5" x="2011.69" y="751.23" width="471.33" height="522.86" style="fill:#ddd"/></g><g class="clickable" id="D1-2E-12" data-name="customclass D1-2E-12"><g id="scala1"><polygon points="845.33 1777.32 505.1 1777.32 505.1 1654.48 754.32 1654.48 754.32 1630.3 505.1 1630.3 505.1 1510.3 845.33 1510.3 845.33 1514.6 509.07 1514.6 509.07 1625.99 758.29 1625.99 758.29 1658.79 509.07 1658.79 509.07 1773.02 845.33 1773.02 845.33 1777.32" style="fill:#b7b7b7"/><polygon points="786.19 1720.16 451.04 1720.16 451.04 1715.86 782.23 1715.86 782.23 1574.26 627.34 1574.26 627.34 1569.95 786.19 1569.95 786.19 1720.16" style="fill:#b7b7b7"/><rect x="705.65" y="1655.69" width="3.96" height="120.43" style="fill:#b7b7b7"/><rect x="728.8" y="1655.69" width="3.96" height="120.43" style="fill:#b7b7b7"/><rect x="683.06" y="1655.69" width="3.96" height="120.43" style="fill:#b7b7b7"/><rect x="728.8" y="1512.45" width="3.96" height="115.69" style="fill:#b7b7b7"/><rect x="705.65" y="1512.88" width="3.96" height="115.26" style="fill:#b7b7b7"/><rect x="660.47" y="1512.45" width="3.96" height="115.69" style="fill:#b7b7b7"/><rect x="638.51" y="1538.45" width="3.96" height="89.7" style="fill:#b7b7b7"/><rect x="616.32" y="1512.45" width="3.96" height="55.35" style="fill:#b7b7b7"/><rect x="616.32" y="1595.69" width="3.96" height="31.42" style="fill:#b7b7b7"/><rect x="548.46" y="1512.45" width="3.96" height="115.69" style="fill:#b7b7b7"/><rect x="527.14" y="1512.45" width="3.96" height="115.69" style="fill:#b7b7b7"/><polygon points="573.91 1658.96 419.1 1658.96 419.1 1625.99 528.41 1625.99 528.41 1630.3 423.06 1630.3 423.06 1654.66 573.91 1654.66 573.91 1658.96" style="fill:#b7b7b7"/><rect x="594.12" y="1655.69" width="3.96" height="120.43" style="fill:#b7b7b7"/><rect x="638.75" y="1655.69" width="3.96" height="120.43" style="fill:#b7b7b7"/><rect x="616.4" y="1655.69" width="3.96" height="120.43" style="fill:#b7b7b7"/><rect x="661.02" y="1655.69" width="3.96" height="120.43" style="fill:#b7b7b7"/><rect x="571.77" y="1655.69" width="3.96" height="120.43" style="fill:#b7b7b7"/><rect x="549.41" y="1655.69" width="3.96" height="120.43" style="fill:#b7b7b7"/><rect x="527.14" y="1655.69" width="3.96" height="120.43" style="fill:#b7b7b7"/><rect x="476.33" y="1512.45" width="3.96" height="115.69" style="fill:#b7b7b7"/><rect x="476.33" y="1655.69" width="3.96" height="120.43" style="fill:#b7b7b7"/><rect x="449.06" y="1512.45" width="3.96" height="115.69" style="fill:#b7b7b7"/><rect x="449.06" y="1655.69" width="3.96" height="120.43" style="fill:#b7b7b7"/><rect x="594.36" y="1512.45" width="3.96" height="115.69" style="fill:#b7b7b7"/><rect x="571.45" y="1512.45" width="3.96" height="115.69" style="fill:#b7b7b7"/><polygon points="471.13 1739.68 448.25 1717.82 471.63 1696.15 474.2 1699.42 454.3 1717.87 473.75 1736.45 471.13 1739.68" style="fill:#b7b7b7"/><polygon points="597.68 1594 595 1590.84 613.49 1572.34 595.37 1553.69 598.1 1550.57 619.3 1572.38 597.68 1594" style="fill:#b7b7b7"/><polygon points="597.06 1628.12 593.41 1626.44 638.35 1511.18 642 1512.86 597.06 1628.12" style="fill:#b7b7b7"/><polygon points="607.6 1628.12 603.95 1626.44 648.89 1511.18 652.54 1512.86 607.6 1628.12" style="fill:#b7b7b7"/><rect x="450.49" y="1569.95" width="165.91" height="4.3" style="fill:#b7b7b7"/><rect x="683.06" y="1514.95" width="3.96" height="112.94" style="fill:#b7b7b7"/><path d="M451,1585.7c-6.86,0-12.44-6.06-12.44-13.51s5.58-13.51,12.44-13.51,12.45,6.06,12.45,13.51S457.9,1585.7,451,1585.7Zm0-22.72c-4.68,0-8.48,4.13-8.48,9.21s3.8,9.21,8.48,9.21,8.48-4.13,8.48-9.21S455.72,1563,451,1563Z" style="fill:#b7b7b7"/></g><polygon id="_tracciato_6" data-name=" tracciato 6" points="284.65 1838.87 284.65 1450.73 421.63 1450.73 421.63 1496.1 421.63 1515.2 439.23 1515.2 836.29 1515.2 836.29 1772.59 439.23 1772.59 421.63 1772.59 421.63 1791.78 421.63 1838.87 284.65 1838.87" style="fill:none"/></g><g class="clickable" id="D1-2E-12-A" data-name="customclass D1-2E-12-A"><g id="scala2"><polygon points="2429.83 1793.33 2090.88 1793.33 2090.88 1789.03 2425.87 1789.03 2425.87 1642.43 2203.6 1642.43 2203.6 1600.94 2496.58 1600.94 2496.58 1450.64 2090.88 1450.64 2090.88 1446.34 2500.54 1446.34 2500.54 1605.25 2207.56 1605.25 2207.56 1638.13 2429.83 1638.13 2429.83 1793.33" style="fill:#b7b7b7"/><polygon points="2498 1715.6 2149.14 1715.6 2149.14 1527.34 2316.64 1527.34 2316.64 1531.65 2153.11 1531.65 2153.11 1711.3 2498 1711.3 2498 1715.6" style="fill:#b7b7b7"/><rect x="2328.92" y="1527.26" width="169.64" height="4.3" style="fill:#b7b7b7"/><rect x="2203.6" y="1447.29" width="3.96" height="157.1" style="fill:#b7b7b7"/><rect x="2228.65" y="1449.27" width="3.96" height="155.12" style="fill:#b7b7b7"/><rect x="2203.6" y="1640.28" width="3.96" height="150.9" style="fill:#b7b7b7"/><rect x="2228.65" y="1640.28" width="3.96" height="150.9" style="fill:#b7b7b7"/><rect x="2253.7" y="1640.28" width="3.96" height="150.9" style="fill:#b7b7b7"/><rect x="2278.03" y="1640.28" width="3.96" height="150.9" style="fill:#b7b7b7"/><rect x="2302.69" y="1640.28" width="3.96" height="150.9" style="fill:#b7b7b7"/><rect x="2377.83" y="1640.28" width="3.96" height="150.9" style="fill:#b7b7b7"/><rect x="2401.45" y="1640.28" width="3.96" height="150.9" style="fill:#b7b7b7"/><rect x="2496.58" y="1640.28" width="3.96" height="150.9" style="fill:#b7b7b7"/><polygon points="2483.08 1732.62 2480.27 1729.58 2494.98 1713.6 2480.25 1697.13 2483.1 1694.13 2500.55 1713.64 2483.08 1732.62" style="fill:#b7b7b7"/><polygon points="2500.54 1642.43 2404.23 1642.43 2404.23 1638.13 2496.58 1638.13 2496.58 1604.99 2353.81 1604.99 2353.81 1600.68 2500.54 1600.68 2500.54 1642.43" style="fill:#b7b7b7"/><rect x="2327.26" y="1580.63" width="3.96" height="23.76" style="fill:#b7b7b7"/><rect x="2327.26" y="1447.29" width="3.96" height="81.52" style="fill:#b7b7b7"/><rect x="2277.79" y="1447.29" width="3.96" height="157.1" style="fill:#b7b7b7"/><rect x="2302.53" y="1481.55" width="3.96" height="122.84" style="fill:#b7b7b7"/><rect x="2253.06" y="1447.29" width="3.96" height="157.1" style="fill:#b7b7b7"/><rect x="2351.99" y="1447.29" width="3.96" height="157.1" style="fill:#b7b7b7"/><rect x="2376.72" y="1447.29" width="3.96" height="157.1" style="fill:#b7b7b7"/><rect x="2401.45" y="1447.29" width="3.96" height="157.1" style="fill:#b7b7b7"/><rect x="2326.94" y="1640.28" width="3.96" height="150.9" style="fill:#b7b7b7"/><rect x="2352.31" y="1640.28" width="3.96" height="150.9" style="fill:#b7b7b7"/><rect x="2472.72" y="1640.28" width="3.96" height="150.9" style="fill:#b7b7b7"/><rect x="2472.72" y="1447.37" width="3.96" height="154.43" style="fill:#b7b7b7"/><rect x="2449.73" y="1447.37" width="3.96" height="154.43" style="fill:#b7b7b7"/><rect x="2426.19" y="1447.37" width="3.96" height="154.43" style="fill:#b7b7b7"/><rect x="2449.17" y="1640.28" width="3.96" height="150.9" style="fill:#b7b7b7"/><path d="M2498.56,1544.39c-7.74,0-14-6.84-14-15.24s6.29-15.24,14-15.24,14,6.84,14,15.24S2506.3,1544.39,2498.56,1544.39Zm0-26.17c-5.55,0-10.07,4.9-10.07,10.93s4.52,10.93,10.07,10.93,10.07-4.9,10.07-10.93S2504.11,1518.22,2498.56,1518.22Z" style="fill:#b7b7b7"/><polygon points="2345 1604.08 2306.4 1448.1 2310.23 1446.99 2348.83 1602.97 2345 1604.08" style="fill:#b7b7b7"/><polygon points="2333.27 1604.08 2294.67 1448.1 2298.5 1446.99 2337.1 1602.97 2333.27 1604.08" style="fill:#b7b7b7"/><polygon points="2344.99 1548.43 2326.88 1529.52 2344.96 1509.98 2347.76 1513.03 2332.55 1529.47 2347.74 1545.33 2344.99 1548.43" style="fill:#b7b7b7"/></g><g id="a-2"><rect x="2095" y="1450.73" width="424.33" height="340.45" style="fill:none"/></g></g><g class="clickable" id="D1-2E-11" data-name="customclass D1-2E-11"><rect id="_tracciato_7" data-name=" tracciato 7" x="993.56" y="1450.73" width="253.11" height="388.14" style="fill:#ddd"/></g><g class="clickable" id="D1-2E-10" data-name="customclass D1-2E-10"><rect id="_tracciato_8" data-name=" tracciato 8" x="1264.26" y="1450.73" width="479.89" height="388.14" style="fill:#ddd"/></g><g class="clickable" id="D1-2E-09" data-name="customclass D1-2E-09"><rect x="1138.54" y="1905.24" width="251.44" height="113.2" style="fill:none"/></g><g class="clickable" id="D1-2E-04" data-name="customclass D1-2E-04"><rect id="_tracciato_10" data-name=" tracciato 10" x="35.83" y="2072.41" width="709.93" height="494.45" style="fill:#ddd"/></g><g class="clickable" id="D1-2E-03" data-name="customclass D1-2E-03"><rect id="_tracciato_11" data-name=" tracciato 11" x="763.52" y="2072.41" width="1230.57" height="494.45" style="fill:#ddd"/></g><g class="clickable" id="D1-2E-02" data-name="customclass D1-2E-02"><rect id="_tracciato_12" data-name=" tracciato 12" x="2011.69" y="2072.41" width="471.33" height="494.45" style="fill:#ddd"/></g><g class="clickable" id="D1-2C-01" data-name="customclass D1-2C-01"><polygon id="_tracciato_13" data-name=" tracciato 13" points="2527.41 1450.73 2527.41 1431.62 2527.41 1293.29 2527.41 1274.09 2527.41 751.23 2979.01 751.23 2979.01 915.04 2979.01 934.24 2979.01 1274.09 2979.01 1293.29 2979.01 1431.62 2979.01 1450.73 2979.01 1496.1 2979.01 1515.2 2979.01 1772.59 2979.01 1791.78 2979.01 1838.87 2979.01 1858.07 2979.01 2566.86 2527.41 2566.86 2527.41 2072.41 2527.41 2053.21 2527.41 1858.07 2527.41 1838.87 2527.41 1806.93 2527.41 1450.73" style="fill:#f2f2f2"/></g><g class="clickable" id="D1-2W-17" data-name="customclass D1-2W-17"><polygon id="_tracciato_14" data-name=" tracciato 14" points="3174.8 1109.16 3174.8 934.24 3289.82 934.24 3307.5 934.24 3307.5 915.04 3307.5 873.21 3485.14 873.21 3485.14 1109.16 3392 1109.16 3374.4 1109.16 3285.54 1109.16 3267.86 1109.16 3174.8 1109.16" style="fill:#f2f2f2"/></g><g class="clickable" id="D1-2W-16" data-name="customclass D1-2W-16"><polygon id="_tracciato_15" data-name=" tracciato 15" points="2996.61 915.04 2996.61 751.23 3101.48 751.23 3137.39 751.23 3137.39 712.32 3137.39 655.94 3289.82 655.94 3289.82 854.1 3289.82 873.21 3289.82 915.04 3174.8 915.04 3157.13 915.04 2996.61 915.04" style="fill:#f2f2f2"/></g><g class="clickable" id="D1-2W-15" data-name="customclass D1-2W-15"><polygon id="_tracciato_16" data-name=" tracciato 16" points="3307.5 854.1 3307.5 655.94 3485.14 655.94 3485.14 751.23 3485.14 770.43 3485.14 854.1 3307.5 854.1" style="fill:#f2f2f2"/></g><g class="clickable" id="D1-2W-14" data-name="customclass D1-2W-14"><polygon id="_tracciato_17" data-name=" tracciato 17" points="2996.61 1274.09 2996.61 934.24 3157.13 934.24 3157.13 1109.16 3157.13 1128.27 3157.13 1274.09 2996.61 1274.09" style="fill:#f2f2f2"/></g><g class="clickable" id="D1-2W-13" data-name="customclass D1-2W-13"><rect x="3136.59" y="41.41" width="157.51" height="585.01" style="fill:#f2f2f2"/></g><g class="clickable" id="D1-2W-12" data-name="customclass D1-2W-12"><polygon id="_tracciato_19" data-name=" tracciato 19" points="3502.74 194.03 3502.74 38.91 4978.89 38.91 4978.89 1014.38 3582.48 1014.38 3582.48 770.43 3582.48 751.23 3564.81 751.23 3502.74 751.23 3502.74 655.94 3502.74 636.74 3502.74 439.79 3502.74 420.68 3502.74 324.18 3502.74 304.99 3502.74 213.22 3502.74 194.03" style="fill:#ddd"/></g><g class="clickable" id="D1-2W-11" data-name="customclass D1-2W-11"><rect id="_tracciato_20" data-name=" tracciato 20" x="4996.56" y="38.91" width="467.61" height="975.47" style="fill:#ddd"/></g><g class="clickable" id="D1-2W-10" data-name="customclass D1-2W-10"><rect id="_tracciato_21" data-name=" tracciato 21" x="3808.24" y="1221.84" width="438.2" height="377.64" style="fill:#ddd"/></g><g class="clickable" id="D1-2W-08" data-name="customclass D1-2W-08"><rect id="_tracciato_22" data-name=" tracciato 22" x="4531.65" y="1221.84" width="704.62" height="377.64" style="fill:#ddd"/></g><g class="clickable" id="D1-2W-07" data-name="customclass D1-2W-07"><rect x="3413.64" y="1327.46" width="377" height="208.23" style="fill:#f2f2f2"/></g><g class="clickable" id="D1-2W-06" data-name="customclass D1-2W-06"><polygon id="_tracciato_24" data-name=" tracciato 24" points="2996.61 2566.86 2996.61 1858.07 3395.96 1858.07 3413.64 1858.07 3413.64 1838.87 3413.64 1791.78 3986.99 1791.78 3986.99 2566.86 2996.61 2566.86" style="fill:#ddd"/></g><g class="clickable" id="D1-2W-04" data-name="customclass D1-2W-04"><rect id="_tracciato_25" data-name=" tracciato 25" x="4004.59" y="1791.78" width="477.75" height="775.08" style="fill:#ddd"/></g><g class="clickable" id="D1-2W-03" data-name="customclass D1-2W-03"><polygon id="_tracciato_26" data-name=" tracciato 26" points="4500.02 2566.86 4500.02 1791.78 4956.45 1791.78 4956.45 2053.21 4956.45 2072.41 4956.45 2517.45 4956.45 2536.65 4956.45 2566.86 4500.02 2566.86" style="fill:#ddd"/></g><g class="clickable" id="D1-2W-01" data-name="customclass D1-2W-01"><g id="scala3"><polygon points="5109.36 2395.73 5105.4 2395.73 5105.4 2177.26 5082.81 2177.26 5082.81 2373.69 4970.88 2373.69 4970.88 2068.36 4974.84 2068.36 4974.84 2369.39 5078.84 2369.39 5078.84 2172.95 5109.36 2172.95 5109.36 2395.73" style="fill:#b7b7b7"/><polygon points="5166.6 2369.91 5162.63 2369.91 5162.63 2124.92 5030.49 2124.92 5030.49 2213.58 5026.53 2213.58 5026.53 2120.61 5166.6 2120.61 5166.6 2369.91" style="fill:#b7b7b7"/><rect x="5106.51" y="2172.95" width="112.32" height="4.3" style="fill:#b7b7b7"/><rect x="5106.51" y="2197.83" width="112.32" height="4.3" style="fill:#b7b7b7"/><rect x="4971.12" y="2172.95" width="109.71" height="4.3" style="fill:#b7b7b7"/><rect x="5050.07" y="2222.62" width="30.76" height="4.3" style="fill:#b7b7b7"/><rect x="4970.56" y="2222.62" width="53.82" height="4.3" style="fill:#b7b7b7"/><rect x="4972.86" y="2246.9" width="107.96" height="4.3" style="fill:#b7b7b7"/><rect x="4972.86" y="2271.26" width="107.96" height="4.3" style="fill:#b7b7b7"/><rect x="4972.86" y="2345.98" width="107.96" height="4.3" style="fill:#b7b7b7"/><polygon points="5109.52 2401.93 5078.77 2401.93 5078.77 2372.32 5082.73 2372.32 5082.73 2397.63 5105.56 2397.63 5105.56 2322.3 5109.52 2322.3 5109.52 2401.93" style="fill:#b7b7b7"/><rect x="5106.51" y="2295.7" width="112.32" height="4.3" style="fill:#b7b7b7"/><rect x="5106.51" y="2246.55" width="112.32" height="4.3" style="fill:#b7b7b7"/><rect x="5106.51" y="2271.17" width="112.32" height="4.3" style="fill:#b7b7b7"/><rect x="5106.51" y="2222.02" width="112.32" height="4.3" style="fill:#b7b7b7"/><rect x="5106.51" y="2320.24" width="112.32" height="4.3" style="fill:#b7b7b7"/><rect x="5106.51" y="2344.86" width="112.32" height="4.3" style="fill:#b7b7b7"/><rect x="5106.51" y="2369.39" width="112.32" height="4.3" style="fill:#b7b7b7"/><rect x="4972.86" y="2295.45" width="107.96" height="4.3" style="fill:#b7b7b7"/><rect x="4972.86" y="2320.58" width="107.96" height="4.3" style="fill:#b7b7b7"/><polygon points="5164.51 2373.72 5144.32 2347.97 5147.34 2345.18 5164.55 2367.13 5181.83 2345.68 5184.81 2348.51 5164.51 2373.72" style="fill:#b7b7b7"/><polygon points="5046.04 2250.47 5028.73 2231.43 5011.27 2250.07 5008.49 2247 5028.77 2225.35 5048.86 2247.45 5046.04 2250.47" style="fill:#b7b7b7"/><polygon points="5079.26 2252.15 4971.69 2202.74 4973.24 2198.77 5080.8 2248.18 5079.26 2252.15" style="fill:#b7b7b7"/><polygon points="5079.26 2240.53 4971.69 2191.12 4973.24 2187.15 5080.8 2236.56 5079.26 2240.53" style="fill:#b7b7b7"/><rect x="5026.53" y="2225.46" width="3.96" height="146.42" style="fill:#b7b7b7"/><rect x="4996.8" y="2197.83" width="83.71" height="4.3" style="fill:#b7b7b7"/></g><polygon id="_tracciato_27" data-name=" tracciato 27" points="4974.05 2517.45 4974.05 2072.41 5218.04 2072.41 5218.04 2368.18 5235.72 2368.18 5235.72 2072.41 5365.16 2072.41 5365.16 2517.45 4974.05 2517.45" style="fill:none"/></g></g><g id="walls"><polygon points="1744.16 1450.73 1744.16 1838.87 1423.2 1838.87 1423.2 1858.07 1744.16 1858.07 1761.83 1858.07 1761.83 1838.87 1761.83 1450.73 1761.83 1431.62 1744.16 1431.62 1423.2 1431.62 1423.2 1450.73 1744.16 1450.73" style="fill:#b7b7b7"/><path d="M421.63,1450.73v64.47H836.29v257.39H421.63v66.19H409.35V1858h652.22v-19.2H993.64V1450.64h67.93v-19.19H409.35v19.19h12.28Zm17.6,0H975.88v388.14H439.23v-47.09H853.89V1496.09H439.23Z" style="fill:#b7b7b7"/><path d="M284.65,1838.87V1450.73h8v-19.2H194.21V1858h98.45v-19.2h-8Zm-17.67,0H211.89V1450.73H267Z" style="fill:#b7b7b7"/><polygon points="1246.58 1450.73 1246.58 1838.87 1145.52 1838.87 1145.52 1858.07 1246.58 1858.07 1264.26 1858.07 1339.17 1858.07 1339.17 1838.87 1264.26 1838.87 1264.26 1450.73 1339.17 1450.73 1339.17 1431.62 1264.26 1431.62 1246.58 1431.62 1145.52 1431.62 1145.52 1450.73 1246.58 1450.73" style="fill:#b7b7b7"/><polygon points="4513.97 1221.84 4513.97 1599.48 4337.44 1599.48 4337.44 1618.67 4513.97 1618.67 4531.65 1618.67 4600.06 1618.67 4600.06 1599.48 4531.65 1599.48 4531.65 1221.84 4600.06 1221.84 4600.06 1202.64 4531.65 1202.64 4513.97 1202.64 4337.44 1202.64 4337.44 1221.84 4513.97 1221.84" style="fill:#b7b7b7"/><polygon points="4246.44 1221.84 4246.44 1599.48 4168.84 1599.48 4168.84 1618.67 4246.44 1618.67 4264.12 1618.67 4337.44 1618.67 4337.44 1599.48 4264.12 1599.48 4264.12 1221.84 4337.44 1221.84 4337.44 1202.64 4264.12 1202.64 4246.44 1202.64 4168.84 1202.64 4168.84 1221.84 4246.44 1221.84" style="fill:#b7b7b7"/><polygon points="5236.19 1221.84 5236.19 1599.48 4686.22 1599.48 4686.22 1618.67 5236.19 1618.67 5253.87 1618.67 5253.87 1599.48 5253.87 1221.84 5253.87 1202.64 5236.19 1202.64 4686.22 1202.64 4686.22 1221.84 5236.19 1221.84" style="fill:#b7b7b7"/><polygon points="4082.75 1618.67 4082.75 1599.48 3808.24 1599.48 3808.24 1221.84 4082.75 1221.84 4082.75 1202.64 3808.24 1202.64 3790.64 1202.64 3790.64 1221.84 3790.64 1599.48 3790.64 1618.67 3808.24 1618.67 4082.75 1618.67" style="fill:#b7b7b7"/><polygon points="763.52 2072.41 1332.75 2072.41 1332.75 2053.21 763.52 2053.21 745.84 2053.21 401.81 2053.21 401.81 2072.41 745.84 2072.41 745.84 2077.66 763.52 2077.66 763.52 2072.41" style="fill:#b7b7b7"/><path d="M35.83,2605.77H5499.92V0H3101.48V712.32H0V2605.77Zm5428.34-38.91h-490v-30.21h408.79V2072.41h81.33v494.45ZM3502.74,1128.27V770.43h62.07v503.75h-62.07ZM35.83,2072.41H315.09v-19.2H35.83V1293.29H91.48v-19.2H35.83V751.23H499.71v522.86H175.5v19.2h397v-19.2H517.39V751.23H996.81v522.86H656.51v19.2h405v-19.2h-47.08V751.23h480.44v522.86H1145.52v19.2h422.1v-19.2h-55.09V751.23H1994v522.86H1651.57v19.2h413.55v-19.2h-53.43V751.23H2483v522.86H2149.14v19.2H2483v5.25h17.68V751.23H2979v20.92h17.68V751.23h140.7V655.94h34.8v-19.2h-34.8V38.91h162.1v66.8h17.68V38.91h168V194h-168v-18.6h-17.68V219h17.68v-5.85h168V305h-168V288.72h-17.68V330h17.68V324.1h168v96.41h-168V399.59h-17.68V439.7h185.65v197h-225.2v19.2h30V764h17.68v-108h177.64V854H3307.58V841.79H3289.9V915h-17.12v19.2h34.8v-61h177.64V1109h-11.81v19.19h11.81V1274h-93.06V1128.27H3397v-19.2h-27.82v19.2h5.39v145.82h-89V1128.27h7v-19.2h-34.25v19.2h9.59v145.82H3174.8V1128.27h7v-19.2h-7V934.24H3185V915.05H3148v19.19h9v339.85H2996.53V934.24h63.65V915.05h-63.65V869.77h-17.68v429.37h17.68v-5.85H3582.4V1033.58H4088v-19.2H3582.4V751.23h-79.66V38.91H4978.89v975.47H4174.23v19.11h874.25V1014.3h-51.92V38.91h467.61v975.47h-329.6v19.11h329.6V2053.13H5358.74v19.19h6.42v445H4974.05v-445h244v302.15h17.68V2072.32h6.42v-19.19h-6.42V1772.5H5048.48v19.2h169.64v261.43h-244V1791.7h74.35v-19.2H4691.61v19.2h264.84v775.07H4500.1V1791.7h105.43v-19.2H4170v19.2H4482.5v775.07H4004.67V1791.7h79.19v-19.2h-497v19.2h400.23v775.07H2996.61v-531h-17.68v531H2500.62v-531h-17.68v17.39H2151.2v19.19h331.74v494.45H2011.69V2072.32h49.22v-19.19H1423.2v19.19h570.89v494.45H763.52v-402.6H745.84v402.6h-710Z" style="fill:#b7b7b7"/><path d="M2500.7,1858.07v-70.33h-405v-337h405v-25H2483v5.85h-505.1v426.45h505v5.25h17.68Zm-17.68-19.2H1995.6V1450.73H2078v356.12h405v32Z" style="fill:#b7b7b7"/><path d="M2996.61,1858.07h417v-66.29h87v-19.19h-87v-341h-417v-6.37h-17.68v90h324.84v257.38H3013.25v.61H2979v101.06h17.68Zm0-66.29h324.76V1496.09H2996.61v-45.27H3396V1839H2996.61Z" style="fill:#b7b7b7"/></g></g></svg>