<svg id="Livello_1" data-name="Livello 1" xmlns="http://www.w3.org/2000/svg" xmlns:xlink="http://www.w3.org/1999/xlink" viewBox="0 0 5500 3000"><defs><pattern id="locale_tecnico-13_1_" data-name="locale tecnico-13 1 " width="38.5" height="38.5" patternTransform="matrix(-0.53, 0, 0, 0.58, -17427.14, 23026.04)" patternUnits="userSpaceOnUse" viewBox="0 0 38.5 38.5"><rect width="38.5" height="38.5" style="fill:none"/><rect width="38.5" height="38.5" style="fill:none"/><rect width="38.5" height="38.5" style="fill:none"/><rect width="38.5" height="38.5" style="fill:none"/><rect width="38.5" height="38.5" style="fill:none"/><rect width="38.5" height="38.5" style="fill:none"/><rect width="38.5" height="38.5" style="fill:none"/><rect width="38.5" height="38.5" style="fill:none"/><rect x="35.8" y="-35.8" width="40.5" height="39.2" style="fill:#f2f2f2"/><line x1="38.5" x2="77" y2="-38.5" style="fill:none;stroke:#ddd;stroke-linecap:square;stroke-linejoin:round;stroke-width:20px"/><rect x="-2.7" y="-35.8" width="40.5" height="39.2" style="fill:#f2f2f2"/><line x2="38.5" y2="-38.5" style="fill:none;stroke:#ddd;stroke-linecap:square;stroke-linejoin:round;stroke-width:20px"/><line x1="-38.5" y2="-38.5" style="fill:none;stroke:#ddd;stroke-linecap:square;stroke-linejoin:round;stroke-width:20px"/><rect x="35.8" y="2.7" width="40.5" height="39.2" style="fill:#f2f2f2"/><line x1="38.5" y1="38.5" x2="77" style="fill:none;stroke:#ddd;stroke-linecap:square;stroke-linejoin:round;stroke-width:20px"/><rect x="-2.7" y="2.7" width="40.5" height="39.2" style="fill:#f2f2f2"/><line y1="38.5" x2="38.5" style="fill:none;stroke:#ddd;stroke-linecap:square;stroke-linejoin:round;stroke-width:20px"/><line x1="-38.5" y1="38.5" style="fill:none;stroke:#ddd;stroke-linecap:square;stroke-linejoin:round;stroke-width:20px"/><line x1="38.5" y1="77" x2="77" y2="38.5" style="fill:none;stroke:#ddd;stroke-linecap:square;stroke-linejoin:round;stroke-width:20px"/><line y1="77" x2="38.5" y2="38.5" style="fill:none;stroke:#ddd;stroke-linecap:square;stroke-linejoin:round;stroke-width:20px"/><line x1="-38.5" y1="77" y2="38.5" style="fill:none;stroke:#ddd;stroke-linecap:square;stroke-linejoin:round;stroke-width:20px"/></pattern></defs><g id="D1-floor3"><g id="background"><polygon points="5499.96 38.98 5499.96 0 5464.13 0 3137.35 0 3101.44 0 3101.44 38.98 3101.44 657.11 3101.44 713.6 2996.57 713.6 35.79 713.6 -0.04 713.6 -0.04 752.58 -0.04 2571.46 -0.04 2610.43 35.79 2610.43 5464.13 2610.43 5499.96 2610.43 5499.96 2571.46 5499.96 38.98" style="fill:#f2f2f2"/></g><g id="rooms"><polygon id="locale_tecnico-13" data-name="locale tecnico-13" points="439.19 1498.77 439.19 1453.33 975.84 1453.33 975.84 1842.16 439.19 1842.16 439.19 1794.99 836.25 1794.99 853.85 1794.99 853.85 1775.76 853.85 1517.92 853.85 1498.77 836.25 1498.77 439.19 1498.77" style="fill:url(#locale_tecnico-13_1_)"/><rect id="locale_tecnico-14" data-name="locale tecnico-14" x="211.85" y="1453.33" width="55.09" height="388.84" style="fill:url(#locale_tecnico-13_1_)"/><polygon id="locale_tecnico-15" data-name="locale tecnico-15" points="1995.56 1842.16 1995.56 1453.33 2078 1453.33 2078 1790.94 2078 1810.17 2095.59 1810.17 2482.98 1810.17 2482.98 1842.16 1995.56 1842.16" style="fill:url(#locale_tecnico-13_1_)"/><rect id="senza_codice" data-name="senza codice" x="3391.96" y="1130.29" width="93.06" height="146.08" style="fill:#f2f2f2"/><polygon id="locale_tecnico-16" data-name="locale tecnico-16" points="3502.7 855.63 3502.7 771.81 3564.77 771.81 3564.77 1047.67 3564.77 1066.91 3564.77 1276.37 3502.7 1276.37 3502.7 1130.29 3502.7 1111.14 3502.7 874.77 3502.7 855.63" style="fill:url(#locale_tecnico-13_1_)"/><polygon id="locale_tecnico-17" data-name="locale tecnico-17" points="2996.57 1498.77 2996.57 1453.33 3395.92 1453.33 3395.92 1654.69 3395.92 1673.92 3395.92 1842.16 2996.57 1842.16 2996.57 1794.99 3303.73 1794.99 3321.33 1794.99 3321.33 1775.76 3321.33 1517.92 3321.33 1498.77 3303.73 1498.77 2996.57 1498.77" style="fill:url(#locale_tecnico-13_1_)"/><polygon id="locale_tecnico-18" data-name="locale tecnico-18" points="4974.01 2571.46 4974.01 2541.19 5218 2541.19 5235.68 2541.19 5365.12 2541.19 5382.8 2541.19 5382.8 2521.96 5382.8 2076.12 5464.13 2076.12 5464.13 2571.46 4974.01 2571.46" style="fill:url(#locale_tecnico-13_1_)"/><rect id="senza_codice-2" data-name="senza codice-2" x="3317.05" y="38.98" width="167.97" height="155.4" style="fill:#f2f2f2"/><rect id="senza_codice-3" data-name="senza codice-3" x="3317.05" y="213.61" width="167.97" height="91.93" style="fill:#f2f2f2"/><rect id="senza_codice-4" data-name="senza codice-4" x="3317.05" y="324.76" width="167.97" height="96.58" style="fill:#f2f2f2"/><rect id="senza_codice-5" data-name="senza codice-5" x="3174.76" y="1130.29" width="93.06" height="146.08" style="fill:#f2f2f2"/><rect id="senza_codice-6" data-name="senza codice-6" x="3285.5" y="1130.29" width="88.78" height="146.08" style="fill:#f2f2f2"/><g class="clickable" id="D1-3C-01-D" data-name="customclass D1-3C-01-D"><rect id="a" x="2996.57" y="1517.92" width="307.09" height="257.84" style="fill:#f2f2f2"/></g><g class="clickable" id="D1-3E-15" data-name="customclass D1-3E-15"><polygon id="_tracciato_" data-name=" tracciato " points="35.79 1276.37 35.79 752.58 745.8 752.58 745.8 1276.37 237.53 1276.37 39.59 1276.37 35.79 1276.37" style="fill:#ddd"/></g><g class="clickable" id="D1-3E-14" data-name="customclass D1-3E-14"><rect id="_tracciato_2" data-name=" tracciato 2" x="763.48" y="752.58" width="483.14" height="523.79" style="fill:#ddd"/></g><g class="clickable" id="D1-3E-13" data-name="customclass D1-3E-13"><rect id="_tracciato_3" data-name=" tracciato 3" x="1264.22" y="752.58" width="230.59" height="523.79" style="fill:#ddd"/></g><g class="clickable" id="D1-3E-12" data-name="customclass D1-3E-12"><rect id="_tracciato_4" data-name=" tracciato 4" x="1512.49" y="752.58" width="481.48" height="523.79" style="fill:#ddd"/></g><g class="clickable" id="D1-3E-11" data-name="customclass D1-3E-11"><rect id="_tracciato_5" data-name=" tracciato 5" x="2011.65" y="752.58" width="471.33" height="523.79" style="fill:#ddd"/></g><g class="clickable" id="D1-3E-10" data-name="customclass D1-3E-10"><g id="scala1"><polygon points="845.28 1780.5 505.06 1780.5 505.06 1657.45 754.28 1657.45 754.28 1633.21 505.06 1633.21 505.06 1513 845.28 1513 845.28 1517.31 509.03 1517.31 509.03 1628.9 758.25 1628.9 758.25 1661.76 509.03 1661.76 509.03 1776.19 845.28 1776.19 845.28 1780.5" style="fill:#b7b7b7"/><polygon points="786.15 1723.24 451 1723.24 451 1718.93 782.19 1718.93 782.19 1577.08 627.29 1577.08 627.29 1572.76 786.15 1572.76 786.15 1723.24" style="fill:#b7b7b7"/><rect x="705.61" y="1658.65" width="3.96" height="120.64" style="fill:#b7b7b7"/><rect x="728.76" y="1658.65" width="3.96" height="120.64" style="fill:#b7b7b7"/><rect x="683.02" y="1658.65" width="3.96" height="120.64" style="fill:#b7b7b7"/><rect x="728.76" y="1515.16" width="3.96" height="115.9" style="fill:#b7b7b7"/><rect x="705.61" y="1515.59" width="3.96" height="115.47" style="fill:#b7b7b7"/><rect x="660.43" y="1515.16" width="3.96" height="115.9" style="fill:#b7b7b7"/><rect x="638.47" y="1541.2" width="3.96" height="89.86" style="fill:#b7b7b7"/><rect x="616.28" y="1515.16" width="3.96" height="55.45" style="fill:#b7b7b7"/><rect x="616.28" y="1598.55" width="3.96" height="31.48" style="fill:#b7b7b7"/><rect x="548.42" y="1515.16" width="3.96" height="115.9" style="fill:#b7b7b7"/><rect x="527.1" y="1515.16" width="3.96" height="115.9" style="fill:#b7b7b7"/><polygon points="573.87 1661.93 419.06 1661.93 419.06 1628.9 528.37 1628.9 528.37 1633.21 423.02 1633.21 423.02 1657.62 573.87 1657.62 573.87 1661.93" style="fill:#b7b7b7"/><rect x="594.08" y="1658.65" width="3.96" height="120.64" style="fill:#b7b7b7"/><rect x="638.71" y="1658.65" width="3.96" height="120.64" style="fill:#b7b7b7"/><rect x="616.36" y="1658.65" width="3.96" height="120.64" style="fill:#b7b7b7"/><rect x="660.98" y="1658.65" width="3.96" height="120.64" style="fill:#b7b7b7"/><rect x="571.73" y="1658.65" width="3.96" height="120.64" style="fill:#b7b7b7"/><rect x="549.37" y="1658.65" width="3.96" height="120.64" style="fill:#b7b7b7"/><rect x="527.1" y="1658.65" width="3.96" height="120.64" style="fill:#b7b7b7"/><rect x="476.29" y="1515.16" width="3.96" height="115.9" style="fill:#b7b7b7"/><rect x="476.29" y="1658.65" width="3.96" height="120.64" style="fill:#b7b7b7"/><rect x="449.02" y="1515.16" width="3.96" height="115.9" style="fill:#b7b7b7"/><rect x="449.02" y="1658.65" width="3.96" height="120.64" style="fill:#b7b7b7"/><rect x="594.32" y="1515.16" width="3.96" height="115.9" style="fill:#b7b7b7"/><rect x="571.41" y="1515.16" width="3.96" height="115.9" style="fill:#b7b7b7"/><polygon points="471.09 1742.8 448.21 1720.89 471.59 1699.18 474.17 1702.46 454.26 1720.94 473.71 1739.56 471.09 1742.8" style="fill:#b7b7b7"/><polygon points="597.64 1596.86 594.96 1593.68 613.45 1575.15 595.33 1556.48 598.06 1553.35 619.26 1575.2 597.64 1596.86" style="fill:#b7b7b7"/><polygon points="597.02 1631.04 593.37 1629.36 638.31 1513.89 641.96 1515.57 597.02 1631.04" style="fill:#b7b7b7"/><polygon points="607.56 1631.04 603.91 1629.36 648.85 1513.89 652.5 1515.57 607.56 1631.04" style="fill:#b7b7b7"/><rect x="450.45" y="1572.76" width="165.91" height="4.31" style="fill:#b7b7b7"/><rect x="683.02" y="1517.66" width="3.96" height="113.14" style="fill:#b7b7b7"/><path d="M451,1588.54c-6.86,0-12.44-6.07-12.44-13.53s5.58-13.54,12.44-13.54,12.45,6.07,12.45,13.54S457.86,1588.54,451,1588.54Zm0-22.76c-4.68,0-8.48,4.14-8.48,9.23s3.8,9.22,8.48,9.22,8.48-4.14,8.48-9.22S455.68,1565.78,451,1565.78Z" style="fill:#b7b7b7"/></g><polygon id="_tracciato_6" data-name=" tracciato 6" points="284.62 1842.16 284.62 1453.33 421.59 1453.33 421.59 1498.77 421.59 1517.92 439.19 1517.92 836.25 1517.92 836.25 1775.76 439.19 1775.76 421.59 1775.76 421.59 1794.99 421.59 1842.16 284.62 1842.16" style="fill:none"/></g><g class="clickable" id="D1-3E-10-A" data-name="customclass D1-3E-10-A"><g id="scala2"><polygon points="2429.79 1796.54 2090.84 1796.54 2090.84 1792.23 2425.83 1792.23 2425.83 1645.37 2203.56 1645.37 2203.56 1603.81 2496.54 1603.81 2496.54 1453.24 2090.84 1453.24 2090.84 1448.93 2500.5 1448.93 2500.5 1608.12 2207.52 1608.12 2207.52 1641.06 2429.79 1641.06 2429.79 1796.54" style="fill:#b7b7b7"/><polygon points="2497.96 1718.67 2149.1 1718.67 2149.1 1530.08 2316.6 1530.08 2316.6 1534.39 2153.07 1534.39 2153.07 1714.36 2497.96 1714.36 2497.96 1718.67" style="fill:#b7b7b7"/><rect x="2328.88" y="1529.99" width="169.64" height="4.31" style="fill:#b7b7b7"/><rect x="2203.56" y="1449.88" width="3.96" height="157.38" style="fill:#b7b7b7"/><rect x="2228.61" y="1451.86" width="3.96" height="155.4" style="fill:#b7b7b7"/><rect x="2203.56" y="1643.22" width="3.96" height="151.17" style="fill:#b7b7b7"/><rect x="2228.61" y="1643.22" width="3.96" height="151.17" style="fill:#b7b7b7"/><rect x="2253.66" y="1643.22" width="3.96" height="151.17" style="fill:#b7b7b7"/><rect x="2277.99" y="1643.22" width="3.96" height="151.17" style="fill:#b7b7b7"/><rect x="2302.65" y="1643.22" width="3.96" height="151.17" style="fill:#b7b7b7"/><rect x="2377.79" y="1643.22" width="3.96" height="151.17" style="fill:#b7b7b7"/><rect x="2401.41" y="1643.22" width="3.96" height="151.17" style="fill:#b7b7b7"/><rect x="2496.54" y="1643.22" width="3.96" height="151.17" style="fill:#b7b7b7"/><polygon points="2483.04 1735.72 2480.23 1732.67 2494.94 1716.67 2480.21 1700.17 2483.06 1697.16 2500.51 1716.71 2483.04 1735.72" style="fill:#b7b7b7"/><polygon points="2500.5 1645.37 2404.19 1645.37 2404.19 1641.06 2496.54 1641.06 2496.54 1607.86 2353.77 1607.86 2353.77 1603.55 2500.5 1603.55 2500.5 1645.37" style="fill:#b7b7b7"/><rect x="2327.22" y="1583.46" width="3.96" height="23.8" style="fill:#b7b7b7"/><rect x="2327.22" y="1449.88" width="3.96" height="81.67" style="fill:#b7b7b7"/><rect x="2277.75" y="1449.88" width="3.96" height="157.38" style="fill:#b7b7b7"/><rect x="2302.49" y="1484.2" width="3.96" height="123.06" style="fill:#b7b7b7"/><rect x="2253.02" y="1449.88" width="3.96" height="157.38" style="fill:#b7b7b7"/><rect x="2351.95" y="1449.88" width="3.96" height="157.38" style="fill:#b7b7b7"/><rect x="2376.68" y="1449.88" width="3.96" height="157.38" style="fill:#b7b7b7"/><rect x="2401.41" y="1449.88" width="3.96" height="157.38" style="fill:#b7b7b7"/><rect x="2326.9" y="1643.22" width="3.96" height="151.17" style="fill:#b7b7b7"/><rect x="2352.27" y="1643.22" width="3.96" height="151.17" style="fill:#b7b7b7"/><rect x="2472.68" y="1643.22" width="3.96" height="151.17" style="fill:#b7b7b7"/><rect x="2472.68" y="1449.96" width="3.96" height="154.71" style="fill:#b7b7b7"/><rect x="2449.69" y="1449.96" width="3.96" height="154.71" style="fill:#b7b7b7"/><rect x="2426.15" y="1449.96" width="3.96" height="154.71" style="fill:#b7b7b7"/><rect x="2449.13" y="1643.22" width="3.96" height="151.17" style="fill:#b7b7b7"/><path d="M2498.52,1547.15c-7.74,0-14-6.85-14-15.26s6.29-15.27,14-15.27,14,6.85,14,15.27S2506.26,1547.15,2498.52,1547.15Zm0-26.21c-5.55,0-10.07,4.91-10.07,11s4.52,10.95,10.07,10.95,10.07-4.91,10.07-10.95S2504.07,1520.94,2498.52,1520.94Z" style="fill:#b7b7b7"/><polygon points="2344.96 1606.95 2306.36 1450.69 2310.19 1449.58 2348.79 1605.84 2344.96 1606.95" style="fill:#b7b7b7"/><polygon points="2333.23 1606.95 2294.63 1450.69 2298.46 1449.58 2337.06 1605.84 2333.23 1606.95" style="fill:#b7b7b7"/><polygon points="2344.95 1551.21 2326.84 1532.26 2344.93 1512.68 2347.72 1515.74 2332.51 1532.21 2347.7 1548.1 2344.95 1551.21" style="fill:#b7b7b7"/></g><g id="a-2"><rect x="2097.02" y="1451.86" width="420.84" height="338.99" style="fill:none"/></g></g><g class="clickable" id="D1-3E-09" data-name="customclass D1-3E-09"><rect id="_tracciato_7" data-name=" tracciato 7" x="993.52" y="1453.33" width="253.11" height="388.84" style="fill:#ddd"/></g><g class="clickable" id="D1-3E-08" data-name="customclass D1-3E-08"><rect id="_tracciato_8" data-name=" tracciato 8" x="1264.22" y="1453.33" width="479.89" height="388.84" style="fill:#ddd"/></g><g class="clickable" id="D1-3E-07" data-name="customclass D1-3E-07"><rect x="1145.48" y="1901.84" width="188.26" height="114.61" style="fill:#f2f2f2"/></g><g class="clickable" id="D1-3E-03" data-name="customclass D1-3E-03"><rect id="_tracciato_10" data-name=" tracciato 10" x="35.79" y="2076.12" width="1210.75" height="495.34" style="fill:#ddd"/></g><g class="clickable" id="D1-3E-02" data-name="customclass D1-3E-02"><rect id="_tracciato_11" data-name=" tracciato 11" x="1264.22" y="2076.12" width="1218.76" height="495.34" style="fill:#ddd"/></g><g class="clickable" id="D1-3C-01" data-name="customclass D1-3C-01"><polygon id="_tracciato_12" data-name=" tracciato 12" points="2525.15 1434.18 2525.15 1295.6 2525.15 1276.37 2525.15 752.58 2978.97 752.58 2978.97 916.68 2978.97 935.91 2978.97 1276.37 2978.97 1295.6 2978.97 1434.18 2978.97 1453.33 2978.97 1498.77 2978.97 1517.92 2978.97 1775.76 2978.97 1794.99 2978.97 1842.16 2978.97 1861.39 2978.97 2056.89 2978.97 2076.12 2978.97 2571.46 2525.15 2571.46 2525.15 2076.12 2525.15 2056.89 2525.15 1861.39 2525.15 1842.16 2525.15 1810.17 2525.15 1434.18" style="fill:#f2f2f2"/></g><g class="clickable" id="D1-3W-16" data-name="customclass D1-3W-16"><polygon id="_tracciato_13" data-name=" tracciato 13" points="3299.3 637.88 3137.35 637.88 3137.35 38.98 3299.45 38.98 3299.45 194.38 3299.45 213.6 3299.45 305.53 3299.45 324.76 3299.45 421.43 3299.45 440.58 3299.3 637.88" style="fill:#f2f2f2"/></g><g class="clickable" id="D1-3W-14" data-name="customclass D1-3W-14"><polygon id="_tracciato_14" data-name=" tracciato 14" points="2996.57 916.68 2996.57 752.58 3101.44 752.58 3137.35 752.58 3137.35 713.6 3137.35 657.11 3289.78 657.11 3289.78 855.63 3289.78 874.77 3289.78 916.68 3174.76 916.68 3157.09 916.68 2996.57 916.68" style="fill:#f2f2f2"/></g><g class="clickable" id="D1-3W-13" data-name="customclass D1-3W-13"><polygon id="_tracciato_15" data-name=" tracciato 15" points="3307.46 855.63 3307.46 657.11 3485.1 657.11 3485.1 752.58 3485.1 771.81 3485.1 855.63 3307.46 855.63" style="fill:#f2f2f2"/></g><g class="clickable" id="D1-3W-12" data-name="customclass D1-3W-12"><polygon id="_tracciato_16" data-name=" tracciato 16" points="2996.57 1276.37 2996.57 935.91 3157.09 935.91 3157.09 1111.14 3157.09 1130.29 3157.09 1276.37 2996.57 1276.37" style="fill:#f2f2f2"/></g><g class="clickable" id="D1-3W-11" data-name="customclass D1-3W-11"><polygon id="_tracciato_17" data-name=" tracciato 17" points="3174.76 1111.14 3174.76 935.91 3289.78 935.91 3307.46 935.91 3307.46 916.68 3307.46 874.77 3485.1 874.77 3485.1 1111.14 3391.96 1111.14 3374.36 1111.14 3285.5 1111.14 3267.82 1111.14 3174.76 1111.14" style="fill:#f2f2f2"/></g><g class="clickable" id="D1-3W-10" data-name="customclass D1-3W-10"><polygon id="_tracciato_18" data-name=" tracciato 18" points="3502.7 194.38 3502.7 38.98 4236.81 38.98 4236.81 570.97 4236.81 590.2 4236.81 1047.67 3582.44 1047.67 3582.44 771.81 3582.44 752.58 3564.77 752.58 3502.7 752.58 3502.7 657.11 3502.7 637.88 3502.7 440.58 3502.7 421.43 3502.7 324.76 3502.7 305.53 3502.7 213.6 3502.7 194.38" style="fill:#ddd"/></g><g class="clickable" id="D1-3W-09" data-name="customclass D1-3W-09"><rect id="_tracciato_19" data-name=" tracciato 19" x="4254.41" y="38.98" width="478.86" height="531.99" style="fill:#ddd"/></g><g class="clickable" id="D1-3W-08" data-name="customclass D1-3W-08"><polygon id="_tracciato_20" data-name=" tracciato 20" points="4750.95 570.97 4750.95 38.98 5464.13 38.98 5464.13 1047.67 4750.95 1047.67 4750.95 590.2 4750.95 570.97" style="fill:#ddd"/></g><g class="clickable" id="D1-3W-07" data-name="customclass D1-3W-07"><polygon id="_tracciato_21" data-name=" tracciato 21" points="2996.57 1434.18 2996.57 1295.6 3157.09 1295.6 3174.76 1295.6 3267.82 1295.6 3285.5 1295.6 3374.36 1295.6 3391.96 1295.6 3485.1 1295.6 3502.7 1295.6 3564.77 1295.6 3582.44 1295.6 3582.44 1276.37 3582.44 1066.91 4236.81 1066.91 4254.41 1066.91 4254.41 1047.67 4254.41 590.2 4733.27 590.2 4733.27 1047.67 4733.27 1066.91 4750.95 1066.91 5464.13 1066.91 5464.13 2056.89 5382.8 2056.89 5365.12 2056.89 5235.68 2056.89 5235.68 1673.92 5235.68 1654.69 5218 1654.69 4974.01 1654.69 4956.41 1654.69 4254.41 1654.69 4236.81 1654.69 3413.6 1654.69 3413.6 1453.33 3413.6 1434.18 3395.92 1434.18 2996.57 1434.18" style="fill:#ddd"/></g><g class="clickable" id="D1-3W-06" data-name="customclass D1-3W-06"><rect id="_tracciato_22" data-name=" tracciato 22" x="4974.01" y="1673.92" width="243.99" height="382.97" style="fill:#ddd"/></g><g class="clickable" id="D1-3W-05" data-name="customclass D1-3W-05"><rect id="_tracciato_23" data-name=" tracciato 23" x="2996.57" y="1861.39" width="399.36" height="195.58" style="fill:#f2f2f2"/></g><g class="clickable" id="D1-3W-04" data-name="customclass D1-3W-04"><polygon id="_tracciato_24" data-name=" tracciato 24" points="2996.57 2571.46 2996.57 2076.12 3395.92 2076.12 3413.6 2076.12 3487.72 2076.12 3487.72 2571.46 2996.57 2571.46" style="fill:#ddd"/></g><g class="clickable" id="D1-3W-03" data-name="customclass D1-3W-03"><polygon id="_tracciato_25" data-name=" tracciato 25" points="3413.6 1842.16 3413.6 1673.92 4236.81 1673.92 4236.81 2571.46 3505.39 2571.46 3505.39 2076.12 3505.39 2056.89 3487.72 2056.89 3413.6 2056.89 3413.6 1861.39 3413.6 1842.16" style="fill:#ddd"/></g><g class="clickable" id="D1-3W-02" data-name="customclass D1-3W-02"><polygon id="_tracciato_26" data-name=" tracciato 26" points="4254.41 2571.46 4254.41 1673.92 4956.41 1673.92 4956.41 2056.89 4956.41 2076.12 4956.41 2521.96 4956.41 2541.19 4956.41 2571.46 4254.41 2571.46" style="fill:#ddd"/></g><g class="clickable" id="D1-3W-01" data-name="customclass D1-3W-01"><g id="scala3"><polygon points="5109.32 2400.02 5105.36 2400.02 5105.36 2181.15 5082.77 2181.15 5082.77 2377.94 4970.84 2377.94 4970.84 2072.07 4974.8 2072.07 4974.8 2373.63 5078.8 2373.63 5078.8 2176.84 5109.32 2176.84 5109.32 2400.02" style="fill:#b7b7b7"/><polygon points="5166.56 2374.15 5162.59 2374.15 5162.59 2128.72 5030.45 2128.72 5030.45 2217.55 5026.49 2217.55 5026.49 2124.41 5166.56 2124.41 5166.56 2374.15" style="fill:#b7b7b7"/><rect x="5106.47" y="2176.84" width="112.32" height="4.31" style="fill:#b7b7b7"/><rect x="5106.47" y="2201.76" width="112.32" height="4.31" style="fill:#b7b7b7"/><rect x="4971.08" y="2176.84" width="109.71" height="4.31" style="fill:#b7b7b7"/><rect x="5050.03" y="2226.6" width="30.76" height="4.31" style="fill:#b7b7b7"/><rect x="4970.52" y="2226.6" width="53.82" height="4.31" style="fill:#b7b7b7"/><rect x="4972.82" y="2250.92" width="107.96" height="4.31" style="fill:#b7b7b7"/><rect x="4972.82" y="2275.32" width="107.96" height="4.31" style="fill:#b7b7b7"/><rect x="4972.82" y="2350.18" width="107.96" height="4.31" style="fill:#b7b7b7"/><polygon points="5109.48 2406.23 5078.73 2406.23 5078.73 2376.56 5082.69 2376.56 5082.69 2401.92 5105.52 2401.92 5105.52 2326.46 5109.48 2326.46 5109.48 2406.23" style="fill:#b7b7b7"/><rect x="5106.47" y="2299.81" width="112.32" height="4.31" style="fill:#b7b7b7"/><rect x="5106.47" y="2250.57" width="112.32" height="4.31" style="fill:#b7b7b7"/><rect x="5106.47" y="2275.24" width="112.32" height="4.31" style="fill:#b7b7b7"/><rect x="5106.47" y="2226" width="112.32" height="4.31" style="fill:#b7b7b7"/><rect x="5106.47" y="2324.39" width="112.32" height="4.31" style="fill:#b7b7b7"/><rect x="5106.47" y="2349.05" width="112.32" height="4.31" style="fill:#b7b7b7"/><rect x="5106.47" y="2373.63" width="112.32" height="4.31" style="fill:#b7b7b7"/><rect x="4972.82" y="2299.56" width="107.96" height="4.31" style="fill:#b7b7b7"/><rect x="4972.82" y="2324.74" width="107.96" height="4.31" style="fill:#b7b7b7"/><polygon points="5164.48 2377.97 5144.28 2352.18 5147.3 2349.38 5164.51 2371.37 5181.79 2349.88 5184.77 2352.72 5164.48 2377.97" style="fill:#b7b7b7"/><polygon points="5046 2254.5 5028.69 2235.42 5011.23 2254.09 5008.45 2251.02 5028.73 2229.33 5048.82 2251.47 5046 2254.5" style="fill:#b7b7b7"/><polygon points="5079.22 2256.18 4971.65 2206.68 4973.2 2202.71 5080.77 2252.21 5079.22 2256.18" style="fill:#b7b7b7"/><polygon points="5079.22 2244.54 4971.65 2195.04 4973.2 2191.07 5080.77 2240.57 5079.22 2244.54" style="fill:#b7b7b7"/><rect x="5026.49" y="2229.45" width="3.96" height="146.69" style="fill:#b7b7b7"/><rect x="4996.76" y="2201.76" width="83.71" height="4.31" style="fill:#b7b7b7"/></g><polygon id="_tracciato_27" data-name=" tracciato 27" points="4974.01 2521.96 4974.01 2076.12 5218 2076.12 5235.68 2076.12 5365.12 2076.12 5365.12 2521.96 5235.68 2521.96 5235.68 2187.28 5218 2187.28 5218 2521.96 4974.01 2521.96" style="fill:none"/></g></g><g id="walls"><polygon points="1744.12 1453.33 1744.12 1842.16 1417.77 1842.16 1417.77 1861.39 1744.12 1861.39 1761.79 1861.39 1761.79 1842.16 1761.79 1453.33 1761.79 1434.18 1744.12 1434.18 1417.77 1434.18 1417.77 1453.33 1744.12 1453.33" style="fill:#b7b7b7"/><polygon points="1246.55 1453.33 1246.55 1842.16 1145.48 1842.16 1145.48 1861.39 1246.55 1861.39 1264.22 1861.39 1333.74 1861.39 1333.74 1842.16 1264.22 1842.16 1264.22 1453.33 1333.74 1453.33 1333.74 1434.18 1264.22 1434.18 1246.55 1434.18 1145.48 1434.18 1145.48 1453.33 1246.55 1453.33" style="fill:#b7b7b7"/><path d="M421.59,1453.33v64.59H836.25v257.84H421.59v66.32H409.31v19.23h652.22v-19.23H993.6V1453.24h67.93V1434H409.31v19.23h12.28Zm17.6,0H975.84v388.83H439.19V1795H853.85V1498.77H439.19Z" style="fill:#b7b7b7"/><path d="M266.94,1861.39h25.68v-19.23h-8V1453.33h8V1434.1H194.17v427.21h72.77Zm-55.09-408.06h55.09v388.83H211.85Z" style="fill:#b7b7b7"/><path d="M35.79,2610.43H5499.88V0H3101.44V713.6H0V2610.43Zm5428.34-39h-490v-30.27h408.79V2076.12h81.33v495.34ZM3502.7,1130.29V771.81h62.07v504.65H3502.7ZM35.79,2076.12H89.3v-19.23H35.79V1295.6H91.44v-19.23H35.79V752.58H745.72v402.2H763.4V752.58h483.14v523.79H1145.4v19.23h181.92v-19.23h-63.1V752.58h230.6v523.79h-83.48v19.23h156.24v-19.23h-55.09V752.58H1994v523.79H1651.53v19.23h413.55v-19.23h-53.43V752.58H2483v523.79H2149.1v19.23H2483v5.26h17.68V752.58H2979v22.07h17.68V752.58h140.7V657.11h34.8V637.88h-34.8V39h162.1V105.9h17.68V39h168V194.37h-168V175.75h-17.68v43.63h17.68v-5.86h168v92h-168v-16.3h-17.68v41.31h17.68v-5.86h168v96.58h-168V400.31h-17.68v40.18H3485.1V637.88H3259.9v19.23h30V773.53h17.68V657.11h177.64V855.54H3307.54v-4h-17.68v65.19h-17.12v19.23h34.8V874.77h177.64v236.29h-11.81v19.23h11.81v146.08h-93.06V1130.29H3397v-19.23h-27.82v19.23h5.39v146.08h-89V1130.29h7v-19.23h-34.25v19.23h9.59v146.08h-93.06V1130.29h7v-19.23h-7V935.91h10.15V916.68H3148v19.23h9v340.46H2996.49V935.91h63.65V916.68h-63.65V872.44h-17.68v428.94h17.68v-5.86h585.87v-228.7h500.27v-19.23H3582.36v-295H3502.7V39h734v1008.7h-56.2v19.23h73.8V590.2h64.76V571h-64.76V39h478.86V571H4417V590.2h316.2v476.71H5068.1v-19.24H4750.87V39h713.18v1008.7h-298v19.23h298V2057H5358.62v19.23H5365V2522H5235.6V2174.6h-17.68V2522h-244V2076.21h268V2057h-6.42V1914.34h-17.68V2057h-244V1674h244v146.69h17.68V1654.77H4412.23V1674h544.1v897.54H4254.41V1673.92h62.06v-19.23H3413.6V1434.1h-417v-6.39h-17.68v90.21h324.84v257.84H3013.21v.6H2979v101.25h17.68v-16.3H3396v62.26h17.68V1673.83h823.13v897.54H3505.47V2056.89h-91.79v-39.58H3396v39.58H3164.14v19.23H3487.8v495.34H2996.65V2076.12h75.46v-19.23h-75.46v-17.42H2979v532H2500.66v-532H2483v17.42H2151.24v19.23H2483v495.34H1264.22V2076.12h61.51v-19.23H907.35v19.23h339.19v495.34H35.79Zm3267.94-577.35H2996.57v-45.36h399.35v388.84H2996.57v-47.17h324.76V1498.86Z" style="fill:#b7b7b7"/><rect x="176.02" y="2056.89" width="644.69" height="19.23" style="fill:#b7b7b7"/><polygon points="763.48 1276.37 763.48 1246.19 745.8 1246.19 745.8 1276.37 237.53 1276.37 175.46 1276.37 175.46 1295.6 237.53 1295.6 745.8 1295.6 763.48 1295.6 1061.45 1295.6 1061.45 1276.37 763.48 1276.37" style="fill:#b7b7b7"/><rect x="1416.18" y="2056.89" width="644.69" height="19.23" style="fill:#b7b7b7"/><path d="M2500.66,1861.39v-70.45h-405V1453.33h405v-25H2483v5.86h-505.1v427.21h505v5.26h17.68ZM2483,1842.16H1995.56V1453.33h82.36v356.75h405v32.08Z" style="fill:#b7b7b7"/></g></g></svg>