<svg id="Livello_1" data-name="Livello 1" xmlns="http://www.w3.org/2000/svg" xmlns:xlink="http://www.w3.org/1999/xlink" viewBox="0 0 5500 2610.43"><defs><pattern id="locale_tecnico-13_1_" data-name="locale tecnico-13 1 " width="38.5" height="38.5" patternTransform="translate(-17430.5 -22190.31) rotate(180) scale(0.53 0.58)" patternUnits="userSpaceOnUse" viewBox="0 0 38.5 38.5"><rect width="38.5" height="38.5" style="fill:none"/><rect width="38.5" height="38.5" style="fill:none"/><rect width="38.5" height="38.5" style="fill:none"/><rect width="38.5" height="38.5" style="fill:none"/><rect width="38.5" height="38.5" style="fill:none"/><rect width="38.5" height="38.5" style="fill:none"/><rect width="38.5" height="38.5" style="fill:none"/><rect width="38.5" height="38.5" style="fill:none"/><rect width="38.5" height="38.5" style="fill:none"/><rect x="35.8" y="35.1" width="40.5" height="39.2" style="fill:#f2f2f2"/><line x1="38.5" y1="38.5" x2="77" y2="77" style="fill:none;stroke:#ddd;stroke-linecap:square;stroke-linejoin:round;stroke-width:20px"/><rect x="-2.7" y="35.1" width="40.5" height="39.2" style="fill:#f2f2f2"/><line y1="38.5" x2="38.5" y2="77" style="fill:none;stroke:#ddd;stroke-linecap:square;stroke-linejoin:round;stroke-width:20px"/><line x1="-38.5" y1="38.5" y2="77" style="fill:none;stroke:#ddd;stroke-linecap:square;stroke-linejoin:round;stroke-width:20px"/><rect x="35.8" y="-3.4" width="40.5" height="39.2" style="fill:#f2f2f2"/><line x1="38.5" x2="77" y2="38.5" style="fill:none;stroke:#ddd;stroke-linecap:square;stroke-linejoin:round;stroke-width:20px"/><rect x="-2.7" y="-3.4" width="40.5" height="39.2" style="fill:#f2f2f2"/><line x2="38.5" y2="38.5" style="fill:none;stroke:#ddd;stroke-linecap:square;stroke-linejoin:round;stroke-width:20px"/><line x1="-38.5" y2="38.5" style="fill:none;stroke:#ddd;stroke-linecap:square;stroke-linejoin:round;stroke-width:20px"/><line x1="38.5" y1="-38.5" x2="77" style="fill:none;stroke:#ddd;stroke-linecap:square;stroke-linejoin:round;stroke-width:20px"/><line y1="-38.5" x2="38.5" style="fill:none;stroke:#ddd;stroke-linecap:square;stroke-linejoin:round;stroke-width:20px"/><line x1="-38.5" y1="-38.5" style="fill:none;stroke:#ddd;stroke-linecap:square;stroke-linejoin:round;stroke-width:20px"/></pattern></defs><g id="D1-floor3"><g id="background"><polygon points="5500 38.98 5500 0 5464.17 0 3137.39 0 3101.48 0 3101.48 38.98 3101.48 657.11 3101.48 713.6 2996.61 713.6 35.83 713.6 0 713.6 0 752.58 0 2571.46 0 2610.43 35.83 2610.43 5464.17 2610.43 5500 2610.43 5500 2571.46 5500 38.98" style="fill:#f2f2f2"/></g><g id="rooms"><polygon id="locale_tecnico-13" data-name="locale tecnico-13" points="439.23 1498.77 439.23 1453.33 975.88 1453.33 975.88 1842.16 439.23 1842.16 439.23 1794.99 836.29 1794.99 853.89 1794.99 853.89 1775.76 853.89 1517.92 853.89 1498.77 836.29 1498.77 439.23 1498.77" style="fill:url(#locale_tecnico-13_1_)"/><rect id="locale_tecnico-14" data-name="locale tecnico-14" x="211.89" y="1453.33" width="55.09" height="388.84" style="fill:url(#locale_tecnico-13_1_)"/><polygon id="locale_tecnico-15" data-name="locale tecnico-15" points="1995.6 1842.16 1995.6 1453.33 2078.04 1453.33 2078.04 1790.94 2078.04 1810.17 2095.63 1810.17 2483.02 1810.17 2483.02 1842.16 1995.6 1842.16" style="fill:url(#locale_tecnico-13_1_)"/><rect id="senza_codice" data-name="senza codice" x="3392" y="1130.29" width="93.06" height="146.08" style="fill:#f2f2f2"/><polygon id="locale_tecnico-16" data-name="locale tecnico-16" points="3502.74 855.63 3502.74 771.81 3564.81 771.81 3564.81 1047.67 3564.81 1066.91 3564.81 1276.37 3502.74 1276.37 3502.74 1130.29 3502.74 1111.14 3502.74 874.77 3502.74 855.63" style="fill:url(#locale_tecnico-13_1_)"/><polygon id="locale_tecnico-17" data-name="locale tecnico-17" points="2996.61 1498.77 2996.61 1453.33 3395.96 1453.33 3395.96 1654.69 3395.96 1673.92 3395.96 1842.16 2996.61 1842.16 2996.61 1794.99 3303.77 1794.99 3321.37 1794.99 3321.37 1775.76 3321.37 1517.92 3321.37 1498.77 3303.77 1498.77 2996.61 1498.77" style="fill:url(#locale_tecnico-13_1_)"/><polygon id="locale_tecnico-18" data-name="locale tecnico-18" points="4974.05 2571.46 4974.05 2541.19 5218.04 2541.19 5235.72 2541.19 5365.16 2541.19 5382.84 2541.19 5382.84 2521.96 5382.84 2076.12 5464.17 2076.12 5464.17 2571.46 4974.05 2571.46" style="fill:url(#locale_tecnico-13_1_)"/><rect id="senza_codice-2" data-name="senza codice-2" x="3317.09" y="38.98" width="167.97" height="155.4" style="fill:#f2f2f2"/><rect id="senza_codice-3" data-name="senza codice-3" x="3317.09" y="213.61" width="167.97" height="91.93" style="fill:#f2f2f2"/><rect id="senza_codice-4" data-name="senza codice-4" x="3317.09" y="324.76" width="167.97" height="96.58" style="fill:#f2f2f2"/><rect id="senza_codice-5" data-name="senza codice-5" x="3174.8" y="1130.29" width="93.06" height="146.08" style="fill:#f2f2f2"/><rect id="senza_codice-6" data-name="senza codice-6" x="3285.54" y="1130.29" width="88.78" height="146.08" style="fill:#f2f2f2"/><g class="clickable" id="D1-3E-15" data-name="customclass D1-3E-15"><polygon id="_tracciato_" data-name=" tracciato " points="35.83 1276.37 35.83 752.58 745.84 752.58 745.84 1276.37 237.57 1276.37 39.63 1276.37 35.83 1276.37" style="fill:#ddd"/></g><g class="clickable" id="D1-3E-14" data-name="customclass D1-3E-14"><rect id="_tracciato_2" data-name=" tracciato 2" x="763.52" y="752.58" width="483.14" height="523.79" style="fill:#ddd"/></g><g class="clickable" id="D1-3E-13" data-name="customclass D1-3E-13"><rect id="_tracciato_3" data-name=" tracciato 3" x="1264.26" y="752.58" width="230.59" height="523.79" style="fill:#ddd"/></g><g class="clickable" id="D1-3E-12" data-name="customclass D1-3E-12"><rect id="_tracciato_4" data-name=" tracciato 4" x="1512.53" y="752.58" width="481.48" height="523.79" style="fill:#ddd"/></g><g class="clickable" id="D1-3E-11" data-name="customclass D1-3E-11"><rect id="_tracciato_5" data-name=" tracciato 5" x="2011.69" y="752.58" width="471.33" height="523.79" style="fill:#ddd"/></g><g class="clickable" id="D1-3E-09" data-name="customclass D1-3E-09"><rect id="_tracciato_7" data-name=" tracciato 7" x="993.56" y="1453.33" width="253.11" height="388.84" style="fill:#ddd"/></g><g class="clickable" id="D1-3E-08" data-name="customclass D1-3E-08"><rect id="_tracciato_8" data-name=" tracciato 8" x="1264.26" y="1453.33" width="479.89" height="388.84" style="fill:#ddd"/></g><g class="clickable" id="D1-3E-07" data-name="customclass D1-3E-07"><rect x="1145.52" y="1901.84" width="188.26" height="114.61" style="fill:#f2f2f2"/></g><g class="clickable" id="D1-3E-03" data-name="customclass D1-3E-03"><rect id="_tracciato_10" data-name=" tracciato 10" x="35.83" y="2076.12" width="1210.75" height="495.34" style="fill:#ddd"/></g><g class="clickable" id="D1-3E-02" data-name="customclass D1-3E-02"><rect id="_tracciato_11" data-name=" tracciato 11" x="1264.26" y="2076.12" width="1218.76" height="495.34" style="fill:#ddd"/></g><g class="clickable" id="D1-3C-01" data-name="customclass D1-3C-01"><polygon id="_tracciato_12" data-name=" tracciato 12" points="2525.19 1434.18 2525.19 1295.6 2525.19 1276.37 2525.19 752.58 2979.01 752.58 2979.01 916.68 2979.01 935.91 2979.01 1276.37 2979.01 1295.6 2979.01 1434.18 2979.01 1453.33 2979.01 1498.77 2979.01 1517.92 2979.01 1775.76 2979.01 1794.99 2979.01 1842.16 2979.01 1861.39 2979.01 2056.89 2979.01 2076.12 2979.01 2571.46 2525.19 2571.46 2525.19 2076.12 2525.19 2056.89 2525.19 1861.39 2525.19 1842.16 2525.19 1810.17 2525.19 1434.18" style="fill:#f2f2f2"/></g><g class="clickable" id="D1-3W-16" data-name="customclass D1-3W-16"><polygon id="_tracciato_13" data-name=" tracciato 13" points="3299.34 637.88 3137.39 637.88 3137.39 38.98 3299.49 38.98 3299.49 194.38 3299.49 213.6 3299.49 305.53 3299.49 324.76 3299.49 421.43 3299.49 440.58 3299.34 637.88" style="fill:#f2f2f2"/></g><g class="clickable" id="D1-3W-14" data-name="customclass D1-3W-14"><polygon id="_tracciato_14" data-name=" tracciato 14" points="2996.61 916.68 2996.61 752.58 3101.48 752.58 3137.39 752.58 3137.39 713.6 3137.39 657.11 3289.82 657.11 3289.82 855.63 3289.82 874.77 3289.82 916.68 3174.8 916.68 3157.13 916.68 2996.61 916.68" style="fill:#f2f2f2"/></g><g class="clickable" id="D1-3W-13" data-name="customclass D1-3W-13"><polygon id="_tracciato_15" data-name=" tracciato 15" points="3307.5 855.63 3307.5 657.11 3485.14 657.11 3485.14 752.58 3485.14 771.81 3485.14 855.63 3307.5 855.63" style="fill:#f2f2f2"/></g><g class="clickable" id="D1-3W-12" data-name="customclass D1-3W-12"><polygon id="_tracciato_16" data-name=" tracciato 16" points="2996.61 1276.37 2996.61 935.91 3157.13 935.91 3157.13 1111.14 3157.13 1130.29 3157.13 1276.37 2996.61 1276.37" style="fill:#f2f2f2"/></g><g class="clickable" id="D1-3W-11" data-name="customclass D1-3W-11"><polygon id="_tracciato_17" data-name=" tracciato 17" points="3174.8 1111.14 3174.8 935.91 3289.82 935.91 3307.5 935.91 3307.5 916.68 3307.5 874.77 3485.14 874.77 3485.14 1111.14 3392 1111.14 3374.4 1111.14 3285.54 1111.14 3267.86 1111.14 3174.8 1111.14" style="fill:#f2f2f2"/></g><g class="clickable" id="D1-3W-10" data-name="customclass D1-3W-10"><polygon id="_tracciato_18" data-name=" tracciato 18" points="3502.74 194.38 3502.74 38.98 4236.85 38.98 4236.85 570.97 4236.85 590.2 4236.85 1047.67 3582.48 1047.67 3582.48 771.81 3582.48 752.58 3564.81 752.58 3502.74 752.58 3502.74 657.11 3502.74 637.88 3502.74 440.58 3502.74 421.43 3502.74 324.76 3502.74 305.53 3502.74 213.6 3502.74 194.38" style="fill:#ddd"/></g><g class="clickable" id="D1-3W-09" data-name="customclass D1-3W-09"><rect id="_tracciato_19" data-name=" tracciato 19" x="4254.45" y="38.98" width="478.86" height="531.99" style="fill:#ddd"/></g><g class="clickable" id="D1-3W-08" data-name="customclass D1-3W-08"><polygon id="_tracciato_20" data-name=" tracciato 20" points="4750.99 570.97 4750.99 38.98 5464.17 38.98 5464.17 1047.67 4750.99 1047.67 4750.99 590.2 4750.99 570.97" style="fill:#ddd"/></g><g class="clickable" id="D1-3W-07" data-name="customclass D1-3W-07"><polygon id="_tracciato_21" data-name=" tracciato 21" points="2996.61 1434.18 2996.61 1295.6 3157.13 1295.6 3174.8 1295.6 3267.86 1295.6 3285.54 1295.6 3374.4 1295.6 3392 1295.6 3485.14 1295.6 3502.74 1295.6 3564.81 1295.6 3582.48 1295.6 3582.48 1276.37 3582.48 1066.91 4236.85 1066.91 4254.45 1066.91 4254.45 1047.67 4254.45 590.2 4733.31 590.2 4733.31 1047.67 4733.31 1066.91 4750.99 1066.91 5464.17 1066.91 5464.17 2056.89 5382.84 2056.89 5365.16 2056.89 5235.72 2056.89 5235.72 1673.92 5235.72 1654.69 5218.04 1654.69 4974.05 1654.69 4956.45 1654.69 4254.45 1654.69 4236.85 1654.69 3413.64 1654.69 3413.64 1453.33 3413.64 1434.18 3395.96 1434.18 2996.61 1434.18" style="fill:#ddd"/></g><g class="clickable" id="D1-3W-06" data-name="customclass D1-3W-06"><rect id="_tracciato_22" data-name=" tracciato 22" x="4974.05" y="1673.92" width="243.99" height="382.97" style="fill:#ddd"/></g><g class="clickable" id="D1-3W-05" data-name="customclass D1-3W-05"><rect id="_tracciato_23" data-name=" tracciato 23" x="2996.61" y="1861.39" width="399.36" height="195.58" style="fill:#f2f2f2"/></g><g class="clickable" id="D1-3W-04" data-name="customclass D1-3W-04"><polygon id="_tracciato_24" data-name=" tracciato 24" points="2996.61 2571.46 2996.61 2076.12 3395.96 2076.12 3413.64 2076.12 3487.76 2076.12 3487.76 2571.46 2996.61 2571.46" style="fill:#ddd"/></g><g class="clickable" id="D1-3W-03" data-name="customclass D1-3W-03"><polygon id="_tracciato_25" data-name=" tracciato 25" points="3413.64 1842.16 3413.64 1673.92 4236.85 1673.92 4236.85 2571.46 3505.43 2571.46 3505.43 2076.12 3505.43 2056.89 3487.76 2056.89 3413.64 2056.89 3413.64 1861.39 3413.64 1842.16" style="fill:#ddd"/></g><g class="clickable" id="D1-3W-02" data-name="customclass D1-3W-02"><polygon id="_tracciato_26" data-name=" tracciato 26" points="4254.45 2571.46 4254.45 1673.92 4956.45 1673.92 4956.45 2056.89 4956.45 2076.12 4956.45 2521.96 4956.45 2541.19 4956.45 2571.46 4254.45 2571.46" style="fill:#ddd"/></g><g class="clickable" id="D1-3-STAIR-C" data-name="customclass D1-3-STAIR-C"><g id="scala3"><polygon points="5109.36 2400.02 5105.4 2400.02 5105.4 2181.15 5082.81 2181.15 5082.81 2377.94 4970.88 2377.94 4970.88 2072.07 4974.84 2072.07 4974.84 2373.63 5078.84 2373.63 5078.84 2176.84 5109.36 2176.84 5109.36 2400.02" style="fill:#b7b7b7"/><polygon points="5166.6 2374.15 5162.63 2374.15 5162.63 2128.72 5030.49 2128.72 5030.49 2217.55 5026.53 2217.55 5026.53 2124.41 5166.6 2124.41 5166.6 2374.15" style="fill:#b7b7b7"/><rect x="5106.51" y="2176.84" width="112.32" height="4.31" style="fill:#b7b7b7"/><rect x="5106.51" y="2201.76" width="112.32" height="4.31" style="fill:#b7b7b7"/><rect x="4971.12" y="2176.84" width="109.71" height="4.31" style="fill:#b7b7b7"/><rect x="5050.07" y="2226.6" width="30.76" height="4.31" style="fill:#b7b7b7"/><rect x="4970.56" y="2226.6" width="53.82" height="4.31" style="fill:#b7b7b7"/><rect x="4972.86" y="2250.92" width="107.96" height="4.31" style="fill:#b7b7b7"/><rect x="4972.86" y="2275.32" width="107.96" height="4.31" style="fill:#b7b7b7"/><rect x="4972.86" y="2350.18" width="107.96" height="4.31" style="fill:#b7b7b7"/><polygon points="5109.52 2406.23 5078.77 2406.23 5078.77 2376.56 5082.73 2376.56 5082.73 2401.92 5105.56 2401.92 5105.56 2326.46 5109.52 2326.46 5109.52 2406.23" style="fill:#b7b7b7"/><rect x="5106.51" y="2299.81" width="112.32" height="4.31" style="fill:#b7b7b7"/><rect x="5106.51" y="2250.57" width="112.32" height="4.31" style="fill:#b7b7b7"/><rect x="5106.51" y="2275.24" width="112.32" height="4.31" style="fill:#b7b7b7"/><rect x="5106.51" y="2226" width="112.32" height="4.31" style="fill:#b7b7b7"/><rect x="5106.51" y="2324.39" width="112.32" height="4.31" style="fill:#b7b7b7"/><rect x="5106.51" y="2349.05" width="112.32" height="4.31" style="fill:#b7b7b7"/><rect x="5106.51" y="2373.63" width="112.32" height="4.31" style="fill:#b7b7b7"/><rect x="4972.86" y="2299.56" width="107.96" height="4.31" style="fill:#b7b7b7"/><rect x="4972.86" y="2324.74" width="107.96" height="4.31" style="fill:#b7b7b7"/><polygon points="5164.52 2377.97 5144.32 2352.18 5147.34 2349.38 5164.55 2371.37 5181.83 2349.88 5184.81 2352.72 5164.52 2377.97" style="fill:#b7b7b7"/><polygon points="5046.04 2254.5 5028.73 2235.42 5011.27 2254.09 5008.49 2251.02 5028.77 2229.33 5048.86 2251.47 5046.04 2254.5" style="fill:#b7b7b7"/><polygon points="5079.26 2256.18 4971.69 2206.68 4973.24 2202.71 5080.81 2252.21 5079.26 2256.18" style="fill:#b7b7b7"/><polygon points="5079.26 2244.54 4971.69 2195.04 4973.24 2191.07 5080.81 2240.57 5079.26 2244.54" style="fill:#b7b7b7"/><rect x="5026.53" y="2229.45" width="3.96" height="146.69" style="fill:#b7b7b7"/><rect x="4996.8" y="2201.76" width="83.71" height="4.31" style="fill:#b7b7b7"/></g><polygon id="_tracciato_27" data-name=" tracciato 27" points="4974.05 2521.96 4974.05 2076.12 5218.04 2076.12 5235.72 2076.12 5365.16 2076.12 5365.16 2521.96 5235.72 2521.96 5235.72 2187.28 5218.04 2187.28 5218.04 2521.96 4974.05 2521.96" style="fill:none"/></g><g class="clickable" id="D1-3-STAIR-B" data-name="customclass D1-3-STAIR-B"><g id="scala1"><polygon points="845.32 1780.5 505.1 1780.5 505.1 1657.45 754.32 1657.45 754.32 1633.21 505.1 1633.21 505.1 1513 845.32 1513 845.32 1517.31 509.07 1517.31 509.07 1628.9 758.29 1628.9 758.29 1661.76 509.07 1661.76 509.07 1776.19 845.32 1776.19 845.32 1780.5" style="fill:#b7b7b7"/><polygon points="786.19 1723.24 451.04 1723.24 451.04 1718.93 782.23 1718.93 782.23 1577.08 627.33 1577.08 627.33 1572.76 786.19 1572.76 786.19 1723.24" style="fill:#b7b7b7"/><rect x="705.65" y="1658.65" width="3.96" height="120.64" style="fill:#b7b7b7"/><rect x="728.8" y="1658.65" width="3.96" height="120.64" style="fill:#b7b7b7"/><rect x="683.06" y="1658.65" width="3.96" height="120.64" style="fill:#b7b7b7"/><rect x="728.8" y="1515.16" width="3.96" height="115.9" style="fill:#b7b7b7"/><rect x="705.65" y="1515.59" width="3.96" height="115.47" style="fill:#b7b7b7"/><rect x="660.47" y="1515.16" width="3.96" height="115.9" style="fill:#b7b7b7"/><rect x="638.51" y="1541.2" width="3.96" height="89.86" style="fill:#b7b7b7"/><rect x="616.32" y="1515.16" width="3.96" height="55.45" style="fill:#b7b7b7"/><rect x="616.32" y="1598.55" width="3.96" height="31.48" style="fill:#b7b7b7"/><rect x="548.46" y="1515.16" width="3.96" height="115.9" style="fill:#b7b7b7"/><rect x="527.14" y="1515.16" width="3.96" height="115.9" style="fill:#b7b7b7"/><polygon points="573.91 1661.93 419.1 1661.93 419.1 1628.9 528.41 1628.9 528.41 1633.21 423.06 1633.21 423.06 1657.62 573.91 1657.62 573.91 1661.93" style="fill:#b7b7b7"/><rect x="594.12" y="1658.65" width="3.96" height="120.64" style="fill:#b7b7b7"/><rect x="638.75" y="1658.65" width="3.96" height="120.64" style="fill:#b7b7b7"/><rect x="616.4" y="1658.65" width="3.96" height="120.64" style="fill:#b7b7b7"/><rect x="661.02" y="1658.65" width="3.96" height="120.64" style="fill:#b7b7b7"/><rect x="571.77" y="1658.65" width="3.96" height="120.64" style="fill:#b7b7b7"/><rect x="549.41" y="1658.65" width="3.96" height="120.64" style="fill:#b7b7b7"/><rect x="527.14" y="1658.65" width="3.96" height="120.64" style="fill:#b7b7b7"/><rect x="476.33" y="1515.16" width="3.96" height="115.9" style="fill:#b7b7b7"/><rect x="476.33" y="1658.65" width="3.96" height="120.64" style="fill:#b7b7b7"/><rect x="449.06" y="1515.16" width="3.96" height="115.9" style="fill:#b7b7b7"/><rect x="449.06" y="1658.65" width="3.96" height="120.64" style="fill:#b7b7b7"/><rect x="594.36" y="1515.16" width="3.96" height="115.9" style="fill:#b7b7b7"/><rect x="571.45" y="1515.16" width="3.96" height="115.9" style="fill:#b7b7b7"/><polygon points="471.13 1742.8 448.25 1720.89 471.63 1699.18 474.21 1702.46 454.3 1720.94 473.75 1739.56 471.13 1742.8" style="fill:#b7b7b7"/><polygon points="597.68 1596.86 595 1593.68 613.49 1575.15 595.37 1556.48 598.1 1553.35 619.3 1575.2 597.68 1596.86" style="fill:#b7b7b7"/><polygon points="597.06 1631.04 593.41 1629.36 638.35 1513.89 642 1515.57 597.06 1631.04" style="fill:#b7b7b7"/><polygon points="607.6 1631.04 603.95 1629.36 648.89 1513.89 652.54 1515.57 607.6 1631.04" style="fill:#b7b7b7"/><rect x="450.49" y="1572.76" width="165.91" height="4.31" style="fill:#b7b7b7"/><rect x="683.06" y="1517.66" width="3.96" height="113.14" style="fill:#b7b7b7"/><path d="M451,1588.54c-6.86,0-12.44-6.07-12.44-13.53s5.58-13.54,12.44-13.54,12.45,6.07,12.45,13.54S457.86,1588.54,451,1588.54Zm0-22.76c-4.68,0-8.48,4.14-8.48,9.23s3.8,9.22,8.48,9.22,8.48-4.14,8.48-9.22S455.68,1565.78,451,1565.78Z" transform="translate(0.04 0)" style="fill:#b7b7b7"/></g><polygon id="_tracciato_6" data-name=" tracciato 6" points="284.66 1842.16 284.66 1453.33 421.63 1453.33 421.63 1498.77 421.63 1517.92 439.23 1517.92 836.29 1517.92 836.29 1775.76 439.23 1775.76 421.63 1775.76 421.63 1794.99 421.63 1842.16 284.66 1842.16" style="fill:none"/></g><g class="clickable" id="D1-3-LIFT-A" data-name="customclass D1-3-LIFT-A"><rect id="a" x="2996.61" y="1517.92" width="307.09" height="257.84" style="fill:#f2f2f2"/></g><g class="clickable" id="D1-3-STAIR-A" data-name="customclass D1-3-STAIR-A"><g id="scala2"><polygon points="2429.83 1796.54 2090.88 1796.54 2090.88 1792.23 2425.87 1792.23 2425.87 1645.37 2203.6 1645.37 2203.6 1603.81 2496.58 1603.81 2496.58 1453.24 2090.88 1453.24 2090.88 1448.93 2500.54 1448.93 2500.54 1608.12 2207.56 1608.12 2207.56 1641.06 2429.83 1641.06 2429.83 1796.54" style="fill:#b7b7b7"/><polygon points="2498 1718.67 2149.14 1718.67 2149.14 1530.08 2316.64 1530.08 2316.64 1534.39 2153.11 1534.39 2153.11 1714.36 2498 1714.36 2498 1718.67" style="fill:#b7b7b7"/><rect x="2328.92" y="1529.99" width="169.64" height="4.31" style="fill:#b7b7b7"/><rect x="2203.6" y="1449.88" width="3.96" height="157.38" style="fill:#b7b7b7"/><rect x="2228.65" y="1451.86" width="3.96" height="155.4" style="fill:#b7b7b7"/><rect x="2203.6" y="1643.22" width="3.96" height="151.17" style="fill:#b7b7b7"/><rect x="2228.65" y="1643.22" width="3.96" height="151.17" style="fill:#b7b7b7"/><rect x="2253.7" y="1643.22" width="3.96" height="151.17" style="fill:#b7b7b7"/><rect x="2278.03" y="1643.22" width="3.96" height="151.17" style="fill:#b7b7b7"/><rect x="2302.69" y="1643.22" width="3.96" height="151.17" style="fill:#b7b7b7"/><rect x="2377.83" y="1643.22" width="3.96" height="151.17" style="fill:#b7b7b7"/><rect x="2401.45" y="1643.22" width="3.96" height="151.17" style="fill:#b7b7b7"/><rect x="2496.58" y="1643.22" width="3.96" height="151.17" style="fill:#b7b7b7"/><polygon points="2483.08 1735.72 2480.27 1732.67 2494.98 1716.67 2480.25 1700.17 2483.1 1697.16 2500.55 1716.71 2483.08 1735.72" style="fill:#b7b7b7"/><polygon points="2500.54 1645.37 2404.23 1645.37 2404.23 1641.06 2496.58 1641.06 2496.58 1607.86 2353.81 1607.86 2353.81 1603.55 2500.54 1603.55 2500.54 1645.37" style="fill:#b7b7b7"/><rect x="2327.26" y="1583.46" width="3.96" height="23.8" style="fill:#b7b7b7"/><rect x="2327.26" y="1449.88" width="3.96" height="81.67" style="fill:#b7b7b7"/><rect x="2277.79" y="1449.88" width="3.96" height="157.38" style="fill:#b7b7b7"/><rect x="2302.53" y="1484.2" width="3.96" height="123.06" style="fill:#b7b7b7"/><rect x="2253.06" y="1449.88" width="3.96" height="157.38" style="fill:#b7b7b7"/><rect x="2351.99" y="1449.88" width="3.96" height="157.38" style="fill:#b7b7b7"/><rect x="2376.72" y="1449.88" width="3.96" height="157.38" style="fill:#b7b7b7"/><rect x="2401.45" y="1449.88" width="3.96" height="157.38" style="fill:#b7b7b7"/><rect x="2326.94" y="1643.22" width="3.96" height="151.17" style="fill:#b7b7b7"/><rect x="2352.31" y="1643.22" width="3.96" height="151.17" style="fill:#b7b7b7"/><rect x="2472.72" y="1643.22" width="3.96" height="151.17" style="fill:#b7b7b7"/><rect x="2472.72" y="1449.96" width="3.96" height="154.71" style="fill:#b7b7b7"/><rect x="2449.73" y="1449.96" width="3.96" height="154.71" style="fill:#b7b7b7"/><rect x="2426.19" y="1449.96" width="3.96" height="154.71" style="fill:#b7b7b7"/><rect x="2449.17" y="1643.22" width="3.96" height="151.17" style="fill:#b7b7b7"/><path d="M2498.52,1547.15c-7.74,0-14-6.85-14-15.26s6.29-15.27,14-15.27,14,6.85,14,15.27S2506.26,1547.15,2498.52,1547.15Zm0-26.21c-5.55,0-10.07,4.91-10.07,11s4.52,11,10.07,11,10.07-4.91,10.07-11-4.52-11-10.07-11Z" transform="translate(0.04 0)" style="fill:#b7b7b7"/><polygon points="2345 1606.95 2306.4 1450.69 2310.23 1449.58 2348.83 1605.84 2345 1606.95" style="fill:#b7b7b7"/><polygon points="2333.27 1606.95 2294.67 1450.69 2298.5 1449.58 2337.1 1605.84 2333.27 1606.95" style="fill:#b7b7b7"/><polygon points="2344.99 1551.21 2326.88 1532.26 2344.97 1512.68 2347.76 1515.74 2332.55 1532.21 2347.74 1548.1 2344.99 1551.21" style="fill:#b7b7b7"/></g><g id="a-2"><rect x="2097.06" y="1451.86" width="420.84" height="338.99" style="fill:none"/></g></g></g><g id="walls"><polygon points="1744.16 1453.33 1744.16 1842.16 1417.81 1842.16 1417.81 1861.39 1744.16 1861.39 1761.83 1861.39 1761.83 1842.16 1761.83 1453.33 1761.83 1434.18 1744.16 1434.18 1417.81 1434.18 1417.81 1453.33 1744.16 1453.33" style="fill:#b7b7b7"/><polygon points="1246.59 1453.33 1246.59 1842.16 1145.52 1842.16 1145.52 1861.39 1246.59 1861.39 1264.26 1861.39 1333.78 1861.39 1333.78 1842.16 1264.26 1842.16 1264.26 1453.33 1333.78 1453.33 1333.78 1434.18 1264.26 1434.18 1246.59 1434.18 1145.52 1434.18 1145.52 1453.33 1246.59 1453.33" style="fill:#b7b7b7"/><path d="M421.59,1453.33v64.59H836.25v257.84H421.59v66.32H409.31v19.23h652.22v-19.23H993.6V1453.24h67.93V1434H409.31v19.23h12.28Zm17.6,0H975.84v388.83H439.19V1795H853.85V1498.77H439.19Z" transform="translate(0.04 0)" style="fill:#b7b7b7"/><path d="M266.94,1861.39h25.68v-19.23h-8V1453.33h8V1434.1H194.17v427.21h72.77Zm-55.09-408.06h55.09v388.83H211.85Z" transform="translate(0.04 0)" style="fill:#b7b7b7"/><path d="M35.79,2610.43H5499.88V0H3101.44V713.6H0V2610.43Zm5428.34-39h-490v-30.27h408.79v-465h81.33v495.34ZM3502.7,1130.29V771.81h62.07v504.65H3502.7ZM35.79,2076.12H89.3v-19.23H35.79V1295.6H91.44v-19.23H35.79V752.58H745.72v402.2H763.4V752.58h483.14v523.79H1145.4v19.23h181.92v-19.23h-63.1V752.58h230.6v523.79h-83.48v19.23h156.24v-19.23h-55.09V752.58H1994v523.79H1651.53v19.23h413.55v-19.23h-53.43V752.58H2483v523.79H2149.1v19.23H2483v5.26h17.68V752.58H2979v22.07h17.68V752.58h140.7V657.11h34.8V637.88h-34.8V39h162.1v66.9h17.68V39h168V194.37h-168V175.75h-17.68v43.63h17.68v-5.86h168v92h-168v-16.3h-17.68v41.31h17.68v-5.86h168v96.58h-168V400.31h-17.68v40.18H3485.1V637.88H3259.9v19.23h30V773.53h17.68V657.11h177.64V855.54H3307.54v-4h-17.68v65.19h-17.12V936h34.8V874.77h177.64v236.29h-11.81v19.23h11.81v146.08h-93.06V1130.29H3397v-19.23h-27.82v19.23h5.39v146.08h-89V1130.29h7v-19.23h-34.25v19.23h9.59v146.08h-93.06V1130.29h7v-19.23h-7V935.91H3185V916.68h-37v19.23h9v340.46H2996.49V935.91h63.65V916.68h-63.65V872.44h-17.68v428.94h17.68v-5.86h585.87v-228.7h500.27v-19.23H3582.36v-295H3502.7V39h734V1047.7h-56.2v19.23h73.8V590.2h64.76V571H4254.3V39h478.86V571H4417v19.2h316.2v476.71h334.9v-19.24H4750.87V39h713.18V1047.7h-298v19.23h298V2057H5358.62v19.23H5365V2522H5235.6V2174.6h-17.68V2522h-244V2076.21h268V2057h-6.42V1914.34h-17.68V2057h-244V1674h244v146.69h17.68V1654.77H4412.23V1674h544.1v897.54H4254.41V1673.92h62.06v-19.23H3413.6V1434.1h-417v-6.39h-17.68v90.21h324.84v257.84H3013.21v.6H2979v101.25h17.68v-16.3H3396v62.26h17.68V1673.83h823.13v897.54H3505.47V2056.89h-91.79v-39.58H3396v39.58H3164.14v19.23H3487.8v495.34H2996.65V2076.12h75.46v-19.23h-75.46v-17.42H2979v532H2500.66v-532H2483v17.42H2151.24v19.23H2483v495.34H1264.22V2076.12h61.51v-19.23H907.35v19.23h339.19v495.34H35.79Zm3267.94-577.35H2996.57v-45.36h399.35v388.84H2996.57v-47.17h324.76V1498.86Z" transform="translate(0.04 0)" style="fill:#b7b7b7"/><rect x="176.06" y="2056.89" width="644.69" height="19.23" style="fill:#b7b7b7"/><polygon points="763.52 1276.37 763.52 1246.19 745.84 1246.19 745.84 1276.37 237.57 1276.37 175.5 1276.37 175.5 1295.6 237.57 1295.6 745.84 1295.6 763.52 1295.6 1061.49 1295.6 1061.49 1276.37 763.52 1276.37" style="fill:#b7b7b7"/><rect x="1416.22" y="2056.89" width="644.69" height="19.23" style="fill:#b7b7b7"/><path d="M2500.66,1861.39v-70.45h-405V1453.33h405v-25H2483v5.86H1977.9V1861.4h505v5.26h17.68ZM2483,1842.16H1995.56V1453.33h82.36v356.75h405v32.08Z" transform="translate(0.04 0)" style="fill:#b7b7b7"/></g></g></svg>