<svg id="Livello_1" data-name="Livello 1" xmlns="http://www.w3.org/2000/svg" xmlns:xlink="http://www.w3.org/1999/xlink" viewBox="0 0 5500 3000"><defs><pattern id="locale_tecnico-15_1_" data-name="locale tecnico-15 1 " width="38.5" height="38.5" patternTransform="matrix(-0.53, 0, 0, 0.57, -16726.09, 22665.19)" patternUnits="userSpaceOnUse" viewBox="0 0 38.5 38.5"><rect width="38.5" height="38.5" style="fill:none"/><rect width="38.5" height="38.5" style="fill:none"/><rect width="38.5" height="38.5" style="fill:none"/><rect width="38.5" height="38.5" style="fill:none"/><rect width="38.5" height="38.5" style="fill:none"/><rect width="38.5" height="38.5" style="fill:none"/><rect width="38.5" height="38.5" style="fill:none"/><rect width="38.5" height="38.5" style="fill:none"/><rect x="35.8" y="-35.8" width="40.5" height="39.2" style="fill:#f2f2f2"/><line x1="38.5" x2="77" y2="-38.5" style="fill:none;stroke:#ddd;stroke-linecap:square;stroke-linejoin:round;stroke-width:20px"/><rect x="-2.7" y="-35.8" width="40.5" height="39.2" style="fill:#f2f2f2"/><line x2="38.5" y2="-38.5" style="fill:none;stroke:#ddd;stroke-linecap:square;stroke-linejoin:round;stroke-width:20px"/><line x1="-38.5" y2="-38.5" style="fill:none;stroke:#ddd;stroke-linecap:square;stroke-linejoin:round;stroke-width:20px"/><rect x="35.8" y="2.7" width="40.5" height="39.2" style="fill:#f2f2f2"/><line x1="38.5" y1="38.5" x2="77" style="fill:none;stroke:#ddd;stroke-linecap:square;stroke-linejoin:round;stroke-width:20px"/><rect x="-2.7" y="2.7" width="40.5" height="39.2" style="fill:#f2f2f2"/><line y1="38.5" x2="38.5" style="fill:none;stroke:#ddd;stroke-linecap:square;stroke-linejoin:round;stroke-width:20px"/><line x1="-38.5" y1="38.5" style="fill:none;stroke:#ddd;stroke-linecap:square;stroke-linejoin:round;stroke-width:20px"/><line x1="38.5" y1="77" x2="77" y2="38.5" style="fill:none;stroke:#ddd;stroke-linecap:square;stroke-linejoin:round;stroke-width:20px"/><line y1="77" x2="38.5" y2="38.5" style="fill:none;stroke:#ddd;stroke-linecap:square;stroke-linejoin:round;stroke-width:20px"/><line x1="-38.5" y1="77" y2="38.5" style="fill:none;stroke:#ddd;stroke-linecap:square;stroke-linejoin:round;stroke-width:20px"/></pattern></defs><g id="D1-floor4"><g id="background"><polygon points="35.83 2599.21 5464.17 2599.21 5500 2599.21 5500 2560.67 5500 781.25 5500 742.71 5464.17 742.71 4246.44 742.71 3752.59 742.71 3752.59 610.89 3752.59 572.35 3716.76 572.35 3137.39 572.35 3101.48 572.35 3101.48 610.89 3101.48 723.7 2996.61 723.7 35.83 723.7 0 723.7 0 762.24 0 2560.67 0 2599.21 35.83 2599.21" style="fill:#f2f2f2"/><polygon id="_tracciato_20" data-name=" tracciato 20" points="4264.12 1280.14 4264.12 781.25 5464.17 781.25 5464.17 2051.89 5382.84 2051.89 5365.16 2051.89 5235.72 2051.89 5218.04 2051.89 4974.05 2051.89 4956.45 2051.89 4500.02 2051.89 4482.42 2051.89 4264.12 2051.89 4264.12 1855.69 5022.25 1855.69 5039.84 1855.69 5039.84 1836.67 5039.84 1466.62 5039.84 1447.69 5022.25 1447.69 4264.12 1447.69 4264.12 1299.16 4264.12 1280.14" style="fill:#ddd"/></g><g id="rooms"><rect id="locale_tecnico-15" data-name="locale tecnico-15" x="211.89" y="1455.11" width="55.09" height="384.46" style="fill:url(#locale_tecnico-15_1_)"/><polygon id="locale_tecnico-16" data-name="locale tecnico-16" points="4974.05 2560.67 4974.05 2530.74 5365.16 2530.74 5382.84 2530.74 5382.84 2511.73 5382.84 2070.9 5464.17 2070.9 5464.17 2560.67 4974.05 2560.67" style="fill:url(#locale_tecnico-15_1_)"/><polygon id="locale_tecnico-17" data-name="locale tecnico-17" points="2996.61 1500.05 2996.61 1455.11 3395.96 1455.11 3395.96 1839.57 2996.61 1839.57 2996.61 1792.93 3303.77 1792.93 3321.37 1792.93 3321.37 1773.92 3321.37 1518.97 3321.37 1500.05 3303.77 1500.05 2996.61 1500.05" style="fill:url(#locale_tecnico-15_1_)"/><polygon id="locale_tecnico-18" data-name="locale tecnico-18" points="439.23 1500.05 439.23 1455.11 975.88 1455.11 975.88 1839.57 439.23 1839.57 439.23 1792.93 836.29 1792.93 853.89 1792.93 853.89 1773.92 853.89 1518.97 853.89 1500.05 836.29 1500.05 439.23 1500.05" style="fill:url(#locale_tecnico-15_1_)"/><polygon id="locale_tecnico-19" data-name="locale tecnico-19" points="1995.6 1839.57 1995.6 1455.11 2078.04 1455.11 2078.04 1788.93 2078.04 1807.94 2095.63 1807.94 2483.02 1807.94 2483.02 1839.57 1995.6 1839.57" style="fill:url(#locale_tecnico-15_1_)"/><polygon id="locale_tecnico-20" data-name="locale tecnico-20" points="3502.74 809.99 3502.74 610.89 3716.76 610.89 3716.76 742.71 3716.76 762.24 3582.48 762.24 3564.81 762.24 3564.81 781.25 3564.81 1280.14 3502.74 1280.14 3502.74 1158.72 3502.74 1139.8 3502.74 943.51 3502.74 924.5 3502.74 829 3502.74 809.99" style="fill:url(#locale_tecnico-15_1_)"/><rect id="senza_codice" data-name="senza codice" x="3349.75" y="943.51" width="135.39" height="196.2" style="fill:#f2f2f2"/><rect id="senza_codice-2" data-name="senza codice-2" x="3349.75" y="1158.73" width="135.39" height="121.42" style="fill:#f2f2f2"/><rect id="senza_codice-3" data-name="senza codice-3" x="3349.75" y="829" width="135.39" height="95.5" style="fill:#f2f2f2"/><rect id="senza_codice-4" data-name="senza codice-4" x="3349.75" y="610.89" width="135.39" height="199.1" style="fill:#f2f2f2"/><polygon id="senza_codice-5" data-name="senza codice-5" points="2996.61 1436.18 2996.61 1299.16 3332.07 1299.16 3349.75 1299.16 3485.14 1299.16 3502.74 1299.16 3564.81 1299.16 3582.48 1299.16 3735 1299.16 3752.59 1299.16 4246.44 1299.16 4246.44 1447.69 3753.15 1447.69 3735.47 1447.69 3735.47 1466.62 3735.47 1836.67 3735.47 1855.69 3753.15 1855.69 4246.44 1855.69 4246.44 2051.89 4004.59 2051.89 3986.99 2051.89 3752.59 2051.89 3735 2051.89 3257.16 2051.89 3239.57 2051.89 2996.61 2051.89 2996.61 1858.59 3395.96 1858.59 3413.64 1858.59 3413.64 1839.57 3413.64 1455.11 3413.64 1436.18 3395.96 1436.18 2996.61 1436.18" style="fill:#f2f2f2"/><g class="clickable" id="D1-4C-01-D" data-name="customclass D1-4C-01-D"><rect id="a" x="2996.61" y="1518.97" width="307.09" height="254.95" style="fill:#f2f2f2"/></g><g class="clickable" id="D1-4E-20" data-name="customclass D1-4E-20"><rect id="_tracciato_" data-name=" tracciato " x="35.83" y="762.24" width="463.88" height="517.91" style="fill:#ddd"/></g><g class="clickable" id="D1-4E-20-2" data-name="customclass D1-4E-20-2"><rect id="tracciato" x="1131.33" y="1898.07" width="220.76" height="105.99" style="fill:#f2f2f2"/></g><g class="clickable" id="D1-4E-18" data-name="customclass D1-4E-18"><rect id="_tracciato_3" data-name=" tracciato 3" x="517.39" y="762.24" width="729.2" height="517.91" style="fill:#ddd"/></g><g class="clickable" id="D1-4E-14" data-name="customclass D1-4E-14"><rect id="_tracciato_4" data-name=" tracciato 4" x="1264.26" y="762.24" width="1218.76" height="517.91" style="fill:#ddd"/></g><g class="clickable" id="D1-4E-12" data-name="customclass D1-4E-12"><g id="scala1"><polygon points="845.33 1778.61 505.1 1778.61 505.1 1656.93 754.32 1656.93 754.32 1632.97 507.08 1632.97 507.08 1628.71 758.29 1628.71 758.29 1661.2 509.07 1661.2 509.07 1774.35 845.33 1774.35 845.33 1778.61" style="fill:#b7b7b7"/><polygon points="786.19 1721.99 451.04 1721.99 451.04 1717.73 782.23 1717.73 782.23 1577.47 627.34 1577.47 627.34 1573.2 786.19 1573.2 786.19 1721.99" style="fill:#b7b7b7"/><rect x="705.65" y="1658.13" width="3.96" height="119.29" style="fill:#b7b7b7"/><rect x="728.8" y="1658.13" width="3.96" height="119.29" style="fill:#b7b7b7"/><rect x="683.06" y="1658.13" width="3.96" height="119.29" style="fill:#b7b7b7"/><rect x="728.8" y="1516.25" width="3.96" height="114.6" style="fill:#b7b7b7"/><rect x="705.65" y="1516.67" width="3.96" height="114.17" style="fill:#b7b7b7"/><rect x="660.47" y="1516.25" width="3.96" height="114.6" style="fill:#b7b7b7"/><rect x="638.51" y="1542" width="3.96" height="88.85" style="fill:#b7b7b7"/><rect x="616.32" y="1598.7" width="3.96" height="31.12" style="fill:#b7b7b7"/><polygon points="573.91 1661.37 419.1 1661.37 419.1 1628.71 528.41 1628.71 528.41 1632.97 423.06 1632.97 423.06 1657.11 573.91 1657.11 573.91 1661.37" style="fill:#b7b7b7"/><rect x="594.12" y="1658.13" width="3.96" height="119.29" style="fill:#b7b7b7"/><rect x="638.75" y="1658.13" width="3.96" height="119.29" style="fill:#b7b7b7"/><rect x="616.4" y="1658.13" width="3.96" height="119.29" style="fill:#b7b7b7"/><rect x="661.02" y="1658.13" width="3.96" height="119.29" style="fill:#b7b7b7"/><rect x="571.77" y="1658.13" width="3.96" height="119.29" style="fill:#b7b7b7"/><rect x="549.41" y="1658.13" width="3.96" height="119.29" style="fill:#b7b7b7"/><rect x="527.14" y="1658.13" width="3.96" height="119.29" style="fill:#b7b7b7"/><rect x="476.33" y="1658.13" width="3.96" height="119.29" style="fill:#b7b7b7"/><rect x="449.06" y="1516.25" width="3.96" height="114.6" style="fill:#b7b7b7"/><rect x="449.06" y="1658.13" width="3.96" height="119.29" style="fill:#b7b7b7"/><polygon points="471.13 1741.33 448.25 1719.66 471.63 1698.2 474.2 1701.44 454.3 1719.71 473.75 1738.13 471.13 1741.33" style="fill:#b7b7b7"/><polygon points="607.6 1630.82 603.95 1629.16 648.89 1514.99 652.54 1516.65 607.6 1630.82" style="fill:#b7b7b7"/><rect x="683.06" y="1518.72" width="3.96" height="111.87" style="fill:#b7b7b7"/><rect x="507.08" y="1514.11" width="338.24" height="4.26" style="fill:#b7b7b7"/></g><polygon id="_tracciato_5" data-name=" tracciato 5" points="284.65 1839.57 284.65 1455.11 421.63 1455.11 421.63 1500.05 421.63 1518.97 439.23 1518.97 836.29 1518.97 836.29 1773.92 439.23 1773.92 421.63 1773.92 421.63 1792.93 421.63 1839.57 284.65 1839.57" style="fill:none"/></g><g class="clickable" id="D1-4E-12-A" data-name="customclass D1-4E-12-A"><g id="scala2"><polygon points="2429.83 1794.47 2090.88 1794.47 2090.88 1790.2 2425.87 1790.2 2425.87 1645 2203.6 1645 2203.6 1603.9 2496.58 1603.9 2496.58 1455.03 2090.88 1455.03 2090.88 1450.76 2500.54 1450.76 2500.54 1608.16 2207.56 1608.16 2207.56 1640.73 2429.83 1640.73 2429.83 1794.47" style="fill:#b7b7b7"/><polygon points="2498 1717.47 2149.14 1717.47 2149.14 1531 2316.64 1531 2316.64 1535.26 2153.11 1535.26 2153.11 1713.21 2498 1713.21 2498 1717.47" style="fill:#b7b7b7"/><rect x="2203.6" y="1451.7" width="3.96" height="155.61" style="fill:#b7b7b7"/><rect x="2228.65" y="1453.66" width="3.96" height="153.65" style="fill:#b7b7b7"/><rect x="2203.6" y="1642.87" width="3.96" height="149.47" style="fill:#b7b7b7"/><rect x="2228.65" y="1642.87" width="3.96" height="149.47" style="fill:#b7b7b7"/><rect x="2253.7" y="1642.87" width="3.96" height="149.47" style="fill:#b7b7b7"/><rect x="2278.03" y="1642.87" width="3.96" height="149.47" style="fill:#b7b7b7"/><rect x="2302.69" y="1642.87" width="3.96" height="149.47" style="fill:#b7b7b7"/><rect x="2377.83" y="1642.87" width="3.96" height="149.47" style="fill:#b7b7b7"/><rect x="2401.45" y="1642.87" width="3.96" height="149.47" style="fill:#b7b7b7"/><rect x="2496.58" y="1642.87" width="3.96" height="149.47" style="fill:#b7b7b7"/><polygon points="2483.08 1734.33 2480.27 1731.31 2494.98 1715.49 2480.25 1699.18 2483.1 1696.21 2500.55 1715.53 2483.08 1734.33" style="fill:#b7b7b7"/><polygon points="2500.54 1645 2404.23 1645 2404.23 1640.73 2496.58 1640.73 2496.58 1607.91 2353.81 1607.91 2353.81 1603.64 2500.54 1603.64 2500.54 1645" style="fill:#b7b7b7"/><rect x="2327.26" y="1583.78" width="3.96" height="23.53" style="fill:#b7b7b7"/><rect x="2277.79" y="1451.7" width="3.96" height="155.61" style="fill:#b7b7b7"/><rect x="2302.53" y="1485.63" width="3.96" height="121.67" style="fill:#b7b7b7"/><rect x="2253.06" y="1451.7" width="3.96" height="155.61" style="fill:#b7b7b7"/><rect x="2326.94" y="1642.87" width="3.96" height="149.47" style="fill:#b7b7b7"/><rect x="2352.31" y="1642.87" width="3.96" height="149.47" style="fill:#b7b7b7"/><rect x="2472.72" y="1642.87" width="3.96" height="149.47" style="fill:#b7b7b7"/><rect x="2449.17" y="1642.87" width="3.96" height="149.47" style="fill:#b7b7b7"/><polygon points="2333.27 1607.01 2294.67 1452.51 2298.5 1451.4 2337.1 1605.9 2333.27 1607.01" style="fill:#b7b7b7"/></g><g id="a-2"><rect x="2095.63" y="1455.11" width="410.61" height="332.62" style="fill:none"/></g></g><g class="clickable" id="D1-4E-11" data-name="customclass D1-4E-11"><rect id="_tracciato_6" data-name=" tracciato 6" x="993.56" y="1455.11" width="253.11" height="384.46" style="fill:#ddd"/></g><g class="clickable" id="D1-4E-10" data-name="customclass D1-4E-10"><rect id="_tracciato_7" data-name=" tracciato 7" x="1264.26" y="1455.11" width="479.89" height="384.46" style="fill:#ddd"/></g><g class="clickable" id="D1-4E-08" data-name="customclass D1-4E-08"><rect id="_tracciato_8" data-name=" tracciato 8" x="35.83" y="2070.9" width="709.93" height="489.77" style="fill:#ddd"/></g><g class="clickable" id="D1-4E-07" data-name="customclass D1-4E-07"><rect id="_tracciato_9" data-name=" tracciato 9" x="763.52" y="2070.9" width="234.87" height="489.77" style="fill:#ddd"/></g><g class="clickable" id="D1-4E-06" data-name="customclass D1-4E-06"><rect id="_tracciato_10" data-name=" tracciato 10" x="1015.99" y="2070.9" width="230.59" height="489.77" style="fill:#ddd"/></g><g class="clickable" id="D1-4E-05" data-name="customclass D1-4E-05"><rect id="_tracciato_11" data-name=" tracciato 11" x="1264.26" y="2070.9" width="230.59" height="489.77" style="fill:#ddd"/></g><g class="clickable" id="D1-4E-04" data-name="customclass D1-4E-04"><rect id="_tracciato_12" data-name=" tracciato 12" x="1512.53" y="2070.9" width="231.62" height="489.77" style="fill:#ddd"/></g><g class="clickable" id="D1-4E-03" data-name="customclass D1-4E-03"><rect id="_tracciato_13" data-name=" tracciato 13" x="1761.83" y="2070.9" width="232.18" height="489.77" style="fill:#ddd"/></g><g class="clickable" id="D1-4E-02" data-name="customclass D1-4E-02"><rect id="_tracciato_14" data-name=" tracciato 14" x="2011.69" y="2070.9" width="471.33" height="489.77" style="fill:#ddd"/></g><g class="clickable" id="D1-4C-01" data-name="customclass D1-4C-01"><polygon id="_tracciato_15" data-name=" tracciato 15" points="2530.35 1436.18 2530.35 1299.16 2530.35 1280.14 2530.35 762.24 2979.01 762.24 2979.01 924.5 2979.01 943.51 2979.01 1280.14 2979.01 1299.16 2979.01 1436.18 2979.01 1455.11 2979.01 1500.05 2979.01 1518.97 2979.01 1773.92 2979.01 1792.93 2979.01 1839.57 2979.01 1858.59 2979.01 2051.89 2979.01 2070.9 2979.01 2560.67 2530.35 2560.67 2530.35 2070.9 2530.35 2051.89 2530.35 1858.59 2530.35 1436.18" style="fill:#f2f2f2"/></g><g class="clickable" id="D1-4W-21" data-name="customclass D1-4W-21"><polygon id="_tracciato_16" data-name=" tracciato 16" points="2996.61 1280.14 2996.61 943.51 3332.07 943.51 3332.07 1139.8 3332.07 1158.72 3332.07 1280.14 2996.61 1280.14" style="fill:#f2f2f2"/></g><g class="clickable" id="D1-4W-20" data-name="customclass D1-4W-20"><polygon id="_tracciato_17" data-name=" tracciato 17" points="2996.61 924.5 2996.61 762.24 3101.48 762.24 3137.39 762.24 3137.39 723.7 3137.39 610.89 3332.07 610.89 3332.07 809.99 3332.07 829 3332.07 924.5 2996.61 924.5" style="fill:#f2f2f2"/></g><g class="clickable" id="D1-4W-19" data-name="customclass D1-4W-19"><polygon id="_tracciato_18" data-name=" tracciato 18" points="3582.48 1280.14 3582.48 781.25 3716.76 781.25 3735 781.25 3735 1280.14 3582.48 1280.14" style="fill:url(#locale_tecnico-15_1_)"/></g><g class="clickable" id="D1-4W-15" data-name="customclass D1-4W-15"><polygon id="_tracciato_19" data-name=" tracciato 19" points="3752.59 1280.14 3752.59 781.25 3783.67 781.25 4246.44 781.25 4246.44 1280.14 3752.59 1280.14" style="fill:#ddd"/></g><g class="clickable" id="D1-4W-14" data-name="customclass D1-4W-14"><rect x="4264.12" y="781.25" width="1200.05" height="654.93" style="fill:none"/></g><g class="clickable" id="D1-4W-11" data-name="customclass D1-4W-11"><rect id="_tracciato_21" data-name=" tracciato 21" x="3753.15" y="1466.62" width="493.29" height="370.05" style="fill:#ddd"/></g><g class="clickable" id="D1-4W-09" data-name="customclass D1-4W-09"><rect id="_tracciato_22" data-name=" tracciato 22" x="4264.12" y="1466.62" width="758.13" height="370.05" style="fill:#ddd"/></g><g class="clickable" id="D1-4W-07" data-name="customclass D1-4W-07"><rect id="_tracciato_23" data-name=" tracciato 23" x="4004.59" y="2070.9" width="241.85" height="489.77" style="fill:#ddd"/></g><g class="clickable" id="D1-4W-06" data-name="customclass D1-4W-06"><rect id="_tracciato_24" data-name=" tracciato 24" x="2996.61" y="2070.9" width="242.88" height="489.77" style="fill:#ddd"/></g><g class="clickable" id="D1-4W-05" data-name="customclass D1-4W-05"><polygon id="_tracciato_25" data-name=" tracciato 25" points="3257.16 2560.67 3257.16 2070.9 3735 2070.9 3735 2529.03 3735 2538.24 3735 2560.67 3257.16 2560.67" style="fill:#ddd"/></g><g class="clickable" id="D1-4W-04" data-name="customclass D1-4W-04"><polygon id="_tracciato_26" data-name=" tracciato 26" points="3752.59 2529.03 3752.59 2070.9 3986.99 2070.9 3986.99 2560.67 3752.59 2560.67 3752.59 2538.24 3752.59 2529.03" style="fill:#ddd"/></g><g class="clickable" id="D1-4W-03" data-name="customclass D1-4W-03"><rect id="_tracciato_27" data-name=" tracciato 27" x="4264.12" y="2070.9" width="218.31" height="489.77" style="fill:#ddd"/></g><g class="clickable" id="D1-4W-02" data-name="customclass D1-4W-02"><polygon id="_tracciato_28" data-name=" tracciato 28" points="4500.02 2560.67 4500.02 2070.9 4956.45 2070.9 4956.45 2511.73 4956.45 2530.74 4956.45 2560.67 4500.02 2560.67" style="fill:#ddd"/></g><g class="clickable" id="D1-4W-01" data-name="customclass D1-4W-01"><g id="scala3"><polygon points="5109.36 2391.16 5105.4 2391.16 5105.4 2174.75 5082.81 2174.75 5082.81 2369.33 4970.88 2369.33 4970.88 2066.89 4974.84 2066.89 4974.84 2365.07 5078.84 2365.07 5078.84 2170.49 5109.36 2170.49 5109.36 2391.16" style="fill:#b7b7b7"/><polygon points="5166.6 2365.58 5162.63 2365.58 5162.63 2122.91 5030.49 2122.91 5030.49 2210.74 5026.53 2210.74 5026.53 2118.65 5166.6 2118.65 5166.6 2365.58" style="fill:#b7b7b7"/><rect x="5106.51" y="2170.49" width="112.32" height="4.26" style="fill:#b7b7b7"/><rect x="5106.51" y="2195.13" width="112.32" height="4.26" style="fill:#b7b7b7"/><rect x="4971.12" y="2170.49" width="109.71" height="4.26" style="fill:#b7b7b7"/><rect x="5050.07" y="2219.69" width="30.76" height="4.26" style="fill:#b7b7b7"/><polygon points="5109.52 2397.3 5078.77 2397.3 5078.77 2367.97 5082.73 2367.97 5082.73 2393.03 5105.56 2393.03 5105.56 2318.43 5109.52 2318.43 5109.52 2397.3" style="fill:#b7b7b7"/><rect x="5106.51" y="2292.08" width="112.32" height="4.26" style="fill:#b7b7b7"/><rect x="5106.51" y="2243.39" width="112.32" height="4.26" style="fill:#b7b7b7"/><rect x="5106.51" y="2267.78" width="112.32" height="4.26" style="fill:#b7b7b7"/><rect x="5106.51" y="2219.09" width="112.32" height="4.26" style="fill:#b7b7b7"/><rect x="5106.51" y="2316.38" width="112.32" height="4.26" style="fill:#b7b7b7"/><rect x="5106.51" y="2340.77" width="112.32" height="4.26" style="fill:#b7b7b7"/><rect x="5106.51" y="2365.07" width="112.32" height="4.26" style="fill:#b7b7b7"/><polygon points="5164.51 2369.35 5144.32 2343.86 5147.34 2341.09 5164.55 2362.83 5181.83 2341.58 5184.81 2344.39 5164.51 2369.35" style="fill:#b7b7b7"/><polygon points="5079.26 2237.43 4971.69 2188.48 4973.24 2184.56 5080.8 2233.5 5079.26 2237.43" style="fill:#b7b7b7"/><rect x="4996.8" y="2195.13" width="83.71" height="4.26" style="fill:#b7b7b7"/></g><polygon id="_tracciato_29" data-name=" tracciato 29" points="4974.05 2511.73 4974.05 2070.9 5218.04 2070.9 5218.04 2363.88 5235.72 2363.88 5235.72 2070.9 5365.16 2070.9 5365.16 2511.73 4974.05 2511.73" style="fill:none"/></g></g><g id="walls"><path d="M421.63,1455.11V1519H836.29v255H421.63v65.57H409.35v19h638.27v-19H993.56V1455h34.8v-19h-619v19h12.28Zm17.6,0H975.88v384.46H439.23v-46.64H853.89V1500H439.23Z" style="fill:#b7b7b7"/><path d="M284.65,1839.57V1455.11h8v-19H194.21v422.4h98.45v-19h-8Zm-17.67,0H211.89V1455.11H267Z" style="fill:#b7b7b7"/><polygon points="1744.16 1455.11 1744.16 1839.57 1431.76 1839.57 1431.76 1858.59 1744.16 1858.59 1761.83 1858.59 1761.83 1839.57 1761.83 1455.11 1761.83 1436.18 1744.16 1436.18 1423.2 1436.18 1423.2 1455.11 1744.16 1455.11" style="fill:#b7b7b7"/><polygon points="1246.58 1455.11 1246.58 1839.57 1131.57 1839.57 1131.57 1858.59 1246.58 1858.59 1264.26 1858.59 1347.73 1858.59 1347.73 1839.57 1264.26 1839.57 1264.26 1455.11 1339.17 1455.11 1339.17 1436.18 1264.26 1436.18 1246.58 1436.18 1112.3 1436.18 1112.3 1455.11 1246.58 1455.11" style="fill:#b7b7b7"/><polygon points="3735 2070.9 3735 2077.81 3752.59 2077.81 3752.59 2070.9 3850.02 2070.9 3850.02 2051.89 3752.59 2051.89 3735 2051.89 3403.81 2051.89 3403.81 2070.9 3735 2070.9" style="fill:#b7b7b7"/><polygon points="3753.15 1836.67 3753.15 1466.62 4087.59 1466.62 4087.59 1447.69 3753.15 1447.69 3735.47 1447.69 3735.47 1466.62 3735.47 1836.67 3735.47 1855.69 3753.15 1855.69 4087.59 1855.69 4087.59 1836.67 3753.15 1836.67" style="fill:#b7b7b7"/><path d="M2500.7,1858.59v-69.66h-405V1455.11h405v-24.73H2483v5.8h-505.1v422.41h505v5.2h17.68Zm-17.68-19H1995.6V1455.11H2078v352.75h405v31.71Z" style="fill:#b7b7b7"/><polygon points="5022.25 1466.62 5022.25 1836.67 4476.48 1836.67 4476.48 1855.69 5022.25 1855.69 5039.84 1855.69 5039.84 1836.67 5039.84 1466.62 5039.84 1447.69 5022.25 1447.69 4476.48 1447.69 4476.48 1466.62 5022.25 1466.62" style="fill:#b7b7b7"/><path d="M2996.61,1858.59h417V1436.18h-417v-6.31h-17.68v89.19h324.84V1774H3013.25v.6H2979v100.1h17.68Zm0-65.66h324.76V1500H2996.61v-44.85H3396v384.47H2996.61Z" style="fill:#b7b7b7"/><polygon points="1246.58 2070.9 1246.58 2077.81 1264.26 2077.81 1264.26 2070.9 1352.01 2070.9 1352.01 2051.89 1264.26 2051.89 1246.58 2051.89 1135.29 2051.89 1135.29 2070.9 1246.58 2070.9" style="fill:#b7b7b7"/><polygon points="4482.42 2070.9 4482.42 2077.81 4500.02 2077.81 4500.02 2070.9 4811.94 2070.9 4811.94 2051.89 4500.02 2051.89 4482.42 2051.89 4397.29 2051.89 4397.29 2070.9 4482.42 2070.9" style="fill:#b7b7b7"/><polygon points="998.39 2070.9 998.39 2077.81 1015.99 2077.81 1015.99 2070.9 1044.92 2070.9 1044.92 2051.89 1015.99 2051.89 998.39 2051.89 913.81 2051.89 913.81 2070.9 998.39 2070.9" style="fill:#b7b7b7"/><polygon points="1994.01 2070.9 1994.01 2077.81 2011.69 2077.81 2011.69 2070.9 2351.91 2070.9 2351.91 2051.89 2011.69 2051.89 1994.01 2051.89 1907.37 2051.89 1907.37 2070.9 1994.01 2070.9" style="fill:#b7b7b7"/><polygon points="517.39 1280.14 517.39 1248.51 499.71 1248.51 499.71 1280.14 175.5 1280.14 175.5 1299.16 499.71 1299.16 517.39 1299.16 1028.28 1299.16 1028.28 1280.14 517.39 1280.14" style="fill:#b7b7b7"/><path d="M35.83,2599.21H5499.92V742.71H3752.59V572.35H3101.48V723.7H0V2599.21Zm5428.34-38.54h-490v-29.93h408.79V2070.9h81.33v489.77ZM3735,781.25v499H3582.48v-499Zm-232.26,377.48V610.89h214V762.24h-152v517.9h-62.07ZM35.83,2070.9H314.54v-19H35.83V1299.16H91.48v-19H35.83V762.24H499.71v396h17.68v-396h729.27v517.9H1112.38v19h226.87v-19h-74.91V762.24H2483.1v517.9H2189.89v19H2483.1v5.2h17.68V762.24h478.31v42.55h17.67V762.24h140.71V610.89h194.76v15.52h17.68V610.89H3485.3V810H3349.75V703.49h-17.68V839.32h17.68V829h135.39v95.5H3349.75v-8h-17.68v8H2996.61v-23h-17.68v63.26h17.68V943.43h335.46v12.7h17.68V943.51h135.39V1139.8H3349.75V1033.3h-17.68V1172h17.68v-13.3h135.39v121.41H3349.75v-31h-17.68v31H2996.61V1061.52h-17.68V1305h17.68v-5.8H4246.44v148.45h-73.32v19h73.32v370.05h-73.32v19h73.32v55.85h17.68v-55.85H4391v-19H4264.12V1466.62H4391v-19H4264.12v-204.3h-17.68v36.83H3752.59v-499h493.85v370.05h17.68V781.17H5464.17V2051.89H5358.74v19h6.42v440.83H4974.05V2070.9h244v299.28h17.68V2070.9h6.42v-19H4897.56v19h58.81v489.77H4500V2169.89h-17.68v390.78H4264V2070.9h47.64v-19H4264v-42.55h-17.68v42.55h-68.49v19h68.49v489.77H4004.51V2070.9h87.75v-19H3935.47v19h51.36v489.77H3752.51V2169.89H3735v390.78H3257.16V2070.9h54.54v-19H3164v19h75.47v489.77h-243V2070.9H3072v-19h-75.46v-17.23h-17.68v526H2500.54v-526h-17.68v17.23H2442.2v19h40.66v489.77H2011.69V2169.89H1994v390.78H1761.83V2070.9h55.09v-19H1657.51v19h86.65v489.77H1512.53V2070.9h54.54v-19H1442.38v19h52.4v489.77h-230.6V2169.89H1246.5v390.78H1015.91V2169.89H998.23v390.78H763.36V2070.9H827v-19H401.18v19H745.76v489.77H35.83Z" style="fill:#b7b7b7"/><rect x="1423.2" y="1280.14" width="682.66" height="19.01" style="fill:#b7b7b7"/></g></g></svg>