<svg id="Livello_1" data-name="Livello 1" xmlns="http://www.w3.org/2000/svg" xmlns:xlink="http://www.w3.org/1999/xlink" viewBox="0 0 5500 2026.86"><defs><pattern id="locale_tecnico-15_1_" data-name="locale tecnico-15 1 " width="38.5" height="38.5" patternTransform="translate(-16729.49 -22398.34) rotate(180) scale(0.53 0.57)" patternUnits="userSpaceOnUse" viewBox="0 0 38.5 38.5"><rect width="38.5" height="38.5" style="fill:none"/><rect width="38.5" height="38.5" style="fill:none"/><rect width="38.5" height="38.5" style="fill:none"/><rect width="38.5" height="38.5" style="fill:none"/><rect width="38.5" height="38.5" style="fill:none"/><rect width="38.5" height="38.5" style="fill:none"/><rect width="38.5" height="38.5" style="fill:none"/><rect width="38.5" height="38.5" style="fill:none"/><rect width="38.5" height="38.5" style="fill:none"/><rect x="35.8" y="35.1" width="40.5" height="39.2" style="fill:#f2f2f2"/><line x1="38.5" y1="38.5" x2="77" y2="77" style="fill:none;stroke:#ddd;stroke-linecap:square;stroke-linejoin:round;stroke-width:20px"/><rect x="-2.7" y="35.1" width="40.5" height="39.2" style="fill:#f2f2f2"/><line y1="38.5" x2="38.5" y2="77" style="fill:none;stroke:#ddd;stroke-linecap:square;stroke-linejoin:round;stroke-width:20px"/><line x1="-38.5" y1="38.5" y2="77" style="fill:none;stroke:#ddd;stroke-linecap:square;stroke-linejoin:round;stroke-width:20px"/><rect x="35.8" y="-3.4" width="40.5" height="39.2" style="fill:#f2f2f2"/><line x1="38.5" x2="77" y2="38.5" style="fill:none;stroke:#ddd;stroke-linecap:square;stroke-linejoin:round;stroke-width:20px"/><rect x="-2.7" y="-3.4" width="40.5" height="39.2" style="fill:#f2f2f2"/><line x2="38.5" y2="38.5" style="fill:none;stroke:#ddd;stroke-linecap:square;stroke-linejoin:round;stroke-width:20px"/><line x1="-38.5" y2="38.5" style="fill:none;stroke:#ddd;stroke-linecap:square;stroke-linejoin:round;stroke-width:20px"/><line x1="38.5" y1="-38.5" x2="77" style="fill:none;stroke:#ddd;stroke-linecap:square;stroke-linejoin:round;stroke-width:20px"/><line y1="-38.5" x2="38.5" style="fill:none;stroke:#ddd;stroke-linecap:square;stroke-linejoin:round;stroke-width:20px"/><line x1="-38.5" y1="-38.5" style="fill:none;stroke:#ddd;stroke-linecap:square;stroke-linejoin:round;stroke-width:20px"/></pattern></defs><g id="D1-floor4"><g id="background"><polygon points="35.83 2026.86 5464.17 2026.86 5500 2026.86 5500 1988.32 5500 208.9 5500 170.36 5464.17 170.36 4246.44 170.36 3752.59 170.36 3752.59 38.54 3752.59 0 3716.76 0 3137.39 0 3101.48 0 3101.48 38.54 3101.48 151.35 2996.61 151.35 35.83 151.35 0 151.35 0 189.89 0 1988.32 0 2026.86 35.83 2026.86" style="fill:#f2f2f2"/><polygon id="_tracciato_20" data-name=" tracciato 20" points="4264.12 707.79 4264.12 208.9 5464.17 208.9 5464.17 1479.54 5382.84 1479.54 5365.16 1479.54 5235.72 1479.54 5218.04 1479.54 4974.05 1479.54 4956.45 1479.54 4500.02 1479.54 4482.42 1479.54 4264.12 1479.54 4264.12 1283.34 5022.25 1283.34 5039.84 1283.34 5039.84 1264.32 5039.84 894.27 5039.84 875.34 5022.25 875.34 4264.12 875.34 4264.12 726.81 4264.12 707.79" style="fill:#ddd"/></g><g id="rooms"><rect id="locale_tecnico-15" data-name="locale tecnico-15" x="211.89" y="882.76" width="55.09" height="384.46" style="fill:url(#locale_tecnico-15_1_)"/><polygon id="locale_tecnico-16" data-name="locale tecnico-16" points="4974.05 1988.32 4974.05 1958.39 5365.16 1958.39 5382.84 1958.39 5382.84 1939.38 5382.84 1498.55 5464.17 1498.55 5464.17 1988.32 4974.05 1988.32" style="fill:url(#locale_tecnico-15_1_)"/><polygon id="locale_tecnico-17" data-name="locale tecnico-17" points="2996.61 927.7 2996.61 882.76 3395.96 882.76 3395.96 1267.22 2996.61 1267.22 2996.61 1220.58 3303.77 1220.58 3321.37 1220.58 3321.37 1201.57 3321.37 946.62 3321.37 927.7 3303.77 927.7 2996.61 927.7" style="fill:url(#locale_tecnico-15_1_)"/><polygon id="locale_tecnico-18" data-name="locale tecnico-18" points="439.23 927.7 439.23 882.76 975.88 882.76 975.88 1267.22 439.23 1267.22 439.23 1220.58 836.29 1220.58 853.89 1220.58 853.89 1201.57 853.89 946.62 853.89 927.7 836.29 927.7 439.23 927.7" style="fill:url(#locale_tecnico-15_1_)"/><polygon id="locale_tecnico-19" data-name="locale tecnico-19" points="1995.6 1267.22 1995.6 882.76 2078.04 882.76 2078.04 1216.58 2078.04 1235.59 2095.63 1235.59 2483.02 1235.59 2483.02 1267.22 1995.6 1267.22" style="fill:url(#locale_tecnico-15_1_)"/><polygon id="locale_tecnico-20" data-name="locale tecnico-20" points="3502.74 237.64 3502.74 38.54 3716.76 38.54 3716.76 170.36 3716.76 189.89 3582.48 189.89 3564.81 189.89 3564.81 208.9 3564.81 707.79 3502.74 707.79 3502.74 586.37 3502.74 567.45 3502.74 371.16 3502.74 352.15 3502.74 256.65 3502.74 237.64" style="fill:url(#locale_tecnico-15_1_)"/><rect id="senza_codice" data-name="senza codice" x="3349.75" y="371.16" width="135.39" height="196.2" style="fill:#f2f2f2"/><rect id="senza_codice-2" data-name="senza codice-2" x="3349.75" y="586.38" width="135.39" height="121.42" style="fill:#f2f2f2"/><rect id="senza_codice-3" data-name="senza codice-3" x="3349.75" y="256.65" width="135.39" height="95.5" style="fill:#f2f2f2"/><rect id="senza_codice-4" data-name="senza codice-4" x="3349.75" y="38.54" width="135.39" height="199.1" style="fill:#f2f2f2"/><polygon id="senza_codice-5" data-name="senza codice-5" points="2996.61 863.83 2996.61 726.81 3332.07 726.81 3349.75 726.81 3485.14 726.81 3502.74 726.81 3564.81 726.81 3582.48 726.81 3735 726.81 3752.59 726.81 4246.44 726.81 4246.44 875.34 3753.15 875.34 3735.47 875.34 3735.47 894.27 3735.47 1264.32 3735.47 1283.34 3753.15 1283.34 4246.44 1283.34 4246.44 1479.54 4004.59 1479.54 3986.99 1479.54 3752.59 1479.54 3735 1479.54 3257.16 1479.54 3239.57 1479.54 2996.61 1479.54 2996.61 1286.24 3395.96 1286.24 3413.64 1286.24 3413.64 1267.22 3413.64 882.76 3413.64 863.83 3395.96 863.83 2996.61 863.83" style="fill:#f2f2f2"/><g class="clickable" id="D1-4E-20" data-name="customclass D1-4E-20"><rect id="_tracciato_" data-name=" tracciato " x="35.83" y="189.89" width="463.88" height="517.91" style="fill:#ddd"/></g><g class="clickable" id="D1-4E-20-2" data-name="customclass D1-4E-20-2"><rect id="tracciato" x="1131.33" y="1325.72" width="220.76" height="105.99" style="fill:#f2f2f2"/></g><g class="clickable" id="D1-4E-18" data-name="customclass D1-4E-18"><rect id="_tracciato_3" data-name=" tracciato 3" x="517.39" y="189.89" width="729.2" height="517.91" style="fill:#ddd"/></g><g class="clickable" id="D1-4E-14" data-name="customclass D1-4E-14"><rect id="_tracciato_4" data-name=" tracciato 4" x="1264.26" y="189.89" width="1218.76" height="517.91" style="fill:#ddd"/></g><g class="clickable" id="D1-4E-11" data-name="customclass D1-4E-11"><rect id="_tracciato_6" data-name=" tracciato 6" x="993.56" y="882.76" width="253.11" height="384.46" style="fill:#ddd"/></g><g class="clickable" id="D1-4E-10" data-name="customclass D1-4E-10"><rect id="_tracciato_7" data-name=" tracciato 7" x="1264.26" y="882.76" width="479.89" height="384.46" style="fill:#ddd"/></g><g class="clickable" id="D1-4E-08" data-name="customclass D1-4E-08"><rect id="_tracciato_8" data-name=" tracciato 8" x="35.83" y="1498.55" width="709.93" height="489.77" style="fill:#ddd"/></g><g class="clickable" id="D1-4E-07" data-name="customclass D1-4E-07"><rect id="_tracciato_9" data-name=" tracciato 9" x="763.52" y="1498.55" width="234.87" height="489.77" style="fill:#ddd"/></g><g class="clickable" id="D1-4E-06" data-name="customclass D1-4E-06"><rect id="_tracciato_10" data-name=" tracciato 10" x="1015.99" y="1498.55" width="230.59" height="489.77" style="fill:#ddd"/></g><g class="clickable" id="D1-4E-05" data-name="customclass D1-4E-05"><rect id="_tracciato_11" data-name=" tracciato 11" x="1264.26" y="1498.55" width="230.59" height="489.77" style="fill:#ddd"/></g><g class="clickable" id="D1-4E-04" data-name="customclass D1-4E-04"><rect id="_tracciato_12" data-name=" tracciato 12" x="1512.53" y="1498.55" width="231.62" height="489.77" style="fill:#ddd"/></g><g class="clickable" id="D1-4E-03" data-name="customclass D1-4E-03"><rect id="_tracciato_13" data-name=" tracciato 13" x="1761.83" y="1498.55" width="232.18" height="489.77" style="fill:#ddd"/></g><g class="clickable" id="D1-4E-02" data-name="customclass D1-4E-02"><rect id="_tracciato_14" data-name=" tracciato 14" x="2011.69" y="1498.55" width="471.33" height="489.77" style="fill:#ddd"/></g><g class="clickable" id="D1-4C-01" data-name="customclass D1-4C-01"><polygon id="_tracciato_15" data-name=" tracciato 15" points="2530.35 863.83 2530.35 726.81 2530.35 707.79 2530.35 189.89 2979.01 189.89 2979.01 352.15 2979.01 371.16 2979.01 707.79 2979.01 726.81 2979.01 863.83 2979.01 882.76 2979.01 927.7 2979.01 946.62 2979.01 1201.57 2979.01 1220.58 2979.01 1267.22 2979.01 1286.24 2979.01 1479.54 2979.01 1498.55 2979.01 1988.32 2530.35 1988.32 2530.35 1498.55 2530.35 1479.54 2530.35 1286.24 2530.35 863.83" style="fill:#f2f2f2"/></g><g class="clickable" id="D1-4W-21" data-name="customclass D1-4W-21"><polygon id="_tracciato_16" data-name=" tracciato 16" points="2996.61 707.79 2996.61 371.16 3332.07 371.16 3332.07 567.45 3332.07 586.37 3332.07 707.79 2996.61 707.79" style="fill:#f2f2f2"/></g><g class="clickable" id="D1-4W-20" data-name="customclass D1-4W-20"><polygon id="_tracciato_17" data-name=" tracciato 17" points="2996.61 352.15 2996.61 189.89 3101.48 189.89 3137.39 189.89 3137.39 151.35 3137.39 38.54 3332.07 38.54 3332.07 237.64 3332.07 256.65 3332.07 352.15 2996.61 352.15" style="fill:#f2f2f2"/></g><g class="clickable" id="D1-4W-19" data-name="customclass D1-4W-19"><polygon id="_tracciato_18" data-name=" tracciato 18" points="3582.48 707.79 3582.48 208.9 3716.76 208.9 3735 208.9 3735 707.79 3582.48 707.79" style="fill:url(#locale_tecnico-15_1_)"/></g><g class="clickable" id="D1-4W-15" data-name="customclass D1-4W-15"><polygon id="_tracciato_19" data-name=" tracciato 19" points="3752.59 707.79 3752.59 208.9 3783.67 208.9 4246.44 208.9 4246.44 707.79 3752.59 707.79" style="fill:#ddd"/></g><g class="clickable" id="D1-4W-14" data-name="customclass D1-4W-14"><rect x="4264.12" y="208.9" width="1200.05" height="654.93" style="fill:none"/></g><g class="clickable" id="D1-4W-11" data-name="customclass D1-4W-11"><rect id="_tracciato_21" data-name=" tracciato 21" x="3753.15" y="894.27" width="493.29" height="370.05" style="fill:#ddd"/></g><g class="clickable" id="D1-4W-09" data-name="customclass D1-4W-09"><rect id="_tracciato_22" data-name=" tracciato 22" x="4264.12" y="894.27" width="758.13" height="370.05" style="fill:#ddd"/></g><g class="clickable" id="D1-4W-07" data-name="customclass D1-4W-07"><rect id="_tracciato_23" data-name=" tracciato 23" x="4004.59" y="1498.55" width="241.85" height="489.77" style="fill:#ddd"/></g><g class="clickable" id="D1-4W-06" data-name="customclass D1-4W-06"><rect id="_tracciato_24" data-name=" tracciato 24" x="2996.61" y="1498.55" width="242.88" height="489.77" style="fill:#ddd"/></g><g class="clickable" id="D1-4W-05" data-name="customclass D1-4W-05"><polygon id="_tracciato_25" data-name=" tracciato 25" points="3257.16 1988.32 3257.16 1498.55 3735 1498.55 3735 1956.68 3735 1965.89 3735 1988.32 3257.16 1988.32" style="fill:#ddd"/></g><g class="clickable" id="D1-4W-04" data-name="customclass D1-4W-04"><polygon id="_tracciato_26" data-name=" tracciato 26" points="3752.59 1956.68 3752.59 1498.55 3986.99 1498.55 3986.99 1988.32 3752.59 1988.32 3752.59 1965.89 3752.59 1956.68" style="fill:#ddd"/></g><g class="clickable" id="D1-4W-03" data-name="customclass D1-4W-03"><rect id="_tracciato_27" data-name=" tracciato 27" x="4264.12" y="1498.55" width="218.31" height="489.77" style="fill:#ddd"/></g><g class="clickable" id="D1-4W-02" data-name="customclass D1-4W-02"><polygon id="_tracciato_28" data-name=" tracciato 28" points="4500.02 1988.32 4500.02 1498.55 4956.45 1498.55 4956.45 1939.38 4956.45 1958.39 4956.45 1988.32 4500.02 1988.32" style="fill:#ddd"/></g><g class="clickable" id="D1-4-STAIR-C" data-name="customclass D1-4-STAIR-C"><g id="scala3"><polygon points="5109.36 1818.81 5105.4 1818.81 5105.4 1602.4 5082.81 1602.4 5082.81 1796.98 4970.88 1796.98 4970.88 1494.54 4974.84 1494.54 4974.84 1792.72 5078.84 1792.72 5078.84 1598.14 5109.36 1598.14 5109.36 1818.81" style="fill:#b7b7b7"/><polygon points="5166.6 1793.23 5162.63 1793.23 5162.63 1550.56 5030.49 1550.56 5030.49 1638.39 5026.53 1638.39 5026.53 1546.3 5166.6 1546.3 5166.6 1793.23" style="fill:#b7b7b7"/><rect x="5106.51" y="1598.14" width="112.32" height="4.26" style="fill:#b7b7b7"/><rect x="5106.51" y="1622.78" width="112.32" height="4.26" style="fill:#b7b7b7"/><rect x="4971.12" y="1598.14" width="109.71" height="4.26" style="fill:#b7b7b7"/><rect x="5050.07" y="1647.34" width="30.76" height="4.26" style="fill:#b7b7b7"/><polygon points="5109.52 1824.95 5078.77 1824.95 5078.77 1795.62 5082.73 1795.62 5082.73 1820.68 5105.56 1820.68 5105.56 1746.08 5109.52 1746.08 5109.52 1824.95" style="fill:#b7b7b7"/><rect x="5106.51" y="1719.73" width="112.32" height="4.26" style="fill:#b7b7b7"/><rect x="5106.51" y="1671.04" width="112.32" height="4.26" style="fill:#b7b7b7"/><rect x="5106.51" y="1695.43" width="112.32" height="4.26" style="fill:#b7b7b7"/><rect x="5106.51" y="1646.74" width="112.32" height="4.26" style="fill:#b7b7b7"/><rect x="5106.51" y="1744.03" width="112.32" height="4.26" style="fill:#b7b7b7"/><rect x="5106.51" y="1768.42" width="112.32" height="4.26" style="fill:#b7b7b7"/><rect x="5106.51" y="1792.72" width="112.32" height="4.26" style="fill:#b7b7b7"/><polygon points="5164.51 1797 5144.32 1771.51 5147.34 1768.74 5164.55 1790.48 5181.83 1769.23 5184.81 1772.04 5164.51 1797" style="fill:#b7b7b7"/><polygon points="5079.26 1665.08 4971.69 1616.13 4973.24 1612.21 5080.8 1661.15 5079.26 1665.08" style="fill:#b7b7b7"/><rect x="4996.8" y="1622.78" width="83.71" height="4.26" style="fill:#b7b7b7"/></g><polygon id="_tracciato_29" data-name=" tracciato 29" points="4974.05 1939.38 4974.05 1498.55 5218.04 1498.55 5218.04 1791.53 5235.72 1791.53 5235.72 1498.55 5365.16 1498.55 5365.16 1939.38 4974.05 1939.38" style="fill:none"/></g><g class="clickable" id="D1-4-STAIR-B" data-name="customclass D1-4-STAIR-B"><g id="scala1"><polygon points="845.33 1206.26 505.1 1206.26 505.1 1084.58 754.32 1084.58 754.32 1060.62 507.08 1060.62 507.08 1056.36 758.29 1056.36 758.29 1088.85 509.07 1088.85 509.07 1202 845.33 1202 845.33 1206.26" style="fill:#b7b7b7"/><polygon points="786.19 1149.64 451.04 1149.64 451.04 1145.38 782.23 1145.38 782.23 1005.12 627.34 1005.12 627.34 1000.85 786.19 1000.85 786.19 1149.64" style="fill:#b7b7b7"/><rect x="705.65" y="1085.78" width="3.96" height="119.29" style="fill:#b7b7b7"/><rect x="728.8" y="1085.78" width="3.96" height="119.29" style="fill:#b7b7b7"/><rect x="683.06" y="1085.78" width="3.96" height="119.29" style="fill:#b7b7b7"/><rect x="728.8" y="943.9" width="3.96" height="114.6" style="fill:#b7b7b7"/><rect x="705.65" y="944.32" width="3.96" height="114.17" style="fill:#b7b7b7"/><rect x="660.47" y="943.9" width="3.96" height="114.6" style="fill:#b7b7b7"/><rect x="638.51" y="969.65" width="3.96" height="88.85" style="fill:#b7b7b7"/><rect x="616.32" y="1026.35" width="3.96" height="31.12" style="fill:#b7b7b7"/><polygon points="573.91 1089.02 419.1 1089.02 419.1 1056.36 528.41 1056.36 528.41 1060.62 423.06 1060.62 423.06 1084.76 573.91 1084.76 573.91 1089.02" style="fill:#b7b7b7"/><rect x="594.12" y="1085.78" width="3.96" height="119.29" style="fill:#b7b7b7"/><rect x="638.75" y="1085.78" width="3.96" height="119.29" style="fill:#b7b7b7"/><rect x="616.4" y="1085.78" width="3.96" height="119.29" style="fill:#b7b7b7"/><rect x="661.02" y="1085.78" width="3.96" height="119.29" style="fill:#b7b7b7"/><rect x="571.77" y="1085.78" width="3.96" height="119.29" style="fill:#b7b7b7"/><rect x="549.41" y="1085.78" width="3.96" height="119.29" style="fill:#b7b7b7"/><rect x="527.14" y="1085.78" width="3.96" height="119.29" style="fill:#b7b7b7"/><rect x="476.33" y="1085.78" width="3.96" height="119.29" style="fill:#b7b7b7"/><rect x="449.06" y="943.9" width="3.96" height="114.6" style="fill:#b7b7b7"/><rect x="449.06" y="1085.78" width="3.96" height="119.29" style="fill:#b7b7b7"/><polygon points="471.13 1168.98 448.25 1147.31 471.63 1125.85 474.2 1129.09 454.3 1147.36 473.75 1165.78 471.13 1168.98" style="fill:#b7b7b7"/><polygon points="607.6 1058.47 603.95 1056.81 648.89 942.64 652.54 944.3 607.6 1058.47" style="fill:#b7b7b7"/><rect x="683.06" y="946.37" width="3.96" height="111.87" style="fill:#b7b7b7"/><rect x="507.08" y="941.76" width="338.24" height="4.26" style="fill:#b7b7b7"/></g><polygon id="_tracciato_5" data-name=" tracciato 5" points="284.65 1267.22 284.65 882.76 421.63 882.76 421.63 927.7 421.63 946.62 439.23 946.62 836.29 946.62 836.29 1201.57 439.23 1201.57 421.63 1201.57 421.63 1220.58 421.63 1267.22 284.65 1267.22" style="fill:none"/></g><g class="clickable" id="D1-4-LIFT-A" data-name="customclass D1-4-LIFT-A"><rect id="a" x="2996.61" y="946.62" width="307.09" height="254.95" style="fill:#f2f2f2"/></g><g class="clickable" id="D1-4-STAIR-A" data-name="customclass D1-4-STAIR-A"><g id="scala2"><polygon points="2429.83 1222.12 2090.88 1222.12 2090.88 1217.85 2425.87 1217.85 2425.87 1072.65 2203.6 1072.65 2203.6 1031.55 2496.58 1031.55 2496.58 882.68 2090.88 882.68 2090.88 878.41 2500.54 878.41 2500.54 1035.81 2207.56 1035.81 2207.56 1068.38 2429.83 1068.38 2429.83 1222.12" style="fill:#b7b7b7"/><polygon points="2498 1145.12 2149.14 1145.12 2149.14 958.65 2316.64 958.65 2316.64 962.91 2153.11 962.91 2153.11 1140.86 2498 1140.86 2498 1145.12" style="fill:#b7b7b7"/><rect x="2203.6" y="879.35" width="3.96" height="155.61" style="fill:#b7b7b7"/><rect x="2228.65" y="881.31" width="3.96" height="153.65" style="fill:#b7b7b7"/><rect x="2203.6" y="1070.52" width="3.96" height="149.47" style="fill:#b7b7b7"/><rect x="2228.65" y="1070.52" width="3.96" height="149.47" style="fill:#b7b7b7"/><rect x="2253.7" y="1070.52" width="3.96" height="149.47" style="fill:#b7b7b7"/><rect x="2278.03" y="1070.52" width="3.96" height="149.47" style="fill:#b7b7b7"/><rect x="2302.69" y="1070.52" width="3.96" height="149.47" style="fill:#b7b7b7"/><rect x="2377.83" y="1070.52" width="3.96" height="149.47" style="fill:#b7b7b7"/><rect x="2401.45" y="1070.52" width="3.96" height="149.47" style="fill:#b7b7b7"/><rect x="2496.58" y="1070.52" width="3.96" height="149.47" style="fill:#b7b7b7"/><polygon points="2483.08 1161.98 2480.27 1158.96 2494.98 1143.14 2480.25 1126.83 2483.1 1123.86 2500.55 1143.18 2483.08 1161.98" style="fill:#b7b7b7"/><polygon points="2500.54 1072.65 2404.23 1072.65 2404.23 1068.38 2496.58 1068.38 2496.58 1035.56 2353.81 1035.56 2353.81 1031.29 2500.54 1031.29 2500.54 1072.65" style="fill:#b7b7b7"/><rect x="2327.26" y="1011.43" width="3.96" height="23.53" style="fill:#b7b7b7"/><rect x="2277.79" y="879.35" width="3.96" height="155.61" style="fill:#b7b7b7"/><rect x="2302.53" y="913.28" width="3.96" height="121.67" style="fill:#b7b7b7"/><rect x="2253.06" y="879.35" width="3.96" height="155.61" style="fill:#b7b7b7"/><rect x="2326.94" y="1070.52" width="3.96" height="149.47" style="fill:#b7b7b7"/><rect x="2352.31" y="1070.52" width="3.96" height="149.47" style="fill:#b7b7b7"/><rect x="2472.72" y="1070.52" width="3.96" height="149.47" style="fill:#b7b7b7"/><rect x="2449.17" y="1070.52" width="3.96" height="149.47" style="fill:#b7b7b7"/><polygon points="2333.27 1034.66 2294.67 880.16 2298.5 879.05 2337.1 1033.55 2333.27 1034.66" style="fill:#b7b7b7"/></g><g id="a-2"><rect x="2095.63" y="882.76" width="410.61" height="332.62" style="fill:none"/></g></g></g><g id="walls"><path d="M421.63,1455.11V1519H836.29v255H421.63v65.57H409.35v19h638.27v-19H993.56V1455h34.8v-19h-619v19h12.28Zm17.6,0H975.88v384.46H439.23v-46.64H853.89V1500H439.23Z" transform="translate(0 -572.35)" style="fill:#b7b7b7"/><path d="M284.65,1839.57V1455.11h8v-19H194.21v422.4h98.45v-19h-8Zm-17.67,0H211.89V1455.11H267Z" transform="translate(0 -572.35)" style="fill:#b7b7b7"/><polygon points="1744.16 882.76 1744.16 1267.22 1431.76 1267.22 1431.76 1286.24 1744.16 1286.24 1761.83 1286.24 1761.83 1267.22 1761.83 882.76 1761.83 863.83 1744.16 863.83 1423.2 863.83 1423.2 882.76 1744.16 882.76" style="fill:#b7b7b7"/><polygon points="1246.58 882.76 1246.58 1267.22 1131.57 1267.22 1131.57 1286.24 1246.58 1286.24 1264.26 1286.24 1347.73 1286.24 1347.73 1267.22 1264.26 1267.22 1264.26 882.76 1339.17 882.76 1339.17 863.83 1264.26 863.83 1246.58 863.83 1112.3 863.83 1112.3 882.76 1246.58 882.76" style="fill:#b7b7b7"/><polygon points="3735 1498.55 3735 1505.46 3752.59 1505.46 3752.59 1498.55 3850.02 1498.55 3850.02 1479.54 3752.59 1479.54 3735 1479.54 3403.81 1479.54 3403.81 1498.55 3735 1498.55" style="fill:#b7b7b7"/><polygon points="3753.15 1264.32 3753.15 894.27 4087.59 894.27 4087.59 875.34 3753.15 875.34 3735.47 875.34 3735.47 894.27 3735.47 1264.32 3735.47 1283.34 3753.15 1283.34 4087.59 1283.34 4087.59 1264.32 3753.15 1264.32" style="fill:#b7b7b7"/><path d="M2500.7,1858.59v-69.66h-405V1455.11h405v-24.73H2483v5.8H1977.9v422.41h505v5.2h17.68Zm-17.68-19H1995.6V1455.11H2078v352.75h405v31.71Z" transform="translate(0 -572.35)" style="fill:#b7b7b7"/><polygon points="5022.25 894.27 5022.25 1264.32 4476.48 1264.32 4476.48 1283.34 5022.25 1283.34 5039.84 1283.34 5039.84 1264.32 5039.84 894.27 5039.84 875.34 5022.25 875.34 4476.48 875.34 4476.48 894.27 5022.25 894.27" style="fill:#b7b7b7"/><path d="M2996.61,1858.59h417V1436.18h-417v-6.31h-17.68v89.19h324.84V1774H3013.25v.6H2979v100.1h17.68Zm0-65.66h324.76V1500H2996.61v-44.85H3396v384.47H2996.61Z" transform="translate(0 -572.35)" style="fill:#b7b7b7"/><polygon points="1246.58 1498.55 1246.58 1505.46 1264.26 1505.46 1264.26 1498.55 1352.01 1498.55 1352.01 1479.54 1264.26 1479.54 1246.58 1479.54 1135.29 1479.54 1135.29 1498.55 1246.58 1498.55" style="fill:#b7b7b7"/><polygon points="4482.42 1498.55 4482.42 1505.46 4500.02 1505.46 4500.02 1498.55 4811.94 1498.55 4811.94 1479.54 4500.02 1479.54 4482.42 1479.54 4397.29 1479.54 4397.29 1498.55 4482.42 1498.55" style="fill:#b7b7b7"/><polygon points="998.39 1498.55 998.39 1505.46 1015.99 1505.46 1015.99 1498.55 1044.92 1498.55 1044.92 1479.54 1015.99 1479.54 998.39 1479.54 913.81 1479.54 913.81 1498.55 998.39 1498.55" style="fill:#b7b7b7"/><polygon points="1994.01 1498.55 1994.01 1505.46 2011.69 1505.46 2011.69 1498.55 2351.91 1498.55 2351.91 1479.54 2011.69 1479.54 1994.01 1479.54 1907.37 1479.54 1907.37 1498.55 1994.01 1498.55" style="fill:#b7b7b7"/><polygon points="517.39 707.79 517.39 676.16 499.71 676.16 499.71 707.79 175.5 707.79 175.5 726.81 499.71 726.81 517.39 726.81 1028.28 726.81 1028.28 707.79 517.39 707.79" style="fill:#b7b7b7"/><path d="M35.83,2599.21H5499.92V742.71H3752.59V572.35H3101.48V723.7H0V2599.21Zm5428.34-38.54h-490v-29.93H5383V2070.9h81.33v489.77ZM3735,781.25v499H3582.48v-499Zm-232.26,377.48V610.89h214V762.24h-152v517.9h-62.07ZM35.83,2070.9H314.54v-19H35.83V1299.16H91.48v-19H35.83V762.24H499.71v396h17.68v-396h729.27v517.9H1112.38v19h226.87v-19h-74.91V762.24H2483.1v517.9H2189.89v19H2483.1v5.2h17.68V762.24h478.31v42.55h17.67V762.24h140.71V610.89h194.76v15.52h17.68V610.89H3485.3V810H3349.75V703.49h-17.68V839.32h17.68V829h135.39v95.5H3349.75v-8h-17.68v8H2996.61v-23h-17.68v63.26h17.68V943.43h335.46v12.7h17.68V943.51h135.39V1139.8H3349.75V1033.3h-17.68V1172h17.68v-13.3h135.39v121.41H3349.75v-31h-17.68v31H2996.61V1061.52h-17.68V1305h17.68v-5.8H4246.44v148.45h-73.32v19h73.32v370h-73.32v19h73.32v55.85h17.68V1855.7H4391v-19H4264.12V1466.62H4391v-19H4264.12v-204.3h-17.68v36.83H3752.59v-499h493.85V1151.2h17.68v-370H5464.17V2051.89H5358.74v19h6.42v440.83H4974.05V2070.9h244v299.28h17.68V2070.9h6.42v-19H4897.56v19h58.81v489.77H4500V2169.89h-17.68v390.78H4264V2070.9h47.64v-19H4264v-42.55h-17.68v42.55h-68.49v19h68.49v489.77H4004.51V2070.9h87.75v-19H3935.47v19h51.36v489.77H3752.51V2169.89H3735v390.78H3257.16V2070.9h54.54v-19H3164v19h75.47v489.77h-243V2070.9H3072v-19h-75.46v-17.23h-17.68v526H2500.54v-526h-17.68v17.23H2442.2v19h40.66v489.77H2011.69V2169.89H1994v390.78H1761.83V2070.9h55.09v-19H1657.51v19h86.65v489.77H1512.53V2070.9h54.54v-19H1442.38v19h52.4v489.77h-230.6V2169.89H1246.5v390.78H1015.91V2169.89H998.23v390.78H763.36V2070.9H827v-19H401.18v19H745.76v489.77H35.83Z" transform="translate(0 -572.35)" style="fill:#b7b7b7"/><rect x="1423.2" y="707.79" width="682.66" height="19.01" style="fill:#b7b7b7"/></g></g></svg>