<?xml version="1.0" encoding="UTF-8"?><svg xmlns="http://www.w3.org/2000/svg" xmlns:xlink="http://www.w3.org/1999/xlink" viewBox="0 0 6393.69 3167.72"><defs><pattern id="locale_tecnico-5_1_" x="0" y="0" width="38.5" height="38.5" patternTransform="translate(576.9895 2614.5142)" patternUnits="userSpaceOnUse" viewBox="0 0 38.5 38.5"><rect width="38.5" height="38.5" style="fill:none;"/><rect width="38.5" height="38.5" style="fill:none;"/><rect width="38.5" height="38.5" style="fill:none;"/><rect width="38.5" height="38.5" style="fill:none;"/><rect width="38.5" height="38.5" style="fill:none;"/><rect width="38.5" height="38.5" style="fill:none;"/><rect width="38.5" height="38.5" style="fill:none;"/><rect width="38.5" height="38.5" style="fill:none;"/><rect width="38.5" height="38.5" style="fill:none;"/><rect width="38.5" height="38.5" style="fill:none;"/><rect x="35.8" y="-35.8" width="40.5" height="39.2" style="fill:#f2f2f2;"/><line x1="38.5" x2="77" y2="-38.5" style="fill:none; stroke:#ddd; stroke-linecap:square; stroke-linejoin:round; stroke-width:20px;"/><rect x="-2.7" y="-35.8" width="40.5" height="39.2" style="fill:#f2f2f2;"/><line x2="38.5" y2="-38.5" style="fill:none; stroke:#ddd; stroke-linecap:square; stroke-linejoin:round; stroke-width:20px;"/><line x1="-38.5" y2="-38.5" style="fill:none; stroke:#ddd; stroke-linecap:square; stroke-linejoin:round; stroke-width:20px;"/><rect x="35.8" y="2.7" width="40.5" height="39.2" style="fill:#f2f2f2;"/><line x1="38.5" y1="38.5" x2="77" style="fill:none; stroke:#ddd; stroke-linecap:square; stroke-linejoin:round; stroke-width:20px;"/><rect x="-2.7" y="2.7" width="40.5" height="39.2" style="fill:#f2f2f2;"/><line y1="38.5" x2="38.5" style="fill:none; stroke:#ddd; stroke-linecap:square; stroke-linejoin:round; stroke-width:20px;"/><line x1="-38.5" y1="38.5" style="fill:none; stroke:#ddd; stroke-linecap:square; stroke-linejoin:round; stroke-width:20px;"/><line x1="38.5" y1="77" x2="77" y2="38.5" style="fill:none; stroke:#ddd; stroke-linecap:square; stroke-linejoin:round; stroke-width:20px;"/><line y1="77" x2="38.5" y2="38.5" style="fill:none; stroke:#ddd; stroke-linecap:square; stroke-linejoin:round; stroke-width:20px;"/><line x1="-38.5" y1="77" y2="38.5" style="fill:none; stroke:#ddd; stroke-linecap:square; stroke-linejoin:round; stroke-width:20px;"/></pattern><pattern id="locale_tecnico-17_1_2" x="0" y="0" width="38.5" height="38.5" patternTransform="translate(576.9895 2614.5142)" patternUnits="userSpaceOnUse" viewBox="0 0 38.5 38.5"><rect width="38.5" height="38.5" style="fill:none;"/><rect width="38.5" height="38.5" style="fill:none;"/><rect width="38.5" height="38.5" style="fill:none;"/><rect width="38.5" height="38.5" style="fill:none;"/><rect width="38.5" height="38.5" style="fill:none;"/><rect width="38.5" height="38.5" style="fill:none;"/><rect width="38.5" height="38.5" style="fill:none;"/><rect width="38.5" height="38.5" style="fill:none;"/><rect width="38.5" height="38.5" style="fill:none;"/><rect width="38.5" height="38.5" style="fill:none;"/><rect x="35.8" y="-35.8" width="40.5" height="39.2" style="fill:#f2f2f2;"/><line x1="38.5" x2="77" y2="-38.5" style="fill:none; stroke:#ddd; stroke-linecap:square; stroke-linejoin:round; stroke-width:20px;"/><rect x="-2.7" y="-35.8" width="40.5" height="39.2" style="fill:#f2f2f2;"/><line x2="38.5" y2="-38.5" style="fill:none; stroke:#ddd; stroke-linecap:square; stroke-linejoin:round; stroke-width:20px;"/><line x1="-38.5" y2="-38.5" style="fill:none; stroke:#ddd; stroke-linecap:square; stroke-linejoin:round; stroke-width:20px;"/><rect x="35.8" y="2.7" width="40.5" height="39.2" style="fill:#f2f2f2;"/><line x1="38.5" y1="38.5" x2="77" style="fill:none; stroke:#ddd; stroke-linecap:square; stroke-linejoin:round; stroke-width:20px;"/><rect x="-2.7" y="2.7" width="40.5" height="39.2" style="fill:#f2f2f2;"/><line y1="38.5" x2="38.5" style="fill:none; stroke:#ddd; stroke-linecap:square; stroke-linejoin:round; stroke-width:20px;"/><line x1="-38.5" y1="38.5" style="fill:none; stroke:#ddd; stroke-linecap:square; stroke-linejoin:round; stroke-width:20px;"/><line x1="38.5" y1="77" x2="77" y2="38.5" style="fill:none; stroke:#ddd; stroke-linecap:square; stroke-linejoin:round; stroke-width:20px;"/><line y1="77" x2="38.5" y2="38.5" style="fill:none; stroke:#ddd; stroke-linecap:square; stroke-linejoin:round; stroke-width:20px;"/><line x1="-38.5" y1="77" y2="38.5" style="fill:none; stroke:#ddd; stroke-linecap:square; stroke-linejoin:round; stroke-width:20px;"/></pattern><pattern id="locale_tecnico-17_1_" x="0" y="0" width="38.5" height="38.5" patternTransform="translate(576.9895 2614.5142)" patternUnits="userSpaceOnUse" viewBox="0 0 38.5 38.5"><rect width="38.5" height="38.5" style="fill:none;"/><rect width="38.5" height="38.5" style="fill:none;"/><rect width="38.5" height="38.5" style="fill:none;"/><rect width="38.5" height="38.5" style="fill:none;"/><rect width="38.5" height="38.5" style="fill:none;"/><rect width="38.5" height="38.5" style="fill:none;"/><rect width="38.5" height="38.5" style="fill:none;"/><rect width="38.5" height="38.5" style="fill:none;"/><rect width="38.5" height="38.5" style="fill:none;"/><rect width="38.5" height="38.5" style="fill:none;"/><rect x="35.8" y="-35.8" width="40.5" height="39.2" style="fill:#f2f2f2;"/><line x1="38.5" x2="77" y2="-38.5" style="fill:none; stroke:#ddd; stroke-linecap:square; stroke-linejoin:round; stroke-width:20px;"/><rect x="-2.7" y="-35.8" width="40.5" height="39.2" style="fill:#f2f2f2;"/><line x2="38.5" y2="-38.5" style="fill:none; stroke:#ddd; stroke-linecap:square; stroke-linejoin:round; stroke-width:20px;"/><line x1="-38.5" y2="-38.5" style="fill:none; stroke:#ddd; stroke-linecap:square; stroke-linejoin:round; stroke-width:20px;"/><rect x="35.8" y="2.7" width="40.5" height="39.2" style="fill:#f2f2f2;"/><line x1="38.5" y1="38.5" x2="77" style="fill:none; stroke:#ddd; stroke-linecap:square; stroke-linejoin:round; stroke-width:20px;"/><rect x="-2.7" y="2.7" width="40.5" height="39.2" style="fill:#f2f2f2;"/><line y1="38.5" x2="38.5" style="fill:none; stroke:#ddd; stroke-linecap:square; stroke-linejoin:round; stroke-width:20px;"/><line x1="-38.5" y1="38.5" style="fill:none; stroke:#ddd; stroke-linecap:square; stroke-linejoin:round; stroke-width:20px;"/><line x1="38.5" y1="77" x2="77" y2="38.5" style="fill:none; stroke:#ddd; stroke-linecap:square; stroke-linejoin:round; stroke-width:20px;"/><line y1="77" x2="38.5" y2="38.5" style="fill:none; stroke:#ddd; stroke-linecap:square; stroke-linejoin:round; stroke-width:20px;"/><line x1="-38.5" y1="77" y2="38.5" style="fill:none; stroke:#ddd; stroke-linecap:square; stroke-linejoin:round; stroke-width:20px;"/></pattern></defs><g id="floor"><polygon points="3328.02 537.04 3328.02 1189.05 2468.61 1189.05 2468.61 896.53 2468.85 635.11 2429.17 635.11 2429.17 537.04 3328.02 537.04" style="fill:#f2f2f2;"/><path d="M4835.31,1189.05l-904.28,1.7,1.55-574.53,904.28-1.7-1.55,574.53ZM5230.95,1208.32,900.66,1383.87l2.54,557.41h-490.08v192.3h2016.04v-191.57l-.91-557.39h3397.62l.8-195.58-576.51-2.01.11-558.82,576.51,2.01-.49-199.66h-2066.12s0,758.47,0,758.47H903.35v36.85h-19.43v-36.85h-470.8l-1.66,194.79,489.2.04ZM2304.78,1942.01v19.27h-1033.25v-577.3l1033.25-.26v558.29Z" style="fill:#f2f2f2;"/><rect x="3327.11" y="966.13" width="193.43" height="222.92" style="fill:#f2f2f2;"/><rect x="3327.11" y="742.57" width="351.07" height="204.28" style="fill:#f2f2f2;"/><polyline points="3567.89 537.04 3567.9 516.63 3678.18 516.63 3678.18 537.04 3678.18 723.29 3327.11 723.82 3327.11 537.57 3567.89 537.04" style="fill:#f2f2f2;"/></g><g id="divisori"><line x1="1034.91" y1="1960.77" x2="1271.53" y2="1960.77" style="fill:none; stroke:#b7b7b7; stroke-miterlimit:10;"/><line x1="5107.32" y1="847.26" x2="5107.32" y2="610.64" style="fill:none; stroke:#b7b7b7; stroke-miterlimit:10;"/></g><g id="stanze_vuote"><polygon id="locale_tecnico-19" points="1290.81 1942.01 1290.81 1383.86 1684.81 1383.86 1707.38 1383.86 1803.06 1383.86 1803.06 1942.01 1290.81 1942.01" style="fill:url(#locale_tecnico-5_1_);"/><polygon id="locale_tecnico-19-2" points="2468.85 1879.07 2468.85 1383.37 2536.46 1383.37 2540.33 1383.37 2556.75 1383.37 2556.75 1879.07 2468.85 1879.07" style="fill:url(#locale_tecnico-17_1_2);"/><polygon id="locale_tecnico-19-3" points="3697.29 946.85 3697.29 710.24 3745.69 710.24 3748.46 710.24 3760.21 710.24 3760.21 946.85 3697.29 946.85" style="fill:url(#locale_tecnico-17_1_2);"/><polygon id="locale_tecnico-19-4" points="646.1 1189.05 646.1 1126.03 829.02 1126.03 839.5 1126.03 883.93 1126.03 883.93 1189.05 646.1 1189.05" style="fill:url(#locale_tecnico-17_1_2);"/><polygon id="locale_tecnico-19-5" points="3567.9 497.36 3567.9 79.67 3652.6 79.67 3657.45 79.67 3678.02 79.67 3678.02 497.36 3567.9 497.36" style="fill:url(#locale_tecnico-17_1_2);"/><polygon id="locale_tecnico-19-6" points="5250.22 1189.05 5250.22 629.92 5299.8 629.92 5302.64 629.92 5314.68 629.92 5314.68 1189.05 5250.22 1189.05" style="fill:url(#locale_tecnico-17_1_);"/><rect x="5589.87" y="629.92" width="238.07" height="403.02" style="fill:url(#locale_tecnico-17_1_);"/><rect x="412.13" y="1539.12" width="214.7" height="402.89" style="fill:url(#locale_tecnico-17_1_2);"/><polygon id="locale_tecnico-19-7" points="3696.67 690.97 3696.67 516.5 3745.52 516.5 3748.32 516.5 3760.18 516.5 3760.18 690.97 3696.67 690.97" style="fill:url(#locale_tecnico-17_1_);"/><polygon id="locale_tecnico-19-8" points="3539.88 1191.37 3539.88 966.13 3709.32 966.13 3719.03 966.13 3760.18 966.13 3760.18 1191.37 3539.88 1191.37" style="fill:url(#locale_tecnico-17_1_);"/><rect x="2468.85" y="537.04" width="252.22" height="119.5" style="fill:url(#locale_tecnico-17_1_2);"/></g><g id="stanze"><rect x="1911.6" y="2096.85" width="481.56" height="553.58" transform="translate(4526.0157 221.2609) rotate(90)" style="fill:#ddd;"/><rect x="1822.34" y="1383.86" width="463.17" height="558.15" style="fill:#ddd;"/><rect x="1455.73" y="537.02" width="404.17" height="652.02" style="fill:#ddd;"/><rect x="1879.34" y="537.04" width="549.82" height="652.01" style="fill:#ddd;"/><rect x="2576.02" y="1383.86" width="751.09" height="495.21" style="fill:#ddd;"/><rect x="3346.38" y="1383.86" width="500.39" height="495.71" style="fill:#ddd;"/><rect x="4363.34" y="1383.86" width="982.16" height="495.21" style="fill:#ddd;"/><polygon points="643.74 1519.84 643.74 1942.01 883.93 1942.01 883.93 1383.35 643.74 1383.35 408.44 1383.35 408.44 1519.84 643.74 1519.84" style="fill:#f2f2f2;"/><polygon points="5571.88 1052.21 5571.88 629.92 5333.95 629.92 5333.95 1189.05 5571.88 1189.05 5826.79 1189.05 5826.79 1052.1 5571.88 1052.21" style="fill:#f2f2f2;"/><polygon points="3760.18 430.57 4842.66 430.57 4842.66 79.67 3697.29 79.67 3697.29 430.57 3697.29 497.36 3760.18 497.36 3760.18 430.57" style="fill:#ddd;"/><rect x="4861.29" y="79.67" width="484.22" height="350.9" style="fill:#ddd;"/><rect x="1132.44" y="537.04" width="304.02" height="652.02" style="fill:#ddd;"/><rect x="3865.4" y="1383.86" width="478.67" height="495.21" style="fill:#ddd;"/><rect x="5364.78" y="1383.86" width="462" height="495.21" style="fill:#ddd;"/><rect x="5364.78" y="79.67" width="462" height="350.9" style="fill:#ddd;"/><rect x="3931.81" y="625.96" width="346.26" height="563.09" style="fill:#ddd;"/><polygon points="1113.15 1106.66 1113.15 536.94 413.13 537.04 413.13 1189.06 626.83 1189.06 626.83 1106.76 751.62 1106.76 751.62 638.05 770.9 638.05 770.9 1106.76 903.2 1106.76 903.2 1189.05 1112.99 1189.05 1113.15 1106.66" style="fill:#ddd;"/><rect x="411.01" y="2132.86" width="701.98" height="481.56" style="fill:#ddd;"/><rect x="1132.27" y="2132.86" width="727.64" height="484.22" style="fill:#ddd;"/></g><g id="garden"><rect x="4297.34" y="629.92" width="520.25" height="559.13" style="fill:#e8ede5;"/></g><g id="muri_interni"><rect x="1112.99" y="2132.86" width="19.28" height="481.56" style="fill:#b7b7b7;"/><rect x="1486.45" y="2132.86" width="19.28" height="378.36" style="fill:#b7b7b7;"/><rect x="765.02" y="1823.1" width="19.28" height="257.1" transform="translate(2726.3009 1176.9951) rotate(90)" style="fill:#b7b7b7;"/><rect x="1860.07" y="2132.86" width="19.28" height="481.79" style="fill:#b7b7b7;"/><rect x="2233.41" y="1937.1" width="19.28" height="372.23" transform="translate(4366.2714 -119.8336) rotate(90)" style="fill:#b7b7b7;"/><rect x="1778.52" y="1435.02" width="19.28" height="1033.25" transform="translate(3739.806 163.49) rotate(90)" style="fill:#b7b7b7;"/><rect x="1436.46" y="537.04" width="19.28" height="652.01" style="fill:#b7b7b7;"/><rect x="1609.95" y="1026.16" width="19.28" height="696.11" transform="translate(2993.8087 -245.3726) rotate(90)" style="fill:#b7b7b7;"/><rect x="1271.53" y="1383.86" width="19.28" height="558.15" style="fill:#b7b7b7;"/><rect x="1803.06" y="1383.86" width="19.28" height="558.15" style="fill:#b7b7b7;"/><rect x="1860.07" y="537.04" width="19.28" height="652.01" style="fill:#b7b7b7;"/><rect x="1107.81" y="1073.79" width="19.28" height="249.86" transform="translate(2316.1714 81.2754) rotate(90)" style="fill:#b7b7b7;"/><rect x="725.62" y="1030.78" width="19.28" height="335.89" transform="translate(-463.4675 1933.9794) rotate(-90)" style="fill:#b7b7b7;"/><rect x="2233.41" y="1012.57" width="19.28" height="372.24" transform="translate(3441.732 -1044.3603) rotate(90)" style="fill:#b7b7b7;"/><rect x="2285.51" y="1383.86" width="19.28" height="558.16" style="fill:#b7b7b7;"/><rect x="883.93" y="1364.58" width="19.28" height="577.43" style="fill:#b7b7b7;"/><rect x="755.38" y="978.21" width="19.28" height="276.38" transform="translate(1881.4096 351.3793) rotate(90)" style="fill:#b7b7b7;"/><rect x="883.93" y="1126.03" width="19.28" height="99.87" style="fill:#b7b7b7;"/><rect x="2533.1" y="1300.33" width="19.28" height="147.77" transform="translate(3916.9545 -1168.5185) rotate(90)" style="fill:#b7b7b7;"/><rect x="3020.51" y="1049.98" width="19.28" height="648.47" transform="translate(4404.3672 -1655.9311) rotate(90)" style="fill:#b7b7b7;"/><rect x="2556.75" y="1383.86" width="19.28" height="495.21" style="fill:#b7b7b7;"/><rect x="3444.89" y="1274.07" width="19.28" height="200.29" transform="translate(4828.7485 -2080.3124) rotate(90)" style="fill:#b7b7b7;"/><rect x="3846.12" y="1383.86" width="19.28" height="495.21" style="fill:#b7b7b7;"/><rect x="3913.59" y="1094.95" width="19.28" height="558.53" transform="translate(5297.4497 -2549.0136) rotate(90)" style="fill:#b7b7b7;"/><rect x="4708.98" y="947.39" width="19.28" height="853.66" transform="translate(6092.8378 -3344.4017) rotate(90)" style="fill:#b7b7b7;"/><rect x="4344.07" y="1383.86" width="19.28" height="495.21" style="fill:#b7b7b7;"/><rect x="4135.16" y="966.42" width="19.28" height="464.54" transform="translate(5343.4836 -2946.112) rotate(90)" style="fill:#b7b7b7;"/><rect x="3912.53" y="1140" width="19.28" height="49.04" style="fill:#b7b7b7;"/><rect x="3912.53" y="629.72" width="19.28" height="421" style="fill:#b7b7b7;"/><rect x="3718.9" y="668.96" width="19.28" height="63.28" transform="translate(4429.1408 -3027.9339) rotate(90)" style="fill:#b7b7b7;"/><rect x="3760.18" y="430.57" width="19.28" height="322.16" style="fill:#b7b7b7;"/><rect x="3543.66" y="749.57" width="19.28" height="413.83" transform="translate(4509.7845 -2596.809) rotate(90)" style="fill:#b7b7b7;"/><rect x="4817.59" y="966.13" width="19.28" height="242.2" style="fill:#b7b7b7;"/><rect x="4649.25" y="1194.17" width="19.28" height="9.04" transform="translate(5857.5769 -3460.2052) rotate(90)" style="fill:#b7b7b7;"/><rect x="4677.57" y="1194.17" width="19.28" height="9.04" transform="translate(5885.8918 -3488.5202) rotate(90)" style="fill:#b7b7b7;"/><rect x="5263.17" y="1156.82" width="19.28" height="83.73" transform="translate(6471.498 -4074.1263) rotate(90)" style="fill:#b7b7b7;"/><rect x="2751.68" y="906.22" width="19.28" height="584.94" transform="translate(3960.0075 -1562.6358) rotate(90)" style="fill:#b7b7b7;"/><rect x="5364.29" y="1235.03" width="19.28" height="278.38" transform="translate(6748.1495 -3999.7135) rotate(90)" style="fill:#b7b7b7;"/><rect x="5230.95" y="610.64" width="19.28" height="384.2" style="fill:#b7b7b7;"/><rect x="4817.59" y="610.64" width="19.28" height="597.68" style="fill:#b7b7b7;"/><rect x="5314.68" y="629.92" width="19.28" height="578.44" style="fill:#b7b7b7;"/><rect x="5467.05" y="393.82" width="19.28" height="452.92" transform="translate(6096.9633 -4856.4048) rotate(90)" style="fill:#b7b7b7;"/><rect x="3654.4" y="410.85" width="19.28" height="192.28" transform="translate(4171.0309 -3157.0449) rotate(90)" style="fill:#b7b7b7;"/><rect x="3678.02" y="79.67" width="19.28" height="417.69" style="fill:#b7b7b7;"/><rect x="3678.02" y="516.63" width="19.28" height="430.22" style="fill:#b7b7b7;"/><rect x="2686.76" y="659.34" width="19.28" height="455.1" transform="translate(3583.2927 -1809.5083) rotate(90)" style="fill:#b7b7b7;"/><rect x="2822.51" y="614.55" width="19.28" height="183.6" transform="translate(3538.4972 -2125.7998) rotate(90)" style="fill:#b7b7b7;"/><rect x="2721.07" y="537.04" width="19.28" height="340.21" style="fill:#b7b7b7;"/><rect x="2904.67" y="642.87" width="19.28" height="53.84" style="fill:#b7b7b7;"/><rect x="2904.67" y="826.47" width="19.28" height="50.78" style="fill:#b7b7b7;"/><rect x="2480.67" y="644.72" width="19.28" height="42.91" transform="translate(3156.4866 -1824.1272) rotate(90)" style="fill:#b7b7b7;"/><rect x="2651.86" y="606.6" width="19.28" height="119.15" transform="translate(3327.6749 -1995.3156) rotate(90)" style="fill:#b7b7b7;"/><rect x="3481.97" y="910.84" width="19.28" height="575.69" transform="translate(4690.2949 -2292.9232) rotate(90)" style="fill:#b7b7b7;"/><rect x="3982.32" y="227.71" width="19.28" height="425" transform="translate(4432.1669 -3551.7452) rotate(90)" style="fill:#b7b7b7;"/><rect x="4709.96" y="14.36" width="19.28" height="851.7" transform="translate(5159.8108 -4279.3891) rotate(90)" style="fill:#b7b7b7;"/><rect x="1113.15" y="537.04" width="19.28" height="652.01" style="fill:#b7b7b7;"/><rect x="1464.58" y="1056.13" width="19.28" height="285.19" transform="translate(2672.9419 -275.4951) rotate(90)" style="fill:#b7b7b7;"/><rect x="1827.23" y="1067.96" width="19.28" height="261.53" transform="translate(3035.5937 -638.1469) rotate(90)" style="fill:#b7b7b7;"/><rect x="751.62" y="638.05" width="19.28" height="468.71" style="fill:#b7b7b7;"/><rect x="751.62" y="2242.64" width="19.28" height="267.26" style="fill:#b7b7b7;"/><rect x="2171.22" y="1250.3" width="19.28" height="247.84" transform="translate(3555.0782 -806.6422) rotate(90)" style="fill:#b7b7b7;"/><rect x="1825.97" y="1991.18" width="19.28" height="264.08" transform="translate(3958.8238 287.6139) rotate(90)" style="fill:#b7b7b7;"/><rect x="1463.32" y="1981.91" width="19.28" height="282.62" transform="translate(3596.1816 650.2562) rotate(90)" style="fill:#b7b7b7;"/><rect x="1091.38" y="1981.91" width="19.28" height="282.62" transform="translate(3224.2412 1022.1966) rotate(90)" style="fill:#b7b7b7;"/><rect x="730.82" y="1993.25" width="19.28" height="259.93" transform="translate(2863.6753 1382.7625) rotate(90)" style="fill:#b7b7b7;"/><rect x="5345.51" y="1383.86" width="19.28" height="495.21" style="fill:#b7b7b7;"/><rect x="4842.01" y="79.67" width="19.28" height="350.9" style="fill:#b7b7b7;"/><rect x="5345.51" y="79.67" width="19.28" height="350.9" style="fill:#b7b7b7;"/><rect x="5364.54" y="300.78" width="19.28" height="278.87" transform="translate(5814.3874 -4933.9657) rotate(90)" style="fill:#b7b7b7;"/><rect x="5705.21" y="328.27" width="19.28" height="223.88" transform="translate(6155.0542 -5274.6325) rotate(90)" style="fill:#b7b7b7;"/><rect x="4355.42" y="167.75" width="19.28" height="905.06" transform="translate(4985.3372 -3744.7787) rotate(90)" style="fill:#b7b7b7;"/><rect x="4632.33" y="1023.07" width="19.28" height="351.23" transform="translate(5840.6572 -3443.2856) rotate(90)" style="fill:#b7b7b7;"/><rect x="4278.07" y="629.23" width="19.28" height="559.82" style="fill:#b7b7b7;"/><rect x="5230.95" y="1084.13" width="19.28" height="104.92" style="fill:#b7b7b7;"/><rect x="5490.35" y="1032.68" width="19.28" height="332.08" transform="translate(6698.7161 -4301.2693) rotate(90)" style="fill:#b7b7b7;"/><rect x="5704.96" y="1262.03" width="19.28" height="224.37" transform="translate(7088.8163 -4340.3803) rotate(90)" style="fill:#b7b7b7;"/><rect x="5795.58" y="1177.16" width="19.28" height="43.13" transform="translate(7003.944 -4606.4972) rotate(90)" style="fill:#b7b7b7;"/><rect x="3520.53" y="962.94" width="19.28" height="226.11" style="fill:#b7b7b7;"/><rect x="3327.11" y="537.04" width="19.28" height="85.81" style="fill:#b7b7b7;"/><rect x="3327.11" y="712.15" width="19.28" height="41.57" style="fill:#b7b7b7;"/><rect x="3327.11" y="843" width="19.28" height="231.23" style="fill:#b7b7b7;"/><rect x="3327.11" y="1157.56" width="19.28" height="31.49" style="fill:#b7b7b7;"/><rect x="3502.56" y="567.11" width="19.28" height="331.63" transform="translate(4245.1281 -2779.2708) rotate(90)" style="fill:#b7b7b7;"/><rect x="5800.54" y="603.63" width="19.28" height="33.21" transform="translate(6430.4179 -5189.9386) rotate(90)" style="fill:#b7b7b7;"/><rect x="3760.21" y="897.8" width="19.28" height="152.91" style="fill:#b7b7b7;"/><rect x="3760.18" y="1140" width="19.28" height="49.04" style="fill:#b7b7b7;"/><rect x="519.14" y="1412.16" width="19.28" height="234.64" transform="translate(2058.2603 1000.6951) rotate(90)" style="fill:#b7b7b7;"/><rect x="456.52" y="2069.18" width="19.28" height="108.07" transform="translate(2589.3815 1657.0563) rotate(90)" style="fill:#b7b7b7;"/><rect x="427.92" y="1348.08" width="19.28" height="52.2" transform="translate(1811.7398 936.6198) rotate(90)" style="fill:#b7b7b7;"/><rect x="723.8" y="1223.73" width="19.28" height="300.98" transform="translate(2107.6545 640.7816) rotate(90)" style="fill:#b7b7b7;"/><rect x="435.93" y="1166.28" width="19.28" height="64.89" transform="translate(1644.2954 753.1515) rotate(90)" style="fill:#b7b7b7;"/><rect x="423.66" y="1930.47" width="19.28" height="42.35" transform="translate(2384.9477 1518.3484) rotate(90)" style="fill:#b7b7b7;"/><rect x="576.16" y="1910.62" width="19.28" height="82.06" transform="translate(2537.4441 1365.8519) rotate(90)" style="fill:#b7b7b7;"/><rect x="626.83" y="1539.12" width="19.28" height="422.17" style="fill:#b7b7b7;"/><rect x="5570.59" y="629.88" width="19.28" height="422.33" style="fill:#b7b7b7;"/><rect x="5698.89" y="923.62" width="19.28" height="237.9" transform="translate(6751.0936 -4665.9538) rotate(90)" style="fill:#b7b7b7;"/><rect x="626.83" y="1126.03" width="19.28" height="63.05" style="fill:#b7b7b7;"/><rect x="3327.11" y="1383.86" width="19.28" height="495.21" style="fill:#b7b7b7;"/></g><g id="scale"><g id="D1-0-STAIR-B"><g id="scala1"><polyline points="641.7 1603.81 753.84 1603.81 753.84 1853.34 776.14 1853.34 776.14 1603.81 888.29 1603.81 888.29 1607.78 882.81 1607.78 780.11 1607.78 780.11 1857.3 749.87 1857.3 749.87 1607.78 641.7 1607.78" style="fill:#b7b7b7;"/><polygon points="693.28 1885.24 693.28 1523.73 697.25 1523.73 697.25 1881.27 827.81 1881.27 827.81 1729.27 831.78 1729.27 831.78 1885.24 693.28 1885.24" style="fill:#b7b7b7;"/><rect x="641.7" y="1804.6" width="111.04" height="3.97" style="fill:#b7b7b7;"/><rect x="641.7" y="1827.78" width="111.04" height="3.97" style="fill:#b7b7b7;"/><rect x="641.7" y="1781.99" width="111.04" height="3.97" style="fill:#b7b7b7;"/><rect x="779.12" y="1827.78" width="109.16" height="3.97" style="fill:#b7b7b7;"/><rect x="779.12" y="1804.6" width="109.16" height="3.97" style="fill:#b7b7b7;"/><rect x="779.12" y="1759.37" width="109.16" height="3.97" style="fill:#b7b7b7;"/><rect x="778.12" y="1737.39" width="110.7" height="3.97" style="fill:#b7b7b7;"/><rect x="858.67" y="1715.17" width="29.62" height="3.97" style="fill:#b7b7b7;"/><rect x="779.08" y="1715.17" width="50.71" height="3.97" style="fill:#b7b7b7;"/><rect x="779.12" y="1647.22" width="109.16" height="3.97" style="fill:#b7b7b7;"/><rect x="779.12" y="1625.87" width="109.16" height="3.97" style="fill:#b7b7b7;"/><polygon points="749.72 1672.7 749.72 1517.7 780.11 1517.7 780.11 1627.14 776.14 1627.14 776.14 1521.67 753.68 1521.67 753.68 1672.7 749.72 1672.7" style="fill:#b7b7b7;"/><rect x="641.7" y="1692.94" width="111.04" height="3.97" style="fill:#b7b7b7;"/><rect x="641.7" y="1737.63" width="111.04" height="3.97" style="fill:#b7b7b7;"/><rect x="641.7" y="1715.24" width="111.04" height="3.97" style="fill:#b7b7b7;"/><rect x="641.7" y="1759.92" width="111.04" height="3.97" style="fill:#b7b7b7;"/><rect x="641.7" y="1670.56" width="111.04" height="3.97" style="fill:#b7b7b7;"/><rect x="641.7" y="1648.18" width="111.04" height="3.97" style="fill:#b7b7b7;"/><rect x="641.7" y="1625.87" width="111.04" height="3.97" style="fill:#b7b7b7;"/><rect x="779.12" y="1575" width="109.16" height="3.97" style="fill:#b7b7b7;"/><rect x="641.7" y="1575" width="111.04" height="3.97" style="fill:#b7b7b7;"/><rect x="779.12" y="1547.7" width="109.16" height="3.97" style="fill:#b7b7b7;"/><rect x="641.7" y="1547.7" width="111.04" height="3.97" style="fill:#b7b7b7;"/><rect x="641.7" y="1519.84" width="111.04" height="3.97" style="fill:#b7b7b7;"/><rect x="779.12" y="1693.18" width="109.16" height="3.97" style="fill:#b7b7b7;"/><rect x="779.12" y="1670.24" width="109.16" height="3.97" style="fill:#b7b7b7;"/><polygon points="675.34 1541.97 695.45 1520.83 715.38 1542.38 712.46 1545.08 695.41 1526.63 678.21 1544.7 675.34 1541.97" style="fill:#b7b7b7;"/><polygon points="809.6 1696.51 812.52 1693.82 829.57 1712.33 846.77 1694.19 849.64 1696.92 829.54 1718.15 809.6 1696.51" style="fill:#b7b7b7;"/><rect x="774.41" y="1715.02" width="117.75" height="4.05" transform="translate(-603.34 460.58) rotate(-22.94)" style="fill:#b7b7b7;"/><rect x="774.4" y="1725.79" width="117.75" height="4.05" transform="translate(-607.55 461.43) rotate(-22.94)" style="fill:#b7b7b7;"/><rect x="827.81" y="1549.13" width="3.97" height="166.12" style="fill:#b7b7b7;"/><rect x="779.37" y="1781.99" width="108.92" height="3.97" style="fill:#b7b7b7;"/><path d="M817.25,1549.68c0-6.89,5.57-12.47,12.46-12.48,6.89,0,12.47,5.57,12.48,12.46s-5.57,12.47-12.46,12.48h0c-6.88,0-12.47-5.57-12.48-12.46ZM838.21,1549.68c0-4.69-3.8-8.5-8.5-8.5-4.69,0-8.5,3.8-8.5,8.5s3.8,8.5,8.5,8.5h0c4.69,0,8.49-3.81,8.5-8.5Z" style="fill:#b7b7b7;"/></g></g><g id="D1-0-STAIR-B-2"><g id="scala1-2"><polyline points="5576.08 968.24 5463.93 968.24 5463.93 718.71 5441.64 718.71 5441.64 968.24 5329.49 968.24 5329.49 964.27 5334.97 964.27 5437.67 964.27 5437.67 714.74 5467.9 714.74 5467.9 964.27 5576.08 964.27" style="fill:#b7b7b7;"/><polygon points="5524.49 686.8 5524.49 1048.32 5520.52 1048.32 5520.52 690.77 5389.97 690.77 5389.97 843.56 5386 843.56 5386 686.8 5524.49 686.8" style="fill:#b7b7b7;"/><rect x="5465.05" y="763.47" width="111.04" height="3.97" style="fill:#b7b7b7;"/><rect x="5465.05" y="740.29" width="111.04" height="3.97" style="fill:#b7b7b7;"/><rect x="5465.05" y="786.09" width="111.04" height="3.97" style="fill:#b7b7b7;"/><rect x="5329.49" y="740.29" width="109.16" height="3.97" style="fill:#b7b7b7;"/><rect x="5329.49" y="763.47" width="109.16" height="3.97" style="fill:#b7b7b7;"/><rect x="5329.49" y="808.71" width="109.16" height="3.97" style="fill:#b7b7b7;"/><rect x="5329.48" y="830.69" width="82.1" height="3.97" style="fill:#b7b7b7;"/><rect x="5329.49" y="852.91" width="29.53" height="3.97" style="fill:#b7b7b7;"/><rect x="5388.24" y="852.91" width="50.46" height="3.97" style="fill:#b7b7b7;"/><rect x="5329.49" y="920.85" width="109.16" height="3.97" style="fill:#b7b7b7;"/><rect x="5329.49" y="942.2" width="109.16" height="3.97" style="fill:#b7b7b7;"/><polygon points="5468.06 899.35 5468.06 1054.35 5437.67 1054.35 5437.67 944.9 5441.64 944.9 5441.64 1050.38 5464.1 1050.38 5464.1 899.35 5468.06 899.35" style="fill:#b7b7b7;"/><rect x="5465.05" y="875.13" width="111.04" height="3.97" style="fill:#b7b7b7;"/><rect x="5465.05" y="830.45" width="111.04" height="3.97" style="fill:#b7b7b7;"/><rect x="5465.05" y="852.84" width="111.04" height="3.97" style="fill:#b7b7b7;"/><rect x="5465.05" y="808.15" width="111.04" height="3.97" style="fill:#b7b7b7;"/><rect x="5465.05" y="897.52" width="111.04" height="3.97" style="fill:#b7b7b7;"/><rect x="5465.05" y="919.9" width="111.04" height="3.97" style="fill:#b7b7b7;"/><rect x="5465.05" y="942.2" width="111.04" height="3.97" style="fill:#b7b7b7;"/><rect x="5329.49" y="993.07" width="109.16" height="3.97" style="fill:#b7b7b7;"/><rect x="5465.05" y="993.07" width="111.04" height="3.97" style="fill:#b7b7b7;"/><rect x="5329.49" y="1020.38" width="109.16" height="3.97" style="fill:#b7b7b7;"/><rect x="5465.05" y="1020.38" width="111.04" height="3.97" style="fill:#b7b7b7;"/><rect x="5465.05" y="1048.24" width="111.04" height="3.97" style="fill:#b7b7b7;"/><rect x="5329.49" y="874.89" width="109.16" height="3.97" style="fill:#b7b7b7;"/><rect x="5329.49" y="897.83" width="109.16" height="3.97" style="fill:#b7b7b7;"/><polygon points="5542.44 1030.08 5522.32 1051.21 5502.4 1029.66 5505.31 1026.97 5522.37 1045.41 5539.56 1027.35 5542.44 1030.08" style="fill:#b7b7b7;"/><polygon points="5408.17 875.54 5405.26 878.23 5388.2 859.71 5371.01 877.85 5368.13 875.12 5388.24 853.89 5408.17 875.54" style="fill:#b7b7b7;"/><rect x="5325.62" y="852.98" width="117.75" height="4.05" transform="translate(92.5881 2166.3183) rotate(-22.94)" style="fill:#b7b7b7;"/><rect x="5325.63" y="842.2" width="117.75" height="4.05" transform="translate(96.7895 2165.4701) rotate(-22.94)" style="fill:#b7b7b7;"/><rect x="5386" y="856.8" width="3.97" height="166.12" style="fill:#b7b7b7;"/><rect x="5329.49" y="786.09" width="108.92" height="3.97" style="fill:#b7b7b7;"/><path d="M5400.52,1022.36c0,6.89-5.57,12.47-12.46,12.48-6.89,0-12.47-5.57-12.48-12.46,0-6.89,5.57-12.47,12.46-12.48h0c6.88,0,12.47,5.57,12.48,12.46ZM5379.57,1022.36c0,4.69,3.8,8.5,8.5,8.5,4.69,0,8.5-3.8,8.5-8.5s-3.8-8.5-8.5-8.5h0c-4.69,0-8.49,3.81-8.5,8.5Z" style="fill:#b7b7b7;"/></g></g><polyline points="2850.04 893.38 2850.04 1026.87 2617.72 1026.87 2617.72 1055.55 2923.95 1055.55 2923.95 1193.24 2919.8 1193.23 2902.74 1189.71 2919.8 1190.39 2919.8 1059.3 2613.57 1059.3 2613.57 1023.11 2845.9 1023.11 2845.9 893.38" style="fill:#b7b7b7;"/><polygon points="2921.54 963.05 2556.25 963.05 2556.25 1119.74 2738.28 1119.74 2738.28 1123.5 2552.05 1123.5 2552.05 959.3 2921.54 959.3 2921.54 963.05" style="fill:#b7b7b7;"/><rect x="2761.4" y="1119.81" width="160.66" height="3.76" style="fill:#b7b7b7;"/><rect x="2642.71" y="1056.3" width="3.76" height="137.02" style="fill:#b7b7b7;"/><rect x="2666.43" y="1056.29" width="3.76" height="135.29" style="fill:#b7b7b7;"/><rect x="2642.71" y="893.38" width="3.76" height="131.61" style="fill:#b7b7b7;"/><rect x="2666.43" y="893.38" width="3.76" height="131.61" style="fill:#b7b7b7;"/><rect x="2690.15" y="893.38" width="3.76" height="131.61" style="fill:#b7b7b7;"/><rect x="2713.2" y="893.38" width="3.76" height="131.61" style="fill:#b7b7b7;"/><rect x="2736.55" y="893.38" width="3.76" height="131.61" style="fill:#b7b7b7;"/><rect x="2807.73" y="893.38" width="3.76" height="131.61" style="fill:#b7b7b7;"/><rect x="2830.1" y="893.38" width="3.76" height="131.61" style="fill:#b7b7b7;"/><rect x="2920.19" y="893.38" width="3.76" height="131.61" style="fill:#b7b7b7;"/><polygon points="2923.96 961.01 2907.42 978.03 2904.73 975.41 2918.69 961.04 2904.75 947.11 2907.41 944.46 2923.96 961.01" style="fill:#b7b7b7;"/><polygon points="2923.95 1059.53 2784.98 1059.53 2784.98 1055.77 2920.19 1055.77 2920.19 1026.87 2832.72 1026.87 2832.72 1023.11 2923.95 1023.11 2923.95 1059.53" style="fill:#b7b7b7;"/><rect x="2759.82" y="1056.29" width="3.76" height="67.27" style="fill:#b7b7b7;"/><rect x="2759.82" y="1172.85" width="3.76" height="20.47" style="fill:#b7b7b7;"/><rect x="2712.97" y="1056.3" width="3.76" height="137.02" style="fill:#b7b7b7;"/><rect x="2736.4" y="1085.29" width="3.76" height="108.16" style="fill:#b7b7b7;"/><rect x="2689.55" y="1056.3" width="3.76" height="137.02" style="fill:#b7b7b7;"/><rect x="2783.25" y="1056.3" width="3.76" height="137.02" style="fill:#b7b7b7;"/><rect x="2806.68" y="1056.3" width="3.76" height="137.02" style="fill:#b7b7b7;"/><rect x="2830.1" y="1056.3" width="3.76" height="137.02" style="fill:#b7b7b7;"/><rect x="2759.53" y="893.38" width="3.76" height="131.61" style="fill:#b7b7b7;"/><rect x="2783.55" y="893.38" width="3.76" height="131.61" style="fill:#b7b7b7;"/><rect x="2897.6" y="893.38" width="3.76" height="131.61" style="fill:#b7b7b7;"/><rect x="2897.6" y="1058.55" width="3.76" height="134.69" style="fill:#b7b7b7;"/><rect x="2875.82" y="1058.55" width="3.76" height="134.69" style="fill:#b7b7b7;"/><rect x="2853.52" y="1058.55" width="3.76" height="134.69" style="fill:#b7b7b7;"/><rect x="2875.3" y="893.38" width="3.76" height="131.61" style="fill:#b7b7b7;"/><path d="M2935.36,1121.92h0c0,7.34-5.95,13.29-13.29,13.29-7.34,0-13.29-5.95-13.29-13.29s5.95-13.29,13.29-13.29c7.34,0,13.28,5.95,13.29,13.29ZM2931.64,1121.89h0c0-5.28-4.28-9.57-9.57-9.57s-9.57,4.28-9.57,9.57,4.28,9.57,9.57,9.57,9.57-4.28,9.57-9.57Z" style="fill:#b7b7b7;"/><rect x="2758.24" y="1054.5" width="3.76" height="140.87" transform="translate(-197.37 754.77) rotate(-15.04)" style="fill:#b7b7b7;"/><rect x="2747.12" y="1054.51" width="3.76" height="140.87" transform="translate(-197.75 751.88) rotate(-15.04)" style="fill:#b7b7b7;"/><polygon points="2779.22 1107.81 2764.83 1121.65 2779.25 1135.98 2776.59 1138.64 2759.47 1121.59 2776.62 1105.1 2779.22 1107.81" style="fill:#b7b7b7;"/><g id="a-3"><rect x="2540.82" y="898.79" width="393.64" height="292.8" style="fill:none;"/></g><rect x="2619.06" y="1056.3" width="3.76" height="137.02" style="fill:#b7b7b7;"/><rect x="2619.06" y="891.57" width="3.76" height="131.61" style="fill:#b7b7b7;"/></g><g id="muri_portanti"><rect x="-646.41" y="1555.89" width="2077.38" height="39.69" transform="translate(1968.0136 1183.4466) rotate(90)" style="fill:#b7b7b7;"/><rect x="372.44" y="2614.42" width="2096.41" height="39.69" transform="translate(2841.2925 5268.5249) rotate(-180)" style="fill:#b7b7b7;"/><polyline points="2429.17 1942.01 2429.17 1364.58 2468.85 1364.58 2468.85 2614.42 2429.17 2614.42 2429.17 1942.01" style="fill:#b7b7b7;"/><rect x="373.44" y="497.36" width="3154.77" height="39.69" transform="translate(3901.6521 1034.3955) rotate(-180)" style="fill:#b7b7b7;"/><rect x="2468.85" y="1879.07" width="3357.93" height="39.69" transform="translate(8295.6367 3797.8216) rotate(-180)" style="fill:#b7b7b7;"/><rect x="3299.53" y="268.67" width="497.06" height="39.69" transform="translate(3259.5411 3836.5662) rotate(-90)" style="fill:#b7b7b7;"/><rect x="3567.9" y="39.98" width="2258.89" height="39.69" style="fill:#b7b7b7;"/><rect x="2162.4" y="901.87" width="573.22" height="39.69" transform="translate(3370.7243 -1527.2938) rotate(90)" style="fill:#b7b7b7;"/><line x1="3706.21" y1="40.49" x2="3928.73" y2="40.49" style="fill:none; stroke:#b7b7b7; stroke-miterlimit:10;"/><rect x="4128.59" y="39.98" width="222.52" height="1" style="fill:#b7b7b7;"/><rect x="4907.24" y="959.53" width="1878.77" height="39.69" transform="translate(6825.9968 -4867.2586) rotate(90)" style="fill:#b7b7b7;"/></g><g class="clickable" id="D2-2-22"><rect x="740.46" y="2237.25" width="41.23" height="279.85" style="fill:none;"/><path d="M424.89,2142.45v463.85h676.13v-463.85H424.89ZM781.68,2517.1h-41.23v-279.85h41.23v279.85Z" style="fill:none;"/></g><g class="clickable" id="D2-2-21"><polygon points="1145.34 2142.45 1145.34 2606.29 1848.3 2606.29 1848.3 2142.45 1522.72 2142.45 1522.72 2524.55 1472.96 2524.55 1472.96 2142.45 1145.34 2142.45" style="fill:none;"/></g><g class="clickable" id="D2-2-20"><rect x="1892.25" y="2142.45" width="523.43" height="463.85" style="fill:none;"/></g><g class="clickable" id="D2-2-29"><rect x="1833.93" y="1395.74" width="437.17" height="536.17" style="fill:none;"/></g><g class="clickable" id="D2-2-25"><rect x="1041.44" y="1365.36" width="219.78" height="576.65" style="fill:none;"/></g><g class="clickable" id="D2-2-STAIR-C"><polygon points="654.92 1508.3 654.92 1933.38 874.8 1933.38 874.8 1393.03 654.92 1393.03 424.29 1393.03 424.29 1508.3 654.92 1508.3" style="fill:none;"/></g><g class="clickable" id="D2-2-27-A"><rect x="1145.34" y="546.4" width="282.3" height="628.72" style="fill:none;"/></g><g class="clickable" id="D2-2-27-B"><rect x="1474.22" y="543.46" width="366.08" height="631.74" style="fill:none;"/></g><g class="clickable" id="D2-2-28"><rect x="1892.25" y="550.81" width="524.8" height="625.37" style="fill:none;"/></g><g class="clickable" id="D2-2-26"><polygon points="424.29 551.3 423.28 1175.97 612.11 1175.97 612.11 1096 741.34 1096.04 741.34 629.96 780.7 629.92 780.7 1096 913.03 1096 913.03 1176.67 1101.23 1176.67 1101.23 551.3 424.29 551.3" style="fill:none;"/></g><g class="clickable" id="D2-2-18"><rect x="2589.18" y="1396.72" width="719.94" height="467.56" style="fill:none;"/></g><g class="clickable" id="D2-2-19"><rect x="3360.11" y="1394.76" width="469.52" height="469.52" style="fill:none;"/></g><g class="clickable" id="D2-2-17"><rect x="3880.59" y="1394.76" width="452.85" height="469.52" style="fill:none;"/></g><g class="clickable" id="D2-2-16"><rect x="4378.17" y="1395.25" width="951.32" height="469.52" style="fill:none;"/></g><g class="clickable" id="D2-2-15"><rect x="5381.86" y="1395.25" width="433.16" height="469.52" style="fill:none;"/></g><g class="clickable" id="D2-2-10"><rect x="3946.9" y="638.46" width="317.79" height="538.21" style="fill:none;"/></g><g class="clickable" id="D2-2-11"><rect x="4312.37" y="638.05" width="493.29" height="538.13" style="fill:none;"/></g><g class="clickable" id="D2-2-12"><rect x="5114.22" y="611.09" width="109.29" height="368.07" style="fill:none;"/></g><g class="clickable" id="D2-2-STAIR-B"><polygon points="5339.55 634.13 5339.55 1180.55 5817.47 1180.55 5817.47 1058.93 5563.78 1058.93 5563.78 634.13 5339.55 634.13" style="fill:none;"/></g><g class="clickable" id="D2-2-09"><rect x="5374.18" y="90.11" width="442.81" height="330.74" style="fill:none;"/></g><g class="clickable" id="D2-2-08"><rect x="4872.07" y="87.17" width="461.89" height="333.68" style="fill:none;"/></g><g class="clickable" id="D2-2-07"><polygon points="3706.21 90.11 3706.21 480.23 3748.98 480.23 3748.98 422.4 4828.94 422.4 4828.94 90.11 3706.21 90.11" style="fill:none;"/></g><g class="clickable" id="D2-2-STAIR-A"><rect x="2478.26" y="903.7" width="530.12" height="275.4" style="fill:none;"/></g><g class="clickable" id="D2-2-01"><polygon points="2937.15 545.91 2937.15 891.92 3022.43 891.92 3022.43 1179.1 3310.45 1179.1 3310.45 545.91 2937.15 545.91" style="fill:none;"/></g><g class="clickable" id="D2-2-05"><rect x="3352.75" y="971.42" width="158.79" height="211.62" style="fill:none;"/></g><g class="clickable" id="D2-2-04"><polygon points="3672.96 868.91 3672.95 938.97 3354.71 938.97 3354.71 749.79 3672.95 749.79 3672.95 817.78 3672.96 868.91" style="fill:none;"/></g><g class="clickable" id="D2-2-03"><polygon points="3671.65 654.89 3671.64 716.95 3353.41 716.95 3353.41 546.05 3572.97 546.05 3572.97 522.21 3671.65 522.21 3671.64 597.76 3671.65 654.89" style="fill:none;"/></g></svg>