<svg id="Livello_1" data-name="Livello 1" xmlns="http://www.w3.org/2000/svg" xmlns:xlink="http://www.w3.org/1999/xlink" viewBox="0 0 5500 2883"><defs><pattern id="locale_tecnico-15_0000005280296" data-name="locale tecnico-15 0000005280296" width="40.2" height="40.2" patternTransform="matrix(-0.48, 0, 0, 0.48, -28348.66, 25020.63)" patternUnits="userSpaceOnUse" viewBox="0 0 40.2 40.2"><rect width="40.2" height="40.2" style="fill:none"/><rect width="40.2" height="40.2" style="fill:none"/><rect width="40.2" height="40.2" style="fill:none"/><rect width="40.2" height="40.2" style="fill:none"/><rect width="40.2" height="40.2" style="fill:none"/><rect width="40.2" height="40.2" style="fill:none"/><rect width="40.2" height="40.2" style="fill:none"/><rect width="40.2" height="40.2" style="fill:none"/><rect width="40.2" height="40.2" style="fill:none"/><rect width="40.2" height="40.2" style="fill:none"/><rect x="37.4" y="-37.3" width="42.3" height="40.9" style="fill:#f2f2f2"/><line x1="40.2" x2="80.4" y2="-40.2" style="fill:none;stroke:#ddd;stroke-linecap:square;stroke-linejoin:round;stroke-width:20px"/><rect x="-2.8" y="-37.3" width="42.3" height="40.9" style="fill:#f2f2f2"/><line x2="40.2" y2="-40.2" style="fill:none;stroke:#ddd;stroke-linecap:square;stroke-linejoin:round;stroke-width:20px"/><line x1="-40.2" y2="-40.2" style="fill:none;stroke:#ddd;stroke-linecap:square;stroke-linejoin:round;stroke-width:20px"/><rect x="37.4" y="2.8" width="42.3" height="40.9" style="fill:#f2f2f2"/><line x1="40.2" y1="40.2" x2="80.4" style="fill:none;stroke:#ddd;stroke-linecap:square;stroke-linejoin:round;stroke-width:20px"/><rect x="-2.8" y="2.8" width="42.3" height="40.9" style="fill:#f2f2f2"/><line y1="40.2" x2="40.2" style="fill:none;stroke:#ddd;stroke-linecap:square;stroke-linejoin:round;stroke-width:20px"/><line x1="-40.2" y1="40.2" style="fill:none;stroke:#ddd;stroke-linecap:square;stroke-linejoin:round;stroke-width:20px"/><line x1="40.2" y1="80.4" x2="80.4" y2="40.2" style="fill:none;stroke:#ddd;stroke-linecap:square;stroke-linejoin:round;stroke-width:20px"/><line y1="80.4" x2="40.2" y2="40.2" style="fill:none;stroke:#ddd;stroke-linecap:square;stroke-linejoin:round;stroke-width:20px"/><line x1="-40.2" y1="80.4" y2="40.2" style="fill:none;stroke:#ddd;stroke-linecap:square;stroke-linejoin:round;stroke-width:20px"/></pattern><pattern id="locale_tecnico-16_0000010253427" data-name="locale tecnico-16 0000010253427" width="40.2" height="40.2" patternTransform="matrix(-0.48, 0, 0, 0.48, -28348.66, 25019.69)" patternUnits="userSpaceOnUse" viewBox="0 0 40.2 40.2"><rect width="40.2" height="40.2" style="fill:none"/><rect width="40.2" height="40.2" style="fill:none"/><rect width="40.2" height="40.2" style="fill:none"/><rect width="40.2" height="40.2" style="fill:none"/><rect width="40.2" height="40.2" style="fill:none"/><rect width="40.2" height="40.2" style="fill:none"/><rect width="40.2" height="40.2" style="fill:none"/><rect width="40.2" height="40.2" style="fill:none"/><rect width="40.2" height="40.2" style="fill:none"/><rect width="40.2" height="40.2" style="fill:none"/><rect x="37.4" y="-37.3" width="42.3" height="40.9" style="fill:#f2f2f2"/><line x1="40.2" x2="80.4" y2="-40.2" style="fill:none;stroke:#ddd;stroke-linecap:square;stroke-linejoin:round;stroke-width:20px"/><rect x="-2.8" y="-37.3" width="42.3" height="40.9" style="fill:#f2f2f2"/><line x2="40.2" y2="-40.2" style="fill:none;stroke:#ddd;stroke-linecap:square;stroke-linejoin:round;stroke-width:20px"/><line x1="-40.2" y2="-40.2" style="fill:none;stroke:#ddd;stroke-linecap:square;stroke-linejoin:round;stroke-width:20px"/><rect x="37.4" y="2.8" width="42.3" height="40.9" style="fill:#f2f2f2"/><line x1="40.2" y1="40.2" x2="80.4" style="fill:none;stroke:#ddd;stroke-linecap:square;stroke-linejoin:round;stroke-width:20px"/><rect x="-2.8" y="2.8" width="42.3" height="40.9" style="fill:#f2f2f2"/><line y1="40.2" x2="40.2" style="fill:none;stroke:#ddd;stroke-linecap:square;stroke-linejoin:round;stroke-width:20px"/><line x1="-40.2" y1="40.2" style="fill:none;stroke:#ddd;stroke-linecap:square;stroke-linejoin:round;stroke-width:20px"/><line x1="40.2" y1="80.4" x2="80.4" y2="40.2" style="fill:none;stroke:#ddd;stroke-linecap:square;stroke-linejoin:round;stroke-width:20px"/><line y1="80.4" x2="40.2" y2="40.2" style="fill:none;stroke:#ddd;stroke-linecap:square;stroke-linejoin:round;stroke-width:20px"/><line x1="-40.2" y1="80.4" y2="40.2" style="fill:none;stroke:#ddd;stroke-linecap:square;stroke-linejoin:round;stroke-width:20px"/></pattern><pattern id="SVGID_0000001462812809247621592" data-name="SVGID 0000001462812809247621592" width="40.2" height="40.2" patternTransform="matrix(-0.48, 0, 0, 0.48, -28369.05, 24993.24)" patternUnits="userSpaceOnUse" viewBox="0 0 40.2 40.2"><rect width="40.2" height="40.2" style="fill:none"/><rect width="40.2" height="40.2" style="fill:none"/><rect width="40.2" height="40.2" style="fill:none"/><rect width="40.2" height="40.2" style="fill:none"/><rect width="40.2" height="40.2" style="fill:none"/><rect width="40.2" height="40.2" style="fill:none"/><rect width="40.2" height="40.2" style="fill:none"/><rect width="40.2" height="40.2" style="fill:none"/><rect width="40.2" height="40.2" style="fill:none"/><rect width="40.2" height="40.2" style="fill:none"/><rect x="37.4" y="-37.3" width="42.3" height="40.9" style="fill:#f2f2f2"/><line x1="40.2" x2="80.4" y2="-40.2" style="fill:none;stroke:#ddd;stroke-linecap:square;stroke-linejoin:round;stroke-width:20px"/><rect x="-2.8" y="-37.3" width="42.3" height="40.9" style="fill:#f2f2f2"/><line x2="40.2" y2="-40.2" style="fill:none;stroke:#ddd;stroke-linecap:square;stroke-linejoin:round;stroke-width:20px"/><line x1="-40.2" y2="-40.2" style="fill:none;stroke:#ddd;stroke-linecap:square;stroke-linejoin:round;stroke-width:20px"/><rect x="37.4" y="2.8" width="42.3" height="40.9" style="fill:#f2f2f2"/><line x1="40.2" y1="40.2" x2="80.4" style="fill:none;stroke:#ddd;stroke-linecap:square;stroke-linejoin:round;stroke-width:20px"/><rect x="-2.8" y="2.8" width="42.3" height="40.9" style="fill:#f2f2f2"/><line y1="40.2" x2="40.2" style="fill:none;stroke:#ddd;stroke-linecap:square;stroke-linejoin:round;stroke-width:20px"/><line x1="-40.2" y1="40.2" style="fill:none;stroke:#ddd;stroke-linecap:square;stroke-linejoin:round;stroke-width:20px"/><line x1="40.2" y1="80.4" x2="80.4" y2="40.2" style="fill:none;stroke:#ddd;stroke-linecap:square;stroke-linejoin:round;stroke-width:20px"/><line y1="80.4" x2="40.2" y2="40.2" style="fill:none;stroke:#ddd;stroke-linecap:square;stroke-linejoin:round;stroke-width:20px"/><line x1="-40.2" y1="80.4" y2="40.2" style="fill:none;stroke:#ddd;stroke-linecap:square;stroke-linejoin:round;stroke-width:20px"/></pattern><pattern id="SVGID_0000009386631363161075984" data-name="SVGID 0000009386631363161075984" width="40.2" height="40.2" patternTransform="matrix(-0.48, 0, 0, 0.48, -28348.66, 25018.75)" patternUnits="userSpaceOnUse" viewBox="0 0 40.2 40.2"><rect width="40.2" height="40.2" style="fill:none"/><rect width="40.2" height="40.2" style="fill:none"/><rect width="40.2" height="40.2" style="fill:none"/><rect width="40.2" height="40.2" style="fill:none"/><rect width="40.2" height="40.2" style="fill:none"/><rect width="40.2" height="40.2" style="fill:none"/><rect width="40.2" height="40.2" style="fill:none"/><rect width="40.2" height="40.2" style="fill:none"/><rect width="40.2" height="40.2" style="fill:none"/><rect width="40.2" height="40.2" style="fill:none"/><rect x="37.4" y="-37.3" width="42.3" height="40.9" style="fill:#f2f2f2"/><line x1="40.2" x2="80.4" y2="-40.2" style="fill:none;stroke:#ddd;stroke-linecap:square;stroke-linejoin:round;stroke-width:20px"/><rect x="-2.8" y="-37.3" width="42.3" height="40.9" style="fill:#f2f2f2"/><line x2="40.2" y2="-40.2" style="fill:none;stroke:#ddd;stroke-linecap:square;stroke-linejoin:round;stroke-width:20px"/><line x1="-40.2" y2="-40.2" style="fill:none;stroke:#ddd;stroke-linecap:square;stroke-linejoin:round;stroke-width:20px"/><rect x="37.4" y="2.8" width="42.3" height="40.9" style="fill:#f2f2f2"/><line x1="40.2" y1="40.2" x2="80.4" style="fill:none;stroke:#ddd;stroke-linecap:square;stroke-linejoin:round;stroke-width:20px"/><rect x="-2.8" y="2.8" width="42.3" height="40.9" style="fill:#f2f2f2"/><line y1="40.2" x2="40.2" style="fill:none;stroke:#ddd;stroke-linecap:square;stroke-linejoin:round;stroke-width:20px"/><line x1="-40.2" y1="40.2" style="fill:none;stroke:#ddd;stroke-linecap:square;stroke-linejoin:round;stroke-width:20px"/><line x1="40.2" y1="80.4" x2="80.4" y2="40.2" style="fill:none;stroke:#ddd;stroke-linecap:square;stroke-linejoin:round;stroke-width:20px"/><line y1="80.4" x2="40.2" y2="40.2" style="fill:none;stroke:#ddd;stroke-linecap:square;stroke-linejoin:round;stroke-width:20px"/><line x1="-40.2" y1="80.4" y2="40.2" style="fill:none;stroke:#ddd;stroke-linecap:square;stroke-linejoin:round;stroke-width:20px"/></pattern></defs><g id="P-floor-2"><g id="background"><polygon points="31.7 746.2 170.8 746.2 170.8 1155.9 170.8 1187.6 202.5 1187.6 279.1 1187.6 279.1 1381.1 279.1 1396.8 279.1 1591.2 38.8 1591.2 38.8 1633.3 38.8 2730.7 38.8 2746.2 38.8 2851.3 38.8 2883 70.5 2883 607 2883 622.7 2883 880.1 2883 895.7 2883 3999.9 2883 4353.5 2883 4705.8 2851.3 5180.6 2808.6 5212.4 2805.7 5212.4 2773.8 5212.4 1901.2 5468.3 1901.2 5500 1901.2 5500 1869.4 5500 1592.7 5500 1561 5468.3 1561 5212.4 1561 5212.4 1451.6 5212.4 1436.1 5212.4 1245.4 5212.4 1213.7 5180.6 1213.7 4933.1 1213.7 4901.4 1213.7 4901.4 1245.4 4901.4 1312.1 4424.5 1312.1 4424.5 1176.7 4424.5 1145.1 4392.8 1145.1 3631.5 1145.1 3631.5 1051.4 3631.5 1019.7 3599.8 1019.7 1675.5 1019.7 1643.8 1019.7 1643.8 1051.4 1643.8 1353.7 907 1353.7 907 1177.3 907 1145.6 875.3 1145.6 441.9 1145.6 441.9 880.5 441.9 848.8 410.2 848.8 321.8 848.8 321.8 155.6 321.8 140.1 321.8 31.7 321.8 0 290 0 31.7 0 0 0 0 31.7 0 140.1 0 155.6 0 714.5 0 746.2 31.7 746.2" style="fill:#f2f2f2"/></g><g id="rooms"><rect id="senza_codice" data-name="senza codice" x="202.5" y="31.7" width="87.5" height="108.3" style="fill:#f2f2f2"/><rect id="locale_tecnico-15" data-name="locale tecnico-15" x="70" y="1621.5" width="223.8" height="77.1" style="fill:url(#locale_tecnico-15_0000005280296)"/><rect id="locale_tecnico-16" data-name="locale tecnico-16" x="5212.4" y="1592.7" width="255.9" height="276.8" style="fill:url(#locale_tecnico-16_0000010253427)"/><polygon id="locale_tecnico-17" data-name="locale tecnico-17" points="1676.4 1161.6 1676.4 1051.4 1846.7 1051.4 1863.3 1051.4 1863.3 1051.4 1863.3 1051.4 2460.4 1051.4 2460.4 1051.4 2460.4 1051.4 2460.4 1051.4 2492.1 1051.4 3600.3 1051.4 3600.3 1146.5 3600.3 1161.6 1676.4 1161.6" style="fill:url(#locale_tecnico-16_0000010253427)"/><path id="locale_tecnico-18" data-name="locale tecnico-18" d="M1491.5,2851.3H3822.6c-225.5-53.3-321.7-350.6-321.7-350.6h-13.3v229h2.4v15.6H895.2v106.1Z" transform="translate(0 0)" style="fill:url(#locale_tecnico-16_0000010253427)"/><g class="clickable" id="P--2-28" data-name="customclass P--2-28"><polygon id="_tracciato_2" data-name=" tracciato 2" points="202.5 714.5 202.5 155.6 290 155.6 290 848.8 290 880.5 321.8 880.5 410.2 880.5 410.2 1145.6 410.2 1177.3 410.2 1381.1 310.8 1381.1 310.8 1187.6 310.8 1155.9 279.1 1155.9 202.5 1155.9 202.5 746.2 202.5 714.5" style="fill:#f2f2f2"/></g><g class="clickable" id="P--2-12" data-name="customclass P--2-12"><rect id="_tracciato_5" data-name=" tracciato 5" x="622.7" y="2746.2" width="257.4" height="105.1" style="fill:#f2f2f2"/></g><g class="clickable" id="P--2-01" data-name="customclass P--2-01"><rect x="2587.3" y="2269.8" width="491.4" height="165.8" style="fill:none"/></g><g class="clickable" id="P--2-LIFT-D" data-name="customclass P--2-LIFT-D"><rect id="a" x="31.7" y="31.7" width="155.2" height="108.3" style="fill:#f2f2f2"/></g><g class="clickable" id="P--2-STAIR-D" data-name="customclass P--2-STAIR-D"><g id="scala1"><rect x="115" y="622.9" width="78" height="3.4" style="fill:#b7b7b7"/><polygon points="71.9 384 155.2 384 155.2 462.1 151.8 462.1 151.8 387.3 75.3 387.3 75.3 511.2 71.9 511.2 71.9 384" style="fill:#b7b7b7"/><rect x="113.6" y="422.6" width="3.4" height="201.8" style="fill:#b7b7b7"/><rect x="27" y="460.8" width="116" height="3.4" style="fill:#b7b7b7"/><rect x="27" y="445.2" width="165.7" height="3.4" style="fill:#b7b7b7"/><rect x="27" y="340.6" width="165.7" height="3.4" style="fill:#b7b7b7"/><rect x="27" y="492.4" width="165.7" height="3.4" style="fill:#b7b7b7"/><rect x="27" y="508.9" width="165.7" height="3.4" style="fill:#b7b7b7"/><rect x="115" y="525" width="77.6" height="3.4" style="fill:#b7b7b7"/><rect x="115" y="541.2" width="77.6" height="3.4" style="fill:#b7b7b7"/><rect x="115" y="591.3" width="77.6" height="3.4" style="fill:#b7b7b7"/><rect x="115" y="606.8" width="79.3" height="3.4" style="fill:#b7b7b7"/><rect x="115" y="557.2" width="77.6" height="3.4" style="fill:#b7b7b7"/><rect x="115" y="573.8" width="77.6" height="3.4" style="fill:#b7b7b7"/><rect x="27" y="476.4" width="165.7" height="3.4" style="fill:#b7b7b7"/><rect x="151.99" y="452.88" width="39.6" height="3.4" transform="translate(-161.69 101.11) rotate(-22.63)" style="fill:#b7b7b7"/><rect x="147.99" y="424.98" width="3.3" height="76" transform="translate(-336.78 450.84) rotate(-70.66)" style="fill:#b7b7b7"/><rect x="151.8" y="466.3" width="3.4" height="158" style="fill:#b7b7b7"/><rect x="156.7" y="460.8" width="34.3" height="3.4" style="fill:#b7b7b7"/><rect x="149.82" y="422.65" width="3.4" height="76.4" transform="translate(-333.46 449.34) rotate(-70.44)" style="fill:#b7b7b7"/></g><polygon id="_tracciato_" data-name=" tracciato " points="31.7 714.5 31.7 155.6 186.9 155.6 186.9 714.5 170.8 714.5 31.7 714.5" style="fill:none"/></g><g class="clickable" id="P--2-STAIR-B" data-name="customclass P--2-STAIR-B"><g id="scala2"><rect x="180.2" y="2744.2" width="3.4" height="108.4" style="fill:#b7b7b7"/><rect x="182.1" y="2796.3" width="304.1" height="3.4" style="fill:#b7b7b7"/><rect x="463.2" y="2744.8" width="3.4" height="108" style="fill:#b7b7b7"/><rect x="443.8" y="2744.8" width="3.4" height="108" style="fill:#b7b7b7"/><rect x="423" y="2744.8" width="3.4" height="108" style="fill:#b7b7b7"/><rect x="361.4" y="2744.8" width="3.4" height="108" style="fill:#b7b7b7"/><rect x="338.6" y="2744.8" width="3.4" height="108" style="fill:#b7b7b7"/><rect x="316.2" y="2744.8" width="3.4" height="108" style="fill:#b7b7b7"/><rect x="293.8" y="2744.8" width="3.4" height="108" style="fill:#b7b7b7"/><rect x="224" y="2744.8" width="3.4" height="108" style="fill:#b7b7b7"/><rect x="202.5" y="2742.5" width="3.4" height="110.3" style="fill:#b7b7b7"/><rect x="271.6" y="2744.8" width="3.4" height="108" style="fill:#b7b7b7"/><rect x="248.4" y="2744.8" width="3.4" height="108" style="fill:#b7b7b7"/><polygon points="338.4 2742 341.5 2743.3 319.2 2797.2 341 2850.8 338 2852.1 315.6 2797.2 338.4 2742" style="fill:#b7b7b7"/><rect x="276.15" y="2824.91" width="60.6" height="3.4" transform="translate(-2411.73 1992.87) rotate(-66.76)" style="fill:#b7b7b7"/><rect x="182.1" y="2850.7" width="304.1" height="3.4" style="fill:#b7b7b7"/></g><rect id="_tracciato_4" data-name=" tracciato 4" x="70.5" y="2746.2" width="536.5" height="105.1" style="fill:none"/></g><g class="clickable" id="P--2-STAIR-A" data-name="customclass P--2-STAIR-A"><g id="scala3"><rect x="4931.5" y="1280.9" width="218.7" height="3.4" style="fill:#b7b7b7"/><rect x="4931.5" y="1320" width="261" height="3.4" style="fill:#b7b7b7"/><rect x="5091.6" y="1244.2" width="3.4" height="77.6" style="fill:#b7b7b7"/><rect x="5107.2" y="1244.2" width="3.4" height="77.6" style="fill:#b7b7b7"/><rect x="5060" y="1244.2" width="3.4" height="77.6" style="fill:#b7b7b7"/><rect x="5043.5" y="1244.2" width="3.4" height="77.6" style="fill:#b7b7b7"/><rect x="5027.5" y="1244.2" width="3.4" height="77.6" style="fill:#b7b7b7"/><rect x="5011.3" y="1244.2" width="3.4" height="77.6" style="fill:#b7b7b7"/><rect x="4961.1" y="1244.2" width="3.4" height="77.6" style="fill:#b7b7b7"/><rect x="4945.6" y="1242.6" width="3.4" height="79.3" style="fill:#b7b7b7"/><rect x="4995.3" y="1244.2" width="3.4" height="77.6" style="fill:#b7b7b7"/><rect x="4978.6" y="1244.2" width="3.4" height="77.6" style="fill:#b7b7b7"/><rect x="5076" y="1244.2" width="3.4" height="77.6" style="fill:#b7b7b7"/><polygon points="5061 1243 5064.1 1244.5 5046.4 1282.5 5062.7 1320.6 5059.6 1322 5042.8 1282.5 5061 1243" style="fill:#b7b7b7"/><rect x="5015.75" y="1300" width="42.3" height="3.4" transform="translate(1965.75 5500.85) rotate(-68.31)" style="fill:#b7b7b7"/><rect x="4929.6" y="1243.9" width="3.4" height="78" style="fill:#b7b7b7"/></g><polygon id="_tracciato_3" data-name=" tracciato 3" points="4933.1 1312.1 4933.1 1245.4 5180.6 1245.4 5180.6 1436.1 4933.1 1436.1 4933.1 1343.8 4933.1 1328.2 4933.1 1312.1" style="fill:none"/></g></g><g id="auto"><path d="M3731.6,2600.9a3.72,3.72,0,0,1,2.8,1.3h0c.2.2,17.9,21.2,49.9,43.4a3.69,3.69,0,0,1-4.2,6c-32.9-22.8-50.6-43.8-51.3-44.7a3.63,3.63,0,0,1,.4-5.1,2.72,2.72,0,0,1,2.4-.9Zm109.3,76.3a4,4,0,0,1,1.5.3,292.33,292.33,0,0,0,63.5,18.4,3.64,3.64,0,0,1,3,4.2h0a3.69,3.69,0,0,1-4.2,3h0a296.24,296.24,0,0,1-65.1-19,3.62,3.62,0,0,1-2.1-4.7h0a3.37,3.37,0,0,1,3.4-2.2Zm332.8,20.7a3.7,3.7,0,1,1,0,7.4l-67.2.6a3.72,3.72,0,0,1-3.6-3.9,3.86,3.86,0,0,1,3.5-3.6l67.1-.6Zm-134.3,1.4a3.76,3.76,0,0,1,3.9,3.5,3.69,3.69,0,0,1-3.5,3.9h-.4c-25.2.2-47.8.4-67.2.6h0a3.71,3.71,0,0,1,0-7.4c19.4-.2,42-.4,67.2-.6Z" transform="translate(0 0)" style="fill:#fff"/><path d="M4203.1,2669.3a4.1,4.1,0,0,1,2.2.7l40.8,30.2a3.67,3.67,0,0,1,.8,5.1h0a5.24,5.24,0,0,1-1.1,1l-39.4,24.6a3.67,3.67,0,0,1-4.1-6.1l.3-.2h0l34.7-21.6-36.4-26.9a3.77,3.77,0,0,1-.9-5.1,3.26,3.26,0,0,1,3.1-1.7Z" transform="translate(0 0)" style="fill:#fff"/><polygon points="5181.1 2507.4 4941.2 2508.3 4939.8 2800.1 5181.1 2776.9 5181.1 2507.4" style="fill:url(#locale_tecnico-16_0000010253427)"/><polygon points="4594.3 2501.1 4256.5 2553.6 4257.9 2861.6 4594.3 2830.3 4594.3 2501.1" style="fill:url(#SVGID_0000001462812809247621592)"/><path d="M3505.1,2500c.3.7,26,75.5,78.8,155.8,48.6,73.9,130.8,167.7,246.1,194.9l-1.6,6.5c-52-12.3-101.7-38.7-147.7-78.4-36.8-31.7-71.2-71.9-102.6-119.5-53.3-81-79.3-156.5-79.6-157.3Z" transform="translate(0 0)" style="fill:#b7b7b7"/><rect x="4936.9" y="2502.1" width="6.7" height="310.8" style="fill:#b7b7b7"/><path d="M4594.3,2498.7c-66.7,60.6-245.6,55.8-245.6,55.8s-286.3,3.3-379,3.3-140.1-57.8-140.1-57.8Z" transform="translate(0 0)" style="fill:url(#SVGID_0000009386631363161075984)"/><path d="M3830.6,2495.9l2.2,2.7c.1.1,11.8,13.9,34.5,27.6,20.9,12.6,55.6,27.5,102.6,27.5,91.7,0,376.1-3.3,379-3.3h.2a737.23,737.23,0,0,0,97.4-3.8c68.7-7.3,119.1-24.1,145.8-48.3l4.5,4.9c-15.6,14.1-38.4,25.8-67.8,34.6-23.4,7-50.9,12.2-81.9,15.5a748.68,748.68,0,0,1-98.2,3.8c-6.3.1-287.8,3.3-379,3.3-48.7,0-84.7-15.6-106.3-28.6a167.43,167.43,0,0,1-33.6-26.3L3611.7,2699l-4.5-5Z" transform="translate(0 0)" style="fill:#b7b7b7"/><rect x="3484.3" y="2498.3" width="1111.9" height="4.8" style="fill:#b7b7b7"/><rect x="4591" y="2501.1" width="6.7" height="338.8" style="fill:#b7b7b7"/><rect x="4253.1" y="2553.6" width="6.7" height="304.2" style="fill:#b7b7b7"/></g><g id="linee-parcheggi"><rect x="3460.4" y="2503" width="5.5" height="228.6" style="fill:#fff"/><rect x="2836.4" y="2500.2" width="362.4" height="5.5" style="fill:#fff"/><rect x="2447.7" y="2500.2" width="363.9" height="5.5" style="fill:#fff"/><rect x="2058.8" y="2500.2" width="363.9" height="5.5" style="fill:#fff"/><rect x="1668.5" y="2500.2" width="363.9" height="5.5" style="fill:#fff"/><rect x="1281.3" y="2500.2" width="363.9" height="5.5" style="fill:#fff"/><rect x="890.9" y="2500.2" width="363.9" height="5.5" style="fill:#fff"/><rect x="443.7" y="2500.2" width="156.5" height="5.5" style="fill:#fff"/><rect x="623.4" y="2500.2" width="156.5" height="5.5" style="fill:#fff"/><rect x="3223.7" y="2500.2" width="239.4" height="5.5" style="fill:#fff"/><rect x="4646.8" y="2500.2" width="243.8" height="5.5" style="fill:#fff"/><rect x="4646.8" y="2749.7" width="243.8" height="5.5" style="fill:#fff"/><rect x="4887.9" y="2503" width="5.5" height="249.5" style="fill:#fff"/><rect x="4644" y="2503" width="5.5" height="249.5" style="fill:#fff"/><rect x="4765.9" y="2503" width="5.5" height="249.5" style="fill:#fff"/><rect x="3340.7" y="2503" width="5.5" height="228.6" style="fill:#fff"/><rect x="3221" y="2503" width="5.5" height="228.6" style="fill:#fff"/><rect x="3196.1" y="2503" width="5.5" height="228.6" style="fill:#fff"/><rect x="3074.8" y="2503" width="5.5" height="228.6" style="fill:#fff"/><rect x="2951.9" y="2503" width="5.5" height="228.6" style="fill:#fff"/><rect x="2833.7" y="2503" width="5.5" height="228.6" style="fill:#fff"/><rect x="2808.9" y="2503" width="5.5" height="228.6" style="fill:#fff"/><rect x="2564.6" y="2503" width="5.5" height="228.6" style="fill:#fff"/><rect x="2444.9" y="2503" width="5.5" height="228.6" style="fill:#fff"/><rect x="2420" y="2503" width="5.5" height="228.6" style="fill:#fff"/><rect x="2297.2" y="2503" width="5.5" height="228.6" style="fill:#fff"/><rect x="2179.5" y="2503" width="5.5" height="228.6" style="fill:#fff"/><rect x="2056.1" y="2503" width="5.5" height="228.6" style="fill:#fff"/><rect x="2029.7" y="2503" width="5.5" height="228.6" style="fill:#fff"/><rect x="1910" y="2503" width="5.5" height="228.6" style="fill:#fff"/><rect x="1787" y="2503" width="5.5" height="228.6" style="fill:#fff"/><rect x="1665.8" y="2503" width="5.5" height="228.6" style="fill:#fff"/><rect x="1642.5" y="2503" width="5.5" height="228.6" style="fill:#fff"/><rect x="1519.6" y="2503" width="5.5" height="228.6" style="fill:#fff"/><rect x="1399.8" y="2503" width="5.5" height="228.6" style="fill:#fff"/><rect x="1278.6" y="2503" width="5.5" height="228.6" style="fill:#fff"/><rect x="1252.1" y="2503" width="5.5" height="228.6" style="fill:#fff"/><rect x="1130.8" y="2503" width="5.5" height="228.6" style="fill:#fff"/><rect x="1009.5" y="2503" width="5.5" height="228.6" style="fill:#fff"/><rect x="887.6" y="2503" width="5.5" height="228.6" style="fill:#fff"/><rect x="777.5" y="2503" width="5.5" height="228.6" style="fill:#fff"/><rect x="620.7" y="2503" width="5.5" height="228.6" style="fill:#fff"/><rect x="597.4" y="2503" width="5.5" height="228.6" style="fill:#fff"/><rect x="440.9" y="2503" width="5.5" height="228.6" style="fill:#fff"/><rect x="2685.9" y="2503" width="5.5" height="228.6" style="fill:#fff"/><rect x="4934.3" y="1498.6" width="246.4" height="5.5" style="fill:#fff"/><rect x="4934.3" y="1636.3" width="246.4" height="5.5" style="fill:#fff"/><rect x="4934.3" y="1619.2" width="246.4" height="5.5" style="fill:#fff"/><rect x="4934.3" y="1756.8" width="246.4" height="5.5" style="fill:#fff"/><rect x="4934.3" y="1782.3" width="246.4" height="5.5" style="fill:#fff"/><rect x="4934.3" y="1902.7" width="246.4" height="5.5" style="fill:#fff"/><rect x="4934.3" y="2023.3" width="246.4" height="5.5" style="fill:#fff"/><rect x="4934.3" y="2143.7" width="246.4" height="5.5" style="fill:#fff"/><rect x="4934.3" y="2170.9" width="246.4" height="5.5" style="fill:#fff"/><rect x="4934.3" y="2291.5" width="246.4" height="5.5" style="fill:#fff"/><rect x="4934.3" y="2412.1" width="246.4" height="5.5" style="fill:#fff"/><rect x="4931.6" y="1639.1" width="5.5" height="120.4" style="fill:#fff"/><rect x="4931.6" y="1501.5" width="5.5" height="120.4" style="fill:#fff"/><rect x="4931.6" y="1785" width="5.5" height="361.4" style="fill:#fff"/><rect x="4931.6" y="2173.6" width="5.5" height="241.3" style="fill:#fff"/><rect x="4569.3" y="1724" width="5.5" height="485.3" style="fill:#fff"/><rect x="4447.3" y="1724" width="5.5" height="485.3" style="fill:#fff"/><rect x="4206" y="1963.9" width="366" height="5.5" style="fill:#fff"/><rect x="4206" y="1721.2" width="366" height="5.5" style="fill:#fff"/><rect x="4206" y="2206.5" width="366" height="5.5" style="fill:#fff"/><rect x="3814.7" y="2206.5" width="366" height="5.5" style="fill:#fff"/><rect x="3234.3" y="2206.5" width="243.5" height="5.5" style="fill:#fff"/><rect x="2847.6" y="2206.5" width="361.4" height="5.5" style="fill:#fff"/><rect x="2847.6" y="1963.9" width="361.4" height="5.5" style="fill:#fff"/><rect x="2847.6" y="1721.2" width="361.4" height="5.5" style="fill:#fff"/><rect x="3234.3" y="1963.9" width="243.5" height="5.5" style="fill:#fff"/><rect x="3234.3" y="1721.2" width="243.5" height="5.5" style="fill:#fff"/><rect x="3814.7" y="1963.9" width="366" height="5.5" style="fill:#fff"/><rect x="3814.7" y="1721.2" width="366" height="5.5" style="fill:#fff"/><rect x="4325.3" y="1724" width="5.5" height="485.3" style="fill:#fff"/><rect x="4203.3" y="1724" width="5.5" height="485.3" style="fill:#fff"/><rect x="4178" y="1724" width="5.5" height="485.3" style="fill:#fff"/><rect x="4056" y="1724" width="5.5" height="485.3" style="fill:#fff"/><rect x="3934" y="1724" width="5.5" height="485.3" style="fill:#fff"/><rect x="3812" y="1724" width="5.5" height="485.3" style="fill:#fff"/><rect x="3475" y="1724" width="5.5" height="485.3" style="fill:#fff"/><rect x="3353.3" y="1724" width="5.5" height="485.3" style="fill:#fff"/><rect x="3231.5" y="1724" width="5.5" height="485.3" style="fill:#fff"/><rect x="3206.3" y="1724" width="5.5" height="485.3" style="fill:#fff"/><rect x="3085.9" y="1724" width="5.5" height="485.3" style="fill:#fff"/><rect x="2965.3" y="1724" width="5.5" height="485.3" style="fill:#fff"/><rect x="2844.9" y="1724" width="5.5" height="485.3" style="fill:#fff"/><rect x="2458.1" y="2206.5" width="361.4" height="5.5" style="fill:#fff"/><rect x="2458.1" y="1963.9" width="361.4" height="5.5" style="fill:#fff"/><rect x="2458.1" y="1721.2" width="361.4" height="5.5" style="fill:#fff"/><rect x="2816.8" y="1724" width="5.5" height="485.3" style="fill:#fff"/><rect x="2696.4" y="1724" width="5.5" height="485.3" style="fill:#fff"/><rect x="2575.9" y="1724" width="5.5" height="485.3" style="fill:#fff"/><rect x="2455.4" y="1724" width="5.5" height="485.3" style="fill:#fff"/><rect x="2071.5" y="2206.5" width="361.4" height="5.5" style="fill:#fff"/><rect x="2071.5" y="1963.9" width="361.4" height="5.5" style="fill:#fff"/><rect x="2071.5" y="1721.2" width="361.4" height="5.5" style="fill:#fff"/><rect x="2430.2" y="1724" width="5.5" height="485.3" style="fill:#fff"/><rect x="2309.7" y="1724" width="5.5" height="485.3" style="fill:#fff"/><rect x="2189.3" y="1724" width="5.5" height="485.3" style="fill:#fff"/><rect x="2068.7" y="1724" width="5.5" height="485.3" style="fill:#fff"/><rect x="1682.1" y="2206.5" width="361.4" height="5.5" style="fill:#fff"/><rect x="1682.1" y="1963.9" width="361.4" height="5.5" style="fill:#fff"/><rect x="1682.1" y="1721.2" width="361.4" height="5.5" style="fill:#fff"/><rect x="2040.8" y="1724" width="5.5" height="485.3" style="fill:#fff"/><rect x="1920.3" y="1724" width="5.5" height="485.3" style="fill:#fff"/><rect x="1799.8" y="1724" width="5.5" height="485.3" style="fill:#fff"/><rect x="1679.3" y="1724" width="5.5" height="485.3" style="fill:#fff"/><rect x="1294.5" y="2206.5" width="361.4" height="5.5" style="fill:#fff"/><rect x="1294.5" y="1963.9" width="361.4" height="5.5" style="fill:#fff"/><rect x="1294.5" y="1721.2" width="361.4" height="5.5" style="fill:#fff"/><rect x="1653.2" y="1724" width="5.5" height="485.3" style="fill:#fff"/><rect x="1532.7" y="1724" width="5.5" height="485.3" style="fill:#fff"/><rect x="1412.2" y="1724" width="5.5" height="485.3" style="fill:#fff"/><rect x="1291.8" y="1724" width="5.5" height="485.3" style="fill:#fff"/><rect x="904.1" y="2206.5" width="361.4" height="5.5" style="fill:#fff"/><rect x="904.1" y="1963.9" width="361.4" height="5.5" style="fill:#fff"/><rect x="904.1" y="1721.2" width="361.4" height="5.5" style="fill:#fff"/><rect x="1262.8" y="1724" width="5.5" height="485.3" style="fill:#fff"/><rect x="1142.3" y="1724" width="5.5" height="485.3" style="fill:#fff"/><rect x="1021.8" y="1724" width="5.5" height="485.3" style="fill:#fff"/><rect x="901.4" y="1724" width="5.5" height="485.3" style="fill:#fff"/><rect x="636.1" y="2206.5" width="241" height="5.5" style="fill:#fff"/><rect x="636.1" y="1963.9" width="241" height="5.5" style="fill:#fff"/><rect x="636.1" y="1721.2" width="241" height="5.5" style="fill:#fff"/><rect x="874.3" y="1724" width="5.5" height="485.3" style="fill:#fff"/><rect x="753.8" y="1724" width="5.5" height="485.3" style="fill:#fff"/><rect x="633.3" y="1724" width="5.5" height="485.3" style="fill:#fff"/><rect x="1682.1" y="1430.1" width="350.1" height="5.5" style="fill:#fff"/><rect x="2056.5" y="1430.1" width="364.2" height="5.5" style="fill:#fff"/><rect x="1786.5" y="1178.3" width="5.5" height="254.6" style="fill:#fff"/><rect x="1679.3" y="1178.3" width="5.5" height="254.6" style="fill:#fff"/><rect x="1907.9" y="1178.3" width="5.5" height="254.6" style="fill:#fff"/><rect x="2029.4" y="1178.3" width="5.5" height="254.6" style="fill:#fff"/><rect x="2053.8" y="1178.3" width="5.5" height="254.6" style="fill:#fff"/><rect x="2175.2" y="1178.3" width="5.5" height="254.6" style="fill:#fff"/><rect x="2296.5" y="1178.3" width="5.5" height="254.6" style="fill:#fff"/><rect x="2418" y="1178.3" width="5.5" height="254.6" style="fill:#fff"/><rect x="2445.5" y="1430.1" width="364.2" height="5.5" style="fill:#fff"/><rect x="2833.1" y="1430.1" width="364.2" height="5.5" style="fill:#fff"/><rect x="3223" y="1430.1" width="364.2" height="5.5" style="fill:#fff"/><rect x="3611" y="1430.1" width="364.2" height="5.5" style="fill:#fff"/><rect x="4000.1" y="1430.1" width="375.6" height="5.5" style="fill:#fff"/><rect x="2830.3" y="1178.3" width="5.5" height="254.6" style="fill:#fff"/><rect x="2806.9" y="1178.3" width="5.5" height="254.6" style="fill:#fff"/><rect x="2442.7" y="1178.3" width="5.5" height="254.6" style="fill:#fff"/><rect x="2564.2" y="1178.3" width="5.5" height="254.6" style="fill:#fff"/><rect x="2685.6" y="1178.3" width="5.5" height="254.6" style="fill:#fff"/><rect x="2951.8" y="1178.3" width="5.5" height="254.6" style="fill:#fff"/><rect x="3073.1" y="1178.3" width="5.5" height="254.6" style="fill:#fff"/><rect x="3194.5" y="1178.3" width="5.5" height="254.6" style="fill:#fff"/><rect x="3220.2" y="1178.3" width="5.5" height="254.6" style="fill:#fff"/><rect x="3341.6" y="1178.3" width="5.5" height="254.6" style="fill:#fff"/><rect x="3463.1" y="1178.3" width="5.5" height="254.6" style="fill:#fff"/><rect x="3584.4" y="1178.3" width="5.5" height="254.6" style="fill:#fff"/><rect x="3608.3" y="1178.3" width="5.5" height="254.6" style="fill:#fff"/><rect x="3729.7" y="1178.3" width="5.5" height="254.6" style="fill:#fff"/><rect x="3851.1" y="1178.3" width="5.5" height="254.6" style="fill:#fff"/><rect x="3972.5" y="1178.3" width="5.5" height="254.6" style="fill:#fff"/><rect x="3997.3" y="1178.3" width="5.5" height="254.6" style="fill:#fff"/><rect x="4122.5" y="1178.3" width="5.5" height="254.6" style="fill:#fff"/><rect x="4251" y="1178.3" width="5.5" height="254.6" style="fill:#fff"/><rect x="4372.9" y="1178.3" width="5.5" height="254.6" style="fill:#fff"/><rect x="602.8" y="1178.3" width="5.5" height="254.6" style="fill:#fff"/><rect x="435.2" y="1178.3" width="5.5" height="254.6" style="fill:#fff"/><rect x="629.4" y="1178.3" width="5.5" height="254.6" style="fill:#fff"/><rect x="745" y="1178.3" width="5.5" height="254.6" style="fill:#fff"/><rect x="864.5" y="1178.3" width="5.5" height="254.6" style="fill:#fff"/><rect x="632.1" y="1430.1" width="231.1" height="5.5" style="fill:#fff"/><rect x="438" y="1430.1" width="167.6" height="5.5" style="fill:#fff"/><rect x="70.4" y="2538.7" width="237.4" height="5.5" style="fill:#fff"/><rect x="305.1" y="2178.4" width="5.5" height="363.1" style="fill:#fff"/><rect x="305.1" y="1790.4" width="5.5" height="363.1" style="fill:#fff"/><rect x="70.4" y="2298.5" width="237.4" height="5.5" style="fill:#fff"/><rect x="70.4" y="2424.3" width="237.4" height="5.5" style="fill:#fff"/><rect x="70.4" y="2175.6" width="237.4" height="5.5" style="fill:#fff"/><rect x="70.4" y="2150.8" width="237.4" height="5.5" style="fill:#fff"/><rect x="70.4" y="2029" width="237.4" height="5.5" style="fill:#fff"/><rect x="70.4" y="1907.4" width="237.4" height="5.5" style="fill:#fff"/><rect x="70.4" y="1785.8" width="237.4" height="5.5" style="fill:#fff"/></g><g id="walls"><path d="M31.7,746.2H170.8v441.5H279.2v402.7H38.8V2883H4353.6l352.3-31.7,474.8-42.7,31.7-2.8V1901.3H5500V1561H5212.4V1213.7H4901.5v98.4H4424.6v-167h-793V1019.7H1643.8v334H907V1145.6H441.9V848.8H321.8V0H0V746.2Zm0-590.5H186.9V640.2h15.6V155.6h13.8V140H202.5V122.5H186.9V140H31.7V31.7H186.9V56.8h15.6V31.7H290V140.1h-8v15.6h8V880.6H410.2v500.6H388.9v15.6h36.9V1177.3H875.3v208.3h800.2v-334H3599.7V1177h793v167h524.8v12.8h15.6V1245.6h247.5v190.7H4933.1v-13.8h-15.6v29.3h263.1v141.1h287.6v276.8H5180.6v907.2l-828.5,74.5H895.7V2730.8H863.5v15.6h16.6v105.1H622.7v-14.7H607.1v14.7H70.5V2746.4H607V2771h15.6v-24.6H797.7v-15.6H70.5V1622H310.9V1396.8h12.3v-15.6H310.9V1156H202.5V706H186.9v8.5H31.7Z" transform="translate(0 0)" style="fill:#b7b7b7"/><polygon points="5212.8 1872.3 5180.6 1872.3 5180.6 1589.9 5212.4 1589.9 5212.8 1872.3" style="fill:#b7b7b7"/><polyline points="1668.8 1176.7 1668.8 1176.7 3604.5 1176.7 3604.5 1161.1 1668.8 1161.1 1668.8 1176.7" style="fill:#b7b7b7"/><polyline points="278.9 1622 293.8 1622 293.8 1698.7 70.5 1698.7 70.5 1622 70.5 2585.8 70.5 1715.3 293.8 1715.3 310.6 1715.3 310.6 1698.7 310.6 1622 310.6 1610.7" style="fill:#b7b7b7"/><polygon points="310.3 1610.7 310.9 1610.7 310.9 1715.5 70.9 1715.5 70.9 2585.8 70.1 2585.8 70.1 1622 70.9 1622 70.9 1698.3 293.5 1698.3 293.5 1622.3 278.9 1622.3 278.9 1621.7 294.2 1621.7 294.2 1699 70.9 1699 70.9 1714.9 310.3 1714.9 310.3 1610.7" style="fill:#b7b7b7"/><polyline points="863.5 2746.2 3469.8 2746.2 3483.4 2746.2 3483.4 2730.7 3469.8 2730.7 863.5 2730.7" style="fill:#b7b7b7"/><polygon points="863.5 2730.3 3483.7 2730.3 3483.7 2746.6 863.5 2746.6 863.5 2745.9 3483.1 2745.9 3483.1 2730.9 863.5 2730.9 863.5 2730.3" style="fill:#b7b7b7"/><rect x="3474.6" y="2499" width="15.6" height="247.2" style="fill:#b7b7b7"/><path d="M3474.3,2498.6h16.3v247.9h-16.3Zm15.5.8h-14.9V2746h14.9Z" transform="translate(0 0)" style="fill:#b7b7b7"/><polygon points="4939.1 2513.8 5186.4 2513.8 5186.4 2498.2 4939.2 2498.2 4939.1 2513.8" style="fill:#b7b7b7"/><path d="M4938.8,2497.8h247.9v16.3h-248Zm247.2.8H4939.4l-.1,14.9H5186Z" transform="translate(0 0)" style="fill:#b7b7b7"/></g></g></svg>