<?xml version="1.0" encoding="utf-8"?>
<!-- Generator: Adobe Illustrator 25.4.1, SVG Export Plug-In . SVG Version: 6.00 Build 0)  -->
<svg version="1.1" id="Livello_1" xmlns="http://www.w3.org/2000/svg" xmlns:xlink="http://www.w3.org/1999/xlink" x="0px" y="0px"
	 viewBox="0 0 5500 3575.6" style="enable-background:new 0 0 5500 3575.6;" xml:space="preserve">
<style type="text/css">
	.st0{fill:none;}
	.st1{fill:#F2F2F2;}
	.st2{fill:none;stroke:#DDDDDD;stroke-width:20;stroke-linecap:square;stroke-linejoin:round;}
	.st3{fill:url(#locale_tecnico-15_00000055708945924537499980000015189071621716036278_);}
	.st4{fill:url(#locale_tecnico-16_00000012467098337868133920000006789198888053541532_);}
	.st5{fill:url(#locale_tecnico-17_00000005237101136447758070000011988136916772992691_);}
	.st6{fill:url(#locale_tecnico-18_00000042711770240193783600000009852893856617174201_);}
	.st7{fill:#B7B7B7;}
	.st8{fill:#FFFFFF;}
	.st9{fill:url(#SVGID_1_);}
	.st10{fill:url(#SVGID_00000013167180541320815540000014381142945790775959_);}
	.st11{fill:url(#SVGID_00000140710932669703677270000011875742679424056761_);}
</style>
<pattern  y="3575.6" width="40.2" height="40.2" patternUnits="userSpaceOnUse" id="SVGID_2_" viewBox="54.3 -94.5 40.2 40.2" style="overflow:visible;">
	<g>
		<rect x="54.3" y="-94.5" class="st0" width="40.2" height="40.2"/>
		<rect x="54.3" y="-94.5" class="st0" width="40.2" height="40.2"/>
		<rect x="54.3" y="-94.5" class="st0" width="40.2" height="40.2"/>
		<rect x="54.3" y="-94.5" class="st0" width="40.2" height="40.2"/>
		<rect x="54.3" y="-94.5" class="st0" width="40.2" height="40.2"/>
		<rect x="54.3" y="-94.5" class="st0" width="40.2" height="40.2"/>
		<rect x="54.3" y="-94.5" class="st0" width="40.2" height="40.2"/>
		<rect x="54.3" y="-94.5" class="st0" width="40.2" height="40.2"/>
		<rect x="54.3" y="-94.5" class="st0" width="40.2" height="40.2"/>
		<rect x="91.7" y="-57.9" class="st1" width="42.3" height="40.9"/>
		<line class="st2" x1="94.5" y1="-54.3" x2="134.7" y2="-14.1"/>
		<rect x="51.5" y="-57.9" class="st1" width="42.3" height="40.9"/>
		<line class="st2" x1="54.3" y1="-54.3" x2="94.5" y2="-14.1"/>
		<line class="st2" x1="14.1" y1="-54.3" x2="54.3" y2="-14.1"/>
		<rect x="91.7" y="-98" class="st1" width="42.3" height="40.9"/>
		<line class="st2" x1="94.5" y1="-94.5" x2="134.7" y2="-54.3"/>
		<rect x="51.5" y="-98" class="st1" width="42.3" height="40.9"/>
		<line class="st2" x1="54.3" y1="-94.5" x2="94.5" y2="-54.3"/>
		<line class="st2" x1="14.1" y1="-94.5" x2="54.3" y2="-54.3"/>
		<line class="st2" x1="94.5" y1="-134.7" x2="134.7" y2="-94.5"/>
		<line class="st2" x1="54.3" y1="-134.7" x2="94.5" y2="-94.5"/>
		<line class="st2" x1="14.1" y1="-134.7" x2="54.3" y2="-94.5"/>
	</g>
</pattern>
<pattern  y="3575.6" width="40.2" height="40.2" patternUnits="userSpaceOnUse" id="SVGID_3_" viewBox="54.3 -94.5 40.2 40.2" style="overflow:visible;">
	<g>
		<rect x="54.3" y="-94.5" class="st0" width="40.2" height="40.2"/>
		<rect x="54.3" y="-94.5" class="st0" width="40.2" height="40.2"/>
		<rect x="54.3" y="-94.5" class="st0" width="40.2" height="40.2"/>
		<rect x="54.3" y="-94.5" class="st0" width="40.2" height="40.2"/>
		<rect x="54.3" y="-94.5" class="st0" width="40.2" height="40.2"/>
		<rect x="54.3" y="-94.5" class="st0" width="40.2" height="40.2"/>
		<rect x="54.3" y="-94.5" class="st0" width="40.2" height="40.2"/>
		<rect x="54.3" y="-94.5" class="st0" width="40.2" height="40.2"/>
		<rect x="54.3" y="-94.5" class="st0" width="40.2" height="40.2"/>
		<rect x="91.7" y="-57.9" class="st1" width="42.3" height="40.9"/>
		<line class="st2" x1="94.5" y1="-54.3" x2="134.7" y2="-14.1"/>
		<rect x="51.5" y="-57.9" class="st1" width="42.3" height="40.9"/>
		<line class="st2" x1="54.3" y1="-54.3" x2="94.5" y2="-14.1"/>
		<line class="st2" x1="14.1" y1="-54.3" x2="54.3" y2="-14.1"/>
		<rect x="91.7" y="-98" class="st1" width="42.3" height="40.9"/>
		<line class="st2" x1="94.5" y1="-94.5" x2="134.7" y2="-54.3"/>
		<rect x="51.5" y="-98" class="st1" width="42.3" height="40.9"/>
		<line class="st2" x1="54.3" y1="-94.5" x2="94.5" y2="-54.3"/>
		<line class="st2" x1="14.1" y1="-94.5" x2="54.3" y2="-54.3"/>
		<line class="st2" x1="94.5" y1="-134.7" x2="134.7" y2="-94.5"/>
		<line class="st2" x1="54.3" y1="-134.7" x2="94.5" y2="-94.5"/>
		<line class="st2" x1="14.1" y1="-134.7" x2="54.3" y2="-94.5"/>
	</g>
</pattern>
<pattern  y="3575.6" width="40.2" height="40.2" patternUnits="userSpaceOnUse" id="locale_tecnico-15_1_" viewBox="54.3 -94.5 40.2 40.2" style="overflow:visible;">
	<g>
		<rect x="54.3" y="-94.5" class="st0" width="40.2" height="40.2"/>
		<rect x="54.3" y="-94.5" class="st0" width="40.2" height="40.2"/>
		<rect x="54.3" y="-94.5" class="st0" width="40.2" height="40.2"/>
		<rect x="54.3" y="-94.5" class="st0" width="40.2" height="40.2"/>
		<rect x="54.3" y="-94.5" class="st0" width="40.2" height="40.2"/>
		<rect x="54.3" y="-94.5" class="st0" width="40.2" height="40.2"/>
		<rect x="54.3" y="-94.5" class="st0" width="40.2" height="40.2"/>
		<rect x="54.3" y="-94.5" class="st0" width="40.2" height="40.2"/>
		<rect x="54.3" y="-94.5" class="st0" width="40.2" height="40.2"/>
		<rect x="91.7" y="-57.9" class="st1" width="42.3" height="40.9"/>
		<line class="st2" x1="94.5" y1="-54.3" x2="134.7" y2="-14.1"/>
		<rect x="51.5" y="-57.9" class="st1" width="42.3" height="40.9"/>
		<line class="st2" x1="54.3" y1="-54.3" x2="94.5" y2="-14.1"/>
		<line class="st2" x1="14.1" y1="-54.3" x2="54.3" y2="-14.1"/>
		<rect x="91.7" y="-98" class="st1" width="42.3" height="40.9"/>
		<line class="st2" x1="94.5" y1="-94.5" x2="134.7" y2="-54.3"/>
		<rect x="51.5" y="-98" class="st1" width="42.3" height="40.9"/>
		<line class="st2" x1="54.3" y1="-94.5" x2="94.5" y2="-54.3"/>
		<line class="st2" x1="14.1" y1="-94.5" x2="54.3" y2="-54.3"/>
		<line class="st2" x1="94.5" y1="-134.7" x2="134.7" y2="-94.5"/>
		<line class="st2" x1="54.3" y1="-134.7" x2="94.5" y2="-94.5"/>
		<line class="st2" x1="14.1" y1="-134.7" x2="54.3" y2="-94.5"/>
	</g>
</pattern>
<pattern  y="3575.6" width="40.2" height="40.2" patternUnits="userSpaceOnUse" id="locale_tecnico-16_1_" viewBox="54.3 -94.5 40.2 40.2" style="overflow:visible;">
	<g>
		<rect x="54.3" y="-94.5" class="st0" width="40.2" height="40.2"/>
		<rect x="54.3" y="-94.5" class="st0" width="40.2" height="40.2"/>
		<rect x="54.3" y="-94.5" class="st0" width="40.2" height="40.2"/>
		<rect x="54.3" y="-94.5" class="st0" width="40.2" height="40.2"/>
		<rect x="54.3" y="-94.5" class="st0" width="40.2" height="40.2"/>
		<rect x="54.3" y="-94.5" class="st0" width="40.2" height="40.2"/>
		<rect x="54.3" y="-94.5" class="st0" width="40.2" height="40.2"/>
		<rect x="54.3" y="-94.5" class="st0" width="40.2" height="40.2"/>
		<rect x="54.3" y="-94.5" class="st0" width="40.2" height="40.2"/>
		<rect x="91.7" y="-57.9" class="st1" width="42.3" height="40.9"/>
		<line class="st2" x1="94.5" y1="-54.3" x2="134.7" y2="-14.1"/>
		<rect x="51.5" y="-57.9" class="st1" width="42.3" height="40.9"/>
		<line class="st2" x1="54.3" y1="-54.3" x2="94.5" y2="-14.1"/>
		<line class="st2" x1="14.1" y1="-54.3" x2="54.3" y2="-14.1"/>
		<rect x="91.7" y="-98" class="st1" width="42.3" height="40.9"/>
		<line class="st2" x1="94.5" y1="-94.5" x2="134.7" y2="-54.3"/>
		<rect x="51.5" y="-98" class="st1" width="42.3" height="40.9"/>
		<line class="st2" x1="54.3" y1="-94.5" x2="94.5" y2="-54.3"/>
		<line class="st2" x1="14.1" y1="-94.5" x2="54.3" y2="-54.3"/>
		<line class="st2" x1="94.5" y1="-134.7" x2="134.7" y2="-94.5"/>
		<line class="st2" x1="54.3" y1="-134.7" x2="94.5" y2="-94.5"/>
		<line class="st2" x1="14.1" y1="-134.7" x2="54.3" y2="-94.5"/>
	</g>
</pattern>
<g id="P-floor-2">
	<g id="background">
		<polygon class="st1" points="31.7,746.2 170.8,746.2 170.8,1155.9 170.8,1187.6 202.5,1187.6 279.1,1187.6 279.1,1381.1 
			279.1,1396.8 279.1,1591.2 38.8,1591.2 38.8,1633.3 38.8,2730.7 38.8,2746.2 38.8,2851.3 38.8,2883 70.5,2883 607,2883 
			622.7,2883 880.1,2883 895.7,2883 3999.9,2883 4353.5,2883 4705.8,2851.3 5180.6,2808.6 5212.4,2805.7 5212.4,2773.8 
			5212.4,1901.2 5468.3,1901.2 5500,1901.2 5500,1869.4 5500,1592.7 5500,1561 5468.3,1561 5212.4,1561 5212.4,1451.6 
			5212.4,1436.1 5212.4,1245.4 5212.4,1213.7 5180.6,1213.7 4933.1,1213.7 4901.4,1213.7 4901.4,1245.4 4901.4,1312.1 
			4424.5,1312.1 4424.5,1176.7 4424.5,1145.1 4392.8,1145.1 3631.5,1145.1 3631.5,1051.4 3631.5,1019.7 3599.8,1019.7 
			1675.5,1019.7 1643.8,1019.7 1643.8,1051.4 1643.8,1353.7 907,1353.7 907,1177.3 907,1145.6 875.3,1145.6 441.9,1145.6 
			441.9,880.5 441.9,848.8 410.2,848.8 321.8,848.8 321.8,155.6 321.8,140.1 321.8,31.7 321.8,0 290,0 31.7,0 0,0 0,31.7 0,140.1 
			0,155.6 0,714.5 0,746.2 		"/>
	</g>
	<g id="rooms">
		<rect id="senza_codice" x="202.5" y="31.7" class="st1" width="87.5" height="108.3"/>
		
			<pattern  id="locale_tecnico-15_00000052802966546937903300000004660006644671577216_" xlink:href="#locale_tecnico-15_1_" patternTransform="matrix(-0.48 0 0 -0.48 -28292.9512 -27864.1191)">
		</pattern>
		
			<rect id="locale_tecnico-15" x="70" y="1621.5" style="fill:url(#locale_tecnico-15_00000052802966546937903300000004660006644671577216_);" width="223.8" height="77.1"/>
		
			<pattern  id="locale_tecnico-16_00000102534275944301936380000006262681461680685713_" xlink:href="#locale_tecnico-16_1_" patternTransform="matrix(-0.48 0 0 -0.48 -28292.9512 -27863.1797)">
		</pattern>
		
			<rect id="locale_tecnico-16" x="5212.4" y="1592.7" style="fill:url(#locale_tecnico-16_00000102534275944301936380000006262681461680685713_);" width="255.9" height="276.8"/>
		
			<pattern  id="locale_tecnico-17_00000109727813105145943990000015273723999328550833_" xlink:href="#locale_tecnico-16_1_" patternTransform="matrix(-0.48 0 0 -0.48 -28292.9512 -27863.1797)">
		</pattern>
		
			<polygon id="locale_tecnico-17" style="fill:url(#locale_tecnico-17_00000109727813105145943990000015273723999328550833_);" points="
			1676.4,1161.6 1676.4,1051.4 1846.7,1051.4 1863.3,1051.4 1863.3,1051.4 1863.3,1051.4 2460.4,1051.4 2460.4,1051.4 
			2460.4,1051.4 2460.4,1051.4 2492.1,1051.4 3600.3,1051.4 3600.3,1146.5 3600.3,1161.6 		"/>
		
			<pattern  id="locale_tecnico-18_00000112593002777109348710000011806181298282733221_" xlink:href="#locale_tecnico-16_1_" patternTransform="matrix(-0.48 0 0 -0.48 -28292.9512 -27863.1797)">
		</pattern>
		<path id="locale_tecnico-18" style="fill:url(#locale_tecnico-18_00000112593002777109348710000011806181298282733221_);" d="
			M1491.5,2851.3h2331.1c-225.5-53.3-321.7-350.6-321.7-350.6h-13.3v229h2.4v15.6H895.2v106.1L1491.5,2851.3z"/>
		<g class="clickable" id="P--2-28-A">
			<rect id="a" x="31.7" y="31.7" class="st1" width="155.2" height="108.3"/>
		</g>
		<g class="clickable" id="P--2-29">
			<g id="scala1">
				<rect x="115" y="622.9" class="st7" width="78" height="3.4"/>
				<polygon class="st7" points="71.9,384 155.2,384 155.2,462.1 151.8,462.1 151.8,387.3 75.3,387.3 75.3,511.2 71.9,511.2 				"/>
				<rect x="113.6" y="422.6" class="st7" width="3.4" height="201.8"/>
				<rect x="27" y="460.8" class="st7" width="116" height="3.4"/>
				<rect x="27" y="445.2" class="st7" width="165.7" height="3.4"/>
				<rect x="27" y="340.6" class="st7" width="165.7" height="3.4"/>
				<rect x="27" y="492.4" class="st7" width="165.7" height="3.4"/>
				<rect x="27" y="508.9" class="st7" width="165.7" height="3.4"/>
				<rect x="115" y="525" class="st7" width="77.6" height="3.4"/>
				<rect x="115" y="541.2" class="st7" width="77.6" height="3.4"/>
				<rect x="115" y="591.3" class="st7" width="77.6" height="3.4"/>
				<rect x="115" y="606.8" class="st7" width="79.3" height="3.4"/>
				<rect x="115" y="557.2" class="st7" width="77.6" height="3.4"/>
				<rect x="115" y="573.8" class="st7" width="77.6" height="3.4"/>
				<rect x="27" y="476.4" class="st7" width="165.7" height="3.4"/>
				
					<rect x="152" y="452.9" transform="matrix(0.923 -0.3848 0.3848 0.923 -161.7073 101.094)" class="st7" width="39.6" height="3.4"/>
				
					<rect x="148" y="425" transform="matrix(0.3312 -0.9436 0.9436 0.3312 -336.8155 450.8486)" class="st7" width="3.3" height="76"/>
				<rect x="151.8" y="466.3" class="st7" width="3.4" height="158"/>
				<rect x="156.7" y="460.8" class="st7" width="34.3" height="3.4"/>
				
					<rect x="149.8" y="422.6" transform="matrix(0.3348 -0.9423 0.9423 0.3348 -333.41 449.3315)" class="st7" width="3.4" height="76.4"/>
			</g>
			<polygon id="_tracciato_" class="st0" points="31.7,714.5 31.7,155.6 186.9,155.6 186.9,714.5 170.8,714.5 			"/>
		</g>
		<g class="clickable" id="P--2-28">
			<polygon id="_tracciato_2" class="st1" points="202.5,714.5 202.5,155.6 290,155.6 290,848.8 290,880.5 321.8,880.5 410.2,880.5 
				410.2,1145.6 410.2,1177.3 410.2,1381.1 310.8,1381.1 310.8,1187.6 310.8,1155.9 279.1,1155.9 202.5,1155.9 202.5,746.2 			"/>
		</g>
		<g class="clickable" id="P--2-20">
			<g id="scala3">
				<rect x="4931.5" y="1280.9" class="st7" width="218.7" height="3.4"/>
				<rect x="4931.5" y="1320" class="st7" width="261" height="3.4"/>
				<rect x="5091.6" y="1244.2" class="st7" width="3.4" height="77.6"/>
				<rect x="5107.2" y="1244.2" class="st7" width="3.4" height="77.6"/>
				<rect x="5060" y="1244.2" class="st7" width="3.4" height="77.6"/>
				<rect x="5043.5" y="1244.2" class="st7" width="3.4" height="77.6"/>
				<rect x="5027.5" y="1244.2" class="st7" width="3.4" height="77.6"/>
				<rect x="5011.3" y="1244.2" class="st7" width="3.4" height="77.6"/>
				<rect x="4961.1" y="1244.2" class="st7" width="3.4" height="77.6"/>
				<rect x="4945.6" y="1242.6" class="st7" width="3.4" height="79.3"/>
				<rect x="4995.3" y="1244.2" class="st7" width="3.4" height="77.6"/>
				<rect x="4978.6" y="1244.2" class="st7" width="3.4" height="77.6"/>
				<rect x="5076" y="1244.2" class="st7" width="3.4" height="77.6"/>
				<polygon class="st7" points="5061,1243 5064.1,1244.5 5046.4,1282.5 5062.7,1320.6 5059.6,1322 5042.8,1282.5 				"/>
				
					<rect x="5015.7" y="1300" transform="matrix(0.3696 -0.9292 0.9292 0.3696 1965.7433 5500.8354)" class="st7" width="42.3" height="3.4"/>
				<rect x="4929.6" y="1243.9" class="st7" width="3.4" height="78"/>
			</g>
			<polygon id="_tracciato_3" class="st0" points="4933.1,1312.1 4933.1,1245.4 5180.6,1245.4 5180.6,1436.1 4933.1,1436.1 
				4933.1,1343.8 4933.1,1328.2 			"/>
		</g>
		<g class="clickable" id="P--2-14">
			<g id="scala2">
				<rect x="180.2" y="2744.2" class="st7" width="3.4" height="108.4"/>
				<rect x="182.1" y="2796.3" class="st7" width="304.1" height="3.4"/>
				<rect x="463.2" y="2744.8" class="st7" width="3.4" height="108"/>
				<rect x="443.8" y="2744.8" class="st7" width="3.4" height="108"/>
				<rect x="423" y="2744.8" class="st7" width="3.4" height="108"/>
				<rect x="361.4" y="2744.8" class="st7" width="3.4" height="108"/>
				<rect x="338.6" y="2744.8" class="st7" width="3.4" height="108"/>
				<rect x="316.2" y="2744.8" class="st7" width="3.4" height="108"/>
				<rect x="293.8" y="2744.8" class="st7" width="3.4" height="108"/>
				<rect x="224" y="2744.8" class="st7" width="3.4" height="108"/>
				<rect x="202.5" y="2742.5" class="st7" width="3.4" height="110.3"/>
				<rect x="271.6" y="2744.8" class="st7" width="3.4" height="108"/>
				<rect x="248.4" y="2744.8" class="st7" width="3.4" height="108"/>
				<polygon class="st7" points="338.4,2742 341.5,2743.3 319.2,2797.2 341,2850.8 338,2852.1 315.6,2797.2 				"/>
				
					<rect x="276" y="2824.9" transform="matrix(0.3946 -0.9189 0.9189 0.3946 -2411.7776 1992.6962)" class="st7" width="60.6" height="3.4"/>
				<rect x="182.1" y="2850.7" class="st7" width="304.1" height="3.4"/>
			</g>
			<rect id="_tracciato_4" x="70.5" y="2746.2" class="st0" width="536.5" height="105.1"/>
		</g>
		<g class="clickable" id="P--2-12">
			<rect id="_tracciato_5" x="622.7" y="2746.2" class="st1" width="257.4" height="105.1"/>
		</g>
		<g class="clickable" id="P--2-01">
			<rect x="2587.3" y="2269.8" class="st0" width="491.4" height="165.8"/>
		</g>
	</g>
	<g id="auto">
		<path class="st8" d="M3731.6,2600.9c1.1,0,2.1,0.5,2.8,1.3l0,0c0.2,0.2,17.9,21.2,49.9,43.4c1.5,1.3,1.7,3.7,0.3,5.2
			c-1.1,1.3-3,1.6-4.5,0.8c-32.9-22.8-50.6-43.8-51.3-44.7c-1.3-1.5-1.1-3.8,0.4-5.1C3729.8,2601.1,3730.7,2600.8,3731.6,2600.9
			L3731.6,2600.9z M3840.9,2677.2c0.5,0,1,0.1,1.5,0.3c20.4,8.5,41.7,14.7,63.5,18.4c2,0.3,3.3,2.2,3,4.2c0,0,0,0,0,0l0,0
			c-0.4,2-2.2,3.3-4.2,3l0,0c-22.3-3.8-44.2-10.2-65.1-19c-1.9-0.7-2.8-2.8-2.1-4.7l0,0C3838,2678,3839.4,2677.1,3840.9,2677.2
			L3840.9,2677.2z M4173.7,2697.9c2,0,3.7,1.6,3.7,3.7c0,2-1.6,3.7-3.7,3.7l-67.2,0.6c-2.1-0.1-3.7-1.8-3.6-3.9
			c0.1-1.9,1.6-3.4,3.5-3.6l67.1-0.6L4173.7,2697.9z M4039.4,2699.3c2-0.1,3.8,1.5,3.9,3.5c0.1,2-1.4,3.8-3.5,3.9
			c-0.1,0-0.3,0-0.4,0c-25.2,0.2-47.8,0.4-67.2,0.6l0,0c-2-0.1-3.6-1.8-3.5-3.9c0.1-1.9,1.6-3.4,3.5-3.5
			C3991.6,2699.7,4014.2,2699.5,4039.4,2699.3L4039.4,2699.3z"/>
		<path class="st8" d="M4203.1,2669.3c0.8,0,1.6,0.3,2.2,0.7l40.8,30.2c1.6,1.2,2,3.5,0.8,5.1c0,0,0,0,0,0l0,0
			c-0.3,0.4-0.7,0.7-1.1,1l-39.4,24.6c-1.7,1.1-4,0.7-5.1-1c-1.1-1.7-0.7-4,1-5.1l0.3-0.2l0,0l34.7-21.6l-36.4-26.9
			c-1.6-1.2-2-3.4-0.9-5.1C4200.6,2669.9,4201.8,2669.2,4203.1,2669.3L4203.1,2669.3z"/>
		<pattern  id="SVGID_1_" xlink:href="#locale_tecnico-16_1_" patternTransform="matrix(-0.48 0 0 -0.48 -28292.9512 -27863.1797)">
		</pattern>
		<polygon class="st9" points="5181.1,2507.4 4941.2,2508.3 4939.8,2800.1 5181.1,2776.9 		"/>
		
			<pattern  id="SVGID_00000014628128092476215920000016060815027568943267_" xlink:href="#SVGID_2_" patternTransform="matrix(-0.48 0 0 -0.48 -28313.3398 -27836.7285)">
		</pattern>
		<polygon style="fill:url(#SVGID_00000014628128092476215920000016060815027568943267_);" points="4594.3,2501.1 4256.5,2553.6 
			4257.9,2861.6 4594.3,2830.3 		"/>
		<path class="st7" d="M3505.1,2500c0.3,0.7,26,75.5,78.8,155.8c48.6,73.9,130.8,167.7,246.1,194.9l-1.6,6.5
			c-52-12.3-101.7-38.7-147.7-78.4c-36.8-31.7-71.2-71.9-102.6-119.5c-53.3-81-79.3-156.5-79.6-157.3L3505.1,2500z"/>
		<rect x="4936.9" y="2502.1" class="st7" width="6.7" height="310.8"/>
		
			<pattern  id="SVGID_00000093866313631610759840000007793069428425294242_" xlink:href="#SVGID_3_" patternTransform="matrix(-0.48 0 0 -0.48 -28292.9512 -27862.2402)">
		</pattern>
		<path style="fill:url(#SVGID_00000093866313631610759840000007793069428425294242_);" d="M4594.3,2498.7
			c-66.7,60.6-245.6,55.8-245.6,55.8s-286.3,3.3-379,3.3s-140.1-57.8-140.1-57.8L4594.3,2498.7z"/>
		<path class="st7" d="M3830.6,2495.9l2.2,2.7c0.1,0.1,11.8,13.9,34.5,27.6c20.9,12.6,55.6,27.5,102.6,27.5
			c91.7,0,376.1-3.3,379-3.3h0.2c32.5,0.9,65-0.4,97.4-3.8c68.7-7.3,119.1-24.1,145.8-48.3l4.5,4.9c-15.6,14.1-38.4,25.8-67.8,34.6
			c-23.4,7-50.9,12.2-81.9,15.5c-32.6,3.4-65.4,4.7-98.2,3.8c-6.3,0.1-287.8,3.3-379,3.3c-48.7,0-84.7-15.6-106.3-28.6
			c-12.3-7.3-23.5-16.1-33.6-26.3L3611.7,2699l-4.5-5L3830.6,2495.9z"/>
		<rect x="3484.3" y="2498.3" class="st7" width="1111.9" height="4.8"/>
		<rect x="4591" y="2501.1" class="st7" width="6.7" height="338.8"/>
		<rect x="4253.1" y="2553.6" class="st7" width="6.7" height="304.2"/>
	</g>
	<g id="linee-parcheggi">
		<rect x="3460.4" y="2503" class="st8" width="5.5" height="228.6"/>
		<rect x="2836.4" y="2500.2" class="st8" width="362.4" height="5.5"/>
		<rect x="2447.7" y="2500.2" class="st8" width="363.9" height="5.5"/>
		<rect x="2058.8" y="2500.2" class="st8" width="363.9" height="5.5"/>
		<rect x="1668.5" y="2500.2" class="st8" width="363.9" height="5.5"/>
		<rect x="1281.3" y="2500.2" class="st8" width="363.9" height="5.5"/>
		<rect x="890.9" y="2500.2" class="st8" width="363.9" height="5.5"/>
		<rect x="443.7" y="2500.2" class="st8" width="156.5" height="5.5"/>
		<rect x="623.4" y="2500.2" class="st8" width="156.5" height="5.5"/>
		<rect x="3223.7" y="2500.2" class="st8" width="239.4" height="5.5"/>
		<rect x="4646.8" y="2500.2" class="st8" width="243.8" height="5.5"/>
		<rect x="4646.8" y="2749.7" class="st8" width="243.8" height="5.5"/>
		<rect x="4887.9" y="2503" class="st8" width="5.5" height="249.5"/>
		<rect x="4644" y="2503" class="st8" width="5.5" height="249.5"/>
		<rect x="4765.9" y="2503" class="st8" width="5.5" height="249.5"/>
		<rect x="3340.7" y="2503" class="st8" width="5.5" height="228.6"/>
		<rect x="3221" y="2503" class="st8" width="5.5" height="228.6"/>
		<rect x="3196.1" y="2503" class="st8" width="5.5" height="228.6"/>
		<rect x="3074.8" y="2503" class="st8" width="5.5" height="228.6"/>
		<rect x="2951.9" y="2503" class="st8" width="5.5" height="228.6"/>
		<rect x="2833.7" y="2503" class="st8" width="5.5" height="228.6"/>
		<rect x="2808.9" y="2503" class="st8" width="5.5" height="228.6"/>
		<rect x="2564.6" y="2503" class="st8" width="5.5" height="228.6"/>
		<rect x="2444.9" y="2503" class="st8" width="5.5" height="228.6"/>
		<rect x="2420" y="2503" class="st8" width="5.5" height="228.6"/>
		<rect x="2297.2" y="2503" class="st8" width="5.5" height="228.6"/>
		<rect x="2179.5" y="2503" class="st8" width="5.5" height="228.6"/>
		<rect x="2056.1" y="2503" class="st8" width="5.5" height="228.6"/>
		<rect x="2029.7" y="2503" class="st8" width="5.5" height="228.6"/>
		<rect x="1910" y="2503" class="st8" width="5.5" height="228.6"/>
		<rect x="1787" y="2503" class="st8" width="5.5" height="228.6"/>
		<rect x="1665.8" y="2503" class="st8" width="5.5" height="228.6"/>
		<rect x="1642.5" y="2503" class="st8" width="5.5" height="228.6"/>
		<rect x="1519.6" y="2503" class="st8" width="5.5" height="228.6"/>
		<rect x="1399.8" y="2503" class="st8" width="5.5" height="228.6"/>
		<rect x="1278.6" y="2503" class="st8" width="5.5" height="228.6"/>
		<rect x="1252.1" y="2503" class="st8" width="5.5" height="228.6"/>
		<rect x="1130.8" y="2503" class="st8" width="5.5" height="228.6"/>
		<rect x="1009.5" y="2503" class="st8" width="5.5" height="228.6"/>
		<rect x="887.6" y="2503" class="st8" width="5.5" height="228.6"/>
		<rect x="777.5" y="2503" class="st8" width="5.5" height="228.6"/>
		<rect x="620.7" y="2503" class="st8" width="5.5" height="228.6"/>
		<rect x="597.4" y="2503" class="st8" width="5.5" height="228.6"/>
		<rect x="440.9" y="2503" class="st8" width="5.5" height="228.6"/>
		<rect x="2685.9" y="2503" class="st8" width="5.5" height="228.6"/>
		<rect x="4934.3" y="1498.6" class="st8" width="246.4" height="5.5"/>
		<rect x="4934.3" y="1636.3" class="st8" width="246.4" height="5.5"/>
		<rect x="4934.3" y="1619.2" class="st8" width="246.4" height="5.5"/>
		<rect x="4934.3" y="1756.8" class="st8" width="246.4" height="5.5"/>
		<rect x="4934.3" y="1782.3" class="st8" width="246.4" height="5.5"/>
		<rect x="4934.3" y="1902.7" class="st8" width="246.4" height="5.5"/>
		<rect x="4934.3" y="2023.3" class="st8" width="246.4" height="5.5"/>
		<rect x="4934.3" y="2143.7" class="st8" width="246.4" height="5.5"/>
		<rect x="4934.3" y="2170.9" class="st8" width="246.4" height="5.5"/>
		<rect x="4934.3" y="2291.5" class="st8" width="246.4" height="5.5"/>
		<rect x="4934.3" y="2412.1" class="st8" width="246.4" height="5.5"/>
		<rect x="4931.6" y="1639.1" class="st8" width="5.5" height="120.4"/>
		<rect x="4931.6" y="1501.5" class="st8" width="5.5" height="120.4"/>
		<rect x="4931.6" y="1785" class="st8" width="5.5" height="361.4"/>
		<rect x="4931.6" y="2173.6" class="st8" width="5.5" height="241.3"/>
		<rect x="4569.3" y="1724" class="st8" width="5.5" height="485.3"/>
		<rect x="4447.3" y="1724" class="st8" width="5.5" height="485.3"/>
		<rect x="4206" y="1963.9" class="st8" width="366" height="5.5"/>
		<rect x="4206" y="1721.2" class="st8" width="366" height="5.5"/>
		<rect x="4206" y="2206.5" class="st8" width="366" height="5.5"/>
		<rect x="3814.7" y="2206.5" class="st8" width="366" height="5.5"/>
		<rect x="3234.3" y="2206.5" class="st8" width="243.5" height="5.5"/>
		<rect x="2847.6" y="2206.5" class="st8" width="361.4" height="5.5"/>
		<rect x="2847.6" y="1963.9" class="st8" width="361.4" height="5.5"/>
		<rect x="2847.6" y="1721.2" class="st8" width="361.4" height="5.5"/>
		<rect x="3234.3" y="1963.9" class="st8" width="243.5" height="5.5"/>
		<rect x="3234.3" y="1721.2" class="st8" width="243.5" height="5.5"/>
		<rect x="3814.7" y="1963.9" class="st8" width="366" height="5.5"/>
		<rect x="3814.7" y="1721.2" class="st8" width="366" height="5.5"/>
		<rect x="4325.3" y="1724" class="st8" width="5.5" height="485.3"/>
		<rect x="4203.3" y="1724" class="st8" width="5.5" height="485.3"/>
		<rect x="4178" y="1724" class="st8" width="5.5" height="485.3"/>
		<rect x="4056" y="1724" class="st8" width="5.5" height="485.3"/>
		<rect x="3934" y="1724" class="st8" width="5.5" height="485.3"/>
		<rect x="3812" y="1724" class="st8" width="5.5" height="485.3"/>
		<rect x="3475" y="1724" class="st8" width="5.5" height="485.3"/>
		<rect x="3353.3" y="1724" class="st8" width="5.5" height="485.3"/>
		<rect x="3231.5" y="1724" class="st8" width="5.5" height="485.3"/>
		<rect x="3206.3" y="1724" class="st8" width="5.5" height="485.3"/>
		<rect x="3085.9" y="1724" class="st8" width="5.5" height="485.3"/>
		<rect x="2965.3" y="1724" class="st8" width="5.5" height="485.3"/>
		<rect x="2844.9" y="1724" class="st8" width="5.5" height="485.3"/>
		<rect x="2458.1" y="2206.5" class="st8" width="361.4" height="5.5"/>
		<rect x="2458.1" y="1963.9" class="st8" width="361.4" height="5.5"/>
		<rect x="2458.1" y="1721.2" class="st8" width="361.4" height="5.5"/>
		<rect x="2816.8" y="1724" class="st8" width="5.5" height="485.3"/>
		<rect x="2696.4" y="1724" class="st8" width="5.5" height="485.3"/>
		<rect x="2575.9" y="1724" class="st8" width="5.5" height="485.3"/>
		<rect x="2455.4" y="1724" class="st8" width="5.5" height="485.3"/>
		<rect x="2071.5" y="2206.5" class="st8" width="361.4" height="5.5"/>
		<rect x="2071.5" y="1963.9" class="st8" width="361.4" height="5.5"/>
		<rect x="2071.5" y="1721.2" class="st8" width="361.4" height="5.5"/>
		<rect x="2430.2" y="1724" class="st8" width="5.5" height="485.3"/>
		<rect x="2309.7" y="1724" class="st8" width="5.5" height="485.3"/>
		<rect x="2189.3" y="1724" class="st8" width="5.5" height="485.3"/>
		<rect x="2068.7" y="1724" class="st8" width="5.5" height="485.3"/>
		<rect x="1682.1" y="2206.5" class="st8" width="361.4" height="5.5"/>
		<rect x="1682.1" y="1963.9" class="st8" width="361.4" height="5.5"/>
		<rect x="1682.1" y="1721.2" class="st8" width="361.4" height="5.5"/>
		<rect x="2040.8" y="1724" class="st8" width="5.5" height="485.3"/>
		<rect x="1920.3" y="1724" class="st8" width="5.5" height="485.3"/>
		<rect x="1799.8" y="1724" class="st8" width="5.5" height="485.3"/>
		<rect x="1679.3" y="1724" class="st8" width="5.5" height="485.3"/>
		<rect x="1294.5" y="2206.5" class="st8" width="361.4" height="5.5"/>
		<rect x="1294.5" y="1963.9" class="st8" width="361.4" height="5.5"/>
		<rect x="1294.5" y="1721.2" class="st8" width="361.4" height="5.5"/>
		<rect x="1653.2" y="1724" class="st8" width="5.5" height="485.3"/>
		<rect x="1532.7" y="1724" class="st8" width="5.5" height="485.3"/>
		<rect x="1412.2" y="1724" class="st8" width="5.5" height="485.3"/>
		<rect x="1291.8" y="1724" class="st8" width="5.5" height="485.3"/>
		<rect x="904.1" y="2206.5" class="st8" width="361.4" height="5.5"/>
		<rect x="904.1" y="1963.9" class="st8" width="361.4" height="5.5"/>
		<rect x="904.1" y="1721.2" class="st8" width="361.4" height="5.5"/>
		<rect x="1262.8" y="1724" class="st8" width="5.5" height="485.3"/>
		<rect x="1142.3" y="1724" class="st8" width="5.5" height="485.3"/>
		<rect x="1021.8" y="1724" class="st8" width="5.5" height="485.3"/>
		<rect x="901.4" y="1724" class="st8" width="5.5" height="485.3"/>
		<rect x="636.1" y="2206.5" class="st8" width="241" height="5.5"/>
		<rect x="636.1" y="1963.9" class="st8" width="241" height="5.5"/>
		<rect x="636.1" y="1721.2" class="st8" width="241" height="5.5"/>
		<rect x="874.3" y="1724" class="st8" width="5.5" height="485.3"/>
		<rect x="753.8" y="1724" class="st8" width="5.5" height="485.3"/>
		<rect x="633.3" y="1724" class="st8" width="5.5" height="485.3"/>
		<rect x="1682.1" y="1430.1" class="st8" width="350.1" height="5.5"/>
		<rect x="2056.5" y="1430.1" class="st8" width="364.2" height="5.5"/>
		<rect x="1786.5" y="1178.3" class="st8" width="5.5" height="254.6"/>
		<rect x="1679.3" y="1178.3" class="st8" width="5.5" height="254.6"/>
		<rect x="1907.9" y="1178.3" class="st8" width="5.5" height="254.6"/>
		<rect x="2029.4" y="1178.3" class="st8" width="5.5" height="254.6"/>
		<rect x="2053.8" y="1178.3" class="st8" width="5.5" height="254.6"/>
		<rect x="2175.2" y="1178.3" class="st8" width="5.5" height="254.6"/>
		<rect x="2296.5" y="1178.3" class="st8" width="5.5" height="254.6"/>
		<rect x="2418" y="1178.3" class="st8" width="5.5" height="254.6"/>
		<rect x="2445.5" y="1430.1" class="st8" width="364.2" height="5.5"/>
		<rect x="2833.1" y="1430.1" class="st8" width="364.2" height="5.5"/>
		<rect x="3223" y="1430.1" class="st8" width="364.2" height="5.5"/>
		<rect x="3611" y="1430.1" class="st8" width="364.2" height="5.5"/>
		<rect x="4000.1" y="1430.1" class="st8" width="375.6" height="5.5"/>
		<rect x="2830.3" y="1178.3" class="st8" width="5.5" height="254.6"/>
		<rect x="2806.9" y="1178.3" class="st8" width="5.5" height="254.6"/>
		<rect x="2442.7" y="1178.3" class="st8" width="5.5" height="254.6"/>
		<rect x="2564.2" y="1178.3" class="st8" width="5.5" height="254.6"/>
		<rect x="2685.6" y="1178.3" class="st8" width="5.5" height="254.6"/>
		<rect x="2951.8" y="1178.3" class="st8" width="5.5" height="254.6"/>
		<rect x="3073.1" y="1178.3" class="st8" width="5.5" height="254.6"/>
		<rect x="3194.5" y="1178.3" class="st8" width="5.5" height="254.6"/>
		<rect x="3220.2" y="1178.3" class="st8" width="5.5" height="254.6"/>
		<rect x="3341.6" y="1178.3" class="st8" width="5.5" height="254.6"/>
		<rect x="3463.1" y="1178.3" class="st8" width="5.5" height="254.6"/>
		<rect x="3584.4" y="1178.3" class="st8" width="5.5" height="254.6"/>
		<rect x="3608.3" y="1178.3" class="st8" width="5.5" height="254.6"/>
		<rect x="3729.7" y="1178.3" class="st8" width="5.5" height="254.6"/>
		<rect x="3851.1" y="1178.3" class="st8" width="5.5" height="254.6"/>
		<rect x="3972.5" y="1178.3" class="st8" width="5.5" height="254.6"/>
		<rect x="3997.3" y="1178.3" class="st8" width="5.5" height="254.6"/>
		<rect x="4122.5" y="1178.3" class="st8" width="5.5" height="254.6"/>
		<rect x="4251" y="1178.3" class="st8" width="5.5" height="254.6"/>
		<rect x="4372.9" y="1178.3" class="st8" width="5.5" height="254.6"/>
		<rect x="602.8" y="1178.3" class="st8" width="5.5" height="254.6"/>
		<rect x="435.2" y="1178.3" class="st8" width="5.5" height="254.6"/>
		<rect x="629.4" y="1178.3" class="st8" width="5.5" height="254.6"/>
		<rect x="745" y="1178.3" class="st8" width="5.5" height="254.6"/>
		<rect x="864.5" y="1178.3" class="st8" width="5.5" height="254.6"/>
		<rect x="632.1" y="1430.1" class="st8" width="231.1" height="5.5"/>
		<rect x="438" y="1430.1" class="st8" width="167.6" height="5.5"/>
		<rect x="70.4" y="2538.7" class="st8" width="237.4" height="5.5"/>
		<rect x="305.1" y="2178.4" class="st8" width="5.5" height="363.1"/>
		<rect x="305.1" y="1790.4" class="st8" width="5.5" height="363.1"/>
		<rect x="70.4" y="2298.5" class="st8" width="237.4" height="5.5"/>
		<rect x="70.4" y="2424.3" class="st8" width="237.4" height="5.5"/>
		<rect x="70.4" y="2175.6" class="st8" width="237.4" height="5.5"/>
		<rect x="70.4" y="2150.8" class="st8" width="237.4" height="5.5"/>
		<rect x="70.4" y="2029" class="st8" width="237.4" height="5.5"/>
		<rect x="70.4" y="1907.4" class="st8" width="237.4" height="5.5"/>
		<rect x="70.4" y="1785.8" class="st8" width="237.4" height="5.5"/>
	</g>
	<g id="walls">
		<path class="st7" d="M31.7,746.2h139.1v441.5h108.4v402.7H38.8V2883h4314.8l352.3-31.7l474.8-42.7l31.7-2.8v-904.5H5500V1561
			h-287.6v-347.3h-310.9v98.4h-476.9v-167h-793v-125.4H1643.8v334H907v-208.1H441.9V848.8H321.8V0H0v746.2H31.7z M31.7,155.7h155.2
			v484.5h15.6V155.6h13.8v-15.6h-13.8v-17.5h-15.6v17.5H31.7V31.7h155.2v25.1h15.6V31.7H290v108.4h-8v15.6h8v724.9h120.2v500.6
			h-21.3v15.6h36.9v-219.5h449.5v208.3h800.2v-334h1924.2v125.4h793v167h524.8v12.8h15.6v-111.2h247.5v190.7h-247.5v-13.8h-15.6
			v29.3h263.1v141.1h287.6v276.8h-287.6v907.2l-828.5,74.5H895.7v-120.6h-32.2v15.6h16.6v105.1H622.7v-14.7h-15.6v14.7H70.5v-105.1
			H607v24.6h15.6v-24.6h175.1v-15.6H70.5V1622h240.4v-225.2h12.3v-15.6h-12.3V1156H202.5V706h-15.6v8.5H31.7V155.7z"/>
		<polygon class="st7" points="5212.8,1872.3 5180.6,1872.3 5180.6,1589.9 5212.4,1589.9 		"/>
		<polyline class="st7" points="1668.8,1176.7 1668.8,1176.7 3604.5,1176.7 3604.5,1161.1 1668.8,1161.1 1668.8,1176.7 		"/>
		<polyline class="st7" points="278.9,1622 293.8,1622 293.8,1698.7 70.5,1698.7 70.5,1622 70.5,2585.8 70.5,1715.3 293.8,1715.3 
			310.6,1715.3 310.6,1698.7 310.6,1622 310.6,1610.7 		"/>
		<polygon class="st7" points="310.3,1610.7 310.9,1610.7 310.9,1715.5 70.9,1715.5 70.9,2585.8 70.1,2585.8 70.1,1622 70.9,1622 
			70.9,1698.3 293.5,1698.3 293.5,1622.3 278.9,1622.3 278.9,1621.7 294.2,1621.7 294.2,1699 70.9,1699 70.9,1714.9 310.3,1714.9 		
			"/>
		<polyline class="st7" points="863.5,2746.2 3469.8,2746.2 3483.4,2746.2 3483.4,2730.7 3469.8,2730.7 863.5,2730.7 		"/>
		<polygon class="st7" points="863.5,2730.3 3483.7,2730.3 3483.7,2746.6 863.5,2746.6 863.5,2745.9 3483.1,2745.9 3483.1,2730.9 
			863.5,2730.9 		"/>
		<rect x="3474.6" y="2499" class="st7" width="15.6" height="247.2"/>
		<path class="st7" d="M3474.3,2498.6h16.3v247.9h-16.3V2498.6z M3489.8,2499.4h-14.9V2746h14.9L3489.8,2499.4z"/>
		<polygon class="st7" points="4939.1,2513.8 5186.4,2513.8 5186.4,2498.2 4939.2,2498.2 		"/>
		<path class="st7" d="M4938.8,2497.8h247.9v16.3h-248L4938.8,2497.8z M5186,2498.6h-246.6l-0.1,14.9H5186L5186,2498.6z"/>
	</g>
</g>
</svg>
