<svg id="Livello_1" data-name="Livello 1" xmlns="http://www.w3.org/2000/svg" xmlns:xlink="http://www.w3.org/1999/xlink" viewBox="0 0 5500 3575.55"><defs><pattern id="locale_tecnico-15_1_" data-name="locale tecnico-15 1 " width="40.2" height="40.2" patternTransform="matrix(-0.48, 0, 0, 0.48, -20317.81, 13780.91)" patternUnits="userSpaceOnUse" viewBox="0 0 40.2 40.2"><rect width="40.2" height="40.2" style="fill:none"/><rect width="40.2" height="40.2" style="fill:none"/><rect width="40.2" height="40.2" style="fill:none"/><rect width="40.2" height="40.2" style="fill:none"/><rect width="40.2" height="40.2" style="fill:none"/><rect width="40.2" height="40.2" style="fill:none"/><rect width="40.2" height="40.2" style="fill:none"/><rect width="40.2" height="40.2" style="fill:none"/><rect x="37.4" y="-37.3" width="42.3" height="40.9" style="fill:#f2f2f2"/><line x1="40.2" x2="80.4" y2="-40.2" style="fill:none;stroke:#ddd;stroke-linecap:square;stroke-linejoin:round;stroke-width:20px"/><rect x="-2.8" y="-37.3" width="42.3" height="40.9" style="fill:#f2f2f2"/><line x2="40.2" y2="-40.2" style="fill:none;stroke:#ddd;stroke-linecap:square;stroke-linejoin:round;stroke-width:20px"/><line x1="-40.2" y2="-40.2" style="fill:none;stroke:#ddd;stroke-linecap:square;stroke-linejoin:round;stroke-width:20px"/><rect x="37.4" y="2.8" width="42.3" height="40.9" style="fill:#f2f2f2"/><line x1="40.2" y1="40.2" x2="80.4" style="fill:none;stroke:#ddd;stroke-linecap:square;stroke-linejoin:round;stroke-width:20px"/><rect x="-2.8" y="2.8" width="42.3" height="40.9" style="fill:#f2f2f2"/><line y1="40.2" x2="40.2" style="fill:none;stroke:#ddd;stroke-linecap:square;stroke-linejoin:round;stroke-width:20px"/><line x1="-40.2" y1="40.2" style="fill:none;stroke:#ddd;stroke-linecap:square;stroke-linejoin:round;stroke-width:20px"/><line x1="40.2" y1="80.4" x2="80.4" y2="40.2" style="fill:none;stroke:#ddd;stroke-linecap:square;stroke-linejoin:round;stroke-width:20px"/><line y1="80.4" x2="40.2" y2="40.2" style="fill:none;stroke:#ddd;stroke-linecap:square;stroke-linejoin:round;stroke-width:20px"/><line x1="-40.2" y1="80.4" y2="40.2" style="fill:none;stroke:#ddd;stroke-linecap:square;stroke-linejoin:round;stroke-width:20px"/></pattern><pattern id="locale_tecnico-16_1_" data-name="locale tecnico-16 1 " width="40.2" height="40.2" patternTransform="matrix(-0.48, 0, 0, 0.48, -20317.81, 13779.97)" patternUnits="userSpaceOnUse" viewBox="0 0 40.2 40.2"><rect width="40.2" height="40.2" style="fill:none"/><rect width="40.2" height="40.2" style="fill:none"/><rect width="40.2" height="40.2" style="fill:none"/><rect width="40.2" height="40.2" style="fill:none"/><rect width="40.2" height="40.2" style="fill:none"/><rect width="40.2" height="40.2" style="fill:none"/><rect width="40.2" height="40.2" style="fill:none"/><rect width="40.2" height="40.2" style="fill:none"/><rect x="37.4" y="-37.3" width="42.3" height="40.9" style="fill:#f2f2f2"/><line x1="40.2" x2="80.4" y2="-40.2" style="fill:none;stroke:#ddd;stroke-linecap:square;stroke-linejoin:round;stroke-width:20px"/><rect x="-2.8" y="-37.3" width="42.3" height="40.9" style="fill:#f2f2f2"/><line x2="40.2" y2="-40.2" style="fill:none;stroke:#ddd;stroke-linecap:square;stroke-linejoin:round;stroke-width:20px"/><line x1="-40.2" y2="-40.2" style="fill:none;stroke:#ddd;stroke-linecap:square;stroke-linejoin:round;stroke-width:20px"/><rect x="37.4" y="2.8" width="42.3" height="40.9" style="fill:#f2f2f2"/><line x1="40.2" y1="40.2" x2="80.4" style="fill:none;stroke:#ddd;stroke-linecap:square;stroke-linejoin:round;stroke-width:20px"/><rect x="-2.8" y="2.8" width="42.3" height="40.9" style="fill:#f2f2f2"/><line y1="40.2" x2="40.2" style="fill:none;stroke:#ddd;stroke-linecap:square;stroke-linejoin:round;stroke-width:20px"/><line x1="-40.2" y1="40.2" style="fill:none;stroke:#ddd;stroke-linecap:square;stroke-linejoin:round;stroke-width:20px"/><line x1="40.2" y1="80.4" x2="80.4" y2="40.2" style="fill:none;stroke:#ddd;stroke-linecap:square;stroke-linejoin:round;stroke-width:20px"/><line y1="80.4" x2="40.2" y2="40.2" style="fill:none;stroke:#ddd;stroke-linecap:square;stroke-linejoin:round;stroke-width:20px"/><line x1="-40.2" y1="80.4" y2="40.2" style="fill:none;stroke:#ddd;stroke-linecap:square;stroke-linejoin:round;stroke-width:20px"/></pattern><pattern id="SVGID_2_" data-name="SVGID 2 " width="40.2" height="40.2" patternTransform="matrix(-0.48, 0, 0, 0.48, -20338.2, 13753.52)" patternUnits="userSpaceOnUse" viewBox="0 0 40.2 40.2"><rect width="40.2" height="40.2" style="fill:none"/><rect width="40.2" height="40.2" style="fill:none"/><rect width="40.2" height="40.2" style="fill:none"/><rect width="40.2" height="40.2" style="fill:none"/><rect width="40.2" height="40.2" style="fill:none"/><rect width="40.2" height="40.2" style="fill:none"/><rect width="40.2" height="40.2" style="fill:none"/><rect width="40.2" height="40.2" style="fill:none"/><rect x="37.4" y="-37.3" width="42.3" height="40.9" style="fill:#f2f2f2"/><line x1="40.2" x2="80.4" y2="-40.2" style="fill:none;stroke:#ddd;stroke-linecap:square;stroke-linejoin:round;stroke-width:20px"/><rect x="-2.8" y="-37.3" width="42.3" height="40.9" style="fill:#f2f2f2"/><line x2="40.2" y2="-40.2" style="fill:none;stroke:#ddd;stroke-linecap:square;stroke-linejoin:round;stroke-width:20px"/><line x1="-40.2" y2="-40.2" style="fill:none;stroke:#ddd;stroke-linecap:square;stroke-linejoin:round;stroke-width:20px"/><rect x="37.4" y="2.8" width="42.3" height="40.9" style="fill:#f2f2f2"/><line x1="40.2" y1="40.2" x2="80.4" style="fill:none;stroke:#ddd;stroke-linecap:square;stroke-linejoin:round;stroke-width:20px"/><rect x="-2.8" y="2.8" width="42.3" height="40.9" style="fill:#f2f2f2"/><line y1="40.2" x2="40.2" style="fill:none;stroke:#ddd;stroke-linecap:square;stroke-linejoin:round;stroke-width:20px"/><line x1="-40.2" y1="40.2" style="fill:none;stroke:#ddd;stroke-linecap:square;stroke-linejoin:round;stroke-width:20px"/><line x1="40.2" y1="80.4" x2="80.4" y2="40.2" style="fill:none;stroke:#ddd;stroke-linecap:square;stroke-linejoin:round;stroke-width:20px"/><line y1="80.4" x2="40.2" y2="40.2" style="fill:none;stroke:#ddd;stroke-linecap:square;stroke-linejoin:round;stroke-width:20px"/><line x1="-40.2" y1="80.4" y2="40.2" style="fill:none;stroke:#ddd;stroke-linecap:square;stroke-linejoin:round;stroke-width:20px"/></pattern><pattern id="SVGID_3_" data-name="SVGID 3 " width="40.2" height="40.2" patternTransform="matrix(-0.48, 0, 0, 0.48, -20317.81, 13779.03)" patternUnits="userSpaceOnUse" viewBox="0 0 40.2 40.2"><rect width="40.2" height="40.2" style="fill:none"/><rect width="40.2" height="40.2" style="fill:none"/><rect width="40.2" height="40.2" style="fill:none"/><rect width="40.2" height="40.2" style="fill:none"/><rect width="40.2" height="40.2" style="fill:none"/><rect width="40.2" height="40.2" style="fill:none"/><rect width="40.2" height="40.2" style="fill:none"/><rect width="40.2" height="40.2" style="fill:none"/><rect x="37.4" y="-37.3" width="42.3" height="40.9" style="fill:#f2f2f2"/><line x1="40.2" x2="80.4" y2="-40.2" style="fill:none;stroke:#ddd;stroke-linecap:square;stroke-linejoin:round;stroke-width:20px"/><rect x="-2.8" y="-37.3" width="42.3" height="40.9" style="fill:#f2f2f2"/><line x2="40.2" y2="-40.2" style="fill:none;stroke:#ddd;stroke-linecap:square;stroke-linejoin:round;stroke-width:20px"/><line x1="-40.2" y2="-40.2" style="fill:none;stroke:#ddd;stroke-linecap:square;stroke-linejoin:round;stroke-width:20px"/><rect x="37.4" y="2.8" width="42.3" height="40.9" style="fill:#f2f2f2"/><line x1="40.2" y1="40.2" x2="80.4" style="fill:none;stroke:#ddd;stroke-linecap:square;stroke-linejoin:round;stroke-width:20px"/><rect x="-2.8" y="2.8" width="42.3" height="40.9" style="fill:#f2f2f2"/><line y1="40.2" x2="40.2" style="fill:none;stroke:#ddd;stroke-linecap:square;stroke-linejoin:round;stroke-width:20px"/><line x1="-40.2" y1="40.2" style="fill:none;stroke:#ddd;stroke-linecap:square;stroke-linejoin:round;stroke-width:20px"/><line x1="40.2" y1="80.4" x2="80.4" y2="40.2" style="fill:none;stroke:#ddd;stroke-linecap:square;stroke-linejoin:round;stroke-width:20px"/><line y1="80.4" x2="40.2" y2="40.2" style="fill:none;stroke:#ddd;stroke-linecap:square;stroke-linejoin:round;stroke-width:20px"/><line x1="-40.2" y1="80.4" y2="40.2" style="fill:none;stroke:#ddd;stroke-linecap:square;stroke-linejoin:round;stroke-width:20px"/></pattern></defs><g id="P-floor-2"><g id="background"><polygon points="31.72 746.17 170.78 746.17 170.78 1155.92 170.78 1187.63 202.49 1187.63 279.13 1187.63 279.13 1381.14 279.13 1396.82 279.13 1591.24 38.77 1591.24 38.77 1633.32 38.77 2730.66 38.77 2746.24 38.77 2851.29 38.77 2883.01 70.49 2883.01 607.02 2883.01 622.69 2883.01 880.09 2883.01 895.67 2883.01 3999.88 2883.01 4353.52 2883.01 4705.8 2851.29 5180.63 2808.57 5212.35 2805.73 5212.35 2773.83 5212.35 1901.17 5468.28 1901.17 5500 1901.17 5500 1869.45 5500 1592.71 5500 1560.99 5468.28 1560.99 5212.35 1560.99 5212.35 1451.63 5212.35 1436.05 5212.35 1245.38 5212.35 1213.67 5180.63 1213.67 4933.13 1213.67 4901.42 1213.67 4901.42 1245.38 4901.42 1312.12 4424.48 1312.12 4424.48 1176.72 4424.48 1145.1 4392.76 1145.1 3631.47 1145.1 3631.47 1051.42 3631.47 1019.7 3599.84 1019.7 1675.48 1019.7 1643.77 1019.7 1643.77 1051.42 1643.77 1353.73 907.04 1353.73 907.04 1177.28 907.04 1145.56 875.33 1145.56 441.93 1145.56 441.93 880.55 441.93 848.83 410.21 848.83 321.75 848.83 321.75 155.65 321.75 140.07 321.75 31.72 321.75 0 290.03 0 31.72 0 0 0 0 31.72 0 140.07 0 155.65 0 714.45 0 746.17 31.72 746.17" style="fill:#f2f2f2"/></g><g id="rooms"><rect id="senza_codice" data-name="senza codice" x="202.49" y="31.72" width="87.54" height="108.35" style="fill:#f2f2f2"/><rect id="locale_tecnico-15" data-name="locale tecnico-15" x="70.03" y="1621.49" width="223.76" height="77.09" style="fill:url(#locale_tecnico-15_1_)"/><rect id="locale_tecnico-16" data-name="locale tecnico-16" x="5212.35" y="1592.71" width="255.93" height="276.83" style="fill:url(#locale_tecnico-16_1_)"/><polygon id="locale_tecnico-17" data-name="locale tecnico-17" points="1676.4 1161.6 1676.4 1051.42 1846.72 1051.42 1863.31 1051.42 1863.31 1051.42 1863.31 1051.42 2460.43 1051.42 2460.43 1051.42 2460.43 1051.42 2460.43 1051.42 2492.14 1051.42 3600.3 1051.42 3600.3 1146.47 3600.3 1161.6 1676.4 1161.6" style="fill:url(#locale_tecnico-16_1_)"/><path id="locale_tecnico-18" data-name="locale tecnico-18" d="M1491.51,2851.29H3822.59c-225.5-53.26-321.66-350.62-321.66-350.62h-13.29v229H3490v15.58H895.22v106.06Z" style="fill:url(#locale_tecnico-16_1_)"/><g class="clickable" id="P1--2-28-A" data-name="customclass P1--2-28-A"><rect id="a" x="31.72" y="31.72" width="155.19" height="108.35" style="fill:#f2f2f2"/></g><g class="clickable" id="P1--2-29" data-name="customclass P1--2-29"><g id="scala1"><rect x="115.04" y="622.87" width="78.01" height="3.39" style="fill:#b7b7b7"/><polygon points="71.87 383.99 155.19 383.99 155.19 462.09 151.8 462.09 151.8 387.29 75.26 387.29 75.26 511.23 71.87 511.23 71.87 383.99" style="fill:#b7b7b7"/><rect x="113.58" y="422.58" width="3.39" height="201.76" style="fill:#b7b7b7"/><rect x="26.95" y="460.81" width="115.96" height="3.39" style="fill:#b7b7b7"/><rect x="26.95" y="445.23" width="165.73" height="3.39" style="fill:#b7b7b7"/><rect x="26.95" y="340.63" width="165.73" height="3.39" style="fill:#b7b7b7"/><rect x="26.95" y="492.43" width="165.73" height="3.39" style="fill:#b7b7b7"/><rect x="26.95" y="508.93" width="165.73" height="3.39" style="fill:#b7b7b7"/><rect x="115.04" y="524.98" width="77.64" height="3.39" style="fill:#b7b7b7"/><rect x="115.04" y="541.2" width="77.64" height="3.39" style="fill:#b7b7b7"/><rect x="115.04" y="591.34" width="77.64" height="3.39" style="fill:#b7b7b7"/><rect x="115.04" y="606.83" width="79.29" height="3.39" style="fill:#b7b7b7"/><rect x="115.04" y="557.15" width="77.64" height="3.39" style="fill:#b7b7b7"/><rect x="115.04" y="573.83" width="77.64" height="3.39" style="fill:#b7b7b7"/><rect x="26.95" y="476.39" width="165.73" height="3.39" style="fill:#b7b7b7"/><rect x="151.97" y="452.93" width="39.6" height="3.39" transform="translate(-161.71 101.1) rotate(-22.63)" style="fill:#b7b7b7"/><rect x="147.97" y="425.02" width="3.3" height="75.99" transform="translate(-336.82 450.85) rotate(-70.66)" style="fill:#b7b7b7"/><rect x="151.8" y="466.31" width="3.39" height="158.03" style="fill:#b7b7b7"/><rect x="156.66" y="460.81" width="34.28" height="3.39" style="fill:#b7b7b7"/><rect x="149.85" y="422.64" width="3.39" height="76.36" transform="translate(-333.42 449.33) rotate(-70.44)" style="fill:#b7b7b7"/></g><polygon id="_tracciato_" data-name=" tracciato " points="31.72 714.45 31.72 155.65 186.91 155.65 186.91 714.45 170.78 714.45 31.72 714.45" style="fill:none"/></g><g class="clickable" id="P1--2-28" data-name="customclass P1--2-28"><polygon id="_tracciato_2" data-name=" tracciato 2" points="202.49 714.45 202.49 155.65 290.03 155.65 290.03 848.83 290.03 880.55 321.75 880.55 410.21 880.55 410.21 1145.56 410.21 1177.28 410.21 1381.14 310.84 1381.14 310.84 1187.63 310.84 1155.92 279.13 1155.92 202.49 1155.92 202.49 746.17 202.49 714.45" style="fill:#f2f2f2"/></g><g class="clickable" id="P1--2-20" data-name="customclass P1--2-20"><g id="scala3"><rect x="4931.48" y="1280.86" width="218.72" height="3.39" style="fill:#b7b7b7"/><rect x="4931.48" y="1320" width="260.98" height="3.39" style="fill:#b7b7b7"/><rect x="5091.63" y="1244.19" width="3.39" height="77.64" style="fill:#b7b7b7"/><rect x="5107.21" y="1244.19" width="3.39" height="77.64" style="fill:#b7b7b7"/><rect x="5060" y="1244.19" width="3.39" height="77.64" style="fill:#b7b7b7"/><rect x="5043.5" y="1244.19" width="3.39" height="77.64" style="fill:#b7b7b7"/><rect x="5027.46" y="1244.19" width="3.39" height="77.64" style="fill:#b7b7b7"/><rect x="5011.32" y="1244.19" width="3.39" height="77.64" style="fill:#b7b7b7"/><rect x="4961.09" y="1244.19" width="3.39" height="77.64" style="fill:#b7b7b7"/><rect x="4945.6" y="1242.63" width="3.39" height="79.29" style="fill:#b7b7b7"/><rect x="4995.28" y="1244.19" width="3.39" height="77.64" style="fill:#b7b7b7"/><rect x="4978.6" y="1244.19" width="3.39" height="77.64" style="fill:#b7b7b7"/><rect x="5076.04" y="1244.19" width="3.39" height="77.64" style="fill:#b7b7b7"/><polygon points="5061.01 1243 5064.13 1244.47 5046.43 1282.51 5062.66 1320.64 5059.63 1322.02 5042.77 1282.51 5061.01 1243" style="fill:#b7b7b7"/><rect x="5015.7" y="1300.03" width="42.26" height="3.39" transform="translate(1965.74 5500.83) rotate(-68.31)" style="fill:#b7b7b7"/><rect x="4929.56" y="1243.92" width="3.39" height="78.01" style="fill:#b7b7b7"/></g><polygon id="_tracciato_3" data-name=" tracciato 3" points="4933.13 1312.12 4933.13 1245.38 5180.63 1245.38 5180.63 1436.05 4933.13 1436.05 4933.13 1343.83 4933.13 1328.16 4933.13 1312.12" style="fill:none"/></g><g class="clickable" id="P1--2-14" data-name="customclass P1--2-14"><g id="scala2"><rect x="180.22" y="2744.22" width="3.39" height="108.44" style="fill:#b7b7b7"/><rect x="182.14" y="2796.29" width="304.06" height="3.39" style="fill:#b7b7b7"/><rect x="463.19" y="2744.78" width="3.39" height="107.98" style="fill:#b7b7b7"/><rect x="443.76" y="2744.78" width="3.39" height="107.98" style="fill:#b7b7b7"/><rect x="422.95" y="2744.78" width="3.39" height="107.98" style="fill:#b7b7b7"/><rect x="361.44" y="2744.78" width="3.39" height="107.98" style="fill:#b7b7b7"/><rect x="338.62" y="2744.78" width="3.39" height="107.98" style="fill:#b7b7b7"/><rect x="316.25" y="2744.78" width="3.39" height="107.98" style="fill:#b7b7b7"/><rect x="293.79" y="2744.78" width="3.39" height="107.98" style="fill:#b7b7b7"/><rect x="224.03" y="2744.78" width="3.39" height="107.98" style="fill:#b7b7b7"/><rect x="202.49" y="2742.48" width="3.39" height="110.28" style="fill:#b7b7b7"/><rect x="271.61" y="2744.78" width="3.39" height="107.98" style="fill:#b7b7b7"/><rect x="248.42" y="2744.78" width="3.39" height="107.98" style="fill:#b7b7b7"/><polygon points="338.43 2742.03 341.55 2743.31 319.18 2797.21 341 2850.83 337.98 2852.12 315.61 2797.21 338.43 2742.03" style="fill:#b7b7b7"/><rect x="276.01" y="2824.87" width="60.59" height="3.39" transform="translate(-2411.78 1992.7) rotate(-66.76)" style="fill:#b7b7b7"/><rect x="182.14" y="2850.74" width="304.06" height="3.39" style="fill:#b7b7b7"/></g><rect id="_tracciato_4" data-name=" tracciato 4" x="70.49" y="2746.24" width="536.53" height="105.05" style="fill:none"/></g><g class="clickable" id="P1--2-12" data-name="customclass P1--2-12"><rect id="_tracciato_5" data-name=" tracciato 5" x="622.69" y="2746.24" width="257.4" height="105.05" style="fill:#f2f2f2"/></g><g class="clickable" id="P1--2-01" data-name="customclass P1--2-01"><rect x="2587.29" y="2269.76" width="491.43" height="165.82" style="fill:none"/></g></g><g id="auto"><path d="M3731.57,2600.86a3.73,3.73,0,0,1,2.84,1.28h0c.18.18,17.87,21.18,49.87,43.45a3.69,3.69,0,0,1-4.22,6c-32.91-22.82-50.6-43.82-51.33-44.73a3.67,3.67,0,0,1,.36-5.14,3.26,3.26,0,0,1,2.48-.91Zm109.36,76.36a4.06,4.06,0,0,1,1.46.27,289.73,289.73,0,0,0,63.53,18.43,3.65,3.65,0,0,1,3,4.21h0a3.76,3.76,0,0,1-4.22,3h0a297.57,297.57,0,0,1-65.08-19,3.67,3.67,0,0,1-2.12-4.73v0a3.45,3.45,0,0,1,3.4-2.2Zm332.75,20.71a3.67,3.67,0,0,1,0,7.34l-67.2.64a3.72,3.72,0,0,1-.09-7.43l67.1-.64Zm-134.3,1.38a3.67,3.67,0,1,1,0,7.33c-25.2.19-47.76.37-67.19.55h0a3.67,3.67,0,0,1,0-7.33C3991.63,2699.68,4014.18,2699.49,4039.38,2699.31Z" style="fill:#fff"/><path d="M4203.1,2669.33a3.73,3.73,0,0,1,2.2.74l40.79,30.16a3.66,3.66,0,0,1,.84,5.11v0a4.23,4.23,0,0,1-1.1,1l-39.42,24.56a3.66,3.66,0,0,1-4.12-6.06l.27-.17h0l34.74-21.63-36.39-26.86a3.77,3.77,0,0,1-.92-5.13,3.42,3.42,0,0,1,3.12-1.75Z" style="fill:#fff"/><polygon points="5181.09 2507.36 4941.2 2508.28 4939.82 2800.14 5181.09 2776.95 5181.09 2507.36" style="fill:url(#locale_tecnico-16_1_)"/><polygon points="4594.33 2501.13 4256.54 2553.65 4257.92 2861.65 4594.33 2830.3 4594.33 2501.13" style="fill:url(#SVGID_2_)"/><path d="M3505.06,2500c.27.74,26,75.54,78.83,155.84,48.58,73.88,130.81,167.66,246.13,194.88l-1.56,6.51c-52-12.28-101.66-38.68-147.68-78.37-36.76-31.72-71.22-71.87-102.57-119.54-53.26-81-79.29-156.47-79.57-157.3Z" style="fill:#b7b7b7"/><rect x="4936.89" y="2502.13" width="6.69" height="310.84" style="fill:#b7b7b7"/><path d="M4594.33,2498.74c-66.73,60.59-245.57,55.83-245.57,55.83s-286.28,3.3-379,3.3-140.07-57.75-140.07-57.75Z" style="fill:url(#SVGID_3_)"/><path d="M3830.57,2495.9l2.2,2.66c.09.09,11.82,13.93,34.46,27.59,20.9,12.56,55.55,27.5,102.58,27.5,91.66,0,376.11-3.3,379-3.3h.18a734.28,734.28,0,0,0,97.35-3.76c68.66-7.33,119.08-24.11,145.84-48.31l4.49,4.95c-15.58,14.12-38.4,25.76-67.83,34.56-23.37,7-50.87,12.19-81.86,15.49a746.67,746.67,0,0,1-98.17,3.76c-6.33.09-287.83,3.3-379,3.3-48.68,0-84.7-15.58-106.33-28.6a165.57,165.57,0,0,1-33.55-26.31L3611.67,2699l-4.49-5Z" style="fill:#b7b7b7"/><rect x="3484.34" y="2498.28" width="1111.92" height="4.77" style="fill:#b7b7b7"/><rect x="4591.03" y="2501.13" width="6.69" height="338.8" style="fill:#b7b7b7"/><rect x="4253.15" y="2553.65" width="6.69" height="304.24" style="fill:#b7b7b7"/></g><g id="linee-parcheggi"><rect x="3460.42" y="2502.96" width="5.5" height="228.62" style="fill:#fff"/><rect x="2836.44" y="2500.21" width="362.36" height="5.5" style="fill:#fff"/><rect x="2447.68" y="2500.21" width="363.92" height="5.5" style="fill:#fff"/><rect x="2058.83" y="2500.21" width="363.92" height="5.5" style="fill:#fff"/><rect x="1668.52" y="2500.21" width="363.92" height="5.5" style="fill:#fff"/><rect x="1281.32" y="2500.21" width="363.92" height="5.5" style="fill:#fff"/><rect x="890.91" y="2500.21" width="363.92" height="5.5" style="fill:#fff"/><rect x="443.67" y="2500.21" width="156.48" height="5.5" style="fill:#fff"/><rect x="623.43" y="2500.21" width="156.47" height="5.5" style="fill:#fff"/><rect x="3223.73" y="2500.21" width="239.43" height="5.5" style="fill:#fff"/><rect x="4646.77" y="2500.21" width="243.83" height="5.5" style="fill:#fff"/><rect x="4646.77" y="2749.73" width="243.83" height="5.5" style="fill:#fff"/><rect x="4887.85" y="2502.96" width="5.5" height="249.52" style="fill:#fff"/><rect x="4644.02" y="2502.96" width="5.5" height="249.52" style="fill:#fff"/><rect x="4765.93" y="2502.96" width="5.5" height="249.52" style="fill:#fff"/><rect x="3340.7" y="2502.96" width="5.5" height="228.62" style="fill:#fff"/><rect x="3220.98" y="2502.96" width="5.5" height="228.62" style="fill:#fff"/><rect x="3196.05" y="2502.96" width="5.5" height="228.62" style="fill:#fff"/><rect x="3074.77" y="2502.96" width="5.5" height="228.62" style="fill:#fff"/><rect x="2951.85" y="2502.96" width="5.5" height="228.62" style="fill:#fff"/><rect x="2833.69" y="2502.96" width="5.5" height="228.62" style="fill:#fff"/><rect x="2808.85" y="2502.96" width="5.5" height="228.62" style="fill:#fff"/><rect x="2564.65" y="2502.96" width="5.5" height="228.62" style="fill:#fff"/><rect x="2444.93" y="2502.96" width="5.5" height="228.62" style="fill:#fff"/><rect x="2420" y="2502.96" width="5.5" height="228.62" style="fill:#fff"/><rect x="2297.17" y="2502.96" width="5.5" height="228.62" style="fill:#fff"/><rect x="2179.47" y="2502.96" width="5.5" height="228.62" style="fill:#fff"/><rect x="2056.08" y="2502.96" width="5.5" height="228.62" style="fill:#fff"/><rect x="2029.68" y="2502.96" width="5.5" height="228.62" style="fill:#fff"/><rect x="1909.97" y="2502.96" width="5.5" height="228.62" style="fill:#fff"/><rect x="1787.04" y="2502.96" width="5.5" height="228.62" style="fill:#fff"/><rect x="1665.77" y="2502.96" width="5.5" height="228.62" style="fill:#fff"/><rect x="1642.48" y="2502.96" width="5.5" height="228.62" style="fill:#fff"/><rect x="1519.56" y="2502.96" width="5.5" height="228.62" style="fill:#fff"/><rect x="1399.84" y="2502.96" width="5.5" height="228.62" style="fill:#fff"/><rect x="1278.57" y="2502.96" width="5.5" height="228.62" style="fill:#fff"/><rect x="1252.07" y="2502.96" width="5.5" height="228.62" style="fill:#fff"/><rect x="1130.8" y="2502.96" width="5.5" height="228.62" style="fill:#fff"/><rect x="1009.52" y="2502.96" width="5.5" height="228.62" style="fill:#fff"/><rect x="887.61" y="2502.96" width="5.5" height="228.62" style="fill:#fff"/><rect x="777.52" y="2502.96" width="5.5" height="228.62" style="fill:#fff"/><rect x="620.68" y="2502.96" width="5.5" height="228.62" style="fill:#fff"/><rect x="597.39" y="2502.96" width="5.5" height="228.62" style="fill:#fff"/><rect x="440.92" y="2502.96" width="5.5" height="228.62" style="fill:#fff"/><rect x="2685.93" y="2502.96" width="5.5" height="228.62" style="fill:#fff"/><rect x="4934.33" y="1498.57" width="246.4" height="5.5" style="fill:#fff"/><rect x="4934.33" y="1636.34" width="246.4" height="5.5" style="fill:#fff"/><rect x="4934.33" y="1619.2" width="246.4" height="5.5" style="fill:#fff"/><rect x="4934.33" y="1756.79" width="246.4" height="5.5" style="fill:#fff"/><rect x="4934.33" y="1782.27" width="246.4" height="5.5" style="fill:#fff"/><rect x="4934.33" y="1902.73" width="246.4" height="5.5" style="fill:#fff"/><rect x="4934.33" y="2023.27" width="246.4" height="5.5" style="fill:#fff"/><rect x="4934.33" y="2143.72" width="246.4" height="5.5" style="fill:#fff"/><rect x="4934.33" y="2170.85" width="246.4" height="5.5" style="fill:#fff"/><rect x="4934.33" y="2291.48" width="246.4" height="5.5" style="fill:#fff"/><rect x="4934.33" y="2412.12" width="246.4" height="5.5" style="fill:#fff"/><rect x="4931.58" y="1639.09" width="5.5" height="120.45" style="fill:#fff"/><rect x="4931.58" y="1501.5" width="5.5" height="120.45" style="fill:#fff"/><rect x="4931.58" y="1785.02" width="5.5" height="361.44" style="fill:#fff"/><rect x="4931.58" y="2173.6" width="5.5" height="241.27" style="fill:#fff"/><rect x="4569.31" y="1723.98" width="5.5" height="485.28" style="fill:#fff"/><rect x="4447.3" y="1723.98" width="5.5" height="485.28" style="fill:#fff"/><rect x="4206.03" y="1963.87" width="366.02" height="5.5" style="fill:#fff"/><rect x="4206.03" y="1721.23" width="366.02" height="5.5" style="fill:#fff"/><rect x="4206.03" y="2206.51" width="366.02" height="5.5" style="fill:#fff"/><rect x="3814.71" y="2206.51" width="366.02" height="5.5" style="fill:#fff"/><rect x="3234.27" y="2206.51" width="243.47" height="5.5" style="fill:#fff"/><rect x="2847.63" y="2206.51" width="361.44" height="5.5" style="fill:#fff"/><rect x="2847.63" y="1963.87" width="361.44" height="5.5" style="fill:#fff"/><rect x="2847.63" y="1721.23" width="361.44" height="5.5" style="fill:#fff"/><rect x="3234.27" y="1963.87" width="243.47" height="5.5" style="fill:#fff"/><rect x="3234.27" y="1721.23" width="243.47" height="5.5" style="fill:#fff"/><rect x="3814.71" y="1963.87" width="366.02" height="5.5" style="fill:#fff"/><rect x="3814.71" y="1721.23" width="366.02" height="5.5" style="fill:#fff"/><rect x="4325.29" y="1723.98" width="5.5" height="485.28" style="fill:#fff"/><rect x="4203.28" y="1723.98" width="5.5" height="485.28" style="fill:#fff"/><rect x="4177.98" y="1723.98" width="5.5" height="485.28" style="fill:#fff"/><rect x="4055.98" y="1723.98" width="5.5" height="485.28" style="fill:#fff"/><rect x="3933.97" y="1723.98" width="5.5" height="485.28" style="fill:#fff"/><rect x="3811.96" y="1723.98" width="5.5" height="485.28" style="fill:#fff"/><rect x="3474.99" y="1723.98" width="5.5" height="485.28" style="fill:#fff"/><rect x="3353.26" y="1723.98" width="5.5" height="485.28" style="fill:#fff"/><rect x="3231.52" y="1723.98" width="5.5" height="485.28" style="fill:#fff"/><rect x="3206.32" y="1723.98" width="5.5" height="485.28" style="fill:#fff"/><rect x="3085.87" y="1723.98" width="5.5" height="485.28" style="fill:#fff"/><rect x="2965.33" y="1723.98" width="5.5" height="485.28" style="fill:#fff"/><rect x="2844.88" y="1723.98" width="5.5" height="485.28" style="fill:#fff"/><rect x="2458.13" y="2206.51" width="361.44" height="5.5" style="fill:#fff"/><rect x="2458.13" y="1963.87" width="361.44" height="5.5" style="fill:#fff"/><rect x="2458.13" y="1721.23" width="361.44" height="5.5" style="fill:#fff"/><rect x="2816.83" y="1723.98" width="5.5" height="485.28" style="fill:#fff"/><rect x="2696.37" y="1723.98" width="5.5" height="485.28" style="fill:#fff"/><rect x="2575.93" y="1723.98" width="5.5" height="485.28" style="fill:#fff"/><rect x="2455.38" y="1723.98" width="5.5" height="485.28" style="fill:#fff"/><rect x="2071.48" y="2206.51" width="361.44" height="5.5" style="fill:#fff"/><rect x="2071.48" y="1963.87" width="361.44" height="5.5" style="fill:#fff"/><rect x="2071.48" y="1721.23" width="361.44" height="5.5" style="fill:#fff"/><rect x="2430.18" y="1723.98" width="5.5" height="485.28" style="fill:#fff"/><rect x="2309.73" y="1723.98" width="5.5" height="485.28" style="fill:#fff"/><rect x="2189.27" y="1723.98" width="5.5" height="485.28" style="fill:#fff"/><rect x="2068.73" y="1723.98" width="5.5" height="485.28" style="fill:#fff"/><rect x="1682.08" y="2206.51" width="361.44" height="5.5" style="fill:#fff"/><rect x="1682.08" y="1963.87" width="361.44" height="5.5" style="fill:#fff"/><rect x="1682.08" y="1721.23" width="361.44" height="5.5" style="fill:#fff"/><rect x="2040.77" y="1723.98" width="5.5" height="485.28" style="fill:#fff"/><rect x="1920.32" y="1723.98" width="5.5" height="485.28" style="fill:#fff"/><rect x="1799.78" y="1723.98" width="5.5" height="485.28" style="fill:#fff"/><rect x="1679.33" y="1723.98" width="5.5" height="485.28" style="fill:#fff"/><rect x="1294.52" y="2206.51" width="361.44" height="5.5" style="fill:#fff"/><rect x="1294.52" y="1963.87" width="361.44" height="5.5" style="fill:#fff"/><rect x="1294.52" y="1721.23" width="361.44" height="5.5" style="fill:#fff"/><rect x="1653.21" y="1723.98" width="5.5" height="485.28" style="fill:#fff"/><rect x="1532.67" y="1723.98" width="5.5" height="485.28" style="fill:#fff"/><rect x="1412.22" y="1723.98" width="5.5" height="485.28" style="fill:#fff"/><rect x="1291.77" y="1723.98" width="5.5" height="485.28" style="fill:#fff"/><rect x="904.11" y="2206.51" width="361.44" height="5.5" style="fill:#fff"/><rect x="904.11" y="1963.87" width="361.44" height="5.5" style="fill:#fff"/><rect x="904.11" y="1721.23" width="361.44" height="5.5" style="fill:#fff"/><rect x="1262.8" y="1723.98" width="5.5" height="485.28" style="fill:#fff"/><rect x="1142.35" y="1723.98" width="5.5" height="485.28" style="fill:#fff"/><rect x="1021.81" y="1723.98" width="5.5" height="485.28" style="fill:#fff"/><rect x="901.36" y="1723.98" width="5.5" height="485.28" style="fill:#fff"/><rect x="636.07" y="2206.51" width="240.99" height="5.5" style="fill:#fff"/><rect x="636.07" y="1963.87" width="240.99" height="5.5" style="fill:#fff"/><rect x="636.07" y="1721.23" width="240.99" height="5.5" style="fill:#fff"/><rect x="874.32" y="1723.98" width="5.5" height="485.28" style="fill:#fff"/><rect x="753.77" y="1723.98" width="5.5" height="485.28" style="fill:#fff"/><rect x="633.32" y="1723.98" width="5.5" height="485.28" style="fill:#fff"/><rect x="1682.08" y="1430.09" width="350.07" height="5.5" style="fill:#fff"/><rect x="2056.54" y="1430.09" width="364.19" height="5.5" style="fill:#fff"/><rect x="1786.49" y="1178.28" width="5.5" height="254.56" style="fill:#fff"/><rect x="1679.33" y="1178.28" width="5.5" height="254.56" style="fill:#fff"/><rect x="1907.95" y="1178.28" width="5.5" height="254.56" style="fill:#fff"/><rect x="2029.41" y="1178.28" width="5.5" height="254.56" style="fill:#fff"/><rect x="2053.79" y="1178.28" width="5.5" height="254.56" style="fill:#fff"/><rect x="2175.16" y="1178.28" width="5.5" height="254.56" style="fill:#fff"/><rect x="2296.52" y="1178.28" width="5.5" height="254.56" style="fill:#fff"/><rect x="2417.98" y="1178.28" width="5.5" height="254.56" style="fill:#fff"/><rect x="2445.48" y="1430.09" width="364.19" height="5.5" style="fill:#fff"/><rect x="2833.05" y="1430.09" width="364.19" height="5.5" style="fill:#fff"/><rect x="3223" y="1430.09" width="364.19" height="5.5" style="fill:#fff"/><rect x="3611.02" y="1430.09" width="364.19" height="5.5" style="fill:#fff"/><rect x="4000.06" y="1430.09" width="375.56" height="5.5" style="fill:#fff"/><rect x="2830.3" y="1178.28" width="5.5" height="254.56" style="fill:#fff"/><rect x="2806.92" y="1178.28" width="5.5" height="254.56" style="fill:#fff"/><rect x="2442.73" y="1178.28" width="5.5" height="254.56" style="fill:#fff"/><rect x="2564.19" y="1178.28" width="5.5" height="254.56" style="fill:#fff"/><rect x="2685.56" y="1178.28" width="5.5" height="254.56" style="fill:#fff"/><rect x="2951.76" y="1178.28" width="5.5" height="254.56" style="fill:#fff"/><rect x="3073.13" y="1178.28" width="5.5" height="254.56" style="fill:#fff"/><rect x="3194.49" y="1178.28" width="5.5" height="254.56" style="fill:#fff"/><rect x="3220.25" y="1178.28" width="5.5" height="254.56" style="fill:#fff"/><rect x="3341.62" y="1178.28" width="5.5" height="254.56" style="fill:#fff"/><rect x="3463.08" y="1178.28" width="5.5" height="254.56" style="fill:#fff"/><rect x="3584.44" y="1178.28" width="5.5" height="254.56" style="fill:#fff"/><rect x="3608.27" y="1178.28" width="5.5" height="254.56" style="fill:#fff"/><rect x="3729.73" y="1178.28" width="5.5" height="254.56" style="fill:#fff"/><rect x="3851.1" y="1178.28" width="5.5" height="254.56" style="fill:#fff"/><rect x="3972.47" y="1178.28" width="5.5" height="254.56" style="fill:#fff"/><rect x="3997.31" y="1178.28" width="5.5" height="254.56" style="fill:#fff"/><rect x="4122.52" y="1178.28" width="5.5" height="254.56" style="fill:#fff"/><rect x="4251.04" y="1178.28" width="5.5" height="254.56" style="fill:#fff"/><rect x="4372.87" y="1178.28" width="5.5" height="254.56" style="fill:#fff"/><rect x="602.8" y="1178.28" width="5.5" height="254.56" style="fill:#fff"/><rect x="435.23" y="1178.28" width="5.5" height="254.56" style="fill:#fff"/><rect x="629.38" y="1178.28" width="5.5" height="254.56" style="fill:#fff"/><rect x="744.98" y="1178.28" width="5.5" height="254.56" style="fill:#fff"/><rect x="864.51" y="1178.28" width="5.5" height="254.56" style="fill:#fff"/><rect x="632.13" y="1430.09" width="231.09" height="5.5" style="fill:#fff"/><rect x="437.98" y="1430.09" width="167.57" height="5.5" style="fill:#fff"/><rect x="70.4" y="2538.71" width="237.42" height="5.5" style="fill:#fff"/><rect x="305.07" y="2178.37" width="5.5" height="363.09" style="fill:#fff"/><rect x="305.07" y="1790.43" width="5.5" height="363.09" style="fill:#fff"/><rect x="70.4" y="2298.54" width="237.42" height="5.5" style="fill:#fff"/><rect x="70.4" y="2424.31" width="237.42" height="5.5" style="fill:#fff"/><rect x="70.4" y="2175.62" width="237.42" height="5.5" style="fill:#fff"/><rect x="70.4" y="2150.77" width="237.42" height="5.5" style="fill:#fff"/><rect x="70.4" y="2029.04" width="237.42" height="5.5" style="fill:#fff"/><rect x="70.4" y="1907.4" width="237.42" height="5.5" style="fill:#fff"/><rect x="70.4" y="1785.85" width="237.42" height="5.5" style="fill:#fff"/></g><g id="walls"><path d="M31.72,746.17H170.87v441.46H279.22v402.7H38.77V2883H4353.52l352.28-31.72,474.83-42.72,31.72-2.84V1901.17H5500V1561H5212.35V1213.67H4901.42v98.45H4424.48v-167h-793V1019.7H1643.77v334H907V1145.56H441.93V848.83H321.75V0H0V746.17Zm0-590.43H186.91V640.2h15.58V155.65h13.75V140.07H202.49V122.56H186.91v17.51H31.72V31.72H186.91V56.83h15.58V31.72H290V140.07H282v15.58H290v724.9H410.21v500.59H388.94v15.58h36.94V1177.18H875.42v208.27h800.16v-334H3599.75v125.4h793v167h524.79v12.75h15.58v-111.2h247.5v190.67h-247.5V1422.3h-15.58v29.33h263.08v141.08h287.65v276.83H5180.63v907.23l-828.48,74.52H895.67V2730.66H863.5v15.58h16.59v105.05H622.69v-14.66H607.11v14.66H70.49V2746.24H607v24.57H622.6v-24.57H797.68v-15.58H70.49V1622H310.84V1396.82h12.28v-15.59H310.84V1156H202.49V706H186.91v8.52H31.72Z" style="fill:#b7b7b7"/><polygon points="5212.81 1872.29 5180.63 1872.29 5180.63 1589.87 5212.35 1589.87 5212.81 1872.29" style="fill:#b7b7b7"/><polyline points="1668.79 1176.72 1668.79 1176.72 3604.52 1176.72 3604.52 1161.14 1668.79 1161.14 1668.79 1176.72" style="fill:#b7b7b7"/><polyline points="278.85 1622.04 293.79 1622.04 293.79 1698.67 70.49 1698.67 70.49 1622.04 70.49 2585.82 70.49 1715.27 293.79 1715.27 310.57 1715.27 310.57 1698.67 310.57 1622.04 310.57 1610.67" style="fill:#b7b7b7"/><polygon points="310.29 1610.67 310.93 1610.67 310.93 1715.54 70.86 1715.54 70.86 2585.82 70.13 2585.82 70.13 1622.04 70.86 1622.04 70.86 1698.31 293.52 1698.31 293.52 1622.32 278.85 1622.32 278.85 1621.67 294.16 1621.67 294.16 1699.04 70.86 1699.04 70.86 1714.9 310.29 1714.9 310.29 1610.67" style="fill:#b7b7b7"/><polyline points="863.5 2746.24 3469.77 2746.24 3483.43 2746.24 3483.43 2730.66 3469.77 2730.66 863.5 2730.66" style="fill:#b7b7b7"/><polygon points="863.5 2730.29 3483.7 2730.29 3483.7 2746.61 863.5 2746.61 863.5 2745.88 3483.06 2745.88 3483.06 2730.93 863.5 2730.93 863.5 2730.29" style="fill:#b7b7b7"/><rect x="3474.63" y="2499.02" width="15.58" height="247.22" style="fill:#b7b7b7"/><path d="M3474.26,2498.65h16.32v247.87h-16.32Zm15.58.73H3474.9V2746h14.94Z" style="fill:#b7b7b7"/><polygon points="4939.09 2513.78 5186.41 2513.78 5186.41 2498.19 4939.18 2498.19 4939.09 2513.78" style="fill:#b7b7b7"/><path d="M4938.82,2497.83h247.86v16.31H4938.63Zm247.22.73H4939.46l-.09,14.94H5186Z" style="fill:#b7b7b7"/></g></g></svg>