<?xml version="1.0" encoding="utf-8"?>
<!-- Generator: Adobe Illustrator 25.4.1, SVG Export Plug-In . SVG Version: 6.00 Build 0)  -->
<svg version="1.1" id="Livello_1" xmlns="http://www.w3.org/2000/svg" xmlns:xlink="http://www.w3.org/1999/xlink" x="0px" y="0px"
	 viewBox="0 0 5500 3575.6" style="enable-background:new 0 0 5500 3575.6;" xml:space="preserve">
<style type="text/css">
	.st0{fill:none;}
	.st1{fill:#F2F2F2;}
	.st2{fill:none;stroke:#DDDDDD;stroke-width:20;stroke-linecap:square;stroke-linejoin:round;}
	.st3{fill:url(#locale_tecnico-17_00000055687068224134253710000017395355758941583233_);}
	.st4{fill:url(#locale_tecnico-18_00000142154351492863733990000012331236993377970818_);}
	.st5{fill:url(#locale_tecnico-19_00000034084301709947613480000001575235247325194121_);}
	.st6{fill:url(#locale_tecnico-20_00000026165635729022804230000010595652753012812679_);}
	.st7{fill:url(#locale_tecnico-21_00000098193921834858320770000012767653739768596617_);}
	.st8{fill:#B7B7B7;}
	.st9{fill:none;stroke:#F2F2F2;stroke-miterlimit:9.9996;}
	.st10{fill:#FFFFFF;stroke:#303030;}
	.st11{fill:none;stroke:#F2F2F2;stroke-miterlimit:10;}
	.st12{fill:url(#SVGID_1_);}
	.st13{fill:url(#SVGID_00000102519296722700962480000001906689054044803216_);}
	.st14{fill:url(#SVGID_00000176761884479798145100000001436430321821125289_);}
	.st15{fill:#FFFFFF;}
</style>
<pattern  y="3575.6" width="40.2" height="40.2" patternUnits="userSpaceOnUse" id="locale_tecnico-17_2_" viewBox="54.3 -94.5 40.2 40.2" style="overflow:visible;">
	<g>
		<rect x="54.3" y="-94.5" class="st0" width="40.2" height="40.2"/>
		<rect x="54.3" y="-94.5" class="st0" width="40.2" height="40.2"/>
		<rect x="54.3" y="-94.5" class="st0" width="40.2" height="40.2"/>
		<rect x="54.3" y="-94.5" class="st0" width="40.2" height="40.2"/>
		<rect x="54.3" y="-94.5" class="st0" width="40.2" height="40.2"/>
		<rect x="54.3" y="-94.5" class="st0" width="40.2" height="40.2"/>
		<rect x="54.3" y="-94.5" class="st0" width="40.2" height="40.2"/>
		<rect x="54.3" y="-94.5" class="st0" width="40.2" height="40.2"/>
		<rect x="91.7" y="-131.8" class="st1" width="42.3" height="40.9"/>
		<line class="st2" x1="94.5" y1="-94.5" x2="134.6" y2="-134.7"/>
		<rect x="51.5" y="-131.8" class="st1" width="42.3" height="40.9"/>
		<line class="st2" x1="54.3" y1="-94.5" x2="94.5" y2="-134.7"/>
		<line class="st2" x1="14.1" y1="-94.5" x2="54.3" y2="-134.7"/>
		<rect x="91.7" y="-91.7" class="st1" width="42.3" height="40.9"/>
		<line class="st2" x1="94.5" y1="-54.3" x2="134.6" y2="-94.5"/>
		<rect x="51.5" y="-91.7" class="st1" width="42.3" height="40.9"/>
		<line class="st2" x1="54.3" y1="-54.3" x2="94.5" y2="-94.5"/>
		<line class="st2" x1="14.1" y1="-54.3" x2="54.3" y2="-94.5"/>
		<line class="st2" x1="94.5" y1="-14.1" x2="134.6" y2="-54.3"/>
		<line class="st2" x1="54.3" y1="-14.1" x2="94.5" y2="-54.3"/>
		<line class="st2" x1="14.1" y1="-14.1" x2="54.3" y2="-54.3"/>
	</g>
</pattern>
<pattern  y="3575.6" width="40.2" height="40.2" patternUnits="userSpaceOnUse" id="locale_tecnico-19_2_" viewBox="54.3 -94.5 40.2 40.2" style="overflow:visible;">
	<g>
		<rect x="54.3" y="-94.5" class="st0" width="40.2" height="40.2"/>
		<rect x="54.3" y="-94.5" class="st0" width="40.2" height="40.2"/>
		<rect x="54.3" y="-94.5" class="st0" width="40.2" height="40.2"/>
		<rect x="54.3" y="-94.5" class="st0" width="40.2" height="40.2"/>
		<rect x="54.3" y="-94.5" class="st0" width="40.2" height="40.2"/>
		<rect x="54.3" y="-94.5" class="st0" width="40.2" height="40.2"/>
		<rect x="54.3" y="-94.5" class="st0" width="40.2" height="40.2"/>
		<rect x="54.3" y="-94.5" class="st0" width="40.2" height="40.2"/>
		<rect x="91.7" y="-131.8" class="st1" width="42.3" height="40.9"/>
		<line class="st2" x1="94.5" y1="-94.5" x2="134.6" y2="-134.7"/>
		<rect x="51.5" y="-131.8" class="st1" width="42.3" height="40.9"/>
		<line class="st2" x1="54.3" y1="-94.5" x2="94.5" y2="-134.7"/>
		<line class="st2" x1="14.1" y1="-94.5" x2="54.3" y2="-134.7"/>
		<rect x="91.7" y="-91.7" class="st1" width="42.3" height="40.9"/>
		<line class="st2" x1="94.5" y1="-54.3" x2="134.6" y2="-94.5"/>
		<rect x="51.5" y="-91.7" class="st1" width="42.3" height="40.9"/>
		<line class="st2" x1="54.3" y1="-54.3" x2="94.5" y2="-94.5"/>
		<line class="st2" x1="14.1" y1="-54.3" x2="54.3" y2="-94.5"/>
		<line class="st2" x1="94.5" y1="-14.1" x2="134.6" y2="-54.3"/>
		<line class="st2" x1="54.3" y1="-14.1" x2="94.5" y2="-54.3"/>
		<line class="st2" x1="14.1" y1="-14.1" x2="54.3" y2="-54.3"/>
	</g>
</pattern>
<g id="P-floor-1">
	<g id="background">
		<polygon class="st1" points="32.2,2992.6 168.2,2992.6 201.8,3356.7 202.2,3360.5 204.8,3388.5 236.5,3385.6 357.3,3374.4 
			389.2,3371.5 389.1,3370.8 386.6,3343.5 344.5,2886.8 440.1,2886.8 455.8,2886.8 1461.1,2886.8 3460,2886.8 3475.7,2886.8 
			4015.6,2886.8 4169.2,2886.8 4346.1,2886.4 5210.5,2808.3 5210.5,2761.9 5210.5,1898.2 5499.7,1898.2 5499.7,1557 5210.5,1557 
			5210.5,1306.9 4298.5,1306.9 4298.5,1140.1 3617.6,1140.1 3617.6,1010.5 2470.9,1010.5 2470.9,384.4 2470.9,352.5 2438.9,352.5 
			1836.7,352.5 1804.7,352.5 1804.7,384.4 1804.7,618.3 1650.4,618.3 1618.4,618.3 1618.4,650.3 1618.4,1026.7 1618.4,1042.4 
			1618.4,1292.6 1461.1,1292.6 873.7,1292.6 873.7,1175.8 873.7,1138.1 836.9,1138.1 735.5,1138.1 374.3,1138.1 374.3,1359.2 
			243.1,1359.2 243.1,1375 243.1,1587.1 32.2,1587.1 0.4,1587.1 0.4,1632.3 0.4,2587.5 0.4,2603.3 0.4,2681.9 0.4,2697.7 
			0.4,2960.7 0.4,2992.6 		"/>
	</g>
	<g id="rooms">
		<path id="senza_codice" class="st1" d="M32.3,2957.9v-257.4c0-1.5,1.2-2.8,2.8-2.8c0,0,0,0,0,0h102.6c1.5,0,2.8,1.2,2.8,2.8l0,0
			v44.9c0,1.5,1.2,2.8,2.8,2.8c0,0,0,0,0,0h696.2c1.5,0,2.8,1.2,2.8,2.8l0,0v101.2c0,1.5-1.2,2.8-2.8,2.8c0,0,0,0,0,0H312.6
			c-1.5,0-2.8,1.2-2.8,2.8l0,0l0,0v0.3l2.7,28.9l42.1,455.8l0.1,1c0.1,1.5-1,2.8-2.5,3h-0.1l-117.7,10.9H234l-36.3-394
			c-0.1-1.5-1.4-2.6-2.9-2.5c0,0,0,0,0,0h-0.1l-1,0.1v-0.4H35.1C33.6,2960.6,32.4,2959.4,32.3,2957.9z"/>
		
			<pattern  id="locale_tecnico-17_00000145016830630563594210000000887540045564980901_" xlink:href="#locale_tecnico-17_2_" patternTransform="matrix(-0.48 0 0 0.48 -21185.3203 5280.0649)">
		</pattern>
		
			<polygon id="locale_tecnico-17" style="fill:url(#locale_tecnico-17_00000145016830630563594210000000887540045564980901_);" points="
			1784.7,1153.5 1784.7,1042.4 1820.9,1042.4 1837.6,1042.4 1837.6,1025.7 1837.6,995.2 2438.9,995.2 2438.9,1010.5 2438.9,1026.7 
			2438.9,1042.4 2470.9,1042.4 3586.7,1042.4 3586.7,1138.1 3586.7,1153.5 		"/>
		
			<pattern  id="locale_tecnico-18_00000059310340965569172280000007013074863776819377_" xlink:href="#locale_tecnico-17_2_" patternTransform="matrix(-0.48 0 0 0.48 -21185.3203 5280.0649)">
		</pattern>
		
			<rect id="locale_tecnico-18" x="32.8" y="1617.5" style="fill:url(#locale_tecnico-18_00000059310340965569172280000007013074863776819377_);" width="224.4" height="76.7"/>
		
			<pattern  id="locale_tecnico-19_00000062877635556174658520000015183978077310259589_" xlink:href="#locale_tecnico-19_2_" patternTransform="matrix(-0.48 0 0 0.48 -21107.0508 5355.3452)">
		</pattern>
		
			<polygon id="locale_tecnico-19" style="fill:url(#locale_tecnico-19_00000062877635556174658520000015183978077310259589_);" points="
			1648.4,650.3 1648.4,844.7 2026,844.7 2026,639.4 2234,639.4 2234,606 2438.4,606 2438.4,384.9 1837.1,384.9 1837.1,650.3 		"/>
		
			<pattern  id="locale_tecnico-20_00000022532571490400535690000005003925864256182438_" xlink:href="#locale_tecnico-17_2_" patternTransform="matrix(-0.48 0 0 0.48 -21185.3203 5280.0649)">
		</pattern>
		
			<rect id="locale_tecnico-20" x="5210" y="1587.5" style="fill:url(#locale_tecnico-20_00000022532571490400535690000005003925864256182438_);" width="257.7" height="278.7"/>
		
			<pattern  id="locale_tecnico-21_00000002370090446502528770000006407381866556243640_" xlink:href="#locale_tecnico-17_2_" patternTransform="matrix(-0.48 0 0 0.48 -21185.3203 5280.0649)">
		</pattern>
		
			<polygon id="locale_tecnico-21" style="fill:url(#locale_tecnico-21_00000002370090446502528770000006407381866556243640_);" points="
			858,2854.9 858,2748.2 1461.1,2748.2 3475.7,2748.2 3475.7,2854.9 1461.1,2854.9 		"/>
		<g class="clickable" id="P--1-32">
			<rect x="2043.1" y="656.5" class="st0" width="396" height="322.4"/>
		</g>
		<g class="clickable" id="P--1-30">
			<rect x="1648.7" y="861.6" class="st1" width="172.4" height="164.4"/>
			<path class="st1" d="M1648.3,861.3h173.2v165h-173.2V861.3z M1820.8,861.9H1649v163.7h171.8L1820.8,861.9z"/>
		</g>
		<g class="clickable" id="P--1-15">
			<g id="scale">
				<rect x="142.7" y="2747.1" class="st8" width="3.4" height="109.2"/>
				<rect x="144.8" y="2799.6" class="st8" width="306.2" height="3.4"/>
				<rect x="144.8" y="2854.3" class="st8" width="306.2" height="3.4"/>
				<rect x="427.7" y="2747.6" class="st8" width="3.4" height="108.7"/>
				<rect x="408.2" y="2747.6" class="st8" width="3.4" height="108.7"/>
				<rect x="387.2" y="2747.6" class="st8" width="3.4" height="108.7"/>
				<rect x="325.3" y="2747.6" class="st8" width="3.4" height="108.7"/>
				<rect x="302.2" y="2747.6" class="st8" width="3.4" height="108.7"/>
				<rect x="279.8" y="2747.6" class="st8" width="3.4" height="108.7"/>
				<rect x="257.1" y="2747.6" class="st8" width="3.4" height="108.7"/>
				<rect x="186.9" y="2747.6" class="st8" width="3.4" height="108.7"/>
				<rect x="165.1" y="2745.3" class="st8" width="3.4" height="111.1"/>
				<polygon class="st8" points="165.3,2745.9 168.4,2747.1 145.9,2801.3 167.9,2855.4 164.8,2856.7 142.4,2801.3 				"/>
				<rect x="234.8" y="2747.6" class="st8" width="3.4" height="108.7"/>
				<rect x="211.4" y="2747.6" class="st8" width="3.4" height="108.7"/>
			</g>
			<rect id="_tracciato_" x="31.9" y="2745.3" class="st0" width="804" height="111.1"/>
		</g>
		<g class="clickable" id="P--1-01">
			<polygon id="_tracciato_2" class="st1" points="32.2,2587.5 32.2,1711.4 240.2,1711.4 274.1,1711.4 274.1,1600.3 274.1,1391.2 
				383.9,1391.2 406.3,1391.2 406.3,1359.2 406.3,1169.2 703.6,1169.2 735.5,1169.2 842.6,1169.2 842.6,1292.6 842.6,1324.5 
				842.6,1378.8 874.6,1378.8 874.6,1324.5 1461.1,1324.5 1616.5,1324.5 1616.5,1378.8 1648.4,1378.8 1648.4,1324.5 1648.4,1292.6 
				1648.4,1042.4 1767.9,1042.4 1767.9,1042.4 1767.9,1170.1 3614.8,1170.1 4266.6,1170.1 4266.6,1325.9 4266.6,1337.8 
				4298.5,1337.8 5178.6,1337.8 5178.6,2780 4350.8,2854.9 3475.7,2854.9 3475.7,2748.2 3475.7,2732.5 3460,2732.5 1461.1,2732.5 
				858,2732.5 842.3,2732.5 156.1,2732.5 156.1,2697.7 156.1,2681.9 156.1,2603.3 156.1,2587.5 140.4,2587.5 			"/>
		</g>
		<g class="clickable" data-building-code="A4" id="P1--1-A4--1" data-floor-code="-1">
			
				<rect x="212.7" y="3379.6" transform="matrix(0.9957 -9.237059e-02 9.237059e-02 0.9957 -319.5411 43.0848)" class="st9" width="186" height="187.8"/>
			<path class="st10" d="M307.3,3408c-35.2-0.1-63.9,28.4-64,63.6c0,0,0,0,0,0.1l0,0l0,0v0.1c0.4,35.4,29.4,63.7,64.8,63.3
				c34.8-0.4,62.9-28.5,63.3-63.2v-0.1C371.3,3436.5,342.6,3408,307.3,3408"/>
			<path d="M302.9,3496.7l-3.4-10h-19.7l-3.4,10h-8l18.3-49.9h6.1l18.3,49.9H302.9z M289.9,3458.1l-7.8,22.2h15.3L289.9,3458.1z"/>
			<path d="M341.1,3489.2v7.5h-6.9v-7.5H314v-6.6l17.5-35.7h7.7l-17.5,35.7h12.5V3471h6.9v11.6h5.4v6.6L341.1,3489.2z"/>
		</g>
		<g class="clickable" data-building-code="A1" id="P1--1-A1--1" data-floor-code="-1">
			<rect x="214.2" y="1197.7" class="st11" width="159" height="160.5"/>
			<path class="st10" d="M290.5,1214.6c-35.2-0.1-63.9,28.4-64,63.6c0,0,0,0,0,0v0.1c0.4,35.4,29.4,63.7,64.8,63.3
				c34.8-0.4,62.9-28.5,63.3-63.2v-0.1C354.5,1243,325.8,1214.5,290.5,1214.6"/>
			<path d="M287.5,1303.3l-3.4-10h-19.7l-3.4,10h-8l18.3-49.8h6.1l18.3,49.8H287.5z M274.4,1264.7l-7.8,22.2h15.3L274.4,1264.7z"/>
			<path d="M313.8,1303.3v-42.1l-9.7,8.6v-7.9l9.7-8.4h7.1v49.8H313.8z"/>
		</g>
		<g class="clickable" data-building-code="A2" id="P1--1-A2--1" data-floor-code="-1">
			<rect x="4300" y="1138.3" class="st11" width="165.1" height="166.7"/>
			<path class="st10" d="M4382.1,1157.5c-35.2-0.1-63.9,28.4-64,63.6c0,0,0,0,0,0l0,0l0,0v0.1c0.4,35.4,29.4,63.7,64.8,63.3
				c34.8-0.4,62.8-28.5,63.3-63.2v-0.1C4446,1186,4417.3,1157.5,4382.1,1157.5"/>
			<path d="M4378.4,1246.4l-3.4-10h-19.7l-3.4,10h-8l18.3-49.8h6.1l18.3,49.8H4378.4z M4365.4,1207.8l-7.8,22.2h15.4L4365.4,1207.8z
				"/>
			<path d="M4391.4,1246.4v-6.4l19.2-23.3c0.9-1,1.5-2.1,2-3.2c0.4-1.1,0.6-2.2,0.5-3.4c0.1-2-0.6-4-1.9-5.5c-1.4-1.4-3.4-2.2-5.4-2
				c-1.9-0.1-3.8,0.6-5.3,1.8c-1.4,1.2-2.1,3.1-2.1,5.8h-7.1c-0.2-3.8,1.3-7.5,4.1-10.2c2.8-2.7,6.6-4.1,10.4-3.9
				c3.8-0.2,7.6,1.2,10.4,3.8c2.7,2.7,4.2,6.4,4,10.2c0.1,1.8-0.3,3.7-1,5.3c-1,2-2.2,3.8-3.7,5.4l-15.6,19.1h20.3v6.4
				L4391.4,1246.4z"/>
		</g>
	</g>
	<g id="auto">
		<polygon class="st0" points="3460,2854.9 3460,2748.2 1461.1,2748.2 858,2748.2 858,2854.9 1461.1,2854.9 		"/>
		<pattern  id="SVGID_1_" xlink:href="#locale_tecnico-17_2_" patternTransform="matrix(-0.48 0 0 0.48 -21185.3203 5280.0649)">
		</pattern>
		<path class="st12" d="M5178.6,2508.5l-241.6,0.9c-98.6,242.4-281.9,309.1-322.9,321.2l564.5-50.7V2508.5z"/>
		
			<pattern  id="SVGID_00000175289274542776792850000010944981397481085070_" xlink:href="#locale_tecnico-17_2_" patternTransform="matrix(-0.48 0 0 0.48 -21185.3203 5280.0649)">
		</pattern>
		<path style="fill:url(#SVGID_00000175289274542776792850000010944981397481085070_);" d="M3475.7,2748.2v106.7h334.9
			c-227.1-53.6-323.9-356-323.9-356h-13.3v233.5h2.4L3475.7,2748.2z"/>
		
			<pattern  id="SVGID_00000091724215980616794090000012833750356374279858_" xlink:href="#locale_tecnico-17_2_" patternTransform="matrix(-0.48 0 0 0.48 -21185.3203 5280.0649)">
		</pattern>
		<path style="fill:url(#SVGID_00000091724215980616794090000012833750356374279858_);" d="M4587.8,2498.9
			c-67.2,61-247.3,56.2-247.3,56.2s-288.3,3.3-381.6,3.3s-141.1-58.2-141.1-58.2L4587.8,2498.9z"/>
		<path class="st15" d="M3714.1,2596.5c1.1,0,2.1,0.5,2.9,1.3c0.2,0.2,18,21.4,49.7,44.5c1.7,1.2,2,3.5,0.8,5.2
			c-1.2,1.7-3.5,2-5.2,0.8l0,0c-32.5-23.6-50.2-44.9-51.1-45.8c-1.3-1.6-1.1-3.9,0.5-5.2l0,0
			C3712.4,2596.8,3713.3,2596.5,3714.1,2596.5z M4681.2,2611.1c2,0,3.7,1.6,3.8,3.6c0,1-0.4,1.9-1,2.6
			c-12.7,14.3-31.9,27.2-56.9,38.5c-1.9,0.9-4.1,0.2-5-1.7s-0.2-4.1,1.7-5c0.1,0,0.1-0.1,0.2-0.1l0,0c24-10.8,42.3-23.2,54.4-36.6
			C4679.1,2611.5,4680.1,2611.1,4681.2,2611.1z M4561.6,2670.7c2-0.1,3.8,1.5,3.9,3.5l0,0c0.1,1.9-1.2,3.5-3,3.9
			c-20.2,5.4-42.5,10.1-66.5,14.2c-2.1,0.3-3.9-1.2-4.2-3.2c-0.3-1.9,1-3.7,2.9-4.2l0,0c23.7-4.1,45.9-8.8,65.9-14
			C4560.9,2670.8,4561.3,2670.7,4561.6,2670.7z M3822.8,2675.8c0.5,0,1.1,0.1,1.6,0.4c20.2,9.3,41.5,16.3,63.3,20.8
			c2,0.4,3.3,2.4,2.9,4.4c0,0,0,0,0,0c0,0,0,0.1,0,0.1c-0.4,2-2.4,3.3-4.4,2.9c0,0,0,0,0,0h-0.1c-22.4-4.6-44.1-11.8-64.9-21.3
			c-1.8-0.8-2.7-2.9-2-4.8C3819.8,2676.7,3821.2,2675.7,3822.8,2675.8z M4428.2,2694c2-0.1,3.8,1.5,3.9,3.5s-1.5,3.8-3.5,3.9
			c-32.8,3.4-55.4,4.2-55.6,4.2h0l-12.5,0.1c-2.1,0-3.8-1.6-3.8-3.7c0-2.1,1.6-3.8,3.7-3.8l0,0l12.4-0.2c1.1-0.1,23.3-0.9,55.1-4.2
			L4428.2,2694z M4292.6,2699.2c2,0,3.7,1.7,3.7,3.7c0,2-1.6,3.7-3.7,3.7l-67.8,0.7l0,0c-2-0.1-3.6-1.8-3.5-3.9
			c0.1-1.9,1.6-3.4,3.5-3.5C4249.5,2699.6,4272.5,2699.3,4292.6,2699.2L4292.6,2699.2z M4157.2,2700.6c2,0.1,3.6,1.8,3.5,3.9
			c-0.1,1.9-1.6,3.4-3.5,3.5l-67.8,0.6l0,0c-2,0-3.7-1.7-3.7-3.7c0-2,1.6-3.7,3.7-3.7C4112,2701.1,4134.8,2700.8,4157.2,2700.6
			L4157.2,2700.6z M4021.8,2701.9c2-0.1,3.8,1.5,3.9,3.5c0.1,2-1.5,3.8-3.5,3.9c-0.1,0-0.3,0-0.4,0c-25.7,0.2-48.5,0.4-67.8,0.6l0,0
			c-2,0-3.7-1.6-3.7-3.7s1.6-3.7,3.7-3.7c0,0,0,0,0,0C3973.3,2702.3,3996.1,2702.1,4021.8,2701.9L4021.8,2701.9z"/>
		<path class="st15" d="M4684.7,2610.3c1.2,0,2.3,0.6,3,1.5c0.8,0.9,1,2.2,0.6,3.3l-13.5,44.6c-0.6,2-2.7,3.1-4.6,2.5
			c-2-0.6-3.1-2.7-2.5-4.6l11.9-39.6l-40.1,1.7c-2,0.1-3.8-1.5-3.9-3.5s1.5-3.8,3.5-3.9l0,0l45.2-1.9L4684.7,2610.3z"/>
		
			<rect x="3557.5" y="2598.5" transform="matrix(0.7568 -0.6537 0.6537 0.7568 -798.3911 3058.1594)" class="st8" width="305.4" height="6.7"/>
		
			<rect x="4688.4" y="2460.2" transform="matrix(0.7242 -0.6896 0.6896 0.7242 -506.4224 3955.6912)" class="st8" width="6.7" height="301.5"/>
		<rect x="3469.9" y="2499.5" class="st8" width="1119.7" height="4.8"/>
		<path class="st8" d="M3490.8,2501.2c0.3,0.7,26.2,76.1,79.4,156.9c48.9,74.4,131.7,168.8,247.9,196.3l-1.6,6.6
			c-52.3-12.4-102.4-38.9-148.7-78.9c-37-31.9-71.7-72.4-103.3-120.4c-53.6-81.6-79.9-157.6-80.1-158.4L3490.8,2501.2z"/>
		<path class="st8" d="M4930.5,2508.6l6.3,2.6c-22.9,56.1-52.3,107.3-87.8,152c-28.9,36.7-62.4,69.6-99.5,97.9
			c-67.5,51.3-127.3,71.4-144.1,76.4l-1.9-6.5c16.4-4.9,75.3-24.8,141.9-75.3C4826.7,2694.1,4888.9,2610.9,4930.5,2508.6z"/>
		<path class="st8" d="M3826.7,2498.5c0.1,0.1,10.4,14.4,31.8,28.3c19.7,12.9,53.1,28.3,100.2,28.3c92.3,0,378.8-3.3,381.6-3.3h0.2
			c32.2,0.9,64.5-0.4,96.6-3.8c68.2-7.4,118.5-24.3,145.4-48.6l4.5,5c-15.7,14.2-38.5,25.9-67.9,34.8c-23.3,7-50.7,12.3-81.5,15.6
			c-32.3,3.4-64.9,4.7-97.4,3.8c-6.5,0.1-289.9,3.3-381.6,3.3c-49.1,0-83.8-16.1-104.3-29.6c-22.3-14.7-32.9-29.4-33.3-29.9
			L3826.7,2498.5z"/>
	</g>
	<g id="linee-parcheggi">
		<rect x="3448.5" y="2492.5" class="st15" width="5.5" height="230.3"/>
		<rect x="2820.2" y="2489.7" class="st15" width="364.8" height="5.5"/>
		<rect x="2428.6" y="2489.7" class="st15" width="366.5" height="5.5"/>
		<rect x="2037.1" y="2489.7" class="st15" width="366.5" height="5.5"/>
		<rect x="1643.9" y="2489.7" class="st15" width="366.5" height="5.5"/>
		<rect x="1254" y="2489.7" class="st15" width="366.5" height="5.5"/>
		<rect x="860.9" y="2489.7" class="st15" width="366.5" height="5.5"/>
		<rect x="410.5" y="2489.7" class="st15" width="425.3" height="5.5"/>
		<rect x="3210.1" y="2489.7" class="st15" width="241.2" height="5.5"/>
		<rect x="3327.9" y="2492.5" class="st15" width="5.5" height="230.3"/>
		<rect x="3207.3" y="2492.5" class="st15" width="5.5" height="230.3"/>
		<rect x="3182.2" y="2492.5" class="st15" width="5.5" height="230.3"/>
		<rect x="3060.1" y="2492.5" class="st15" width="5.5" height="230.3"/>
		<rect x="2936.4" y="2492.5" class="st15" width="5.5" height="230.3"/>
		<rect x="2817.4" y="2492.5" class="st15" width="5.5" height="230.3"/>
		<rect x="2792.3" y="2492.5" class="st15" width="5.5" height="230.3"/>
		<rect x="2546.4" y="2492.5" class="st15" width="5.5" height="230.3"/>
		<rect x="2425.8" y="2492.5" class="st15" width="5.5" height="230.3"/>
		<rect x="2400.8" y="2492.5" class="st15" width="5.5" height="230.3"/>
		<rect x="2277" y="2492.5" class="st15" width="5.5" height="230.3"/>
		<rect x="2158.6" y="2492.5" class="st15" width="5.5" height="230.3"/>
		<rect x="2034.3" y="2492.5" class="st15" width="5.5" height="230.3"/>
		<rect x="2007.6" y="2492.5" class="st15" width="5.5" height="230.3"/>
		<rect x="1887.1" y="2492.5" class="st15" width="5.5" height="230.3"/>
		<rect x="1763.4" y="2492.5" class="st15" width="5.5" height="230.3"/>
		<rect x="1641.1" y="2492.5" class="st15" width="5.5" height="230.3"/>
		<rect x="1617.7" y="2492.5" class="st15" width="5.5" height="230.3"/>
		<rect x="1494" y="2492.5" class="st15" width="5.5" height="230.3"/>
		<rect x="1373.4" y="2492.5" class="st15" width="5.5" height="230.3"/>
		<rect x="1251.2" y="2492.5" class="st15" width="5.5" height="230.3"/>
		<rect x="1224.6" y="2492.5" class="st15" width="5.5" height="230.3"/>
		<rect x="1102.4" y="2492.5" class="st15" width="5.5" height="230.3"/>
		<rect x="980.3" y="2492.5" class="st15" width="5.5" height="230.3"/>
		<rect x="857.5" y="2492.5" class="st15" width="5.5" height="230.3"/>
		<rect x="833" y="2492.5" class="st15" width="5.5" height="230.3"/>
		<rect x="712.5" y="2492.5" class="st15" width="5.5" height="230.3"/>
		<rect x="588.8" y="2492.5" class="st15" width="5.5" height="230.3"/>
		<rect x="565.2" y="2492.5" class="st15" width="5.5" height="230.3"/>
		<rect x="407.8" y="2492.5" class="st15" width="5.5" height="230.3"/>
		<rect x="34.6" y="2476.1" class="st15" width="239" height="5.5"/>
		<rect x="270.9" y="2165.9" class="st15" width="5.5" height="313"/>
		<rect x="34.6" y="2319.6" class="st15" width="239" height="5.5"/>
		<rect x="34.6" y="2163.1" class="st15" width="239" height="5.5"/>
		<rect x="34.6" y="2132.4" class="st15" width="239" height="5.5"/>
		<rect x="270.9" y="1822.3" class="st15" width="5.5" height="312.9"/>
		<rect x="34.6" y="1976" class="st15" width="239" height="5.5"/>
		<rect x="34.6" y="1819.5" class="st15" width="239" height="5.5"/>
		<rect x="417.4" y="1161.5" class="st15" width="5.5" height="256.3"/>
		<rect x="576.3" y="1161.5" class="st15" width="5.5" height="256.3"/>
		<rect x="597.5" y="1161.5" class="st15" width="5.5" height="256.3"/>
		<rect x="713.9" y="1161.5" class="st15" width="5.5" height="256.3"/>
		<rect x="830.2" y="1161.5" class="st15" width="5.5" height="256.3"/>
		<rect x="931.2" y="1317.1" class="st15" width="5.5" height="100.7"/>
		<rect x="882.2" y="1317.1" class="st15" width="5.5" height="100.7"/>
		<rect x="980" y="1317.1" class="st15" width="5.5" height="100.7"/>
		<rect x="1028.9" y="1317.1" class="st15" width="5.5" height="100.7"/>
		<rect x="1077.8" y="1317.1" class="st15" width="5.5" height="100.7"/>
		<rect x="1126.7" y="1317.1" class="st15" width="5.5" height="100.7"/>
		<rect x="1175.5" y="1317.1" class="st15" width="5.5" height="100.7"/>
		<rect x="1224.4" y="1317.1" class="st15" width="5.5" height="100.7"/>
		<rect x="885" y="1415.1" class="st15" width="342.2" height="5.5"/>
		<rect x="1299.3" y="1317.1" class="st15" width="5.5" height="100.7"/>
		<rect x="1250.4" y="1317.1" class="st15" width="5.5" height="100.7"/>
		<rect x="1348.1" y="1317.1" class="st15" width="5.5" height="100.7"/>
		<rect x="1397.1" y="1317.1" class="st15" width="5.5" height="100.7"/>
		<rect x="1445.9" y="1317.1" class="st15" width="5.5" height="100.7"/>
		<rect x="1494.8" y="1317.1" class="st15" width="5.5" height="100.7"/>
		<rect x="1543.8" y="1317.1" class="st15" width="5.5" height="100.7"/>
		<rect x="1592.6" y="1317.1" class="st15" width="5.5" height="100.7"/>
		<rect x="1765.6" y="1415.1" class="st15" width="244.6" height="5.5"/>
		<rect x="2034.7" y="1415.1" class="st15" width="366.8" height="5.5"/>
		<rect x="2034.7" y="1172.8" class="st15" width="366.8" height="5.5"/>
		<rect x="1765.6" y="1172.8" class="st15" width="244.6" height="5.5"/>
		<rect x="1762.8" y="1175.5" class="st15" width="5.5" height="242.3"/>
		<rect x="1885.1" y="1175.5" class="st15" width="5.5" height="242.3"/>
		<rect x="2007.4" y="1175.5" class="st15" width="5.5" height="242.3"/>
		<rect x="2031.9" y="1175.5" class="st15" width="5.5" height="242.3"/>
		<rect x="2154.2" y="1175.5" class="st15" width="5.5" height="242.3"/>
		<rect x="2276.4" y="1175.5" class="st15" width="5.5" height="242.3"/>
		<rect x="2398.7" y="1175.5" class="st15" width="5.5" height="242.3"/>
		<rect x="2426.4" y="1415.1" class="st15" width="366.8" height="5.5"/>
		<rect x="2818.6" y="1415.1" class="st15" width="366.8" height="5.5"/>
		<rect x="3209.4" y="1415.1" class="st15" width="366.8" height="5.5"/>
		<rect x="3600.2" y="1415.1" class="st15" width="366.7" height="5.5"/>
		<rect x="3991.9" y="1415.1" class="st15" width="265.7" height="5.5"/>
		<rect x="4932.7" y="1380.1" class="st15" width="248.1" height="5.5"/>
		<rect x="4932.7" y="1501.4" class="st15" width="248.1" height="5.5"/>
		<rect x="4932.7" y="1622.8" class="st15" width="248.1" height="5.5"/>
		<rect x="4932.7" y="1744.1" class="st15" width="248.1" height="5.5"/>
		<rect x="4932.7" y="1769.7" class="st15" width="248.1" height="5.5"/>
		<rect x="4932.7" y="1891" class="st15" width="248.1" height="5.5"/>
		<rect x="4932.7" y="2012.3" class="st15" width="248.1" height="5.5"/>
		<rect x="4932.7" y="2133.7" class="st15" width="248.1" height="5.5"/>
		<rect x="4932.7" y="2161.1" class="st15" width="248.1" height="5.5"/>
		<rect x="4932.7" y="2282.5" class="st15" width="248.1" height="5.5"/>
		<rect x="4932.7" y="2404" class="st15" width="248.1" height="5.5"/>
		<rect x="4930" y="1382.9" class="st15" width="5.5" height="364"/>
		<rect x="4930" y="1772.5" class="st15" width="5.5" height="364"/>
		<rect x="4565.1" y="1711" class="st15" width="5.5" height="488.7"/>
		<rect x="4442.3" y="1711" class="st15" width="5.5" height="488.7"/>
		<rect x="4199.4" y="1952.6" class="st15" width="368.5" height="5.5"/>
		<rect x="4199.4" y="1708.3" class="st15" width="368.5" height="5.5"/>
		<rect x="4199.4" y="2197" class="st15" width="368.5" height="5.5"/>
		<rect x="3805.3" y="2197" class="st15" width="368.5" height="5.5"/>
		<rect x="3220.7" y="2197" class="st15" width="245.2" height="5.5"/>
		<rect x="2831.3" y="2197" class="st15" width="364" height="5.5"/>
		<rect x="2831.3" y="1952.6" class="st15" width="364" height="5.5"/>
		<rect x="2831.3" y="1708.3" class="st15" width="364" height="5.5"/>
		<rect x="3220.7" y="1952.6" class="st15" width="245.2" height="5.5"/>
		<rect x="3220.7" y="1708.3" class="st15" width="245.2" height="5.5"/>
		<rect x="3805.3" y="1952.6" class="st15" width="368.5" height="5.5"/>
		<rect x="3805.3" y="1708.3" class="st15" width="368.5" height="5.5"/>
		<rect x="4319.4" y="1711" class="st15" width="5.5" height="488.7"/>
		<rect x="4196.6" y="1711" class="st15" width="5.5" height="488.7"/>
		<rect x="4171.1" y="1711" class="st15" width="5.5" height="488.7"/>
		<rect x="4048.2" y="1711" class="st15" width="5.5" height="488.7"/>
		<rect x="3925.4" y="1711" class="st15" width="5.5" height="488.7"/>
		<rect x="3802.6" y="1711" class="st15" width="5.5" height="488.7"/>
		<rect x="3463.1" y="1711" class="st15" width="5.5" height="488.7"/>
		<rect x="3340.5" y="1711" class="st15" width="5.5" height="488.7"/>
		<rect x="3217.9" y="1711" class="st15" width="5.5" height="488.7"/>
		<rect x="3192.6" y="1711" class="st15" width="5.5" height="488.7"/>
		<rect x="3071.2" y="1711" class="st15" width="5.5" height="488.7"/>
		<rect x="2949.9" y="1711" class="st15" width="5.5" height="488.7"/>
		<rect x="2828.6" y="1711" class="st15" width="5.5" height="488.7"/>
		<rect x="2439.2" y="2197" class="st15" width="364" height="5.5"/>
		<rect x="2439.2" y="1952.6" class="st15" width="364" height="5.5"/>
		<rect x="2439.2" y="1708.3" class="st15" width="364" height="5.5"/>
		<rect x="2800.4" y="1711" class="st15" width="5.5" height="488.7"/>
		<rect x="2679" y="1711" class="st15" width="5.5" height="488.7"/>
		<rect x="2557.7" y="1711" class="st15" width="5.5" height="488.7"/>
		<rect x="2436.4" y="1711" class="st15" width="5.5" height="488.7"/>
		<rect x="2049.8" y="2197" class="st15" width="364" height="5.5"/>
		<rect x="2049.8" y="1952.6" class="st15" width="364" height="5.5"/>
		<rect x="2049.8" y="1708.3" class="st15" width="364" height="5.5"/>
		<rect x="2411" y="1711" class="st15" width="5.5" height="488.7"/>
		<rect x="2289.7" y="1711" class="st15" width="5.5" height="488.7"/>
		<rect x="2168.3" y="1711" class="st15" width="5.5" height="488.7"/>
		<rect x="2047" y="1711" class="st15" width="5.5" height="488.7"/>
		<rect x="1657.6" y="2197" class="st15" width="364" height="5.5"/>
		<rect x="1657.6" y="1952.6" class="st15" width="364" height="5.5"/>
		<rect x="1657.6" y="1708.3" class="st15" width="364" height="5.5"/>
		<rect x="2018.8" y="1711" class="st15" width="5.5" height="488.7"/>
		<rect x="1897.5" y="1711" class="st15" width="5.5" height="488.7"/>
		<rect x="1776.2" y="1711" class="st15" width="5.5" height="488.7"/>
		<rect x="1654.8" y="1711" class="st15" width="5.5" height="488.7"/>
		<rect x="1267.3" y="2197" class="st15" width="364" height="5.5"/>
		<rect x="1267.3" y="1952.6" class="st15" width="364" height="5.5"/>
		<rect x="1267.3" y="1708.3" class="st15" width="364" height="5.5"/>
		<rect x="1628.5" y="1711" class="st15" width="5.5" height="488.7"/>
		<rect x="1507.2" y="1711" class="st15" width="5.5" height="488.7"/>
		<rect x="1385.9" y="1711" class="st15" width="5.5" height="488.7"/>
		<rect x="1264.5" y="1711" class="st15" width="5.5" height="488.7"/>
		<rect x="874.1" y="2197" class="st15" width="364.1" height="5.5"/>
		<rect x="874.1" y="1952.6" class="st15" width="364.1" height="5.5"/>
		<rect x="874.1" y="1708.3" class="st15" width="364.1" height="5.5"/>
		<rect x="1235.4" y="1711" class="st15" width="5.5" height="488.7"/>
		<rect x="1114" y="1711" class="st15" width="5.5" height="488.7"/>
		<rect x="992.7" y="1711" class="st15" width="5.5" height="488.7"/>
		<rect x="871.3" y="1711" class="st15" width="5.5" height="488.7"/>
		<rect x="604.2" y="2197" class="st15" width="242.7" height="5.5"/>
		<rect x="604.2" y="1952.6" class="st15" width="242.7" height="5.5"/>
		<rect x="604.2" y="1708.3" class="st15" width="242.7" height="5.5"/>
		<rect x="844.1" y="1711" class="st15" width="5.5" height="488.7"/>
		<rect x="722.8" y="1711" class="st15" width="5.5" height="488.7"/>
		<rect x="601.4" y="1711" class="st15" width="5.5" height="488.7"/>
		<rect x="4930" y="2163.8" class="st15" width="5.5" height="243"/>
		<rect x="3991.9" y="1172.8" class="st15" width="265.7" height="5.5"/>
		<rect x="3600.2" y="1172.8" class="st15" width="366.7" height="5.5"/>
		<rect x="3209.4" y="1172.8" class="st15" width="366.8" height="5.5"/>
		<rect x="2816.7" y="1172.8" class="st15" width="366.8" height="5.5"/>
		<rect x="2426.4" y="1172.8" class="st15" width="366.8" height="5.5"/>
		<rect x="2814" y="1175.5" class="st15" width="5.5" height="242.3"/>
		<rect x="2790.4" y="1177.1" class="st15" width="5.5" height="242.3"/>
		<rect x="2423.7" y="1175.5" class="st15" width="5.5" height="242.3"/>
		<rect x="2545.9" y="1175.5" class="st15" width="5.5" height="242.3"/>
		<rect x="2668.1" y="1177.1" class="st15" width="5.5" height="242.3"/>
		<rect x="2936.2" y="1175.5" class="st15" width="5.5" height="242.3"/>
		<rect x="3058.4" y="1175.5" class="st15" width="5.5" height="242.3"/>
		<rect x="3180.7" y="1175.5" class="st15" width="5.5" height="242.3"/>
		<rect x="3206.6" y="1175.5" class="st15" width="5.5" height="242.3"/>
		<rect x="3328.9" y="1165.1" class="st15" width="5.5" height="242.3"/>
		<rect x="3451.1" y="1165.1" class="st15" width="5.5" height="242.3"/>
		<rect x="3573.3" y="1175.5" class="st15" width="5.5" height="242.3"/>
		<rect x="3597.4" y="1175.5" class="st15" width="5.5" height="242.3"/>
		<rect x="3719.6" y="1175.5" class="st15" width="5.5" height="242.3"/>
		<rect x="3841.9" y="1175.5" class="st15" width="5.5" height="242.3"/>
		<rect x="3964.1" y="1175.5" class="st15" width="5.5" height="242.3"/>
		<rect x="3989.1" y="1175.5" class="st15" width="5.5" height="242.3"/>
		<rect x="4100.5" y="1175.5" class="st15" width="5.5" height="242.3"/>
		<rect x="4254.8" y="1175.5" class="st15" width="5.5" height="242.3"/>
		<rect x="1253.2" y="1415.1" class="st15" width="342.2" height="5.5"/>
		<rect x="600.3" y="1415.1" class="st15" width="232.6" height="5.5"/>
		<rect x="420.2" y="1415.1" class="st15" width="158.9" height="5.5"/>
		<rect x="48.4" y="2132.4" class="st15" width="225.2" height="5.5"/>
		<rect x="2668.6" y="2492.5" class="st15" width="5.5" height="230.3"/>
	</g>
	<g id="walls">
		<path class="st8" d="M32.3,2992.6h136l33.6,364.1l0.4,3.8l2.6,28l31.8-3l19.9-1.9l-2.7-28l-19.6,1.9h-0.4l-36.6-396.9l-3.9,0.4
			v-0.4H32.3v-263h19v-15.7H32.2v-78.6h19v-15.7h-19v-876.7H274v-319.6h6v-31.9h-38v225.9H0.4v1407.5H32.3z M242.1,1617.1h15v77.2
			H32.3v-77.2H242.1z"/>
		<path class="st8" d="M241.8,1359h38.6v32.6h-6v319.7H32.6v876.1h19.1v16.4H32.6v77.9h19.1v16.3H32.6v262.4h161.3v0.4l3.8-0.4
			l36.6,396.9l0,0l19.9-1.8l2.7,28.7l-20.3,1.8l-32.1,3L167.9,2993H0V1584.7h241.8V1359z M279.7,1359.6h-37.2v225.9H0.6v1406.8
			h167.8v0.3l36.5,395.6l51-4.7l-2.6-27.3l-19.9,1.9v-0.4L197,2961l-3.9,0.4v-0.4H31.9v-263.7H51v-15.1H32V2603h19v-15.1H32v-877.4
			h241.7v-319.7h6V1359.6z M31.9,1616.7h225.6v77.8H31.9V1616.7z M256.8,1617.3H32.6v76.5h224.2V1617.3z"/>
		<path class="st8" d="M4345.1,2854.9H858v-106.7h2617.7v-15.7H156.1v-144.8h-38.6v15.7h22.9v78.7h-22.9v15.7h22.9v50.5h701.8v106.7
			H309.8v2.9l2.7,29l42.1,455.8l0.4,3.8l-9.1,0.8l2.6,28l9-0.8l31.8-2.9l-0.1-0.6l-2.5-27.3L344.5,2887h4002l832.1-74.8l31.9-2.9
			v-911h289.2v-342.7h-289.3v-249.8h-825.3v31.9h793.3V2780L4345.1,2854.9z M5467.8,1587.5v278.8h-257.3v-278.8H5467.8z"/>
		<path class="st8" d="M4384.9,1305.6h825.9v249.7H5500v343.2h-289.2v911l-32.2,2.9l-832.1,74.8H344.9l42.1,456.3l2.7,28.3h-0.4
			l-41.2,3.8l-2.7-28.7l9.1-0.8l-0.4-3.4l-42-455.8l-2.7-29v-3.3h532.4v-106H140V2698h-22.8v-16.4h22.9v-78h-22.8v-16.4h39.2v144.9
			H3476v16.4H858.3v106h3486.7l833.1-74.8V1338.2h-793.3V1305.6z M5210.1,1306.2h-824.5v31.2h793.2v1442.9h-0.3l-833.5,74.9H857.6
			v-107.4h2617.7v-15H155.7v-144.9h-37.9v15.1h22.9v79.3h-22.9v15.1h22.9v50.5h701.9v107.5H310.1v2.6l2.7,29l42,455.8l0.4,4.1
			l-9.1,0.8l2.6,27.3l40.2-3.7v-0.3l-2.5-27.3l-42.1-457h4002.3l832-74.8l31.6-2.9v-911.2h289.2v-341.9h-289.1L5210.1,1306.2z
			 M5210.1,1587.1h257.9v279.4h-257.9L5210.1,1587.1z M5467.5,1587.8h-256.6v278h256.6V1587.8z"/>
		<path class="st8" d="M406.3,1390.2v-221.1h436.4v209.6h31.9v-54.3h741.9v54.3h31.9v-336.4h20.5v-16.7h-20.5V861.4H1821v9.5h16.6
			v-9.5h204.9V656h208.7v-33.8h187.7v356.4h-601.4v-26.7H1821v73.9h-63.9v16.6h11v127.7h2498.5v167.7h49.1v-31.9h-17.2v-167.7
			h-679.9v-127.7H2470.9v-658h-666.1v265.9h-188.2v674.3H874.6v-155.4H374.4v222h-5.5v31.9h37.5L406.3,1390.2L406.3,1390.2z
			 M3586.7,1042.4v111H1784.8v-111h52.8v-47.2h601.3v47.2H3586.7z M1804.7,650.2h31.9V384.4h602.2v221.1h-204.4v33.9h-208.7v205.3
			h-377.4V650.3L1804.7,650.2z"/>
		<path class="st8" d="M1804.3,352.2h666.8v658h1147.8v127.7h679.9v167.7h17.2v32.6h-49.8v-167.7H1767.7v-127.7h-11v-17.4h63.9
			v-73.9h17.4v26.7h600.6V622.6h-187.2v33.8h-208.7v205.4h-204.8v9.5h-17.4v-9.5h-171.8v163.7h20.5v17.4h-20.5v336.4h-32.6v-54.3
			H874.8v54.3h-32.6v-209.6H406.5v222h-38.1V1359h5.6v-222h500.8v155.3h741.3V618h188.1L1804.3,352.2z M2470.5,352.8h-665.4v265.9
			h-188.2v674.2H874.2v-155.4H374.7v222h-5.5v31.2h36.7v-222H843v209.7h31.2v-54.3h742.6v54.3h31.2V1042h20.5v-16H1648V861h173.2
			v9.5h16V861H2042V655.6h208.7v-33.8h188.4v357.1h-602v-26.7h-16v73.8h-63.9v16h11v127.7h2498.5v167.7h48.4v-31.2H4298v-167.8h-680
			v-127.7H2470.5V352.8z M1836.3,384.1h603v221.7h-204.4v33.8h-208.7V845h-378V649.9h188.2L1836.3,384.1z M2438.5,384.8h-601.6
			v265.8h-188.2v193.8h376.7V639h208.7v-33.8h204.4V384.8z M1837.2,995h602v47.2H3587v111.7H1784.4v-111.7h52.9L1837.2,995z
			 M2438.5,995.6H1838v47.2h-52.9v110.3h1801.3v-110.4H2438.5V995.6z"/>
		<rect x="3460.2" y="2499.5" class="st8" width="15.7" height="249"/>
		<path class="st8" d="M3459.9,2499.1h16.4v249.6h-16.4V2499.1z M3475.6,2499.8h-15v248.3h15V2499.8z"/>
		<polygon class="st8" points="4929.1,2515.1 5183.9,2515.1 5183.9,2499.3 4935,2499.3 		"/>
		<path class="st8" d="M4934.8,2499h249.5v16.4h-255.6L4934.8,2499z M5183.5,2499.6h-248.4l-5.5,15h254L5183.5,2499.6z"/>
	</g>
</g>
</svg>
