<svg id="Livello_1" data-name="Livello 1" xmlns="http://www.w3.org/2000/svg" xmlns:xlink="http://www.w3.org/1999/xlink" viewBox="0 0 5500 3223.84"><defs><pattern id="locale_tecnico-17_0000014501683" data-name="locale tecnico-17 0000014501683" width="40.2" height="40.2" patternTransform="translate(-21241.03 -8475.76) rotate(180) scale(0.48)" patternUnits="userSpaceOnUse" viewBox="0 0 40.2 40.2"><rect width="40.2" height="40.2" style="fill:none"/><rect width="40.2" height="40.2" style="fill:none"/><rect width="40.2" height="40.2" style="fill:none"/><rect width="40.2" height="40.2" style="fill:none"/><rect width="40.2" height="40.2" style="fill:none"/><rect width="40.2" height="40.2" style="fill:none"/><rect width="40.2" height="40.2" style="fill:none"/><rect width="40.2" height="40.2" style="fill:none"/><rect width="40.2" height="40.2" style="fill:none"/><rect x="37.4" y="36.6" width="42.3" height="40.9" style="fill:#f2f2f2"/><line x1="40.2" y1="40.2" x2="80.3" y2="80.4" style="fill:none;stroke:#ddd;stroke-linecap:square;stroke-linejoin:round;stroke-width:20px"/><rect x="-2.8" y="36.6" width="42.3" height="40.9" style="fill:#f2f2f2"/><line y1="40.2" x2="40.2" y2="80.4" style="fill:none;stroke:#ddd;stroke-linecap:square;stroke-linejoin:round;stroke-width:20px"/><line x1="-40.2" y1="40.2" y2="80.4" style="fill:none;stroke:#ddd;stroke-linecap:square;stroke-linejoin:round;stroke-width:20px"/><rect x="37.4" y="-3.5" width="42.3" height="40.9" style="fill:#f2f2f2"/><line x1="40.2" x2="80.3" y2="40.2" style="fill:none;stroke:#ddd;stroke-linecap:square;stroke-linejoin:round;stroke-width:20px"/><rect x="-2.8" y="-3.5" width="42.3" height="40.9" style="fill:#f2f2f2"/><line x2="40.2" y2="40.2" style="fill:none;stroke:#ddd;stroke-linecap:square;stroke-linejoin:round;stroke-width:20px"/><line x1="-40.2" y2="40.2" style="fill:none;stroke:#ddd;stroke-linecap:square;stroke-linejoin:round;stroke-width:20px"/><line x1="40.2" y1="-40.2" x2="80.3" style="fill:none;stroke:#ddd;stroke-linecap:square;stroke-linejoin:round;stroke-width:20px"/><line y1="-40.2" x2="40.2" style="fill:none;stroke:#ddd;stroke-linecap:square;stroke-linejoin:round;stroke-width:20px"/><line x1="-40.2" y1="-40.2" style="fill:none;stroke:#ddd;stroke-linecap:square;stroke-linejoin:round;stroke-width:20px"/></pattern><pattern id="locale_tecnico-19_0000006287763" data-name="locale tecnico-19 0000006287763" width="40.2" height="40.2" patternTransform="translate(-21162.76 -8551.04) rotate(180) scale(0.48)" patternUnits="userSpaceOnUse" viewBox="0 0 40.2 40.2"><rect width="40.2" height="40.2" style="fill:none"/><rect width="40.2" height="40.2" style="fill:none"/><rect width="40.2" height="40.2" style="fill:none"/><rect width="40.2" height="40.2" style="fill:none"/><rect width="40.2" height="40.2" style="fill:none"/><rect width="40.2" height="40.2" style="fill:none"/><rect width="40.2" height="40.2" style="fill:none"/><rect width="40.2" height="40.2" style="fill:none"/><rect width="40.2" height="40.2" style="fill:none"/><rect x="37.4" y="36.6" width="42.3" height="40.9" style="fill:#f2f2f2"/><line x1="40.2" y1="40.2" x2="80.3" y2="80.4" style="fill:none;stroke:#ddd;stroke-linecap:square;stroke-linejoin:round;stroke-width:20px"/><rect x="-2.8" y="36.6" width="42.3" height="40.9" style="fill:#f2f2f2"/><line y1="40.2" x2="40.2" y2="80.4" style="fill:none;stroke:#ddd;stroke-linecap:square;stroke-linejoin:round;stroke-width:20px"/><line x1="-40.2" y1="40.2" y2="80.4" style="fill:none;stroke:#ddd;stroke-linecap:square;stroke-linejoin:round;stroke-width:20px"/><rect x="37.4" y="-3.5" width="42.3" height="40.9" style="fill:#f2f2f2"/><line x1="40.2" x2="80.3" y2="40.2" style="fill:none;stroke:#ddd;stroke-linecap:square;stroke-linejoin:round;stroke-width:20px"/><rect x="-2.8" y="-3.5" width="42.3" height="40.9" style="fill:#f2f2f2"/><line x2="40.2" y2="40.2" style="fill:none;stroke:#ddd;stroke-linecap:square;stroke-linejoin:round;stroke-width:20px"/><line x1="-40.2" y2="40.2" style="fill:none;stroke:#ddd;stroke-linecap:square;stroke-linejoin:round;stroke-width:20px"/><line x1="40.2" y1="-40.2" x2="80.3" style="fill:none;stroke:#ddd;stroke-linecap:square;stroke-linejoin:round;stroke-width:20px"/><line y1="-40.2" x2="40.2" style="fill:none;stroke:#ddd;stroke-linecap:square;stroke-linejoin:round;stroke-width:20px"/><line x1="-40.2" y1="-40.2" style="fill:none;stroke:#ddd;stroke-linecap:square;stroke-linejoin:round;stroke-width:20px"/></pattern><pattern id="SVGID_1_" data-name="SVGID 1 " width="40.2" height="40.2" patternTransform="translate(-21241.03 -8123.55) rotate(180) scale(0.48)" patternUnits="userSpaceOnUse" viewBox="0 0 40.2 40.2"><rect width="40.2" height="40.2" style="fill:none"/><rect width="40.2" height="40.2" style="fill:none"/><rect width="40.2" height="40.2" style="fill:none"/><rect width="40.2" height="40.2" style="fill:none"/><rect width="40.2" height="40.2" style="fill:none"/><rect width="40.2" height="40.2" style="fill:none"/><rect width="40.2" height="40.2" style="fill:none"/><rect width="40.2" height="40.2" style="fill:none"/><rect width="40.2" height="40.2" style="fill:none"/><rect x="37.4" y="36.6" width="42.3" height="40.9" style="fill:#f2f2f2"/><line x1="40.2" y1="40.2" x2="80.3" y2="80.4" style="fill:none;stroke:#ddd;stroke-linecap:square;stroke-linejoin:round;stroke-width:20px"/><rect x="-2.8" y="36.6" width="42.3" height="40.9" style="fill:#f2f2f2"/><line y1="40.2" x2="40.2" y2="80.4" style="fill:none;stroke:#ddd;stroke-linecap:square;stroke-linejoin:round;stroke-width:20px"/><line x1="-40.2" y1="40.2" y2="80.4" style="fill:none;stroke:#ddd;stroke-linecap:square;stroke-linejoin:round;stroke-width:20px"/><rect x="37.4" y="-3.5" width="42.3" height="40.9" style="fill:#f2f2f2"/><line x1="40.2" x2="80.3" y2="40.2" style="fill:none;stroke:#ddd;stroke-linecap:square;stroke-linejoin:round;stroke-width:20px"/><rect x="-2.8" y="-3.5" width="42.3" height="40.9" style="fill:#f2f2f2"/><line x2="40.2" y2="40.2" style="fill:none;stroke:#ddd;stroke-linecap:square;stroke-linejoin:round;stroke-width:20px"/><line x1="-40.2" y2="40.2" style="fill:none;stroke:#ddd;stroke-linecap:square;stroke-linejoin:round;stroke-width:20px"/><line x1="40.2" y1="-40.2" x2="80.3" style="fill:none;stroke:#ddd;stroke-linecap:square;stroke-linejoin:round;stroke-width:20px"/><line y1="-40.2" x2="40.2" style="fill:none;stroke:#ddd;stroke-linecap:square;stroke-linejoin:round;stroke-width:20px"/><line x1="-40.2" y1="-40.2" style="fill:none;stroke:#ddd;stroke-linecap:square;stroke-linejoin:round;stroke-width:20px"/></pattern></defs><g id="P-floor-1"><g id="background"><polygon points="32.2 2640.4 168.2 2640.4 201.8 3004.5 202.2 3008.3 204.8 3036.3 236.5 3033.4 357.3 3022.2 389.2 3019.3 389.1 3018.6 386.6 2991.3 344.5 2534.6 440.1 2534.6 455.8 2534.6 1461.1 2534.6 3460 2534.6 3475.7 2534.6 4015.6 2534.6 4169.2 2534.6 4346.1 2534.2 5210.5 2456.1 5210.5 2409.7 5210.5 1546 5499.7 1546 5499.7 1204.8 5210.5 1204.8 5210.5 954.7 4298.5 954.7 4298.5 787.9 3617.6 787.9 3617.6 658.3 2470.9 658.3 2470.9 32.2 2470.9 0.3 2438.9 0.3 1836.7 0.3 1804.7 0.3 1804.7 32.2 1804.7 266.1 1650.4 266.1 1618.4 266.1 1618.4 298.1 1618.4 674.5 1618.4 690.2 1618.4 940.4 1461.1 940.4 873.7 940.4 873.7 823.6 873.7 785.9 836.9 785.9 735.5 785.9 374.3 785.9 374.3 1007 243.1 1007 243.1 1022.8 243.1 1234.9 32.2 1234.9 0.4 1234.9 0.4 1280.1 0.4 2235.3 0.4 2251.1 0.4 2329.7 0.4 2345.5 0.4 2608.5 0.4 2640.4 32.2 2640.4" style="fill:#f2f2f2"/></g><g id="rooms"><path id="senza_codice" data-name="senza codice" d="M32.3,2957.9V2700.5a2.8,2.8,0,0,1,2.8-2.8H137.7a2.8,2.8,0,0,1,2.8,2.8h0v44.9a2.8,2.8,0,0,0,2.8,2.8H839.5a2.8,2.8,0,0,1,2.8,2.8h0v101.2a2.8,2.8,0,0,1-2.8,2.8H312.6a2.8,2.8,0,0,0-2.8,2.8h0v.3l2.7,28.9,42.1,455.8.1,1a2.85,2.85,0,0,1-2.5,3h-.1l-117.7,10.9H234l-36.3-394a2.7,2.7,0,0,0-2.9-2.5h-.1l-1,.1v-.4H35.1A3.39,3.39,0,0,1,32.3,2957.9Z" transform="translate(0 -352.2)" style="fill:#f2f2f2"/><polygon id="locale_tecnico-17" data-name="locale tecnico-17" points="1784.7 801.3 1784.7 690.2 1820.9 690.2 1837.6 690.2 1837.6 673.5 1837.6 643 2438.9 643 2438.9 658.3 2438.9 674.5 2438.9 690.2 2470.9 690.2 3586.7 690.2 3586.7 785.9 3586.7 801.3 1784.7 801.3" style="fill:url(#locale_tecnico-17_0000014501683)"/><rect id="locale_tecnico-18" data-name="locale tecnico-18" x="32.8" y="1265.3" width="224.4" height="76.7" style="fill:url(#locale_tecnico-17_0000014501683)"/><polygon id="locale_tecnico-19" data-name="locale tecnico-19" points="1648.4 298.1 1648.4 492.5 2026 492.5 2026 287.2 2234 287.2 2234 253.8 2438.4 253.8 2438.4 32.7 1837.1 32.7 1837.1 298.1 1648.4 298.1" style="fill:url(#locale_tecnico-19_0000006287763)"/><rect id="locale_tecnico-20" data-name="locale tecnico-20" x="5210" y="1235.3" width="257.7" height="278.7" style="fill:url(#locale_tecnico-17_0000014501683)"/><polygon id="locale_tecnico-21" data-name="locale tecnico-21" points="858 2502.7 858 2396 1461.1 2396 3475.7 2396 3475.7 2502.7 1461.1 2502.7 858 2502.7" style="fill:url(#locale_tecnico-17_0000014501683)"/><g class="clickable" id="P--1-32" data-name="customclass P--1-32"><rect x="2043.1" y="304.3" width="396" height="322.4" style="fill:none"/></g><g class="clickable" id="P--1-30" data-name="customclass P--1-30"><rect x="1648.7" y="509.4" width="172.4" height="164.4" style="fill:#f2f2f2"/><path d="M1648.3,861.3h173.2v165H1648.3Zm172.5.6H1649v163.7h171.8Z" transform="translate(0 -352.2)" style="fill:#f2f2f2"/></g><g class="clickable" id="P--1-01" data-name="customclass P--1-01"><polygon id="_tracciato_2" data-name=" tracciato 2" points="32.2 2235.3 32.2 1359.2 240.2 1359.2 274.1 1359.2 274.1 1248.1 274.1 1039 383.9 1039 406.3 1039 406.3 1007 406.3 817 703.6 817 735.5 817 842.6 817 842.6 940.4 842.6 972.3 842.6 1026.6 874.6 1026.6 874.6 972.3 1461.1 972.3 1616.5 972.3 1616.5 1026.6 1648.4 1026.6 1648.4 972.3 1648.4 940.4 1648.4 690.2 1767.9 690.2 1767.9 690.2 1767.9 817.9 3614.8 817.9 4266.6 817.9 4266.6 973.7 4266.6 985.6 4298.5 985.6 5178.6 985.6 5178.6 2427.8 4350.8 2502.7 3475.7 2502.7 3475.7 2396 3475.7 2380.3 3460 2380.3 1461.1 2380.3 858 2380.3 842.3 2380.3 156.1 2380.3 156.1 2345.5 156.1 2329.7 156.1 2251.1 156.1 2235.3 140.4 2235.3 32.2 2235.3" style="fill:#f2f2f2"/></g><g class="clickable" data-building-code="A4" id="P1--1-A4--1" data-floor-code="-1"><rect x="212.7" y="3379.51" width="186" height="187.8" transform="translate(-319.54 -309.11) rotate(-5.3)" style="fill:none;stroke:#f2f2f2;stroke-miterlimit:9.999354515741839"/><path d="M307.3,3408a63.85,63.85,0,0,0-64,63.6v.1h0v.1a64.06,64.06,0,0,0,128.1.1v-.1a64,64,0,0,0-64.1-63.8" transform="translate(0 -352.2)" style="fill:#fff;stroke:#303030"/><path d="M302.9,3496.7l-3.4-10H279.8l-3.4,10h-8l18.3-49.9h6.1l18.3,49.9Zm-13-38.6-7.8,22.2h15.3Z" transform="translate(0 -352.2)"/><path d="M341.1,3489.2v7.5h-6.9v-7.5H314v-6.6l17.5-35.7h7.7l-17.5,35.7h12.5V3471h6.9v11.6h5.4v6.6Z" transform="translate(0 -352.2)"/></g><g class="clickable" data-building-code="A1" id="P1--1-A1--1" data-floor-code="-1"><rect x="214.2" y="845.5" width="159" height="160.5" style="fill:none;stroke:#f2f2f2;stroke-miterlimit:10"/><path d="M290.5,1214.6a63.85,63.85,0,0,0-64,63.6h0v.1a64.06,64.06,0,0,0,128.1.1v-.1a63.89,63.89,0,0,0-64.1-63.7" transform="translate(0 -352.2)" style="fill:#fff;stroke:#303030"/><path d="M287.5,1303.3l-3.4-10H264.4l-3.4,10h-8l18.3-49.8h6.1l18.3,49.8Zm-13.1-38.6-7.8,22.2h15.3Z" transform="translate(0 -352.2)"/><path d="M313.8,1303.3v-42.1l-9.7,8.6v-7.9l9.7-8.4h7.1v49.8Z" transform="translate(0 -352.2)"/></g><g class="clickable" data-building-code="A2" id="P1--1-A2--1" data-floor-code="-1"><rect x="4300" y="786.1" width="165.1" height="166.7" style="fill:none;stroke:#f2f2f2;stroke-miterlimit:10"/><path d="M4382.1,1157.5a63.85,63.85,0,0,0-64,63.6h0v.1a64.06,64.06,0,0,0,128.1.1v-.1a64.15,64.15,0,0,0-64.1-63.7" transform="translate(0 -352.2)" style="fill:#fff;stroke:#303030"/><path d="M4378.4,1246.4l-3.4-10h-19.7l-3.4,10h-8l18.3-49.8h6.1l18.3,49.8Zm-13-38.6-7.8,22.2H4373Z" transform="translate(0 -352.2)"/><path d="M4391.4,1246.4V1240l19.2-23.3a12.17,12.17,0,0,0,2-3.2,9.78,9.78,0,0,0-1.4-8.9,6.79,6.79,0,0,0-5.4-2,7.94,7.94,0,0,0-5.3,1.8c-1.4,1.2-2.1,3.1-2.1,5.8h-7.1a13.21,13.21,0,0,1,4.1-10.2,14,14,0,0,1,10.4-3.9,14.3,14.3,0,0,1,10.4,3.8,13.48,13.48,0,0,1,4,10.2,11.93,11.93,0,0,1-1,5.3,22.49,22.49,0,0,1-3.7,5.4l-15.6,19.1h20.3v6.4Z" transform="translate(0 -352.2)"/></g><g class="clickable" id="P--1-STAIR-B" data-name="customclass P--1-STAIR-B"><g id="scale"><rect x="142.7" y="2394.9" width="3.4" height="109.2" style="fill:#b7b7b7"/><rect x="144.8" y="2447.4" width="306.2" height="3.4" style="fill:#b7b7b7"/><rect x="144.8" y="2502.1" width="306.2" height="3.4" style="fill:#b7b7b7"/><rect x="427.7" y="2395.4" width="3.4" height="108.7" style="fill:#b7b7b7"/><rect x="408.2" y="2395.4" width="3.4" height="108.7" style="fill:#b7b7b7"/><rect x="387.2" y="2395.4" width="3.4" height="108.7" style="fill:#b7b7b7"/><rect x="325.3" y="2395.4" width="3.4" height="108.7" style="fill:#b7b7b7"/><rect x="302.2" y="2395.4" width="3.4" height="108.7" style="fill:#b7b7b7"/><rect x="279.8" y="2395.4" width="3.4" height="108.7" style="fill:#b7b7b7"/><rect x="257.1" y="2395.4" width="3.4" height="108.7" style="fill:#b7b7b7"/><rect x="186.9" y="2395.4" width="3.4" height="108.7" style="fill:#b7b7b7"/><rect x="165.1" y="2393.1" width="3.4" height="111.1" style="fill:#b7b7b7"/><polygon points="165.3 2393.7 168.4 2394.9 145.9 2449.1 167.9 2503.2 164.8 2504.5 142.4 2449.1 165.3 2393.7" style="fill:#b7b7b7"/><rect x="234.8" y="2395.4" width="3.4" height="108.7" style="fill:#b7b7b7"/><rect x="211.4" y="2395.4" width="3.4" height="108.7" style="fill:#b7b7b7"/></g><rect id="_tracciato_" data-name=" tracciato " x="31.9" y="2393.1" width="804" height="111.1" style="fill:none"/></g></g><g id="auto"><polygon points="3460 2502.7 3460 2396 1461.1 2396 858 2396 858 2502.7 1461.1 2502.7 3460 2502.7" style="fill:none"/><path d="M5178.6,2508.5l-241.6.9c-98.6,242.4-281.9,309.1-322.9,321.2l564.5-50.7Z" transform="translate(0 -352.2)" style="fill:url(#SVGID_1_)"/><path d="M3475.7,2748.2v106.7h334.9c-227.1-53.6-323.9-356-323.9-356h-13.3v233.5h2.4Z" transform="translate(0 -352.2)" style="fill:url(#SVGID_1_)"/><path d="M4587.8,2498.9c-67.2,61-247.3,56.2-247.3,56.2s-288.3,3.3-381.6,3.3-141.1-58.2-141.1-58.2Z" transform="translate(0 -352.2)" style="fill:url(#SVGID_1_)"/><path d="M3714.1,2596.5a4.11,4.11,0,0,1,2.9,1.3c.2.2,18,21.4,49.7,44.5a3.72,3.72,0,0,1-4.4,6h0c-32.5-23.6-50.2-44.9-51.1-45.8a3.67,3.67,0,0,1,.5-5.2h0A4.31,4.31,0,0,1,3714.1,2596.5Zm967.1,14.6a3.83,3.83,0,0,1,3.8,3.6,4,4,0,0,1-1,2.6c-12.7,14.3-31.9,27.2-56.9,38.5a3.73,3.73,0,0,1-3.3-6.7c.1,0,.1-.1.2-.1h0c24-10.8,42.3-23.2,54.4-36.6A3.41,3.41,0,0,1,4681.2,2611.1Zm-119.6,59.6a3.76,3.76,0,0,1,3.9,3.5h0a3.79,3.79,0,0,1-3,3.9c-20.2,5.4-42.5,10.1-66.5,14.2a3.73,3.73,0,0,1-4.2-3.2,3.82,3.82,0,0,1,2.9-4.2h0c23.7-4.1,45.9-8.8,65.9-14A3.55,3.55,0,0,1,4561.6,2670.7Zm-738.8,5.1a3.17,3.17,0,0,1,1.6.4,293.43,293.43,0,0,0,63.3,20.8,3.75,3.75,0,0,1,2.9,4.4h0v.1a3.75,3.75,0,0,1-4.4,2.9h-.1a302.68,302.68,0,0,1-64.9-21.3,3.81,3.81,0,0,1-2-4.8A3.62,3.62,0,0,1,3822.8,2675.8Zm605.4,18.2a3.71,3.71,0,1,1,.4,7.4c-32.8,3.4-55.4,4.2-55.6,4.2h0l-12.5.1a3.75,3.75,0,1,1-.1-7.5h0l12.4-.2c1.1-.1,23.3-.9,55.1-4.2Zm-135.6,5.2a3.76,3.76,0,0,1,3.7,3.7,3.69,3.69,0,0,1-3.7,3.7l-67.8.7h0a3.71,3.71,0,0,1,0-7.4c24.7-.3,47.7-.6,67.8-.7Zm-135.4,1.4a3.71,3.71,0,0,1,0,7.4l-67.8.6h0a3.76,3.76,0,0,1-3.7-3.7,3.69,3.69,0,0,1,3.7-3.7c22.6-.1,45.4-.4,67.8-.6Zm-135.4,1.3a3.71,3.71,0,0,1,.4,7.4h-.4c-25.7.2-48.5.4-67.8.6h0a3.69,3.69,0,0,1-3.7-3.7,3.63,3.63,0,0,1,3.7-3.7h0c19.3-.2,42.1-.4,67.8-.6Z" transform="translate(0 -352.2)" style="fill:#fff"/><path d="M4684.7,2610.3a3.84,3.84,0,0,1,3,1.5,3.31,3.31,0,0,1,.6,3.3l-13.5,44.6a3.7,3.7,0,0,1-7.1-2.1l11.9-39.6-40.1,1.7a3.71,3.71,0,1,1-.4-7.4h0l45.2-1.9Z" transform="translate(0 -352.2)" style="fill:#fff"/><rect x="3557.61" y="2598.53" width="305.41" height="6.7" transform="translate(-798.34 2706) rotate(-40.82)" style="fill:#b7b7b7"/><rect x="4688.5" y="2460.36" width="6.7" height="301.5" transform="translate(-506.57 3603.44) rotate(-43.6)" style="fill:#b7b7b7"/><rect x="3469.9" y="2147.3" width="1119.7" height="4.8" style="fill:#b7b7b7"/><path d="M3490.8,2501.2c.3.7,26.2,76.1,79.4,156.9,48.9,74.4,131.7,168.8,247.9,196.3l-1.6,6.6c-52.3-12.4-102.4-38.9-148.7-78.9-37-31.9-71.7-72.4-103.3-120.4-53.6-81.6-79.9-157.6-80.1-158.4Z" transform="translate(0 -352.2)" style="fill:#b7b7b7"/><path d="M4930.5,2508.6l6.3,2.6c-22.9,56.1-52.3,107.3-87.8,152a555.49,555.49,0,0,1-99.5,97.9c-67.5,51.3-127.3,71.4-144.1,76.4l-1.9-6.5c16.4-4.9,75.3-24.8,141.9-75.3C4826.7,2694.1,4888.9,2610.9,4930.5,2508.6Z" transform="translate(0 -352.2)" style="fill:#b7b7b7"/><path d="M3826.7,2498.5c.1.1,10.4,14.4,31.8,28.3,19.7,12.9,53.1,28.3,100.2,28.3,92.3,0,378.8-3.3,381.6-3.3h.2a725.2,725.2,0,0,0,96.6-3.8c68.2-7.4,118.5-24.3,145.4-48.6l4.5,5c-15.7,14.2-38.5,25.9-67.9,34.8-23.3,7-50.7,12.3-81.5,15.6a736.56,736.56,0,0,1-97.4,3.8c-6.5.1-289.9,3.3-381.6,3.3-49.1,0-83.8-16.1-104.3-29.6-22.3-14.7-32.9-29.4-33.3-29.9Z" transform="translate(0 -352.2)" style="fill:#b7b7b7"/></g><g id="linee-parcheggi"><rect x="3448.5" y="2140.3" width="5.5" height="230.3" style="fill:#fff"/><rect x="2820.2" y="2137.5" width="364.8" height="5.5" style="fill:#fff"/><rect x="2428.6" y="2137.5" width="366.5" height="5.5" style="fill:#fff"/><rect x="2037.1" y="2137.5" width="366.5" height="5.5" style="fill:#fff"/><rect x="1643.9" y="2137.5" width="366.5" height="5.5" style="fill:#fff"/><rect x="1254" y="2137.5" width="366.5" height="5.5" style="fill:#fff"/><rect x="860.9" y="2137.5" width="366.5" height="5.5" style="fill:#fff"/><rect x="410.5" y="2137.5" width="425.3" height="5.5" style="fill:#fff"/><rect x="3210.1" y="2137.5" width="241.2" height="5.5" style="fill:#fff"/><rect x="3327.9" y="2140.3" width="5.5" height="230.3" style="fill:#fff"/><rect x="3207.3" y="2140.3" width="5.5" height="230.3" style="fill:#fff"/><rect x="3182.2" y="2140.3" width="5.5" height="230.3" style="fill:#fff"/><rect x="3060.1" y="2140.3" width="5.5" height="230.3" style="fill:#fff"/><rect x="2936.4" y="2140.3" width="5.5" height="230.3" style="fill:#fff"/><rect x="2817.4" y="2140.3" width="5.5" height="230.3" style="fill:#fff"/><rect x="2792.3" y="2140.3" width="5.5" height="230.3" style="fill:#fff"/><rect x="2546.4" y="2140.3" width="5.5" height="230.3" style="fill:#fff"/><rect x="2425.8" y="2140.3" width="5.5" height="230.3" style="fill:#fff"/><rect x="2400.8" y="2140.3" width="5.5" height="230.3" style="fill:#fff"/><rect x="2277" y="2140.3" width="5.5" height="230.3" style="fill:#fff"/><rect x="2158.6" y="2140.3" width="5.5" height="230.3" style="fill:#fff"/><rect x="2034.3" y="2140.3" width="5.5" height="230.3" style="fill:#fff"/><rect x="2007.6" y="2140.3" width="5.5" height="230.3" style="fill:#fff"/><rect x="1887.1" y="2140.3" width="5.5" height="230.3" style="fill:#fff"/><rect x="1763.4" y="2140.3" width="5.5" height="230.3" style="fill:#fff"/><rect x="1641.1" y="2140.3" width="5.5" height="230.3" style="fill:#fff"/><rect x="1617.7" y="2140.3" width="5.5" height="230.3" style="fill:#fff"/><rect x="1494" y="2140.3" width="5.5" height="230.3" style="fill:#fff"/><rect x="1373.4" y="2140.3" width="5.5" height="230.3" style="fill:#fff"/><rect x="1251.2" y="2140.3" width="5.5" height="230.3" style="fill:#fff"/><rect x="1224.6" y="2140.3" width="5.5" height="230.3" style="fill:#fff"/><rect x="1102.4" y="2140.3" width="5.5" height="230.3" style="fill:#fff"/><rect x="980.3" y="2140.3" width="5.5" height="230.3" style="fill:#fff"/><rect x="857.5" y="2140.3" width="5.5" height="230.3" style="fill:#fff"/><rect x="833" y="2140.3" width="5.5" height="230.3" style="fill:#fff"/><rect x="712.5" y="2140.3" width="5.5" height="230.3" style="fill:#fff"/><rect x="588.8" y="2140.3" width="5.5" height="230.3" style="fill:#fff"/><rect x="565.2" y="2140.3" width="5.5" height="230.3" style="fill:#fff"/><rect x="407.8" y="2140.3" width="5.5" height="230.3" style="fill:#fff"/><rect x="34.6" y="2123.9" width="239" height="5.5" style="fill:#fff"/><rect x="270.9" y="1813.7" width="5.5" height="313" style="fill:#fff"/><rect x="34.6" y="1967.4" width="239" height="5.5" style="fill:#fff"/><rect x="34.6" y="1810.9" width="239" height="5.5" style="fill:#fff"/><rect x="34.6" y="1780.2" width="239" height="5.5" style="fill:#fff"/><rect x="270.9" y="1470.1" width="5.5" height="312.9" style="fill:#fff"/><rect x="34.6" y="1623.8" width="239" height="5.5" style="fill:#fff"/><rect x="34.6" y="1467.3" width="239" height="5.5" style="fill:#fff"/><rect x="417.4" y="809.3" width="5.5" height="256.3" style="fill:#fff"/><rect x="576.3" y="809.3" width="5.5" height="256.3" style="fill:#fff"/><rect x="597.5" y="809.3" width="5.5" height="256.3" style="fill:#fff"/><rect x="713.9" y="809.3" width="5.5" height="256.3" style="fill:#fff"/><rect x="830.2" y="809.3" width="5.5" height="256.3" style="fill:#fff"/><rect x="931.2" y="964.9" width="5.5" height="100.7" style="fill:#fff"/><rect x="882.2" y="964.9" width="5.5" height="100.7" style="fill:#fff"/><rect x="980" y="964.9" width="5.5" height="100.7" style="fill:#fff"/><rect x="1028.9" y="964.9" width="5.5" height="100.7" style="fill:#fff"/><rect x="1077.8" y="964.9" width="5.5" height="100.7" style="fill:#fff"/><rect x="1126.7" y="964.9" width="5.5" height="100.7" style="fill:#fff"/><rect x="1175.5" y="964.9" width="5.5" height="100.7" style="fill:#fff"/><rect x="1224.4" y="964.9" width="5.5" height="100.7" style="fill:#fff"/><rect x="885" y="1062.9" width="342.2" height="5.5" style="fill:#fff"/><rect x="1299.3" y="964.9" width="5.5" height="100.7" style="fill:#fff"/><rect x="1250.4" y="964.9" width="5.5" height="100.7" style="fill:#fff"/><rect x="1348.1" y="964.9" width="5.5" height="100.7" style="fill:#fff"/><rect x="1397.1" y="964.9" width="5.5" height="100.7" style="fill:#fff"/><rect x="1445.9" y="964.9" width="5.5" height="100.7" style="fill:#fff"/><rect x="1494.8" y="964.9" width="5.5" height="100.7" style="fill:#fff"/><rect x="1543.8" y="964.9" width="5.5" height="100.7" style="fill:#fff"/><rect x="1592.6" y="964.9" width="5.5" height="100.7" style="fill:#fff"/><rect x="1765.6" y="1062.9" width="244.6" height="5.5" style="fill:#fff"/><rect x="2034.7" y="1062.9" width="366.8" height="5.5" style="fill:#fff"/><rect x="2034.7" y="820.6" width="366.8" height="5.5" style="fill:#fff"/><rect x="1765.6" y="820.6" width="244.6" height="5.5" style="fill:#fff"/><rect x="1762.8" y="823.3" width="5.5" height="242.3" style="fill:#fff"/><rect x="1885.1" y="823.3" width="5.5" height="242.3" style="fill:#fff"/><rect x="2007.4" y="823.3" width="5.5" height="242.3" style="fill:#fff"/><rect x="2031.9" y="823.3" width="5.5" height="242.3" style="fill:#fff"/><rect x="2154.2" y="823.3" width="5.5" height="242.3" style="fill:#fff"/><rect x="2276.4" y="823.3" width="5.5" height="242.3" style="fill:#fff"/><rect x="2398.7" y="823.3" width="5.5" height="242.3" style="fill:#fff"/><rect x="2426.4" y="1062.9" width="366.8" height="5.5" style="fill:#fff"/><rect x="2818.6" y="1062.9" width="366.8" height="5.5" style="fill:#fff"/><rect x="3209.4" y="1062.9" width="366.8" height="5.5" style="fill:#fff"/><rect x="3600.2" y="1062.9" width="366.7" height="5.5" style="fill:#fff"/><rect x="3991.9" y="1062.9" width="265.7" height="5.5" style="fill:#fff"/><rect x="4932.7" y="1027.9" width="248.1" height="5.5" style="fill:#fff"/><rect x="4932.7" y="1149.2" width="248.1" height="5.5" style="fill:#fff"/><rect x="4932.7" y="1270.6" width="248.1" height="5.5" style="fill:#fff"/><rect x="4932.7" y="1391.9" width="248.1" height="5.5" style="fill:#fff"/><rect x="4932.7" y="1417.5" width="248.1" height="5.5" style="fill:#fff"/><rect x="4932.7" y="1538.8" width="248.1" height="5.5" style="fill:#fff"/><rect x="4932.7" y="1660.1" width="248.1" height="5.5" style="fill:#fff"/><rect x="4932.7" y="1781.5" width="248.1" height="5.5" style="fill:#fff"/><rect x="4932.7" y="1808.9" width="248.1" height="5.5" style="fill:#fff"/><rect x="4932.7" y="1930.3" width="248.1" height="5.5" style="fill:#fff"/><rect x="4932.7" y="2051.8" width="248.1" height="5.5" style="fill:#fff"/><rect x="4930" y="1030.7" width="5.5" height="364" style="fill:#fff"/><rect x="4930" y="1420.3" width="5.5" height="364" style="fill:#fff"/><rect x="4565.1" y="1358.8" width="5.5" height="488.7" style="fill:#fff"/><rect x="4442.3" y="1358.8" width="5.5" height="488.7" style="fill:#fff"/><rect x="4199.4" y="1600.4" width="368.5" height="5.5" style="fill:#fff"/><rect x="4199.4" y="1356.1" width="368.5" height="5.5" style="fill:#fff"/><rect x="4199.4" y="1844.8" width="368.5" height="5.5" style="fill:#fff"/><rect x="3805.3" y="1844.8" width="368.5" height="5.5" style="fill:#fff"/><rect x="3220.7" y="1844.8" width="245.2" height="5.5" style="fill:#fff"/><rect x="2831.3" y="1844.8" width="364" height="5.5" style="fill:#fff"/><rect x="2831.3" y="1600.4" width="364" height="5.5" style="fill:#fff"/><rect x="2831.3" y="1356.1" width="364" height="5.5" style="fill:#fff"/><rect x="3220.7" y="1600.4" width="245.2" height="5.5" style="fill:#fff"/><rect x="3220.7" y="1356.1" width="245.2" height="5.5" style="fill:#fff"/><rect x="3805.3" y="1600.4" width="368.5" height="5.5" style="fill:#fff"/><rect x="3805.3" y="1356.1" width="368.5" height="5.5" style="fill:#fff"/><rect x="4319.4" y="1358.8" width="5.5" height="488.7" style="fill:#fff"/><rect x="4196.6" y="1358.8" width="5.5" height="488.7" style="fill:#fff"/><rect x="4171.1" y="1358.8" width="5.5" height="488.7" style="fill:#fff"/><rect x="4048.2" y="1358.8" width="5.5" height="488.7" style="fill:#fff"/><rect x="3925.4" y="1358.8" width="5.5" height="488.7" style="fill:#fff"/><rect x="3802.6" y="1358.8" width="5.5" height="488.7" style="fill:#fff"/><rect x="3463.1" y="1358.8" width="5.5" height="488.7" style="fill:#fff"/><rect x="3340.5" y="1358.8" width="5.5" height="488.7" style="fill:#fff"/><rect x="3217.9" y="1358.8" width="5.5" height="488.7" style="fill:#fff"/><rect x="3192.6" y="1358.8" width="5.5" height="488.7" style="fill:#fff"/><rect x="3071.2" y="1358.8" width="5.5" height="488.7" style="fill:#fff"/><rect x="2949.9" y="1358.8" width="5.5" height="488.7" style="fill:#fff"/><rect x="2828.6" y="1358.8" width="5.5" height="488.7" style="fill:#fff"/><rect x="2439.2" y="1844.8" width="364" height="5.5" style="fill:#fff"/><rect x="2439.2" y="1600.4" width="364" height="5.5" style="fill:#fff"/><rect x="2439.2" y="1356.1" width="364" height="5.5" style="fill:#fff"/><rect x="2800.4" y="1358.8" width="5.5" height="488.7" style="fill:#fff"/><rect x="2679" y="1358.8" width="5.5" height="488.7" style="fill:#fff"/><rect x="2557.7" y="1358.8" width="5.5" height="488.7" style="fill:#fff"/><rect x="2436.4" y="1358.8" width="5.5" height="488.7" style="fill:#fff"/><rect x="2049.8" y="1844.8" width="364" height="5.5" style="fill:#fff"/><rect x="2049.8" y="1600.4" width="364" height="5.5" style="fill:#fff"/><rect x="2049.8" y="1356.1" width="364" height="5.5" style="fill:#fff"/><rect x="2411" y="1358.8" width="5.5" height="488.7" style="fill:#fff"/><rect x="2289.7" y="1358.8" width="5.5" height="488.7" style="fill:#fff"/><rect x="2168.3" y="1358.8" width="5.5" height="488.7" style="fill:#fff"/><rect x="2047" y="1358.8" width="5.5" height="488.7" style="fill:#fff"/><rect x="1657.6" y="1844.8" width="364" height="5.5" style="fill:#fff"/><rect x="1657.6" y="1600.4" width="364" height="5.5" style="fill:#fff"/><rect x="1657.6" y="1356.1" width="364" height="5.5" style="fill:#fff"/><rect x="2018.8" y="1358.8" width="5.5" height="488.7" style="fill:#fff"/><rect x="1897.5" y="1358.8" width="5.5" height="488.7" style="fill:#fff"/><rect x="1776.2" y="1358.8" width="5.5" height="488.7" style="fill:#fff"/><rect x="1654.8" y="1358.8" width="5.5" height="488.7" style="fill:#fff"/><rect x="1267.3" y="1844.8" width="364" height="5.5" style="fill:#fff"/><rect x="1267.3" y="1600.4" width="364" height="5.5" style="fill:#fff"/><rect x="1267.3" y="1356.1" width="364" height="5.5" style="fill:#fff"/><rect x="1628.5" y="1358.8" width="5.5" height="488.7" style="fill:#fff"/><rect x="1507.2" y="1358.8" width="5.5" height="488.7" style="fill:#fff"/><rect x="1385.9" y="1358.8" width="5.5" height="488.7" style="fill:#fff"/><rect x="1264.5" y="1358.8" width="5.5" height="488.7" style="fill:#fff"/><rect x="874.1" y="1844.8" width="364.1" height="5.5" style="fill:#fff"/><rect x="874.1" y="1600.4" width="364.1" height="5.5" style="fill:#fff"/><rect x="874.1" y="1356.1" width="364.1" height="5.5" style="fill:#fff"/><rect x="1235.4" y="1358.8" width="5.5" height="488.7" style="fill:#fff"/><rect x="1114" y="1358.8" width="5.5" height="488.7" style="fill:#fff"/><rect x="992.7" y="1358.8" width="5.5" height="488.7" style="fill:#fff"/><rect x="871.3" y="1358.8" width="5.5" height="488.7" style="fill:#fff"/><rect x="604.2" y="1844.8" width="242.7" height="5.5" style="fill:#fff"/><rect x="604.2" y="1600.4" width="242.7" height="5.5" style="fill:#fff"/><rect x="604.2" y="1356.1" width="242.7" height="5.5" style="fill:#fff"/><rect x="844.1" y="1358.8" width="5.5" height="488.7" style="fill:#fff"/><rect x="722.8" y="1358.8" width="5.5" height="488.7" style="fill:#fff"/><rect x="601.4" y="1358.8" width="5.5" height="488.7" style="fill:#fff"/><rect x="4930" y="1811.6" width="5.5" height="243" style="fill:#fff"/><rect x="3991.9" y="820.6" width="265.7" height="5.5" style="fill:#fff"/><rect x="3600.2" y="820.6" width="366.7" height="5.5" style="fill:#fff"/><rect x="3209.4" y="820.6" width="366.8" height="5.5" style="fill:#fff"/><rect x="2816.7" y="820.6" width="366.8" height="5.5" style="fill:#fff"/><rect x="2426.4" y="820.6" width="366.8" height="5.5" style="fill:#fff"/><rect x="2814" y="823.3" width="5.5" height="242.3" style="fill:#fff"/><rect x="2790.4" y="824.9" width="5.5" height="242.3" style="fill:#fff"/><rect x="2423.7" y="823.3" width="5.5" height="242.3" style="fill:#fff"/><rect x="2545.9" y="823.3" width="5.5" height="242.3" style="fill:#fff"/><rect x="2668.1" y="824.9" width="5.5" height="242.3" style="fill:#fff"/><rect x="2936.2" y="823.3" width="5.5" height="242.3" style="fill:#fff"/><rect x="3058.4" y="823.3" width="5.5" height="242.3" style="fill:#fff"/><rect x="3180.7" y="823.3" width="5.5" height="242.3" style="fill:#fff"/><rect x="3206.6" y="823.3" width="5.5" height="242.3" style="fill:#fff"/><rect x="3328.9" y="812.9" width="5.5" height="242.3" style="fill:#fff"/><rect x="3451.1" y="812.9" width="5.5" height="242.3" style="fill:#fff"/><rect x="3573.3" y="823.3" width="5.5" height="242.3" style="fill:#fff"/><rect x="3597.4" y="823.3" width="5.5" height="242.3" style="fill:#fff"/><rect x="3719.6" y="823.3" width="5.5" height="242.3" style="fill:#fff"/><rect x="3841.9" y="823.3" width="5.5" height="242.3" style="fill:#fff"/><rect x="3964.1" y="823.3" width="5.5" height="242.3" style="fill:#fff"/><rect x="3989.1" y="823.3" width="5.5" height="242.3" style="fill:#fff"/><rect x="4100.5" y="823.3" width="5.5" height="242.3" style="fill:#fff"/><rect x="4254.8" y="823.3" width="5.5" height="242.3" style="fill:#fff"/><rect x="1253.2" y="1062.9" width="342.2" height="5.5" style="fill:#fff"/><rect x="600.3" y="1062.9" width="232.6" height="5.5" style="fill:#fff"/><rect x="420.2" y="1062.9" width="158.9" height="5.5" style="fill:#fff"/><rect x="48.4" y="1780.2" width="225.2" height="5.5" style="fill:#fff"/><rect x="2668.6" y="2140.3" width="5.5" height="230.3" style="fill:#fff"/></g><g id="walls"><path d="M32.3,2992.6h136l33.6,364.1.4,3.8,2.6,28,31.8-3,19.9-1.9-2.7-28-19.6,1.9h-.4l-36.6-396.9-3.9.4v-.4H32.3v-263h19v-15.7H32.2v-78.6h19v-15.7h-19V1710.9H274V1391.3h6v-31.9H242v225.9H.4V2992.8H32.3ZM242.1,1617.1h15v77.2H32.3v-77.2Z" transform="translate(0 -352.2)" style="fill:#b7b7b7"/><path d="M241.8,1359h38.6v32.6h-6v319.7H32.6v876.1H51.7v16.4H32.6v77.9H51.7V2698H32.6v262.4H193.9v.4l3.8-.4,36.6,396.9h0l19.9-1.8,2.7,28.7-20.3,1.8-32.1,3-36.6-396H0V1584.7H241.8Zm37.9.6H242.5v225.9H.6V2992.3H168.4v.3l36.5,395.6,51-4.7-2.6-27.3-19.9,1.9v-.4L197,2961l-3.9.4v-.4H31.9V2697.3H51v-15.1H32V2603H51v-15.1H32V1710.5H273.7V1390.8h6ZM31.9,1616.7H257.5v77.8H31.9Zm224.9.6H32.6v76.5H256.8Z" transform="translate(0 -352.2)" style="fill:#b7b7b7"/><path d="M4345.1,2854.9H858V2748.2H3475.7v-15.7H156.1V2587.7H117.5v15.7h22.9v78.7H117.5v15.7h22.9v50.5H842.2V2855H309.8v2.9l2.7,29,42.1,455.8.4,3.8-9.1.8,2.6,28,9-.8,31.8-2.9-.1-.6-2.5-27.3L344.5,2887h4002l832.1-74.8,31.9-2.9v-911h289.2V1555.6H5210.4V1305.8H4385.1v31.9h793.3V2780ZM5467.8,1587.5v278.8H5210.5V1587.5Z" transform="translate(0 -352.2)" style="fill:#b7b7b7"/><path d="M4384.9,1305.6h825.9v249.7H5500v343.2H5210.8v911l-32.2,2.9-832.1,74.8H344.9L387,3343.5l2.7,28.3h-.4l-41.2,3.8-2.7-28.7,9.1-.8-.4-3.4-42-455.8-2.7-29v-3.3H841.8v-106H140V2698H117.2v-16.4h22.9v-78H117.3v-16.4h39.2v144.9H3476v16.4H858.3v106H4345l833.1-74.8V1338.2H4384.8v-32.6Zm825.2.6H4385.6v31.2h793.2V2780.3h-.3L4345,2855.2H857.6V2747.8H3475.3v-15H155.7V2587.9H117.8V2603h22.9v79.3H117.8v15.1h22.9v50.5H842.6v107.5H310.1v2.6l2.7,29,42,455.8.4,4.1-9.1.8,2.6,27.3,40.2-3.7v-.3l-2.5-27.3-42.1-457H4346.6l832-74.8,31.6-2.9V1897.8h289.2V1555.9H5210.3Zm0,280.9H5468v279.4H5210.1Zm257.4.7H5210.9v278h256.6Z" transform="translate(0 -352.2)" style="fill:#b7b7b7"/><path d="M406.3,1390.2V1169.1H842.7v209.6h31.9v-54.3h741.9v54.3h31.9V1042.3h20.5v-16.7h-20.5V861.4H1821v9.5h16.6v-9.5h204.9V656h208.7V622.2h187.7V978.6H1837.5V951.9H1821v73.9h-63.9v16.6h11v127.7H4266.6v167.7h49.1v-31.9h-17.2V1138.2H3618.6V1010.5H2470.9v-658H1804.8V618.4H1616.6v674.3h-742V1137.3H374.4v222h-5.5v31.9h37.5l-.1-1Zm3180.4-347.8v111H1784.8v-111h52.8V995.2h601.3v47.2Zm-1782-392.2h31.9V384.4h602.2V605.5H2234.4v33.9H2025.7V844.7H1648.3V650.3Z" transform="translate(0 -352.2)" style="fill:#b7b7b7"/><path d="M1804.3,352.2h666.8v658H3618.9v127.7h679.9v167.7H4316v32.6h-49.8V1170.5H1767.7V1042.8h-11v-17.4h63.9V951.5H1838v26.7h600.6V622.6H2251.4v33.8H2042.7V861.8H1837.9v9.5h-17.4v-9.5H1648.7v163.7h20.5v17.4h-20.5v336.4h-32.6V1325H874.8v54.3H842.2V1169.7H406.5v222H368.4V1359H374V1137H874.8v155.3h741.3V618h188.1Zm666.2.6H1805.1V618.7H1616.9v674.2H874.2V1137.5H374.7v222h-5.5v31.2h36.7v-222H843v209.7h31.2v-54.3h742.6v54.3H1648V1042h20.5v-16H1648V861h173.2v9.5h16V861H2042V655.6h208.7V621.8h188.4V978.9h-602V952.2h-16V1026h-63.9v16h11v127.7H4266.7v167.7h48.4v-31.2H4298V1138.4H3618V1010.7H2470.5Zm-634.2,31.3h603V605.8H2234.9v33.8H2026.2V845h-378V649.9h188.2Zm602.2.7H1836.9V650.6H1648.7V844.4h376.7V639h208.7V605.2h204.4ZM1837.2,995h602v47.2H3587v111.7H1784.4V1042.2h52.9Zm601.3.6H1838v47.2h-52.9v110.3H3586.4V1042.7H2438.5Z" transform="translate(0 -352.2)" style="fill:#b7b7b7"/><rect x="3460.2" y="2147.3" width="15.7" height="249" style="fill:#b7b7b7"/><path d="M3459.9,2499.1h16.4v249.6h-16.4Zm15.7.7h-15v248.3h15Z" transform="translate(0 -352.2)" style="fill:#b7b7b7"/><polygon points="4929.1 2162.9 5183.9 2162.9 5183.9 2147.1 4935 2147.1 4929.1 2162.9" style="fill:#b7b7b7"/><path d="M4934.8,2499h249.5v16.4H4928.7Zm248.7.6H4935.1l-5.5,15h254Z" transform="translate(0 -352.2)" style="fill:#b7b7b7"/></g></g></svg>