<svg id="Livello_1" data-name="Livello 1" xmlns="http://www.w3.org/2000/svg" xmlns:xlink="http://www.w3.org/1999/xlink" viewBox="0 0 5500 3575.55"><defs><pattern id="locale_tecnico-17_2_" data-name="locale tecnico-17 2 " width="40.2" height="40.2" patternTransform="translate(-13210.18 -9692.04) rotate(180) scale(0.48)" patternUnits="userSpaceOnUse" viewBox="0 0 40.2 40.2"><rect width="40.2" height="40.2" style="fill:none"/><rect width="40.2" height="40.2" style="fill:none"/><rect width="40.2" height="40.2" style="fill:none"/><rect width="40.2" height="40.2" style="fill:none"/><rect width="40.2" height="40.2" style="fill:none"/><rect width="40.2" height="40.2" style="fill:none"/><rect width="40.2" height="40.2" style="fill:none"/><rect x="37.4" y="36.6" width="42.3" height="40.9" style="fill:#f2f2f2"/><line x1="40.2" y1="40.2" x2="80.3" y2="80.4" style="fill:none;stroke:#ddd;stroke-linecap:square;stroke-linejoin:round;stroke-width:20px"/><rect x="-2.8" y="36.6" width="42.3" height="40.9" style="fill:#f2f2f2"/><line y1="40.2" x2="40.2" y2="80.4" style="fill:none;stroke:#ddd;stroke-linecap:square;stroke-linejoin:round;stroke-width:20px"/><line x1="-40.2" y1="40.2" y2="80.4" style="fill:none;stroke:#ddd;stroke-linecap:square;stroke-linejoin:round;stroke-width:20px"/><rect x="37.4" y="-3.5" width="42.3" height="40.9" style="fill:#f2f2f2"/><line x1="40.2" x2="80.3" y2="40.2" style="fill:none;stroke:#ddd;stroke-linecap:square;stroke-linejoin:round;stroke-width:20px"/><rect x="-2.8" y="-3.5" width="42.3" height="40.9" style="fill:#f2f2f2"/><line x2="40.2" y2="40.2" style="fill:none;stroke:#ddd;stroke-linecap:square;stroke-linejoin:round;stroke-width:20px"/><line x1="-40.2" y2="40.2" style="fill:none;stroke:#ddd;stroke-linecap:square;stroke-linejoin:round;stroke-width:20px"/><line x1="40.2" y1="-40.2" x2="80.3" style="fill:none;stroke:#ddd;stroke-linecap:square;stroke-linejoin:round;stroke-width:20px"/><line y1="-40.2" x2="40.2" style="fill:none;stroke:#ddd;stroke-linecap:square;stroke-linejoin:round;stroke-width:20px"/><line x1="-40.2" y1="-40.2" style="fill:none;stroke:#ddd;stroke-linecap:square;stroke-linejoin:round;stroke-width:20px"/></pattern><pattern id="locale_tecnico-19_2_" data-name="locale tecnico-19 2 " width="40.2" height="40.2" patternTransform="translate(-13131.91 -9767.32) rotate(180) scale(0.48)" patternUnits="userSpaceOnUse" viewBox="0 0 40.2 40.2"><rect width="40.2" height="40.2" style="fill:none"/><rect width="40.2" height="40.2" style="fill:none"/><rect width="40.2" height="40.2" style="fill:none"/><rect width="40.2" height="40.2" style="fill:none"/><rect width="40.2" height="40.2" style="fill:none"/><rect width="40.2" height="40.2" style="fill:none"/><rect width="40.2" height="40.2" style="fill:none"/><rect x="37.4" y="36.6" width="42.3" height="40.9" style="fill:#f2f2f2"/><line x1="40.2" y1="40.2" x2="80.3" y2="80.4" style="fill:none;stroke:#ddd;stroke-linecap:square;stroke-linejoin:round;stroke-width:20px"/><rect x="-2.8" y="36.6" width="42.3" height="40.9" style="fill:#f2f2f2"/><line y1="40.2" x2="40.2" y2="80.4" style="fill:none;stroke:#ddd;stroke-linecap:square;stroke-linejoin:round;stroke-width:20px"/><line x1="-40.2" y1="40.2" y2="80.4" style="fill:none;stroke:#ddd;stroke-linecap:square;stroke-linejoin:round;stroke-width:20px"/><rect x="37.4" y="-3.5" width="42.3" height="40.9" style="fill:#f2f2f2"/><line x1="40.2" x2="80.3" y2="40.2" style="fill:none;stroke:#ddd;stroke-linecap:square;stroke-linejoin:round;stroke-width:20px"/><rect x="-2.8" y="-3.5" width="42.3" height="40.9" style="fill:#f2f2f2"/><line x2="40.2" y2="40.2" style="fill:none;stroke:#ddd;stroke-linecap:square;stroke-linejoin:round;stroke-width:20px"/><line x1="-40.2" y2="40.2" style="fill:none;stroke:#ddd;stroke-linecap:square;stroke-linejoin:round;stroke-width:20px"/><line x1="40.2" y1="-40.2" x2="80.3" style="fill:none;stroke:#ddd;stroke-linecap:square;stroke-linejoin:round;stroke-width:20px"/><line y1="-40.2" x2="40.2" style="fill:none;stroke:#ddd;stroke-linecap:square;stroke-linejoin:round;stroke-width:20px"/><line x1="-40.2" y1="-40.2" style="fill:none;stroke:#ddd;stroke-linecap:square;stroke-linejoin:round;stroke-width:20px"/></pattern></defs><g id="P-floor-1"><g id="background"><polygon points="32.22 2992.61 168.19 2992.61 201.8 3356.69 202.16 3360.47 204.75 3388.54 236.51 3385.58 357.34 3374.41 389.19 3371.46 389.1 3370.81 386.61 3343.49 344.51 2886.82 440.15 2886.82 455.84 2886.82 1461.13 2886.82 3459.98 2886.82 3475.67 2886.82 4015.61 2886.82 4169.22 2886.82 4346.09 2886.45 5210.51 2808.26 5210.51 2761.92 5210.51 1898.15 5499.72 1898.15 5499.72 1556.96 5210.51 1556.96 5210.51 1306.88 4298.55 1306.88 4298.55 1140.07 3617.65 1140.07 3617.65 1010.47 2470.85 1010.47 2470.85 384.4 2470.85 352.46 2438.91 352.46 1836.66 352.46 1804.72 352.46 1804.72 384.4 1804.72 618.32 1650.37 618.32 1618.43 618.32 1618.43 650.26 1618.43 1026.71 1618.43 1042.41 1618.43 1292.57 1461.13 1292.57 873.65 1292.57 873.65 1175.8 873.65 1138.13 836.91 1138.13 735.55 1138.13 374.33 1138.13 374.33 1359.22 243.06 1359.22 243.06 1375.01 243.06 1587.05 32.22 1587.05 0.37 1587.05 0.37 1632.29 0.37 2587.54 0.37 2603.32 0.37 2681.88 0.37 2697.67 0.37 2960.67 0.37 2992.61 32.22 2992.61" style="fill:#f2f2f2"/></g><g id="rooms"><path id="senza_codice" data-name="senza codice" d="M32.31,2957.9V2700.53a2.77,2.77,0,0,1,2.77-2.77H137.64a2.77,2.77,0,0,1,2.77,2.77v44.86a2.77,2.77,0,0,0,2.77,2.77H839.4a2.77,2.77,0,0,1,2.77,2.77v101.18a2.77,2.77,0,0,1-2.77,2.77H312.57a2.77,2.77,0,0,0-2.77,2.77h0v.27l2.68,28.9,42.09,455.84.1,1a2.78,2.78,0,0,1-2.47,3h-.12l-117.7,10.89H234l-36.28-394a2.7,2.7,0,0,0-2.89-2.5h-.15l-1,.09v-.37H35.08A3.15,3.15,0,0,1,32.31,2957.9Z" style="fill:#f2f2f2"/><polygon id="locale_tecnico-17" data-name="locale tecnico-17" points="1784.68 1153.46 1784.68 1042.41 1820.87 1042.41 1837.58 1042.41 1837.58 1025.7 1837.58 995.23 2438.91 995.23 2438.91 1010.47 2438.91 1026.71 2438.91 1042.41 2470.85 1042.41 3586.72 1042.41 3586.72 1138.13 3586.72 1153.46 1784.68 1153.46" style="fill:url(#locale_tecnico-17_2_)"/><rect id="locale_tecnico-18" data-name="locale tecnico-18" x="32.77" y="1617.52" width="224.41" height="76.71" style="fill:url(#locale_tecnico-17_2_)"/><polygon id="locale_tecnico-19" data-name="locale tecnico-19" points="1648.43 650.26 1648.43 844.67 2025.99 844.67 2025.99 639.37 2233.97 639.37 2233.97 605.95 2438.44 605.95 2438.44 384.86 1837.12 384.86 1837.12 650.26 1648.43 650.26" style="fill:url(#locale_tecnico-19_2_)"/><rect id="locale_tecnico-20" data-name="locale tecnico-20" x="5210.05" y="1587.51" width="257.74" height="278.69" style="fill:url(#locale_tecnico-17_2_)"/><polygon id="locale_tecnico-21" data-name="locale tecnico-21" points="857.96 2854.88 857.96 2748.16 1461.13 2748.16 3475.67 2748.16 3475.67 2854.88 1461.13 2854.88 857.96 2854.88" style="fill:url(#locale_tecnico-17_2_)"/><g class="clickable" id="P1--1-32" data-name="customclass P1--1-32"><rect x="2043.07" y="656.54" width="396.02" height="322.36" style="fill:none"/></g><g class="clickable" id="P1--1-30" data-name="customclass P1--1-30"><rect x="1648.71" y="861.57" width="172.44" height="164.41" style="fill:#f2f2f2"/><path d="M1648.34,861.29h173.18v165H1648.34Zm172.44.64H1649v163.68h171.8Z" style="fill:#f2f2f2"/></g><g class="clickable" id="P1--1-15" data-name="customclass P1--1-15"><g id="scale"><rect x="142.72" y="2747.15" width="3.42" height="109.21" style="fill:#b7b7b7"/><rect x="144.75" y="2799.58" width="306.2" height="3.42" style="fill:#b7b7b7"/><rect x="144.75" y="2854.32" width="306.2" height="3.42" style="fill:#b7b7b7"/><rect x="427.69" y="2747.61" width="3.42" height="108.74" style="fill:#b7b7b7"/><rect x="408.21" y="2747.61" width="3.42" height="108.74" style="fill:#b7b7b7"/><rect x="387.25" y="2747.61" width="3.42" height="108.74" style="fill:#b7b7b7"/><rect x="325.31" y="2747.61" width="3.42" height="108.74" style="fill:#b7b7b7"/><rect x="302.23" y="2747.61" width="3.42" height="108.74" style="fill:#b7b7b7"/><rect x="279.8" y="2747.61" width="3.42" height="108.74" style="fill:#b7b7b7"/><rect x="257.09" y="2747.61" width="3.42" height="108.74" style="fill:#b7b7b7"/><rect x="186.93" y="2747.61" width="3.42" height="108.74" style="fill:#b7b7b7"/><rect x="165.15" y="2745.3" width="3.42" height="111.05" style="fill:#b7b7b7"/><polygon points="165.33 2745.86 168.38 2747.15 145.95 2801.34 167.92 2855.43 164.78 2856.72 142.35 2801.34 165.33 2745.86" style="fill:#b7b7b7"/><rect x="234.75" y="2747.61" width="3.42" height="108.74" style="fill:#b7b7b7"/><rect x="211.4" y="2747.61" width="3.42" height="108.74" style="fill:#b7b7b7"/></g><rect id="_tracciato_" data-name=" tracciato " x="31.94" y="2745.3" width="803.95" height="111.05" style="fill:none"/></g><g class="clickable" id="P1--1-01" data-name="customclass P1--1-01"><polygon id="_tracciato_2" data-name=" tracciato 2" points="32.22 2587.54 32.22 1711.4 240.2 1711.4 274.08 1711.4 274.08 1600.35 274.08 1391.16 383.93 1391.16 406.27 1391.16 406.27 1359.22 406.27 1169.15 703.61 1169.15 735.55 1169.15 842.63 1169.15 842.63 1292.57 842.63 1324.51 842.63 1378.79 874.57 1378.79 874.57 1324.51 1461.13 1324.51 1616.49 1324.51 1616.49 1378.79 1648.43 1378.79 1648.43 1324.51 1648.43 1292.57 1648.43 1042.41 1767.88 1042.41 1767.88 1042.41 1767.88 1170.08 3614.79 1170.08 4266.61 1170.08 4266.61 1325.9 4266.61 1337.81 4298.55 1337.81 5178.57 1337.81 5178.57 2780.01 4350.8 2854.88 3475.67 2854.88 3475.67 2748.16 3475.67 2732.47 3459.98 2732.47 1461.13 2732.47 857.96 2732.47 842.26 2732.47 156.1 2732.47 156.1 2697.67 156.1 2681.88 156.1 2603.32 156.1 2587.54 140.41 2587.54 32.22 2587.54" style="fill:#f2f2f2"/></g><g class="clickable" data-building-code="A4" id="P1--1-A4--1" data-floor-code="-1"><rect x="212.66" y="3379.61" width="186.01" height="187.76" transform="translate(-319.54 43.08) rotate(-5.3)" style="fill:none;stroke:#f2f2f2;stroke-miterlimit:9.999555391447567"/><path d="M307.31,3408a63.81,63.81,0,0,0-64,63.67v0h0v.09a64.07,64.07,0,0,0,128.13.1v-.1A64.05,64.05,0,0,0,307.31,3408" style="fill:#fff;stroke:#303030"/><path d="M302.88,3496.73l-3.42-10H279.8l-3.42,10h-8l18.28-49.85h6.09L311,3496.73Zm-13-38.59-7.75,22.16h15.32Z"/><path d="M341.1,3489.16v7.48h-6.93v-7.48H314v-6.56l17.54-35.72h7.66l-17.54,35.72h12.55V3471h6.93v11.63h5.35v6.65Z"/></g><g class="clickable" data-building-code="A1" id="P1--1-A1--1" data-floor-code="-1"><rect x="214.17" y="1197.68" width="158.96" height="160.53" style="fill:none;stroke:#f2f2f2;stroke-miterlimit:10"/><path d="M290.51,1214.57a63.82,63.82,0,0,0-64,63.68v.11a64.07,64.07,0,0,0,128.13.09v-.09a64.06,64.06,0,0,0-64.16-63.79" style="fill:#fff;stroke:#303030"/><path d="M287.46,1303.28l-3.41-10H264.38l-3.41,10h-8l18.28-49.85h6.09l18.28,49.85Zm-13.11-38.58-7.75,22.15h15.32Z"/><path d="M313.77,1303.28v-42.09l-9.69,8.58v-7.94l9.69-8.4h7.11v49.85Z"/></g><g class="clickable" data-building-code="A2" id="P1--1-A2--1" data-floor-code="-1"><rect x="4300.03" y="1138.32" width="165.15" height="166.72" style="fill:none;stroke:#f2f2f2;stroke-miterlimit:10"/><path d="M4382.09,1157.52a63.82,63.82,0,0,0-64,63.68v0h0v.09a64.07,64.07,0,0,0,128.13.09v-.09a64.17,64.17,0,0,0-64.16-63.79" style="fill:#fff;stroke:#303030"/><path d="M4378.4,1246.42l-3.42-10h-19.66l-3.42,10h-8l18.28-49.85h6.09l18.28,49.85Zm-13-38.59-7.75,22.16H4373Z"/><path d="M4391.41,1246.42v-6.37l19.21-23.26a10.93,10.93,0,0,0,2-3.24,8.61,8.61,0,0,0,.55-3.41,7.72,7.72,0,0,0-1.94-5.54,6.73,6.73,0,0,0-5.35-2,7.35,7.35,0,0,0-5.26,1.85c-1.39,1.2-2.13,3.13-2.13,5.81h-7.11a13.23,13.23,0,0,1,4.07-10.15,14.19,14.19,0,0,1,10.43-3.88,14.63,14.63,0,0,1,10.43,3.78,13.36,13.36,0,0,1,4,10.16,11.86,11.86,0,0,1-1,5.35,26.8,26.8,0,0,1-3.69,5.45l-15.6,19.11h20.31v6.37Z"/></g></g><g id="auto"><polygon points="3459.98 2854.88 3459.98 2748.16 1461.13 2748.16 857.96 2748.16 857.96 2854.88 1461.13 2854.88 3459.98 2854.88" style="fill:none"/><path d="M5178.57,2508.52l-241.59.92c-98.59,242.42-281.92,309.07-322.91,321.25l564.5-50.68Z" style="fill:url(#locale_tecnico-17_2_)"/><path d="M3475.67,2748.16v106.72h334.91c-227.09-53.64-323.92-356-323.92-356h-13.3v233.46h2.4Z" style="fill:url(#locale_tecnico-17_2_)"/><path d="M4587.76,2498.92c-67.2,61-247.3,56.22-247.3,56.22s-288.29,3.32-381.62,3.32-141.06-58.16-141.06-58.16Z" style="fill:url(#locale_tecnico-17_2_)"/><path d="M3714.12,2596.49a3.79,3.79,0,0,1,2.86,1.3c.18.18,18,21.41,49.66,44.49a3.7,3.7,0,1,1-4.34,6h0c-32.49-23.63-50.22-44.86-51.05-45.79a3.7,3.7,0,0,1,.46-5.17h0A4.54,4.54,0,0,1,3714.12,2596.49Zm967.06,14.59a3.77,3.77,0,0,1,3.79,3.6,4,4,0,0,1-1,2.58c-12.73,14.31-31.94,27.24-56.86,38.5a3.76,3.76,0,1,1-3.14-6.83h0c24-10.8,42.28-23.17,54.37-36.65A4,4,0,0,1,4681.18,2611.08Zm-119.54,59.63a3.7,3.7,0,0,1,3.88,3.5h0a3.8,3.8,0,0,1-3,3.88c-20.21,5.35-42.55,10.15-66.55,14.21a3.75,3.75,0,0,1-1.3-7.38h0c23.73-4.06,45.88-8.77,65.91-14A2,2,0,0,1,4561.64,2670.71Zm-738.87,5.08a3.33,3.33,0,0,1,1.57.37,292.78,292.78,0,0,0,63.32,20.77,3.69,3.69,0,0,1,2.88,4.36s0,.05,0,.07a3.69,3.69,0,0,1-4.36,2.88l-.08,0a303.77,303.77,0,0,1-64.89-21.32,3.75,3.75,0,0,1-2-4.8A3.6,3.6,0,0,1,3822.77,2675.79ZM4428.25,2694a3.69,3.69,0,0,1,.37,7.38c-32.77,3.42-55.39,4.25-55.58,4.25H4373l-12.46.09a3.74,3.74,0,1,1-.09-7.48l12.37-.18c1.11-.09,23.26-.93,55.11-4.25Zm-135.61,5.17a3.69,3.69,0,0,1,0,7.38l-67.76.74h0a3.7,3.7,0,0,1,0-7.39C4249.53,2699.61,4272.52,2699.33,4292.64,2699.15Zm-135.42,1.47a3.7,3.7,0,0,1,0,7.39l-67.76.64h0a3.69,3.69,0,0,1,0-7.38C4112,2701.08,4134.79,2700.81,4157.22,2700.62Zm-135.43,1.29a3.7,3.7,0,1,1,0,7.39c-25.66.18-48.46.37-67.75.55h0a3.69,3.69,0,1,1,0-7.38C3973.33,2702.28,3996.13,2702.1,4021.79,2701.91Z" style="fill:#fff"/><path d="M4684.69,2610.34a3.89,3.89,0,0,1,3,1.48,3.61,3.61,0,0,1,.64,3.32l-13.47,44.59a3.71,3.71,0,0,1-7.11-2.13l11.91-39.6-40.07,1.66a3.69,3.69,0,1,1-.37-7.38l45.24-1.94Z" style="fill:#fff"/><rect x="3557.49" y="2598.54" width="305.38" height="6.74" transform="translate(-798.39 3058.16) rotate(-40.82)" style="fill:#b7b7b7"/><rect x="4688.39" y="2460.18" width="6.74" height="301.49" transform="translate(-506.43 3955.69) rotate(-43.6)" style="fill:#b7b7b7"/><rect x="3469.95" y="2499.47" width="1119.66" height="4.8" style="fill:#b7b7b7"/><path d="M3490.81,2501.23c.28.73,26.22,76.06,79.39,156.93,48.93,74.4,131.73,168.84,247.86,196.26l-1.57,6.55c-52.34-12.37-102.37-38.86-148.72-78.93-37-31.94-71.72-72.37-103.29-120.37-53.64-81.61-79.85-157.58-80.13-158.41Z" style="fill:#b7b7b7"/><path d="M4930.52,2508.61l6.28,2.59c-22.89,56.12-52.34,107.26-87.79,152a558.79,558.79,0,0,1-99.51,97.94c-67.48,51.33-127.3,71.45-144.1,76.43l-1.94-6.46c16.43-4.89,75.32-24.83,141.88-75.32C4826.67,2694.07,4888.89,2610.89,4930.52,2508.61Z" style="fill:#b7b7b7"/><path d="M3826.74,2498.46c.09.09,10.43,14.4,31.75,28.34,19.67,12.92,53.08,28.34,100.25,28.34,92.32,0,378.76-3.33,381.63-3.33h.18a717.41,717.41,0,0,0,96.56-3.78c68.22-7.39,118.53-24.28,145.39-48.65l4.53,5c-15.7,14.22-38.5,25.94-67.85,34.81-23.27,7-50.68,12.27-81.52,15.6a729.77,729.77,0,0,1-97.39,3.78c-6.46.09-289.86,3.33-381.62,3.33-49.11,0-83.82-16.07-104.31-29.64-22.34-14.67-32.86-29.35-33.33-29.91Z" style="fill:#b7b7b7"/></g><g id="linee-parcheggi"><rect x="3448.53" y="2492.46" width="5.54" height="230.32" style="fill:#fff"/><rect x="2820.16" y="2489.69" width="364.82" height="5.54" style="fill:#fff"/><rect x="2428.57" y="2489.69" width="366.48" height="5.54" style="fill:#fff"/><rect x="2037.07" y="2489.69" width="366.48" height="5.54" style="fill:#fff"/><rect x="1643.91" y="2489.69" width="366.48" height="5.54" style="fill:#fff"/><rect x="1253.98" y="2489.69" width="366.48" height="5.54" style="fill:#fff"/><rect x="860.91" y="2489.69" width="366.48" height="5.54" style="fill:#fff"/><rect x="410.52" y="2489.69" width="425.29" height="5.54" style="fill:#fff"/><rect x="3210.09" y="2489.69" width="241.21" height="5.54" style="fill:#fff"/><rect x="3327.88" y="2492.46" width="5.54" height="230.32" style="fill:#fff"/><rect x="3207.32" y="2492.46" width="5.54" height="230.32" style="fill:#fff"/><rect x="3182.21" y="2492.46" width="5.54" height="230.32" style="fill:#fff"/><rect x="3060.08" y="2492.46" width="5.54" height="230.32" style="fill:#fff"/><rect x="2936.38" y="2492.46" width="5.54" height="230.32" style="fill:#fff"/><rect x="2817.39" y="2492.46" width="5.54" height="230.32" style="fill:#fff"/><rect x="2792.28" y="2492.46" width="5.54" height="230.32" style="fill:#fff"/><rect x="2546.45" y="2492.46" width="5.54" height="230.32" style="fill:#fff"/><rect x="2425.8" y="2492.46" width="5.54" height="230.32" style="fill:#fff"/><rect x="2400.78" y="2492.46" width="5.54" height="230.32" style="fill:#fff"/><rect x="2276.99" y="2492.46" width="5.54" height="230.32" style="fill:#fff"/><rect x="2158.55" y="2492.46" width="5.54" height="230.32" style="fill:#fff"/><rect x="2034.3" y="2492.46" width="5.54" height="230.32" style="fill:#fff"/><rect x="2007.62" y="2492.46" width="5.54" height="230.32" style="fill:#fff"/><rect x="1887.06" y="2492.46" width="5.54" height="230.32" style="fill:#fff"/><rect x="1763.36" y="2492.46" width="5.54" height="230.32" style="fill:#fff"/><rect x="1641.14" y="2492.46" width="5.54" height="230.32" style="fill:#fff"/><rect x="1617.69" y="2492.46" width="5.54" height="230.32" style="fill:#fff"/><rect x="1493.99" y="2492.46" width="5.54" height="230.32" style="fill:#fff"/><rect x="1373.43" y="2492.46" width="5.54" height="230.32" style="fill:#fff"/><rect x="1251.21" y="2492.46" width="5.54" height="230.32" style="fill:#fff"/><rect x="1224.62" y="2492.46" width="5.54" height="230.32" style="fill:#fff"/><rect x="1102.4" y="2492.46" width="5.54" height="230.32" style="fill:#fff"/><rect x="980.27" y="2492.46" width="5.54" height="230.32" style="fill:#fff"/><rect x="857.49" y="2492.46" width="5.54" height="230.32" style="fill:#fff"/><rect x="833.03" y="2492.46" width="5.54" height="230.32" style="fill:#fff"/><rect x="712.47" y="2492.46" width="5.54" height="230.32" style="fill:#fff"/><rect x="588.77" y="2492.46" width="5.54" height="230.32" style="fill:#fff"/><rect x="565.23" y="2492.46" width="5.54" height="230.32" style="fill:#fff"/><rect x="407.75" y="2492.46" width="5.54" height="230.32" style="fill:#fff"/><rect x="34.62" y="2476.12" width="239" height="5.54" style="fill:#fff"/><rect x="270.85" y="2165.85" width="5.54" height="313.03" style="fill:#fff"/><rect x="34.62" y="2319.65" width="239" height="5.54" style="fill:#fff"/><rect x="34.62" y="2163.08" width="239" height="5.54" style="fill:#fff"/><rect x="34.62" y="2132.44" width="239" height="5.54" style="fill:#fff"/><rect x="270.85" y="1822.27" width="5.54" height="312.94" style="fill:#fff"/><rect x="34.62" y="1975.97" width="239" height="5.54" style="fill:#fff"/><rect x="34.62" y="1819.5" width="239" height="5.54" style="fill:#fff"/><rect x="417.44" y="1161.49" width="5.54" height="256.35" style="fill:#fff"/><rect x="576.31" y="1161.49" width="5.54" height="256.35" style="fill:#fff"/><rect x="597.54" y="1161.49" width="5.54" height="256.35" style="fill:#fff"/><rect x="713.86" y="1161.49" width="5.54" height="256.35" style="fill:#fff"/><rect x="830.17" y="1161.49" width="5.54" height="256.35" style="fill:#fff"/><rect x="931.16" y="1317.13" width="5.54" height="100.71" style="fill:#fff"/><rect x="882.23" y="1317.13" width="5.54" height="100.71" style="fill:#fff"/><rect x="979.99" y="1317.13" width="5.54" height="100.71" style="fill:#fff"/><rect x="1028.92" y="1317.13" width="5.54" height="100.71" style="fill:#fff"/><rect x="1077.75" y="1317.13" width="5.54" height="100.71" style="fill:#fff"/><rect x="1126.68" y="1317.13" width="5.54" height="100.71" style="fill:#fff"/><rect x="1175.51" y="1317.13" width="5.54" height="100.71" style="fill:#fff"/><rect x="1224.44" y="1317.13" width="5.54" height="100.71" style="fill:#fff"/><rect x="885" y="1415.07" width="342.2" height="5.54" style="fill:#fff"/><rect x="1299.3" y="1317.13" width="5.54" height="100.71" style="fill:#fff"/><rect x="1250.38" y="1317.13" width="5.54" height="100.71" style="fill:#fff"/><rect x="1348.14" y="1317.13" width="5.54" height="100.71" style="fill:#fff"/><rect x="1397.06" y="1317.13" width="5.54" height="100.71" style="fill:#fff"/><rect x="1445.9" y="1317.13" width="5.54" height="100.71" style="fill:#fff"/><rect x="1494.82" y="1317.13" width="5.54" height="100.71" style="fill:#fff"/><rect x="1543.75" y="1317.13" width="5.54" height="100.71" style="fill:#fff"/><rect x="1592.58" y="1317.13" width="5.54" height="100.71" style="fill:#fff"/><rect x="1765.58" y="1415.07" width="244.63" height="5.54" style="fill:#fff"/><rect x="2034.67" y="1415.07" width="366.76" height="5.54" style="fill:#fff"/><rect x="2034.67" y="1172.75" width="366.76" height="5.54" style="fill:#fff"/><rect x="1765.58" y="1172.75" width="244.63" height="5.54" style="fill:#fff"/><rect x="1762.81" y="1175.52" width="5.54" height="242.32" style="fill:#fff"/><rect x="1885.12" y="1175.52" width="5.54" height="242.32" style="fill:#fff"/><rect x="2007.44" y="1175.52" width="5.54" height="242.32" style="fill:#fff"/><rect x="2031.9" y="1175.52" width="5.54" height="242.32" style="fill:#fff"/><rect x="2154.21" y="1175.52" width="5.54" height="242.32" style="fill:#fff"/><rect x="2276.44" y="1175.52" width="5.54" height="242.32" style="fill:#fff"/><rect x="2398.66" y="1175.52" width="5.54" height="242.32" style="fill:#fff"/><rect x="2426.44" y="1415.07" width="366.76" height="5.54" style="fill:#fff"/><rect x="2818.59" y="1415.07" width="366.76" height="5.54" style="fill:#fff"/><rect x="3209.35" y="1415.07" width="366.76" height="5.54" style="fill:#fff"/><rect x="3600.2" y="1415.07" width="366.67" height="5.54" style="fill:#fff"/><rect x="3991.88" y="1415.07" width="265.68" height="5.54" style="fill:#fff"/><rect x="4932.74" y="1380.09" width="248.14" height="5.54" style="fill:#fff"/><rect x="4932.74" y="1501.39" width="248.14" height="5.54" style="fill:#fff"/><rect x="4932.74" y="1622.78" width="248.14" height="5.54" style="fill:#fff"/><rect x="4932.74" y="1744.08" width="248.14" height="5.54" style="fill:#fff"/><rect x="4932.74" y="1769.74" width="248.14" height="5.54" style="fill:#fff"/><rect x="4932.74" y="1891.04" width="248.14" height="5.54" style="fill:#fff"/><rect x="4932.74" y="2012.34" width="248.14" height="5.54" style="fill:#fff"/><rect x="4932.74" y="2133.73" width="248.14" height="5.54" style="fill:#fff"/><rect x="4932.74" y="2161.05" width="248.14" height="5.54" style="fill:#fff"/><rect x="4932.74" y="2282.54" width="248.14" height="5.54" style="fill:#fff"/><rect x="4932.74" y="2404.02" width="248.14" height="5.54" style="fill:#fff"/><rect x="4929.97" y="1382.86" width="5.54" height="363.99" style="fill:#fff"/><rect x="4929.97" y="1772.51" width="5.54" height="363.99" style="fill:#fff"/><rect x="4565.15" y="1711.03" width="5.54" height="488.7" style="fill:#fff"/><rect x="4442.28" y="1711.03" width="5.54" height="488.7" style="fill:#fff"/><rect x="4199.4" y="1952.61" width="368.51" height="5.54" style="fill:#fff"/><rect x="4199.4" y="1708.26" width="368.51" height="5.54" style="fill:#fff"/><rect x="4199.4" y="2196.96" width="368.51" height="5.54" style="fill:#fff"/><rect x="3805.32" y="2196.96" width="368.51" height="5.54" style="fill:#fff"/><rect x="3220.7" y="2196.96" width="245.18" height="5.54" style="fill:#fff"/><rect x="2831.33" y="2196.96" width="363.99" height="5.54" style="fill:#fff"/><rect x="2831.33" y="1952.61" width="363.99" height="5.54" style="fill:#fff"/><rect x="2831.33" y="1708.26" width="363.99" height="5.54" style="fill:#fff"/><rect x="3220.7" y="1952.61" width="245.18" height="5.54" style="fill:#fff"/><rect x="3220.7" y="1708.26" width="245.18" height="5.54" style="fill:#fff"/><rect x="3805.32" y="1952.61" width="368.51" height="5.54" style="fill:#fff"/><rect x="3805.32" y="1708.26" width="368.51" height="5.54" style="fill:#fff"/><rect x="4319.41" y="1711.03" width="5.54" height="488.7" style="fill:#fff"/><rect x="4196.63" y="1711.03" width="5.54" height="488.7" style="fill:#fff"/><rect x="4171.06" y="1711.03" width="5.54" height="488.7" style="fill:#fff"/><rect x="4048.2" y="1711.03" width="5.54" height="488.7" style="fill:#fff"/><rect x="3925.42" y="1711.03" width="5.54" height="488.7" style="fill:#fff"/><rect x="3802.55" y="1711.03" width="5.54" height="488.7" style="fill:#fff"/><rect x="3463.12" y="1711.03" width="5.54" height="488.7" style="fill:#fff"/><rect x="3340.53" y="1711.03" width="5.54" height="488.7" style="fill:#fff"/><rect x="3217.93" y="1711.03" width="5.54" height="488.7" style="fill:#fff"/><rect x="3192.55" y="1711.03" width="5.54" height="488.7" style="fill:#fff"/><rect x="3071.25" y="1711.03" width="5.54" height="488.7" style="fill:#fff"/><rect x="2949.95" y="1711.03" width="5.54" height="488.7" style="fill:#fff"/><rect x="2828.56" y="1711.03" width="5.54" height="488.7" style="fill:#fff"/><rect x="2439.18" y="2196.96" width="363.99" height="5.54" style="fill:#fff"/><rect x="2439.18" y="1952.61" width="363.99" height="5.54" style="fill:#fff"/><rect x="2439.18" y="1708.26" width="363.99" height="5.54" style="fill:#fff"/><rect x="2800.4" y="1711.03" width="5.54" height="488.7" style="fill:#fff"/><rect x="2679.01" y="1711.03" width="5.54" height="488.7" style="fill:#fff"/><rect x="2557.71" y="1711.03" width="5.54" height="488.7" style="fill:#fff"/><rect x="2436.41" y="1711.03" width="5.54" height="488.7" style="fill:#fff"/><rect x="2049.81" y="2196.96" width="363.99" height="5.54" style="fill:#fff"/><rect x="2049.81" y="1952.61" width="363.99" height="5.54" style="fill:#fff"/><rect x="2049.81" y="1708.26" width="363.99" height="5.54" style="fill:#fff"/><rect x="2411.03" y="1711.03" width="5.54" height="488.7" style="fill:#fff"/><rect x="2289.73" y="1711.03" width="5.54" height="488.7" style="fill:#fff"/><rect x="2168.34" y="1711.03" width="5.54" height="488.7" style="fill:#fff"/><rect x="2047.04" y="1711.03" width="5.54" height="488.7" style="fill:#fff"/><rect x="1657.57" y="2196.96" width="363.99" height="5.54" style="fill:#fff"/><rect x="1657.57" y="1952.61" width="363.99" height="5.54" style="fill:#fff"/><rect x="1657.57" y="1708.26" width="363.99" height="5.54" style="fill:#fff"/><rect x="2018.79" y="1711.03" width="5.54" height="488.7" style="fill:#fff"/><rect x="1897.49" y="1711.03" width="5.54" height="488.7" style="fill:#fff"/><rect x="1776.19" y="1711.03" width="5.54" height="488.7" style="fill:#fff"/><rect x="1654.8" y="1711.03" width="5.54" height="488.7" style="fill:#fff"/><rect x="1267.27" y="2196.96" width="363.99" height="5.54" style="fill:#fff"/><rect x="1267.27" y="1952.61" width="363.99" height="5.54" style="fill:#fff"/><rect x="1267.27" y="1708.26" width="363.99" height="5.54" style="fill:#fff"/><rect x="1628.49" y="1711.03" width="5.54" height="488.7" style="fill:#fff"/><rect x="1507.19" y="1711.03" width="5.54" height="488.7" style="fill:#fff"/><rect x="1385.89" y="1711.03" width="5.54" height="488.7" style="fill:#fff"/><rect x="1264.5" y="1711.03" width="5.54" height="488.7" style="fill:#fff"/><rect x="874.11" y="2196.96" width="364.08" height="5.54" style="fill:#fff"/><rect x="874.11" y="1952.61" width="364.08" height="5.54" style="fill:#fff"/><rect x="874.11" y="1708.26" width="364.08" height="5.54" style="fill:#fff"/><rect x="1235.42" y="1711.03" width="5.54" height="488.7" style="fill:#fff"/><rect x="1114.03" y="1711.03" width="5.54" height="488.7" style="fill:#fff"/><rect x="992.73" y="1711.03" width="5.54" height="488.7" style="fill:#fff"/><rect x="871.34" y="1711.03" width="5.54" height="488.7" style="fill:#fff"/><rect x="604.19" y="2196.96" width="242.69" height="5.54" style="fill:#fff"/><rect x="604.19" y="1952.61" width="242.69" height="5.54" style="fill:#fff"/><rect x="604.19" y="1708.26" width="242.69" height="5.54" style="fill:#fff"/><rect x="844.11" y="1711.03" width="5.54" height="488.7" style="fill:#fff"/><rect x="722.81" y="1711.03" width="5.54" height="488.7" style="fill:#fff"/><rect x="601.42" y="1711.03" width="5.54" height="488.7" style="fill:#fff"/><rect x="4929.97" y="2163.82" width="5.54" height="242.97" style="fill:#fff"/><rect x="3991.88" y="1172.75" width="265.68" height="5.54" style="fill:#fff"/><rect x="3600.2" y="1172.75" width="366.67" height="5.54" style="fill:#fff"/><rect x="3209.35" y="1172.75" width="366.76" height="5.54" style="fill:#fff"/><rect x="2816.74" y="1172.75" width="366.76" height="5.54" style="fill:#fff"/><rect x="2426.44" y="1172.75" width="366.76" height="5.54" style="fill:#fff"/><rect x="2813.97" y="1175.52" width="5.54" height="242.32" style="fill:#fff"/><rect x="2790.43" y="1177.09" width="5.54" height="242.32" style="fill:#fff"/><rect x="2423.67" y="1175.52" width="5.54" height="242.32" style="fill:#fff"/><rect x="2545.9" y="1175.52" width="5.54" height="242.32" style="fill:#fff"/><rect x="2668.12" y="1177.09" width="5.54" height="242.32" style="fill:#fff"/><rect x="2936.2" y="1175.52" width="5.54" height="242.32" style="fill:#fff"/><rect x="3058.42" y="1175.52" width="5.54" height="242.32" style="fill:#fff"/><rect x="3180.73" y="1175.52" width="5.54" height="242.32" style="fill:#fff"/><rect x="3206.58" y="1175.52" width="5.54" height="242.32" style="fill:#fff"/><rect x="3328.89" y="1165.09" width="5.54" height="242.32" style="fill:#fff"/><rect x="3451.12" y="1165.09" width="5.54" height="242.32" style="fill:#fff"/><rect x="3573.34" y="1175.52" width="5.54" height="242.32" style="fill:#fff"/><rect x="3597.43" y="1175.52" width="5.54" height="242.32" style="fill:#fff"/><rect x="3719.65" y="1175.52" width="5.54" height="242.32" style="fill:#fff"/><rect x="3841.88" y="1175.52" width="5.54" height="242.32" style="fill:#fff"/><rect x="3964.1" y="1175.52" width="5.54" height="242.32" style="fill:#fff"/><rect x="3989.12" y="1175.52" width="5.54" height="242.32" style="fill:#fff"/><rect x="4100.45" y="1175.52" width="5.54" height="242.32" style="fill:#fff"/><rect x="4254.79" y="1175.52" width="5.54" height="242.32" style="fill:#fff"/><rect x="1253.15" y="1415.07" width="342.2" height="5.54" style="fill:#fff"/><rect x="600.31" y="1415.07" width="232.63" height="5.54" style="fill:#fff"/><rect x="420.21" y="1415.07" width="158.87" height="5.54" style="fill:#fff"/><rect x="48.37" y="2132.44" width="225.24" height="5.54" style="fill:#fff"/><rect x="2668.58" y="2492.46" width="5.54" height="230.32" style="fill:#fff"/></g><g id="walls"><path d="M32.31,2992.61h136l33.6,364.08.37,3.78,2.58,28,31.76-3,19.94-1.85-2.68-28-19.57,1.85h-.37l-36.56-396.94-3.87.36v-.36H32.31v-263h19v-15.7H32.22v-78.65h19v-15.69h-19v-876.7H274V1391.16h6v-31.94H242v225.89H.37v1407.5ZM242.14,1617.05h15v77.18H32.31v-77.18Z" style="fill:#b7b7b7"/><path d="M241.77,1359h38.58v32.58h-6v319.68H32.59v876.05H51.7v16.43H32.59v77.92H51.7V2698H32.59v262.35H193.86v.37l3.78-.37,36.56,396.85h0l19.94-1.84,2.67,28.71-20.3,1.84-32.13,3L167.92,2993H0V1584.74H241.77Zm37.94.64h-37.2v225.89H.65V2992.33H168.47v.28l36.46,395.56,51-4.71-2.58-27.32L233.46,3358v-.37L197,2961l-3.88.37V2961H31.94V2697.3H51v-15.05h-19V2603H51v-15.05h-19V1710.57H273.71V1390.89h6ZM31.94,1616.68H257.55v77.82H31.94Zm224.87.65H32.59v76.53H256.81Z" style="fill:#b7b7b7"/><path d="M4345.07,2854.88H858V2748.16H3475.67v-15.69H156.1V2587.63H117.51v15.69h22.9V2682h-22.9v15.7h22.9v50.49H842.26v106.72H309.8v2.95l2.68,29,42.09,455.84.37,3.78-9.14.83,2.59,28,9.05-.83,31.75-2.95-.09-.65-2.49-27.32-42.1-456.58h4002l832.11-74.77,31.94-2.87v-911h289.21V1555.67H5210.51v-249.8H4385.23v31.94h793.34V2780ZM5467.78,1587.51V1866.3H5210.51V1587.51Z" style="fill:#b7b7b7"/><path d="M4384.86,1305.59h825.92V1555.3H5500v343.22H5210.78v911l-32.21,2.86-832.11,74.78H344.88l42.1,456.3,2.67,28.34h-.37l-41.17,3.78-2.68-28.71,9.14-.83-.37-3.41-42-455.84-2.67-29v-3.32H841.89V2748.44H140V2698h-22.8v-16.44h22.89V2603.6H117.24v-16.43h39.23V2732.1H3476v16.43H858.32v106H4345.07l833.13-74.78V1338.18H4384.86Zm825.28.65H4385.6v31.2h793.24V2780.29h-.27l-833.5,74.86H857.59V2747.79H3475.3v-15H155.73V2587.91H117.79V2603h22.89v79.29H117.79v15.05h22.89v50.49H842.54v107.46H310.08v2.58l2.68,29,42,455.84.37,4.15-9.14.83,2.58,27.33,40.16-3.7V3371l-2.49-27.33-42.1-457H4346.46l832-74.77,31.58-2.86V1897.87h289.21V1555.94H5210.14Zm0,280.9h257.92v279.44H5210.14Zm257.37.65H5210.88v278h256.63Z" style="fill:#b7b7b7"/><path d="M406.27,1390.24V1169.15H842.63v209.64h31.94v-54.28h741.92v54.28h31.94V1042.41h20.49V1025.7h-20.49V861.38H1821v9.51h16.62v-9.51h204.93V656h208.72V622.2h187.68V978.62H1837.58V951.94H1821v73.85h-63.88v16.62h11v127.66H4266.61v167.74h49.11v-31.94h-17.17V1138.13H3618.66V1010.47H2470.85v-658H1804.72V618.32H1616.49v674.25H874.57V1137.21H374.42v222h-5.54v31.94h37.48v-.92Zm3180.45-347.83v111H1784.78v-111h52.8V995.23h601.33v47.18Zm-1782-392.24h31.94V384.4h602.25V605.49H2234.53v33.88H2025.81v205.3H1648.43V650.26Z" style="fill:#b7b7b7"/><path d="M1804.35,352.18h666.77v658H3618.94v127.67h679.88v167.73H4316v32.59h-49.76V1170.44H1767.7V1042.78h-11v-17.36h63.88V951.57H1838v26.68h600.59V622.57H2251.42v33.78H2042.7v205.4H1837.86v9.51H1820.5v-9.51H1648.71v163.67h20.49v17.36h-20.49v336.38h-32.59v-54.28H874.85v54.28H842.26V1169.52H406.55v222H368.42V1359H374v-222H874.85V1292.3h741.27V618h188.13Zm666.13.65H1805.09V618.69H1616.86v674.25H874.2V1137.58H374.7v222h-5.54v31.2H405.9v-222H843v209.65h31.2v-54.28h742.57v54.28H1648V1042h20.49v-16H1648V861h173.18v9.51h16V861H2042V655.62h208.72V621.83h188.41V978.9h-602V952.22h-16v73.85h-63.88v16h11V1169.8H4266.79v167.73h48.37v-31.2H4298V1138.5H3618V1010.84H2470.48Zm-634.19,31.29h603V605.86H2234.89v33.79H2026.17V845h-378V649.89h188.23Zm602.25.65H1836.93V650.54H1648.71V844.3h376.73V639h208.72V605.21h204.38ZM1837.21,995h602v47.17H3587v111.7H1784.41v-111.7h52.89Zm601.33.64H1838v47.18h-52.9v110.31h1801.3V1042.78H2438.54Z" style="fill:#b7b7b7"/><rect x="3460.16" y="2499.47" width="15.69" height="248.97" style="fill:#b7b7b7"/><path d="M3459.89,2499.1h16.43v249.62h-16.43Zm15.69.65h-15v248.32h15Z" style="fill:#b7b7b7"/><polygon points="4929.14 2515.07 5183.92 2515.07 5183.92 2499.29 4934.95 2499.29 4929.14 2515.07" style="fill:#b7b7b7"/><path d="M4934.77,2499h249.52v16.43H4928.68Zm248.78.65H4935.14l-5.54,15h253.95Z" style="fill:#b7b7b7"/></g></g></svg>