<svg id="Livello_1" data-name="Livello 1" xmlns="http://www.w3.org/2000/svg" width="10564.7" height="7802.8" viewBox="0 0 10564.7 7802.8"><title>external</title><g opacity="0.36"><polygon points="7580.8 7317 7581.3 7802.8 7738.7 7802.8 7738.2 7317 7580.8 7317" fill="none"/><polygon points="0 0 0 8.2 79.1 0 0 0" fill="none"/><path d="M10564.7,5315.5c-1600.2,52.5-3143.5,116.9-3345.1,121.8-283.1,6.9-450.2,42.9-541.8,116.8-82.3,66.3-114.9,173.1-112.8,368.4,1,89.4,23.2,809.3,57.3,1877.4h3942.4Z" transform="translate(0 2.9)" fill="#e5edf4"/><polygon points="2906.6 2708.1 3685.3 2672.9 3649.5 1934.3 4381.1 1864.2 4381.1 1168.8 0 1823.9 0 1968.8 3479.4 1445.6 3521.2 2499.3 0 2651.8 0 2835.2 2906.6 2711.3 2906.6 2708.1" fill="#e5edf4"/><path d="M2774.1,6109.3l72-3278.2L0,2952.5v130.9l2367.4,1.4-.9,1138.1L0,4221.4V7799.9H6465.3c-26.3-823.3-45.5-1439.5-53.4-1719.2Z" transform="translate(0 2.9)" fill="#e5edf4"/><path d="M4526,2644.8l2113.5-57.2L6471.3,786.5,4476.9,1149l24.5-.7ZM6380.2,887.9l136.3,1557-731.1,10.5L5775,1020.2Z" transform="translate(0 2.9)" fill="#e5edf4"/><path d="M6385.5-2.9H5918.8a205.7,205.7,0,0,1,36.7,95.3L6030.8,723,4944,851l.8,6.5L3570.4,1019.8l-.8-6.5-1.2.4-99.7-836.9h1.3L3448.6-2.9H2801.8l50,419.7-5.2.7,81,679.1-984.4,116.3-81-679.2L1382,590.4l81.8,685.1-504.1,59.6L877.9,650,593.2,683.6,674.7,1367l-504.1,59.6L76.8,639.8l4-.4L39.1,289.5,2515.2-2.9H79.1L0,5.3V1726.2L6462.6,676.6Z" transform="translate(0 2.9)" fill="#e5edf4"/><path d="M10564.7-2.9H8426l45.3,345.7L6937.2,541.6,6865.9-2.9H6498.2l274.3,2706.7-2241.6,60.7,7.2,313.4,106.8,1286-120.2,9.9-107-1289.4-7.3-316.5h-1.2l-24.2-786-609.4,58.4,35.7,734.2-17.4.8,3.4,317.5-120.7,1.3-3.2-303.1L2967,2822.9l-69.5,3165.7,3511.2-28c-.4-16.5-.6-28.7-.7-36.4-2.3-173.4,16.7-367.6,170.7-491.8,122-98.4,312.5-143.7,636.7-151.6,201.5-4.9,1749.7-49.6,3349.3-102ZM4083.6,2909.2c-105.3,1.8-192.2-81.6-194-186.4s82.1-191.1,187.4-193,192.1,81.6,193.9,186.4S4188.9,2907.3,4083.6,2909.2Zm2757.2-469.6L6674.2,837.1l948.6-182.2,309.4,1806.7Z" transform="translate(0 2.9)" fill="#e5edf4"/><path d="M4077,2529.8c-105.3,1.9-189.2,88.3-187.4,193s88.7,188.2,194,186.4,189.2-88.3,187.3-193S4182.3,2528,4077,2529.8Z" transform="translate(0 2.9)" fill="#e5edf4"/><path d="M4077,2529.8c-105.3,1.9-189.2,88.3-187.4,193s88.7,188.2,194,186.4,189.2-88.3,187.3-193S4182.3,2528,4077,2529.8Z" transform="translate(0 2.9)" fill="#6e8696" opacity="0.18" style="isolation:isolate"/><polygon points="2367.4 3087.7 0 3086.3 0 4224.3 2366.5 4225.8 2367.4 3087.7" fill="#6e8696"/><polygon points="8471.3 345.7 8426 0 6865.9 0 6937.2 544.5 8471.3 345.7" fill="#6e8696"/><path d="M3468.7,176.8l99.7,836.9,1.2-.4.8,6.5L4944.8,857.5l-.8-6.5L6030.8,723,5955.5,92.4a205.7,205.7,0,0,0-36.7-95.3H3448.6L3470,176.8Z" transform="translate(0 2.9)" fill="#6e8696"/><polygon points="80.8 642.3 76.8 642.7 170.6 1429.5 674.7 1369.9 593.2 686.5 877.9 652.9 959.7 1338 1463.8 1278.4 1382 593.3 1862.2 536.6 1943.2 1215.8 2927.6 1099.5 2846.6 420.4 2851.8 419.7 2801.8 0 2515.2 0 39.1 292.4 80.8 642.3" fill="#6e8696"/><polygon points="6516.5 2447.8 6380.2 890.8 5775 1023.1 5785.4 2458.3 6516.5 2447.8" fill="#d2e4cc"/><polygon points="7932.2 2464.5 7622.8 657.8 6674.2 840 6840.8 2442.5 7932.2 2464.5" fill="#d2e4cc"/><polygon points="3479.4 1445.6 0 1968.8 0 2651.8 3521.2 2499.3 3479.4 1445.6" fill="#d2e4cc"/></g><path d="M6462.6,676.6,0,1726.2V1821l4381.1-655.1v695.4l-731.6,70.1,35.8,738.6-778.7,35.2v3.2L0,2832.3v120.2l2846.1-121.4-72,3278.2,3637.8-28.6c7.9,279.7,27.1,895.9,53.4,1719.2h157c-34.1-1068.1-56.3-1788-57.3-1877.4-2.1-195.3,30.5-302.1,112.8-368.4,91.6-73.9,258.7-109.9,541.8-116.8,201.6-4.9,1744.9-69.3,3345.1-121.8V5178.8c-1599.6,52.4-3147.8,97.1-3349.3,102-324.2,7.9-514.7,53.2-636.7,151.6-154,124.2-173,318.4-170.7,491.8.1,7.7.3,19.9.7,36.4l-3511.2,28L2967,2822.9l706.4-31.9,3.2,303.1,120.7-1.3-3.4-317.5,17.4-.8-35.7-734.2,609.4-58.4,24.2,786h1.2l7.3,316.5,107,1289.4,120.2-9.9-106.8-1286-7.2-313.4,2241.6-60.7L6499.1,5.3H6386.4Zm176.9,1911L4526,2644.8l-24.6-1496.5-24.5.7L6471.3,786.5Z" transform="translate(0 2.9)" fill="#fff"/><path d="M5918.8-2.9c1.9,2.7,3.8,5.4,5.5,8.2h462.1l-.9-8.2Z" transform="translate(0 2.9)" fill="#e5edf4"/><polygon points="10564.7 0 8426 0 8427.1 8.2 10564.7 8.2 10564.7 0" fill="#e5edf4"/><polygon points="6498.2 0 6499.1 8.2 6867 8.2 6865.9 0 6498.2 0" fill="#e5edf4"/></svg>