<svg id="Livello_1" data-name="Livello 1" xmlns="http://www.w3.org/2000/svg" width="32" height="32" viewBox="0 0 32 32"><title>compass</title><path d="M22.6,1.4a16.1,16.1,0,0,0-21.2,8,16.1,16.1,0,0,0,8,21.2,16.1,16.1,0,0,0,21.2-8A16.1,16.1,0,0,0,22.6,1.4Zm5.6,20.1a13.5,13.5,0,0,1-17.7,6.7A13.5,13.5,0,0,1,3.8,10.5,13.5,13.5,0,0,1,21.5,3.8,13.5,13.5,0,0,1,28.2,21.5Z" transform="translate(0 0)" fill="#aac1d1"/><path d="M12.4,18.1l7.7,8.4.2-11.4L12.6,6.7Zm6-2.4v5.4l-3.6-4Z" transform="translate(0 0)" fill="#aac1d1"/></svg>